%TF.GenerationSoftware,KiCad,Pcbnew,9.0.6*%
%TF.CreationDate,2026-03-02T19:10:46-06:00*%
%TF.ProjectId,1000W Controller,31303030-5720-4436-9f6e-74726f6c6c65,rev?*%
%TF.SameCoordinates,Original*%
%TF.FileFunction,Legend,Top*%
%TF.FilePolarity,Positive*%
%FSLAX46Y46*%
G04 Gerber Fmt 4.6, Leading zero omitted, Abs format (unit mm)*
G04 Created by KiCad (PCBNEW 9.0.6) date 2026-03-02 19:10:46*
%MOMM*%
%LPD*%
G01*
G04 APERTURE LIST*
%ADD10C,0.300000*%
%ADD11C,0.150000*%
%ADD12C,0.100000*%
%ADD13C,0.120000*%
G04 APERTURE END LIST*
D10*
X143177142Y-121231996D02*
X142177142Y-121231996D01*
X142177142Y-122803425D02*
X142177142Y-119803425D01*
X142177142Y-119803425D02*
X143605714Y-119803425D01*
X144748571Y-119803425D02*
X144748571Y-122231996D01*
X144748571Y-122231996D02*
X144891428Y-122517710D01*
X144891428Y-122517710D02*
X145034286Y-122660568D01*
X145034286Y-122660568D02*
X145320000Y-122803425D01*
X145320000Y-122803425D02*
X145891428Y-122803425D01*
X145891428Y-122803425D02*
X146177143Y-122660568D01*
X146177143Y-122660568D02*
X146320000Y-122517710D01*
X146320000Y-122517710D02*
X146462857Y-122231996D01*
X146462857Y-122231996D02*
X146462857Y-119803425D01*
X149605714Y-122517710D02*
X149462857Y-122660568D01*
X149462857Y-122660568D02*
X149034285Y-122803425D01*
X149034285Y-122803425D02*
X148748571Y-122803425D01*
X148748571Y-122803425D02*
X148320000Y-122660568D01*
X148320000Y-122660568D02*
X148034285Y-122374853D01*
X148034285Y-122374853D02*
X147891428Y-122089139D01*
X147891428Y-122089139D02*
X147748571Y-121517710D01*
X147748571Y-121517710D02*
X147748571Y-121089139D01*
X147748571Y-121089139D02*
X147891428Y-120517710D01*
X147891428Y-120517710D02*
X148034285Y-120231996D01*
X148034285Y-120231996D02*
X148320000Y-119946282D01*
X148320000Y-119946282D02*
X148748571Y-119803425D01*
X148748571Y-119803425D02*
X149034285Y-119803425D01*
X149034285Y-119803425D02*
X149462857Y-119946282D01*
X149462857Y-119946282D02*
X149605714Y-120089139D01*
X150891428Y-122803425D02*
X150891428Y-119803425D01*
X152605714Y-122803425D02*
X151320000Y-121089139D01*
X152605714Y-119803425D02*
X150891428Y-121517710D01*
X144462857Y-127633257D02*
X144462857Y-124633257D01*
X147605714Y-127347542D02*
X147462857Y-127490400D01*
X147462857Y-127490400D02*
X147034285Y-127633257D01*
X147034285Y-127633257D02*
X146748571Y-127633257D01*
X146748571Y-127633257D02*
X146320000Y-127490400D01*
X146320000Y-127490400D02*
X146034285Y-127204685D01*
X146034285Y-127204685D02*
X145891428Y-126918971D01*
X145891428Y-126918971D02*
X145748571Y-126347542D01*
X145748571Y-126347542D02*
X145748571Y-125918971D01*
X145748571Y-125918971D02*
X145891428Y-125347542D01*
X145891428Y-125347542D02*
X146034285Y-125061828D01*
X146034285Y-125061828D02*
X146320000Y-124776114D01*
X146320000Y-124776114D02*
X146748571Y-124633257D01*
X146748571Y-124633257D02*
X147034285Y-124633257D01*
X147034285Y-124633257D02*
X147462857Y-124776114D01*
X147462857Y-124776114D02*
X147605714Y-124918971D01*
X148891428Y-126061828D02*
X149891428Y-126061828D01*
X150320000Y-127633257D02*
X148891428Y-127633257D01*
X148891428Y-127633257D02*
X148891428Y-124633257D01*
X148891428Y-124633257D02*
X150320000Y-124633257D01*
D11*
X167639419Y-74637551D02*
X167591800Y-74685171D01*
X167591800Y-74685171D02*
X167448943Y-74732790D01*
X167448943Y-74732790D02*
X167353705Y-74732790D01*
X167353705Y-74732790D02*
X167210848Y-74685171D01*
X167210848Y-74685171D02*
X167115610Y-74589932D01*
X167115610Y-74589932D02*
X167067991Y-74494694D01*
X167067991Y-74494694D02*
X167020372Y-74304218D01*
X167020372Y-74304218D02*
X167020372Y-74161361D01*
X167020372Y-74161361D02*
X167067991Y-73970885D01*
X167067991Y-73970885D02*
X167115610Y-73875647D01*
X167115610Y-73875647D02*
X167210848Y-73780409D01*
X167210848Y-73780409D02*
X167353705Y-73732790D01*
X167353705Y-73732790D02*
X167448943Y-73732790D01*
X167448943Y-73732790D02*
X167591800Y-73780409D01*
X167591800Y-73780409D02*
X167639419Y-73828028D01*
X168591800Y-74732790D02*
X168020372Y-74732790D01*
X168306086Y-74732790D02*
X168306086Y-73732790D01*
X168306086Y-73732790D02*
X168210848Y-73875647D01*
X168210848Y-73875647D02*
X168115610Y-73970885D01*
X168115610Y-73970885D02*
X168020372Y-74018504D01*
X169448943Y-74066123D02*
X169448943Y-74732790D01*
X169210848Y-73685171D02*
X168972753Y-74399456D01*
X168972753Y-74399456D02*
X169591800Y-74399456D01*
X164636776Y-74774793D02*
X164303443Y-74298602D01*
X164065348Y-74774793D02*
X164065348Y-73774793D01*
X164065348Y-73774793D02*
X164446300Y-73774793D01*
X164446300Y-73774793D02*
X164541538Y-73822412D01*
X164541538Y-73822412D02*
X164589157Y-73870031D01*
X164589157Y-73870031D02*
X164636776Y-73965269D01*
X164636776Y-73965269D02*
X164636776Y-74108126D01*
X164636776Y-74108126D02*
X164589157Y-74203364D01*
X164589157Y-74203364D02*
X164541538Y-74250983D01*
X164541538Y-74250983D02*
X164446300Y-74298602D01*
X164446300Y-74298602D02*
X164065348Y-74298602D01*
X165112967Y-74774793D02*
X165303443Y-74774793D01*
X165303443Y-74774793D02*
X165398681Y-74727174D01*
X165398681Y-74727174D02*
X165446300Y-74679554D01*
X165446300Y-74679554D02*
X165541538Y-74536697D01*
X165541538Y-74536697D02*
X165589157Y-74346221D01*
X165589157Y-74346221D02*
X165589157Y-73965269D01*
X165589157Y-73965269D02*
X165541538Y-73870031D01*
X165541538Y-73870031D02*
X165493919Y-73822412D01*
X165493919Y-73822412D02*
X165398681Y-73774793D01*
X165398681Y-73774793D02*
X165208205Y-73774793D01*
X165208205Y-73774793D02*
X165112967Y-73822412D01*
X165112967Y-73822412D02*
X165065348Y-73870031D01*
X165065348Y-73870031D02*
X165017729Y-73965269D01*
X165017729Y-73965269D02*
X165017729Y-74203364D01*
X165017729Y-74203364D02*
X165065348Y-74298602D01*
X165065348Y-74298602D02*
X165112967Y-74346221D01*
X165112967Y-74346221D02*
X165208205Y-74393840D01*
X165208205Y-74393840D02*
X165398681Y-74393840D01*
X165398681Y-74393840D02*
X165493919Y-74346221D01*
X165493919Y-74346221D02*
X165541538Y-74298602D01*
X165541538Y-74298602D02*
X165589157Y-74203364D01*
X160579261Y-74653124D02*
X160531642Y-74700744D01*
X160531642Y-74700744D02*
X160388785Y-74748363D01*
X160388785Y-74748363D02*
X160293547Y-74748363D01*
X160293547Y-74748363D02*
X160150690Y-74700744D01*
X160150690Y-74700744D02*
X160055452Y-74605505D01*
X160055452Y-74605505D02*
X160007833Y-74510267D01*
X160007833Y-74510267D02*
X159960214Y-74319791D01*
X159960214Y-74319791D02*
X159960214Y-74176934D01*
X159960214Y-74176934D02*
X160007833Y-73986458D01*
X160007833Y-73986458D02*
X160055452Y-73891220D01*
X160055452Y-73891220D02*
X160150690Y-73795982D01*
X160150690Y-73795982D02*
X160293547Y-73748363D01*
X160293547Y-73748363D02*
X160388785Y-73748363D01*
X160388785Y-73748363D02*
X160531642Y-73795982D01*
X160531642Y-73795982D02*
X160579261Y-73843601D01*
X161531642Y-74748363D02*
X160960214Y-74748363D01*
X161245928Y-74748363D02*
X161245928Y-73748363D01*
X161245928Y-73748363D02*
X161150690Y-73891220D01*
X161150690Y-73891220D02*
X161055452Y-73986458D01*
X161055452Y-73986458D02*
X160960214Y-74034077D01*
X162388785Y-73748363D02*
X162198309Y-73748363D01*
X162198309Y-73748363D02*
X162103071Y-73795982D01*
X162103071Y-73795982D02*
X162055452Y-73843601D01*
X162055452Y-73843601D02*
X161960214Y-73986458D01*
X161960214Y-73986458D02*
X161912595Y-74176934D01*
X161912595Y-74176934D02*
X161912595Y-74557886D01*
X161912595Y-74557886D02*
X161960214Y-74653124D01*
X161960214Y-74653124D02*
X162007833Y-74700744D01*
X162007833Y-74700744D02*
X162103071Y-74748363D01*
X162103071Y-74748363D02*
X162293547Y-74748363D01*
X162293547Y-74748363D02*
X162388785Y-74700744D01*
X162388785Y-74700744D02*
X162436404Y-74653124D01*
X162436404Y-74653124D02*
X162484023Y-74557886D01*
X162484023Y-74557886D02*
X162484023Y-74319791D01*
X162484023Y-74319791D02*
X162436404Y-74224553D01*
X162436404Y-74224553D02*
X162388785Y-74176934D01*
X162388785Y-74176934D02*
X162293547Y-74129315D01*
X162293547Y-74129315D02*
X162103071Y-74129315D01*
X162103071Y-74129315D02*
X162007833Y-74176934D01*
X162007833Y-74176934D02*
X161960214Y-74224553D01*
X161960214Y-74224553D02*
X161912595Y-74319791D01*
X155821142Y-82750819D02*
X155487809Y-82274628D01*
X155249714Y-82750819D02*
X155249714Y-81750819D01*
X155249714Y-81750819D02*
X155630666Y-81750819D01*
X155630666Y-81750819D02*
X155725904Y-81798438D01*
X155725904Y-81798438D02*
X155773523Y-81846057D01*
X155773523Y-81846057D02*
X155821142Y-81941295D01*
X155821142Y-81941295D02*
X155821142Y-82084152D01*
X155821142Y-82084152D02*
X155773523Y-82179390D01*
X155773523Y-82179390D02*
X155725904Y-82227009D01*
X155725904Y-82227009D02*
X155630666Y-82274628D01*
X155630666Y-82274628D02*
X155249714Y-82274628D01*
X156773523Y-82750819D02*
X156202095Y-82750819D01*
X156487809Y-82750819D02*
X156487809Y-81750819D01*
X156487809Y-81750819D02*
X156392571Y-81893676D01*
X156392571Y-81893676D02*
X156297333Y-81988914D01*
X156297333Y-81988914D02*
X156202095Y-82036533D01*
X157392571Y-81750819D02*
X157487809Y-81750819D01*
X157487809Y-81750819D02*
X157583047Y-81798438D01*
X157583047Y-81798438D02*
X157630666Y-81846057D01*
X157630666Y-81846057D02*
X157678285Y-81941295D01*
X157678285Y-81941295D02*
X157725904Y-82131771D01*
X157725904Y-82131771D02*
X157725904Y-82369866D01*
X157725904Y-82369866D02*
X157678285Y-82560342D01*
X157678285Y-82560342D02*
X157630666Y-82655580D01*
X157630666Y-82655580D02*
X157583047Y-82703200D01*
X157583047Y-82703200D02*
X157487809Y-82750819D01*
X157487809Y-82750819D02*
X157392571Y-82750819D01*
X157392571Y-82750819D02*
X157297333Y-82703200D01*
X157297333Y-82703200D02*
X157249714Y-82655580D01*
X157249714Y-82655580D02*
X157202095Y-82560342D01*
X157202095Y-82560342D02*
X157154476Y-82369866D01*
X157154476Y-82369866D02*
X157154476Y-82131771D01*
X157154476Y-82131771D02*
X157202095Y-81941295D01*
X157202095Y-81941295D02*
X157249714Y-81846057D01*
X157249714Y-81846057D02*
X157297333Y-81798438D01*
X157297333Y-81798438D02*
X157392571Y-81750819D01*
X168583107Y-98418651D02*
X168916440Y-98418651D01*
X169059297Y-98942461D02*
X168583107Y-98942461D01*
X168583107Y-98942461D02*
X168583107Y-97942461D01*
X168583107Y-97942461D02*
X169059297Y-97942461D01*
X169487869Y-98275794D02*
X169487869Y-98942461D01*
X169487869Y-98371032D02*
X169535488Y-98323413D01*
X169535488Y-98323413D02*
X169630726Y-98275794D01*
X169630726Y-98275794D02*
X169773583Y-98275794D01*
X169773583Y-98275794D02*
X169868821Y-98323413D01*
X169868821Y-98323413D02*
X169916440Y-98418651D01*
X169916440Y-98418651D02*
X169916440Y-98942461D01*
X170821202Y-98894842D02*
X170725964Y-98942461D01*
X170725964Y-98942461D02*
X170535488Y-98942461D01*
X170535488Y-98942461D02*
X170440250Y-98894842D01*
X170440250Y-98894842D02*
X170392631Y-98847222D01*
X170392631Y-98847222D02*
X170345012Y-98751984D01*
X170345012Y-98751984D02*
X170345012Y-98466270D01*
X170345012Y-98466270D02*
X170392631Y-98371032D01*
X170392631Y-98371032D02*
X170440250Y-98323413D01*
X170440250Y-98323413D02*
X170535488Y-98275794D01*
X170535488Y-98275794D02*
X170725964Y-98275794D01*
X170725964Y-98275794D02*
X170821202Y-98323413D01*
X171392631Y-98942461D02*
X171297393Y-98894842D01*
X171297393Y-98894842D02*
X171249774Y-98847222D01*
X171249774Y-98847222D02*
X171202155Y-98751984D01*
X171202155Y-98751984D02*
X171202155Y-98466270D01*
X171202155Y-98466270D02*
X171249774Y-98371032D01*
X171249774Y-98371032D02*
X171297393Y-98323413D01*
X171297393Y-98323413D02*
X171392631Y-98275794D01*
X171392631Y-98275794D02*
X171535488Y-98275794D01*
X171535488Y-98275794D02*
X171630726Y-98323413D01*
X171630726Y-98323413D02*
X171678345Y-98371032D01*
X171678345Y-98371032D02*
X171725964Y-98466270D01*
X171725964Y-98466270D02*
X171725964Y-98751984D01*
X171725964Y-98751984D02*
X171678345Y-98847222D01*
X171678345Y-98847222D02*
X171630726Y-98894842D01*
X171630726Y-98894842D02*
X171535488Y-98942461D01*
X171535488Y-98942461D02*
X171392631Y-98942461D01*
X172583107Y-98942461D02*
X172583107Y-97942461D01*
X172583107Y-98894842D02*
X172487869Y-98942461D01*
X172487869Y-98942461D02*
X172297393Y-98942461D01*
X172297393Y-98942461D02*
X172202155Y-98894842D01*
X172202155Y-98894842D02*
X172154536Y-98847222D01*
X172154536Y-98847222D02*
X172106917Y-98751984D01*
X172106917Y-98751984D02*
X172106917Y-98466270D01*
X172106917Y-98466270D02*
X172154536Y-98371032D01*
X172154536Y-98371032D02*
X172202155Y-98323413D01*
X172202155Y-98323413D02*
X172297393Y-98275794D01*
X172297393Y-98275794D02*
X172487869Y-98275794D01*
X172487869Y-98275794D02*
X172583107Y-98323413D01*
X173440250Y-98894842D02*
X173345012Y-98942461D01*
X173345012Y-98942461D02*
X173154536Y-98942461D01*
X173154536Y-98942461D02*
X173059298Y-98894842D01*
X173059298Y-98894842D02*
X173011679Y-98799603D01*
X173011679Y-98799603D02*
X173011679Y-98418651D01*
X173011679Y-98418651D02*
X173059298Y-98323413D01*
X173059298Y-98323413D02*
X173154536Y-98275794D01*
X173154536Y-98275794D02*
X173345012Y-98275794D01*
X173345012Y-98275794D02*
X173440250Y-98323413D01*
X173440250Y-98323413D02*
X173487869Y-98418651D01*
X173487869Y-98418651D02*
X173487869Y-98513889D01*
X173487869Y-98513889D02*
X173011679Y-98609127D01*
X173916441Y-98942461D02*
X173916441Y-98275794D01*
X173916441Y-98466270D02*
X173964060Y-98371032D01*
X173964060Y-98371032D02*
X174011679Y-98323413D01*
X174011679Y-98323413D02*
X174106917Y-98275794D01*
X174106917Y-98275794D02*
X174202155Y-98275794D01*
X175059298Y-98942461D02*
X174487870Y-98942461D01*
X174773584Y-98942461D02*
X174773584Y-97942461D01*
X174773584Y-97942461D02*
X174678346Y-98085318D01*
X174678346Y-98085318D02*
X174583108Y-98180556D01*
X174583108Y-98180556D02*
X174487870Y-98228175D01*
X163739524Y-113697200D02*
X163882381Y-113744819D01*
X163882381Y-113744819D02*
X164120476Y-113744819D01*
X164120476Y-113744819D02*
X164215714Y-113697200D01*
X164215714Y-113697200D02*
X164263333Y-113649580D01*
X164263333Y-113649580D02*
X164310952Y-113554342D01*
X164310952Y-113554342D02*
X164310952Y-113459104D01*
X164310952Y-113459104D02*
X164263333Y-113363866D01*
X164263333Y-113363866D02*
X164215714Y-113316247D01*
X164215714Y-113316247D02*
X164120476Y-113268628D01*
X164120476Y-113268628D02*
X163930000Y-113221009D01*
X163930000Y-113221009D02*
X163834762Y-113173390D01*
X163834762Y-113173390D02*
X163787143Y-113125771D01*
X163787143Y-113125771D02*
X163739524Y-113030533D01*
X163739524Y-113030533D02*
X163739524Y-112935295D01*
X163739524Y-112935295D02*
X163787143Y-112840057D01*
X163787143Y-112840057D02*
X163834762Y-112792438D01*
X163834762Y-112792438D02*
X163930000Y-112744819D01*
X163930000Y-112744819D02*
X164168095Y-112744819D01*
X164168095Y-112744819D02*
X164310952Y-112792438D01*
X164644286Y-113078152D02*
X164834762Y-113744819D01*
X164834762Y-113744819D02*
X165025238Y-113268628D01*
X165025238Y-113268628D02*
X165215714Y-113744819D01*
X165215714Y-113744819D02*
X165406190Y-113078152D01*
X165787143Y-113744819D02*
X165787143Y-113078152D01*
X165787143Y-112744819D02*
X165739524Y-112792438D01*
X165739524Y-112792438D02*
X165787143Y-112840057D01*
X165787143Y-112840057D02*
X165834762Y-112792438D01*
X165834762Y-112792438D02*
X165787143Y-112744819D01*
X165787143Y-112744819D02*
X165787143Y-112840057D01*
X166120476Y-113078152D02*
X166501428Y-113078152D01*
X166263333Y-112744819D02*
X166263333Y-113601961D01*
X166263333Y-113601961D02*
X166310952Y-113697200D01*
X166310952Y-113697200D02*
X166406190Y-113744819D01*
X166406190Y-113744819D02*
X166501428Y-113744819D01*
X167263333Y-113697200D02*
X167168095Y-113744819D01*
X167168095Y-113744819D02*
X166977619Y-113744819D01*
X166977619Y-113744819D02*
X166882381Y-113697200D01*
X166882381Y-113697200D02*
X166834762Y-113649580D01*
X166834762Y-113649580D02*
X166787143Y-113554342D01*
X166787143Y-113554342D02*
X166787143Y-113268628D01*
X166787143Y-113268628D02*
X166834762Y-113173390D01*
X166834762Y-113173390D02*
X166882381Y-113125771D01*
X166882381Y-113125771D02*
X166977619Y-113078152D01*
X166977619Y-113078152D02*
X167168095Y-113078152D01*
X167168095Y-113078152D02*
X167263333Y-113125771D01*
X167691905Y-113744819D02*
X167691905Y-112744819D01*
X168120476Y-113744819D02*
X168120476Y-113221009D01*
X168120476Y-113221009D02*
X168072857Y-113125771D01*
X168072857Y-113125771D02*
X167977619Y-113078152D01*
X167977619Y-113078152D02*
X167834762Y-113078152D01*
X167834762Y-113078152D02*
X167739524Y-113125771D01*
X167739524Y-113125771D02*
X167691905Y-113173390D01*
X169120476Y-113744819D02*
X168549048Y-113744819D01*
X168834762Y-113744819D02*
X168834762Y-112744819D01*
X168834762Y-112744819D02*
X168739524Y-112887676D01*
X168739524Y-112887676D02*
X168644286Y-112982914D01*
X168644286Y-112982914D02*
X168549048Y-113030533D01*
X163864917Y-86087186D02*
X163864917Y-86896709D01*
X163864917Y-86896709D02*
X163912536Y-86991947D01*
X163912536Y-86991947D02*
X163960155Y-87039567D01*
X163960155Y-87039567D02*
X164055393Y-87087186D01*
X164055393Y-87087186D02*
X164245869Y-87087186D01*
X164245869Y-87087186D02*
X164341107Y-87039567D01*
X164341107Y-87039567D02*
X164388726Y-86991947D01*
X164388726Y-86991947D02*
X164436345Y-86896709D01*
X164436345Y-86896709D02*
X164436345Y-86087186D01*
X164817298Y-86087186D02*
X165483964Y-86087186D01*
X165483964Y-86087186D02*
X165055393Y-87087186D01*
X169222080Y-96371580D02*
X169174461Y-96419200D01*
X169174461Y-96419200D02*
X169031604Y-96466819D01*
X169031604Y-96466819D02*
X168936366Y-96466819D01*
X168936366Y-96466819D02*
X168793509Y-96419200D01*
X168793509Y-96419200D02*
X168698271Y-96323961D01*
X168698271Y-96323961D02*
X168650652Y-96228723D01*
X168650652Y-96228723D02*
X168603033Y-96038247D01*
X168603033Y-96038247D02*
X168603033Y-95895390D01*
X168603033Y-95895390D02*
X168650652Y-95704914D01*
X168650652Y-95704914D02*
X168698271Y-95609676D01*
X168698271Y-95609676D02*
X168793509Y-95514438D01*
X168793509Y-95514438D02*
X168936366Y-95466819D01*
X168936366Y-95466819D02*
X169031604Y-95466819D01*
X169031604Y-95466819D02*
X169174461Y-95514438D01*
X169174461Y-95514438D02*
X169222080Y-95562057D01*
X170174461Y-96466819D02*
X169603033Y-96466819D01*
X169888747Y-96466819D02*
X169888747Y-95466819D01*
X169888747Y-95466819D02*
X169793509Y-95609676D01*
X169793509Y-95609676D02*
X169698271Y-95704914D01*
X169698271Y-95704914D02*
X169603033Y-95752533D01*
X170650652Y-96466819D02*
X170841128Y-96466819D01*
X170841128Y-96466819D02*
X170936366Y-96419200D01*
X170936366Y-96419200D02*
X170983985Y-96371580D01*
X170983985Y-96371580D02*
X171079223Y-96228723D01*
X171079223Y-96228723D02*
X171126842Y-96038247D01*
X171126842Y-96038247D02*
X171126842Y-95657295D01*
X171126842Y-95657295D02*
X171079223Y-95562057D01*
X171079223Y-95562057D02*
X171031604Y-95514438D01*
X171031604Y-95514438D02*
X170936366Y-95466819D01*
X170936366Y-95466819D02*
X170745890Y-95466819D01*
X170745890Y-95466819D02*
X170650652Y-95514438D01*
X170650652Y-95514438D02*
X170603033Y-95562057D01*
X170603033Y-95562057D02*
X170555414Y-95657295D01*
X170555414Y-95657295D02*
X170555414Y-95895390D01*
X170555414Y-95895390D02*
X170603033Y-95990628D01*
X170603033Y-95990628D02*
X170650652Y-96038247D01*
X170650652Y-96038247D02*
X170745890Y-96085866D01*
X170745890Y-96085866D02*
X170936366Y-96085866D01*
X170936366Y-96085866D02*
X171031604Y-96038247D01*
X171031604Y-96038247D02*
X171079223Y-95990628D01*
X171079223Y-95990628D02*
X171126842Y-95895390D01*
X122261333Y-115262819D02*
X121928000Y-114786628D01*
X121689905Y-115262819D02*
X121689905Y-114262819D01*
X121689905Y-114262819D02*
X122070857Y-114262819D01*
X122070857Y-114262819D02*
X122166095Y-114310438D01*
X122166095Y-114310438D02*
X122213714Y-114358057D01*
X122213714Y-114358057D02*
X122261333Y-114453295D01*
X122261333Y-114453295D02*
X122261333Y-114596152D01*
X122261333Y-114596152D02*
X122213714Y-114691390D01*
X122213714Y-114691390D02*
X122166095Y-114739009D01*
X122166095Y-114739009D02*
X122070857Y-114786628D01*
X122070857Y-114786628D02*
X121689905Y-114786628D01*
X123166095Y-114262819D02*
X122689905Y-114262819D01*
X122689905Y-114262819D02*
X122642286Y-114739009D01*
X122642286Y-114739009D02*
X122689905Y-114691390D01*
X122689905Y-114691390D02*
X122785143Y-114643771D01*
X122785143Y-114643771D02*
X123023238Y-114643771D01*
X123023238Y-114643771D02*
X123118476Y-114691390D01*
X123118476Y-114691390D02*
X123166095Y-114739009D01*
X123166095Y-114739009D02*
X123213714Y-114834247D01*
X123213714Y-114834247D02*
X123213714Y-115072342D01*
X123213714Y-115072342D02*
X123166095Y-115167580D01*
X123166095Y-115167580D02*
X123118476Y-115215200D01*
X123118476Y-115215200D02*
X123023238Y-115262819D01*
X123023238Y-115262819D02*
X122785143Y-115262819D01*
X122785143Y-115262819D02*
X122689905Y-115215200D01*
X122689905Y-115215200D02*
X122642286Y-115167580D01*
X110690819Y-113021667D02*
X110214628Y-113355000D01*
X110690819Y-113593095D02*
X109690819Y-113593095D01*
X109690819Y-113593095D02*
X109690819Y-113212143D01*
X109690819Y-113212143D02*
X109738438Y-113116905D01*
X109738438Y-113116905D02*
X109786057Y-113069286D01*
X109786057Y-113069286D02*
X109881295Y-113021667D01*
X109881295Y-113021667D02*
X110024152Y-113021667D01*
X110024152Y-113021667D02*
X110119390Y-113069286D01*
X110119390Y-113069286D02*
X110167009Y-113116905D01*
X110167009Y-113116905D02*
X110214628Y-113212143D01*
X110214628Y-113212143D02*
X110214628Y-113593095D01*
X110690819Y-112164524D02*
X110167009Y-112164524D01*
X110167009Y-112164524D02*
X110071771Y-112212143D01*
X110071771Y-112212143D02*
X110024152Y-112307381D01*
X110024152Y-112307381D02*
X110024152Y-112497857D01*
X110024152Y-112497857D02*
X110071771Y-112593095D01*
X110643200Y-112164524D02*
X110690819Y-112259762D01*
X110690819Y-112259762D02*
X110690819Y-112497857D01*
X110690819Y-112497857D02*
X110643200Y-112593095D01*
X110643200Y-112593095D02*
X110547961Y-112640714D01*
X110547961Y-112640714D02*
X110452723Y-112640714D01*
X110452723Y-112640714D02*
X110357485Y-112593095D01*
X110357485Y-112593095D02*
X110309866Y-112497857D01*
X110309866Y-112497857D02*
X110309866Y-112259762D01*
X110309866Y-112259762D02*
X110262247Y-112164524D01*
X110690819Y-111259762D02*
X109690819Y-111259762D01*
X110643200Y-111259762D02*
X110690819Y-111355000D01*
X110690819Y-111355000D02*
X110690819Y-111545476D01*
X110690819Y-111545476D02*
X110643200Y-111640714D01*
X110643200Y-111640714D02*
X110595580Y-111688333D01*
X110595580Y-111688333D02*
X110500342Y-111735952D01*
X110500342Y-111735952D02*
X110214628Y-111735952D01*
X110214628Y-111735952D02*
X110119390Y-111688333D01*
X110119390Y-111688333D02*
X110071771Y-111640714D01*
X110071771Y-111640714D02*
X110024152Y-111545476D01*
X110024152Y-111545476D02*
X110024152Y-111355000D01*
X110024152Y-111355000D02*
X110071771Y-111259762D01*
X110786057Y-111021667D02*
X110786057Y-110259762D01*
X110167009Y-109688333D02*
X110167009Y-110021666D01*
X110690819Y-110021666D02*
X109690819Y-110021666D01*
X109690819Y-110021666D02*
X109690819Y-109545476D01*
X110690819Y-108735952D02*
X110167009Y-108735952D01*
X110167009Y-108735952D02*
X110071771Y-108783571D01*
X110071771Y-108783571D02*
X110024152Y-108878809D01*
X110024152Y-108878809D02*
X110024152Y-109069285D01*
X110024152Y-109069285D02*
X110071771Y-109164523D01*
X110643200Y-108735952D02*
X110690819Y-108831190D01*
X110690819Y-108831190D02*
X110690819Y-109069285D01*
X110690819Y-109069285D02*
X110643200Y-109164523D01*
X110643200Y-109164523D02*
X110547961Y-109212142D01*
X110547961Y-109212142D02*
X110452723Y-109212142D01*
X110452723Y-109212142D02*
X110357485Y-109164523D01*
X110357485Y-109164523D02*
X110309866Y-109069285D01*
X110309866Y-109069285D02*
X110309866Y-108831190D01*
X110309866Y-108831190D02*
X110262247Y-108735952D01*
X110024152Y-108259761D02*
X110690819Y-108259761D01*
X110119390Y-108259761D02*
X110071771Y-108212142D01*
X110071771Y-108212142D02*
X110024152Y-108116904D01*
X110024152Y-108116904D02*
X110024152Y-107974047D01*
X110024152Y-107974047D02*
X110071771Y-107878809D01*
X110071771Y-107878809D02*
X110167009Y-107831190D01*
X110167009Y-107831190D02*
X110690819Y-107831190D01*
X110786057Y-107593095D02*
X110786057Y-106831190D01*
X109690819Y-106688332D02*
X109690819Y-106069285D01*
X109690819Y-106069285D02*
X110071771Y-106402618D01*
X110071771Y-106402618D02*
X110071771Y-106259761D01*
X110071771Y-106259761D02*
X110119390Y-106164523D01*
X110119390Y-106164523D02*
X110167009Y-106116904D01*
X110167009Y-106116904D02*
X110262247Y-106069285D01*
X110262247Y-106069285D02*
X110500342Y-106069285D01*
X110500342Y-106069285D02*
X110595580Y-106116904D01*
X110595580Y-106116904D02*
X110643200Y-106164523D01*
X110643200Y-106164523D02*
X110690819Y-106259761D01*
X110690819Y-106259761D02*
X110690819Y-106545475D01*
X110690819Y-106545475D02*
X110643200Y-106640713D01*
X110643200Y-106640713D02*
X110595580Y-106688332D01*
X128778095Y-115884819D02*
X128778095Y-116694342D01*
X128778095Y-116694342D02*
X128825714Y-116789580D01*
X128825714Y-116789580D02*
X128873333Y-116837200D01*
X128873333Y-116837200D02*
X128968571Y-116884819D01*
X128968571Y-116884819D02*
X129159047Y-116884819D01*
X129159047Y-116884819D02*
X129254285Y-116837200D01*
X129254285Y-116837200D02*
X129301904Y-116789580D01*
X129301904Y-116789580D02*
X129349523Y-116694342D01*
X129349523Y-116694342D02*
X129349523Y-115884819D01*
X130254285Y-115884819D02*
X130063809Y-115884819D01*
X130063809Y-115884819D02*
X129968571Y-115932438D01*
X129968571Y-115932438D02*
X129920952Y-115980057D01*
X129920952Y-115980057D02*
X129825714Y-116122914D01*
X129825714Y-116122914D02*
X129778095Y-116313390D01*
X129778095Y-116313390D02*
X129778095Y-116694342D01*
X129778095Y-116694342D02*
X129825714Y-116789580D01*
X129825714Y-116789580D02*
X129873333Y-116837200D01*
X129873333Y-116837200D02*
X129968571Y-116884819D01*
X129968571Y-116884819D02*
X130159047Y-116884819D01*
X130159047Y-116884819D02*
X130254285Y-116837200D01*
X130254285Y-116837200D02*
X130301904Y-116789580D01*
X130301904Y-116789580D02*
X130349523Y-116694342D01*
X130349523Y-116694342D02*
X130349523Y-116456247D01*
X130349523Y-116456247D02*
X130301904Y-116361009D01*
X130301904Y-116361009D02*
X130254285Y-116313390D01*
X130254285Y-116313390D02*
X130159047Y-116265771D01*
X130159047Y-116265771D02*
X129968571Y-116265771D01*
X129968571Y-116265771D02*
X129873333Y-116313390D01*
X129873333Y-116313390D02*
X129825714Y-116361009D01*
X129825714Y-116361009D02*
X129778095Y-116456247D01*
X123139580Y-100496666D02*
X123187200Y-100544285D01*
X123187200Y-100544285D02*
X123234819Y-100687142D01*
X123234819Y-100687142D02*
X123234819Y-100782380D01*
X123234819Y-100782380D02*
X123187200Y-100925237D01*
X123187200Y-100925237D02*
X123091961Y-101020475D01*
X123091961Y-101020475D02*
X122996723Y-101068094D01*
X122996723Y-101068094D02*
X122806247Y-101115713D01*
X122806247Y-101115713D02*
X122663390Y-101115713D01*
X122663390Y-101115713D02*
X122472914Y-101068094D01*
X122472914Y-101068094D02*
X122377676Y-101020475D01*
X122377676Y-101020475D02*
X122282438Y-100925237D01*
X122282438Y-100925237D02*
X122234819Y-100782380D01*
X122234819Y-100782380D02*
X122234819Y-100687142D01*
X122234819Y-100687142D02*
X122282438Y-100544285D01*
X122282438Y-100544285D02*
X122330057Y-100496666D01*
X122234819Y-100163332D02*
X122234819Y-99544285D01*
X122234819Y-99544285D02*
X122615771Y-99877618D01*
X122615771Y-99877618D02*
X122615771Y-99734761D01*
X122615771Y-99734761D02*
X122663390Y-99639523D01*
X122663390Y-99639523D02*
X122711009Y-99591904D01*
X122711009Y-99591904D02*
X122806247Y-99544285D01*
X122806247Y-99544285D02*
X123044342Y-99544285D01*
X123044342Y-99544285D02*
X123139580Y-99591904D01*
X123139580Y-99591904D02*
X123187200Y-99639523D01*
X123187200Y-99639523D02*
X123234819Y-99734761D01*
X123234819Y-99734761D02*
X123234819Y-100020475D01*
X123234819Y-100020475D02*
X123187200Y-100115713D01*
X123187200Y-100115713D02*
X123139580Y-100163332D01*
X128778095Y-96834819D02*
X128778095Y-97644342D01*
X128778095Y-97644342D02*
X128825714Y-97739580D01*
X128825714Y-97739580D02*
X128873333Y-97787200D01*
X128873333Y-97787200D02*
X128968571Y-97834819D01*
X128968571Y-97834819D02*
X129159047Y-97834819D01*
X129159047Y-97834819D02*
X129254285Y-97787200D01*
X129254285Y-97787200D02*
X129301904Y-97739580D01*
X129301904Y-97739580D02*
X129349523Y-97644342D01*
X129349523Y-97644342D02*
X129349523Y-96834819D01*
X130349523Y-97834819D02*
X129778095Y-97834819D01*
X130063809Y-97834819D02*
X130063809Y-96834819D01*
X130063809Y-96834819D02*
X129968571Y-96977676D01*
X129968571Y-96977676D02*
X129873333Y-97072914D01*
X129873333Y-97072914D02*
X129778095Y-97120533D01*
X160445237Y-121364819D02*
X159969047Y-121364819D01*
X159969047Y-121364819D02*
X159969047Y-120364819D01*
X160778571Y-120841009D02*
X161111904Y-120841009D01*
X161254761Y-121364819D02*
X160778571Y-121364819D01*
X160778571Y-121364819D02*
X160778571Y-120364819D01*
X160778571Y-120364819D02*
X161254761Y-120364819D01*
X161683333Y-121364819D02*
X161683333Y-120364819D01*
X161683333Y-120364819D02*
X161921428Y-120364819D01*
X161921428Y-120364819D02*
X162064285Y-120412438D01*
X162064285Y-120412438D02*
X162159523Y-120507676D01*
X162159523Y-120507676D02*
X162207142Y-120602914D01*
X162207142Y-120602914D02*
X162254761Y-120793390D01*
X162254761Y-120793390D02*
X162254761Y-120936247D01*
X162254761Y-120936247D02*
X162207142Y-121126723D01*
X162207142Y-121126723D02*
X162159523Y-121221961D01*
X162159523Y-121221961D02*
X162064285Y-121317200D01*
X162064285Y-121317200D02*
X161921428Y-121364819D01*
X161921428Y-121364819D02*
X161683333Y-121364819D01*
X162445238Y-121460057D02*
X163207142Y-121460057D01*
X163302381Y-120364819D02*
X163873809Y-120364819D01*
X163588095Y-121364819D02*
X163588095Y-120364819D01*
X164207143Y-120841009D02*
X164540476Y-120841009D01*
X164683333Y-121364819D02*
X164207143Y-121364819D01*
X164207143Y-121364819D02*
X164207143Y-120364819D01*
X164207143Y-120364819D02*
X164683333Y-120364819D01*
X165111905Y-121364819D02*
X165111905Y-120364819D01*
X165111905Y-120364819D02*
X165445238Y-121079104D01*
X165445238Y-121079104D02*
X165778571Y-120364819D01*
X165778571Y-120364819D02*
X165778571Y-121364819D01*
X166254762Y-121364819D02*
X166254762Y-120364819D01*
X166254762Y-120364819D02*
X166635714Y-120364819D01*
X166635714Y-120364819D02*
X166730952Y-120412438D01*
X166730952Y-120412438D02*
X166778571Y-120460057D01*
X166778571Y-120460057D02*
X166826190Y-120555295D01*
X166826190Y-120555295D02*
X166826190Y-120698152D01*
X166826190Y-120698152D02*
X166778571Y-120793390D01*
X166778571Y-120793390D02*
X166730952Y-120841009D01*
X166730952Y-120841009D02*
X166635714Y-120888628D01*
X166635714Y-120888628D02*
X166254762Y-120888628D01*
X167778571Y-121364819D02*
X167207143Y-121364819D01*
X167492857Y-121364819D02*
X167492857Y-120364819D01*
X167492857Y-120364819D02*
X167397619Y-120507676D01*
X167397619Y-120507676D02*
X167302381Y-120602914D01*
X167302381Y-120602914D02*
X167207143Y-120650533D01*
X124206095Y-126962819D02*
X124206095Y-127772342D01*
X124206095Y-127772342D02*
X124253714Y-127867580D01*
X124253714Y-127867580D02*
X124301333Y-127915200D01*
X124301333Y-127915200D02*
X124396571Y-127962819D01*
X124396571Y-127962819D02*
X124587047Y-127962819D01*
X124587047Y-127962819D02*
X124682285Y-127915200D01*
X124682285Y-127915200D02*
X124729904Y-127867580D01*
X124729904Y-127867580D02*
X124777523Y-127772342D01*
X124777523Y-127772342D02*
X124777523Y-126962819D01*
X125206095Y-127058057D02*
X125253714Y-127010438D01*
X125253714Y-127010438D02*
X125348952Y-126962819D01*
X125348952Y-126962819D02*
X125587047Y-126962819D01*
X125587047Y-126962819D02*
X125682285Y-127010438D01*
X125682285Y-127010438D02*
X125729904Y-127058057D01*
X125729904Y-127058057D02*
X125777523Y-127153295D01*
X125777523Y-127153295D02*
X125777523Y-127248533D01*
X125777523Y-127248533D02*
X125729904Y-127391390D01*
X125729904Y-127391390D02*
X125158476Y-127962819D01*
X125158476Y-127962819D02*
X125777523Y-127962819D01*
X122261333Y-96466819D02*
X121928000Y-95990628D01*
X121689905Y-96466819D02*
X121689905Y-95466819D01*
X121689905Y-95466819D02*
X122070857Y-95466819D01*
X122070857Y-95466819D02*
X122166095Y-95514438D01*
X122166095Y-95514438D02*
X122213714Y-95562057D01*
X122213714Y-95562057D02*
X122261333Y-95657295D01*
X122261333Y-95657295D02*
X122261333Y-95800152D01*
X122261333Y-95800152D02*
X122213714Y-95895390D01*
X122213714Y-95895390D02*
X122166095Y-95943009D01*
X122166095Y-95943009D02*
X122070857Y-95990628D01*
X122070857Y-95990628D02*
X121689905Y-95990628D01*
X122832762Y-95895390D02*
X122737524Y-95847771D01*
X122737524Y-95847771D02*
X122689905Y-95800152D01*
X122689905Y-95800152D02*
X122642286Y-95704914D01*
X122642286Y-95704914D02*
X122642286Y-95657295D01*
X122642286Y-95657295D02*
X122689905Y-95562057D01*
X122689905Y-95562057D02*
X122737524Y-95514438D01*
X122737524Y-95514438D02*
X122832762Y-95466819D01*
X122832762Y-95466819D02*
X123023238Y-95466819D01*
X123023238Y-95466819D02*
X123118476Y-95514438D01*
X123118476Y-95514438D02*
X123166095Y-95562057D01*
X123166095Y-95562057D02*
X123213714Y-95657295D01*
X123213714Y-95657295D02*
X123213714Y-95704914D01*
X123213714Y-95704914D02*
X123166095Y-95800152D01*
X123166095Y-95800152D02*
X123118476Y-95847771D01*
X123118476Y-95847771D02*
X123023238Y-95895390D01*
X123023238Y-95895390D02*
X122832762Y-95895390D01*
X122832762Y-95895390D02*
X122737524Y-95943009D01*
X122737524Y-95943009D02*
X122689905Y-95990628D01*
X122689905Y-95990628D02*
X122642286Y-96085866D01*
X122642286Y-96085866D02*
X122642286Y-96276342D01*
X122642286Y-96276342D02*
X122689905Y-96371580D01*
X122689905Y-96371580D02*
X122737524Y-96419200D01*
X122737524Y-96419200D02*
X122832762Y-96466819D01*
X122832762Y-96466819D02*
X123023238Y-96466819D01*
X123023238Y-96466819D02*
X123118476Y-96419200D01*
X123118476Y-96419200D02*
X123166095Y-96371580D01*
X123166095Y-96371580D02*
X123213714Y-96276342D01*
X123213714Y-96276342D02*
X123213714Y-96085866D01*
X123213714Y-96085866D02*
X123166095Y-95990628D01*
X123166095Y-95990628D02*
X123118476Y-95943009D01*
X123118476Y-95943009D02*
X123023238Y-95895390D01*
X134979580Y-103290666D02*
X135027200Y-103338285D01*
X135027200Y-103338285D02*
X135074819Y-103481142D01*
X135074819Y-103481142D02*
X135074819Y-103576380D01*
X135074819Y-103576380D02*
X135027200Y-103719237D01*
X135027200Y-103719237D02*
X134931961Y-103814475D01*
X134931961Y-103814475D02*
X134836723Y-103862094D01*
X134836723Y-103862094D02*
X134646247Y-103909713D01*
X134646247Y-103909713D02*
X134503390Y-103909713D01*
X134503390Y-103909713D02*
X134312914Y-103862094D01*
X134312914Y-103862094D02*
X134217676Y-103814475D01*
X134217676Y-103814475D02*
X134122438Y-103719237D01*
X134122438Y-103719237D02*
X134074819Y-103576380D01*
X134074819Y-103576380D02*
X134074819Y-103481142D01*
X134074819Y-103481142D02*
X134122438Y-103338285D01*
X134122438Y-103338285D02*
X134170057Y-103290666D01*
X134074819Y-102957332D02*
X134074819Y-102290666D01*
X134074819Y-102290666D02*
X135074819Y-102719237D01*
X163521428Y-106044819D02*
X163521428Y-105044819D01*
X163521428Y-105044819D02*
X163759523Y-105044819D01*
X163759523Y-105044819D02*
X163902380Y-105092438D01*
X163902380Y-105092438D02*
X163997618Y-105187676D01*
X163997618Y-105187676D02*
X164045237Y-105282914D01*
X164045237Y-105282914D02*
X164092856Y-105473390D01*
X164092856Y-105473390D02*
X164092856Y-105616247D01*
X164092856Y-105616247D02*
X164045237Y-105806723D01*
X164045237Y-105806723D02*
X163997618Y-105901961D01*
X163997618Y-105901961D02*
X163902380Y-105997200D01*
X163902380Y-105997200D02*
X163759523Y-106044819D01*
X163759523Y-106044819D02*
X163521428Y-106044819D01*
X164521428Y-106044819D02*
X164521428Y-105378152D01*
X164521428Y-105044819D02*
X164473809Y-105092438D01*
X164473809Y-105092438D02*
X164521428Y-105140057D01*
X164521428Y-105140057D02*
X164569047Y-105092438D01*
X164569047Y-105092438D02*
X164521428Y-105044819D01*
X164521428Y-105044819D02*
X164521428Y-105140057D01*
X164949999Y-105997200D02*
X165045237Y-106044819D01*
X165045237Y-106044819D02*
X165235713Y-106044819D01*
X165235713Y-106044819D02*
X165330951Y-105997200D01*
X165330951Y-105997200D02*
X165378570Y-105901961D01*
X165378570Y-105901961D02*
X165378570Y-105854342D01*
X165378570Y-105854342D02*
X165330951Y-105759104D01*
X165330951Y-105759104D02*
X165235713Y-105711485D01*
X165235713Y-105711485D02*
X165092856Y-105711485D01*
X165092856Y-105711485D02*
X164997618Y-105663866D01*
X164997618Y-105663866D02*
X164949999Y-105568628D01*
X164949999Y-105568628D02*
X164949999Y-105521009D01*
X164949999Y-105521009D02*
X164997618Y-105425771D01*
X164997618Y-105425771D02*
X165092856Y-105378152D01*
X165092856Y-105378152D02*
X165235713Y-105378152D01*
X165235713Y-105378152D02*
X165330951Y-105425771D01*
X165807142Y-105378152D02*
X165807142Y-106378152D01*
X165807142Y-105425771D02*
X165902380Y-105378152D01*
X165902380Y-105378152D02*
X166092856Y-105378152D01*
X166092856Y-105378152D02*
X166188094Y-105425771D01*
X166188094Y-105425771D02*
X166235713Y-105473390D01*
X166235713Y-105473390D02*
X166283332Y-105568628D01*
X166283332Y-105568628D02*
X166283332Y-105854342D01*
X166283332Y-105854342D02*
X166235713Y-105949580D01*
X166235713Y-105949580D02*
X166188094Y-105997200D01*
X166188094Y-105997200D02*
X166092856Y-106044819D01*
X166092856Y-106044819D02*
X165902380Y-106044819D01*
X165902380Y-106044819D02*
X165807142Y-105997200D01*
X166854761Y-106044819D02*
X166759523Y-105997200D01*
X166759523Y-105997200D02*
X166711904Y-105901961D01*
X166711904Y-105901961D02*
X166711904Y-105044819D01*
X167664285Y-106044819D02*
X167664285Y-105521009D01*
X167664285Y-105521009D02*
X167616666Y-105425771D01*
X167616666Y-105425771D02*
X167521428Y-105378152D01*
X167521428Y-105378152D02*
X167330952Y-105378152D01*
X167330952Y-105378152D02*
X167235714Y-105425771D01*
X167664285Y-105997200D02*
X167569047Y-106044819D01*
X167569047Y-106044819D02*
X167330952Y-106044819D01*
X167330952Y-106044819D02*
X167235714Y-105997200D01*
X167235714Y-105997200D02*
X167188095Y-105901961D01*
X167188095Y-105901961D02*
X167188095Y-105806723D01*
X167188095Y-105806723D02*
X167235714Y-105711485D01*
X167235714Y-105711485D02*
X167330952Y-105663866D01*
X167330952Y-105663866D02*
X167569047Y-105663866D01*
X167569047Y-105663866D02*
X167664285Y-105616247D01*
X168045238Y-105378152D02*
X168283333Y-106044819D01*
X168521428Y-105378152D02*
X168283333Y-106044819D01*
X168283333Y-106044819D02*
X168188095Y-106282914D01*
X168188095Y-106282914D02*
X168140476Y-106330533D01*
X168140476Y-106330533D02*
X168045238Y-106378152D01*
X169426190Y-106044819D02*
X168854762Y-106044819D01*
X169140476Y-106044819D02*
X169140476Y-105044819D01*
X169140476Y-105044819D02*
X169045238Y-105187676D01*
X169045238Y-105187676D02*
X168950000Y-105282914D01*
X168950000Y-105282914D02*
X168854762Y-105330533D01*
X114895333Y-75289580D02*
X114847714Y-75337200D01*
X114847714Y-75337200D02*
X114704857Y-75384819D01*
X114704857Y-75384819D02*
X114609619Y-75384819D01*
X114609619Y-75384819D02*
X114466762Y-75337200D01*
X114466762Y-75337200D02*
X114371524Y-75241961D01*
X114371524Y-75241961D02*
X114323905Y-75146723D01*
X114323905Y-75146723D02*
X114276286Y-74956247D01*
X114276286Y-74956247D02*
X114276286Y-74813390D01*
X114276286Y-74813390D02*
X114323905Y-74622914D01*
X114323905Y-74622914D02*
X114371524Y-74527676D01*
X114371524Y-74527676D02*
X114466762Y-74432438D01*
X114466762Y-74432438D02*
X114609619Y-74384819D01*
X114609619Y-74384819D02*
X114704857Y-74384819D01*
X114704857Y-74384819D02*
X114847714Y-74432438D01*
X114847714Y-74432438D02*
X114895333Y-74480057D01*
X115371524Y-75384819D02*
X115562000Y-75384819D01*
X115562000Y-75384819D02*
X115657238Y-75337200D01*
X115657238Y-75337200D02*
X115704857Y-75289580D01*
X115704857Y-75289580D02*
X115800095Y-75146723D01*
X115800095Y-75146723D02*
X115847714Y-74956247D01*
X115847714Y-74956247D02*
X115847714Y-74575295D01*
X115847714Y-74575295D02*
X115800095Y-74480057D01*
X115800095Y-74480057D02*
X115752476Y-74432438D01*
X115752476Y-74432438D02*
X115657238Y-74384819D01*
X115657238Y-74384819D02*
X115466762Y-74384819D01*
X115466762Y-74384819D02*
X115371524Y-74432438D01*
X115371524Y-74432438D02*
X115323905Y-74480057D01*
X115323905Y-74480057D02*
X115276286Y-74575295D01*
X115276286Y-74575295D02*
X115276286Y-74813390D01*
X115276286Y-74813390D02*
X115323905Y-74908628D01*
X115323905Y-74908628D02*
X115371524Y-74956247D01*
X115371524Y-74956247D02*
X115466762Y-75003866D01*
X115466762Y-75003866D02*
X115657238Y-75003866D01*
X115657238Y-75003866D02*
X115752476Y-74956247D01*
X115752476Y-74956247D02*
X115800095Y-74908628D01*
X115800095Y-74908628D02*
X115847714Y-74813390D01*
X174464399Y-120657450D02*
X174131066Y-120181259D01*
X173892971Y-120657450D02*
X173892971Y-119657450D01*
X173892971Y-119657450D02*
X174273923Y-119657450D01*
X174273923Y-119657450D02*
X174369161Y-119705069D01*
X174369161Y-119705069D02*
X174416780Y-119752688D01*
X174416780Y-119752688D02*
X174464399Y-119847926D01*
X174464399Y-119847926D02*
X174464399Y-119990783D01*
X174464399Y-119990783D02*
X174416780Y-120086021D01*
X174416780Y-120086021D02*
X174369161Y-120133640D01*
X174369161Y-120133640D02*
X174273923Y-120181259D01*
X174273923Y-120181259D02*
X173892971Y-120181259D01*
X175416780Y-120657450D02*
X174845352Y-120657450D01*
X175131066Y-120657450D02*
X175131066Y-119657450D01*
X175131066Y-119657450D02*
X175035828Y-119800307D01*
X175035828Y-119800307D02*
X174940590Y-119895545D01*
X174940590Y-119895545D02*
X174845352Y-119943164D01*
X175797733Y-119752688D02*
X175845352Y-119705069D01*
X175845352Y-119705069D02*
X175940590Y-119657450D01*
X175940590Y-119657450D02*
X176178685Y-119657450D01*
X176178685Y-119657450D02*
X176273923Y-119705069D01*
X176273923Y-119705069D02*
X176321542Y-119752688D01*
X176321542Y-119752688D02*
X176369161Y-119847926D01*
X176369161Y-119847926D02*
X176369161Y-119943164D01*
X176369161Y-119943164D02*
X176321542Y-120086021D01*
X176321542Y-120086021D02*
X175750114Y-120657450D01*
X175750114Y-120657450D02*
X176369161Y-120657450D01*
X110405104Y-124570666D02*
X110405104Y-124094476D01*
X110690819Y-124665904D02*
X109690819Y-124332571D01*
X109690819Y-124332571D02*
X110690819Y-123999238D01*
X110024152Y-123237333D02*
X110690819Y-123237333D01*
X110024152Y-123665904D02*
X110547961Y-123665904D01*
X110547961Y-123665904D02*
X110643200Y-123618285D01*
X110643200Y-123618285D02*
X110690819Y-123523047D01*
X110690819Y-123523047D02*
X110690819Y-123380190D01*
X110690819Y-123380190D02*
X110643200Y-123284952D01*
X110643200Y-123284952D02*
X110595580Y-123237333D01*
X110690819Y-122856380D02*
X110024152Y-122332571D01*
X110024152Y-122856380D02*
X110690819Y-122332571D01*
X110786057Y-122189714D02*
X110786057Y-121427809D01*
X110167009Y-120856380D02*
X110167009Y-121189713D01*
X110690819Y-121189713D02*
X109690819Y-121189713D01*
X109690819Y-121189713D02*
X109690819Y-120713523D01*
X110690819Y-119903999D02*
X110167009Y-119903999D01*
X110167009Y-119903999D02*
X110071771Y-119951618D01*
X110071771Y-119951618D02*
X110024152Y-120046856D01*
X110024152Y-120046856D02*
X110024152Y-120237332D01*
X110024152Y-120237332D02*
X110071771Y-120332570D01*
X110643200Y-119903999D02*
X110690819Y-119999237D01*
X110690819Y-119999237D02*
X110690819Y-120237332D01*
X110690819Y-120237332D02*
X110643200Y-120332570D01*
X110643200Y-120332570D02*
X110547961Y-120380189D01*
X110547961Y-120380189D02*
X110452723Y-120380189D01*
X110452723Y-120380189D02*
X110357485Y-120332570D01*
X110357485Y-120332570D02*
X110309866Y-120237332D01*
X110309866Y-120237332D02*
X110309866Y-119999237D01*
X110309866Y-119999237D02*
X110262247Y-119903999D01*
X110024152Y-119427808D02*
X110690819Y-119427808D01*
X110119390Y-119427808D02*
X110071771Y-119380189D01*
X110071771Y-119380189D02*
X110024152Y-119284951D01*
X110024152Y-119284951D02*
X110024152Y-119142094D01*
X110024152Y-119142094D02*
X110071771Y-119046856D01*
X110071771Y-119046856D02*
X110167009Y-118999237D01*
X110167009Y-118999237D02*
X110690819Y-118999237D01*
X110786057Y-118761142D02*
X110786057Y-117999237D01*
X110690819Y-117237332D02*
X110690819Y-117808760D01*
X110690819Y-117523046D02*
X109690819Y-117523046D01*
X109690819Y-117523046D02*
X109833676Y-117618284D01*
X109833676Y-117618284D02*
X109928914Y-117713522D01*
X109928914Y-117713522D02*
X109976533Y-117808760D01*
X134979580Y-109386666D02*
X135027200Y-109434285D01*
X135027200Y-109434285D02*
X135074819Y-109577142D01*
X135074819Y-109577142D02*
X135074819Y-109672380D01*
X135074819Y-109672380D02*
X135027200Y-109815237D01*
X135027200Y-109815237D02*
X134931961Y-109910475D01*
X134931961Y-109910475D02*
X134836723Y-109958094D01*
X134836723Y-109958094D02*
X134646247Y-110005713D01*
X134646247Y-110005713D02*
X134503390Y-110005713D01*
X134503390Y-110005713D02*
X134312914Y-109958094D01*
X134312914Y-109958094D02*
X134217676Y-109910475D01*
X134217676Y-109910475D02*
X134122438Y-109815237D01*
X134122438Y-109815237D02*
X134074819Y-109672380D01*
X134074819Y-109672380D02*
X134074819Y-109577142D01*
X134074819Y-109577142D02*
X134122438Y-109434285D01*
X134122438Y-109434285D02*
X134170057Y-109386666D01*
X134074819Y-108529523D02*
X134074819Y-108719999D01*
X134074819Y-108719999D02*
X134122438Y-108815237D01*
X134122438Y-108815237D02*
X134170057Y-108862856D01*
X134170057Y-108862856D02*
X134312914Y-108958094D01*
X134312914Y-108958094D02*
X134503390Y-109005713D01*
X134503390Y-109005713D02*
X134884342Y-109005713D01*
X134884342Y-109005713D02*
X134979580Y-108958094D01*
X134979580Y-108958094D02*
X135027200Y-108910475D01*
X135027200Y-108910475D02*
X135074819Y-108815237D01*
X135074819Y-108815237D02*
X135074819Y-108624761D01*
X135074819Y-108624761D02*
X135027200Y-108529523D01*
X135027200Y-108529523D02*
X134979580Y-108481904D01*
X134979580Y-108481904D02*
X134884342Y-108434285D01*
X134884342Y-108434285D02*
X134646247Y-108434285D01*
X134646247Y-108434285D02*
X134551009Y-108481904D01*
X134551009Y-108481904D02*
X134503390Y-108529523D01*
X134503390Y-108529523D02*
X134455771Y-108624761D01*
X134455771Y-108624761D02*
X134455771Y-108815237D01*
X134455771Y-108815237D02*
X134503390Y-108910475D01*
X134503390Y-108910475D02*
X134551009Y-108958094D01*
X134551009Y-108958094D02*
X134646247Y-109005713D01*
X113174819Y-123975475D02*
X112174819Y-123975475D01*
X112174819Y-123975475D02*
X112174819Y-123594523D01*
X112174819Y-123594523D02*
X112222438Y-123499285D01*
X112222438Y-123499285D02*
X112270057Y-123451666D01*
X112270057Y-123451666D02*
X112365295Y-123404047D01*
X112365295Y-123404047D02*
X112508152Y-123404047D01*
X112508152Y-123404047D02*
X112603390Y-123451666D01*
X112603390Y-123451666D02*
X112651009Y-123499285D01*
X112651009Y-123499285D02*
X112698628Y-123594523D01*
X112698628Y-123594523D02*
X112698628Y-123975475D01*
X112508152Y-122546904D02*
X113174819Y-122546904D01*
X112508152Y-122975475D02*
X113031961Y-122975475D01*
X113031961Y-122975475D02*
X113127200Y-122927856D01*
X113127200Y-122927856D02*
X113174819Y-122832618D01*
X113174819Y-122832618D02*
X113174819Y-122689761D01*
X113174819Y-122689761D02*
X113127200Y-122594523D01*
X113127200Y-122594523D02*
X113079580Y-122546904D01*
X113174819Y-122070713D02*
X112508152Y-122070713D01*
X112603390Y-122070713D02*
X112555771Y-122023094D01*
X112555771Y-122023094D02*
X112508152Y-121927856D01*
X112508152Y-121927856D02*
X112508152Y-121784999D01*
X112508152Y-121784999D02*
X112555771Y-121689761D01*
X112555771Y-121689761D02*
X112651009Y-121642142D01*
X112651009Y-121642142D02*
X113174819Y-121642142D01*
X112651009Y-121642142D02*
X112555771Y-121594523D01*
X112555771Y-121594523D02*
X112508152Y-121499285D01*
X112508152Y-121499285D02*
X112508152Y-121356428D01*
X112508152Y-121356428D02*
X112555771Y-121261189D01*
X112555771Y-121261189D02*
X112651009Y-121213570D01*
X112651009Y-121213570D02*
X113174819Y-121213570D01*
X112508152Y-120737380D02*
X113508152Y-120737380D01*
X112555771Y-120737380D02*
X112508152Y-120642142D01*
X112508152Y-120642142D02*
X112508152Y-120451666D01*
X112508152Y-120451666D02*
X112555771Y-120356428D01*
X112555771Y-120356428D02*
X112603390Y-120308809D01*
X112603390Y-120308809D02*
X112698628Y-120261190D01*
X112698628Y-120261190D02*
X112984342Y-120261190D01*
X112984342Y-120261190D02*
X113079580Y-120308809D01*
X113079580Y-120308809D02*
X113127200Y-120356428D01*
X113127200Y-120356428D02*
X113174819Y-120451666D01*
X113174819Y-120451666D02*
X113174819Y-120642142D01*
X113174819Y-120642142D02*
X113127200Y-120737380D01*
X113270057Y-120070714D02*
X113270057Y-119308809D01*
X113174819Y-118546904D02*
X113174819Y-119118332D01*
X113174819Y-118832618D02*
X112174819Y-118832618D01*
X112174819Y-118832618D02*
X112317676Y-118927856D01*
X112317676Y-118927856D02*
X112412914Y-119023094D01*
X112412914Y-119023094D02*
X112460533Y-119118332D01*
X159576499Y-97984953D02*
X159243166Y-97508762D01*
X159005071Y-97984953D02*
X159005071Y-96984953D01*
X159005071Y-96984953D02*
X159386023Y-96984953D01*
X159386023Y-96984953D02*
X159481261Y-97032572D01*
X159481261Y-97032572D02*
X159528880Y-97080191D01*
X159528880Y-97080191D02*
X159576499Y-97175429D01*
X159576499Y-97175429D02*
X159576499Y-97318286D01*
X159576499Y-97318286D02*
X159528880Y-97413524D01*
X159528880Y-97413524D02*
X159481261Y-97461143D01*
X159481261Y-97461143D02*
X159386023Y-97508762D01*
X159386023Y-97508762D02*
X159005071Y-97508762D01*
X160528880Y-97984953D02*
X159957452Y-97984953D01*
X160243166Y-97984953D02*
X160243166Y-96984953D01*
X160243166Y-96984953D02*
X160147928Y-97127810D01*
X160147928Y-97127810D02*
X160052690Y-97223048D01*
X160052690Y-97223048D02*
X159957452Y-97270667D01*
X160862214Y-96984953D02*
X161481261Y-96984953D01*
X161481261Y-96984953D02*
X161147928Y-97365905D01*
X161147928Y-97365905D02*
X161290785Y-97365905D01*
X161290785Y-97365905D02*
X161386023Y-97413524D01*
X161386023Y-97413524D02*
X161433642Y-97461143D01*
X161433642Y-97461143D02*
X161481261Y-97556381D01*
X161481261Y-97556381D02*
X161481261Y-97794476D01*
X161481261Y-97794476D02*
X161433642Y-97889714D01*
X161433642Y-97889714D02*
X161386023Y-97937334D01*
X161386023Y-97937334D02*
X161290785Y-97984953D01*
X161290785Y-97984953D02*
X161005071Y-97984953D01*
X161005071Y-97984953D02*
X160909833Y-97937334D01*
X160909833Y-97937334D02*
X160862214Y-97889714D01*
X123139580Y-113196666D02*
X123187200Y-113244285D01*
X123187200Y-113244285D02*
X123234819Y-113387142D01*
X123234819Y-113387142D02*
X123234819Y-113482380D01*
X123234819Y-113482380D02*
X123187200Y-113625237D01*
X123187200Y-113625237D02*
X123091961Y-113720475D01*
X123091961Y-113720475D02*
X122996723Y-113768094D01*
X122996723Y-113768094D02*
X122806247Y-113815713D01*
X122806247Y-113815713D02*
X122663390Y-113815713D01*
X122663390Y-113815713D02*
X122472914Y-113768094D01*
X122472914Y-113768094D02*
X122377676Y-113720475D01*
X122377676Y-113720475D02*
X122282438Y-113625237D01*
X122282438Y-113625237D02*
X122234819Y-113482380D01*
X122234819Y-113482380D02*
X122234819Y-113387142D01*
X122234819Y-113387142D02*
X122282438Y-113244285D01*
X122282438Y-113244285D02*
X122330057Y-113196666D01*
X123234819Y-112244285D02*
X123234819Y-112815713D01*
X123234819Y-112529999D02*
X122234819Y-112529999D01*
X122234819Y-112529999D02*
X122377676Y-112625237D01*
X122377676Y-112625237D02*
X122472914Y-112720475D01*
X122472914Y-112720475D02*
X122520533Y-112815713D01*
X168313165Y-93136705D02*
X167836974Y-93470038D01*
X168313165Y-93708133D02*
X167313165Y-93708133D01*
X167313165Y-93708133D02*
X167313165Y-93327181D01*
X167313165Y-93327181D02*
X167360784Y-93231943D01*
X167360784Y-93231943D02*
X167408403Y-93184324D01*
X167408403Y-93184324D02*
X167503641Y-93136705D01*
X167503641Y-93136705D02*
X167646498Y-93136705D01*
X167646498Y-93136705D02*
X167741736Y-93184324D01*
X167741736Y-93184324D02*
X167789355Y-93231943D01*
X167789355Y-93231943D02*
X167836974Y-93327181D01*
X167836974Y-93327181D02*
X167836974Y-93708133D01*
X168313165Y-92184324D02*
X168313165Y-92755752D01*
X168313165Y-92470038D02*
X167313165Y-92470038D01*
X167313165Y-92470038D02*
X167456022Y-92565276D01*
X167456022Y-92565276D02*
X167551260Y-92660514D01*
X167551260Y-92660514D02*
X167598879Y-92755752D01*
X167313165Y-91327181D02*
X167313165Y-91517657D01*
X167313165Y-91517657D02*
X167360784Y-91612895D01*
X167360784Y-91612895D02*
X167408403Y-91660514D01*
X167408403Y-91660514D02*
X167551260Y-91755752D01*
X167551260Y-91755752D02*
X167741736Y-91803371D01*
X167741736Y-91803371D02*
X168122688Y-91803371D01*
X168122688Y-91803371D02*
X168217926Y-91755752D01*
X168217926Y-91755752D02*
X168265546Y-91708133D01*
X168265546Y-91708133D02*
X168313165Y-91612895D01*
X168313165Y-91612895D02*
X168313165Y-91422419D01*
X168313165Y-91422419D02*
X168265546Y-91327181D01*
X168265546Y-91327181D02*
X168217926Y-91279562D01*
X168217926Y-91279562D02*
X168122688Y-91231943D01*
X168122688Y-91231943D02*
X167884593Y-91231943D01*
X167884593Y-91231943D02*
X167789355Y-91279562D01*
X167789355Y-91279562D02*
X167741736Y-91327181D01*
X167741736Y-91327181D02*
X167694117Y-91422419D01*
X167694117Y-91422419D02*
X167694117Y-91612895D01*
X167694117Y-91612895D02*
X167741736Y-91708133D01*
X167741736Y-91708133D02*
X167789355Y-91755752D01*
X167789355Y-91755752D02*
X167884593Y-91803371D01*
X164036397Y-93154743D02*
X163560206Y-93488076D01*
X164036397Y-93726171D02*
X163036397Y-93726171D01*
X163036397Y-93726171D02*
X163036397Y-93345219D01*
X163036397Y-93345219D02*
X163084016Y-93249981D01*
X163084016Y-93249981D02*
X163131635Y-93202362D01*
X163131635Y-93202362D02*
X163226873Y-93154743D01*
X163226873Y-93154743D02*
X163369730Y-93154743D01*
X163369730Y-93154743D02*
X163464968Y-93202362D01*
X163464968Y-93202362D02*
X163512587Y-93249981D01*
X163512587Y-93249981D02*
X163560206Y-93345219D01*
X163560206Y-93345219D02*
X163560206Y-93726171D01*
X164036397Y-92202362D02*
X164036397Y-92773790D01*
X164036397Y-92488076D02*
X163036397Y-92488076D01*
X163036397Y-92488076D02*
X163179254Y-92583314D01*
X163179254Y-92583314D02*
X163274492Y-92678552D01*
X163274492Y-92678552D02*
X163322111Y-92773790D01*
X163036397Y-91297600D02*
X163036397Y-91773790D01*
X163036397Y-91773790D02*
X163512587Y-91821409D01*
X163512587Y-91821409D02*
X163464968Y-91773790D01*
X163464968Y-91773790D02*
X163417349Y-91678552D01*
X163417349Y-91678552D02*
X163417349Y-91440457D01*
X163417349Y-91440457D02*
X163464968Y-91345219D01*
X163464968Y-91345219D02*
X163512587Y-91297600D01*
X163512587Y-91297600D02*
X163607825Y-91249981D01*
X163607825Y-91249981D02*
X163845920Y-91249981D01*
X163845920Y-91249981D02*
X163941158Y-91297600D01*
X163941158Y-91297600D02*
X163988778Y-91345219D01*
X163988778Y-91345219D02*
X164036397Y-91440457D01*
X164036397Y-91440457D02*
X164036397Y-91678552D01*
X164036397Y-91678552D02*
X163988778Y-91773790D01*
X163988778Y-91773790D02*
X163941158Y-91821409D01*
X172553333Y-122882819D02*
X172220000Y-122406628D01*
X171981905Y-122882819D02*
X171981905Y-121882819D01*
X171981905Y-121882819D02*
X172362857Y-121882819D01*
X172362857Y-121882819D02*
X172458095Y-121930438D01*
X172458095Y-121930438D02*
X172505714Y-121978057D01*
X172505714Y-121978057D02*
X172553333Y-122073295D01*
X172553333Y-122073295D02*
X172553333Y-122216152D01*
X172553333Y-122216152D02*
X172505714Y-122311390D01*
X172505714Y-122311390D02*
X172458095Y-122359009D01*
X172458095Y-122359009D02*
X172362857Y-122406628D01*
X172362857Y-122406628D02*
X171981905Y-122406628D01*
X172886667Y-121882819D02*
X173505714Y-121882819D01*
X173505714Y-121882819D02*
X173172381Y-122263771D01*
X173172381Y-122263771D02*
X173315238Y-122263771D01*
X173315238Y-122263771D02*
X173410476Y-122311390D01*
X173410476Y-122311390D02*
X173458095Y-122359009D01*
X173458095Y-122359009D02*
X173505714Y-122454247D01*
X173505714Y-122454247D02*
X173505714Y-122692342D01*
X173505714Y-122692342D02*
X173458095Y-122787580D01*
X173458095Y-122787580D02*
X173410476Y-122835200D01*
X173410476Y-122835200D02*
X173315238Y-122882819D01*
X173315238Y-122882819D02*
X173029524Y-122882819D01*
X173029524Y-122882819D02*
X172934286Y-122835200D01*
X172934286Y-122835200D02*
X172886667Y-122787580D01*
X159104007Y-75918577D02*
X159151627Y-75966196D01*
X159151627Y-75966196D02*
X159199246Y-76109053D01*
X159199246Y-76109053D02*
X159199246Y-76204291D01*
X159199246Y-76204291D02*
X159151627Y-76347148D01*
X159151627Y-76347148D02*
X159056388Y-76442386D01*
X159056388Y-76442386D02*
X158961150Y-76490005D01*
X158961150Y-76490005D02*
X158770674Y-76537624D01*
X158770674Y-76537624D02*
X158627817Y-76537624D01*
X158627817Y-76537624D02*
X158437341Y-76490005D01*
X158437341Y-76490005D02*
X158342103Y-76442386D01*
X158342103Y-76442386D02*
X158246865Y-76347148D01*
X158246865Y-76347148D02*
X158199246Y-76204291D01*
X158199246Y-76204291D02*
X158199246Y-76109053D01*
X158199246Y-76109053D02*
X158246865Y-75966196D01*
X158246865Y-75966196D02*
X158294484Y-75918577D01*
X159199246Y-74966196D02*
X159199246Y-75537624D01*
X159199246Y-75251910D02*
X158199246Y-75251910D01*
X158199246Y-75251910D02*
X158342103Y-75347148D01*
X158342103Y-75347148D02*
X158437341Y-75442386D01*
X158437341Y-75442386D02*
X158484960Y-75537624D01*
X158199246Y-74061434D02*
X158199246Y-74537624D01*
X158199246Y-74537624D02*
X158675436Y-74585243D01*
X158675436Y-74585243D02*
X158627817Y-74537624D01*
X158627817Y-74537624D02*
X158580198Y-74442386D01*
X158580198Y-74442386D02*
X158580198Y-74204291D01*
X158580198Y-74204291D02*
X158627817Y-74109053D01*
X158627817Y-74109053D02*
X158675436Y-74061434D01*
X158675436Y-74061434D02*
X158770674Y-74013815D01*
X158770674Y-74013815D02*
X159008769Y-74013815D01*
X159008769Y-74013815D02*
X159104007Y-74061434D01*
X159104007Y-74061434D02*
X159151627Y-74109053D01*
X159151627Y-74109053D02*
X159199246Y-74204291D01*
X159199246Y-74204291D02*
X159199246Y-74442386D01*
X159199246Y-74442386D02*
X159151627Y-74537624D01*
X159151627Y-74537624D02*
X159104007Y-74585243D01*
X169634819Y-95273332D02*
X170444342Y-95273332D01*
X170444342Y-95273332D02*
X170539580Y-95225713D01*
X170539580Y-95225713D02*
X170587200Y-95178094D01*
X170587200Y-95178094D02*
X170634819Y-95082856D01*
X170634819Y-95082856D02*
X170634819Y-94892380D01*
X170634819Y-94892380D02*
X170587200Y-94797142D01*
X170587200Y-94797142D02*
X170539580Y-94749523D01*
X170539580Y-94749523D02*
X170444342Y-94701904D01*
X170444342Y-94701904D02*
X169634819Y-94701904D01*
X170634819Y-94225713D02*
X169634819Y-94225713D01*
X170111009Y-94225713D02*
X170111009Y-93654285D01*
X170634819Y-93654285D02*
X169634819Y-93654285D01*
X170634819Y-93178094D02*
X169634819Y-93178094D01*
X169634819Y-93178094D02*
X169634819Y-92797142D01*
X169634819Y-92797142D02*
X169682438Y-92701904D01*
X169682438Y-92701904D02*
X169730057Y-92654285D01*
X169730057Y-92654285D02*
X169825295Y-92606666D01*
X169825295Y-92606666D02*
X169968152Y-92606666D01*
X169968152Y-92606666D02*
X170063390Y-92654285D01*
X170063390Y-92654285D02*
X170111009Y-92701904D01*
X170111009Y-92701904D02*
X170158628Y-92797142D01*
X170158628Y-92797142D02*
X170158628Y-93178094D01*
X170253866Y-92178094D02*
X170253866Y-91416190D01*
X170634819Y-90416190D02*
X170634819Y-90987618D01*
X170634819Y-90701904D02*
X169634819Y-90701904D01*
X169634819Y-90701904D02*
X169777676Y-90797142D01*
X169777676Y-90797142D02*
X169872914Y-90892380D01*
X169872914Y-90892380D02*
X169920533Y-90987618D01*
X169634819Y-89511428D02*
X169634819Y-89987618D01*
X169634819Y-89987618D02*
X170111009Y-90035237D01*
X170111009Y-90035237D02*
X170063390Y-89987618D01*
X170063390Y-89987618D02*
X170015771Y-89892380D01*
X170015771Y-89892380D02*
X170015771Y-89654285D01*
X170015771Y-89654285D02*
X170063390Y-89559047D01*
X170063390Y-89559047D02*
X170111009Y-89511428D01*
X170111009Y-89511428D02*
X170206247Y-89463809D01*
X170206247Y-89463809D02*
X170444342Y-89463809D01*
X170444342Y-89463809D02*
X170539580Y-89511428D01*
X170539580Y-89511428D02*
X170587200Y-89559047D01*
X170587200Y-89559047D02*
X170634819Y-89654285D01*
X170634819Y-89654285D02*
X170634819Y-89892380D01*
X170634819Y-89892380D02*
X170587200Y-89987618D01*
X170587200Y-89987618D02*
X170539580Y-90035237D01*
X169634819Y-88844761D02*
X169634819Y-88749523D01*
X169634819Y-88749523D02*
X169682438Y-88654285D01*
X169682438Y-88654285D02*
X169730057Y-88606666D01*
X169730057Y-88606666D02*
X169825295Y-88559047D01*
X169825295Y-88559047D02*
X170015771Y-88511428D01*
X170015771Y-88511428D02*
X170253866Y-88511428D01*
X170253866Y-88511428D02*
X170444342Y-88559047D01*
X170444342Y-88559047D02*
X170539580Y-88606666D01*
X170539580Y-88606666D02*
X170587200Y-88654285D01*
X170587200Y-88654285D02*
X170634819Y-88749523D01*
X170634819Y-88749523D02*
X170634819Y-88844761D01*
X170634819Y-88844761D02*
X170587200Y-88939999D01*
X170587200Y-88939999D02*
X170539580Y-88987618D01*
X170539580Y-88987618D02*
X170444342Y-89035237D01*
X170444342Y-89035237D02*
X170253866Y-89082856D01*
X170253866Y-89082856D02*
X170015771Y-89082856D01*
X170015771Y-89082856D02*
X169825295Y-89035237D01*
X169825295Y-89035237D02*
X169730057Y-88987618D01*
X169730057Y-88987618D02*
X169682438Y-88939999D01*
X169682438Y-88939999D02*
X169634819Y-88844761D01*
X169634819Y-87892380D02*
X169634819Y-87797142D01*
X169634819Y-87797142D02*
X169682438Y-87701904D01*
X169682438Y-87701904D02*
X169730057Y-87654285D01*
X169730057Y-87654285D02*
X169825295Y-87606666D01*
X169825295Y-87606666D02*
X170015771Y-87559047D01*
X170015771Y-87559047D02*
X170253866Y-87559047D01*
X170253866Y-87559047D02*
X170444342Y-87606666D01*
X170444342Y-87606666D02*
X170539580Y-87654285D01*
X170539580Y-87654285D02*
X170587200Y-87701904D01*
X170587200Y-87701904D02*
X170634819Y-87797142D01*
X170634819Y-87797142D02*
X170634819Y-87892380D01*
X170634819Y-87892380D02*
X170587200Y-87987618D01*
X170587200Y-87987618D02*
X170539580Y-88035237D01*
X170539580Y-88035237D02*
X170444342Y-88082856D01*
X170444342Y-88082856D02*
X170253866Y-88130475D01*
X170253866Y-88130475D02*
X170015771Y-88130475D01*
X170015771Y-88130475D02*
X169825295Y-88082856D01*
X169825295Y-88082856D02*
X169730057Y-88035237D01*
X169730057Y-88035237D02*
X169682438Y-87987618D01*
X169682438Y-87987618D02*
X169634819Y-87892380D01*
X164168583Y-88141537D02*
X164073345Y-88093918D01*
X164073345Y-88093918D02*
X163978107Y-87998680D01*
X163978107Y-87998680D02*
X163835250Y-87855822D01*
X163835250Y-87855822D02*
X163740012Y-87808203D01*
X163740012Y-87808203D02*
X163644774Y-87808203D01*
X163692393Y-88046299D02*
X163597155Y-87998680D01*
X163597155Y-87998680D02*
X163501917Y-87903441D01*
X163501917Y-87903441D02*
X163454298Y-87712965D01*
X163454298Y-87712965D02*
X163454298Y-87379632D01*
X163454298Y-87379632D02*
X163501917Y-87189156D01*
X163501917Y-87189156D02*
X163597155Y-87093918D01*
X163597155Y-87093918D02*
X163692393Y-87046299D01*
X163692393Y-87046299D02*
X163882869Y-87046299D01*
X163882869Y-87046299D02*
X163978107Y-87093918D01*
X163978107Y-87093918D02*
X164073345Y-87189156D01*
X164073345Y-87189156D02*
X164120964Y-87379632D01*
X164120964Y-87379632D02*
X164120964Y-87712965D01*
X164120964Y-87712965D02*
X164073345Y-87903441D01*
X164073345Y-87903441D02*
X163978107Y-87998680D01*
X163978107Y-87998680D02*
X163882869Y-88046299D01*
X163882869Y-88046299D02*
X163692393Y-88046299D01*
X164501917Y-87141537D02*
X164549536Y-87093918D01*
X164549536Y-87093918D02*
X164644774Y-87046299D01*
X164644774Y-87046299D02*
X164882869Y-87046299D01*
X164882869Y-87046299D02*
X164978107Y-87093918D01*
X164978107Y-87093918D02*
X165025726Y-87141537D01*
X165025726Y-87141537D02*
X165073345Y-87236775D01*
X165073345Y-87236775D02*
X165073345Y-87332013D01*
X165073345Y-87332013D02*
X165025726Y-87474870D01*
X165025726Y-87474870D02*
X164454298Y-88046299D01*
X164454298Y-88046299D02*
X165073345Y-88046299D01*
X128778095Y-103184819D02*
X128778095Y-103994342D01*
X128778095Y-103994342D02*
X128825714Y-104089580D01*
X128825714Y-104089580D02*
X128873333Y-104137200D01*
X128873333Y-104137200D02*
X128968571Y-104184819D01*
X128968571Y-104184819D02*
X129159047Y-104184819D01*
X129159047Y-104184819D02*
X129254285Y-104137200D01*
X129254285Y-104137200D02*
X129301904Y-104089580D01*
X129301904Y-104089580D02*
X129349523Y-103994342D01*
X129349523Y-103994342D02*
X129349523Y-103184819D01*
X130254285Y-103518152D02*
X130254285Y-104184819D01*
X130016190Y-103137200D02*
X129778095Y-103851485D01*
X129778095Y-103851485D02*
X130397142Y-103851485D01*
X129373333Y-88212819D02*
X129040000Y-87736628D01*
X128801905Y-88212819D02*
X128801905Y-87212819D01*
X128801905Y-87212819D02*
X129182857Y-87212819D01*
X129182857Y-87212819D02*
X129278095Y-87260438D01*
X129278095Y-87260438D02*
X129325714Y-87308057D01*
X129325714Y-87308057D02*
X129373333Y-87403295D01*
X129373333Y-87403295D02*
X129373333Y-87546152D01*
X129373333Y-87546152D02*
X129325714Y-87641390D01*
X129325714Y-87641390D02*
X129278095Y-87689009D01*
X129278095Y-87689009D02*
X129182857Y-87736628D01*
X129182857Y-87736628D02*
X128801905Y-87736628D01*
X130230476Y-87546152D02*
X130230476Y-88212819D01*
X129992381Y-87165200D02*
X129754286Y-87879485D01*
X129754286Y-87879485D02*
X130373333Y-87879485D01*
X113194819Y-113307380D02*
X112194819Y-113307380D01*
X112194819Y-113307380D02*
X112194819Y-112926428D01*
X112194819Y-112926428D02*
X112242438Y-112831190D01*
X112242438Y-112831190D02*
X112290057Y-112783571D01*
X112290057Y-112783571D02*
X112385295Y-112735952D01*
X112385295Y-112735952D02*
X112528152Y-112735952D01*
X112528152Y-112735952D02*
X112623390Y-112783571D01*
X112623390Y-112783571D02*
X112671009Y-112831190D01*
X112671009Y-112831190D02*
X112718628Y-112926428D01*
X112718628Y-112926428D02*
X112718628Y-113307380D01*
X113147200Y-112354999D02*
X113194819Y-112212142D01*
X113194819Y-112212142D02*
X113194819Y-111974047D01*
X113194819Y-111974047D02*
X113147200Y-111878809D01*
X113147200Y-111878809D02*
X113099580Y-111831190D01*
X113099580Y-111831190D02*
X113004342Y-111783571D01*
X113004342Y-111783571D02*
X112909104Y-111783571D01*
X112909104Y-111783571D02*
X112813866Y-111831190D01*
X112813866Y-111831190D02*
X112766247Y-111878809D01*
X112766247Y-111878809D02*
X112718628Y-111974047D01*
X112718628Y-111974047D02*
X112671009Y-112164523D01*
X112671009Y-112164523D02*
X112623390Y-112259761D01*
X112623390Y-112259761D02*
X112575771Y-112307380D01*
X112575771Y-112307380D02*
X112480533Y-112354999D01*
X112480533Y-112354999D02*
X112385295Y-112354999D01*
X112385295Y-112354999D02*
X112290057Y-112307380D01*
X112290057Y-112307380D02*
X112242438Y-112259761D01*
X112242438Y-112259761D02*
X112194819Y-112164523D01*
X112194819Y-112164523D02*
X112194819Y-111926428D01*
X112194819Y-111926428D02*
X112242438Y-111783571D01*
X112194819Y-111354999D02*
X113004342Y-111354999D01*
X113004342Y-111354999D02*
X113099580Y-111307380D01*
X113099580Y-111307380D02*
X113147200Y-111259761D01*
X113147200Y-111259761D02*
X113194819Y-111164523D01*
X113194819Y-111164523D02*
X113194819Y-110974047D01*
X113194819Y-110974047D02*
X113147200Y-110878809D01*
X113147200Y-110878809D02*
X113099580Y-110831190D01*
X113099580Y-110831190D02*
X113004342Y-110783571D01*
X113004342Y-110783571D02*
X112194819Y-110783571D01*
X113290057Y-110545476D02*
X113290057Y-109783571D01*
X112671009Y-109212142D02*
X112671009Y-109545475D01*
X113194819Y-109545475D02*
X112194819Y-109545475D01*
X112194819Y-109545475D02*
X112194819Y-109069285D01*
X113194819Y-108259761D02*
X112671009Y-108259761D01*
X112671009Y-108259761D02*
X112575771Y-108307380D01*
X112575771Y-108307380D02*
X112528152Y-108402618D01*
X112528152Y-108402618D02*
X112528152Y-108593094D01*
X112528152Y-108593094D02*
X112575771Y-108688332D01*
X113147200Y-108259761D02*
X113194819Y-108354999D01*
X113194819Y-108354999D02*
X113194819Y-108593094D01*
X113194819Y-108593094D02*
X113147200Y-108688332D01*
X113147200Y-108688332D02*
X113051961Y-108735951D01*
X113051961Y-108735951D02*
X112956723Y-108735951D01*
X112956723Y-108735951D02*
X112861485Y-108688332D01*
X112861485Y-108688332D02*
X112813866Y-108593094D01*
X112813866Y-108593094D02*
X112813866Y-108354999D01*
X112813866Y-108354999D02*
X112766247Y-108259761D01*
X112528152Y-107783570D02*
X113194819Y-107783570D01*
X112623390Y-107783570D02*
X112575771Y-107735951D01*
X112575771Y-107735951D02*
X112528152Y-107640713D01*
X112528152Y-107640713D02*
X112528152Y-107497856D01*
X112528152Y-107497856D02*
X112575771Y-107402618D01*
X112575771Y-107402618D02*
X112671009Y-107354999D01*
X112671009Y-107354999D02*
X113194819Y-107354999D01*
X113194819Y-106354999D02*
X113194819Y-106926427D01*
X113194819Y-106640713D02*
X112194819Y-106640713D01*
X112194819Y-106640713D02*
X112337676Y-106735951D01*
X112337676Y-106735951D02*
X112432914Y-106831189D01*
X112432914Y-106831189D02*
X112480533Y-106926427D01*
X114343866Y-89756904D02*
X114343866Y-88995000D01*
X114724819Y-89375952D02*
X113962914Y-89375952D01*
X113820057Y-87804523D02*
X113772438Y-87756904D01*
X113772438Y-87756904D02*
X113724819Y-87661666D01*
X113724819Y-87661666D02*
X113724819Y-87423571D01*
X113724819Y-87423571D02*
X113772438Y-87328333D01*
X113772438Y-87328333D02*
X113820057Y-87280714D01*
X113820057Y-87280714D02*
X113915295Y-87233095D01*
X113915295Y-87233095D02*
X114010533Y-87233095D01*
X114010533Y-87233095D02*
X114153390Y-87280714D01*
X114153390Y-87280714D02*
X114724819Y-87852142D01*
X114724819Y-87852142D02*
X114724819Y-87233095D01*
X114058152Y-86375952D02*
X114724819Y-86375952D01*
X113677200Y-86614047D02*
X114391485Y-86852142D01*
X114391485Y-86852142D02*
X114391485Y-86233095D01*
X113724819Y-85994999D02*
X114724819Y-85661666D01*
X114724819Y-85661666D02*
X113724819Y-85328333D01*
X114343866Y-84233094D02*
X114343866Y-83471190D01*
X113174819Y-101591667D02*
X112698628Y-101925000D01*
X113174819Y-102163095D02*
X112174819Y-102163095D01*
X112174819Y-102163095D02*
X112174819Y-101782143D01*
X112174819Y-101782143D02*
X112222438Y-101686905D01*
X112222438Y-101686905D02*
X112270057Y-101639286D01*
X112270057Y-101639286D02*
X112365295Y-101591667D01*
X112365295Y-101591667D02*
X112508152Y-101591667D01*
X112508152Y-101591667D02*
X112603390Y-101639286D01*
X112603390Y-101639286D02*
X112651009Y-101686905D01*
X112651009Y-101686905D02*
X112698628Y-101782143D01*
X112698628Y-101782143D02*
X112698628Y-102163095D01*
X113174819Y-100734524D02*
X112651009Y-100734524D01*
X112651009Y-100734524D02*
X112555771Y-100782143D01*
X112555771Y-100782143D02*
X112508152Y-100877381D01*
X112508152Y-100877381D02*
X112508152Y-101067857D01*
X112508152Y-101067857D02*
X112555771Y-101163095D01*
X113127200Y-100734524D02*
X113174819Y-100829762D01*
X113174819Y-100829762D02*
X113174819Y-101067857D01*
X113174819Y-101067857D02*
X113127200Y-101163095D01*
X113127200Y-101163095D02*
X113031961Y-101210714D01*
X113031961Y-101210714D02*
X112936723Y-101210714D01*
X112936723Y-101210714D02*
X112841485Y-101163095D01*
X112841485Y-101163095D02*
X112793866Y-101067857D01*
X112793866Y-101067857D02*
X112793866Y-100829762D01*
X112793866Y-100829762D02*
X112746247Y-100734524D01*
X113174819Y-99829762D02*
X112174819Y-99829762D01*
X113127200Y-99829762D02*
X113174819Y-99925000D01*
X113174819Y-99925000D02*
X113174819Y-100115476D01*
X113174819Y-100115476D02*
X113127200Y-100210714D01*
X113127200Y-100210714D02*
X113079580Y-100258333D01*
X113079580Y-100258333D02*
X112984342Y-100305952D01*
X112984342Y-100305952D02*
X112698628Y-100305952D01*
X112698628Y-100305952D02*
X112603390Y-100258333D01*
X112603390Y-100258333D02*
X112555771Y-100210714D01*
X112555771Y-100210714D02*
X112508152Y-100115476D01*
X112508152Y-100115476D02*
X112508152Y-99925000D01*
X112508152Y-99925000D02*
X112555771Y-99829762D01*
X113270057Y-99591667D02*
X113270057Y-98829762D01*
X112651009Y-98258333D02*
X112651009Y-98591666D01*
X113174819Y-98591666D02*
X112174819Y-98591666D01*
X112174819Y-98591666D02*
X112174819Y-98115476D01*
X113174819Y-97305952D02*
X112651009Y-97305952D01*
X112651009Y-97305952D02*
X112555771Y-97353571D01*
X112555771Y-97353571D02*
X112508152Y-97448809D01*
X112508152Y-97448809D02*
X112508152Y-97639285D01*
X112508152Y-97639285D02*
X112555771Y-97734523D01*
X113127200Y-97305952D02*
X113174819Y-97401190D01*
X113174819Y-97401190D02*
X113174819Y-97639285D01*
X113174819Y-97639285D02*
X113127200Y-97734523D01*
X113127200Y-97734523D02*
X113031961Y-97782142D01*
X113031961Y-97782142D02*
X112936723Y-97782142D01*
X112936723Y-97782142D02*
X112841485Y-97734523D01*
X112841485Y-97734523D02*
X112793866Y-97639285D01*
X112793866Y-97639285D02*
X112793866Y-97401190D01*
X112793866Y-97401190D02*
X112746247Y-97305952D01*
X112508152Y-96829761D02*
X113174819Y-96829761D01*
X112603390Y-96829761D02*
X112555771Y-96782142D01*
X112555771Y-96782142D02*
X112508152Y-96686904D01*
X112508152Y-96686904D02*
X112508152Y-96544047D01*
X112508152Y-96544047D02*
X112555771Y-96448809D01*
X112555771Y-96448809D02*
X112651009Y-96401190D01*
X112651009Y-96401190D02*
X113174819Y-96401190D01*
X113270057Y-96163095D02*
X113270057Y-95401190D01*
X112270057Y-95210713D02*
X112222438Y-95163094D01*
X112222438Y-95163094D02*
X112174819Y-95067856D01*
X112174819Y-95067856D02*
X112174819Y-94829761D01*
X112174819Y-94829761D02*
X112222438Y-94734523D01*
X112222438Y-94734523D02*
X112270057Y-94686904D01*
X112270057Y-94686904D02*
X112365295Y-94639285D01*
X112365295Y-94639285D02*
X112460533Y-94639285D01*
X112460533Y-94639285D02*
X112603390Y-94686904D01*
X112603390Y-94686904D02*
X113174819Y-95258332D01*
X113174819Y-95258332D02*
X113174819Y-94639285D01*
X122261333Y-102562819D02*
X121928000Y-102086628D01*
X121689905Y-102562819D02*
X121689905Y-101562819D01*
X121689905Y-101562819D02*
X122070857Y-101562819D01*
X122070857Y-101562819D02*
X122166095Y-101610438D01*
X122166095Y-101610438D02*
X122213714Y-101658057D01*
X122213714Y-101658057D02*
X122261333Y-101753295D01*
X122261333Y-101753295D02*
X122261333Y-101896152D01*
X122261333Y-101896152D02*
X122213714Y-101991390D01*
X122213714Y-101991390D02*
X122166095Y-102039009D01*
X122166095Y-102039009D02*
X122070857Y-102086628D01*
X122070857Y-102086628D02*
X121689905Y-102086628D01*
X122594667Y-101562819D02*
X123261333Y-101562819D01*
X123261333Y-101562819D02*
X122832762Y-102562819D01*
X123139580Y-106846666D02*
X123187200Y-106894285D01*
X123187200Y-106894285D02*
X123234819Y-107037142D01*
X123234819Y-107037142D02*
X123234819Y-107132380D01*
X123234819Y-107132380D02*
X123187200Y-107275237D01*
X123187200Y-107275237D02*
X123091961Y-107370475D01*
X123091961Y-107370475D02*
X122996723Y-107418094D01*
X122996723Y-107418094D02*
X122806247Y-107465713D01*
X122806247Y-107465713D02*
X122663390Y-107465713D01*
X122663390Y-107465713D02*
X122472914Y-107418094D01*
X122472914Y-107418094D02*
X122377676Y-107370475D01*
X122377676Y-107370475D02*
X122282438Y-107275237D01*
X122282438Y-107275237D02*
X122234819Y-107132380D01*
X122234819Y-107132380D02*
X122234819Y-107037142D01*
X122234819Y-107037142D02*
X122282438Y-106894285D01*
X122282438Y-106894285D02*
X122330057Y-106846666D01*
X122330057Y-106465713D02*
X122282438Y-106418094D01*
X122282438Y-106418094D02*
X122234819Y-106322856D01*
X122234819Y-106322856D02*
X122234819Y-106084761D01*
X122234819Y-106084761D02*
X122282438Y-105989523D01*
X122282438Y-105989523D02*
X122330057Y-105941904D01*
X122330057Y-105941904D02*
X122425295Y-105894285D01*
X122425295Y-105894285D02*
X122520533Y-105894285D01*
X122520533Y-105894285D02*
X122663390Y-105941904D01*
X122663390Y-105941904D02*
X123234819Y-106513332D01*
X123234819Y-106513332D02*
X123234819Y-105894285D01*
X128778095Y-109534819D02*
X128778095Y-110344342D01*
X128778095Y-110344342D02*
X128825714Y-110439580D01*
X128825714Y-110439580D02*
X128873333Y-110487200D01*
X128873333Y-110487200D02*
X128968571Y-110534819D01*
X128968571Y-110534819D02*
X129159047Y-110534819D01*
X129159047Y-110534819D02*
X129254285Y-110487200D01*
X129254285Y-110487200D02*
X129301904Y-110439580D01*
X129301904Y-110439580D02*
X129349523Y-110344342D01*
X129349523Y-110344342D02*
X129349523Y-109534819D01*
X130301904Y-109534819D02*
X129825714Y-109534819D01*
X129825714Y-109534819D02*
X129778095Y-110011009D01*
X129778095Y-110011009D02*
X129825714Y-109963390D01*
X129825714Y-109963390D02*
X129920952Y-109915771D01*
X129920952Y-109915771D02*
X130159047Y-109915771D01*
X130159047Y-109915771D02*
X130254285Y-109963390D01*
X130254285Y-109963390D02*
X130301904Y-110011009D01*
X130301904Y-110011009D02*
X130349523Y-110106247D01*
X130349523Y-110106247D02*
X130349523Y-110344342D01*
X130349523Y-110344342D02*
X130301904Y-110439580D01*
X130301904Y-110439580D02*
X130254285Y-110487200D01*
X130254285Y-110487200D02*
X130159047Y-110534819D01*
X130159047Y-110534819D02*
X129920952Y-110534819D01*
X129920952Y-110534819D02*
X129825714Y-110487200D01*
X129825714Y-110487200D02*
X129778095Y-110439580D01*
X158897619Y-127984819D02*
X159135714Y-128984819D01*
X159135714Y-128984819D02*
X159326190Y-128270533D01*
X159326190Y-128270533D02*
X159516666Y-128984819D01*
X159516666Y-128984819D02*
X159754762Y-127984819D01*
X160088095Y-128699104D02*
X160564285Y-128699104D01*
X159992857Y-128984819D02*
X160326190Y-127984819D01*
X160326190Y-127984819D02*
X160659523Y-128984819D01*
X160850000Y-127984819D02*
X161421428Y-127984819D01*
X161135714Y-128984819D02*
X161135714Y-127984819D01*
X161754762Y-128461009D02*
X162088095Y-128461009D01*
X162230952Y-128984819D02*
X161754762Y-128984819D01*
X161754762Y-128984819D02*
X161754762Y-127984819D01*
X161754762Y-127984819D02*
X162230952Y-127984819D01*
X163230952Y-128984819D02*
X162897619Y-128508628D01*
X162659524Y-128984819D02*
X162659524Y-127984819D01*
X162659524Y-127984819D02*
X163040476Y-127984819D01*
X163040476Y-127984819D02*
X163135714Y-128032438D01*
X163135714Y-128032438D02*
X163183333Y-128080057D01*
X163183333Y-128080057D02*
X163230952Y-128175295D01*
X163230952Y-128175295D02*
X163230952Y-128318152D01*
X163230952Y-128318152D02*
X163183333Y-128413390D01*
X163183333Y-128413390D02*
X163135714Y-128461009D01*
X163135714Y-128461009D02*
X163040476Y-128508628D01*
X163040476Y-128508628D02*
X162659524Y-128508628D01*
X163421429Y-129080057D02*
X164183333Y-129080057D01*
X164278572Y-127984819D02*
X164850000Y-127984819D01*
X164564286Y-128984819D02*
X164564286Y-127984819D01*
X165183334Y-128461009D02*
X165516667Y-128461009D01*
X165659524Y-128984819D02*
X165183334Y-128984819D01*
X165183334Y-128984819D02*
X165183334Y-127984819D01*
X165183334Y-127984819D02*
X165659524Y-127984819D01*
X166088096Y-128984819D02*
X166088096Y-127984819D01*
X166088096Y-127984819D02*
X166421429Y-128699104D01*
X166421429Y-128699104D02*
X166754762Y-127984819D01*
X166754762Y-127984819D02*
X166754762Y-128984819D01*
X167230953Y-128984819D02*
X167230953Y-127984819D01*
X167230953Y-127984819D02*
X167611905Y-127984819D01*
X167611905Y-127984819D02*
X167707143Y-128032438D01*
X167707143Y-128032438D02*
X167754762Y-128080057D01*
X167754762Y-128080057D02*
X167802381Y-128175295D01*
X167802381Y-128175295D02*
X167802381Y-128318152D01*
X167802381Y-128318152D02*
X167754762Y-128413390D01*
X167754762Y-128413390D02*
X167707143Y-128461009D01*
X167707143Y-128461009D02*
X167611905Y-128508628D01*
X167611905Y-128508628D02*
X167230953Y-128508628D01*
X168754762Y-128984819D02*
X168183334Y-128984819D01*
X168469048Y-128984819D02*
X168469048Y-127984819D01*
X168469048Y-127984819D02*
X168373810Y-128127676D01*
X168373810Y-128127676D02*
X168278572Y-128222914D01*
X168278572Y-128222914D02*
X168183334Y-128270533D01*
X154694946Y-81454051D02*
X155504469Y-81454051D01*
X155504469Y-81454051D02*
X155599707Y-81406432D01*
X155599707Y-81406432D02*
X155647327Y-81358813D01*
X155647327Y-81358813D02*
X155694946Y-81263575D01*
X155694946Y-81263575D02*
X155694946Y-81073099D01*
X155694946Y-81073099D02*
X155647327Y-80977861D01*
X155647327Y-80977861D02*
X155599707Y-80930242D01*
X155599707Y-80930242D02*
X155504469Y-80882623D01*
X155504469Y-80882623D02*
X154694946Y-80882623D01*
X154694946Y-80501670D02*
X154694946Y-79882623D01*
X154694946Y-79882623D02*
X155075898Y-80215956D01*
X155075898Y-80215956D02*
X155075898Y-80073099D01*
X155075898Y-80073099D02*
X155123517Y-79977861D01*
X155123517Y-79977861D02*
X155171136Y-79930242D01*
X155171136Y-79930242D02*
X155266374Y-79882623D01*
X155266374Y-79882623D02*
X155504469Y-79882623D01*
X155504469Y-79882623D02*
X155599707Y-79930242D01*
X155599707Y-79930242D02*
X155647327Y-79977861D01*
X155647327Y-79977861D02*
X155694946Y-80073099D01*
X155694946Y-80073099D02*
X155694946Y-80358813D01*
X155694946Y-80358813D02*
X155647327Y-80454051D01*
X155647327Y-80454051D02*
X155599707Y-80501670D01*
X159570080Y-95865222D02*
X159522461Y-95912842D01*
X159522461Y-95912842D02*
X159379604Y-95960461D01*
X159379604Y-95960461D02*
X159284366Y-95960461D01*
X159284366Y-95960461D02*
X159141509Y-95912842D01*
X159141509Y-95912842D02*
X159046271Y-95817603D01*
X159046271Y-95817603D02*
X158998652Y-95722365D01*
X158998652Y-95722365D02*
X158951033Y-95531889D01*
X158951033Y-95531889D02*
X158951033Y-95389032D01*
X158951033Y-95389032D02*
X158998652Y-95198556D01*
X158998652Y-95198556D02*
X159046271Y-95103318D01*
X159046271Y-95103318D02*
X159141509Y-95008080D01*
X159141509Y-95008080D02*
X159284366Y-94960461D01*
X159284366Y-94960461D02*
X159379604Y-94960461D01*
X159379604Y-94960461D02*
X159522461Y-95008080D01*
X159522461Y-95008080D02*
X159570080Y-95055699D01*
X160522461Y-95960461D02*
X159951033Y-95960461D01*
X160236747Y-95960461D02*
X160236747Y-94960461D01*
X160236747Y-94960461D02*
X160141509Y-95103318D01*
X160141509Y-95103318D02*
X160046271Y-95198556D01*
X160046271Y-95198556D02*
X159951033Y-95246175D01*
X161093890Y-95389032D02*
X160998652Y-95341413D01*
X160998652Y-95341413D02*
X160951033Y-95293794D01*
X160951033Y-95293794D02*
X160903414Y-95198556D01*
X160903414Y-95198556D02*
X160903414Y-95150937D01*
X160903414Y-95150937D02*
X160951033Y-95055699D01*
X160951033Y-95055699D02*
X160998652Y-95008080D01*
X160998652Y-95008080D02*
X161093890Y-94960461D01*
X161093890Y-94960461D02*
X161284366Y-94960461D01*
X161284366Y-94960461D02*
X161379604Y-95008080D01*
X161379604Y-95008080D02*
X161427223Y-95055699D01*
X161427223Y-95055699D02*
X161474842Y-95150937D01*
X161474842Y-95150937D02*
X161474842Y-95198556D01*
X161474842Y-95198556D02*
X161427223Y-95293794D01*
X161427223Y-95293794D02*
X161379604Y-95341413D01*
X161379604Y-95341413D02*
X161284366Y-95389032D01*
X161284366Y-95389032D02*
X161093890Y-95389032D01*
X161093890Y-95389032D02*
X160998652Y-95436651D01*
X160998652Y-95436651D02*
X160951033Y-95484270D01*
X160951033Y-95484270D02*
X160903414Y-95579508D01*
X160903414Y-95579508D02*
X160903414Y-95769984D01*
X160903414Y-95769984D02*
X160951033Y-95865222D01*
X160951033Y-95865222D02*
X160998652Y-95912842D01*
X160998652Y-95912842D02*
X161093890Y-95960461D01*
X161093890Y-95960461D02*
X161284366Y-95960461D01*
X161284366Y-95960461D02*
X161379604Y-95912842D01*
X161379604Y-95912842D02*
X161427223Y-95865222D01*
X161427223Y-95865222D02*
X161474842Y-95769984D01*
X161474842Y-95769984D02*
X161474842Y-95579508D01*
X161474842Y-95579508D02*
X161427223Y-95484270D01*
X161427223Y-95484270D02*
X161379604Y-95436651D01*
X161379604Y-95436651D02*
X161284366Y-95389032D01*
X123129580Y-93934166D02*
X123177200Y-93981785D01*
X123177200Y-93981785D02*
X123224819Y-94124642D01*
X123224819Y-94124642D02*
X123224819Y-94219880D01*
X123224819Y-94219880D02*
X123177200Y-94362737D01*
X123177200Y-94362737D02*
X123081961Y-94457975D01*
X123081961Y-94457975D02*
X122986723Y-94505594D01*
X122986723Y-94505594D02*
X122796247Y-94553213D01*
X122796247Y-94553213D02*
X122653390Y-94553213D01*
X122653390Y-94553213D02*
X122462914Y-94505594D01*
X122462914Y-94505594D02*
X122367676Y-94457975D01*
X122367676Y-94457975D02*
X122272438Y-94362737D01*
X122272438Y-94362737D02*
X122224819Y-94219880D01*
X122224819Y-94219880D02*
X122224819Y-94124642D01*
X122224819Y-94124642D02*
X122272438Y-93981785D01*
X122272438Y-93981785D02*
X122320057Y-93934166D01*
X122558152Y-93077023D02*
X123224819Y-93077023D01*
X122177200Y-93315118D02*
X122891485Y-93553213D01*
X122891485Y-93553213D02*
X122891485Y-92934166D01*
X168475466Y-88398474D02*
X167999275Y-88731807D01*
X168475466Y-88969902D02*
X167475466Y-88969902D01*
X167475466Y-88969902D02*
X167475466Y-88588950D01*
X167475466Y-88588950D02*
X167523085Y-88493712D01*
X167523085Y-88493712D02*
X167570704Y-88446093D01*
X167570704Y-88446093D02*
X167665942Y-88398474D01*
X167665942Y-88398474D02*
X167808799Y-88398474D01*
X167808799Y-88398474D02*
X167904037Y-88446093D01*
X167904037Y-88446093D02*
X167951656Y-88493712D01*
X167951656Y-88493712D02*
X167999275Y-88588950D01*
X167999275Y-88588950D02*
X167999275Y-88969902D01*
X168475466Y-87446093D02*
X168475466Y-88017521D01*
X168475466Y-87731807D02*
X167475466Y-87731807D01*
X167475466Y-87731807D02*
X167618323Y-87827045D01*
X167618323Y-87827045D02*
X167713561Y-87922283D01*
X167713561Y-87922283D02*
X167761180Y-88017521D01*
X168475466Y-86493712D02*
X168475466Y-87065140D01*
X168475466Y-86779426D02*
X167475466Y-86779426D01*
X167475466Y-86779426D02*
X167618323Y-86874664D01*
X167618323Y-86874664D02*
X167713561Y-86969902D01*
X167713561Y-86969902D02*
X167761180Y-87065140D01*
X169232404Y-97990819D02*
X168899071Y-97514628D01*
X168660976Y-97990819D02*
X168660976Y-96990819D01*
X168660976Y-96990819D02*
X169041928Y-96990819D01*
X169041928Y-96990819D02*
X169137166Y-97038438D01*
X169137166Y-97038438D02*
X169184785Y-97086057D01*
X169184785Y-97086057D02*
X169232404Y-97181295D01*
X169232404Y-97181295D02*
X169232404Y-97324152D01*
X169232404Y-97324152D02*
X169184785Y-97419390D01*
X169184785Y-97419390D02*
X169137166Y-97467009D01*
X169137166Y-97467009D02*
X169041928Y-97514628D01*
X169041928Y-97514628D02*
X168660976Y-97514628D01*
X170184785Y-97990819D02*
X169613357Y-97990819D01*
X169899071Y-97990819D02*
X169899071Y-96990819D01*
X169899071Y-96990819D02*
X169803833Y-97133676D01*
X169803833Y-97133676D02*
X169708595Y-97228914D01*
X169708595Y-97228914D02*
X169613357Y-97276533D01*
X171041928Y-97324152D02*
X171041928Y-97990819D01*
X170803833Y-96943200D02*
X170565738Y-97657485D01*
X170565738Y-97657485D02*
X171184785Y-97657485D01*
X122261333Y-109166819D02*
X121928000Y-108690628D01*
X121689905Y-109166819D02*
X121689905Y-108166819D01*
X121689905Y-108166819D02*
X122070857Y-108166819D01*
X122070857Y-108166819D02*
X122166095Y-108214438D01*
X122166095Y-108214438D02*
X122213714Y-108262057D01*
X122213714Y-108262057D02*
X122261333Y-108357295D01*
X122261333Y-108357295D02*
X122261333Y-108500152D01*
X122261333Y-108500152D02*
X122213714Y-108595390D01*
X122213714Y-108595390D02*
X122166095Y-108643009D01*
X122166095Y-108643009D02*
X122070857Y-108690628D01*
X122070857Y-108690628D02*
X121689905Y-108690628D01*
X123118476Y-108166819D02*
X122928000Y-108166819D01*
X122928000Y-108166819D02*
X122832762Y-108214438D01*
X122832762Y-108214438D02*
X122785143Y-108262057D01*
X122785143Y-108262057D02*
X122689905Y-108404914D01*
X122689905Y-108404914D02*
X122642286Y-108595390D01*
X122642286Y-108595390D02*
X122642286Y-108976342D01*
X122642286Y-108976342D02*
X122689905Y-109071580D01*
X122689905Y-109071580D02*
X122737524Y-109119200D01*
X122737524Y-109119200D02*
X122832762Y-109166819D01*
X122832762Y-109166819D02*
X123023238Y-109166819D01*
X123023238Y-109166819D02*
X123118476Y-109119200D01*
X123118476Y-109119200D02*
X123166095Y-109071580D01*
X123166095Y-109071580D02*
X123213714Y-108976342D01*
X123213714Y-108976342D02*
X123213714Y-108738247D01*
X123213714Y-108738247D02*
X123166095Y-108643009D01*
X123166095Y-108643009D02*
X123118476Y-108595390D01*
X123118476Y-108595390D02*
X123023238Y-108547771D01*
X123023238Y-108547771D02*
X122832762Y-108547771D01*
X122832762Y-108547771D02*
X122737524Y-108595390D01*
X122737524Y-108595390D02*
X122689905Y-108643009D01*
X122689905Y-108643009D02*
X122642286Y-108738247D01*
X172542771Y-128676689D02*
X172209438Y-128200498D01*
X171971343Y-128676689D02*
X171971343Y-127676689D01*
X171971343Y-127676689D02*
X172352295Y-127676689D01*
X172352295Y-127676689D02*
X172447533Y-127724308D01*
X172447533Y-127724308D02*
X172495152Y-127771927D01*
X172495152Y-127771927D02*
X172542771Y-127867165D01*
X172542771Y-127867165D02*
X172542771Y-128010022D01*
X172542771Y-128010022D02*
X172495152Y-128105260D01*
X172495152Y-128105260D02*
X172447533Y-128152879D01*
X172447533Y-128152879D02*
X172352295Y-128200498D01*
X172352295Y-128200498D02*
X171971343Y-128200498D01*
X173495152Y-128676689D02*
X172923724Y-128676689D01*
X173209438Y-128676689D02*
X173209438Y-127676689D01*
X173209438Y-127676689D02*
X173114200Y-127819546D01*
X173114200Y-127819546D02*
X173018962Y-127914784D01*
X173018962Y-127914784D02*
X172923724Y-127962403D01*
X134979580Y-115990666D02*
X135027200Y-116038285D01*
X135027200Y-116038285D02*
X135074819Y-116181142D01*
X135074819Y-116181142D02*
X135074819Y-116276380D01*
X135074819Y-116276380D02*
X135027200Y-116419237D01*
X135027200Y-116419237D02*
X134931961Y-116514475D01*
X134931961Y-116514475D02*
X134836723Y-116562094D01*
X134836723Y-116562094D02*
X134646247Y-116609713D01*
X134646247Y-116609713D02*
X134503390Y-116609713D01*
X134503390Y-116609713D02*
X134312914Y-116562094D01*
X134312914Y-116562094D02*
X134217676Y-116514475D01*
X134217676Y-116514475D02*
X134122438Y-116419237D01*
X134122438Y-116419237D02*
X134074819Y-116276380D01*
X134074819Y-116276380D02*
X134074819Y-116181142D01*
X134074819Y-116181142D02*
X134122438Y-116038285D01*
X134122438Y-116038285D02*
X134170057Y-115990666D01*
X134074819Y-115085904D02*
X134074819Y-115562094D01*
X134074819Y-115562094D02*
X134551009Y-115609713D01*
X134551009Y-115609713D02*
X134503390Y-115562094D01*
X134503390Y-115562094D02*
X134455771Y-115466856D01*
X134455771Y-115466856D02*
X134455771Y-115228761D01*
X134455771Y-115228761D02*
X134503390Y-115133523D01*
X134503390Y-115133523D02*
X134551009Y-115085904D01*
X134551009Y-115085904D02*
X134646247Y-115038285D01*
X134646247Y-115038285D02*
X134884342Y-115038285D01*
X134884342Y-115038285D02*
X134979580Y-115085904D01*
X134979580Y-115085904D02*
X135027200Y-115133523D01*
X135027200Y-115133523D02*
X135074819Y-115228761D01*
X135074819Y-115228761D02*
X135074819Y-115466856D01*
X135074819Y-115466856D02*
X135027200Y-115562094D01*
X135027200Y-115562094D02*
X134979580Y-115609713D01*
X110690819Y-101591667D02*
X110214628Y-101925000D01*
X110690819Y-102163095D02*
X109690819Y-102163095D01*
X109690819Y-102163095D02*
X109690819Y-101782143D01*
X109690819Y-101782143D02*
X109738438Y-101686905D01*
X109738438Y-101686905D02*
X109786057Y-101639286D01*
X109786057Y-101639286D02*
X109881295Y-101591667D01*
X109881295Y-101591667D02*
X110024152Y-101591667D01*
X110024152Y-101591667D02*
X110119390Y-101639286D01*
X110119390Y-101639286D02*
X110167009Y-101686905D01*
X110167009Y-101686905D02*
X110214628Y-101782143D01*
X110214628Y-101782143D02*
X110214628Y-102163095D01*
X110690819Y-100734524D02*
X110167009Y-100734524D01*
X110167009Y-100734524D02*
X110071771Y-100782143D01*
X110071771Y-100782143D02*
X110024152Y-100877381D01*
X110024152Y-100877381D02*
X110024152Y-101067857D01*
X110024152Y-101067857D02*
X110071771Y-101163095D01*
X110643200Y-100734524D02*
X110690819Y-100829762D01*
X110690819Y-100829762D02*
X110690819Y-101067857D01*
X110690819Y-101067857D02*
X110643200Y-101163095D01*
X110643200Y-101163095D02*
X110547961Y-101210714D01*
X110547961Y-101210714D02*
X110452723Y-101210714D01*
X110452723Y-101210714D02*
X110357485Y-101163095D01*
X110357485Y-101163095D02*
X110309866Y-101067857D01*
X110309866Y-101067857D02*
X110309866Y-100829762D01*
X110309866Y-100829762D02*
X110262247Y-100734524D01*
X110690819Y-99829762D02*
X109690819Y-99829762D01*
X110643200Y-99829762D02*
X110690819Y-99925000D01*
X110690819Y-99925000D02*
X110690819Y-100115476D01*
X110690819Y-100115476D02*
X110643200Y-100210714D01*
X110643200Y-100210714D02*
X110595580Y-100258333D01*
X110595580Y-100258333D02*
X110500342Y-100305952D01*
X110500342Y-100305952D02*
X110214628Y-100305952D01*
X110214628Y-100305952D02*
X110119390Y-100258333D01*
X110119390Y-100258333D02*
X110071771Y-100210714D01*
X110071771Y-100210714D02*
X110024152Y-100115476D01*
X110024152Y-100115476D02*
X110024152Y-99925000D01*
X110024152Y-99925000D02*
X110071771Y-99829762D01*
X110786057Y-99591667D02*
X110786057Y-98829762D01*
X110167009Y-98258333D02*
X110167009Y-98591666D01*
X110690819Y-98591666D02*
X109690819Y-98591666D01*
X109690819Y-98591666D02*
X109690819Y-98115476D01*
X110690819Y-97305952D02*
X110167009Y-97305952D01*
X110167009Y-97305952D02*
X110071771Y-97353571D01*
X110071771Y-97353571D02*
X110024152Y-97448809D01*
X110024152Y-97448809D02*
X110024152Y-97639285D01*
X110024152Y-97639285D02*
X110071771Y-97734523D01*
X110643200Y-97305952D02*
X110690819Y-97401190D01*
X110690819Y-97401190D02*
X110690819Y-97639285D01*
X110690819Y-97639285D02*
X110643200Y-97734523D01*
X110643200Y-97734523D02*
X110547961Y-97782142D01*
X110547961Y-97782142D02*
X110452723Y-97782142D01*
X110452723Y-97782142D02*
X110357485Y-97734523D01*
X110357485Y-97734523D02*
X110309866Y-97639285D01*
X110309866Y-97639285D02*
X110309866Y-97401190D01*
X110309866Y-97401190D02*
X110262247Y-97305952D01*
X110024152Y-96829761D02*
X110690819Y-96829761D01*
X110119390Y-96829761D02*
X110071771Y-96782142D01*
X110071771Y-96782142D02*
X110024152Y-96686904D01*
X110024152Y-96686904D02*
X110024152Y-96544047D01*
X110024152Y-96544047D02*
X110071771Y-96448809D01*
X110071771Y-96448809D02*
X110167009Y-96401190D01*
X110167009Y-96401190D02*
X110690819Y-96401190D01*
X110786057Y-96163095D02*
X110786057Y-95401190D01*
X110690819Y-94639285D02*
X110690819Y-95210713D01*
X110690819Y-94924999D02*
X109690819Y-94924999D01*
X109690819Y-94924999D02*
X109833676Y-95020237D01*
X109833676Y-95020237D02*
X109928914Y-95115475D01*
X109928914Y-95115475D02*
X109976533Y-95210713D01*
X155654715Y-79607579D02*
X155607096Y-79655199D01*
X155607096Y-79655199D02*
X155464239Y-79702818D01*
X155464239Y-79702818D02*
X155369001Y-79702818D01*
X155369001Y-79702818D02*
X155226144Y-79655199D01*
X155226144Y-79655199D02*
X155130906Y-79559960D01*
X155130906Y-79559960D02*
X155083287Y-79464722D01*
X155083287Y-79464722D02*
X155035668Y-79274246D01*
X155035668Y-79274246D02*
X155035668Y-79131389D01*
X155035668Y-79131389D02*
X155083287Y-78940913D01*
X155083287Y-78940913D02*
X155130906Y-78845675D01*
X155130906Y-78845675D02*
X155226144Y-78750437D01*
X155226144Y-78750437D02*
X155369001Y-78702818D01*
X155369001Y-78702818D02*
X155464239Y-78702818D01*
X155464239Y-78702818D02*
X155607096Y-78750437D01*
X155607096Y-78750437D02*
X155654715Y-78798056D01*
X156607096Y-79702818D02*
X156035668Y-79702818D01*
X156321382Y-79702818D02*
X156321382Y-78702818D01*
X156321382Y-78702818D02*
X156226144Y-78845675D01*
X156226144Y-78845675D02*
X156130906Y-78940913D01*
X156130906Y-78940913D02*
X156035668Y-78988532D01*
X156988049Y-78798056D02*
X157035668Y-78750437D01*
X157035668Y-78750437D02*
X157130906Y-78702818D01*
X157130906Y-78702818D02*
X157369001Y-78702818D01*
X157369001Y-78702818D02*
X157464239Y-78750437D01*
X157464239Y-78750437D02*
X157511858Y-78798056D01*
X157511858Y-78798056D02*
X157559477Y-78893294D01*
X157559477Y-78893294D02*
X157559477Y-78988532D01*
X157559477Y-78988532D02*
X157511858Y-79131389D01*
X157511858Y-79131389D02*
X156940430Y-79702818D01*
X156940430Y-79702818D02*
X157559477Y-79702818D01*
X128078900Y-129953518D02*
X128031281Y-130001138D01*
X128031281Y-130001138D02*
X127888424Y-130048757D01*
X127888424Y-130048757D02*
X127793186Y-130048757D01*
X127793186Y-130048757D02*
X127650329Y-130001138D01*
X127650329Y-130001138D02*
X127555091Y-129905899D01*
X127555091Y-129905899D02*
X127507472Y-129810661D01*
X127507472Y-129810661D02*
X127459853Y-129620185D01*
X127459853Y-129620185D02*
X127459853Y-129477328D01*
X127459853Y-129477328D02*
X127507472Y-129286852D01*
X127507472Y-129286852D02*
X127555091Y-129191614D01*
X127555091Y-129191614D02*
X127650329Y-129096376D01*
X127650329Y-129096376D02*
X127793186Y-129048757D01*
X127793186Y-129048757D02*
X127888424Y-129048757D01*
X127888424Y-129048757D02*
X128031281Y-129096376D01*
X128031281Y-129096376D02*
X128078900Y-129143995D01*
X129031281Y-130048757D02*
X128459853Y-130048757D01*
X128745567Y-130048757D02*
X128745567Y-129048757D01*
X128745567Y-129048757D02*
X128650329Y-129191614D01*
X128650329Y-129191614D02*
X128555091Y-129286852D01*
X128555091Y-129286852D02*
X128459853Y-129334471D01*
X129983662Y-130048757D02*
X129412234Y-130048757D01*
X129697948Y-130048757D02*
X129697948Y-129048757D01*
X129697948Y-129048757D02*
X129602710Y-129191614D01*
X129602710Y-129191614D02*
X129507472Y-129286852D01*
X129507472Y-129286852D02*
X129412234Y-129334471D01*
X160008839Y-88235943D02*
X159913601Y-88188324D01*
X159913601Y-88188324D02*
X159818363Y-88093086D01*
X159818363Y-88093086D02*
X159675506Y-87950228D01*
X159675506Y-87950228D02*
X159580268Y-87902609D01*
X159580268Y-87902609D02*
X159485030Y-87902609D01*
X159532649Y-88140705D02*
X159437411Y-88093086D01*
X159437411Y-88093086D02*
X159342173Y-87997847D01*
X159342173Y-87997847D02*
X159294554Y-87807371D01*
X159294554Y-87807371D02*
X159294554Y-87474038D01*
X159294554Y-87474038D02*
X159342173Y-87283562D01*
X159342173Y-87283562D02*
X159437411Y-87188324D01*
X159437411Y-87188324D02*
X159532649Y-87140705D01*
X159532649Y-87140705D02*
X159723125Y-87140705D01*
X159723125Y-87140705D02*
X159818363Y-87188324D01*
X159818363Y-87188324D02*
X159913601Y-87283562D01*
X159913601Y-87283562D02*
X159961220Y-87474038D01*
X159961220Y-87474038D02*
X159961220Y-87807371D01*
X159961220Y-87807371D02*
X159913601Y-87997847D01*
X159913601Y-87997847D02*
X159818363Y-88093086D01*
X159818363Y-88093086D02*
X159723125Y-88140705D01*
X159723125Y-88140705D02*
X159532649Y-88140705D01*
X160294554Y-87140705D02*
X160913601Y-87140705D01*
X160913601Y-87140705D02*
X160580268Y-87521657D01*
X160580268Y-87521657D02*
X160723125Y-87521657D01*
X160723125Y-87521657D02*
X160818363Y-87569276D01*
X160818363Y-87569276D02*
X160865982Y-87616895D01*
X160865982Y-87616895D02*
X160913601Y-87712133D01*
X160913601Y-87712133D02*
X160913601Y-87950228D01*
X160913601Y-87950228D02*
X160865982Y-88045466D01*
X160865982Y-88045466D02*
X160818363Y-88093086D01*
X160818363Y-88093086D02*
X160723125Y-88140705D01*
X160723125Y-88140705D02*
X160437411Y-88140705D01*
X160437411Y-88140705D02*
X160342173Y-88093086D01*
X160342173Y-88093086D02*
X160294554Y-88045466D01*
X130407580Y-86494857D02*
X130455200Y-86542476D01*
X130455200Y-86542476D02*
X130502819Y-86685333D01*
X130502819Y-86685333D02*
X130502819Y-86780571D01*
X130502819Y-86780571D02*
X130455200Y-86923428D01*
X130455200Y-86923428D02*
X130359961Y-87018666D01*
X130359961Y-87018666D02*
X130264723Y-87066285D01*
X130264723Y-87066285D02*
X130074247Y-87113904D01*
X130074247Y-87113904D02*
X129931390Y-87113904D01*
X129931390Y-87113904D02*
X129740914Y-87066285D01*
X129740914Y-87066285D02*
X129645676Y-87018666D01*
X129645676Y-87018666D02*
X129550438Y-86923428D01*
X129550438Y-86923428D02*
X129502819Y-86780571D01*
X129502819Y-86780571D02*
X129502819Y-86685333D01*
X129502819Y-86685333D02*
X129550438Y-86542476D01*
X129550438Y-86542476D02*
X129598057Y-86494857D01*
X130502819Y-85542476D02*
X130502819Y-86113904D01*
X130502819Y-85828190D02*
X129502819Y-85828190D01*
X129502819Y-85828190D02*
X129645676Y-85923428D01*
X129645676Y-85923428D02*
X129740914Y-86018666D01*
X129740914Y-86018666D02*
X129788533Y-86113904D01*
X129502819Y-85209142D02*
X129502819Y-84590095D01*
X129502819Y-84590095D02*
X129883771Y-84923428D01*
X129883771Y-84923428D02*
X129883771Y-84780571D01*
X129883771Y-84780571D02*
X129931390Y-84685333D01*
X129931390Y-84685333D02*
X129979009Y-84637714D01*
X129979009Y-84637714D02*
X130074247Y-84590095D01*
X130074247Y-84590095D02*
X130312342Y-84590095D01*
X130312342Y-84590095D02*
X130407580Y-84637714D01*
X130407580Y-84637714D02*
X130455200Y-84685333D01*
X130455200Y-84685333D02*
X130502819Y-84780571D01*
X130502819Y-84780571D02*
X130502819Y-85066285D01*
X130502819Y-85066285D02*
X130455200Y-85161523D01*
X130455200Y-85161523D02*
X130407580Y-85209142D01*
X134979580Y-96686666D02*
X135027200Y-96734285D01*
X135027200Y-96734285D02*
X135074819Y-96877142D01*
X135074819Y-96877142D02*
X135074819Y-96972380D01*
X135074819Y-96972380D02*
X135027200Y-97115237D01*
X135027200Y-97115237D02*
X134931961Y-97210475D01*
X134931961Y-97210475D02*
X134836723Y-97258094D01*
X134836723Y-97258094D02*
X134646247Y-97305713D01*
X134646247Y-97305713D02*
X134503390Y-97305713D01*
X134503390Y-97305713D02*
X134312914Y-97258094D01*
X134312914Y-97258094D02*
X134217676Y-97210475D01*
X134217676Y-97210475D02*
X134122438Y-97115237D01*
X134122438Y-97115237D02*
X134074819Y-96972380D01*
X134074819Y-96972380D02*
X134074819Y-96877142D01*
X134074819Y-96877142D02*
X134122438Y-96734285D01*
X134122438Y-96734285D02*
X134170057Y-96686666D01*
X134503390Y-96115237D02*
X134455771Y-96210475D01*
X134455771Y-96210475D02*
X134408152Y-96258094D01*
X134408152Y-96258094D02*
X134312914Y-96305713D01*
X134312914Y-96305713D02*
X134265295Y-96305713D01*
X134265295Y-96305713D02*
X134170057Y-96258094D01*
X134170057Y-96258094D02*
X134122438Y-96210475D01*
X134122438Y-96210475D02*
X134074819Y-96115237D01*
X134074819Y-96115237D02*
X134074819Y-95924761D01*
X134074819Y-95924761D02*
X134122438Y-95829523D01*
X134122438Y-95829523D02*
X134170057Y-95781904D01*
X134170057Y-95781904D02*
X134265295Y-95734285D01*
X134265295Y-95734285D02*
X134312914Y-95734285D01*
X134312914Y-95734285D02*
X134408152Y-95781904D01*
X134408152Y-95781904D02*
X134455771Y-95829523D01*
X134455771Y-95829523D02*
X134503390Y-95924761D01*
X134503390Y-95924761D02*
X134503390Y-96115237D01*
X134503390Y-96115237D02*
X134551009Y-96210475D01*
X134551009Y-96210475D02*
X134598628Y-96258094D01*
X134598628Y-96258094D02*
X134693866Y-96305713D01*
X134693866Y-96305713D02*
X134884342Y-96305713D01*
X134884342Y-96305713D02*
X134979580Y-96258094D01*
X134979580Y-96258094D02*
X135027200Y-96210475D01*
X135027200Y-96210475D02*
X135074819Y-96115237D01*
X135074819Y-96115237D02*
X135074819Y-95924761D01*
X135074819Y-95924761D02*
X135027200Y-95829523D01*
X135027200Y-95829523D02*
X134979580Y-95781904D01*
X134979580Y-95781904D02*
X134884342Y-95734285D01*
X134884342Y-95734285D02*
X134693866Y-95734285D01*
X134693866Y-95734285D02*
X134598628Y-95781904D01*
X134598628Y-95781904D02*
X134551009Y-95829523D01*
X134551009Y-95829523D02*
X134503390Y-95924761D01*
X121181905Y-128814819D02*
X121181905Y-127814819D01*
X121181905Y-127814819D02*
X121420000Y-127814819D01*
X121420000Y-127814819D02*
X121562857Y-127862438D01*
X121562857Y-127862438D02*
X121658095Y-127957676D01*
X121658095Y-127957676D02*
X121705714Y-128052914D01*
X121705714Y-128052914D02*
X121753333Y-128243390D01*
X121753333Y-128243390D02*
X121753333Y-128386247D01*
X121753333Y-128386247D02*
X121705714Y-128576723D01*
X121705714Y-128576723D02*
X121658095Y-128671961D01*
X121658095Y-128671961D02*
X121562857Y-128767200D01*
X121562857Y-128767200D02*
X121420000Y-128814819D01*
X121420000Y-128814819D02*
X121181905Y-128814819D01*
X122705714Y-128814819D02*
X122134286Y-128814819D01*
X122420000Y-128814819D02*
X122420000Y-127814819D01*
X122420000Y-127814819D02*
X122324762Y-127957676D01*
X122324762Y-127957676D02*
X122229524Y-128052914D01*
X122229524Y-128052914D02*
X122134286Y-128100533D01*
X114038095Y-129934819D02*
X114038095Y-128934819D01*
X114609523Y-129934819D02*
X114180952Y-129363390D01*
X114609523Y-128934819D02*
X114038095Y-129506247D01*
X172571873Y-126594360D02*
X172238540Y-126118169D01*
X172000445Y-126594360D02*
X172000445Y-125594360D01*
X172000445Y-125594360D02*
X172381397Y-125594360D01*
X172381397Y-125594360D02*
X172476635Y-125641979D01*
X172476635Y-125641979D02*
X172524254Y-125689598D01*
X172524254Y-125689598D02*
X172571873Y-125784836D01*
X172571873Y-125784836D02*
X172571873Y-125927693D01*
X172571873Y-125927693D02*
X172524254Y-126022931D01*
X172524254Y-126022931D02*
X172476635Y-126070550D01*
X172476635Y-126070550D02*
X172381397Y-126118169D01*
X172381397Y-126118169D02*
X172000445Y-126118169D01*
X172952826Y-125689598D02*
X173000445Y-125641979D01*
X173000445Y-125641979D02*
X173095683Y-125594360D01*
X173095683Y-125594360D02*
X173333778Y-125594360D01*
X173333778Y-125594360D02*
X173429016Y-125641979D01*
X173429016Y-125641979D02*
X173476635Y-125689598D01*
X173476635Y-125689598D02*
X173524254Y-125784836D01*
X173524254Y-125784836D02*
X173524254Y-125880074D01*
X173524254Y-125880074D02*
X173476635Y-126022931D01*
X173476635Y-126022931D02*
X172905207Y-126594360D01*
X172905207Y-126594360D02*
X173524254Y-126594360D01*
X139962855Y-133281009D02*
X139629522Y-133281009D01*
X139629522Y-133804819D02*
X139629522Y-132804819D01*
X139629522Y-132804819D02*
X140105712Y-132804819D01*
X140867617Y-133757200D02*
X140772379Y-133804819D01*
X140772379Y-133804819D02*
X140581903Y-133804819D01*
X140581903Y-133804819D02*
X140486665Y-133757200D01*
X140486665Y-133757200D02*
X140439046Y-133661961D01*
X140439046Y-133661961D02*
X140439046Y-133281009D01*
X140439046Y-133281009D02*
X140486665Y-133185771D01*
X140486665Y-133185771D02*
X140581903Y-133138152D01*
X140581903Y-133138152D02*
X140772379Y-133138152D01*
X140772379Y-133138152D02*
X140867617Y-133185771D01*
X140867617Y-133185771D02*
X140915236Y-133281009D01*
X140915236Y-133281009D02*
X140915236Y-133376247D01*
X140915236Y-133376247D02*
X140439046Y-133471485D01*
X141772379Y-133804819D02*
X141772379Y-133281009D01*
X141772379Y-133281009D02*
X141724760Y-133185771D01*
X141724760Y-133185771D02*
X141629522Y-133138152D01*
X141629522Y-133138152D02*
X141439046Y-133138152D01*
X141439046Y-133138152D02*
X141343808Y-133185771D01*
X141772379Y-133757200D02*
X141677141Y-133804819D01*
X141677141Y-133804819D02*
X141439046Y-133804819D01*
X141439046Y-133804819D02*
X141343808Y-133757200D01*
X141343808Y-133757200D02*
X141296189Y-133661961D01*
X141296189Y-133661961D02*
X141296189Y-133566723D01*
X141296189Y-133566723D02*
X141343808Y-133471485D01*
X141343808Y-133471485D02*
X141439046Y-133423866D01*
X141439046Y-133423866D02*
X141677141Y-133423866D01*
X141677141Y-133423866D02*
X141772379Y-133376247D01*
X142105713Y-133138152D02*
X142486665Y-133138152D01*
X142248570Y-132804819D02*
X142248570Y-133661961D01*
X142248570Y-133661961D02*
X142296189Y-133757200D01*
X142296189Y-133757200D02*
X142391427Y-133804819D01*
X142391427Y-133804819D02*
X142486665Y-133804819D01*
X142819999Y-133804819D02*
X142819999Y-132804819D01*
X143248570Y-133804819D02*
X143248570Y-133281009D01*
X143248570Y-133281009D02*
X143200951Y-133185771D01*
X143200951Y-133185771D02*
X143105713Y-133138152D01*
X143105713Y-133138152D02*
X142962856Y-133138152D01*
X142962856Y-133138152D02*
X142867618Y-133185771D01*
X142867618Y-133185771D02*
X142819999Y-133233390D01*
X144105713Y-133757200D02*
X144010475Y-133804819D01*
X144010475Y-133804819D02*
X143819999Y-133804819D01*
X143819999Y-133804819D02*
X143724761Y-133757200D01*
X143724761Y-133757200D02*
X143677142Y-133661961D01*
X143677142Y-133661961D02*
X143677142Y-133281009D01*
X143677142Y-133281009D02*
X143724761Y-133185771D01*
X143724761Y-133185771D02*
X143819999Y-133138152D01*
X143819999Y-133138152D02*
X144010475Y-133138152D01*
X144010475Y-133138152D02*
X144105713Y-133185771D01*
X144105713Y-133185771D02*
X144153332Y-133281009D01*
X144153332Y-133281009D02*
X144153332Y-133376247D01*
X144153332Y-133376247D02*
X143677142Y-133471485D01*
X144581904Y-133804819D02*
X144581904Y-133138152D01*
X144581904Y-133328628D02*
X144629523Y-133233390D01*
X144629523Y-133233390D02*
X144677142Y-133185771D01*
X144677142Y-133185771D02*
X144772380Y-133138152D01*
X144772380Y-133138152D02*
X144867618Y-133138152D01*
X144962857Y-133900057D02*
X145724761Y-133900057D01*
X145962857Y-133804819D02*
X145962857Y-132804819D01*
X145962857Y-132804819D02*
X146296190Y-133519104D01*
X146296190Y-133519104D02*
X146629523Y-132804819D01*
X146629523Y-132804819D02*
X146629523Y-133804819D01*
X147534285Y-133138152D02*
X147534285Y-133804819D01*
X147296190Y-132757200D02*
X147058095Y-133471485D01*
X147058095Y-133471485D02*
X147677142Y-133471485D01*
X147820000Y-133900057D02*
X148581904Y-133900057D01*
X148820000Y-133281009D02*
X149153333Y-133281009D01*
X149296190Y-133804819D02*
X148820000Y-133804819D01*
X148820000Y-133804819D02*
X148820000Y-132804819D01*
X148820000Y-132804819D02*
X149296190Y-132804819D01*
X149629524Y-133804819D02*
X150153333Y-133138152D01*
X149629524Y-133138152D02*
X150153333Y-133804819D01*
X150534286Y-133138152D02*
X150534286Y-134138152D01*
X150534286Y-133185771D02*
X150629524Y-133138152D01*
X150629524Y-133138152D02*
X150820000Y-133138152D01*
X150820000Y-133138152D02*
X150915238Y-133185771D01*
X150915238Y-133185771D02*
X150962857Y-133233390D01*
X150962857Y-133233390D02*
X151010476Y-133328628D01*
X151010476Y-133328628D02*
X151010476Y-133614342D01*
X151010476Y-133614342D02*
X150962857Y-133709580D01*
X150962857Y-133709580D02*
X150915238Y-133757200D01*
X150915238Y-133757200D02*
X150820000Y-133804819D01*
X150820000Y-133804819D02*
X150629524Y-133804819D01*
X150629524Y-133804819D02*
X150534286Y-133757200D01*
X151439048Y-133804819D02*
X151439048Y-133138152D01*
X151439048Y-133328628D02*
X151486667Y-133233390D01*
X151486667Y-133233390D02*
X151534286Y-133185771D01*
X151534286Y-133185771D02*
X151629524Y-133138152D01*
X151629524Y-133138152D02*
X151724762Y-133138152D01*
X152439048Y-133757200D02*
X152343810Y-133804819D01*
X152343810Y-133804819D02*
X152153334Y-133804819D01*
X152153334Y-133804819D02*
X152058096Y-133757200D01*
X152058096Y-133757200D02*
X152010477Y-133661961D01*
X152010477Y-133661961D02*
X152010477Y-133281009D01*
X152010477Y-133281009D02*
X152058096Y-133185771D01*
X152058096Y-133185771D02*
X152153334Y-133138152D01*
X152153334Y-133138152D02*
X152343810Y-133138152D01*
X152343810Y-133138152D02*
X152439048Y-133185771D01*
X152439048Y-133185771D02*
X152486667Y-133281009D01*
X152486667Y-133281009D02*
X152486667Y-133376247D01*
X152486667Y-133376247D02*
X152010477Y-133471485D01*
X152867620Y-133757200D02*
X152962858Y-133804819D01*
X152962858Y-133804819D02*
X153153334Y-133804819D01*
X153153334Y-133804819D02*
X153248572Y-133757200D01*
X153248572Y-133757200D02*
X153296191Y-133661961D01*
X153296191Y-133661961D02*
X153296191Y-133614342D01*
X153296191Y-133614342D02*
X153248572Y-133519104D01*
X153248572Y-133519104D02*
X153153334Y-133471485D01*
X153153334Y-133471485D02*
X153010477Y-133471485D01*
X153010477Y-133471485D02*
X152915239Y-133423866D01*
X152915239Y-133423866D02*
X152867620Y-133328628D01*
X152867620Y-133328628D02*
X152867620Y-133281009D01*
X152867620Y-133281009D02*
X152915239Y-133185771D01*
X152915239Y-133185771D02*
X153010477Y-133138152D01*
X153010477Y-133138152D02*
X153153334Y-133138152D01*
X153153334Y-133138152D02*
X153248572Y-133185771D01*
X153677144Y-133757200D02*
X153772382Y-133804819D01*
X153772382Y-133804819D02*
X153962858Y-133804819D01*
X153962858Y-133804819D02*
X154058096Y-133757200D01*
X154058096Y-133757200D02*
X154105715Y-133661961D01*
X154105715Y-133661961D02*
X154105715Y-133614342D01*
X154105715Y-133614342D02*
X154058096Y-133519104D01*
X154058096Y-133519104D02*
X153962858Y-133471485D01*
X153962858Y-133471485D02*
X153820001Y-133471485D01*
X153820001Y-133471485D02*
X153724763Y-133423866D01*
X153724763Y-133423866D02*
X153677144Y-133328628D01*
X153677144Y-133328628D02*
X153677144Y-133281009D01*
X153677144Y-133281009D02*
X153724763Y-133185771D01*
X153724763Y-133185771D02*
X153820001Y-133138152D01*
X153820001Y-133138152D02*
X153962858Y-133138152D01*
X153962858Y-133138152D02*
X154058096Y-133185771D01*
X155058096Y-133804819D02*
X154486668Y-133804819D01*
X154772382Y-133804819D02*
X154772382Y-132804819D01*
X154772382Y-132804819D02*
X154677144Y-132947676D01*
X154677144Y-132947676D02*
X154581906Y-133042914D01*
X154581906Y-133042914D02*
X154486668Y-133090533D01*
X174392081Y-114681619D02*
X174344462Y-114729239D01*
X174344462Y-114729239D02*
X174201605Y-114776858D01*
X174201605Y-114776858D02*
X174106367Y-114776858D01*
X174106367Y-114776858D02*
X173963510Y-114729239D01*
X173963510Y-114729239D02*
X173868272Y-114634000D01*
X173868272Y-114634000D02*
X173820653Y-114538762D01*
X173820653Y-114538762D02*
X173773034Y-114348286D01*
X173773034Y-114348286D02*
X173773034Y-114205429D01*
X173773034Y-114205429D02*
X173820653Y-114014953D01*
X173820653Y-114014953D02*
X173868272Y-113919715D01*
X173868272Y-113919715D02*
X173963510Y-113824477D01*
X173963510Y-113824477D02*
X174106367Y-113776858D01*
X174106367Y-113776858D02*
X174201605Y-113776858D01*
X174201605Y-113776858D02*
X174344462Y-113824477D01*
X174344462Y-113824477D02*
X174392081Y-113872096D01*
X175344462Y-114776858D02*
X174773034Y-114776858D01*
X175058748Y-114776858D02*
X175058748Y-113776858D01*
X175058748Y-113776858D02*
X174963510Y-113919715D01*
X174963510Y-113919715D02*
X174868272Y-114014953D01*
X174868272Y-114014953D02*
X174773034Y-114062572D01*
X175677796Y-113776858D02*
X176344462Y-113776858D01*
X176344462Y-113776858D02*
X175915891Y-114776858D01*
D12*
X136400265Y-84443300D02*
X136543122Y-84490919D01*
X136543122Y-84490919D02*
X136781217Y-84490919D01*
X136781217Y-84490919D02*
X136876455Y-84443300D01*
X136876455Y-84443300D02*
X136924074Y-84395680D01*
X136924074Y-84395680D02*
X136971693Y-84300442D01*
X136971693Y-84300442D02*
X136971693Y-84205204D01*
X136971693Y-84205204D02*
X136924074Y-84109966D01*
X136924074Y-84109966D02*
X136876455Y-84062347D01*
X136876455Y-84062347D02*
X136781217Y-84014728D01*
X136781217Y-84014728D02*
X136590741Y-83967109D01*
X136590741Y-83967109D02*
X136495503Y-83919490D01*
X136495503Y-83919490D02*
X136447884Y-83871871D01*
X136447884Y-83871871D02*
X136400265Y-83776633D01*
X136400265Y-83776633D02*
X136400265Y-83681395D01*
X136400265Y-83681395D02*
X136447884Y-83586157D01*
X136447884Y-83586157D02*
X136495503Y-83538538D01*
X136495503Y-83538538D02*
X136590741Y-83490919D01*
X136590741Y-83490919D02*
X136828836Y-83490919D01*
X136828836Y-83490919D02*
X136971693Y-83538538D01*
X137400265Y-84490919D02*
X137400265Y-83490919D01*
X137400265Y-83490919D02*
X137781217Y-83490919D01*
X137781217Y-83490919D02*
X137876455Y-83538538D01*
X137876455Y-83538538D02*
X137924074Y-83586157D01*
X137924074Y-83586157D02*
X137971693Y-83681395D01*
X137971693Y-83681395D02*
X137971693Y-83824252D01*
X137971693Y-83824252D02*
X137924074Y-83919490D01*
X137924074Y-83919490D02*
X137876455Y-83967109D01*
X137876455Y-83967109D02*
X137781217Y-84014728D01*
X137781217Y-84014728D02*
X137400265Y-84014728D01*
X138733598Y-83967109D02*
X138876455Y-84014728D01*
X138876455Y-84014728D02*
X138924074Y-84062347D01*
X138924074Y-84062347D02*
X138971693Y-84157585D01*
X138971693Y-84157585D02*
X138971693Y-84300442D01*
X138971693Y-84300442D02*
X138924074Y-84395680D01*
X138924074Y-84395680D02*
X138876455Y-84443300D01*
X138876455Y-84443300D02*
X138781217Y-84490919D01*
X138781217Y-84490919D02*
X138400265Y-84490919D01*
X138400265Y-84490919D02*
X138400265Y-83490919D01*
X138400265Y-83490919D02*
X138733598Y-83490919D01*
X138733598Y-83490919D02*
X138828836Y-83538538D01*
X138828836Y-83538538D02*
X138876455Y-83586157D01*
X138876455Y-83586157D02*
X138924074Y-83681395D01*
X138924074Y-83681395D02*
X138924074Y-83776633D01*
X138924074Y-83776633D02*
X138876455Y-83871871D01*
X138876455Y-83871871D02*
X138828836Y-83919490D01*
X138828836Y-83919490D02*
X138733598Y-83967109D01*
X138733598Y-83967109D02*
X138400265Y-83967109D01*
X139590741Y-83490919D02*
X139685979Y-83490919D01*
X139685979Y-83490919D02*
X139781217Y-83538538D01*
X139781217Y-83538538D02*
X139828836Y-83586157D01*
X139828836Y-83586157D02*
X139876455Y-83681395D01*
X139876455Y-83681395D02*
X139924074Y-83871871D01*
X139924074Y-83871871D02*
X139924074Y-84109966D01*
X139924074Y-84109966D02*
X139876455Y-84300442D01*
X139876455Y-84300442D02*
X139828836Y-84395680D01*
X139828836Y-84395680D02*
X139781217Y-84443300D01*
X139781217Y-84443300D02*
X139685979Y-84490919D01*
X139685979Y-84490919D02*
X139590741Y-84490919D01*
X139590741Y-84490919D02*
X139495503Y-84443300D01*
X139495503Y-84443300D02*
X139447884Y-84395680D01*
X139447884Y-84395680D02*
X139400265Y-84300442D01*
X139400265Y-84300442D02*
X139352646Y-84109966D01*
X139352646Y-84109966D02*
X139352646Y-83871871D01*
X139352646Y-83871871D02*
X139400265Y-83681395D01*
X139400265Y-83681395D02*
X139447884Y-83586157D01*
X139447884Y-83586157D02*
X139495503Y-83538538D01*
X139495503Y-83538538D02*
X139590741Y-83490919D01*
X140400265Y-84490919D02*
X140590741Y-84490919D01*
X140590741Y-84490919D02*
X140685979Y-84443300D01*
X140685979Y-84443300D02*
X140733598Y-84395680D01*
X140733598Y-84395680D02*
X140828836Y-84252823D01*
X140828836Y-84252823D02*
X140876455Y-84062347D01*
X140876455Y-84062347D02*
X140876455Y-83681395D01*
X140876455Y-83681395D02*
X140828836Y-83586157D01*
X140828836Y-83586157D02*
X140781217Y-83538538D01*
X140781217Y-83538538D02*
X140685979Y-83490919D01*
X140685979Y-83490919D02*
X140495503Y-83490919D01*
X140495503Y-83490919D02*
X140400265Y-83538538D01*
X140400265Y-83538538D02*
X140352646Y-83586157D01*
X140352646Y-83586157D02*
X140305027Y-83681395D01*
X140305027Y-83681395D02*
X140305027Y-83919490D01*
X140305027Y-83919490D02*
X140352646Y-84014728D01*
X140352646Y-84014728D02*
X140400265Y-84062347D01*
X140400265Y-84062347D02*
X140495503Y-84109966D01*
X140495503Y-84109966D02*
X140685979Y-84109966D01*
X140685979Y-84109966D02*
X140781217Y-84062347D01*
X140781217Y-84062347D02*
X140828836Y-84014728D01*
X140828836Y-84014728D02*
X140876455Y-83919490D01*
X141209789Y-83490919D02*
X141447884Y-84490919D01*
X141447884Y-84490919D02*
X141638360Y-83776633D01*
X141638360Y-83776633D02*
X141828836Y-84490919D01*
X141828836Y-84490919D02*
X142066932Y-83490919D01*
X142590741Y-83919490D02*
X142495503Y-83871871D01*
X142495503Y-83871871D02*
X142447884Y-83824252D01*
X142447884Y-83824252D02*
X142400265Y-83729014D01*
X142400265Y-83729014D02*
X142400265Y-83681395D01*
X142400265Y-83681395D02*
X142447884Y-83586157D01*
X142447884Y-83586157D02*
X142495503Y-83538538D01*
X142495503Y-83538538D02*
X142590741Y-83490919D01*
X142590741Y-83490919D02*
X142781217Y-83490919D01*
X142781217Y-83490919D02*
X142876455Y-83538538D01*
X142876455Y-83538538D02*
X142924074Y-83586157D01*
X142924074Y-83586157D02*
X142971693Y-83681395D01*
X142971693Y-83681395D02*
X142971693Y-83729014D01*
X142971693Y-83729014D02*
X142924074Y-83824252D01*
X142924074Y-83824252D02*
X142876455Y-83871871D01*
X142876455Y-83871871D02*
X142781217Y-83919490D01*
X142781217Y-83919490D02*
X142590741Y-83919490D01*
X142590741Y-83919490D02*
X142495503Y-83967109D01*
X142495503Y-83967109D02*
X142447884Y-84014728D01*
X142447884Y-84014728D02*
X142400265Y-84109966D01*
X142400265Y-84109966D02*
X142400265Y-84300442D01*
X142400265Y-84300442D02*
X142447884Y-84395680D01*
X142447884Y-84395680D02*
X142495503Y-84443300D01*
X142495503Y-84443300D02*
X142590741Y-84490919D01*
X142590741Y-84490919D02*
X142781217Y-84490919D01*
X142781217Y-84490919D02*
X142876455Y-84443300D01*
X142876455Y-84443300D02*
X142924074Y-84395680D01*
X142924074Y-84395680D02*
X142971693Y-84300442D01*
X142971693Y-84300442D02*
X142971693Y-84109966D01*
X142971693Y-84109966D02*
X142924074Y-84014728D01*
X142924074Y-84014728D02*
X142876455Y-83967109D01*
X142876455Y-83967109D02*
X142781217Y-83919490D01*
X143400265Y-84109966D02*
X144162170Y-84109966D01*
X144828836Y-83490919D02*
X144924074Y-83490919D01*
X144924074Y-83490919D02*
X145019312Y-83538538D01*
X145019312Y-83538538D02*
X145066931Y-83586157D01*
X145066931Y-83586157D02*
X145114550Y-83681395D01*
X145114550Y-83681395D02*
X145162169Y-83871871D01*
X145162169Y-83871871D02*
X145162169Y-84109966D01*
X145162169Y-84109966D02*
X145114550Y-84300442D01*
X145114550Y-84300442D02*
X145066931Y-84395680D01*
X145066931Y-84395680D02*
X145019312Y-84443300D01*
X145019312Y-84443300D02*
X144924074Y-84490919D01*
X144924074Y-84490919D02*
X144828836Y-84490919D01*
X144828836Y-84490919D02*
X144733598Y-84443300D01*
X144733598Y-84443300D02*
X144685979Y-84395680D01*
X144685979Y-84395680D02*
X144638360Y-84300442D01*
X144638360Y-84300442D02*
X144590741Y-84109966D01*
X144590741Y-84109966D02*
X144590741Y-83871871D01*
X144590741Y-83871871D02*
X144638360Y-83681395D01*
X144638360Y-83681395D02*
X144685979Y-83586157D01*
X144685979Y-83586157D02*
X144733598Y-83538538D01*
X144733598Y-83538538D02*
X144828836Y-83490919D01*
X146066931Y-83490919D02*
X145590741Y-83490919D01*
X145590741Y-83490919D02*
X145543122Y-83967109D01*
X145543122Y-83967109D02*
X145590741Y-83919490D01*
X145590741Y-83919490D02*
X145685979Y-83871871D01*
X145685979Y-83871871D02*
X145924074Y-83871871D01*
X145924074Y-83871871D02*
X146019312Y-83919490D01*
X146019312Y-83919490D02*
X146066931Y-83967109D01*
X146066931Y-83967109D02*
X146114550Y-84062347D01*
X146114550Y-84062347D02*
X146114550Y-84300442D01*
X146114550Y-84300442D02*
X146066931Y-84395680D01*
X146066931Y-84395680D02*
X146019312Y-84443300D01*
X146019312Y-84443300D02*
X145924074Y-84490919D01*
X145924074Y-84490919D02*
X145685979Y-84490919D01*
X145685979Y-84490919D02*
X145590741Y-84443300D01*
X145590741Y-84443300D02*
X145543122Y-84395680D01*
D13*
%TO.C,C14*%
X168597252Y-74703000D02*
X168074748Y-74703000D01*
X168597252Y-76173000D02*
X168074748Y-76173000D01*
%TO.C,R9*%
X165007064Y-76173000D02*
X164552936Y-76173000D01*
X165007064Y-74703000D02*
X164552936Y-74703000D01*
%TO.C,C16*%
X160962748Y-76173000D02*
X161485252Y-76173000D01*
X160962748Y-74703000D02*
X161485252Y-74703000D01*
%TO.C,R10*%
X156165461Y-83085000D02*
X156619589Y-83085000D01*
X156165461Y-84555000D02*
X156619589Y-84555000D01*
%TO.C,Encoder1*%
X159870000Y-98850000D02*
X159870000Y-100100000D01*
X160160000Y-99140000D02*
X160160000Y-105110000D01*
X160160000Y-105110000D02*
X175280000Y-105110000D01*
X160170000Y-99150000D02*
X160170000Y-99900000D01*
X160170000Y-99900000D02*
X161970000Y-99900000D01*
X160170000Y-101400000D02*
X160920000Y-101400000D01*
X160920000Y-101400000D02*
X160920000Y-104350000D01*
X160920000Y-104350000D02*
X167720000Y-104350000D01*
X161120000Y-98850000D02*
X159870000Y-98850000D01*
X161970000Y-99150000D02*
X160170000Y-99150000D01*
X161970000Y-99900000D02*
X161970000Y-99150000D01*
X163470000Y-99150000D02*
X163470000Y-99900000D01*
X163470000Y-99900000D02*
X171970000Y-99900000D01*
X171970000Y-99150000D02*
X163470000Y-99150000D01*
X171970000Y-99900000D02*
X171970000Y-99150000D01*
X173470000Y-99150000D02*
X173470000Y-99900000D01*
X173470000Y-99900000D02*
X175270000Y-99900000D01*
X174520000Y-101400000D02*
X174520000Y-104350000D01*
X174520000Y-104350000D02*
X167720000Y-104350000D01*
X175270000Y-99150000D02*
X173470000Y-99150000D01*
X175270000Y-99900000D02*
X175270000Y-99150000D01*
X175270000Y-101400000D02*
X174520000Y-101400000D01*
X175280000Y-99140000D02*
X160160000Y-99140000D01*
X175280000Y-105110000D02*
X175280000Y-99140000D01*
%TO.C,Switch1*%
X159830000Y-114090000D02*
X159830000Y-115340000D01*
X160120000Y-114380000D02*
X160120000Y-120350000D01*
X160120000Y-120350000D02*
X172740000Y-120350000D01*
X160130000Y-114390000D02*
X160130000Y-115140000D01*
X160130000Y-115140000D02*
X161930000Y-115140000D01*
X160130000Y-116640000D02*
X160880000Y-116640000D01*
X160880000Y-116640000D02*
X160880000Y-119590000D01*
X160880000Y-119590000D02*
X166430000Y-119590000D01*
X161080000Y-114090000D02*
X159830000Y-114090000D01*
X161930000Y-114390000D02*
X160130000Y-114390000D01*
X161930000Y-115140000D02*
X161930000Y-114390000D01*
X163430000Y-114390000D02*
X163430000Y-115140000D01*
X163430000Y-115140000D02*
X169430000Y-115140000D01*
X169430000Y-114390000D02*
X163430000Y-114390000D01*
X169430000Y-115140000D02*
X169430000Y-114390000D01*
X170930000Y-114390000D02*
X170930000Y-115140000D01*
X170930000Y-115140000D02*
X172730000Y-115140000D01*
X171980000Y-116640000D02*
X171980000Y-119590000D01*
X171980000Y-119590000D02*
X166430000Y-119590000D01*
X172730000Y-114390000D02*
X170930000Y-114390000D01*
X172730000Y-115140000D02*
X172730000Y-114390000D01*
X172730000Y-116640000D02*
X171980000Y-116640000D01*
X172740000Y-114380000D02*
X160120000Y-114380000D01*
X172740000Y-120350000D02*
X172740000Y-114380000D01*
%TO.C,U7*%
X160840222Y-76595000D02*
X167680222Y-76595000D01*
X160840222Y-76885000D02*
X160840222Y-76595000D01*
X160840222Y-85965000D02*
X160840222Y-85675000D01*
X167680222Y-76595000D02*
X167680222Y-76885000D01*
X167680222Y-85675000D02*
X167680222Y-85965000D01*
X167680222Y-85965000D02*
X160840222Y-85965000D01*
X160070222Y-78530000D02*
X159390222Y-78530000D01*
X159730222Y-78060000D01*
X160070222Y-78530000D01*
G36*
X160070222Y-78530000D02*
G01*
X159390222Y-78530000D01*
X159730222Y-78060000D01*
X160070222Y-78530000D01*
G37*
%TO.C,C19*%
X166555686Y-94770642D02*
X167078190Y-94770642D01*
X166555686Y-96240642D02*
X167078190Y-96240642D01*
%TO.C,R5*%
X123671064Y-115597000D02*
X123216936Y-115597000D01*
X123671064Y-117067000D02*
X123216936Y-117067000D01*
%TO.C,Rad_Fan_3*%
X103650000Y-104665000D02*
X103650000Y-115045000D01*
X103650000Y-106845000D02*
X104250000Y-106845000D01*
X103650000Y-109385000D02*
X104250000Y-109385000D01*
X103650000Y-111925000D02*
X104250000Y-111925000D01*
X103650000Y-114465000D02*
X104250000Y-114465000D01*
X103650000Y-115045000D02*
X109670000Y-115045000D01*
X104250000Y-105245000D02*
X103650000Y-105245000D01*
X104250000Y-106845000D02*
X104250000Y-105245000D01*
X104250000Y-107785000D02*
X103650000Y-107785000D01*
X104250000Y-109385000D02*
X104250000Y-107785000D01*
X104250000Y-110325000D02*
X103650000Y-110325000D01*
X104250000Y-111925000D02*
X104250000Y-110325000D01*
X104250000Y-112865000D02*
X103650000Y-112865000D01*
X104250000Y-114465000D02*
X104250000Y-112865000D01*
X104680000Y-115335000D02*
X108680000Y-115335000D01*
X108140000Y-106295000D02*
X108670000Y-106045000D01*
X108140000Y-113415000D02*
X108140000Y-106295000D01*
X108670000Y-106045000D02*
X109670000Y-106045000D01*
X108670000Y-113665000D02*
X108140000Y-113415000D01*
X108670000Y-113665000D02*
X108670000Y-106045000D01*
X109670000Y-104665000D02*
X103650000Y-104665000D01*
X109670000Y-106295000D02*
X108670000Y-106295000D01*
X109670000Y-113415000D02*
X108670000Y-113415000D01*
X109670000Y-113665000D02*
X108670000Y-113665000D01*
X109670000Y-115045000D02*
X109670000Y-104665000D01*
%TO.C,U6*%
X127480000Y-110470000D02*
X131600000Y-110470000D01*
X127480000Y-110565000D02*
X127480000Y-110470000D01*
X127480000Y-115590000D02*
X127480000Y-115495000D01*
X131600000Y-110470000D02*
X131600000Y-110565000D01*
X131600000Y-115495000D02*
X131600000Y-115590000D01*
X131600000Y-115590000D02*
X127480000Y-115590000D01*
X132380000Y-115830000D02*
X131900000Y-115830000D01*
X132140000Y-115500000D01*
X132380000Y-115830000D01*
G36*
X132380000Y-115830000D02*
G01*
X131900000Y-115830000D01*
X132140000Y-115500000D01*
X132380000Y-115830000D01*
G37*
%TO.C,C3*%
X123725000Y-100591252D02*
X123725000Y-100068748D01*
X125195000Y-100591252D02*
X125195000Y-100068748D01*
%TO.C,U1*%
X127480000Y-91420000D02*
X131600000Y-91420000D01*
X127480000Y-91515000D02*
X127480000Y-91420000D01*
X127480000Y-96540000D02*
X127480000Y-96445000D01*
X131600000Y-91420000D02*
X131600000Y-91515000D01*
X131600000Y-96445000D02*
X131600000Y-96540000D01*
X131600000Y-96540000D02*
X127480000Y-96540000D01*
X132380000Y-96780000D02*
X131900000Y-96780000D01*
X132140000Y-96450000D01*
X132380000Y-96780000D01*
G36*
X132380000Y-96780000D02*
G01*
X131900000Y-96780000D01*
X132140000Y-96450000D01*
X132380000Y-96780000D01*
G37*
%TO.C,LED_TEMP1*%
X159750000Y-121710000D02*
X159750000Y-122960000D01*
X160040000Y-122000000D02*
X160040000Y-127970000D01*
X160040000Y-127970000D02*
X167660000Y-127970000D01*
X160050000Y-122010000D02*
X160050000Y-122760000D01*
X160050000Y-122760000D02*
X161850000Y-122760000D01*
X160050000Y-124260000D02*
X160800000Y-124260000D01*
X160800000Y-124260000D02*
X160800000Y-127210000D01*
X160800000Y-127210000D02*
X163850000Y-127210000D01*
X161000000Y-121710000D02*
X159750000Y-121710000D01*
X161850000Y-122010000D02*
X160050000Y-122010000D01*
X161850000Y-122760000D02*
X161850000Y-122010000D01*
X163350000Y-122010000D02*
X163350000Y-122760000D01*
X163350000Y-122760000D02*
X164350000Y-122760000D01*
X164350000Y-122010000D02*
X163350000Y-122010000D01*
X164350000Y-122760000D02*
X164350000Y-122010000D01*
X165850000Y-122010000D02*
X165850000Y-122760000D01*
X165850000Y-122760000D02*
X167650000Y-122760000D01*
X166900000Y-124260000D02*
X166900000Y-127210000D01*
X166900000Y-127210000D02*
X163850000Y-127210000D01*
X167650000Y-122010000D02*
X165850000Y-122010000D01*
X167650000Y-122760000D02*
X167650000Y-122010000D01*
X167650000Y-124260000D02*
X166900000Y-124260000D01*
X167660000Y-122000000D02*
X160040000Y-122000000D01*
X167660000Y-127970000D02*
X167660000Y-122000000D01*
%TO.C,U2*%
X121485000Y-125520000D02*
X121485000Y-126760000D01*
X121485000Y-126760000D02*
X122725000Y-126760000D01*
X121725000Y-117900000D02*
X133445000Y-117900000D01*
X121725000Y-126520000D02*
X121725000Y-117900000D01*
X133445000Y-117900000D02*
X133445000Y-126520000D01*
X133445000Y-126520000D02*
X121725000Y-126520000D01*
%TO.C,R8*%
X123671064Y-96801000D02*
X123216936Y-96801000D01*
X123671064Y-98271000D02*
X123216936Y-98271000D01*
%TO.C,C7*%
X133885000Y-100591252D02*
X133885000Y-100068748D01*
X135355000Y-100591252D02*
X135355000Y-100068748D01*
%TO.C,Display1*%
X159830000Y-106470000D02*
X159830000Y-107720000D01*
X160120000Y-106760000D02*
X160120000Y-112730000D01*
X160120000Y-112730000D02*
X172740000Y-112730000D01*
X160130000Y-106770000D02*
X160130000Y-107520000D01*
X160130000Y-107520000D02*
X161930000Y-107520000D01*
X160130000Y-109020000D02*
X160880000Y-109020000D01*
X160880000Y-109020000D02*
X160880000Y-111970000D01*
X160880000Y-111970000D02*
X166430000Y-111970000D01*
X161080000Y-106470000D02*
X159830000Y-106470000D01*
X161930000Y-106770000D02*
X160130000Y-106770000D01*
X161930000Y-107520000D02*
X161930000Y-106770000D01*
X163430000Y-106770000D02*
X163430000Y-107520000D01*
X163430000Y-107520000D02*
X169430000Y-107520000D01*
X169430000Y-106770000D02*
X163430000Y-106770000D01*
X169430000Y-107520000D02*
X169430000Y-106770000D01*
X170930000Y-106770000D02*
X170930000Y-107520000D01*
X170930000Y-107520000D02*
X172730000Y-107520000D01*
X171980000Y-109020000D02*
X171980000Y-111970000D01*
X171980000Y-111970000D02*
X166430000Y-111970000D01*
X172730000Y-106770000D02*
X170930000Y-106770000D01*
X172730000Y-107520000D02*
X172730000Y-106770000D01*
X172730000Y-109020000D02*
X171980000Y-109020000D01*
X172740000Y-106760000D02*
X160120000Y-106760000D01*
X172740000Y-112730000D02*
X172740000Y-106760000D01*
%TO.C,C9*%
X118140000Y-80787323D02*
X114463000Y-80787323D01*
X118140000Y-80827323D02*
X114473000Y-80827323D01*
X118140000Y-80867323D02*
X114484000Y-80867323D01*
X118140000Y-80907323D02*
X114495000Y-80907323D01*
X118140000Y-80947323D02*
X114507000Y-80947323D01*
X118140000Y-80987323D02*
X114519000Y-80987323D01*
X118140000Y-81027323D02*
X114531000Y-81027323D01*
X118140000Y-81067323D02*
X114543000Y-81067323D01*
X118140000Y-81107323D02*
X114556000Y-81107323D01*
X118140000Y-81147323D02*
X114570000Y-81147323D01*
X118140000Y-81187323D02*
X114583000Y-81187323D01*
X118140000Y-81227323D02*
X114598000Y-81227323D01*
X118140000Y-81267323D02*
X114612000Y-81267323D01*
X118140000Y-81307323D02*
X114627000Y-81307323D01*
X118140000Y-81347323D02*
X114642000Y-81347323D01*
X118140000Y-81387323D02*
X114658000Y-81387323D01*
X118140000Y-81427323D02*
X114674000Y-81427323D01*
X118140000Y-81467323D02*
X114690000Y-81467323D01*
X118140000Y-81507323D02*
X114707000Y-81507323D01*
X118140000Y-81547323D02*
X114724000Y-81547323D01*
X118140000Y-81587323D02*
X114742000Y-81587323D01*
X118140000Y-81627323D02*
X114760000Y-81627323D01*
X118140000Y-81667323D02*
X114778000Y-81667323D01*
X118140000Y-81707323D02*
X114797000Y-81707323D01*
X118140000Y-81747323D02*
X114816000Y-81747323D01*
X118140000Y-81787323D02*
X114836000Y-81787323D01*
X118140000Y-81827323D02*
X114856000Y-81827323D01*
X118140000Y-81867323D02*
X114876000Y-81867323D01*
X118140000Y-81907323D02*
X114897000Y-81907323D01*
X118140000Y-81947323D02*
X114919000Y-81947323D01*
X118140000Y-81987323D02*
X114941000Y-81987323D01*
X118140000Y-82027323D02*
X114963000Y-82027323D01*
X118140000Y-82067323D02*
X114986000Y-82067323D01*
X118140000Y-82107323D02*
X115009000Y-82107323D01*
X118140000Y-82147323D02*
X115033000Y-82147323D01*
X118140000Y-82187323D02*
X115057000Y-82187323D01*
X118140000Y-82227323D02*
X115082000Y-82227323D01*
X118140000Y-82267323D02*
X115108000Y-82267323D01*
X118140000Y-82307323D02*
X115133000Y-82307323D01*
X118140000Y-82347323D02*
X115160000Y-82347323D01*
X118140000Y-82387323D02*
X115187000Y-82387323D01*
X118140000Y-82427323D02*
X115214000Y-82427323D01*
X118140000Y-82467323D02*
X115242000Y-82467323D01*
X118140000Y-82507323D02*
X115271000Y-82507323D01*
X118140000Y-82547323D02*
X115300000Y-82547323D01*
X118140000Y-82587323D02*
X115330000Y-82587323D01*
X118140000Y-82627323D02*
X115360000Y-82627323D01*
X118140000Y-82667323D02*
X115392000Y-82667323D01*
X118140000Y-82707323D02*
X115423000Y-82707323D01*
X118140000Y-82747323D02*
X115456000Y-82747323D01*
X118140000Y-82787323D02*
X115489000Y-82787323D01*
X118140000Y-82827323D02*
X115522000Y-82827323D01*
X118140000Y-82867323D02*
X115557000Y-82867323D01*
X118140000Y-82907323D02*
X115592000Y-82907323D01*
X118140000Y-82947323D02*
X115628000Y-82947323D01*
X118140000Y-82987323D02*
X115664000Y-82987323D01*
X118140000Y-83027323D02*
X115702000Y-83027323D01*
X118140000Y-83067323D02*
X115740000Y-83067323D01*
X118140000Y-83107323D02*
X115779000Y-83107323D01*
X118140000Y-83147323D02*
X115819000Y-83147323D01*
X118140000Y-83187323D02*
X115860000Y-83187323D01*
X118140000Y-83227323D02*
X115902000Y-83227323D01*
X119979000Y-84587323D02*
X118781000Y-84587323D01*
X120242000Y-84547323D02*
X118518000Y-84547323D01*
X120442000Y-84507323D02*
X118318000Y-84507323D01*
X120610000Y-84467323D02*
X118150000Y-84467323D01*
X120757000Y-84427323D02*
X118003000Y-84427323D01*
X120889000Y-84387323D02*
X117871000Y-84387323D01*
X121010000Y-84347323D02*
X117750000Y-84347323D01*
X121122000Y-84307323D02*
X117638000Y-84307323D01*
X121226000Y-84267323D02*
X117534000Y-84267323D01*
X121324000Y-84227323D02*
X117436000Y-84227323D01*
X121417000Y-84187323D02*
X117343000Y-84187323D01*
X121504000Y-84147323D02*
X117256000Y-84147323D01*
X121588000Y-84107323D02*
X117172000Y-84107323D01*
X121668000Y-84067323D02*
X117092000Y-84067323D01*
X121745000Y-84027323D02*
X117015000Y-84027323D01*
X121819000Y-83987323D02*
X116941000Y-83987323D01*
X121890000Y-83947323D02*
X116870000Y-83947323D01*
X121958000Y-83907323D02*
X116802000Y-83907323D01*
X122024000Y-83867323D02*
X116736000Y-83867323D01*
X122088000Y-83827323D02*
X116672000Y-83827323D01*
X122150000Y-83787323D02*
X116610000Y-83787323D01*
X122210000Y-83747323D02*
X116550000Y-83747323D01*
X122255000Y-74027677D02*
X122255000Y-75027677D01*
X122268000Y-83707323D02*
X116492000Y-83707323D01*
X122325000Y-83667323D02*
X116435000Y-83667323D01*
X122380000Y-83627323D02*
X116380000Y-83627323D01*
X122433000Y-83587323D02*
X116327000Y-83587323D01*
X122485000Y-83547323D02*
X116275000Y-83547323D01*
X122536000Y-83507323D02*
X116224000Y-83507323D01*
X122585000Y-83467323D02*
X116175000Y-83467323D01*
X122634000Y-83427323D02*
X116126000Y-83427323D01*
X122681000Y-83387323D02*
X116079000Y-83387323D01*
X122727000Y-83347323D02*
X116033000Y-83347323D01*
X122755000Y-74527677D02*
X121755000Y-74527677D01*
X122771000Y-83307323D02*
X115989000Y-83307323D01*
X122815000Y-83267323D02*
X115945000Y-83267323D01*
X122858000Y-83227323D02*
X120620000Y-83227323D01*
X122900000Y-83187323D02*
X120620000Y-83187323D01*
X122941000Y-83147323D02*
X120620000Y-83147323D01*
X122981000Y-83107323D02*
X120620000Y-83107323D01*
X123020000Y-83067323D02*
X120620000Y-83067323D01*
X123058000Y-83027323D02*
X120620000Y-83027323D01*
X123096000Y-82987323D02*
X120620000Y-82987323D01*
X123132000Y-82947323D02*
X120620000Y-82947323D01*
X123168000Y-82907323D02*
X120620000Y-82907323D01*
X123203000Y-82867323D02*
X120620000Y-82867323D01*
X123238000Y-82827323D02*
X120620000Y-82827323D01*
X123271000Y-82787323D02*
X120620000Y-82787323D01*
X123304000Y-82747323D02*
X120620000Y-82747323D01*
X123337000Y-82707323D02*
X120620000Y-82707323D01*
X123368000Y-82667323D02*
X120620000Y-82667323D01*
X123400000Y-82627323D02*
X120620000Y-82627323D01*
X123430000Y-82587323D02*
X120620000Y-82587323D01*
X123460000Y-82547323D02*
X120620000Y-82547323D01*
X123489000Y-82507323D02*
X120620000Y-82507323D01*
X123518000Y-82467323D02*
X120620000Y-82467323D01*
X123546000Y-82427323D02*
X120620000Y-82427323D01*
X123573000Y-82387323D02*
X120620000Y-82387323D01*
X123600000Y-82347323D02*
X120620000Y-82347323D01*
X123627000Y-82307323D02*
X120620000Y-82307323D01*
X123652000Y-82267323D02*
X120620000Y-82267323D01*
X123678000Y-82227323D02*
X120620000Y-82227323D01*
X123703000Y-82187323D02*
X120620000Y-82187323D01*
X123727000Y-82147323D02*
X120620000Y-82147323D01*
X123751000Y-82107323D02*
X120620000Y-82107323D01*
X123774000Y-82067323D02*
X120620000Y-82067323D01*
X123797000Y-82027323D02*
X120620000Y-82027323D01*
X123819000Y-81987323D02*
X120620000Y-81987323D01*
X123841000Y-81947323D02*
X120620000Y-81947323D01*
X123863000Y-81907323D02*
X120620000Y-81907323D01*
X123884000Y-81867323D02*
X120620000Y-81867323D01*
X123904000Y-81827323D02*
X120620000Y-81827323D01*
X123924000Y-81787323D02*
X120620000Y-81787323D01*
X123944000Y-81747323D02*
X120620000Y-81747323D01*
X123963000Y-81707323D02*
X120620000Y-81707323D01*
X123982000Y-81667323D02*
X120620000Y-81667323D01*
X124000000Y-81627323D02*
X120620000Y-81627323D01*
X124018000Y-81587323D02*
X120620000Y-81587323D01*
X124036000Y-81547323D02*
X120620000Y-81547323D01*
X124053000Y-81507323D02*
X120620000Y-81507323D01*
X124070000Y-81467323D02*
X120620000Y-81467323D01*
X124086000Y-81427323D02*
X120620000Y-81427323D01*
X124102000Y-81387323D02*
X120620000Y-81387323D01*
X124118000Y-81347323D02*
X120620000Y-81347323D01*
X124133000Y-81307323D02*
X120620000Y-81307323D01*
X124148000Y-81267323D02*
X120620000Y-81267323D01*
X124162000Y-81227323D02*
X120620000Y-81227323D01*
X124177000Y-81187323D02*
X120620000Y-81187323D01*
X124190000Y-81147323D02*
X120620000Y-81147323D01*
X124204000Y-81107323D02*
X120620000Y-81107323D01*
X124217000Y-81067323D02*
X120620000Y-81067323D01*
X124229000Y-81027323D02*
X120620000Y-81027323D01*
X124241000Y-80987323D02*
X120620000Y-80987323D01*
X124253000Y-80947323D02*
X120620000Y-80947323D01*
X124265000Y-80907323D02*
X120620000Y-80907323D01*
X124276000Y-80867323D02*
X120620000Y-80867323D01*
X124287000Y-80827323D02*
X120620000Y-80827323D01*
X124297000Y-80787323D02*
X120620000Y-80787323D01*
X124308000Y-80747323D02*
X114452000Y-80747323D01*
X124317000Y-80707323D02*
X114443000Y-80707323D01*
X124327000Y-80667323D02*
X114433000Y-80667323D01*
X124336000Y-80627323D02*
X114424000Y-80627323D01*
X124345000Y-80587323D02*
X114415000Y-80587323D01*
X124353000Y-80547323D02*
X114407000Y-80547323D01*
X124361000Y-80507323D02*
X114399000Y-80507323D01*
X124369000Y-80467323D02*
X114391000Y-80467323D01*
X124377000Y-80427323D02*
X114383000Y-80427323D01*
X124384000Y-80387323D02*
X114376000Y-80387323D01*
X124391000Y-80347323D02*
X114369000Y-80347323D01*
X124397000Y-80307323D02*
X114363000Y-80307323D01*
X124403000Y-80267323D02*
X114357000Y-80267323D01*
X124409000Y-80227323D02*
X114351000Y-80227323D01*
X124415000Y-80187323D02*
X114345000Y-80187323D01*
X124420000Y-80147323D02*
X114340000Y-80147323D01*
X124425000Y-80107323D02*
X114335000Y-80107323D01*
X124429000Y-80067323D02*
X114331000Y-80067323D01*
X124434000Y-80027323D02*
X114326000Y-80027323D01*
X124437000Y-79987323D02*
X114323000Y-79987323D01*
X124441000Y-79947323D02*
X114319000Y-79947323D01*
X124444000Y-79907323D02*
X114316000Y-79907323D01*
X124447000Y-79867323D02*
X114313000Y-79867323D01*
X124450000Y-79827323D02*
X114310000Y-79827323D01*
X124452000Y-79787323D02*
X114308000Y-79787323D01*
X124454000Y-79747323D02*
X114306000Y-79747323D01*
X124456000Y-79707323D02*
X114304000Y-79707323D01*
X124457000Y-79667323D02*
X114303000Y-79667323D01*
X124459000Y-79587323D02*
X114301000Y-79587323D01*
X124459000Y-79627323D02*
X114301000Y-79627323D01*
X124460000Y-79507323D02*
X114300000Y-79507323D01*
X124460000Y-79547323D02*
X114300000Y-79547323D01*
X124500000Y-79507323D02*
G75*
G02*
X114260000Y-79507323I-5120000J0D01*
G01*
X114260000Y-79507323D02*
G75*
G02*
X124500000Y-79507323I5120000J0D01*
G01*
%TO.C,R12*%
X175334321Y-117817631D02*
X174880193Y-117817631D01*
X175334321Y-119287631D02*
X174880193Y-119287631D01*
%TO.C,Aux_Fan_1*%
X103650000Y-116095000D02*
X103650000Y-126475000D01*
X103650000Y-118275000D02*
X104250000Y-118275000D01*
X103650000Y-120815000D02*
X104250000Y-120815000D01*
X103650000Y-123355000D02*
X104250000Y-123355000D01*
X103650000Y-125895000D02*
X104250000Y-125895000D01*
X103650000Y-126475000D02*
X109670000Y-126475000D01*
X104250000Y-116675000D02*
X103650000Y-116675000D01*
X104250000Y-118275000D02*
X104250000Y-116675000D01*
X104250000Y-119215000D02*
X103650000Y-119215000D01*
X104250000Y-120815000D02*
X104250000Y-119215000D01*
X104250000Y-121755000D02*
X103650000Y-121755000D01*
X104250000Y-123355000D02*
X104250000Y-121755000D01*
X104250000Y-124295000D02*
X103650000Y-124295000D01*
X104250000Y-125895000D02*
X104250000Y-124295000D01*
X104680000Y-126765000D02*
X108680000Y-126765000D01*
X108140000Y-117725000D02*
X108670000Y-117475000D01*
X108140000Y-124845000D02*
X108140000Y-117725000D01*
X108670000Y-117475000D02*
X109670000Y-117475000D01*
X108670000Y-125095000D02*
X108140000Y-124845000D01*
X108670000Y-125095000D02*
X108670000Y-117475000D01*
X109670000Y-116095000D02*
X103650000Y-116095000D01*
X109670000Y-117725000D02*
X108670000Y-117725000D01*
X109670000Y-124845000D02*
X108670000Y-124845000D01*
X109670000Y-125095000D02*
X108670000Y-125095000D01*
X109670000Y-126475000D02*
X109670000Y-116095000D01*
%TO.C,C6*%
X133885000Y-106941252D02*
X133885000Y-106418748D01*
X135355000Y-106941252D02*
X135355000Y-106418748D01*
%TO.C,Pump_1*%
X113810000Y-116095000D02*
X113810000Y-126475000D01*
X113810000Y-118275000D02*
X114410000Y-118275000D01*
X113810000Y-120815000D02*
X114410000Y-120815000D01*
X113810000Y-123355000D02*
X114410000Y-123355000D01*
X113810000Y-125895000D02*
X114410000Y-125895000D01*
X113810000Y-126475000D02*
X119830000Y-126475000D01*
X114410000Y-116675000D02*
X113810000Y-116675000D01*
X114410000Y-118275000D02*
X114410000Y-116675000D01*
X114410000Y-119215000D02*
X113810000Y-119215000D01*
X114410000Y-120815000D02*
X114410000Y-119215000D01*
X114410000Y-121755000D02*
X113810000Y-121755000D01*
X114410000Y-123355000D02*
X114410000Y-121755000D01*
X114410000Y-124295000D02*
X113810000Y-124295000D01*
X114410000Y-125895000D02*
X114410000Y-124295000D01*
X114840000Y-126765000D02*
X118840000Y-126765000D01*
X118300000Y-117725000D02*
X118830000Y-117475000D01*
X118300000Y-124845000D02*
X118300000Y-117725000D01*
X118830000Y-117475000D02*
X119830000Y-117475000D01*
X118830000Y-125095000D02*
X118300000Y-124845000D01*
X118830000Y-125095000D02*
X118830000Y-117475000D01*
X119830000Y-116095000D02*
X113810000Y-116095000D01*
X119830000Y-117725000D02*
X118830000Y-117725000D01*
X119830000Y-124845000D02*
X118830000Y-124845000D01*
X119830000Y-125095000D02*
X118830000Y-125095000D01*
X119830000Y-126475000D02*
X119830000Y-116095000D01*
%TO.C,R13*%
X163494421Y-96795134D02*
X163040293Y-96795134D01*
X163494421Y-98265134D02*
X163040293Y-98265134D01*
%TO.C,C1*%
X123725000Y-113291252D02*
X123725000Y-112768748D01*
X125195000Y-113291252D02*
X125195000Y-112768748D01*
%TO.C,R16*%
X166014886Y-91936480D02*
X165560758Y-91936480D01*
X166014886Y-93406480D02*
X165560758Y-93406480D01*
%TO.C,R15*%
X161322514Y-91776886D02*
X161776642Y-91776886D01*
X161322514Y-93246886D02*
X161776642Y-93246886D01*
%TO.C,R3*%
X170362097Y-121672357D02*
X169907969Y-121672357D01*
X170362097Y-123142357D02*
X169907969Y-123142357D01*
%TO.C,C15*%
X156107260Y-74480033D02*
X156629764Y-74480033D01*
X156107260Y-75950033D02*
X156629764Y-75950033D01*
%TO.C,UHP-1500*%
X170986000Y-95928000D02*
X170986000Y-97178000D01*
X170986000Y-97178000D02*
X172236000Y-97178000D01*
X171276000Y-81768000D02*
X171276000Y-96888000D01*
X171276000Y-96888000D02*
X177246000Y-96888000D01*
X171286000Y-81778000D02*
X171286000Y-83578000D01*
X171286000Y-83578000D02*
X172036000Y-83578000D01*
X171286000Y-85078000D02*
X171286000Y-93578000D01*
X171286000Y-93578000D02*
X172036000Y-93578000D01*
X171286000Y-95078000D02*
X171286000Y-96878000D01*
X171286000Y-96878000D02*
X172036000Y-96878000D01*
X172036000Y-81778000D02*
X171286000Y-81778000D01*
X172036000Y-83578000D02*
X172036000Y-81778000D01*
X172036000Y-85078000D02*
X171286000Y-85078000D01*
X172036000Y-93578000D02*
X172036000Y-85078000D01*
X172036000Y-95078000D02*
X171286000Y-95078000D01*
X172036000Y-96878000D02*
X172036000Y-95078000D01*
X173536000Y-81778000D02*
X173536000Y-82528000D01*
X173536000Y-82528000D02*
X176486000Y-82528000D01*
X173536000Y-96128000D02*
X176486000Y-96128000D01*
X173536000Y-96878000D02*
X173536000Y-96128000D01*
X176486000Y-82528000D02*
X176486000Y-89328000D01*
X176486000Y-96128000D02*
X176486000Y-89328000D01*
X177246000Y-81768000D02*
X171276000Y-81768000D01*
X177246000Y-96888000D02*
X177246000Y-81768000D01*
%TO.C,Q2*%
X164227822Y-88433980D02*
X165227822Y-88433980D01*
X164227822Y-89953980D02*
X164227822Y-88433980D01*
X164277822Y-89953980D02*
X164227822Y-89953980D01*
X166177822Y-89953980D02*
X165397822Y-89953980D01*
X166347822Y-88433980D02*
X167347822Y-88433980D01*
X167347822Y-88433980D02*
X167347822Y-89953980D01*
X167347822Y-89953980D02*
X167297822Y-89953980D01*
X165737822Y-90733980D02*
X165407822Y-90493980D01*
X165737822Y-90253980D01*
X165737822Y-90733980D01*
G36*
X165737822Y-90733980D02*
G01*
X165407822Y-90493980D01*
X165737822Y-90253980D01*
X165737822Y-90733980D01*
G37*
%TO.C,U4*%
X127480000Y-97770000D02*
X131600000Y-97770000D01*
X127480000Y-97865000D02*
X127480000Y-97770000D01*
X127480000Y-102890000D02*
X127480000Y-102795000D01*
X131600000Y-97770000D02*
X131600000Y-97865000D01*
X131600000Y-102795000D02*
X131600000Y-102890000D01*
X131600000Y-102890000D02*
X127480000Y-102890000D01*
X132380000Y-103130000D02*
X131900000Y-103130000D01*
X132140000Y-102800000D01*
X132380000Y-103130000D01*
G36*
X132380000Y-103130000D02*
G01*
X131900000Y-103130000D01*
X132140000Y-102800000D01*
X132380000Y-103130000D01*
G37*
%TO.C,R4*%
X129312936Y-88673000D02*
X129767064Y-88673000D01*
X129312936Y-90143000D02*
X129767064Y-90143000D01*
%TO.C,PSU_Fan1*%
X113830000Y-104665000D02*
X113830000Y-115045000D01*
X113830000Y-106845000D02*
X114430000Y-106845000D01*
X113830000Y-109385000D02*
X114430000Y-109385000D01*
X113830000Y-111925000D02*
X114430000Y-111925000D01*
X113830000Y-114465000D02*
X114430000Y-114465000D01*
X113830000Y-115045000D02*
X119850000Y-115045000D01*
X114430000Y-105245000D02*
X113830000Y-105245000D01*
X114430000Y-106845000D02*
X114430000Y-105245000D01*
X114430000Y-107785000D02*
X113830000Y-107785000D01*
X114430000Y-109385000D02*
X114430000Y-107785000D01*
X114430000Y-110325000D02*
X113830000Y-110325000D01*
X114430000Y-111925000D02*
X114430000Y-110325000D01*
X114430000Y-112865000D02*
X113830000Y-112865000D01*
X114430000Y-114465000D02*
X114430000Y-112865000D01*
X114860000Y-115335000D02*
X118860000Y-115335000D01*
X118320000Y-106295000D02*
X118850000Y-106045000D01*
X118320000Y-113415000D02*
X118320000Y-106295000D01*
X118850000Y-106045000D02*
X119850000Y-106045000D01*
X118850000Y-113665000D02*
X118320000Y-113415000D01*
X118850000Y-113665000D02*
X118850000Y-106045000D01*
X119850000Y-104665000D02*
X113830000Y-104665000D01*
X119850000Y-106295000D02*
X118850000Y-106295000D01*
X119850000Y-113415000D02*
X118850000Y-113415000D01*
X119850000Y-113665000D02*
X118850000Y-113665000D01*
X119850000Y-115045000D02*
X119850000Y-104665000D01*
%TO.C, + 24V -*%
X103230000Y-81795000D02*
X113270000Y-81795000D01*
X103230000Y-84155000D02*
X103230000Y-81795000D01*
X103230000Y-92195000D02*
X103230000Y-84755000D01*
X103850000Y-81795000D02*
X103850000Y-92195000D01*
X105350000Y-81795000D02*
X105350000Y-92195000D01*
X110250000Y-81795000D02*
X110250000Y-92195000D01*
X113270000Y-81795000D02*
X113270000Y-92195000D01*
X113270000Y-92195000D02*
X103230000Y-92195000D01*
X103230000Y-84455000D02*
X102620000Y-84895000D01*
X102620000Y-84015000D01*
X103230000Y-84455000D01*
G36*
X103230000Y-84455000D02*
G01*
X102620000Y-84895000D01*
X102620000Y-84015000D01*
X103230000Y-84455000D01*
G37*
%TO.C,Rad_Fan_2*%
X113810000Y-93235000D02*
X113810000Y-103615000D01*
X113810000Y-95415000D02*
X114410000Y-95415000D01*
X113810000Y-97955000D02*
X114410000Y-97955000D01*
X113810000Y-100495000D02*
X114410000Y-100495000D01*
X113810000Y-103035000D02*
X114410000Y-103035000D01*
X113810000Y-103615000D02*
X119830000Y-103615000D01*
X114410000Y-93815000D02*
X113810000Y-93815000D01*
X114410000Y-95415000D02*
X114410000Y-93815000D01*
X114410000Y-96355000D02*
X113810000Y-96355000D01*
X114410000Y-97955000D02*
X114410000Y-96355000D01*
X114410000Y-98895000D02*
X113810000Y-98895000D01*
X114410000Y-100495000D02*
X114410000Y-98895000D01*
X114410000Y-101435000D02*
X113810000Y-101435000D01*
X114410000Y-103035000D02*
X114410000Y-101435000D01*
X114840000Y-103905000D02*
X118840000Y-103905000D01*
X118300000Y-94865000D02*
X118830000Y-94615000D01*
X118300000Y-101985000D02*
X118300000Y-94865000D01*
X118830000Y-94615000D02*
X119830000Y-94615000D01*
X118830000Y-102235000D02*
X118300000Y-101985000D01*
X118830000Y-102235000D02*
X118830000Y-94615000D01*
X119830000Y-93235000D02*
X113810000Y-93235000D01*
X119830000Y-94865000D02*
X118830000Y-94865000D01*
X119830000Y-101985000D02*
X118830000Y-101985000D01*
X119830000Y-102235000D02*
X118830000Y-102235000D01*
X119830000Y-103615000D02*
X119830000Y-93235000D01*
%TO.C,R7*%
X123637009Y-103071848D02*
X123182881Y-103071848D01*
X123637009Y-104541848D02*
X123182881Y-104541848D01*
%TO.C,C2*%
X123725000Y-106941252D02*
X123725000Y-106418748D01*
X125195000Y-106941252D02*
X125195000Y-106418748D01*
%TO.C,U5*%
X127480000Y-104120000D02*
X131600000Y-104120000D01*
X127480000Y-104215000D02*
X127480000Y-104120000D01*
X127480000Y-109240000D02*
X127480000Y-109145000D01*
X131600000Y-104120000D02*
X131600000Y-104215000D01*
X131600000Y-109145000D02*
X131600000Y-109240000D01*
X131600000Y-109240000D02*
X127480000Y-109240000D01*
X132380000Y-109480000D02*
X131900000Y-109480000D01*
X132140000Y-109150000D01*
X132380000Y-109480000D01*
G36*
X132380000Y-109480000D02*
G01*
X131900000Y-109480000D01*
X132140000Y-109150000D01*
X132380000Y-109480000D01*
G37*
%TO.C,WATER_TEMP1*%
X159750000Y-129330000D02*
X159750000Y-130580000D01*
X160040000Y-129620000D02*
X160040000Y-135590000D01*
X160040000Y-135590000D02*
X167660000Y-135590000D01*
X160050000Y-129630000D02*
X160050000Y-130380000D01*
X160050000Y-130380000D02*
X161850000Y-130380000D01*
X160050000Y-131880000D02*
X160800000Y-131880000D01*
X160800000Y-131880000D02*
X160800000Y-134830000D01*
X160800000Y-134830000D02*
X163850000Y-134830000D01*
X161000000Y-129330000D02*
X159750000Y-129330000D01*
X161850000Y-129630000D02*
X160050000Y-129630000D01*
X161850000Y-130380000D02*
X161850000Y-129630000D01*
X163350000Y-129630000D02*
X163350000Y-130380000D01*
X163350000Y-130380000D02*
X164350000Y-130380000D01*
X164350000Y-129630000D02*
X163350000Y-129630000D01*
X164350000Y-130380000D02*
X164350000Y-129630000D01*
X165850000Y-129630000D02*
X165850000Y-130380000D01*
X165850000Y-130380000D02*
X167650000Y-130380000D01*
X166900000Y-131880000D02*
X166900000Y-134830000D01*
X166900000Y-134830000D02*
X163850000Y-134830000D01*
X167650000Y-129630000D02*
X165850000Y-129630000D01*
X167650000Y-130380000D02*
X167650000Y-129630000D01*
X167650000Y-131880000D02*
X166900000Y-131880000D01*
X167660000Y-129620000D02*
X160040000Y-129620000D01*
X167660000Y-135590000D02*
X167660000Y-129620000D01*
%TO.C,U3*%
X149702733Y-74233668D02*
X154322733Y-74233668D01*
X149702733Y-84453668D02*
X149702733Y-74233668D01*
X152942733Y-74233668D02*
X152942733Y-84453668D01*
X154322733Y-74233668D02*
X154322733Y-84453668D01*
X154322733Y-77493668D02*
X152942733Y-77493668D01*
X154322733Y-81193668D02*
X152942733Y-81193668D01*
X154322733Y-84453668D02*
X149702733Y-84453668D01*
%TO.C,C18*%
X162999686Y-94770642D02*
X163522190Y-94770642D01*
X162999686Y-96240642D02*
X163522190Y-96240642D01*
%TO.C,C4*%
X123725000Y-94241252D02*
X123725000Y-93718748D01*
X125195000Y-94241252D02*
X125195000Y-93718748D01*
%TO.C,R11*%
X168905839Y-88072692D02*
X168905839Y-87618564D01*
X170375839Y-88072692D02*
X170375839Y-87618564D01*
%TO.C,R14*%
X167044002Y-96802642D02*
X166589874Y-96802642D01*
X167044002Y-98272642D02*
X166589874Y-98272642D01*
%TO.C,R6*%
X123671064Y-109501000D02*
X123216936Y-109501000D01*
X123671064Y-110971000D02*
X123216936Y-110971000D01*
%TO.C,R1*%
X170305093Y-127523649D02*
X169850965Y-127523649D01*
X170305093Y-128993649D02*
X169850965Y-128993649D01*
%TO.C,C5*%
X133885000Y-113291252D02*
X133885000Y-112768748D01*
X135355000Y-113291252D02*
X135355000Y-112768748D01*
%TO.C,Rad_Fan_1*%
X103650000Y-93235000D02*
X103650000Y-103615000D01*
X103650000Y-95415000D02*
X104250000Y-95415000D01*
X103650000Y-97955000D02*
X104250000Y-97955000D01*
X103650000Y-100495000D02*
X104250000Y-100495000D01*
X103650000Y-103035000D02*
X104250000Y-103035000D01*
X103650000Y-103615000D02*
X109670000Y-103615000D01*
X104250000Y-93815000D02*
X103650000Y-93815000D01*
X104250000Y-95415000D02*
X104250000Y-93815000D01*
X104250000Y-96355000D02*
X103650000Y-96355000D01*
X104250000Y-97955000D02*
X104250000Y-96355000D01*
X104250000Y-98895000D02*
X103650000Y-98895000D01*
X104250000Y-100495000D02*
X104250000Y-98895000D01*
X104250000Y-101435000D02*
X103650000Y-101435000D01*
X104250000Y-103035000D02*
X104250000Y-101435000D01*
X104680000Y-103905000D02*
X108680000Y-103905000D01*
X108140000Y-94865000D02*
X108670000Y-94615000D01*
X108140000Y-101985000D02*
X108140000Y-94865000D01*
X108670000Y-94615000D02*
X109670000Y-94615000D01*
X108670000Y-102235000D02*
X108140000Y-101985000D01*
X108670000Y-102235000D02*
X108670000Y-94615000D01*
X109670000Y-93235000D02*
X103650000Y-93235000D01*
X109670000Y-94865000D02*
X108670000Y-94865000D01*
X109670000Y-101985000D02*
X108670000Y-101985000D01*
X109670000Y-102235000D02*
X108670000Y-102235000D01*
X109670000Y-103615000D02*
X109670000Y-93235000D01*
%TO.C,C12*%
X156645953Y-76828882D02*
X156123449Y-76828882D01*
X156645953Y-78298882D02*
X156123449Y-78298882D01*
%TO.C,C11*%
X128983010Y-127178938D02*
X128460506Y-127178938D01*
X128983010Y-128648938D02*
X128460506Y-128648938D01*
%TO.C,Q3*%
X159989578Y-88449886D02*
X160989578Y-88449886D01*
X159989578Y-89969886D02*
X159989578Y-88449886D01*
X160039578Y-89969886D02*
X159989578Y-89969886D01*
X161939578Y-89969886D02*
X161159578Y-89969886D01*
X162109578Y-88449886D02*
X163109578Y-88449886D01*
X163109578Y-88449886D02*
X163109578Y-89969886D01*
X163109578Y-89969886D02*
X163059578Y-89969886D01*
X161499578Y-90749886D02*
X161169578Y-90509886D01*
X161499578Y-90269886D01*
X161499578Y-90749886D01*
G36*
X161499578Y-90749886D02*
G01*
X161169578Y-90509886D01*
X161499578Y-90269886D01*
X161499578Y-90749886D01*
G37*
%TO.C,C13*%
X133807252Y-84492000D02*
X132384748Y-84492000D01*
X133807252Y-87212000D02*
X132384748Y-87212000D01*
%TO.C,C8*%
X133885000Y-94241252D02*
X133885000Y-93718748D01*
X135355000Y-94241252D02*
X135355000Y-93718748D01*
%TO.C,D1*%
X116140000Y-132080000D02*
X117050000Y-132080000D01*
X118475000Y-129360000D02*
X118475000Y-134800000D01*
X118595000Y-129360000D02*
X118595000Y-134800000D01*
X118715000Y-129360000D02*
X118715000Y-134800000D01*
X127700000Y-132080000D02*
X126790000Y-132080000D01*
X117050000Y-129360000D02*
X126790000Y-129360000D01*
X126790000Y-134800000D01*
X117050000Y-134800000D01*
X117050000Y-129360000D01*
%TO.C,R2*%
X170315290Y-125354535D02*
X169861162Y-125354535D01*
X170315290Y-126824535D02*
X169861162Y-126824535D01*
%TO.C,Feather_M4_Express1*%
X135780000Y-133350000D02*
X135780000Y-87630000D01*
X138430000Y-84980000D02*
X156210000Y-84980000D01*
X138430000Y-136000000D02*
X156210000Y-136000000D01*
X158860000Y-133350000D02*
X158860000Y-87630000D01*
X159180000Y-128540000D02*
X159180000Y-130540000D01*
X135780000Y-87630000D02*
G75*
G02*
X138430000Y-84980000I2650000J0D01*
G01*
X138430000Y-136000000D02*
G75*
G02*
X135780000Y-133350000I0J2650000D01*
G01*
X156210000Y-84980000D02*
G75*
G02*
X158860000Y-87630000I0J-2650000D01*
G01*
X158860000Y-133350000D02*
G75*
G02*
X156210000Y-136000000I-2650000J0D01*
G01*
%TO.C,C17*%
X174867967Y-115277631D02*
X175390471Y-115277631D01*
X174867967Y-116747631D02*
X175390471Y-116747631D01*
%TO.C,24V_5V_Buck_ISO1*%
D12*
X125095000Y-74077500D02*
X149225000Y-74077500D01*
X149225000Y-83602500D01*
X125095000Y-83602500D01*
X125095000Y-74077500D01*
%TD*%
M02*
