%TF.GenerationSoftware,KiCad,Pcbnew,9.0.6*%
%TF.CreationDate,2026-03-02T19:10:46-06:00*%
%TF.ProjectId,1000W Controller,31303030-5720-4436-9f6e-74726f6c6c65,rev?*%
%TF.SameCoordinates,Original*%
%TF.FileFunction,Paste,Top*%
%TF.FilePolarity,Positive*%
%FSLAX46Y46*%
G04 Gerber Fmt 4.6, Leading zero omitted, Abs format (unit mm)*
G04 Created by KiCad (PCBNEW 9.0.6) date 2026-03-02 19:10:46*
%MOMM*%
%LPD*%
G01*
G04 APERTURE LIST*
G04 Aperture macros list*
%AMRoundRect*
0 Rectangle with rounded corners*
0 $1 Rounding radius*
0 $2 $3 $4 $5 $6 $7 $8 $9 X,Y pos of 4 corners*
0 Add a 4 corners polygon primitive as box body*
4,1,4,$2,$3,$4,$5,$6,$7,$8,$9,$2,$3,0*
0 Add four circle primitives for the rounded corners*
1,1,$1+$1,$2,$3*
1,1,$1+$1,$4,$5*
1,1,$1+$1,$6,$7*
1,1,$1+$1,$8,$9*
0 Add four rect primitives between the rounded corners*
20,1,$1+$1,$2,$3,$4,$5,0*
20,1,$1+$1,$4,$5,$6,$7,0*
20,1,$1+$1,$6,$7,$8,$9,0*
20,1,$1+$1,$8,$9,$2,$3,0*%
G04 Aperture macros list end*
%ADD10RoundRect,0.250000X0.250000X0.475000X-0.250000X0.475000X-0.250000X-0.475000X0.250000X-0.475000X0*%
%ADD11RoundRect,0.250000X0.262500X0.450000X-0.262500X0.450000X-0.262500X-0.450000X0.262500X-0.450000X0*%
%ADD12RoundRect,0.250000X-0.250000X-0.475000X0.250000X-0.475000X0.250000X0.475000X-0.250000X0.475000X0*%
%ADD13RoundRect,0.250000X-0.262500X-0.450000X0.262500X-0.450000X0.262500X0.450000X-0.262500X0.450000X0*%
%ADD14RoundRect,0.162500X-1.012500X-0.162500X1.012500X-0.162500X1.012500X0.162500X-1.012500X0.162500X0*%
%ADD15RoundRect,0.150000X0.825000X0.150000X-0.825000X0.150000X-0.825000X-0.150000X0.825000X-0.150000X0*%
%ADD16RoundRect,0.250000X0.475000X-0.250000X0.475000X0.250000X-0.475000X0.250000X-0.475000X-0.250000X0*%
%ADD17RoundRect,0.150000X0.150000X-0.587500X0.150000X0.587500X-0.150000X0.587500X-0.150000X-0.587500X0*%
%ADD18RoundRect,0.250000X0.450000X-0.262500X0.450000X0.262500X-0.450000X0.262500X-0.450000X-0.262500X0*%
%ADD19RoundRect,0.250000X0.325000X1.100000X-0.325000X1.100000X-0.325000X-1.100000X0.325000X-1.100000X0*%
G04 APERTURE END LIST*
D10*
%TO.C,C14*%
X167386000Y-75438000D03*
X169286000Y-75438000D03*
%TD*%
D11*
%TO.C,R9*%
X163867500Y-75438000D03*
X165692500Y-75438000D03*
%TD*%
D12*
%TO.C,C16*%
X162174000Y-75438000D03*
X160274000Y-75438000D03*
%TD*%
D13*
%TO.C,R10*%
X155480025Y-83820000D03*
X157305025Y-83820000D03*
%TD*%
D14*
%TO.C,U7*%
X159735222Y-77470000D03*
X159735222Y-80010000D03*
X159735222Y-82550000D03*
X159735222Y-85090000D03*
X168785222Y-85090000D03*
X168785222Y-82550000D03*
X168785222Y-80010000D03*
X168785222Y-77470000D03*
%TD*%
D12*
%TO.C,C19*%
X165866938Y-95505642D03*
X167766938Y-95505642D03*
%TD*%
D11*
%TO.C,R5*%
X124356500Y-116332000D03*
X122531500Y-116332000D03*
%TD*%
D15*
%TO.C,U6*%
X132015000Y-114935000D03*
X132015000Y-113665000D03*
X132015000Y-112395000D03*
X132015000Y-111125000D03*
X127065000Y-111125000D03*
X127065000Y-112395000D03*
X127065000Y-113665000D03*
X127065000Y-114935000D03*
%TD*%
D16*
%TO.C,C3*%
X124460000Y-101280000D03*
X124460000Y-99380000D03*
%TD*%
D15*
%TO.C,U1*%
X132015000Y-95885000D03*
X132015000Y-94615000D03*
X132015000Y-93345000D03*
X132015000Y-92075000D03*
X127065000Y-92075000D03*
X127065000Y-93345000D03*
X127065000Y-94615000D03*
X127065000Y-95885000D03*
%TD*%
D11*
%TO.C,R8*%
X124356500Y-97536000D03*
X122531500Y-97536000D03*
%TD*%
D16*
%TO.C,C7*%
X134620000Y-101280000D03*
X134620000Y-99380000D03*
%TD*%
D11*
%TO.C,R12*%
X176019757Y-118552631D03*
X174194757Y-118552631D03*
%TD*%
D16*
%TO.C,C6*%
X134620000Y-107630000D03*
X134620000Y-105730000D03*
%TD*%
D11*
%TO.C,R13*%
X164179857Y-97530134D03*
X162354857Y-97530134D03*
%TD*%
D16*
%TO.C,C1*%
X124460000Y-113980000D03*
X124460000Y-112080000D03*
%TD*%
D11*
%TO.C,R16*%
X166700322Y-92671480D03*
X164875322Y-92671480D03*
%TD*%
D13*
%TO.C,R15*%
X160637078Y-92511886D03*
X162462078Y-92511886D03*
%TD*%
D11*
%TO.C,R3*%
X171047533Y-122407357D03*
X169222533Y-122407357D03*
%TD*%
D12*
%TO.C,C15*%
X155418512Y-75215033D03*
X157318512Y-75215033D03*
%TD*%
D17*
%TO.C,Q2*%
X164837822Y-90131480D03*
X166737822Y-90131480D03*
X165787822Y-88256480D03*
%TD*%
D15*
%TO.C,U4*%
X132015000Y-102235000D03*
X132015000Y-100965000D03*
X132015000Y-99695000D03*
X132015000Y-98425000D03*
X127065000Y-98425000D03*
X127065000Y-99695000D03*
X127065000Y-100965000D03*
X127065000Y-102235000D03*
%TD*%
D13*
%TO.C,R4*%
X128627500Y-89408000D03*
X130452500Y-89408000D03*
%TD*%
D11*
%TO.C,R7*%
X124322445Y-103806848D03*
X122497445Y-103806848D03*
%TD*%
D16*
%TO.C,C2*%
X124460000Y-107630000D03*
X124460000Y-105730000D03*
%TD*%
D15*
%TO.C,U5*%
X132015000Y-108585000D03*
X132015000Y-107315000D03*
X132015000Y-106045000D03*
X132015000Y-104775000D03*
X127065000Y-104775000D03*
X127065000Y-106045000D03*
X127065000Y-107315000D03*
X127065000Y-108585000D03*
%TD*%
D12*
%TO.C,C18*%
X162310938Y-95505642D03*
X164210938Y-95505642D03*
%TD*%
D16*
%TO.C,C4*%
X124460000Y-94930000D03*
X124460000Y-93030000D03*
%TD*%
D18*
%TO.C,R11*%
X169640839Y-88758128D03*
X169640839Y-86933128D03*
%TD*%
D11*
%TO.C,R14*%
X167729438Y-97537642D03*
X165904438Y-97537642D03*
%TD*%
%TO.C,R6*%
X124356500Y-110236000D03*
X122531500Y-110236000D03*
%TD*%
%TO.C,R1*%
X170990529Y-128258649D03*
X169165529Y-128258649D03*
%TD*%
D16*
%TO.C,C5*%
X134620000Y-113980000D03*
X134620000Y-112080000D03*
%TD*%
D10*
%TO.C,C12*%
X157334701Y-77563882D03*
X155434701Y-77563882D03*
%TD*%
%TO.C,C11*%
X129671758Y-127913938D03*
X127771758Y-127913938D03*
%TD*%
D17*
%TO.C,Q3*%
X160599578Y-90147386D03*
X162499578Y-90147386D03*
X161549578Y-88272386D03*
%TD*%
D19*
%TO.C,C13*%
X134571000Y-85852000D03*
X131621000Y-85852000D03*
%TD*%
D16*
%TO.C,C8*%
X134620000Y-94930000D03*
X134620000Y-93030000D03*
%TD*%
D11*
%TO.C,R2*%
X171000726Y-126089535D03*
X169175726Y-126089535D03*
%TD*%
D12*
%TO.C,C17*%
X174179219Y-116012631D03*
X176079219Y-116012631D03*
%TD*%
M02*
