%TF.GenerationSoftware,KiCad,Pcbnew,9.0.6*%
%TF.CreationDate,2026-03-02T19:10:46-06:00*%
%TF.ProjectId,1000W Controller,31303030-5720-4436-9f6e-74726f6c6c65,rev?*%
%TF.SameCoordinates,Original*%
%TF.FileFunction,Copper,L3,Inr*%
%TF.FilePolarity,Positive*%
%FSLAX46Y46*%
G04 Gerber Fmt 4.6, Leading zero omitted, Abs format (unit mm)*
G04 Created by KiCad (PCBNEW 9.0.6) date 2026-03-02 19:10:46*
%MOMM*%
%LPD*%
G01*
G04 APERTURE LIST*
G04 Aperture macros list*
%AMRoundRect*
0 Rectangle with rounded corners*
0 $1 Rounding radius*
0 $2 $3 $4 $5 $6 $7 $8 $9 X,Y pos of 4 corners*
0 Add a 4 corners polygon primitive as box body*
4,1,4,$2,$3,$4,$5,$6,$7,$8,$9,$2,$3,0*
0 Add four circle primitives for the rounded corners*
1,1,$1+$1,$2,$3*
1,1,$1+$1,$4,$5*
1,1,$1+$1,$6,$7*
1,1,$1+$1,$8,$9*
0 Add four rect primitives between the rounded corners*
20,1,$1+$1,$2,$3,$4,$5,0*
20,1,$1+$1,$4,$5,$6,$7,0*
20,1,$1+$1,$6,$7,$8,$9,0*
20,1,$1+$1,$8,$9,$2,$3,0*%
G04 Aperture macros list end*
%TA.AperFunction,ComponentPad*%
%ADD10RoundRect,0.250000X-0.600000X-0.725000X0.600000X-0.725000X0.600000X0.725000X-0.600000X0.725000X0*%
%TD*%
%TA.AperFunction,ComponentPad*%
%ADD11O,1.700000X1.950000*%
%TD*%
%TA.AperFunction,ComponentPad*%
%ADD12RoundRect,0.250000X0.845000X-0.620000X0.845000X0.620000X-0.845000X0.620000X-0.845000X-0.620000X0*%
%TD*%
%TA.AperFunction,ComponentPad*%
%ADD13O,2.190000X1.740000*%
%TD*%
%TA.AperFunction,ComponentPad*%
%ADD14RoundRect,0.250000X-0.600000X-0.750000X0.600000X-0.750000X0.600000X0.750000X-0.600000X0.750000X0*%
%TD*%
%TA.AperFunction,ComponentPad*%
%ADD15O,1.700000X2.000000*%
%TD*%
%TA.AperFunction,ComponentPad*%
%ADD16R,1.500000X2.300000*%
%TD*%
%TA.AperFunction,ComponentPad*%
%ADD17O,1.500000X2.300000*%
%TD*%
%TA.AperFunction,ComponentPad*%
%ADD18RoundRect,0.250000X-0.750000X0.750000X-0.750000X-0.750000X0.750000X-0.750000X0.750000X0.750000X0*%
%TD*%
%TA.AperFunction,ComponentPad*%
%ADD19C,2.000000*%
%TD*%
%TA.AperFunction,ComponentPad*%
%ADD20RoundRect,0.250000X0.725000X-0.600000X0.725000X0.600000X-0.725000X0.600000X-0.725000X-0.600000X0*%
%TD*%
%TA.AperFunction,ComponentPad*%
%ADD21O,1.950000X1.700000*%
%TD*%
%TA.AperFunction,ComponentPad*%
%ADD22RoundRect,0.250000X-1.050000X1.050000X-1.050000X-1.050000X1.050000X-1.050000X1.050000X1.050000X0*%
%TD*%
%TA.AperFunction,ComponentPad*%
%ADD23C,2.600000*%
%TD*%
%TA.AperFunction,ComponentPad*%
%ADD24R,2.000000X1.905000*%
%TD*%
%TA.AperFunction,ComponentPad*%
%ADD25O,2.000000X1.905000*%
%TD*%
%TA.AperFunction,ComponentPad*%
%ADD26RoundRect,0.250000X-1.350000X-1.350000X1.350000X-1.350000X1.350000X1.350000X-1.350000X1.350000X0*%
%TD*%
%TA.AperFunction,ComponentPad*%
%ADD27C,3.200000*%
%TD*%
%TA.AperFunction,ComponentPad*%
%ADD28RoundRect,0.250000X1.050000X0.550000X-1.050000X0.550000X-1.050000X-0.550000X1.050000X-0.550000X0*%
%TD*%
%TA.AperFunction,ComponentPad*%
%ADD29O,2.600000X1.600000*%
%TD*%
%TA.AperFunction,ComponentPad*%
%ADD30C,1.778000*%
%TD*%
%TA.AperFunction,ViaPad*%
%ADD31C,0.600000*%
%TD*%
%TA.AperFunction,ViaPad*%
%ADD32C,0.500000*%
%TD*%
%TA.AperFunction,Conductor*%
%ADD33C,0.250000*%
%TD*%
G04 APERTURE END LIST*
D10*
%TO.N,unconnected-(Encoder1-Pin_1-Pad1)*%
%TO.C,Encoder1*%
X162720000Y-101600000D03*
D11*
%TO.N,Net-(Encoder1-Pin_2)*%
X165220000Y-101600000D03*
%TO.N,Net-(Encoder1-Pin_3)*%
X167720000Y-101600000D03*
%TO.N,+ISO_5V*%
X170220000Y-101600000D03*
%TO.N,ISO_GND*%
X172720000Y-101600000D03*
%TD*%
D10*
%TO.N,Net-(Switch1-Pin_1)*%
%TO.C,Switch1*%
X162680000Y-116840000D03*
D11*
%TO.N,ISO_GND*%
X165180000Y-116840000D03*
X167680000Y-116840000D03*
%TO.N,Net-(Feather_M4_Express1-A3)*%
X170180000Y-116840000D03*
%TD*%
D12*
%TO.N,GND*%
%TO.C,Rad_Fan_3*%
X106680000Y-113665000D03*
D13*
%TO.N,+24V*%
X106680000Y-111125000D03*
%TO.N,Net-(Rad_Fan_1-Pin_3)*%
X106680000Y-108585000D03*
%TO.N,unconnected-(Rad_Fan_3-Pin_4-Pad4)*%
X106680000Y-106045000D03*
%TD*%
D14*
%TO.N,ISO_GND*%
%TO.C,LED_TEMP1*%
X162600000Y-124460000D03*
D15*
%TO.N,Net-(Feather_M4_Express1-A0)*%
X165100000Y-124460000D03*
%TD*%
D16*
%TO.N,+24V*%
%TO.C,U2*%
X125095000Y-124460000D03*
D17*
%TO.N,GND*%
X127635000Y-124460000D03*
%TO.N,+3.3V*%
X130175000Y-124460000D03*
%TD*%
D10*
%TO.N,ISO_GND*%
%TO.C,Display1*%
X162680000Y-109220000D03*
D11*
%TO.N,+ISO_3.3V*%
X165180000Y-109220000D03*
%TO.N,Net-(Display1-Pin_3)*%
X167680000Y-109220000D03*
%TO.N,Net-(Display1-Pin_4)*%
X170180000Y-109220000D03*
%TD*%
D18*
%TO.N,+24V*%
%TO.C,C9*%
X119380000Y-77007323D03*
D19*
%TO.N,GND*%
X119380000Y-82007323D03*
%TD*%
D12*
%TO.N,GND*%
%TO.C,Aux_Fan_1*%
X106680000Y-125095000D03*
D13*
%TO.N,+24V*%
X106680000Y-122555000D03*
%TO.N,Net-(Aux_Fan_1-Pin_3)*%
X106680000Y-120015000D03*
%TO.N,Net-(Aux_Fan_1-Pin_4)*%
X106680000Y-117475000D03*
%TD*%
D12*
%TO.N,GND*%
%TO.C,Pump_1*%
X116840000Y-125095000D03*
D13*
%TO.N,+24V*%
X116840000Y-122555000D03*
%TO.N,Net-(Pump_1-Pin_3)*%
X116840000Y-120015000D03*
%TO.N,Net-(Pump_1-Pin_4)*%
X116840000Y-117475000D03*
%TD*%
D20*
%TO.N,ISO_GND*%
%TO.C,UHP-1500*%
X173736000Y-94328000D03*
D21*
%TO.N,Net-(U7-CANL)*%
X173736000Y-91828000D03*
%TO.N,Net-(U7-CANH)*%
X173736000Y-89328000D03*
%TO.N,Net-(Q2-D)*%
X173736000Y-86828000D03*
%TO.N,Net-(Q2-S)*%
X173736000Y-84328000D03*
%TD*%
D12*
%TO.N,GND*%
%TO.C,PSU_Fan1*%
X116860000Y-113665000D03*
D13*
%TO.N,+24V*%
X116860000Y-111125000D03*
%TO.N,Net-(PSU_Fan1-Pin_3)*%
X116860000Y-108585000D03*
%TO.N,Net-(PSU_Fan1-Pin_4)*%
X116860000Y-106045000D03*
%TD*%
D22*
%TO.N,GND*%
%TO.C, + 24V -*%
X107950000Y-84455000D03*
D23*
%TO.N,+24V*%
X107950000Y-89535000D03*
%TD*%
D12*
%TO.N,GND*%
%TO.C,Rad_Fan_2*%
X116840000Y-102235000D03*
D13*
%TO.N,+24V*%
X116840000Y-99695000D03*
%TO.N,Net-(Rad_Fan_1-Pin_3)*%
X116840000Y-97155000D03*
%TO.N,unconnected-(Rad_Fan_2-Pin_4-Pad4)*%
X116840000Y-94615000D03*
%TD*%
D14*
%TO.N,ISO_GND*%
%TO.C,WATER_TEMP1*%
X162600000Y-132080000D03*
D15*
%TO.N,Net-(Feather_M4_Express1-A1)*%
X165100000Y-132080000D03*
%TD*%
D24*
%TO.N,ISO_GND*%
%TO.C,U3*%
X151062733Y-76803668D03*
D25*
%TO.N,+ISO_3.3V*%
X151062733Y-79343668D03*
%TO.N,+ISO_5V*%
X151062733Y-81883668D03*
%TD*%
D12*
%TO.N,GND*%
%TO.C,Rad_Fan_1*%
X106680000Y-102235000D03*
D13*
%TO.N,+24V*%
X106680000Y-99695000D03*
%TO.N,Net-(Rad_Fan_1-Pin_3)*%
X106680000Y-97155000D03*
%TO.N,Net-(Rad_Fan_1-Pin_4)*%
X106680000Y-94615000D03*
%TD*%
D26*
%TO.N,+24V*%
%TO.C,D1*%
X114300000Y-132080000D03*
D27*
%TO.N,GND*%
X129540000Y-132080000D03*
%TD*%
D28*
%TO.N,unconnected-(Feather_M4_Express1-~{RESET}-Pad1)*%
%TO.C,Feather_M4_Express1*%
X157180000Y-129540000D03*
D29*
%TO.N,+ISO_3.3V*%
X157180000Y-127000000D03*
%TO.N,unconnected-(Feather_M4_Express1-AREF-Pad3)*%
X157180000Y-124460000D03*
%TO.N,ISO_GND*%
X157180000Y-121920000D03*
%TO.N,Net-(Feather_M4_Express1-A0)*%
X157180000Y-119380000D03*
%TO.N,Net-(Feather_M4_Express1-A1)*%
X157180000Y-116840000D03*
%TO.N,Net-(Feather_M4_Express1-A2)*%
X157180000Y-114300000D03*
%TO.N,Net-(Feather_M4_Express1-A3)*%
X157180000Y-111760000D03*
%TO.N,Net-(Display1-Pin_3)*%
X157180000Y-109220000D03*
%TO.N,Net-(Display1-Pin_4)*%
X157180000Y-106680000D03*
%TO.N,Net-(Feather_M4_Express1-SCK)*%
X157180000Y-104140000D03*
%TO.N,unconnected-(Feather_M4_Express1-MOSI-Pad12)*%
X157180000Y-101600000D03*
%TO.N,unconnected-(Feather_M4_Express1-MISO-Pad13)*%
X157180000Y-99060000D03*
%TO.N,Net-(Encoder1-Pin_3)*%
X157180000Y-96520000D03*
%TO.N,Net-(Encoder1-Pin_2)*%
X157180000Y-93980000D03*
%TO.N,Net-(Feather_M4_Express1-SPARE)*%
X157180000Y-91440000D03*
%TO.N,Net-(Feather_M4_Express1-SDA)*%
X137460000Y-91440000D03*
%TO.N,Net-(Feather_M4_Express1-SCL)*%
X137460000Y-93980000D03*
%TO.N,Net-(Feather_M4_Express1-D0)*%
X137460000Y-96520000D03*
%TO.N,Net-(Feather_M4_Express1-D1)*%
X137460000Y-99060000D03*
%TO.N,Net-(Feather_M4_Express1-D2)*%
X137460000Y-101600000D03*
%TO.N,Net-(Feather_M4_Express1-D3)*%
X137460000Y-104140000D03*
%TO.N,Net-(Feather_M4_Express1-D4)*%
X137460000Y-106680000D03*
%TO.N,Net-(Feather_M4_Express1-D5)*%
X137460000Y-109220000D03*
%TO.N,Net-(Feather_M4_Express1-D6)*%
X137460000Y-111760000D03*
%TO.N,unconnected-(Feather_M4_Express1-USB-Pad26)*%
X137460000Y-114300000D03*
%TO.N,unconnected-(Feather_M4_Express1-EN-Pad27)*%
X137460000Y-116840000D03*
%TO.N,unconnected-(Feather_M4_Express1-VBAT-Pad28)*%
X137460000Y-119380000D03*
%TD*%
D30*
%TO.N,GND*%
%TO.C,24V_5V_Buck_ISO1*%
X128270000Y-76617500D03*
%TO.N,+24V*%
X130810000Y-76617500D03*
%TO.N,unconnected-(24V_5V_Buck_ISO1-R.C.-Pad3)*%
X133350000Y-76617500D03*
%TO.N,+ISO_5V*%
X140970000Y-76617500D03*
%TO.N,ISO_GND*%
X143510000Y-76617500D03*
%TO.N,unconnected-(24V_5V_Buck_ISO1-N.C.-Pad8)*%
X146050000Y-76617500D03*
%TD*%
D31*
%TO.N,Net-(Aux_Fan_1-Pin_3)*%
X125730000Y-111760000D03*
%TO.N,Net-(Aux_Fan_1-Pin_4)*%
X125730000Y-114300000D03*
%TO.N,Net-(Rad_Fan_1-Pin_3)*%
X125730000Y-92710000D03*
%TO.N,Net-(Rad_Fan_1-Pin_4)*%
X125730000Y-95250000D03*
%TO.N,Net-(Pump_1-Pin_3)*%
X125730000Y-105410000D03*
%TO.N,Net-(Pump_1-Pin_4)*%
X125730000Y-107950000D03*
%TO.N,Net-(PSU_Fan1-Pin_4)*%
X125730000Y-101600000D03*
%TO.N,Net-(PSU_Fan1-Pin_3)*%
X125730000Y-99060000D03*
%TO.N,ISO_GND*%
X163002000Y-75438000D03*
X170368000Y-75438000D03*
X168269780Y-84244786D03*
X162353308Y-94033339D03*
X133096000Y-85852000D03*
X161290000Y-85090000D03*
D32*
X134623434Y-91955161D03*
X134628293Y-104701525D03*
X134637153Y-111041350D03*
X131479270Y-89393001D03*
X134636879Y-98301580D03*
%TO.N,+ISO_3.3V*%
X134613971Y-115017106D03*
X134612838Y-95995412D03*
X134664354Y-108631017D03*
D31*
X154231008Y-83445541D03*
X165887061Y-98847243D03*
D32*
X134643748Y-102362438D03*
D31*
X162353308Y-98800571D03*
X175215130Y-121875130D03*
D32*
%TO.N,GND*%
X123112775Y-93036443D03*
X123182569Y-112073475D03*
X123130043Y-105752748D03*
X127561470Y-89416183D03*
X123112775Y-99374679D03*
%TO.N,+3.3V*%
X123165061Y-113999458D03*
X123130283Y-101300662D03*
X123182569Y-107661222D03*
X123165301Y-94927409D03*
D31*
%TO.N,Net-(Q2-S)*%
X166061815Y-89897375D03*
%TO.N,Net-(Q2-D)*%
X166719890Y-87654146D03*
%TD*%
D33*
%TO.N,Net-(Pump_1-Pin_3)*%
X127258000Y-106938000D02*
X125730000Y-105410000D01*
X127258000Y-114295108D02*
X127258000Y-106938000D01*
X121538108Y-120015000D02*
X127258000Y-114295108D01*
X116840000Y-120015000D02*
X121538108Y-120015000D01*
%TO.N,Net-(Pump_1-Pin_4)*%
X126807000Y-109027000D02*
X125730000Y-107950000D01*
X126807000Y-114108298D02*
X126807000Y-109027000D01*
X123440298Y-117475000D02*
X126807000Y-114108298D01*
X116840000Y-117475000D02*
X123440298Y-117475000D01*
%TO.N,Net-(Aux_Fan_1-Pin_4)*%
X126356000Y-111500702D02*
X126356000Y-113674000D01*
X125989298Y-111134000D02*
X126356000Y-111500702D01*
X123307456Y-111134000D02*
X125989298Y-111134000D01*
X119580456Y-114861000D02*
X123307456Y-111134000D01*
X126356000Y-113674000D02*
X125984000Y-114046000D01*
X109294000Y-114861000D02*
X119580456Y-114861000D01*
X106680000Y-117475000D02*
X109294000Y-114861000D01*
%TO.N,Net-(Aux_Fan_1-Pin_3)*%
X124589931Y-111760000D02*
X125730000Y-111760000D01*
X120779931Y-115570000D02*
X124589931Y-111760000D01*
X106680000Y-120015000D02*
X111125000Y-115570000D01*
X111125000Y-115570000D02*
X120779931Y-115570000D01*
%TO.N,Net-(PSU_Fan1-Pin_4)*%
X126356000Y-98800702D02*
X126356000Y-100974000D01*
X125989298Y-98434000D02*
X126356000Y-98800702D01*
X125470702Y-98434000D02*
X125989298Y-98434000D01*
X123180040Y-100724662D02*
X125470702Y-98434000D01*
X126356000Y-100974000D02*
X125730000Y-101600000D01*
X122180338Y-100724662D02*
X123180040Y-100724662D01*
X116860000Y-106045000D02*
X122180338Y-100724662D01*
%TO.N,Net-(PSU_Fan1-Pin_3)*%
X125730000Y-99715000D02*
X125730000Y-99060000D01*
X116860000Y-108585000D02*
X125730000Y-99715000D01*
%TO.N,Net-(Rad_Fan_1-Pin_4)*%
X126356000Y-94624000D02*
X125730000Y-95250000D01*
X126356000Y-92450702D02*
X126356000Y-94624000D01*
X109285557Y-92009443D02*
X125914741Y-92009443D01*
X125914741Y-92009443D02*
X126356000Y-92450702D01*
X106680000Y-94615000D02*
X109285557Y-92009443D01*
%TO.N,Net-(Rad_Fan_1-Pin_3)*%
X125480443Y-92460443D02*
X121534557Y-92460443D01*
X121534557Y-92460443D02*
X116840000Y-97155000D01*
X125730000Y-92710000D02*
X125480443Y-92460443D01*
X105259000Y-98576000D02*
X105259000Y-107164000D01*
X105259000Y-107164000D02*
X106680000Y-108585000D01*
X106680000Y-97155000D02*
X105259000Y-98576000D01*
X106680000Y-97155000D02*
X116840000Y-97155000D01*
%TD*%
%TA.AperFunction,Conductor*%
%TO.N,ISO_GND*%
G36*
X167237370Y-116656657D02*
G01*
X167205000Y-116777465D01*
X167205000Y-116902535D01*
X167237370Y-117023343D01*
X167275854Y-117090000D01*
X165584146Y-117090000D01*
X165622630Y-117023343D01*
X165655000Y-116902535D01*
X165655000Y-116777465D01*
X165622630Y-116656657D01*
X165584146Y-116590000D01*
X167275854Y-116590000D01*
X167237370Y-116656657D01*
G37*
%TD.AperFunction*%
%TA.AperFunction,Conductor*%
G36*
X172307677Y-74187685D02*
G01*
X172328319Y-74204319D01*
X173360100Y-75236100D01*
X173393585Y-75297423D01*
X173388601Y-75367115D01*
X173346729Y-75423048D01*
X173334419Y-75431168D01*
X173130196Y-75549075D01*
X172922148Y-75708718D01*
X172736718Y-75894148D01*
X172577075Y-76102196D01*
X172445958Y-76329299D01*
X172445953Y-76329309D01*
X172345605Y-76571571D01*
X172345602Y-76571581D01*
X172277730Y-76824885D01*
X172243500Y-77084872D01*
X172243500Y-77347127D01*
X172261872Y-77486667D01*
X172277730Y-77607116D01*
X172345602Y-77860418D01*
X172345605Y-77860428D01*
X172445953Y-78102690D01*
X172445958Y-78102700D01*
X172577075Y-78329803D01*
X172736718Y-78537851D01*
X172736726Y-78537860D01*
X172922140Y-78723274D01*
X172922148Y-78723281D01*
X173130196Y-78882924D01*
X173357299Y-79014041D01*
X173357309Y-79014046D01*
X173599571Y-79114394D01*
X173599581Y-79114398D01*
X173852884Y-79182270D01*
X174112880Y-79216500D01*
X174112887Y-79216500D01*
X174375113Y-79216500D01*
X174375120Y-79216500D01*
X174635116Y-79182270D01*
X174888419Y-79114398D01*
X175130697Y-79014043D01*
X175357803Y-78882924D01*
X175565851Y-78723282D01*
X175565855Y-78723277D01*
X175565860Y-78723274D01*
X175751274Y-78537860D01*
X175751277Y-78537855D01*
X175751282Y-78537851D01*
X175910924Y-78329803D01*
X176028832Y-78125578D01*
X176079397Y-78077365D01*
X176148004Y-78064141D01*
X176212869Y-78090109D01*
X176223899Y-78099899D01*
X177255681Y-79131681D01*
X177289166Y-79193004D01*
X177292000Y-79219362D01*
X177292000Y-130076637D01*
X177272315Y-130143676D01*
X177255681Y-130164318D01*
X176223899Y-131196100D01*
X176162576Y-131229585D01*
X176092884Y-131224601D01*
X176036951Y-131182729D01*
X176028831Y-131170419D01*
X175910924Y-130966196D01*
X175751281Y-130758148D01*
X175751274Y-130758140D01*
X175565860Y-130572726D01*
X175565851Y-130572718D01*
X175357803Y-130413075D01*
X175130700Y-130281958D01*
X175130690Y-130281953D01*
X174888428Y-130181605D01*
X174888421Y-130181603D01*
X174888419Y-130181602D01*
X174635116Y-130113730D01*
X174577339Y-130106123D01*
X174375127Y-130079500D01*
X174375120Y-130079500D01*
X174112880Y-130079500D01*
X174112872Y-130079500D01*
X173881772Y-130109926D01*
X173852884Y-130113730D01*
X173625336Y-130174701D01*
X173599581Y-130181602D01*
X173599571Y-130181605D01*
X173357309Y-130281953D01*
X173357299Y-130281958D01*
X173130196Y-130413075D01*
X172922148Y-130572718D01*
X172736718Y-130758148D01*
X172577075Y-130966196D01*
X172445958Y-131193299D01*
X172445953Y-131193309D01*
X172345605Y-131435571D01*
X172345602Y-131435581D01*
X172277730Y-131688885D01*
X172243500Y-131948872D01*
X172243500Y-132211127D01*
X172270123Y-132413339D01*
X172277730Y-132471116D01*
X172332655Y-132676100D01*
X172345602Y-132724418D01*
X172345605Y-132724428D01*
X172445953Y-132966690D01*
X172445958Y-132966700D01*
X172577075Y-133193803D01*
X172736718Y-133401851D01*
X172736726Y-133401860D01*
X172922140Y-133587274D01*
X172922148Y-133587281D01*
X173130196Y-133746924D01*
X173334419Y-133864831D01*
X173382634Y-133915398D01*
X173395858Y-133984004D01*
X173369890Y-134048869D01*
X173360100Y-134059899D01*
X172328319Y-135091681D01*
X172266996Y-135125166D01*
X172240638Y-135128000D01*
X135252000Y-135128000D01*
X135184961Y-135108315D01*
X135139206Y-135055511D01*
X135128000Y-135004000D01*
X135128000Y-131280013D01*
X161250000Y-131280013D01*
X161250000Y-131830000D01*
X162166988Y-131830000D01*
X162134075Y-131887007D01*
X162100000Y-132014174D01*
X162100000Y-132145826D01*
X162134075Y-132272993D01*
X162166988Y-132330000D01*
X161250001Y-132330000D01*
X161250001Y-132879986D01*
X161260494Y-132982697D01*
X161315641Y-133149119D01*
X161315643Y-133149124D01*
X161407684Y-133298345D01*
X161531654Y-133422315D01*
X161680875Y-133514356D01*
X161680880Y-133514358D01*
X161847302Y-133569505D01*
X161847309Y-133569506D01*
X161950019Y-133579999D01*
X162349999Y-133579999D01*
X162350000Y-133579998D01*
X162350000Y-132513012D01*
X162407007Y-132545925D01*
X162534174Y-132580000D01*
X162665826Y-132580000D01*
X162792993Y-132545925D01*
X162850000Y-132513012D01*
X162850000Y-133579999D01*
X163249972Y-133579999D01*
X163249986Y-133579998D01*
X163352697Y-133569505D01*
X163519119Y-133514358D01*
X163519124Y-133514356D01*
X163668345Y-133422315D01*
X163792315Y-133298345D01*
X163884356Y-133149124D01*
X163884358Y-133149119D01*
X163939505Y-132982697D01*
X163939506Y-132982689D01*
X163949318Y-132886652D01*
X163975714Y-132821960D01*
X164032895Y-132781809D01*
X164102706Y-132778945D01*
X164162982Y-132814279D01*
X164172991Y-132826365D01*
X164260586Y-132946928D01*
X164383072Y-133069414D01*
X164523212Y-133171232D01*
X164677555Y-133249873D01*
X164842299Y-133303402D01*
X165013389Y-133330500D01*
X165013390Y-133330500D01*
X165186610Y-133330500D01*
X165186611Y-133330500D01*
X165357701Y-133303402D01*
X165522445Y-133249873D01*
X165676788Y-133171232D01*
X165816928Y-133069414D01*
X165939414Y-132946928D01*
X166041232Y-132806788D01*
X166119873Y-132652445D01*
X166173402Y-132487701D01*
X166200500Y-132316611D01*
X166200500Y-131843389D01*
X166173402Y-131672299D01*
X166119873Y-131507555D01*
X166041232Y-131353212D01*
X165939414Y-131213072D01*
X165816928Y-131090586D01*
X165676788Y-130988768D01*
X165522445Y-130910127D01*
X165357701Y-130856598D01*
X165357699Y-130856597D01*
X165357698Y-130856597D01*
X165226271Y-130835781D01*
X165186611Y-130829500D01*
X165013389Y-130829500D01*
X164973728Y-130835781D01*
X164842302Y-130856597D01*
X164677552Y-130910128D01*
X164523211Y-130988768D01*
X164443256Y-131046859D01*
X164383072Y-131090586D01*
X164383070Y-131090588D01*
X164383069Y-131090588D01*
X164260588Y-131213069D01*
X164260581Y-131213078D01*
X164172992Y-131333632D01*
X164117662Y-131376298D01*
X164048049Y-131382276D01*
X163986254Y-131349670D01*
X163951897Y-131288831D01*
X163949317Y-131273347D01*
X163939506Y-131177303D01*
X163884358Y-131010880D01*
X163884356Y-131010875D01*
X163792315Y-130861654D01*
X163668345Y-130737684D01*
X163519124Y-130645643D01*
X163519119Y-130645641D01*
X163352697Y-130590494D01*
X163352690Y-130590493D01*
X163249986Y-130580000D01*
X162850000Y-130580000D01*
X162850000Y-131646988D01*
X162792993Y-131614075D01*
X162665826Y-131580000D01*
X162534174Y-131580000D01*
X162407007Y-131614075D01*
X162350000Y-131646988D01*
X162350000Y-130580000D01*
X161950028Y-130580000D01*
X161950012Y-130580001D01*
X161847302Y-130590494D01*
X161680880Y-130645641D01*
X161680875Y-130645643D01*
X161531654Y-130737684D01*
X161407684Y-130861654D01*
X161315643Y-131010875D01*
X161315641Y-131010880D01*
X161260494Y-131177302D01*
X161260493Y-131177309D01*
X161250000Y-131280013D01*
X135128000Y-131280013D01*
X135128000Y-128935730D01*
X155679500Y-128935730D01*
X155679500Y-130144269D01*
X155682353Y-130174699D01*
X155682353Y-130174701D01*
X155719885Y-130281957D01*
X155727207Y-130302882D01*
X155807850Y-130412150D01*
X155917118Y-130492793D01*
X155959845Y-130507744D01*
X156045299Y-130537646D01*
X156075730Y-130540500D01*
X156075734Y-130540500D01*
X158284270Y-130540500D01*
X158314699Y-130537646D01*
X158314701Y-130537646D01*
X158378790Y-130515219D01*
X158442882Y-130492793D01*
X158552150Y-130412150D01*
X158632793Y-130302882D01*
X158658470Y-130229500D01*
X158677646Y-130174701D01*
X158677646Y-130174699D01*
X158680500Y-130144269D01*
X158680500Y-128935730D01*
X158677646Y-128905300D01*
X158677646Y-128905298D01*
X158632793Y-128777119D01*
X158632792Y-128777117D01*
X158552150Y-128667850D01*
X158442882Y-128587207D01*
X158442880Y-128587206D01*
X158314700Y-128542353D01*
X158284270Y-128539500D01*
X158284266Y-128539500D01*
X156075734Y-128539500D01*
X156075730Y-128539500D01*
X156045300Y-128542353D01*
X156045298Y-128542353D01*
X155917119Y-128587206D01*
X155917117Y-128587207D01*
X155807850Y-128667850D01*
X155727207Y-128777117D01*
X155727206Y-128777119D01*
X155682353Y-128905298D01*
X155682353Y-128905300D01*
X155679500Y-128935730D01*
X135128000Y-128935730D01*
X135128000Y-127098543D01*
X155679499Y-127098543D01*
X155717947Y-127291829D01*
X155717950Y-127291839D01*
X155793364Y-127473907D01*
X155793371Y-127473920D01*
X155902860Y-127637781D01*
X155902863Y-127637785D01*
X156042214Y-127777136D01*
X156042218Y-127777139D01*
X156206079Y-127886628D01*
X156206092Y-127886635D01*
X156388160Y-127962049D01*
X156388165Y-127962051D01*
X156388169Y-127962051D01*
X156388170Y-127962052D01*
X156581456Y-128000500D01*
X156581459Y-128000500D01*
X157778543Y-128000500D01*
X157908582Y-127974632D01*
X157971835Y-127962051D01*
X158153914Y-127886632D01*
X158317782Y-127777139D01*
X158457139Y-127637782D01*
X158566632Y-127473914D01*
X158642051Y-127291835D01*
X158680500Y-127098541D01*
X158680500Y-126901459D01*
X158680500Y-126901456D01*
X158642052Y-126708170D01*
X158642051Y-126708169D01*
X158642051Y-126708165D01*
X158642049Y-126708160D01*
X158566635Y-126526092D01*
X158566628Y-126526079D01*
X158457139Y-126362218D01*
X158457136Y-126362214D01*
X158317785Y-126222863D01*
X158317781Y-126222860D01*
X158153920Y-126113371D01*
X158153907Y-126113364D01*
X157971839Y-126037950D01*
X157971829Y-126037947D01*
X157778543Y-125999500D01*
X157778541Y-125999500D01*
X156581459Y-125999500D01*
X156581457Y-125999500D01*
X156388170Y-126037947D01*
X156388160Y-126037950D01*
X156206092Y-126113364D01*
X156206079Y-126113371D01*
X156042218Y-126222860D01*
X156042214Y-126222863D01*
X155902863Y-126362214D01*
X155902860Y-126362218D01*
X155793371Y-126526079D01*
X155793364Y-126526092D01*
X155717950Y-126708160D01*
X155717947Y-126708170D01*
X155679500Y-126901456D01*
X155679500Y-126901459D01*
X155679500Y-127098541D01*
X155679500Y-127098543D01*
X155679499Y-127098543D01*
X135128000Y-127098543D01*
X135128000Y-121670000D01*
X155403391Y-121670000D01*
X157046988Y-121670000D01*
X157014075Y-121727007D01*
X156980000Y-121854174D01*
X156980000Y-121985826D01*
X157014075Y-122112993D01*
X157046988Y-122170000D01*
X155403391Y-122170000D01*
X155412009Y-122224413D01*
X155475244Y-122419029D01*
X155568140Y-122601349D01*
X155688417Y-122766894D01*
X155688417Y-122766895D01*
X155833104Y-122911582D01*
X155998650Y-123031859D01*
X156180968Y-123124755D01*
X156375582Y-123187990D01*
X156564268Y-123217875D01*
X156627403Y-123247804D01*
X156664334Y-123307116D01*
X156663336Y-123376978D01*
X156624726Y-123435211D01*
X156569062Y-123461965D01*
X156388170Y-123497947D01*
X156388160Y-123497950D01*
X156206092Y-123573364D01*
X156206079Y-123573371D01*
X156042218Y-123682860D01*
X156042214Y-123682863D01*
X155902863Y-123822214D01*
X155902860Y-123822218D01*
X155793371Y-123986079D01*
X155793364Y-123986092D01*
X155717950Y-124168160D01*
X155717947Y-124168170D01*
X155679500Y-124361456D01*
X155679500Y-124361459D01*
X155679500Y-124558541D01*
X155679500Y-124558543D01*
X155679499Y-124558543D01*
X155717947Y-124751829D01*
X155717950Y-124751839D01*
X155793364Y-124933907D01*
X155793371Y-124933920D01*
X155902860Y-125097781D01*
X155902863Y-125097785D01*
X156042214Y-125237136D01*
X156042218Y-125237139D01*
X156206079Y-125346628D01*
X156206092Y-125346635D01*
X156388160Y-125422049D01*
X156388165Y-125422051D01*
X156388169Y-125422051D01*
X156388170Y-125422052D01*
X156581456Y-125460500D01*
X156581459Y-125460500D01*
X157778543Y-125460500D01*
X157908582Y-125434632D01*
X157971835Y-125422051D01*
X158153914Y-125346632D01*
X158317782Y-125237139D01*
X158457139Y-125097782D01*
X158566632Y-124933914D01*
X158642051Y-124751835D01*
X158653036Y-124696610D01*
X158665402Y-124634446D01*
X158665402Y-124634445D01*
X158680499Y-124558545D01*
X158680500Y-124558543D01*
X158680500Y-124361456D01*
X158642052Y-124168170D01*
X158642051Y-124168169D01*
X158642051Y-124168165D01*
X158597207Y-124059901D01*
X158566635Y-123986092D01*
X158566628Y-123986079D01*
X158457139Y-123822218D01*
X158457136Y-123822214D01*
X158317785Y-123682863D01*
X158317781Y-123682860D01*
X158283588Y-123660013D01*
X161250000Y-123660013D01*
X161250000Y-124210000D01*
X162166988Y-124210000D01*
X162134075Y-124267007D01*
X162100000Y-124394174D01*
X162100000Y-124525826D01*
X162134075Y-124652993D01*
X162166988Y-124710000D01*
X161250001Y-124710000D01*
X161250001Y-125259986D01*
X161260494Y-125362697D01*
X161315641Y-125529119D01*
X161315643Y-125529124D01*
X161407684Y-125678345D01*
X161531654Y-125802315D01*
X161680875Y-125894356D01*
X161680880Y-125894358D01*
X161847302Y-125949505D01*
X161847309Y-125949506D01*
X161950019Y-125959999D01*
X162349999Y-125959999D01*
X162350000Y-125959998D01*
X162350000Y-124893012D01*
X162407007Y-124925925D01*
X162534174Y-124960000D01*
X162665826Y-124960000D01*
X162792993Y-124925925D01*
X162850000Y-124893012D01*
X162850000Y-125959999D01*
X163249972Y-125959999D01*
X163249986Y-125959998D01*
X163352697Y-125949505D01*
X163519119Y-125894358D01*
X163519124Y-125894356D01*
X163668345Y-125802315D01*
X163792315Y-125678345D01*
X163884356Y-125529124D01*
X163884358Y-125529119D01*
X163939505Y-125362697D01*
X163939506Y-125362689D01*
X163949318Y-125266652D01*
X163975714Y-125201960D01*
X164032895Y-125161809D01*
X164102706Y-125158945D01*
X164162982Y-125194279D01*
X164172991Y-125206365D01*
X164260586Y-125326928D01*
X164383072Y-125449414D01*
X164523212Y-125551232D01*
X164677555Y-125629873D01*
X164842299Y-125683402D01*
X165013389Y-125710500D01*
X165013390Y-125710500D01*
X165186610Y-125710500D01*
X165186611Y-125710500D01*
X165357701Y-125683402D01*
X165522445Y-125629873D01*
X165676788Y-125551232D01*
X165816928Y-125449414D01*
X165939414Y-125326928D01*
X166041232Y-125186788D01*
X166119873Y-125032445D01*
X166173402Y-124867701D01*
X166200500Y-124696611D01*
X166200500Y-124223389D01*
X166173402Y-124052299D01*
X166119873Y-123887555D01*
X166041232Y-123733212D01*
X165939414Y-123593072D01*
X165816928Y-123470586D01*
X165676788Y-123368768D01*
X165522445Y-123290127D01*
X165357701Y-123236598D01*
X165357699Y-123236597D01*
X165357698Y-123236597D01*
X165226271Y-123215781D01*
X165186611Y-123209500D01*
X165013389Y-123209500D01*
X164973728Y-123215781D01*
X164842302Y-123236597D01*
X164677552Y-123290128D01*
X164523211Y-123368768D01*
X164449645Y-123422218D01*
X164383072Y-123470586D01*
X164383070Y-123470588D01*
X164383069Y-123470588D01*
X164260588Y-123593069D01*
X164260581Y-123593078D01*
X164172992Y-123713632D01*
X164117662Y-123756298D01*
X164048049Y-123762276D01*
X163986254Y-123729670D01*
X163951897Y-123668831D01*
X163949317Y-123653347D01*
X163939506Y-123557303D01*
X163884358Y-123390880D01*
X163884356Y-123390875D01*
X163792315Y-123241654D01*
X163668345Y-123117684D01*
X163519124Y-123025643D01*
X163519119Y-123025641D01*
X163352697Y-122970494D01*
X163352690Y-122970493D01*
X163249986Y-122960000D01*
X162850000Y-122960000D01*
X162850000Y-124026988D01*
X162792993Y-123994075D01*
X162665826Y-123960000D01*
X162534174Y-123960000D01*
X162407007Y-123994075D01*
X162350000Y-124026988D01*
X162350000Y-122960000D01*
X161950028Y-122960000D01*
X161950012Y-122960001D01*
X161847302Y-122970494D01*
X161680880Y-123025641D01*
X161680875Y-123025643D01*
X161531654Y-123117684D01*
X161407684Y-123241654D01*
X161315643Y-123390875D01*
X161315641Y-123390880D01*
X161260494Y-123557302D01*
X161260493Y-123557309D01*
X161250000Y-123660013D01*
X158283588Y-123660013D01*
X158153920Y-123573371D01*
X158153907Y-123573364D01*
X157971839Y-123497950D01*
X157971829Y-123497947D01*
X157790937Y-123461965D01*
X157729026Y-123429580D01*
X157694452Y-123368864D01*
X157698192Y-123299095D01*
X157739059Y-123242423D01*
X157795731Y-123217875D01*
X157984417Y-123187990D01*
X158179031Y-123124755D01*
X158361349Y-123031859D01*
X158526894Y-122911582D01*
X158526895Y-122911582D01*
X158671582Y-122766895D01*
X158671582Y-122766894D01*
X158791859Y-122601349D01*
X158884755Y-122419029D01*
X158947990Y-122224413D01*
X158956609Y-122170000D01*
X157913012Y-122170000D01*
X157945925Y-122112993D01*
X157980000Y-121985826D01*
X157980000Y-121854174D01*
X157966195Y-121802655D01*
X174664630Y-121802655D01*
X174664630Y-121947605D01*
X174702146Y-122087615D01*
X174702147Y-122087618D01*
X174774618Y-122213141D01*
X174774620Y-122213143D01*
X174774621Y-122213145D01*
X174877115Y-122315639D01*
X174877116Y-122315640D01*
X174877118Y-122315641D01*
X175002641Y-122388112D01*
X175002642Y-122388112D01*
X175002645Y-122388114D01*
X175142655Y-122425630D01*
X175142658Y-122425630D01*
X175287602Y-122425630D01*
X175287605Y-122425630D01*
X175427615Y-122388114D01*
X175553145Y-122315639D01*
X175655639Y-122213145D01*
X175728114Y-122087615D01*
X175765630Y-121947605D01*
X175765630Y-121802655D01*
X175728114Y-121662645D01*
X175700944Y-121615586D01*
X175655641Y-121537118D01*
X175655636Y-121537112D01*
X175553147Y-121434623D01*
X175553141Y-121434618D01*
X175427618Y-121362147D01*
X175427619Y-121362147D01*
X175416136Y-121359070D01*
X175287605Y-121324630D01*
X175142655Y-121324630D01*
X175014123Y-121359070D01*
X175002641Y-121362147D01*
X174877118Y-121434618D01*
X174877112Y-121434623D01*
X174774623Y-121537112D01*
X174774618Y-121537118D01*
X174702147Y-121662641D01*
X174702146Y-121662645D01*
X174664630Y-121802655D01*
X157966195Y-121802655D01*
X157945925Y-121727007D01*
X157913012Y-121670000D01*
X158956609Y-121670000D01*
X158947990Y-121615586D01*
X158884755Y-121420970D01*
X158791859Y-121238650D01*
X158671582Y-121073105D01*
X158671582Y-121073104D01*
X158526895Y-120928417D01*
X158361349Y-120808140D01*
X158179031Y-120715244D01*
X157984417Y-120652009D01*
X157795731Y-120622124D01*
X157732596Y-120592194D01*
X157695665Y-120532883D01*
X157696663Y-120463020D01*
X157735273Y-120404788D01*
X157790938Y-120378034D01*
X157971835Y-120342051D01*
X158153914Y-120266632D01*
X158317782Y-120157139D01*
X158457139Y-120017782D01*
X158566632Y-119853914D01*
X158642051Y-119671835D01*
X158680500Y-119478541D01*
X158680500Y-119281459D01*
X158680500Y-119281456D01*
X158642052Y-119088170D01*
X158642051Y-119088169D01*
X158642051Y-119088165D01*
X158642049Y-119088160D01*
X158566635Y-118906092D01*
X158566628Y-118906079D01*
X158457139Y-118742218D01*
X158457136Y-118742214D01*
X158317785Y-118602863D01*
X158317781Y-118602860D01*
X158153920Y-118493371D01*
X158153907Y-118493364D01*
X157971839Y-118417950D01*
X157971829Y-118417947D01*
X157778543Y-118379500D01*
X157778541Y-118379500D01*
X156581459Y-118379500D01*
X156581457Y-118379500D01*
X156388170Y-118417947D01*
X156388160Y-118417950D01*
X156206092Y-118493364D01*
X156206079Y-118493371D01*
X156042218Y-118602860D01*
X156042214Y-118602863D01*
X155902863Y-118742214D01*
X155902860Y-118742218D01*
X155793371Y-118906079D01*
X155793364Y-118906092D01*
X155717950Y-119088160D01*
X155717947Y-119088170D01*
X155679500Y-119281456D01*
X155679500Y-119281459D01*
X155679500Y-119478541D01*
X155679500Y-119478543D01*
X155679499Y-119478543D01*
X155717947Y-119671829D01*
X155717950Y-119671839D01*
X155793364Y-119853907D01*
X155793371Y-119853920D01*
X155902860Y-120017781D01*
X155902863Y-120017785D01*
X156042214Y-120157136D01*
X156042218Y-120157139D01*
X156206079Y-120266628D01*
X156206092Y-120266635D01*
X156388160Y-120342049D01*
X156388165Y-120342051D01*
X156520674Y-120368409D01*
X156569061Y-120378034D01*
X156630972Y-120410419D01*
X156665546Y-120471134D01*
X156661807Y-120540904D01*
X156620940Y-120597576D01*
X156564269Y-120622124D01*
X156375581Y-120652010D01*
X156180968Y-120715244D01*
X155998650Y-120808140D01*
X155833105Y-120928417D01*
X155833104Y-120928417D01*
X155688417Y-121073104D01*
X155688417Y-121073105D01*
X155568140Y-121238650D01*
X155475244Y-121420970D01*
X155412009Y-121615586D01*
X155403391Y-121670000D01*
X135128000Y-121670000D01*
X135128000Y-119478543D01*
X135959499Y-119478543D01*
X135997947Y-119671829D01*
X135997950Y-119671839D01*
X136073364Y-119853907D01*
X136073371Y-119853920D01*
X136182860Y-120017781D01*
X136182863Y-120017785D01*
X136322214Y-120157136D01*
X136322218Y-120157139D01*
X136486079Y-120266628D01*
X136486092Y-120266635D01*
X136668160Y-120342049D01*
X136668165Y-120342051D01*
X136668169Y-120342051D01*
X136668170Y-120342052D01*
X136861456Y-120380500D01*
X136861459Y-120380500D01*
X138058543Y-120380500D01*
X138188582Y-120354632D01*
X138251835Y-120342051D01*
X138433914Y-120266632D01*
X138597782Y-120157139D01*
X138737139Y-120017782D01*
X138846632Y-119853914D01*
X138922051Y-119671835D01*
X138960500Y-119478541D01*
X138960500Y-119281459D01*
X138960500Y-119281456D01*
X138922052Y-119088170D01*
X138922051Y-119088169D01*
X138922051Y-119088165D01*
X138922049Y-119088160D01*
X138846635Y-118906092D01*
X138846628Y-118906079D01*
X138737139Y-118742218D01*
X138737136Y-118742214D01*
X138597785Y-118602863D01*
X138597781Y-118602860D01*
X138433920Y-118493371D01*
X138433907Y-118493364D01*
X138251839Y-118417950D01*
X138251829Y-118417947D01*
X138058543Y-118379500D01*
X138058541Y-118379500D01*
X136861459Y-118379500D01*
X136861457Y-118379500D01*
X136668170Y-118417947D01*
X136668160Y-118417950D01*
X136486092Y-118493364D01*
X136486079Y-118493371D01*
X136322218Y-118602860D01*
X136322214Y-118602863D01*
X136182863Y-118742214D01*
X136182860Y-118742218D01*
X136073371Y-118906079D01*
X136073364Y-118906092D01*
X135997950Y-119088160D01*
X135997947Y-119088170D01*
X135959500Y-119281456D01*
X135959500Y-119281459D01*
X135959500Y-119478541D01*
X135959500Y-119478543D01*
X135959499Y-119478543D01*
X135128000Y-119478543D01*
X135128000Y-116938543D01*
X135959499Y-116938543D01*
X135997947Y-117131829D01*
X135997950Y-117131839D01*
X136073364Y-117313907D01*
X136073371Y-117313920D01*
X136182860Y-117477781D01*
X136182863Y-117477785D01*
X136322214Y-117617136D01*
X136322218Y-117617139D01*
X136486079Y-117726628D01*
X136486092Y-117726635D01*
X136668160Y-117802049D01*
X136668165Y-117802051D01*
X136668169Y-117802051D01*
X136668170Y-117802052D01*
X136861456Y-117840500D01*
X136861459Y-117840500D01*
X138058543Y-117840500D01*
X138188582Y-117814632D01*
X138251835Y-117802051D01*
X138433914Y-117726632D01*
X138597782Y-117617139D01*
X138737139Y-117477782D01*
X138846632Y-117313914D01*
X138922051Y-117131835D01*
X138960500Y-116938543D01*
X155679499Y-116938543D01*
X155717947Y-117131829D01*
X155717950Y-117131839D01*
X155793364Y-117313907D01*
X155793371Y-117313920D01*
X155902860Y-117477781D01*
X155902863Y-117477785D01*
X156042214Y-117617136D01*
X156042218Y-117617139D01*
X156206079Y-117726628D01*
X156206092Y-117726635D01*
X156388160Y-117802049D01*
X156388165Y-117802051D01*
X156388169Y-117802051D01*
X156388170Y-117802052D01*
X156581456Y-117840500D01*
X156581459Y-117840500D01*
X157778543Y-117840500D01*
X157908582Y-117814632D01*
X157971835Y-117802051D01*
X158153914Y-117726632D01*
X158317782Y-117617139D01*
X158457139Y-117477782D01*
X158566632Y-117313914D01*
X158642051Y-117131835D01*
X158680500Y-116938541D01*
X158680500Y-116741459D01*
X158680500Y-116741456D01*
X158642052Y-116548170D01*
X158642051Y-116548169D01*
X158642051Y-116548165D01*
X158604415Y-116457302D01*
X158566635Y-116366092D01*
X158566628Y-116366079D01*
X158457139Y-116202218D01*
X158457136Y-116202214D01*
X158322057Y-116067135D01*
X161579500Y-116067135D01*
X161579500Y-117612870D01*
X161579501Y-117612876D01*
X161585908Y-117672483D01*
X161636202Y-117807328D01*
X161636206Y-117807335D01*
X161722452Y-117922544D01*
X161722455Y-117922547D01*
X161837664Y-118008793D01*
X161837671Y-118008797D01*
X161972517Y-118059091D01*
X161972516Y-118059091D01*
X161979444Y-118059835D01*
X162032127Y-118065500D01*
X163327872Y-118065499D01*
X163387483Y-118059091D01*
X163522331Y-118008796D01*
X163637546Y-117922546D01*
X163723796Y-117807331D01*
X163774091Y-117672483D01*
X163774091Y-117672481D01*
X163775874Y-117664938D01*
X163779117Y-117665704D01*
X163800035Y-117615172D01*
X163857419Y-117575311D01*
X163927243Y-117572802D01*
X163987340Y-117608441D01*
X164007089Y-117636662D01*
X164025379Y-117672557D01*
X164150272Y-117844459D01*
X164150276Y-117844464D01*
X164300535Y-117994723D01*
X164300540Y-117994727D01*
X164472442Y-118119620D01*
X164661782Y-118216095D01*
X164863871Y-118281757D01*
X164930000Y-118292231D01*
X164930000Y-117244145D01*
X164996657Y-117282630D01*
X165117465Y-117315000D01*
X165242535Y-117315000D01*
X165363343Y-117282630D01*
X165430000Y-117244145D01*
X165430000Y-118292230D01*
X165496126Y-118281757D01*
X165496129Y-118281757D01*
X165698217Y-118216095D01*
X165887557Y-118119620D01*
X166059459Y-117994727D01*
X166059464Y-117994723D01*
X166209727Y-117844460D01*
X166329682Y-117679355D01*
X166385011Y-117636689D01*
X166454625Y-117630710D01*
X166516420Y-117663315D01*
X166530318Y-117679355D01*
X166650272Y-117844460D01*
X166800535Y-117994723D01*
X166800540Y-117994727D01*
X166972442Y-118119620D01*
X167161782Y-118216095D01*
X167363871Y-118281757D01*
X167430000Y-118292231D01*
X167430000Y-117244145D01*
X167496657Y-117282630D01*
X167617465Y-117315000D01*
X167742535Y-117315000D01*
X167863343Y-117282630D01*
X167930000Y-117244145D01*
X167930000Y-118292230D01*
X167996126Y-118281757D01*
X167996129Y-118281757D01*
X168198217Y-118216095D01*
X168387557Y-118119620D01*
X168559459Y-117994727D01*
X168559464Y-117994723D01*
X168709723Y-117844464D01*
X168709727Y-117844459D01*
X168834620Y-117672557D01*
X168931094Y-117483219D01*
X168946768Y-117434978D01*
X168986205Y-117377302D01*
X169050563Y-117350103D01*
X169119409Y-117362016D01*
X169170886Y-117409259D01*
X169175185Y-117416999D01*
X169206157Y-117477785D01*
X169238768Y-117541788D01*
X169340586Y-117681928D01*
X169463072Y-117804414D01*
X169603212Y-117906232D01*
X169757555Y-117984873D01*
X169922299Y-118038402D01*
X170093389Y-118065500D01*
X170093390Y-118065500D01*
X170266610Y-118065500D01*
X170266611Y-118065500D01*
X170437701Y-118038402D01*
X170602445Y-117984873D01*
X170756788Y-117906232D01*
X170896928Y-117804414D01*
X171019414Y-117681928D01*
X171121232Y-117541788D01*
X171199873Y-117387445D01*
X171253402Y-117222701D01*
X171280500Y-117051611D01*
X171280500Y-116628389D01*
X171253402Y-116457299D01*
X171199873Y-116292555D01*
X171121232Y-116138212D01*
X171019414Y-115998072D01*
X170896928Y-115875586D01*
X170756788Y-115773768D01*
X170602445Y-115695127D01*
X170437701Y-115641598D01*
X170437699Y-115641597D01*
X170437698Y-115641597D01*
X170306271Y-115620781D01*
X170266611Y-115614500D01*
X170093389Y-115614500D01*
X170053728Y-115620781D01*
X169922302Y-115641597D01*
X169757552Y-115695128D01*
X169603211Y-115773768D01*
X169523256Y-115831859D01*
X169463072Y-115875586D01*
X169463070Y-115875588D01*
X169463069Y-115875588D01*
X169340588Y-115998069D01*
X169340588Y-115998070D01*
X169340586Y-115998072D01*
X169303375Y-116049289D01*
X169238768Y-116138211D01*
X169175185Y-116263000D01*
X169127210Y-116313796D01*
X169059389Y-116330591D01*
X168993254Y-116308053D01*
X168949803Y-116253338D01*
X168946768Y-116245022D01*
X168931093Y-116196778D01*
X168834620Y-116007442D01*
X168709727Y-115835540D01*
X168709723Y-115835535D01*
X168559464Y-115685276D01*
X168559459Y-115685272D01*
X168387557Y-115560379D01*
X168198215Y-115463903D01*
X167996124Y-115398241D01*
X167930000Y-115387768D01*
X167930000Y-116435854D01*
X167863343Y-116397370D01*
X167742535Y-116365000D01*
X167617465Y-116365000D01*
X167496657Y-116397370D01*
X167430000Y-116435854D01*
X167430000Y-115387768D01*
X167429999Y-115387768D01*
X167363875Y-115398241D01*
X167161784Y-115463903D01*
X166972442Y-115560379D01*
X166800540Y-115685272D01*
X166800535Y-115685276D01*
X166650276Y-115835535D01*
X166650272Y-115835540D01*
X166530318Y-116000644D01*
X166474988Y-116043310D01*
X166405375Y-116049289D01*
X166343580Y-116016684D01*
X166329682Y-116000644D01*
X166209727Y-115835540D01*
X166209723Y-115835535D01*
X166059464Y-115685276D01*
X166059459Y-115685272D01*
X165887557Y-115560379D01*
X165698215Y-115463903D01*
X165496124Y-115398241D01*
X165430000Y-115387768D01*
X165430000Y-116435854D01*
X165363343Y-116397370D01*
X165242535Y-116365000D01*
X165117465Y-116365000D01*
X164996657Y-116397370D01*
X164930000Y-116435854D01*
X164930000Y-115387768D01*
X164929999Y-115387768D01*
X164863875Y-115398241D01*
X164661784Y-115463903D01*
X164472442Y-115560379D01*
X164300540Y-115685272D01*
X164300535Y-115685276D01*
X164150276Y-115835535D01*
X164150272Y-115835540D01*
X164025377Y-116007444D01*
X164007087Y-116043339D01*
X163959112Y-116094133D01*
X163891290Y-116110927D01*
X163825156Y-116088388D01*
X163781706Y-116033672D01*
X163776976Y-116014807D01*
X163775876Y-116015068D01*
X163774092Y-116007520D01*
X163771527Y-116000644D01*
X163725766Y-115877950D01*
X163723797Y-115872671D01*
X163723793Y-115872664D01*
X163637547Y-115757455D01*
X163637544Y-115757452D01*
X163522335Y-115671206D01*
X163522328Y-115671202D01*
X163387482Y-115620908D01*
X163387483Y-115620908D01*
X163327883Y-115614501D01*
X163327881Y-115614500D01*
X163327873Y-115614500D01*
X163327864Y-115614500D01*
X162032129Y-115614500D01*
X162032123Y-115614501D01*
X161972516Y-115620908D01*
X161837671Y-115671202D01*
X161837664Y-115671206D01*
X161722455Y-115757452D01*
X161722452Y-115757455D01*
X161636206Y-115872664D01*
X161636202Y-115872671D01*
X161585908Y-116007517D01*
X161579501Y-116067116D01*
X161579500Y-116067135D01*
X158322057Y-116067135D01*
X158317785Y-116062863D01*
X158317781Y-116062860D01*
X158153920Y-115953371D01*
X158153907Y-115953364D01*
X157971839Y-115877950D01*
X157971829Y-115877947D01*
X157778543Y-115839500D01*
X157778541Y-115839500D01*
X156581459Y-115839500D01*
X156581457Y-115839500D01*
X156388170Y-115877947D01*
X156388160Y-115877950D01*
X156206092Y-115953364D01*
X156206079Y-115953371D01*
X156042218Y-116062860D01*
X156042214Y-116062863D01*
X155902863Y-116202214D01*
X155902860Y-116202218D01*
X155793371Y-116366079D01*
X155793364Y-116366092D01*
X155717950Y-116548160D01*
X155717947Y-116548170D01*
X155679500Y-116741456D01*
X155679500Y-116741459D01*
X155679500Y-116938541D01*
X155679500Y-116938543D01*
X155679499Y-116938543D01*
X138960500Y-116938543D01*
X138960500Y-116938541D01*
X138960500Y-116741459D01*
X138960500Y-116741456D01*
X138922052Y-116548170D01*
X138922051Y-116548169D01*
X138922051Y-116548165D01*
X138884415Y-116457302D01*
X138846635Y-116366092D01*
X138846628Y-116366079D01*
X138737139Y-116202218D01*
X138737136Y-116202214D01*
X138597785Y-116062863D01*
X138597781Y-116062860D01*
X138433920Y-115953371D01*
X138433907Y-115953364D01*
X138251839Y-115877950D01*
X138251829Y-115877947D01*
X138058543Y-115839500D01*
X138058541Y-115839500D01*
X136861459Y-115839500D01*
X136861457Y-115839500D01*
X136668170Y-115877947D01*
X136668160Y-115877950D01*
X136486092Y-115953364D01*
X136486079Y-115953371D01*
X136322218Y-116062860D01*
X136322214Y-116062863D01*
X136182863Y-116202214D01*
X136182860Y-116202218D01*
X136073371Y-116366079D01*
X136073364Y-116366092D01*
X135997950Y-116548160D01*
X135997947Y-116548170D01*
X135959500Y-116741456D01*
X135959500Y-116741459D01*
X135959500Y-116938541D01*
X135959500Y-116938543D01*
X135959499Y-116938543D01*
X135128000Y-116938543D01*
X135128000Y-116332000D01*
X130172000Y-116332000D01*
X130104961Y-116312315D01*
X130059206Y-116259511D01*
X130048000Y-116208000D01*
X130048000Y-114951214D01*
X134113471Y-114951214D01*
X134113471Y-115082997D01*
X134147579Y-115210293D01*
X134177461Y-115262049D01*
X134213471Y-115324420D01*
X134306657Y-115417606D01*
X134420785Y-115483498D01*
X134548079Y-115517606D01*
X134548081Y-115517606D01*
X134679861Y-115517606D01*
X134679863Y-115517606D01*
X134807157Y-115483498D01*
X134921285Y-115417606D01*
X135014471Y-115324420D01*
X135080363Y-115210292D01*
X135114471Y-115082998D01*
X135114471Y-114951214D01*
X135080363Y-114823920D01*
X135014471Y-114709792D01*
X134921285Y-114616606D01*
X134864221Y-114583660D01*
X134807158Y-114550714D01*
X134743510Y-114533660D01*
X134679863Y-114516606D01*
X134548079Y-114516606D01*
X134420783Y-114550714D01*
X134306657Y-114616606D01*
X134306654Y-114616608D01*
X134213473Y-114709789D01*
X134213471Y-114709792D01*
X134147579Y-114823918D01*
X134113471Y-114951214D01*
X130048000Y-114951214D01*
X130048000Y-114398543D01*
X135959499Y-114398543D01*
X135997947Y-114591829D01*
X135997950Y-114591839D01*
X136073364Y-114773907D01*
X136073371Y-114773920D01*
X136182860Y-114937781D01*
X136182863Y-114937785D01*
X136322214Y-115077136D01*
X136322218Y-115077139D01*
X136486079Y-115186628D01*
X136486092Y-115186635D01*
X136668160Y-115262049D01*
X136668165Y-115262051D01*
X136668169Y-115262051D01*
X136668170Y-115262052D01*
X136861456Y-115300500D01*
X136861459Y-115300500D01*
X138058543Y-115300500D01*
X138188582Y-115274632D01*
X138251835Y-115262051D01*
X138433914Y-115186632D01*
X138597782Y-115077139D01*
X138737139Y-114937782D01*
X138846632Y-114773914D01*
X138922051Y-114591835D01*
X138960500Y-114398543D01*
X155679499Y-114398543D01*
X155717947Y-114591829D01*
X155717950Y-114591839D01*
X155793364Y-114773907D01*
X155793371Y-114773920D01*
X155902860Y-114937781D01*
X155902863Y-114937785D01*
X156042214Y-115077136D01*
X156042218Y-115077139D01*
X156206079Y-115186628D01*
X156206092Y-115186635D01*
X156388160Y-115262049D01*
X156388165Y-115262051D01*
X156388169Y-115262051D01*
X156388170Y-115262052D01*
X156581456Y-115300500D01*
X156581459Y-115300500D01*
X157778543Y-115300500D01*
X157908582Y-115274632D01*
X157971835Y-115262051D01*
X158153914Y-115186632D01*
X158317782Y-115077139D01*
X158457139Y-114937782D01*
X158566632Y-114773914D01*
X158642051Y-114591835D01*
X158680500Y-114398541D01*
X158680500Y-114201459D01*
X158680500Y-114201456D01*
X158642052Y-114008170D01*
X158642051Y-114008169D01*
X158642051Y-114008165D01*
X158642049Y-114008160D01*
X158566635Y-113826092D01*
X158566628Y-113826079D01*
X158457139Y-113662218D01*
X158457136Y-113662214D01*
X158317785Y-113522863D01*
X158317781Y-113522860D01*
X158153920Y-113413371D01*
X158153907Y-113413364D01*
X157971839Y-113337950D01*
X157971829Y-113337947D01*
X157778543Y-113299500D01*
X157778541Y-113299500D01*
X156581459Y-113299500D01*
X156581457Y-113299500D01*
X156388170Y-113337947D01*
X156388160Y-113337950D01*
X156206092Y-113413364D01*
X156206079Y-113413371D01*
X156042218Y-113522860D01*
X156042214Y-113522863D01*
X155902863Y-113662214D01*
X155902860Y-113662218D01*
X155793371Y-113826079D01*
X155793364Y-113826092D01*
X155717950Y-114008160D01*
X155717947Y-114008170D01*
X155679500Y-114201456D01*
X155679500Y-114201459D01*
X155679500Y-114398541D01*
X155679500Y-114398543D01*
X155679499Y-114398543D01*
X138960500Y-114398543D01*
X138960500Y-114398541D01*
X138960500Y-114201459D01*
X138960500Y-114201456D01*
X138922052Y-114008170D01*
X138922051Y-114008169D01*
X138922051Y-114008165D01*
X138922049Y-114008160D01*
X138846635Y-113826092D01*
X138846628Y-113826079D01*
X138737139Y-113662218D01*
X138737136Y-113662214D01*
X138597785Y-113522863D01*
X138597781Y-113522860D01*
X138433920Y-113413371D01*
X138433907Y-113413364D01*
X138251839Y-113337950D01*
X138251829Y-113337947D01*
X138058543Y-113299500D01*
X138058541Y-113299500D01*
X136861459Y-113299500D01*
X136861457Y-113299500D01*
X136668170Y-113337947D01*
X136668160Y-113337950D01*
X136486092Y-113413364D01*
X136486079Y-113413371D01*
X136322218Y-113522860D01*
X136322214Y-113522863D01*
X136182863Y-113662214D01*
X136182860Y-113662218D01*
X136073371Y-113826079D01*
X136073364Y-113826092D01*
X135997950Y-114008160D01*
X135997947Y-114008170D01*
X135959500Y-114201456D01*
X135959500Y-114201459D01*
X135959500Y-114398541D01*
X135959500Y-114398543D01*
X135959499Y-114398543D01*
X130048000Y-114398543D01*
X130048000Y-111858543D01*
X135959499Y-111858543D01*
X135997947Y-112051829D01*
X135997950Y-112051839D01*
X136073364Y-112233907D01*
X136073371Y-112233920D01*
X136182860Y-112397781D01*
X136182863Y-112397785D01*
X136322214Y-112537136D01*
X136322218Y-112537139D01*
X136486079Y-112646628D01*
X136486092Y-112646635D01*
X136668160Y-112722049D01*
X136668165Y-112722051D01*
X136668169Y-112722051D01*
X136668170Y-112722052D01*
X136861456Y-112760500D01*
X136861459Y-112760500D01*
X138058543Y-112760500D01*
X138188582Y-112734632D01*
X138251835Y-112722051D01*
X138433914Y-112646632D01*
X138597782Y-112537139D01*
X138737139Y-112397782D01*
X138846632Y-112233914D01*
X138922051Y-112051835D01*
X138960500Y-111858543D01*
X155679499Y-111858543D01*
X155717947Y-112051829D01*
X155717950Y-112051839D01*
X155793364Y-112233907D01*
X155793371Y-112233920D01*
X155902860Y-112397781D01*
X155902863Y-112397785D01*
X156042214Y-112537136D01*
X156042218Y-112537139D01*
X156206079Y-112646628D01*
X156206092Y-112646635D01*
X156388160Y-112722049D01*
X156388165Y-112722051D01*
X156388169Y-112722051D01*
X156388170Y-112722052D01*
X156581456Y-112760500D01*
X156581459Y-112760500D01*
X157778543Y-112760500D01*
X157908582Y-112734632D01*
X157971835Y-112722051D01*
X158153914Y-112646632D01*
X158317782Y-112537139D01*
X158457139Y-112397782D01*
X158566632Y-112233914D01*
X158642051Y-112051835D01*
X158680500Y-111858541D01*
X158680500Y-111661459D01*
X158680500Y-111661456D01*
X158642052Y-111468170D01*
X158642051Y-111468169D01*
X158642051Y-111468165D01*
X158642049Y-111468160D01*
X158566635Y-111286092D01*
X158566628Y-111286079D01*
X158457139Y-111122218D01*
X158457136Y-111122214D01*
X158317785Y-110982863D01*
X158317781Y-110982860D01*
X158153920Y-110873371D01*
X158153907Y-110873364D01*
X157971839Y-110797950D01*
X157971829Y-110797947D01*
X157778543Y-110759500D01*
X157778541Y-110759500D01*
X156581459Y-110759500D01*
X156581457Y-110759500D01*
X156388170Y-110797947D01*
X156388160Y-110797950D01*
X156206092Y-110873364D01*
X156206079Y-110873371D01*
X156042218Y-110982860D01*
X156042214Y-110982863D01*
X155902863Y-111122214D01*
X155902860Y-111122218D01*
X155793371Y-111286079D01*
X155793364Y-111286092D01*
X155717950Y-111468160D01*
X155717947Y-111468170D01*
X155679500Y-111661456D01*
X155679500Y-111661459D01*
X155679500Y-111858541D01*
X155679500Y-111858543D01*
X155679499Y-111858543D01*
X138960500Y-111858543D01*
X138960500Y-111858541D01*
X138960500Y-111661459D01*
X138960500Y-111661456D01*
X138922052Y-111468170D01*
X138922051Y-111468169D01*
X138922051Y-111468165D01*
X138922049Y-111468160D01*
X138846635Y-111286092D01*
X138846628Y-111286079D01*
X138737139Y-111122218D01*
X138737136Y-111122214D01*
X138597785Y-110982863D01*
X138597781Y-110982860D01*
X138433920Y-110873371D01*
X138433907Y-110873364D01*
X138251839Y-110797950D01*
X138251829Y-110797947D01*
X138058543Y-110759500D01*
X138058541Y-110759500D01*
X136861459Y-110759500D01*
X136861457Y-110759500D01*
X136668170Y-110797947D01*
X136668160Y-110797950D01*
X136486092Y-110873364D01*
X136486079Y-110873371D01*
X136322218Y-110982860D01*
X136322214Y-110982863D01*
X136182863Y-111122214D01*
X136182860Y-111122218D01*
X136073371Y-111286079D01*
X136073364Y-111286092D01*
X135997950Y-111468160D01*
X135997947Y-111468170D01*
X135959500Y-111661456D01*
X135959500Y-111661459D01*
X135959500Y-111858541D01*
X135959500Y-111858543D01*
X135959499Y-111858543D01*
X130048000Y-111858543D01*
X130048000Y-109318543D01*
X135959499Y-109318543D01*
X135997947Y-109511829D01*
X135997950Y-109511839D01*
X136073364Y-109693907D01*
X136073371Y-109693920D01*
X136182860Y-109857781D01*
X136182863Y-109857785D01*
X136322214Y-109997136D01*
X136322218Y-109997139D01*
X136486079Y-110106628D01*
X136486092Y-110106635D01*
X136668160Y-110182049D01*
X136668165Y-110182051D01*
X136668169Y-110182051D01*
X136668170Y-110182052D01*
X136861456Y-110220500D01*
X136861459Y-110220500D01*
X138058543Y-110220500D01*
X138188582Y-110194632D01*
X138251835Y-110182051D01*
X138433914Y-110106632D01*
X138597782Y-109997139D01*
X138737139Y-109857782D01*
X138846632Y-109693914D01*
X138922051Y-109511835D01*
X138943632Y-109403343D01*
X138960500Y-109318543D01*
X155679499Y-109318543D01*
X155717947Y-109511829D01*
X155717950Y-109511839D01*
X155793364Y-109693907D01*
X155793371Y-109693920D01*
X155902860Y-109857781D01*
X155902863Y-109857785D01*
X156042214Y-109997136D01*
X156042218Y-109997139D01*
X156206079Y-110106628D01*
X156206092Y-110106635D01*
X156388160Y-110182049D01*
X156388165Y-110182051D01*
X156388169Y-110182051D01*
X156388170Y-110182052D01*
X156581456Y-110220500D01*
X156581459Y-110220500D01*
X157778543Y-110220500D01*
X157908582Y-110194632D01*
X157971835Y-110182051D01*
X158153914Y-110106632D01*
X158317782Y-109997139D01*
X158457139Y-109857782D01*
X158566632Y-109693914D01*
X158642051Y-109511835D01*
X158663632Y-109403343D01*
X158665402Y-109394446D01*
X158665402Y-109394445D01*
X158680499Y-109318545D01*
X158680500Y-109318543D01*
X158680500Y-109121456D01*
X158642052Y-108928170D01*
X158642051Y-108928169D01*
X158642051Y-108928165D01*
X158604415Y-108837302D01*
X158566635Y-108746092D01*
X158566628Y-108746079D01*
X158457139Y-108582218D01*
X158457136Y-108582214D01*
X158319935Y-108445013D01*
X161330000Y-108445013D01*
X161330000Y-108970000D01*
X162275854Y-108970000D01*
X162237370Y-109036657D01*
X162205000Y-109157465D01*
X162205000Y-109282535D01*
X162237370Y-109403343D01*
X162275854Y-109470000D01*
X161330001Y-109470000D01*
X161330001Y-109994986D01*
X161340494Y-110097697D01*
X161395641Y-110264119D01*
X161395643Y-110264124D01*
X161487684Y-110413345D01*
X161611654Y-110537315D01*
X161760875Y-110629356D01*
X161760880Y-110629358D01*
X161927302Y-110684505D01*
X161927309Y-110684506D01*
X162030019Y-110694999D01*
X162429999Y-110694999D01*
X162430000Y-110694998D01*
X162430000Y-109624145D01*
X162496657Y-109662630D01*
X162617465Y-109695000D01*
X162742535Y-109695000D01*
X162863343Y-109662630D01*
X162930000Y-109624145D01*
X162930000Y-110694999D01*
X163329972Y-110694999D01*
X163329986Y-110694998D01*
X163432697Y-110684505D01*
X163599119Y-110629358D01*
X163599124Y-110629356D01*
X163748345Y-110537315D01*
X163872315Y-110413345D01*
X163964356Y-110264124D01*
X163964358Y-110264119D01*
X164019505Y-110097697D01*
X164019506Y-110097689D01*
X164029318Y-110001652D01*
X164055714Y-109936960D01*
X164112895Y-109896809D01*
X164182706Y-109893945D01*
X164242982Y-109929279D01*
X164252991Y-109941365D01*
X164340586Y-110061928D01*
X164463072Y-110184414D01*
X164603212Y-110286232D01*
X164757555Y-110364873D01*
X164922299Y-110418402D01*
X165093389Y-110445500D01*
X165093390Y-110445500D01*
X165266610Y-110445500D01*
X165266611Y-110445500D01*
X165437701Y-110418402D01*
X165602445Y-110364873D01*
X165756788Y-110286232D01*
X165896928Y-110184414D01*
X166019414Y-110061928D01*
X166121232Y-109921788D01*
X166199873Y-109767445D01*
X166253402Y-109602701D01*
X166280500Y-109431611D01*
X166280500Y-109008389D01*
X166579500Y-109008389D01*
X166579500Y-109431611D01*
X166606598Y-109602701D01*
X166660127Y-109767445D01*
X166738768Y-109921788D01*
X166840586Y-110061928D01*
X166963072Y-110184414D01*
X167103212Y-110286232D01*
X167257555Y-110364873D01*
X167422299Y-110418402D01*
X167593389Y-110445500D01*
X167593390Y-110445500D01*
X167766610Y-110445500D01*
X167766611Y-110445500D01*
X167937701Y-110418402D01*
X168102445Y-110364873D01*
X168256788Y-110286232D01*
X168396928Y-110184414D01*
X168519414Y-110061928D01*
X168621232Y-109921788D01*
X168699873Y-109767445D01*
X168753402Y-109602701D01*
X168780500Y-109431611D01*
X168780500Y-109008389D01*
X169079500Y-109008389D01*
X169079500Y-109431611D01*
X169106598Y-109602701D01*
X169160127Y-109767445D01*
X169238768Y-109921788D01*
X169340586Y-110061928D01*
X169463072Y-110184414D01*
X169603212Y-110286232D01*
X169757555Y-110364873D01*
X169922299Y-110418402D01*
X170093389Y-110445500D01*
X170093390Y-110445500D01*
X170266610Y-110445500D01*
X170266611Y-110445500D01*
X170437701Y-110418402D01*
X170602445Y-110364873D01*
X170756788Y-110286232D01*
X170896928Y-110184414D01*
X171019414Y-110061928D01*
X171121232Y-109921788D01*
X171199873Y-109767445D01*
X171253402Y-109602701D01*
X171280500Y-109431611D01*
X171280500Y-109008389D01*
X171253402Y-108837299D01*
X171199873Y-108672555D01*
X171121232Y-108518212D01*
X171019414Y-108378072D01*
X170896928Y-108255586D01*
X170756788Y-108153768D01*
X170602445Y-108075127D01*
X170437701Y-108021598D01*
X170437699Y-108021597D01*
X170437698Y-108021597D01*
X170306271Y-108000781D01*
X170266611Y-107994500D01*
X170093389Y-107994500D01*
X170053728Y-108000781D01*
X169922302Y-108021597D01*
X169757552Y-108075128D01*
X169603211Y-108153768D01*
X169523256Y-108211859D01*
X169463072Y-108255586D01*
X169463070Y-108255588D01*
X169463069Y-108255588D01*
X169340588Y-108378069D01*
X169340588Y-108378070D01*
X169340586Y-108378072D01*
X169340582Y-108378078D01*
X169238768Y-108518211D01*
X169160128Y-108672552D01*
X169160127Y-108672554D01*
X169160127Y-108672555D01*
X169152214Y-108696908D01*
X169106597Y-108837302D01*
X169106185Y-108839905D01*
X169079500Y-109008389D01*
X168780500Y-109008389D01*
X168753402Y-108837299D01*
X168699873Y-108672555D01*
X168621232Y-108518212D01*
X168519414Y-108378072D01*
X168396928Y-108255586D01*
X168256788Y-108153768D01*
X168102445Y-108075127D01*
X167937701Y-108021598D01*
X167937699Y-108021597D01*
X167937698Y-108021597D01*
X167806271Y-108000781D01*
X167766611Y-107994500D01*
X167593389Y-107994500D01*
X167553728Y-108000781D01*
X167422302Y-108021597D01*
X167257552Y-108075128D01*
X167103211Y-108153768D01*
X167023256Y-108211859D01*
X166963072Y-108255586D01*
X166963070Y-108255588D01*
X166963069Y-108255588D01*
X166840588Y-108378069D01*
X166840588Y-108378070D01*
X166840586Y-108378072D01*
X166840582Y-108378078D01*
X166738768Y-108518211D01*
X166660128Y-108672552D01*
X166660127Y-108672554D01*
X166660127Y-108672555D01*
X166652214Y-108696908D01*
X166606597Y-108837302D01*
X166606185Y-108839905D01*
X166579500Y-109008389D01*
X166280500Y-109008389D01*
X166253402Y-108837299D01*
X166199873Y-108672555D01*
X166121232Y-108518212D01*
X166019414Y-108378072D01*
X165896928Y-108255586D01*
X165756788Y-108153768D01*
X165602445Y-108075127D01*
X165437701Y-108021598D01*
X165437699Y-108021597D01*
X165437698Y-108021597D01*
X165306271Y-108000781D01*
X165266611Y-107994500D01*
X165093389Y-107994500D01*
X165053728Y-108000781D01*
X164922302Y-108021597D01*
X164757552Y-108075128D01*
X164603211Y-108153768D01*
X164523256Y-108211859D01*
X164463072Y-108255586D01*
X164463070Y-108255588D01*
X164463069Y-108255588D01*
X164340588Y-108378069D01*
X164340581Y-108378078D01*
X164252992Y-108498632D01*
X164197662Y-108541298D01*
X164128049Y-108547276D01*
X164066254Y-108514670D01*
X164031897Y-108453831D01*
X164029317Y-108438347D01*
X164019506Y-108342303D01*
X163964358Y-108175880D01*
X163964356Y-108175875D01*
X163872315Y-108026654D01*
X163748345Y-107902684D01*
X163599124Y-107810643D01*
X163599119Y-107810641D01*
X163432697Y-107755494D01*
X163432690Y-107755493D01*
X163329986Y-107745000D01*
X162930000Y-107745000D01*
X162930000Y-108815854D01*
X162863343Y-108777370D01*
X162742535Y-108745000D01*
X162617465Y-108745000D01*
X162496657Y-108777370D01*
X162430000Y-108815854D01*
X162430000Y-107745000D01*
X162030028Y-107745000D01*
X162030012Y-107745001D01*
X161927302Y-107755494D01*
X161760880Y-107810641D01*
X161760875Y-107810643D01*
X161611654Y-107902684D01*
X161487684Y-108026654D01*
X161395643Y-108175875D01*
X161395641Y-108175880D01*
X161340494Y-108342302D01*
X161340493Y-108342309D01*
X161330000Y-108445013D01*
X158319935Y-108445013D01*
X158317785Y-108442863D01*
X158317781Y-108442860D01*
X158153920Y-108333371D01*
X158153907Y-108333364D01*
X157971839Y-108257950D01*
X157971829Y-108257947D01*
X157778543Y-108219500D01*
X157778541Y-108219500D01*
X156581459Y-108219500D01*
X156581457Y-108219500D01*
X156388170Y-108257947D01*
X156388160Y-108257950D01*
X156206092Y-108333364D01*
X156206079Y-108333371D01*
X156042218Y-108442860D01*
X156042214Y-108442863D01*
X155902863Y-108582214D01*
X155902860Y-108582218D01*
X155793371Y-108746079D01*
X155793364Y-108746092D01*
X155717950Y-108928160D01*
X155717947Y-108928170D01*
X155679500Y-109121456D01*
X155679500Y-109121459D01*
X155679500Y-109318541D01*
X155679500Y-109318543D01*
X155679499Y-109318543D01*
X138960500Y-109318543D01*
X138960500Y-109121456D01*
X138922052Y-108928170D01*
X138922051Y-108928169D01*
X138922051Y-108928165D01*
X138884415Y-108837302D01*
X138846635Y-108746092D01*
X138846628Y-108746079D01*
X138737139Y-108582218D01*
X138737136Y-108582214D01*
X138597785Y-108442863D01*
X138597781Y-108442860D01*
X138433920Y-108333371D01*
X138433907Y-108333364D01*
X138251839Y-108257950D01*
X138251829Y-108257947D01*
X138058543Y-108219500D01*
X138058541Y-108219500D01*
X136861459Y-108219500D01*
X136861457Y-108219500D01*
X136668170Y-108257947D01*
X136668160Y-108257950D01*
X136486092Y-108333364D01*
X136486079Y-108333371D01*
X136322218Y-108442860D01*
X136322214Y-108442863D01*
X136182863Y-108582214D01*
X136182860Y-108582218D01*
X136073371Y-108746079D01*
X136073364Y-108746092D01*
X135997950Y-108928160D01*
X135997947Y-108928170D01*
X135959500Y-109121456D01*
X135959500Y-109121459D01*
X135959500Y-109318541D01*
X135959500Y-109318543D01*
X135959499Y-109318543D01*
X130048000Y-109318543D01*
X130048000Y-108565125D01*
X134163854Y-108565125D01*
X134163854Y-108696908D01*
X134197962Y-108824204D01*
X134230908Y-108881267D01*
X134263854Y-108938331D01*
X134357040Y-109031517D01*
X134471168Y-109097409D01*
X134598462Y-109131517D01*
X134598464Y-109131517D01*
X134730244Y-109131517D01*
X134730246Y-109131517D01*
X134857540Y-109097409D01*
X134971668Y-109031517D01*
X135064854Y-108938331D01*
X135130746Y-108824203D01*
X135164854Y-108696909D01*
X135164854Y-108565125D01*
X135130746Y-108437831D01*
X135064854Y-108323703D01*
X134971668Y-108230517D01*
X134914604Y-108197571D01*
X134857541Y-108164625D01*
X134793893Y-108147571D01*
X134730246Y-108130517D01*
X134598462Y-108130517D01*
X134471166Y-108164625D01*
X134357040Y-108230517D01*
X134357037Y-108230519D01*
X134263856Y-108323700D01*
X134263854Y-108323703D01*
X134197962Y-108437829D01*
X134163854Y-108565125D01*
X130048000Y-108565125D01*
X130048000Y-106778543D01*
X135959499Y-106778543D01*
X135997947Y-106971829D01*
X135997950Y-106971839D01*
X136073364Y-107153907D01*
X136073371Y-107153920D01*
X136182860Y-107317781D01*
X136182863Y-107317785D01*
X136322214Y-107457136D01*
X136322218Y-107457139D01*
X136486079Y-107566628D01*
X136486092Y-107566635D01*
X136668160Y-107642049D01*
X136668165Y-107642051D01*
X136668169Y-107642051D01*
X136668170Y-107642052D01*
X136861456Y-107680500D01*
X136861459Y-107680500D01*
X138058543Y-107680500D01*
X138188582Y-107654632D01*
X138251835Y-107642051D01*
X138433914Y-107566632D01*
X138597782Y-107457139D01*
X138737139Y-107317782D01*
X138846632Y-107153914D01*
X138922051Y-106971835D01*
X138960500Y-106778543D01*
X155679499Y-106778543D01*
X155717947Y-106971829D01*
X155717950Y-106971839D01*
X155793364Y-107153907D01*
X155793371Y-107153920D01*
X155902860Y-107317781D01*
X155902863Y-107317785D01*
X156042214Y-107457136D01*
X156042218Y-107457139D01*
X156206079Y-107566628D01*
X156206092Y-107566635D01*
X156388160Y-107642049D01*
X156388165Y-107642051D01*
X156388169Y-107642051D01*
X156388170Y-107642052D01*
X156581456Y-107680500D01*
X156581459Y-107680500D01*
X157778543Y-107680500D01*
X157908582Y-107654632D01*
X157971835Y-107642051D01*
X158153914Y-107566632D01*
X158317782Y-107457139D01*
X158457139Y-107317782D01*
X158566632Y-107153914D01*
X158642051Y-106971835D01*
X158680500Y-106778541D01*
X158680500Y-106581459D01*
X158680500Y-106581456D01*
X158642052Y-106388170D01*
X158642051Y-106388169D01*
X158642051Y-106388165D01*
X158642049Y-106388160D01*
X158566635Y-106206092D01*
X158566628Y-106206079D01*
X158457139Y-106042218D01*
X158457136Y-106042214D01*
X158317785Y-105902863D01*
X158317781Y-105902860D01*
X158153920Y-105793371D01*
X158153907Y-105793364D01*
X157971839Y-105717950D01*
X157971829Y-105717947D01*
X157778543Y-105679500D01*
X157778541Y-105679500D01*
X156581459Y-105679500D01*
X156581457Y-105679500D01*
X156388170Y-105717947D01*
X156388160Y-105717950D01*
X156206092Y-105793364D01*
X156206079Y-105793371D01*
X156042218Y-105902860D01*
X156042214Y-105902863D01*
X155902863Y-106042214D01*
X155902860Y-106042218D01*
X155793371Y-106206079D01*
X155793364Y-106206092D01*
X155717950Y-106388160D01*
X155717947Y-106388170D01*
X155679500Y-106581456D01*
X155679500Y-106581459D01*
X155679500Y-106778541D01*
X155679500Y-106778543D01*
X155679499Y-106778543D01*
X138960500Y-106778543D01*
X138960500Y-106778541D01*
X138960500Y-106581459D01*
X138960500Y-106581456D01*
X138922052Y-106388170D01*
X138922051Y-106388169D01*
X138922051Y-106388165D01*
X138922049Y-106388160D01*
X138846635Y-106206092D01*
X138846628Y-106206079D01*
X138737139Y-106042218D01*
X138737136Y-106042214D01*
X138597785Y-105902863D01*
X138597781Y-105902860D01*
X138433920Y-105793371D01*
X138433907Y-105793364D01*
X138251839Y-105717950D01*
X138251829Y-105717947D01*
X138058543Y-105679500D01*
X138058541Y-105679500D01*
X136861459Y-105679500D01*
X136861457Y-105679500D01*
X136668170Y-105717947D01*
X136668160Y-105717950D01*
X136486092Y-105793364D01*
X136486079Y-105793371D01*
X136322218Y-105902860D01*
X136322214Y-105902863D01*
X136182863Y-106042214D01*
X136182860Y-106042218D01*
X136073371Y-106206079D01*
X136073364Y-106206092D01*
X135997950Y-106388160D01*
X135997947Y-106388170D01*
X135959500Y-106581456D01*
X135959500Y-106581459D01*
X135959500Y-106778541D01*
X135959500Y-106778543D01*
X135959499Y-106778543D01*
X130048000Y-106778543D01*
X130048000Y-104238543D01*
X135959499Y-104238543D01*
X135997947Y-104431829D01*
X135997950Y-104431839D01*
X136073364Y-104613907D01*
X136073371Y-104613920D01*
X136182860Y-104777781D01*
X136182863Y-104777785D01*
X136322214Y-104917136D01*
X136322218Y-104917139D01*
X136486079Y-105026628D01*
X136486092Y-105026635D01*
X136668160Y-105102049D01*
X136668165Y-105102051D01*
X136668169Y-105102051D01*
X136668170Y-105102052D01*
X136861456Y-105140500D01*
X136861459Y-105140500D01*
X138058543Y-105140500D01*
X138188582Y-105114632D01*
X138251835Y-105102051D01*
X138433914Y-105026632D01*
X138597782Y-104917139D01*
X138737139Y-104777782D01*
X138846632Y-104613914D01*
X138922051Y-104431835D01*
X138960500Y-104238543D01*
X155679499Y-104238543D01*
X155717947Y-104431829D01*
X155717950Y-104431839D01*
X155793364Y-104613907D01*
X155793371Y-104613920D01*
X155902860Y-104777781D01*
X155902863Y-104777785D01*
X156042214Y-104917136D01*
X156042218Y-104917139D01*
X156206079Y-105026628D01*
X156206092Y-105026635D01*
X156388160Y-105102049D01*
X156388165Y-105102051D01*
X156388169Y-105102051D01*
X156388170Y-105102052D01*
X156581456Y-105140500D01*
X156581459Y-105140500D01*
X157778543Y-105140500D01*
X157908582Y-105114632D01*
X157971835Y-105102051D01*
X158153914Y-105026632D01*
X158317782Y-104917139D01*
X158457139Y-104777782D01*
X158566632Y-104613914D01*
X158642051Y-104431835D01*
X158680500Y-104238541D01*
X158680500Y-104041459D01*
X158680500Y-104041456D01*
X158642052Y-103848170D01*
X158642051Y-103848169D01*
X158642051Y-103848165D01*
X158642049Y-103848160D01*
X158566635Y-103666092D01*
X158566628Y-103666079D01*
X158457139Y-103502218D01*
X158457136Y-103502214D01*
X158317785Y-103362863D01*
X158317781Y-103362860D01*
X158153920Y-103253371D01*
X158153907Y-103253364D01*
X157971839Y-103177950D01*
X157971829Y-103177947D01*
X157778543Y-103139500D01*
X157778541Y-103139500D01*
X156581459Y-103139500D01*
X156581457Y-103139500D01*
X156388170Y-103177947D01*
X156388160Y-103177950D01*
X156206092Y-103253364D01*
X156206079Y-103253371D01*
X156042218Y-103362860D01*
X156042214Y-103362863D01*
X155902863Y-103502214D01*
X155902860Y-103502218D01*
X155793371Y-103666079D01*
X155793364Y-103666092D01*
X155717950Y-103848160D01*
X155717947Y-103848170D01*
X155679500Y-104041456D01*
X155679500Y-104041459D01*
X155679500Y-104238541D01*
X155679500Y-104238543D01*
X155679499Y-104238543D01*
X138960500Y-104238543D01*
X138960500Y-104238541D01*
X138960500Y-104041459D01*
X138960500Y-104041456D01*
X138922052Y-103848170D01*
X138922051Y-103848169D01*
X138922051Y-103848165D01*
X138922049Y-103848160D01*
X138846635Y-103666092D01*
X138846628Y-103666079D01*
X138737139Y-103502218D01*
X138737136Y-103502214D01*
X138597785Y-103362863D01*
X138597781Y-103362860D01*
X138433920Y-103253371D01*
X138433907Y-103253364D01*
X138251839Y-103177950D01*
X138251829Y-103177947D01*
X138058543Y-103139500D01*
X138058541Y-103139500D01*
X136861459Y-103139500D01*
X136861457Y-103139500D01*
X136668170Y-103177947D01*
X136668160Y-103177950D01*
X136486092Y-103253364D01*
X136486079Y-103253371D01*
X136322218Y-103362860D01*
X136322214Y-103362863D01*
X136182863Y-103502214D01*
X136182860Y-103502218D01*
X136073371Y-103666079D01*
X136073364Y-103666092D01*
X135997950Y-103848160D01*
X135997947Y-103848170D01*
X135959500Y-104041456D01*
X135959500Y-104041459D01*
X135959500Y-104238541D01*
X135959500Y-104238543D01*
X135959499Y-104238543D01*
X130048000Y-104238543D01*
X130048000Y-102296546D01*
X134143248Y-102296546D01*
X134143248Y-102428329D01*
X134177356Y-102555625D01*
X134184113Y-102567328D01*
X134243248Y-102669752D01*
X134336434Y-102762938D01*
X134433694Y-102819091D01*
X134444792Y-102825499D01*
X134450562Y-102828830D01*
X134577856Y-102862938D01*
X134577858Y-102862938D01*
X134709638Y-102862938D01*
X134709640Y-102862938D01*
X134836934Y-102828830D01*
X134951062Y-102762938D01*
X135044248Y-102669752D01*
X135110140Y-102555624D01*
X135144248Y-102428330D01*
X135144248Y-102296546D01*
X135110140Y-102169252D01*
X135044248Y-102055124D01*
X134951062Y-101961938D01*
X134893998Y-101928992D01*
X134836935Y-101896046D01*
X134773287Y-101878992D01*
X134709640Y-101861938D01*
X134577856Y-101861938D01*
X134450560Y-101896046D01*
X134336434Y-101961938D01*
X134336431Y-101961940D01*
X134243250Y-102055121D01*
X134243248Y-102055124D01*
X134177356Y-102169250D01*
X134143248Y-102296546D01*
X130048000Y-102296546D01*
X130048000Y-101698543D01*
X135959499Y-101698543D01*
X135997947Y-101891829D01*
X135997950Y-101891839D01*
X136073364Y-102073907D01*
X136073371Y-102073920D01*
X136182860Y-102237781D01*
X136182863Y-102237785D01*
X136322214Y-102377136D01*
X136322218Y-102377139D01*
X136486079Y-102486628D01*
X136486092Y-102486635D01*
X136652651Y-102555625D01*
X136668165Y-102562051D01*
X136668169Y-102562051D01*
X136668170Y-102562052D01*
X136861456Y-102600500D01*
X136861459Y-102600500D01*
X138058543Y-102600500D01*
X138188582Y-102574632D01*
X138251835Y-102562051D01*
X138433914Y-102486632D01*
X138597782Y-102377139D01*
X138737139Y-102237782D01*
X138846632Y-102073914D01*
X138922051Y-101891835D01*
X138960500Y-101698543D01*
X155679499Y-101698543D01*
X155717947Y-101891829D01*
X155717950Y-101891839D01*
X155793364Y-102073907D01*
X155793371Y-102073920D01*
X155902860Y-102237781D01*
X155902863Y-102237785D01*
X156042214Y-102377136D01*
X156042218Y-102377139D01*
X156206079Y-102486628D01*
X156206092Y-102486635D01*
X156372651Y-102555625D01*
X156388165Y-102562051D01*
X156388169Y-102562051D01*
X156388170Y-102562052D01*
X156581456Y-102600500D01*
X156581459Y-102600500D01*
X157778543Y-102600500D01*
X157908582Y-102574632D01*
X157971835Y-102562051D01*
X158153914Y-102486632D01*
X158317782Y-102377139D01*
X158457139Y-102237782D01*
X158566632Y-102073914D01*
X158642051Y-101891835D01*
X158680500Y-101698541D01*
X158680500Y-101501459D01*
X158680500Y-101501456D01*
X158642052Y-101308170D01*
X158642051Y-101308169D01*
X158642051Y-101308165D01*
X158604415Y-101217302D01*
X158566635Y-101126092D01*
X158566628Y-101126079D01*
X158457139Y-100962218D01*
X158457136Y-100962214D01*
X158322057Y-100827135D01*
X161619500Y-100827135D01*
X161619500Y-102372870D01*
X161619501Y-102372876D01*
X161625908Y-102432483D01*
X161676202Y-102567328D01*
X161676206Y-102567335D01*
X161762452Y-102682544D01*
X161762455Y-102682547D01*
X161877664Y-102768793D01*
X161877671Y-102768797D01*
X162012517Y-102819091D01*
X162012516Y-102819091D01*
X162019444Y-102819835D01*
X162072127Y-102825500D01*
X163367872Y-102825499D01*
X163427483Y-102819091D01*
X163562331Y-102768796D01*
X163677546Y-102682546D01*
X163763796Y-102567331D01*
X163814091Y-102432483D01*
X163820500Y-102372873D01*
X163820499Y-101388389D01*
X164119500Y-101388389D01*
X164119500Y-101811610D01*
X164143309Y-101961940D01*
X164146598Y-101982701D01*
X164200127Y-102147445D01*
X164278768Y-102301788D01*
X164380586Y-102441928D01*
X164503072Y-102564414D01*
X164643212Y-102666232D01*
X164797555Y-102744873D01*
X164962299Y-102798402D01*
X165133389Y-102825500D01*
X165133390Y-102825500D01*
X165306610Y-102825500D01*
X165306611Y-102825500D01*
X165477701Y-102798402D01*
X165642445Y-102744873D01*
X165796788Y-102666232D01*
X165936928Y-102564414D01*
X166059414Y-102441928D01*
X166161232Y-102301788D01*
X166239873Y-102147445D01*
X166293402Y-101982701D01*
X166320500Y-101811611D01*
X166320500Y-101388389D01*
X166619500Y-101388389D01*
X166619500Y-101811610D01*
X166643309Y-101961940D01*
X166646598Y-101982701D01*
X166700127Y-102147445D01*
X166778768Y-102301788D01*
X166880586Y-102441928D01*
X167003072Y-102564414D01*
X167143212Y-102666232D01*
X167297555Y-102744873D01*
X167462299Y-102798402D01*
X167633389Y-102825500D01*
X167633390Y-102825500D01*
X167806610Y-102825500D01*
X167806611Y-102825500D01*
X167977701Y-102798402D01*
X168142445Y-102744873D01*
X168296788Y-102666232D01*
X168436928Y-102564414D01*
X168559414Y-102441928D01*
X168661232Y-102301788D01*
X168739873Y-102147445D01*
X168793402Y-101982701D01*
X168820500Y-101811611D01*
X168820500Y-101388389D01*
X169119500Y-101388389D01*
X169119500Y-101811610D01*
X169143309Y-101961940D01*
X169146598Y-101982701D01*
X169200127Y-102147445D01*
X169278768Y-102301788D01*
X169380586Y-102441928D01*
X169503072Y-102564414D01*
X169643212Y-102666232D01*
X169797555Y-102744873D01*
X169962299Y-102798402D01*
X170133389Y-102825500D01*
X170133390Y-102825500D01*
X170306610Y-102825500D01*
X170306611Y-102825500D01*
X170477701Y-102798402D01*
X170642445Y-102744873D01*
X170796788Y-102666232D01*
X170936928Y-102564414D01*
X171059414Y-102441928D01*
X171161232Y-102301788D01*
X171224814Y-102176999D01*
X171272788Y-102126204D01*
X171340609Y-102109408D01*
X171406744Y-102131945D01*
X171450196Y-102186660D01*
X171453230Y-102194976D01*
X171468904Y-102243217D01*
X171565379Y-102432557D01*
X171690272Y-102604459D01*
X171690276Y-102604464D01*
X171840535Y-102754723D01*
X171840540Y-102754727D01*
X172012442Y-102879620D01*
X172201782Y-102976095D01*
X172403871Y-103041757D01*
X172470000Y-103052231D01*
X172470000Y-102004145D01*
X172536657Y-102042630D01*
X172657465Y-102075000D01*
X172782535Y-102075000D01*
X172903343Y-102042630D01*
X172970000Y-102004145D01*
X172970000Y-103052230D01*
X173036126Y-103041757D01*
X173036129Y-103041757D01*
X173238217Y-102976095D01*
X173427557Y-102879620D01*
X173599459Y-102754727D01*
X173599464Y-102754723D01*
X173749723Y-102604464D01*
X173749727Y-102604459D01*
X173874620Y-102432557D01*
X173971095Y-102243217D01*
X174036757Y-102041130D01*
X174036757Y-102041127D01*
X174067030Y-101850000D01*
X173124146Y-101850000D01*
X173162630Y-101783343D01*
X173195000Y-101662535D01*
X173195000Y-101537465D01*
X173162630Y-101416657D01*
X173124146Y-101350000D01*
X174067030Y-101350000D01*
X174036757Y-101158872D01*
X174036757Y-101158869D01*
X173971095Y-100956782D01*
X173874620Y-100767442D01*
X173749727Y-100595540D01*
X173749723Y-100595535D01*
X173599464Y-100445276D01*
X173599459Y-100445272D01*
X173427557Y-100320379D01*
X173238215Y-100223903D01*
X173036124Y-100158241D01*
X172970000Y-100147768D01*
X172970000Y-101195854D01*
X172903343Y-101157370D01*
X172782535Y-101125000D01*
X172657465Y-101125000D01*
X172536657Y-101157370D01*
X172470000Y-101195854D01*
X172470000Y-100147768D01*
X172469999Y-100147768D01*
X172403875Y-100158241D01*
X172201784Y-100223903D01*
X172012442Y-100320379D01*
X171840540Y-100445272D01*
X171840535Y-100445276D01*
X171690276Y-100595535D01*
X171690272Y-100595540D01*
X171565379Y-100767442D01*
X171468905Y-100956781D01*
X171453230Y-101005024D01*
X171413792Y-101062699D01*
X171349433Y-101089897D01*
X171280587Y-101077982D01*
X171229111Y-101030738D01*
X171224814Y-101022999D01*
X171161233Y-100898213D01*
X171109591Y-100827135D01*
X171059414Y-100758072D01*
X170936928Y-100635586D01*
X170796788Y-100533768D01*
X170642445Y-100455127D01*
X170477701Y-100401598D01*
X170477699Y-100401597D01*
X170477698Y-100401597D01*
X170346271Y-100380781D01*
X170306611Y-100374500D01*
X170133389Y-100374500D01*
X170093728Y-100380781D01*
X169962302Y-100401597D01*
X169797552Y-100455128D01*
X169643211Y-100533768D01*
X169563256Y-100591859D01*
X169503072Y-100635586D01*
X169503070Y-100635588D01*
X169503069Y-100635588D01*
X169380588Y-100758069D01*
X169380588Y-100758070D01*
X169380586Y-100758072D01*
X169373725Y-100767516D01*
X169278768Y-100898211D01*
X169200128Y-101052552D01*
X169146597Y-101217302D01*
X169119500Y-101388389D01*
X168820500Y-101388389D01*
X168793402Y-101217299D01*
X168739873Y-101052555D01*
X168661232Y-100898212D01*
X168559414Y-100758072D01*
X168436928Y-100635586D01*
X168296788Y-100533768D01*
X168142445Y-100455127D01*
X167977701Y-100401598D01*
X167977699Y-100401597D01*
X167977698Y-100401597D01*
X167846271Y-100380781D01*
X167806611Y-100374500D01*
X167633389Y-100374500D01*
X167593728Y-100380781D01*
X167462302Y-100401597D01*
X167297552Y-100455128D01*
X167143211Y-100533768D01*
X167063256Y-100591859D01*
X167003072Y-100635586D01*
X167003070Y-100635588D01*
X167003069Y-100635588D01*
X166880588Y-100758069D01*
X166880588Y-100758070D01*
X166880586Y-100758072D01*
X166873725Y-100767516D01*
X166778768Y-100898211D01*
X166700128Y-101052552D01*
X166646597Y-101217302D01*
X166619500Y-101388389D01*
X166320500Y-101388389D01*
X166293402Y-101217299D01*
X166239873Y-101052555D01*
X166161232Y-100898212D01*
X166059414Y-100758072D01*
X165936928Y-100635586D01*
X165796788Y-100533768D01*
X165642445Y-100455127D01*
X165477701Y-100401598D01*
X165477699Y-100401597D01*
X165477698Y-100401597D01*
X165346271Y-100380781D01*
X165306611Y-100374500D01*
X165133389Y-100374500D01*
X165093728Y-100380781D01*
X164962302Y-100401597D01*
X164797552Y-100455128D01*
X164643211Y-100533768D01*
X164563256Y-100591859D01*
X164503072Y-100635586D01*
X164503070Y-100635588D01*
X164503069Y-100635588D01*
X164380588Y-100758069D01*
X164380588Y-100758070D01*
X164380586Y-100758072D01*
X164373725Y-100767516D01*
X164278768Y-100898211D01*
X164200128Y-101052552D01*
X164146597Y-101217302D01*
X164119500Y-101388389D01*
X163820499Y-101388389D01*
X163820499Y-100827128D01*
X163814091Y-100767517D01*
X163810568Y-100758072D01*
X163763797Y-100632671D01*
X163763793Y-100632664D01*
X163677547Y-100517455D01*
X163677544Y-100517452D01*
X163562335Y-100431206D01*
X163562328Y-100431202D01*
X163427482Y-100380908D01*
X163427483Y-100380908D01*
X163367883Y-100374501D01*
X163367881Y-100374500D01*
X163367873Y-100374500D01*
X163367864Y-100374500D01*
X162072129Y-100374500D01*
X162072123Y-100374501D01*
X162012516Y-100380908D01*
X161877671Y-100431202D01*
X161877664Y-100431206D01*
X161762455Y-100517452D01*
X161762452Y-100517455D01*
X161676206Y-100632664D01*
X161676202Y-100632671D01*
X161625908Y-100767517D01*
X161619958Y-100822863D01*
X161619501Y-100827123D01*
X161619500Y-100827135D01*
X158322057Y-100827135D01*
X158317785Y-100822863D01*
X158317781Y-100822860D01*
X158153920Y-100713371D01*
X158153907Y-100713364D01*
X157971839Y-100637950D01*
X157971829Y-100637947D01*
X157778543Y-100599500D01*
X157778541Y-100599500D01*
X156581459Y-100599500D01*
X156581457Y-100599500D01*
X156388170Y-100637947D01*
X156388160Y-100637950D01*
X156206092Y-100713364D01*
X156206079Y-100713371D01*
X156042218Y-100822860D01*
X156042214Y-100822863D01*
X155902863Y-100962214D01*
X155902860Y-100962218D01*
X155793371Y-101126079D01*
X155793364Y-101126092D01*
X155717950Y-101308160D01*
X155717947Y-101308170D01*
X155679500Y-101501456D01*
X155679500Y-101501459D01*
X155679500Y-101698541D01*
X155679500Y-101698543D01*
X155679499Y-101698543D01*
X138960500Y-101698543D01*
X138960500Y-101698541D01*
X138960500Y-101501459D01*
X138960500Y-101501456D01*
X138922052Y-101308170D01*
X138922051Y-101308169D01*
X138922051Y-101308165D01*
X138884415Y-101217302D01*
X138846635Y-101126092D01*
X138846628Y-101126079D01*
X138737139Y-100962218D01*
X138737136Y-100962214D01*
X138597785Y-100822863D01*
X138597781Y-100822860D01*
X138433920Y-100713371D01*
X138433907Y-100713364D01*
X138251839Y-100637950D01*
X138251829Y-100637947D01*
X138058543Y-100599500D01*
X138058541Y-100599500D01*
X136861459Y-100599500D01*
X136861457Y-100599500D01*
X136668170Y-100637947D01*
X136668160Y-100637950D01*
X136486092Y-100713364D01*
X136486079Y-100713371D01*
X136322218Y-100822860D01*
X136322214Y-100822863D01*
X136182863Y-100962214D01*
X136182860Y-100962218D01*
X136073371Y-101126079D01*
X136073364Y-101126092D01*
X135997950Y-101308160D01*
X135997947Y-101308170D01*
X135959500Y-101501456D01*
X135959500Y-101501459D01*
X135959500Y-101698541D01*
X135959500Y-101698543D01*
X135959499Y-101698543D01*
X130048000Y-101698543D01*
X130048000Y-99158543D01*
X135959499Y-99158543D01*
X135997947Y-99351829D01*
X135997950Y-99351839D01*
X136073364Y-99533907D01*
X136073371Y-99533920D01*
X136182860Y-99697781D01*
X136182863Y-99697785D01*
X136322214Y-99837136D01*
X136322218Y-99837139D01*
X136486079Y-99946628D01*
X136486092Y-99946635D01*
X136668160Y-100022049D01*
X136668165Y-100022051D01*
X136668169Y-100022051D01*
X136668170Y-100022052D01*
X136861456Y-100060500D01*
X136861459Y-100060500D01*
X138058543Y-100060500D01*
X138188582Y-100034632D01*
X138251835Y-100022051D01*
X138433914Y-99946632D01*
X138597782Y-99837139D01*
X138737139Y-99697782D01*
X138846632Y-99533914D01*
X138922051Y-99351835D01*
X138934799Y-99287749D01*
X138960500Y-99158543D01*
X155679499Y-99158543D01*
X155717947Y-99351829D01*
X155717950Y-99351839D01*
X155793364Y-99533907D01*
X155793371Y-99533920D01*
X155902860Y-99697781D01*
X155902863Y-99697785D01*
X156042214Y-99837136D01*
X156042218Y-99837139D01*
X156206079Y-99946628D01*
X156206092Y-99946635D01*
X156388160Y-100022049D01*
X156388165Y-100022051D01*
X156388169Y-100022051D01*
X156388170Y-100022052D01*
X156581456Y-100060500D01*
X156581459Y-100060500D01*
X157778543Y-100060500D01*
X157908582Y-100034632D01*
X157971835Y-100022051D01*
X158153914Y-99946632D01*
X158317782Y-99837139D01*
X158457139Y-99697782D01*
X158566632Y-99533914D01*
X158642051Y-99351835D01*
X158654799Y-99287749D01*
X158680500Y-99158543D01*
X158680500Y-98961456D01*
X158642052Y-98768170D01*
X158642051Y-98768169D01*
X158642051Y-98768165D01*
X158625454Y-98728096D01*
X161802808Y-98728096D01*
X161802808Y-98873046D01*
X161840324Y-99013056D01*
X161840325Y-99013059D01*
X161912796Y-99138582D01*
X161912798Y-99138584D01*
X161912799Y-99138586D01*
X162015293Y-99241080D01*
X162015294Y-99241081D01*
X162015296Y-99241082D01*
X162140819Y-99313553D01*
X162140820Y-99313553D01*
X162140823Y-99313555D01*
X162280833Y-99351071D01*
X162280836Y-99351071D01*
X162425780Y-99351071D01*
X162425783Y-99351071D01*
X162565793Y-99313555D01*
X162691323Y-99241080D01*
X162793817Y-99138586D01*
X162866292Y-99013056D01*
X162903808Y-98873046D01*
X162903808Y-98774768D01*
X165336561Y-98774768D01*
X165336561Y-98919718D01*
X165361572Y-99013059D01*
X165374078Y-99059731D01*
X165446549Y-99185254D01*
X165446551Y-99185256D01*
X165446552Y-99185258D01*
X165549046Y-99287752D01*
X165549047Y-99287753D01*
X165549049Y-99287754D01*
X165674572Y-99360225D01*
X165674573Y-99360225D01*
X165674576Y-99360227D01*
X165814586Y-99397743D01*
X165814589Y-99397743D01*
X165959533Y-99397743D01*
X165959536Y-99397743D01*
X166099546Y-99360227D01*
X166225076Y-99287752D01*
X166327570Y-99185258D01*
X166400045Y-99059728D01*
X166437561Y-98919718D01*
X166437561Y-98774768D01*
X166400045Y-98634758D01*
X166327570Y-98509228D01*
X166225076Y-98406734D01*
X166225074Y-98406733D01*
X166225072Y-98406731D01*
X166099549Y-98334260D01*
X166099550Y-98334260D01*
X166088067Y-98331183D01*
X165959536Y-98296743D01*
X165814586Y-98296743D01*
X165686054Y-98331183D01*
X165674572Y-98334260D01*
X165549049Y-98406731D01*
X165549043Y-98406736D01*
X165446554Y-98509225D01*
X165446549Y-98509231D01*
X165374078Y-98634754D01*
X165374077Y-98634758D01*
X165336561Y-98774768D01*
X162903808Y-98774768D01*
X162903808Y-98728096D01*
X162866292Y-98588086D01*
X162865137Y-98586086D01*
X162793819Y-98462559D01*
X162793814Y-98462553D01*
X162691325Y-98360064D01*
X162691319Y-98360059D01*
X162565796Y-98287588D01*
X162565797Y-98287588D01*
X162548163Y-98282863D01*
X162425783Y-98250071D01*
X162280833Y-98250071D01*
X162158453Y-98282863D01*
X162140819Y-98287588D01*
X162015296Y-98360059D01*
X162015290Y-98360064D01*
X161912801Y-98462553D01*
X161912796Y-98462559D01*
X161840325Y-98588082D01*
X161840324Y-98588086D01*
X161802808Y-98728096D01*
X158625454Y-98728096D01*
X158608292Y-98686664D01*
X158566635Y-98586092D01*
X158566628Y-98586079D01*
X158457139Y-98422218D01*
X158457136Y-98422214D01*
X158317785Y-98282863D01*
X158317781Y-98282860D01*
X158153920Y-98173371D01*
X158153907Y-98173364D01*
X157971839Y-98097950D01*
X157971829Y-98097947D01*
X157778543Y-98059500D01*
X157778541Y-98059500D01*
X156581459Y-98059500D01*
X156581457Y-98059500D01*
X156388170Y-98097947D01*
X156388160Y-98097950D01*
X156206092Y-98173364D01*
X156206079Y-98173371D01*
X156042218Y-98282860D01*
X156042214Y-98282863D01*
X155902863Y-98422214D01*
X155902860Y-98422218D01*
X155793371Y-98586079D01*
X155793364Y-98586092D01*
X155717950Y-98768160D01*
X155717947Y-98768170D01*
X155679500Y-98961456D01*
X155679500Y-98961459D01*
X155679500Y-99158541D01*
X155679500Y-99158543D01*
X155679499Y-99158543D01*
X138960500Y-99158543D01*
X138960500Y-98961456D01*
X138922052Y-98768170D01*
X138922051Y-98768169D01*
X138922051Y-98768165D01*
X138905454Y-98728096D01*
X138846635Y-98586092D01*
X138846628Y-98586079D01*
X138737139Y-98422218D01*
X138737136Y-98422214D01*
X138597785Y-98282863D01*
X138597781Y-98282860D01*
X138433920Y-98173371D01*
X138433907Y-98173364D01*
X138251839Y-98097950D01*
X138251829Y-98097947D01*
X138058543Y-98059500D01*
X138058541Y-98059500D01*
X136861459Y-98059500D01*
X136861457Y-98059500D01*
X136668170Y-98097947D01*
X136668160Y-98097950D01*
X136486092Y-98173364D01*
X136486079Y-98173371D01*
X136322218Y-98282860D01*
X136322214Y-98282863D01*
X136182863Y-98422214D01*
X136182860Y-98422218D01*
X136073371Y-98586079D01*
X136073364Y-98586092D01*
X135997950Y-98768160D01*
X135997947Y-98768170D01*
X135959500Y-98961456D01*
X135959500Y-98961459D01*
X135959500Y-99158541D01*
X135959500Y-99158543D01*
X135959499Y-99158543D01*
X130048000Y-99158543D01*
X130048000Y-96618543D01*
X135959499Y-96618543D01*
X135997947Y-96811829D01*
X135997950Y-96811839D01*
X136073364Y-96993907D01*
X136073371Y-96993920D01*
X136182860Y-97157781D01*
X136182863Y-97157785D01*
X136322214Y-97297136D01*
X136322218Y-97297139D01*
X136486079Y-97406628D01*
X136486092Y-97406635D01*
X136668160Y-97482049D01*
X136668165Y-97482051D01*
X136668169Y-97482051D01*
X136668170Y-97482052D01*
X136861456Y-97520500D01*
X136861459Y-97520500D01*
X138058543Y-97520500D01*
X138188582Y-97494632D01*
X138251835Y-97482051D01*
X138433914Y-97406632D01*
X138597782Y-97297139D01*
X138737139Y-97157782D01*
X138846632Y-96993914D01*
X138922051Y-96811835D01*
X138960500Y-96618543D01*
X155679499Y-96618543D01*
X155717947Y-96811829D01*
X155717950Y-96811839D01*
X155793364Y-96993907D01*
X155793371Y-96993920D01*
X155902860Y-97157781D01*
X155902863Y-97157785D01*
X156042214Y-97297136D01*
X156042218Y-97297139D01*
X156206079Y-97406628D01*
X156206092Y-97406635D01*
X156388160Y-97482049D01*
X156388165Y-97482051D01*
X156388169Y-97482051D01*
X156388170Y-97482052D01*
X156581456Y-97520500D01*
X156581459Y-97520500D01*
X157778543Y-97520500D01*
X157908582Y-97494632D01*
X157971835Y-97482051D01*
X158153914Y-97406632D01*
X158317782Y-97297139D01*
X158457139Y-97157782D01*
X158566632Y-96993914D01*
X158642051Y-96811835D01*
X158680500Y-96618541D01*
X158680500Y-96421459D01*
X158680500Y-96421456D01*
X158642052Y-96228170D01*
X158642051Y-96228169D01*
X158642051Y-96228165D01*
X158642049Y-96228160D01*
X158566635Y-96046092D01*
X158566628Y-96046079D01*
X158457139Y-95882218D01*
X158457136Y-95882214D01*
X158317785Y-95742863D01*
X158317781Y-95742860D01*
X158153920Y-95633371D01*
X158153907Y-95633364D01*
X157971839Y-95557950D01*
X157971829Y-95557947D01*
X157778543Y-95519500D01*
X157778541Y-95519500D01*
X156581459Y-95519500D01*
X156581457Y-95519500D01*
X156388170Y-95557947D01*
X156388160Y-95557950D01*
X156206092Y-95633364D01*
X156206079Y-95633371D01*
X156042218Y-95742860D01*
X156042214Y-95742863D01*
X155902863Y-95882214D01*
X155902860Y-95882218D01*
X155793371Y-96046079D01*
X155793364Y-96046092D01*
X155717950Y-96228160D01*
X155717947Y-96228170D01*
X155679500Y-96421456D01*
X155679500Y-96421459D01*
X155679500Y-96618541D01*
X155679500Y-96618543D01*
X155679499Y-96618543D01*
X138960500Y-96618543D01*
X138960500Y-96618541D01*
X138960500Y-96421459D01*
X138960500Y-96421456D01*
X138922052Y-96228170D01*
X138922051Y-96228169D01*
X138922051Y-96228165D01*
X138922049Y-96228160D01*
X138846635Y-96046092D01*
X138846628Y-96046079D01*
X138737139Y-95882218D01*
X138737136Y-95882214D01*
X138597785Y-95742863D01*
X138597781Y-95742860D01*
X138433920Y-95633371D01*
X138433907Y-95633364D01*
X138251839Y-95557950D01*
X138251829Y-95557947D01*
X138058543Y-95519500D01*
X138058541Y-95519500D01*
X136861459Y-95519500D01*
X136861457Y-95519500D01*
X136668170Y-95557947D01*
X136668160Y-95557950D01*
X136486092Y-95633364D01*
X136486079Y-95633371D01*
X136322218Y-95742860D01*
X136322214Y-95742863D01*
X136182863Y-95882214D01*
X136182860Y-95882218D01*
X136073371Y-96046079D01*
X136073364Y-96046092D01*
X135997950Y-96228160D01*
X135997947Y-96228170D01*
X135959500Y-96421456D01*
X135959500Y-96421459D01*
X135959500Y-96618541D01*
X135959500Y-96618543D01*
X135959499Y-96618543D01*
X130048000Y-96618543D01*
X130048000Y-95929520D01*
X134112338Y-95929520D01*
X134112338Y-96061303D01*
X134146446Y-96188599D01*
X134169287Y-96228160D01*
X134212338Y-96302726D01*
X134305524Y-96395912D01*
X134419652Y-96461804D01*
X134546946Y-96495912D01*
X134546948Y-96495912D01*
X134678728Y-96495912D01*
X134678730Y-96495912D01*
X134806024Y-96461804D01*
X134920152Y-96395912D01*
X135013338Y-96302726D01*
X135079230Y-96188598D01*
X135113338Y-96061304D01*
X135113338Y-95929520D01*
X135079230Y-95802226D01*
X135013338Y-95688098D01*
X134920152Y-95594912D01*
X134856127Y-95557947D01*
X134806025Y-95529020D01*
X134742377Y-95511966D01*
X134678730Y-95494912D01*
X134546946Y-95494912D01*
X134419650Y-95529020D01*
X134305524Y-95594912D01*
X134305521Y-95594914D01*
X134212340Y-95688095D01*
X134212338Y-95688098D01*
X134146446Y-95802224D01*
X134112338Y-95929520D01*
X130048000Y-95929520D01*
X130048000Y-94078543D01*
X135959499Y-94078543D01*
X135997947Y-94271829D01*
X135997950Y-94271839D01*
X136073364Y-94453907D01*
X136073371Y-94453920D01*
X136182860Y-94617781D01*
X136182863Y-94617785D01*
X136322214Y-94757136D01*
X136322218Y-94757139D01*
X136486079Y-94866628D01*
X136486092Y-94866635D01*
X136668160Y-94942049D01*
X136668165Y-94942051D01*
X136668169Y-94942051D01*
X136668170Y-94942052D01*
X136861456Y-94980500D01*
X136861459Y-94980500D01*
X138058543Y-94980500D01*
X138188582Y-94954632D01*
X138251835Y-94942051D01*
X138433914Y-94866632D01*
X138597782Y-94757139D01*
X138737139Y-94617782D01*
X138846632Y-94453914D01*
X138922051Y-94271835D01*
X138960500Y-94078543D01*
X155679499Y-94078543D01*
X155717947Y-94271829D01*
X155717950Y-94271839D01*
X155793364Y-94453907D01*
X155793371Y-94453920D01*
X155902860Y-94617781D01*
X155902863Y-94617785D01*
X156042214Y-94757136D01*
X156042218Y-94757139D01*
X156206079Y-94866628D01*
X156206092Y-94866635D01*
X156388160Y-94942049D01*
X156388165Y-94942051D01*
X156388169Y-94942051D01*
X156388170Y-94942052D01*
X156581456Y-94980500D01*
X156581459Y-94980500D01*
X157778543Y-94980500D01*
X157908582Y-94954632D01*
X157971835Y-94942051D01*
X158153914Y-94866632D01*
X158317782Y-94757139D01*
X158457139Y-94617782D01*
X158496952Y-94558196D01*
X158564072Y-94457747D01*
X158565684Y-94455332D01*
X158566632Y-94453914D01*
X158642051Y-94271835D01*
X158680500Y-94078541D01*
X158680500Y-93881459D01*
X158680500Y-93881456D01*
X158680499Y-93881454D01*
X158644219Y-93699062D01*
X158644218Y-93699058D01*
X158642051Y-93688167D01*
X158642051Y-93688165D01*
X158637846Y-93678013D01*
X172261000Y-93678013D01*
X172261000Y-94078000D01*
X173331854Y-94078000D01*
X173293370Y-94144657D01*
X173261000Y-94265465D01*
X173261000Y-94390535D01*
X173293370Y-94511343D01*
X173331854Y-94578000D01*
X172261001Y-94578000D01*
X172261001Y-94977986D01*
X172271494Y-95080697D01*
X172326641Y-95247119D01*
X172326643Y-95247124D01*
X172418684Y-95396345D01*
X172542654Y-95520315D01*
X172691875Y-95612356D01*
X172691880Y-95612358D01*
X172858302Y-95667505D01*
X172858309Y-95667506D01*
X172961019Y-95677999D01*
X173485999Y-95677999D01*
X173486000Y-95677998D01*
X173486000Y-94732145D01*
X173552657Y-94770630D01*
X173673465Y-94803000D01*
X173798535Y-94803000D01*
X173919343Y-94770630D01*
X173986000Y-94732145D01*
X173986000Y-95677999D01*
X174510972Y-95677999D01*
X174510986Y-95677998D01*
X174613697Y-95667505D01*
X174780119Y-95612358D01*
X174780124Y-95612356D01*
X174929345Y-95520315D01*
X175053315Y-95396345D01*
X175145356Y-95247124D01*
X175145358Y-95247119D01*
X175200505Y-95080697D01*
X175200506Y-95080690D01*
X175210999Y-94977986D01*
X175211000Y-94977973D01*
X175211000Y-94578000D01*
X174140146Y-94578000D01*
X174178630Y-94511343D01*
X174211000Y-94390535D01*
X174211000Y-94265465D01*
X174178630Y-94144657D01*
X174140146Y-94078000D01*
X175210999Y-94078000D01*
X175210999Y-93678028D01*
X175210998Y-93678013D01*
X175200505Y-93575302D01*
X175145358Y-93408880D01*
X175145356Y-93408875D01*
X175053315Y-93259654D01*
X174929345Y-93135684D01*
X174780124Y-93043643D01*
X174780119Y-93043641D01*
X174613697Y-92988494D01*
X174613689Y-92988493D01*
X174517651Y-92978681D01*
X174452959Y-92952284D01*
X174412808Y-92895103D01*
X174409945Y-92825292D01*
X174445280Y-92765016D01*
X174457368Y-92755006D01*
X174577928Y-92667414D01*
X174700414Y-92544928D01*
X174802232Y-92404788D01*
X174880873Y-92250445D01*
X174934402Y-92085701D01*
X174961500Y-91914611D01*
X174961500Y-91741389D01*
X174934402Y-91570299D01*
X174880873Y-91405555D01*
X174802232Y-91251212D01*
X174700414Y-91111072D01*
X174577928Y-90988586D01*
X174437788Y-90886768D01*
X174283445Y-90808127D01*
X174118701Y-90754598D01*
X174118699Y-90754597D01*
X174118698Y-90754597D01*
X173987271Y-90733781D01*
X173947611Y-90727500D01*
X173524389Y-90727500D01*
X173484728Y-90733781D01*
X173353302Y-90754597D01*
X173188552Y-90808128D01*
X173034211Y-90886768D01*
X172954256Y-90944859D01*
X172894072Y-90988586D01*
X172894070Y-90988588D01*
X172894069Y-90988588D01*
X172771588Y-91111069D01*
X172771588Y-91111070D01*
X172771586Y-91111072D01*
X172744640Y-91148160D01*
X172669768Y-91251211D01*
X172591128Y-91405552D01*
X172537597Y-91570302D01*
X172510500Y-91741389D01*
X172510500Y-91914610D01*
X172536343Y-92077782D01*
X172537598Y-92085701D01*
X172591127Y-92250445D01*
X172669768Y-92404788D01*
X172771586Y-92544928D01*
X172894072Y-92667414D01*
X173014632Y-92755006D01*
X173057297Y-92810336D01*
X173063276Y-92879950D01*
X173030670Y-92941745D01*
X172969831Y-92976102D01*
X172954348Y-92978682D01*
X172858303Y-92988494D01*
X172691880Y-93043641D01*
X172691875Y-93043643D01*
X172542654Y-93135684D01*
X172418684Y-93259654D01*
X172326643Y-93408875D01*
X172326641Y-93408880D01*
X172271494Y-93575302D01*
X172271493Y-93575309D01*
X172261000Y-93678013D01*
X158637846Y-93678013D01*
X158595302Y-93575302D01*
X158566635Y-93506092D01*
X158566628Y-93506079D01*
X158457139Y-93342218D01*
X158457136Y-93342214D01*
X158317785Y-93202863D01*
X158317781Y-93202860D01*
X158153920Y-93093371D01*
X158153907Y-93093364D01*
X157971839Y-93017950D01*
X157971829Y-93017947D01*
X157778543Y-92979500D01*
X157778541Y-92979500D01*
X156581459Y-92979500D01*
X156581457Y-92979500D01*
X156388170Y-93017947D01*
X156388160Y-93017950D01*
X156206092Y-93093364D01*
X156206079Y-93093371D01*
X156042218Y-93202860D01*
X156042214Y-93202863D01*
X155902863Y-93342214D01*
X155902860Y-93342218D01*
X155793371Y-93506079D01*
X155793364Y-93506092D01*
X155717950Y-93688160D01*
X155717947Y-93688170D01*
X155679500Y-93881456D01*
X155679500Y-93881459D01*
X155679500Y-94078541D01*
X155679500Y-94078543D01*
X155679499Y-94078543D01*
X138960500Y-94078543D01*
X138960500Y-94078541D01*
X138960500Y-93881459D01*
X138960500Y-93881456D01*
X138922052Y-93688170D01*
X138922051Y-93688167D01*
X138922051Y-93688165D01*
X138875302Y-93575302D01*
X138846635Y-93506092D01*
X138846628Y-93506079D01*
X138737139Y-93342218D01*
X138737136Y-93342214D01*
X138597785Y-93202863D01*
X138597781Y-93202860D01*
X138433920Y-93093371D01*
X138433907Y-93093364D01*
X138251839Y-93017950D01*
X138251829Y-93017947D01*
X138058543Y-92979500D01*
X138058541Y-92979500D01*
X136861459Y-92979500D01*
X136861457Y-92979500D01*
X136668170Y-93017947D01*
X136668160Y-93017950D01*
X136486092Y-93093364D01*
X136486079Y-93093371D01*
X136322218Y-93202860D01*
X136322214Y-93202863D01*
X136182863Y-93342214D01*
X136182860Y-93342218D01*
X136073371Y-93506079D01*
X136073364Y-93506092D01*
X135997950Y-93688160D01*
X135997947Y-93688170D01*
X135959500Y-93881456D01*
X135959500Y-93881459D01*
X135959500Y-94078541D01*
X135959500Y-94078543D01*
X135959499Y-94078543D01*
X130048000Y-94078543D01*
X130048000Y-91538543D01*
X135959499Y-91538543D01*
X135997947Y-91731829D01*
X135997950Y-91731839D01*
X136073364Y-91913907D01*
X136073371Y-91913920D01*
X136182860Y-92077781D01*
X136182863Y-92077785D01*
X136322214Y-92217136D01*
X136322218Y-92217139D01*
X136486079Y-92326628D01*
X136486092Y-92326635D01*
X136668160Y-92402049D01*
X136668165Y-92402051D01*
X136668169Y-92402051D01*
X136668170Y-92402052D01*
X136861456Y-92440500D01*
X136861459Y-92440500D01*
X138058543Y-92440500D01*
X138238075Y-92404788D01*
X138251835Y-92402051D01*
X138433914Y-92326632D01*
X138597782Y-92217139D01*
X138737139Y-92077782D01*
X138846632Y-91913914D01*
X138922051Y-91731835D01*
X138934632Y-91668582D01*
X138960500Y-91538543D01*
X155679499Y-91538543D01*
X155717947Y-91731829D01*
X155717950Y-91731839D01*
X155793364Y-91913907D01*
X155793371Y-91913920D01*
X155902860Y-92077781D01*
X155902863Y-92077785D01*
X156042214Y-92217136D01*
X156042218Y-92217139D01*
X156206079Y-92326628D01*
X156206092Y-92326635D01*
X156388160Y-92402049D01*
X156388165Y-92402051D01*
X156388169Y-92402051D01*
X156388170Y-92402052D01*
X156581456Y-92440500D01*
X156581459Y-92440500D01*
X157778543Y-92440500D01*
X157958075Y-92404788D01*
X157971835Y-92402051D01*
X158153914Y-92326632D01*
X158317782Y-92217139D01*
X158457139Y-92077782D01*
X158566632Y-91913914D01*
X158642051Y-91731835D01*
X158654632Y-91668582D01*
X158680500Y-91538543D01*
X158680500Y-91341456D01*
X158642052Y-91148170D01*
X158642051Y-91148169D01*
X158642051Y-91148165D01*
X158626686Y-91111070D01*
X158566635Y-90966092D01*
X158566628Y-90966079D01*
X158457139Y-90802218D01*
X158457136Y-90802214D01*
X158317785Y-90662863D01*
X158317781Y-90662860D01*
X158153920Y-90553371D01*
X158153907Y-90553364D01*
X157971839Y-90477950D01*
X157971829Y-90477947D01*
X157778543Y-90439500D01*
X157778541Y-90439500D01*
X156581459Y-90439500D01*
X156581457Y-90439500D01*
X156388170Y-90477947D01*
X156388160Y-90477950D01*
X156206092Y-90553364D01*
X156206079Y-90553371D01*
X156042218Y-90662860D01*
X156042214Y-90662863D01*
X155902863Y-90802214D01*
X155902860Y-90802218D01*
X155793371Y-90966079D01*
X155793364Y-90966092D01*
X155717950Y-91148160D01*
X155717947Y-91148170D01*
X155679500Y-91341456D01*
X155679500Y-91341459D01*
X155679500Y-91538541D01*
X155679500Y-91538543D01*
X155679499Y-91538543D01*
X138960500Y-91538543D01*
X138960500Y-91341456D01*
X138922052Y-91148170D01*
X138922051Y-91148169D01*
X138922051Y-91148165D01*
X138906686Y-91111070D01*
X138846635Y-90966092D01*
X138846628Y-90966079D01*
X138737139Y-90802218D01*
X138737136Y-90802214D01*
X138597785Y-90662863D01*
X138597781Y-90662860D01*
X138433920Y-90553371D01*
X138433907Y-90553364D01*
X138251839Y-90477950D01*
X138251829Y-90477947D01*
X138058543Y-90439500D01*
X138058541Y-90439500D01*
X136861459Y-90439500D01*
X136861457Y-90439500D01*
X136668170Y-90477947D01*
X136668160Y-90477950D01*
X136486092Y-90553364D01*
X136486079Y-90553371D01*
X136322218Y-90662860D01*
X136322214Y-90662863D01*
X136182863Y-90802214D01*
X136182860Y-90802218D01*
X136073371Y-90966079D01*
X136073364Y-90966092D01*
X135997950Y-91148160D01*
X135997947Y-91148170D01*
X135959500Y-91341456D01*
X135959500Y-91341459D01*
X135959500Y-91538541D01*
X135959500Y-91538543D01*
X135959499Y-91538543D01*
X130048000Y-91538543D01*
X130048000Y-89824900D01*
X165511315Y-89824900D01*
X165511315Y-89969850D01*
X165531433Y-90044929D01*
X165548832Y-90109863D01*
X165621303Y-90235386D01*
X165621305Y-90235388D01*
X165621306Y-90235390D01*
X165723800Y-90337884D01*
X165723801Y-90337885D01*
X165723803Y-90337886D01*
X165849326Y-90410357D01*
X165849327Y-90410357D01*
X165849330Y-90410359D01*
X165989340Y-90447875D01*
X165989343Y-90447875D01*
X166134287Y-90447875D01*
X166134290Y-90447875D01*
X166274300Y-90410359D01*
X166399830Y-90337884D01*
X166502324Y-90235390D01*
X166574799Y-90109860D01*
X166612315Y-89969850D01*
X166612315Y-89824900D01*
X166574799Y-89684890D01*
X166502324Y-89559360D01*
X166399830Y-89456866D01*
X166399828Y-89456865D01*
X166399826Y-89456863D01*
X166274303Y-89384392D01*
X166274304Y-89384392D01*
X166263428Y-89381478D01*
X166134290Y-89346875D01*
X165989340Y-89346875D01*
X165860808Y-89381315D01*
X165849326Y-89384392D01*
X165723803Y-89456863D01*
X165723797Y-89456868D01*
X165621308Y-89559357D01*
X165621303Y-89559363D01*
X165548832Y-89684886D01*
X165548831Y-89684890D01*
X165511315Y-89824900D01*
X130048000Y-89824900D01*
X130048000Y-89241389D01*
X172510500Y-89241389D01*
X172510500Y-89414610D01*
X172533425Y-89559357D01*
X172537598Y-89585701D01*
X172591127Y-89750445D01*
X172669768Y-89904788D01*
X172771586Y-90044928D01*
X172894072Y-90167414D01*
X173034212Y-90269232D01*
X173188555Y-90347873D01*
X173353299Y-90401402D01*
X173524389Y-90428500D01*
X173524390Y-90428500D01*
X173947610Y-90428500D01*
X173947611Y-90428500D01*
X174118701Y-90401402D01*
X174283445Y-90347873D01*
X174437788Y-90269232D01*
X174577928Y-90167414D01*
X174700414Y-90044928D01*
X174802232Y-89904788D01*
X174880873Y-89750445D01*
X174934402Y-89585701D01*
X174961500Y-89414611D01*
X174961500Y-89241389D01*
X174934402Y-89070299D01*
X174880873Y-88905555D01*
X174802232Y-88751212D01*
X174700414Y-88611072D01*
X174577928Y-88488586D01*
X174437788Y-88386768D01*
X174283445Y-88308127D01*
X174118701Y-88254598D01*
X174118699Y-88254597D01*
X174118698Y-88254597D01*
X173987271Y-88233781D01*
X173947611Y-88227500D01*
X173524389Y-88227500D01*
X173484728Y-88233781D01*
X173353302Y-88254597D01*
X173188552Y-88308128D01*
X173034211Y-88386768D01*
X172954256Y-88444859D01*
X172894072Y-88488586D01*
X172894070Y-88488588D01*
X172894069Y-88488588D01*
X172771588Y-88611069D01*
X172771588Y-88611070D01*
X172771586Y-88611072D01*
X172727859Y-88671256D01*
X172669768Y-88751211D01*
X172591128Y-88905552D01*
X172537597Y-89070302D01*
X172510500Y-89241389D01*
X130048000Y-89241389D01*
X130048000Y-87581671D01*
X166169390Y-87581671D01*
X166169390Y-87726621D01*
X166180808Y-87769232D01*
X166206907Y-87866634D01*
X166279378Y-87992157D01*
X166279380Y-87992159D01*
X166279381Y-87992161D01*
X166381875Y-88094655D01*
X166381876Y-88094656D01*
X166381878Y-88094657D01*
X166507401Y-88167128D01*
X166507402Y-88167128D01*
X166507405Y-88167130D01*
X166647415Y-88204646D01*
X166647418Y-88204646D01*
X166792362Y-88204646D01*
X166792365Y-88204646D01*
X166932375Y-88167130D01*
X167057905Y-88094655D01*
X167160399Y-87992161D01*
X167232874Y-87866631D01*
X167270390Y-87726621D01*
X167270390Y-87581671D01*
X167232874Y-87441661D01*
X167211585Y-87404788D01*
X167160401Y-87316134D01*
X167160396Y-87316128D01*
X167057907Y-87213639D01*
X167057901Y-87213634D01*
X166932378Y-87141163D01*
X166932379Y-87141163D01*
X166920896Y-87138086D01*
X166792365Y-87103646D01*
X166647415Y-87103646D01*
X166518883Y-87138086D01*
X166507401Y-87141163D01*
X166381878Y-87213634D01*
X166381872Y-87213639D01*
X166279383Y-87316128D01*
X166279378Y-87316134D01*
X166206907Y-87441657D01*
X166206906Y-87441661D01*
X166169390Y-87581671D01*
X130048000Y-87581671D01*
X130048000Y-86741389D01*
X172510500Y-86741389D01*
X172510500Y-86914611D01*
X172537598Y-87085701D01*
X172591127Y-87250445D01*
X172669768Y-87404788D01*
X172771586Y-87544928D01*
X172894072Y-87667414D01*
X173034212Y-87769232D01*
X173188555Y-87847873D01*
X173353299Y-87901402D01*
X173524389Y-87928500D01*
X173524390Y-87928500D01*
X173947610Y-87928500D01*
X173947611Y-87928500D01*
X174118701Y-87901402D01*
X174283445Y-87847873D01*
X174437788Y-87769232D01*
X174577928Y-87667414D01*
X174700414Y-87544928D01*
X174802232Y-87404788D01*
X174880873Y-87250445D01*
X174934402Y-87085701D01*
X174961500Y-86914611D01*
X174961500Y-86741389D01*
X174934402Y-86570299D01*
X174880873Y-86405555D01*
X174802232Y-86251212D01*
X174700414Y-86111072D01*
X174577928Y-85988586D01*
X174437788Y-85886768D01*
X174283445Y-85808127D01*
X174118701Y-85754598D01*
X174118699Y-85754597D01*
X174118698Y-85754597D01*
X173987271Y-85733781D01*
X173947611Y-85727500D01*
X173524389Y-85727500D01*
X173484728Y-85733781D01*
X173353302Y-85754597D01*
X173188552Y-85808128D01*
X173034211Y-85886768D01*
X172954256Y-85944859D01*
X172894072Y-85988586D01*
X172894070Y-85988588D01*
X172894069Y-85988588D01*
X172771588Y-86111069D01*
X172771588Y-86111070D01*
X172771586Y-86111072D01*
X172727859Y-86171256D01*
X172669768Y-86251211D01*
X172591128Y-86405552D01*
X172537597Y-86570302D01*
X172510500Y-86741389D01*
X130048000Y-86741389D01*
X130048000Y-84452000D01*
X130067685Y-84384961D01*
X130120489Y-84339206D01*
X130172000Y-84328000D01*
X135128000Y-84328000D01*
X135128000Y-84241389D01*
X172510500Y-84241389D01*
X172510500Y-84414611D01*
X172537598Y-84585701D01*
X172591127Y-84750445D01*
X172669768Y-84904788D01*
X172771586Y-85044928D01*
X172894072Y-85167414D01*
X173034212Y-85269232D01*
X173188555Y-85347873D01*
X173353299Y-85401402D01*
X173524389Y-85428500D01*
X173524390Y-85428500D01*
X173947610Y-85428500D01*
X173947611Y-85428500D01*
X174118701Y-85401402D01*
X174283445Y-85347873D01*
X174437788Y-85269232D01*
X174577928Y-85167414D01*
X174700414Y-85044928D01*
X174802232Y-84904788D01*
X174880873Y-84750445D01*
X174934402Y-84585701D01*
X174961500Y-84414611D01*
X174961500Y-84241389D01*
X174934402Y-84070299D01*
X174880873Y-83905555D01*
X174802232Y-83751212D01*
X174700414Y-83611072D01*
X174577928Y-83488586D01*
X174437788Y-83386768D01*
X174283445Y-83308127D01*
X174118701Y-83254598D01*
X174118699Y-83254597D01*
X174118698Y-83254597D01*
X173982665Y-83233052D01*
X173947611Y-83227500D01*
X173524389Y-83227500D01*
X173489335Y-83233052D01*
X173353302Y-83254597D01*
X173188552Y-83308128D01*
X173034211Y-83386768D01*
X172954256Y-83444859D01*
X172894072Y-83488586D01*
X172894070Y-83488588D01*
X172894069Y-83488588D01*
X172771588Y-83611069D01*
X172771588Y-83611070D01*
X172771586Y-83611072D01*
X172737472Y-83658026D01*
X172669768Y-83751211D01*
X172591128Y-83905552D01*
X172537597Y-84070302D01*
X172510500Y-84241389D01*
X135128000Y-84241389D01*
X135128000Y-83373066D01*
X153680508Y-83373066D01*
X153680508Y-83518016D01*
X153705442Y-83611069D01*
X153718025Y-83658029D01*
X153790496Y-83783552D01*
X153790498Y-83783554D01*
X153790499Y-83783556D01*
X153892993Y-83886050D01*
X153892994Y-83886051D01*
X153892996Y-83886052D01*
X154018519Y-83958523D01*
X154018520Y-83958523D01*
X154018523Y-83958525D01*
X154158533Y-83996041D01*
X154158536Y-83996041D01*
X154303480Y-83996041D01*
X154303483Y-83996041D01*
X154443493Y-83958525D01*
X154569023Y-83886050D01*
X154671517Y-83783556D01*
X154743992Y-83658026D01*
X154781508Y-83518016D01*
X154781508Y-83373066D01*
X154743992Y-83233056D01*
X154740784Y-83227500D01*
X154671519Y-83107529D01*
X154671514Y-83107523D01*
X154569025Y-83005034D01*
X154569019Y-83005029D01*
X154443496Y-82932558D01*
X154443497Y-82932558D01*
X154432014Y-82929481D01*
X154303483Y-82895041D01*
X154158533Y-82895041D01*
X154030001Y-82929481D01*
X154018519Y-82932558D01*
X153892996Y-83005029D01*
X153892990Y-83005034D01*
X153790501Y-83107523D01*
X153790496Y-83107529D01*
X153718025Y-83233052D01*
X153718024Y-83233056D01*
X153680508Y-83373066D01*
X135128000Y-83373066D01*
X135128000Y-76527813D01*
X139830500Y-76527813D01*
X139830500Y-76707186D01*
X139849142Y-76824884D01*
X139858558Y-76884334D01*
X139913984Y-77054916D01*
X139958037Y-77141376D01*
X139995414Y-77214731D01*
X140100832Y-77359828D01*
X140100836Y-77359833D01*
X140227666Y-77486663D01*
X140227671Y-77486667D01*
X140354232Y-77578618D01*
X140372772Y-77592088D01*
X140532584Y-77673516D01*
X140703166Y-77728942D01*
X140769598Y-77739463D01*
X140880314Y-77757000D01*
X140880319Y-77757000D01*
X141059686Y-77757000D01*
X141158099Y-77741412D01*
X141236834Y-77728942D01*
X141407416Y-77673516D01*
X141567228Y-77592088D01*
X141712335Y-77486662D01*
X141839162Y-77359835D01*
X141944588Y-77214728D01*
X141991243Y-77123161D01*
X142039217Y-77072366D01*
X142107038Y-77055571D01*
X142173173Y-77078108D01*
X142216625Y-77132823D01*
X142219659Y-77141139D01*
X142222761Y-77150688D01*
X142222762Y-77150691D01*
X142322020Y-77345493D01*
X142322021Y-77345495D01*
X142366806Y-77407138D01*
X142366807Y-77407138D01*
X143027037Y-76746908D01*
X143044075Y-76810493D01*
X143109901Y-76924507D01*
X143202993Y-77017599D01*
X143317007Y-77083425D01*
X143380590Y-77100462D01*
X142720360Y-77760691D01*
X142782008Y-77805480D01*
X142976808Y-77904737D01*
X142976811Y-77904738D01*
X143184740Y-77972297D01*
X143400684Y-78006500D01*
X143619316Y-78006500D01*
X143835259Y-77972297D01*
X144043188Y-77904738D01*
X144043191Y-77904737D01*
X144237995Y-77805478D01*
X144299638Y-77760691D01*
X144299639Y-77760691D01*
X143639409Y-77100462D01*
X143702993Y-77083425D01*
X143817007Y-77017599D01*
X143910099Y-76924507D01*
X143975925Y-76810493D01*
X143992962Y-76746910D01*
X144653191Y-77407139D01*
X144653191Y-77407138D01*
X144697978Y-77345495D01*
X144797237Y-77150691D01*
X144797237Y-77150688D01*
X144800338Y-77141146D01*
X144839771Y-77083468D01*
X144904128Y-77056266D01*
X144972975Y-77068176D01*
X145024454Y-77115417D01*
X145028755Y-77123161D01*
X145075412Y-77214729D01*
X145180832Y-77359828D01*
X145180836Y-77359833D01*
X145307666Y-77486663D01*
X145307671Y-77486667D01*
X145434232Y-77578618D01*
X145452772Y-77592088D01*
X145612584Y-77673516D01*
X145783166Y-77728942D01*
X145849598Y-77739463D01*
X145960314Y-77757000D01*
X145960319Y-77757000D01*
X146139686Y-77757000D01*
X146238099Y-77741412D01*
X146316834Y-77728942D01*
X146487416Y-77673516D01*
X146647228Y-77592088D01*
X146792335Y-77486662D01*
X146919162Y-77359835D01*
X147024588Y-77214728D01*
X147106016Y-77054916D01*
X147161442Y-76884334D01*
X147176746Y-76787705D01*
X147189500Y-76707186D01*
X147189500Y-76527813D01*
X147161442Y-76350669D01*
X147161442Y-76350666D01*
X147106016Y-76180084D01*
X147024588Y-76020272D01*
X146932955Y-75894149D01*
X146919165Y-75875168D01*
X146847320Y-75803323D01*
X149562733Y-75803323D01*
X149562733Y-76553668D01*
X150571985Y-76553668D01*
X150550215Y-76591376D01*
X150512733Y-76731259D01*
X150512733Y-76876077D01*
X150550215Y-77015960D01*
X150571985Y-77053668D01*
X149562733Y-77053668D01*
X149562733Y-77804012D01*
X149569134Y-77863540D01*
X149569136Y-77863547D01*
X149619378Y-77998254D01*
X149619382Y-77998261D01*
X149705542Y-78113355D01*
X149705545Y-78113358D01*
X149820639Y-78199518D01*
X149820646Y-78199522D01*
X149955353Y-78249764D01*
X149955360Y-78249766D01*
X150014888Y-78256167D01*
X150014905Y-78256168D01*
X150102072Y-78256168D01*
X150169111Y-78275853D01*
X150214866Y-78328657D01*
X150224810Y-78397815D01*
X150195785Y-78461371D01*
X150189753Y-78467849D01*
X150097638Y-78559963D01*
X149986335Y-78713158D01*
X149900368Y-78881875D01*
X149900367Y-78881878D01*
X149841855Y-79061963D01*
X149812233Y-79248990D01*
X149812233Y-79438345D01*
X149841855Y-79625372D01*
X149900367Y-79805457D01*
X149900368Y-79805460D01*
X149986335Y-79974177D01*
X150097636Y-80127370D01*
X150231531Y-80261265D01*
X150384724Y-80372566D01*
X150467474Y-80414729D01*
X150553440Y-80458532D01*
X150553443Y-80458533D01*
X150667946Y-80495737D01*
X150725621Y-80535174D01*
X150752820Y-80599533D01*
X150740906Y-80668379D01*
X150693662Y-80719855D01*
X150667946Y-80731599D01*
X150553443Y-80768802D01*
X150553440Y-80768803D01*
X150384723Y-80854770D01*
X150231528Y-80966073D01*
X150097638Y-81099963D01*
X149986335Y-81253158D01*
X149900368Y-81421875D01*
X149900367Y-81421878D01*
X149841855Y-81601963D01*
X149812233Y-81788990D01*
X149812233Y-81978345D01*
X149841855Y-82165372D01*
X149900367Y-82345457D01*
X149900368Y-82345460D01*
X149986335Y-82514177D01*
X150097636Y-82667370D01*
X150231531Y-82801265D01*
X150384724Y-82912566D01*
X150467474Y-82954729D01*
X150553440Y-82998532D01*
X150553443Y-82998533D01*
X150643485Y-83027789D01*
X150733530Y-83057046D01*
X150920555Y-83086668D01*
X150920556Y-83086668D01*
X151204910Y-83086668D01*
X151204911Y-83086668D01*
X151391936Y-83057046D01*
X151572025Y-82998532D01*
X151740742Y-82912566D01*
X151893935Y-82801265D01*
X152027830Y-82667370D01*
X152139131Y-82514177D01*
X152225097Y-82345460D01*
X152283611Y-82165371D01*
X152313233Y-81978346D01*
X152313233Y-81788990D01*
X152283611Y-81601965D01*
X152225097Y-81421876D01*
X152225097Y-81421875D01*
X152139130Y-81253158D01*
X152027830Y-81099966D01*
X151893935Y-80966071D01*
X151740742Y-80854770D01*
X151572025Y-80768803D01*
X151572022Y-80768802D01*
X151457519Y-80731599D01*
X151399844Y-80692162D01*
X151372645Y-80627804D01*
X151384559Y-80558957D01*
X151431803Y-80507481D01*
X151457519Y-80495737D01*
X151572022Y-80458533D01*
X151572025Y-80458532D01*
X151740742Y-80372566D01*
X151893935Y-80261265D01*
X152027830Y-80127370D01*
X152139131Y-79974177D01*
X152225097Y-79805460D01*
X152283611Y-79625371D01*
X152313233Y-79438346D01*
X152313233Y-79248990D01*
X152283611Y-79061965D01*
X152225097Y-78881876D01*
X152225097Y-78881875D01*
X152144288Y-78723281D01*
X152139131Y-78713159D01*
X152027830Y-78559966D01*
X151935713Y-78467849D01*
X151902228Y-78406526D01*
X151907212Y-78336834D01*
X151949084Y-78280901D01*
X152014548Y-78256484D01*
X152023394Y-78256168D01*
X152110561Y-78256168D01*
X152110577Y-78256167D01*
X152170105Y-78249766D01*
X152170112Y-78249764D01*
X152304819Y-78199522D01*
X152304826Y-78199518D01*
X152419920Y-78113358D01*
X152419923Y-78113355D01*
X152506083Y-77998261D01*
X152506087Y-77998254D01*
X152556329Y-77863547D01*
X152556331Y-77863540D01*
X152562732Y-77804012D01*
X152562733Y-77803995D01*
X152562733Y-77053668D01*
X151553481Y-77053668D01*
X151575251Y-77015960D01*
X151612733Y-76876077D01*
X151612733Y-76731259D01*
X151575251Y-76591376D01*
X151553481Y-76553668D01*
X152562733Y-76553668D01*
X152562733Y-75803340D01*
X152562732Y-75803323D01*
X152556331Y-75743795D01*
X152556329Y-75743788D01*
X152506087Y-75609081D01*
X152506083Y-75609074D01*
X152419923Y-75493980D01*
X152419920Y-75493977D01*
X152304826Y-75407817D01*
X152304819Y-75407813D01*
X152170112Y-75357571D01*
X152170105Y-75357569D01*
X152110577Y-75351168D01*
X151312733Y-75351168D01*
X151312733Y-76312920D01*
X151275025Y-76291150D01*
X151135142Y-76253668D01*
X150990324Y-76253668D01*
X150850441Y-76291150D01*
X150812733Y-76312920D01*
X150812733Y-75351168D01*
X150014888Y-75351168D01*
X149955360Y-75357569D01*
X149955353Y-75357571D01*
X149820646Y-75407813D01*
X149820639Y-75407817D01*
X149705545Y-75493977D01*
X149705542Y-75493980D01*
X149619382Y-75609074D01*
X149619378Y-75609081D01*
X149569136Y-75743788D01*
X149569134Y-75743795D01*
X149562733Y-75803323D01*
X146847320Y-75803323D01*
X146792333Y-75748336D01*
X146792328Y-75748332D01*
X146647231Y-75642914D01*
X146647230Y-75642913D01*
X146647228Y-75642912D01*
X146487416Y-75561484D01*
X146316834Y-75506058D01*
X146316832Y-75506057D01*
X146316830Y-75506057D01*
X146139686Y-75478000D01*
X146139681Y-75478000D01*
X145960319Y-75478000D01*
X145960314Y-75478000D01*
X145783169Y-75506057D01*
X145612581Y-75561485D01*
X145452768Y-75642914D01*
X145307671Y-75748332D01*
X145307666Y-75748336D01*
X145180836Y-75875166D01*
X145180832Y-75875171D01*
X145075412Y-76020270D01*
X145028755Y-76111838D01*
X144980780Y-76162634D01*
X144912959Y-76179428D01*
X144846824Y-76156890D01*
X144803373Y-76102174D01*
X144800338Y-76093855D01*
X144797236Y-76084306D01*
X144697980Y-75889508D01*
X144653191Y-75827860D01*
X143992962Y-76488089D01*
X143975925Y-76424507D01*
X143910099Y-76310493D01*
X143817007Y-76217401D01*
X143702993Y-76151575D01*
X143639407Y-76134537D01*
X144299638Y-75474307D01*
X144299638Y-75474306D01*
X144237995Y-75429521D01*
X144237993Y-75429520D01*
X144043191Y-75330262D01*
X144043188Y-75330261D01*
X143835259Y-75262702D01*
X143619316Y-75228500D01*
X143400684Y-75228500D01*
X143184740Y-75262702D01*
X142976811Y-75330261D01*
X142976808Y-75330262D01*
X142782001Y-75429523D01*
X142720360Y-75474306D01*
X142720360Y-75474307D01*
X143380590Y-76134537D01*
X143317007Y-76151575D01*
X143202993Y-76217401D01*
X143109901Y-76310493D01*
X143044075Y-76424507D01*
X143027037Y-76488090D01*
X142366807Y-75827860D01*
X142366806Y-75827860D01*
X142322023Y-75889501D01*
X142222762Y-76084308D01*
X142222761Y-76084313D01*
X142219658Y-76093863D01*
X142180219Y-76151537D01*
X142115860Y-76178734D01*
X142047014Y-76166818D01*
X141995539Y-76119573D01*
X141991243Y-76111837D01*
X141976075Y-76082070D01*
X141944588Y-76020272D01*
X141849578Y-75889501D01*
X141839167Y-75875171D01*
X141839163Y-75875166D01*
X141712333Y-75748336D01*
X141712328Y-75748332D01*
X141567231Y-75642914D01*
X141567230Y-75642913D01*
X141567228Y-75642912D01*
X141407416Y-75561484D01*
X141236834Y-75506058D01*
X141236832Y-75506057D01*
X141236830Y-75506057D01*
X141059686Y-75478000D01*
X141059681Y-75478000D01*
X140880319Y-75478000D01*
X140880314Y-75478000D01*
X140703169Y-75506057D01*
X140532581Y-75561485D01*
X140372768Y-75642914D01*
X140227671Y-75748332D01*
X140227666Y-75748336D01*
X140100836Y-75875166D01*
X140100832Y-75875171D01*
X139995414Y-76020268D01*
X139913985Y-76180081D01*
X139858557Y-76350669D01*
X139830500Y-76527813D01*
X135128000Y-76527813D01*
X135128000Y-74292000D01*
X135147685Y-74224961D01*
X135200489Y-74179206D01*
X135252000Y-74168000D01*
X172240638Y-74168000D01*
X172307677Y-74187685D01*
G37*
%TD.AperFunction*%
%TD*%
M02*
