M48
; DRILL file {KiCad 9.0.6} date 2026-03-02T18:40:09-0600
; FORMAT={-:-/ absolute / metric / decimal}
; #@! TF.CreationDate,2026-03-02T18:40:09-06:00
; #@! TF.GenerationSoftware,Kicad,Pcbnew,9.0.6
; #@! TF.FileFunction,Plated,1,4,PTH
FMAT,2
METRIC
; #@! TA.AperFunction,Plated,PTH,ViaDrill
T1C0.250
; #@! TA.AperFunction,Plated,PTH,ViaDrill
T2C0.300
; #@! TA.AperFunction,Plated,PTH,ComponentDrill
T3C0.950
; #@! TA.AperFunction,Plated,PTH,ComponentDrill
T4C1.000
; #@! TA.AperFunction,Plated,PTH,ComponentDrill
T5C1.100
; #@! TA.AperFunction,Plated,PTH,ComponentDrill
T6C1.190
; #@! TA.AperFunction,Plated,PTH,ComponentDrill
T7C1.300
; #@! TA.AperFunction,Plated,PTH,ComponentDrill
T8C1.600
%
G90
G05
T1
X123.113Y-93.036
X123.113Y-99.375
X123.13Y-105.753
X123.13Y-101.301
X123.165Y-113.999
X123.165Y-94.927
X123.183Y-107.661
X123.183Y-112.073
X127.561Y-89.416
X128.482Y-93.345
X128.482Y-94.615
X128.482Y-100.965
X128.499Y-112.428
X128.516Y-99.7
X128.517Y-113.665
X128.523Y-106.044
X128.534Y-107.315
X131.479Y-89.393
X134.613Y-95.995
X134.614Y-115.017
X134.623Y-91.955
X134.628Y-104.702
X134.637Y-98.302
X134.637Y-111.041
X134.644Y-102.362
X134.664Y-108.631
T2
X133.096Y-85.852
X154.231Y-83.446
X159.575Y-75.144
X161.29Y-85.09
X162.353Y-94.033
X162.353Y-98.801
X165.887Y-98.847
X166.062Y-89.897
X166.72Y-87.654
X167.64Y-76.2
X168.27Y-84.245
X175.215Y-121.875
T3
X162.68Y-109.22
X162.68Y-116.84
X162.72Y-101.6
X165.18Y-109.22
X165.18Y-116.84
X165.22Y-101.6
X167.68Y-109.22
X167.68Y-116.84
X167.72Y-101.6
X170.18Y-109.22
X170.18Y-116.84
X170.22Y-101.6
X172.72Y-101.6
X173.736Y-84.328
X173.736Y-86.828
X173.736Y-89.328
X173.736Y-91.828
X173.736Y-94.328
T4
X119.38Y-77.007
X119.38Y-82.007
X125.095Y-124.46
X127.635Y-124.46
X128.27Y-76.617
X130.175Y-124.46
X130.81Y-76.617
X133.35Y-76.617
X137.16Y-91.44
X137.16Y-93.98
X137.16Y-96.52
X137.16Y-99.06
X137.16Y-101.6
X137.16Y-104.14
X137.16Y-106.68
X137.16Y-109.22
X137.16Y-111.76
X137.16Y-114.3
X137.16Y-116.84
X137.16Y-119.38
X140.97Y-76.617
X143.51Y-76.617
X146.05Y-76.617
X157.48Y-91.44
X157.48Y-93.98
X157.48Y-96.52
X157.48Y-99.06
X157.48Y-101.6
X157.48Y-104.14
X157.48Y-106.68
X157.48Y-109.22
X157.48Y-111.76
X157.48Y-114.3
X157.48Y-116.84
X157.48Y-119.38
X157.48Y-121.92
X157.48Y-124.46
X157.48Y-127.0
X157.48Y-129.54
X162.6Y-124.46
X162.6Y-132.08
X165.1Y-124.46
X165.1Y-132.08
T5
X151.063Y-76.804
X151.063Y-79.344
X151.063Y-81.884
T6
X106.68Y-94.615
X106.68Y-97.155
X106.68Y-99.695
X106.68Y-102.235
X106.68Y-106.045
X106.68Y-108.585
X106.68Y-111.125
X106.68Y-113.665
X106.68Y-117.475
X106.68Y-120.015
X106.68Y-122.555
X106.68Y-125.095
X116.84Y-94.615
X116.84Y-97.155
X116.84Y-99.695
X116.84Y-102.235
X116.84Y-117.475
X116.84Y-120.015
X116.84Y-122.555
X116.84Y-125.095
X116.86Y-106.045
X116.86Y-108.585
X116.86Y-111.125
X116.86Y-113.665
T7
X107.95Y-84.455
X107.95Y-89.535
T8
X114.3Y-132.08
X129.54Y-132.08
M30
