M48
; DRILL file {KiCad 9.0.6} date 2026-01-21T20:36:20-0600
; FORMAT={-:-/ absolute / metric / decimal}
; #@! TF.CreationDate,2026-01-21T20:36:20-06:00
; #@! TF.GenerationSoftware,Kicad,Pcbnew,9.0.6
; #@! TF.FileFunction,Plated,1,4,PTH
FMAT,2
METRIC
; #@! TA.AperFunction,Plated,PTH,ComponentDrill
T1C0.800
; #@! TA.AperFunction,Plated,PTH,ComponentDrill
T2C0.950
; #@! TA.AperFunction,Plated,PTH,ComponentDrill
T3C1.000
; #@! TA.AperFunction,Plated,PTH,ComponentDrill
T4C1.100
; #@! TA.AperFunction,Plated,PTH,ComponentDrill
T5C1.190
; #@! TA.AperFunction,Plated,PTH,ComponentDrill
T6C1.300
%
G90
G05
T1
X115.57Y-83.82
X115.57Y-91.44
X115.57Y-95.25
X115.57Y-102.87
X115.57Y-106.68
X115.57Y-114.3
X115.57Y-118.11
X115.57Y-125.73
X121.046Y-73.914
X128.666Y-73.914
X149.86Y-135.89
X149.86Y-143.51
X161.087Y-134.466
X161.151Y-121.856
X168.707Y-134.466
X168.771Y-121.856
T2
X108.03Y-142.24
X110.53Y-142.24
X113.03Y-142.24
X139.7Y-135.89
X139.7Y-138.39
X139.7Y-140.89
X139.7Y-143.39
X154.94Y-136.01
X154.94Y-138.51
X154.94Y-141.01
X154.94Y-143.51
X165.1Y-97.79
X165.1Y-100.29
X165.1Y-102.79
X165.1Y-105.29
X165.1Y-107.79
T3
X110.984Y-64.805
X113.524Y-64.805
X116.064Y-64.805
X119.38Y-77.37
X119.38Y-79.91
X119.38Y-82.45
X119.38Y-84.99
X119.38Y-88.8
X119.38Y-91.34
X119.38Y-93.88
X119.38Y-96.42
X119.38Y-100.23
X119.38Y-102.77
X119.38Y-105.31
X119.38Y-107.85
X119.38Y-111.66
X119.38Y-114.2
X119.38Y-116.74
X119.38Y-119.28
X119.38Y-130.81
X119.38Y-133.35
X119.38Y-135.89
X119.38Y-138.43
X123.684Y-64.805
X126.224Y-64.805
X128.764Y-64.805
X132.08Y-77.37
X132.08Y-79.91
X132.08Y-82.45
X132.08Y-84.99
X132.08Y-88.8
X132.08Y-91.34
X132.08Y-93.88
X132.08Y-96.42
X132.08Y-100.23
X132.08Y-102.77
X132.08Y-105.31
X132.08Y-107.85
X132.08Y-111.66
X132.08Y-114.2
X132.08Y-116.74
X132.08Y-119.28
X132.08Y-130.81
X132.08Y-133.35
X132.08Y-135.89
X132.08Y-138.43
X137.688Y-87.63
X137.688Y-90.17
X137.688Y-92.71
X137.688Y-95.25
X137.688Y-97.79
X137.688Y-100.33
X137.688Y-102.87
X137.688Y-105.41
X137.688Y-107.95
X137.688Y-110.49
X137.688Y-113.03
X137.688Y-115.57
X158.007Y-87.63
X158.007Y-90.17
X158.007Y-92.71
X158.007Y-95.25
X158.007Y-97.79
X158.007Y-100.33
X158.007Y-102.87
X158.007Y-105.41
X158.007Y-107.95
X158.007Y-110.49
X158.007Y-113.03
X158.007Y-115.57
X158.007Y-118.11
X158.007Y-120.65
X158.007Y-123.19
X158.007Y-125.73
X165.1Y-114.34
X165.1Y-116.84
X165.1Y-127.08
X165.1Y-129.58
T4
X105.09Y-66.04
X105.09Y-68.58
X105.09Y-71.12
X136.84Y-66.04
X136.84Y-68.58
X136.84Y-71.12
T5
X104.14Y-78.74
X104.14Y-86.36
X104.14Y-109.24
X104.14Y-124.48
X104.15Y-94.0
X104.15Y-101.6
X104.15Y-116.84
X106.68Y-78.74
X106.68Y-86.36
X106.68Y-109.24
X106.68Y-124.48
X106.69Y-94.0
X106.69Y-101.6
X106.69Y-116.84
X109.22Y-78.74
X109.22Y-86.36
X109.22Y-109.24
X109.22Y-124.48
X109.23Y-94.0
X109.23Y-101.6
X109.23Y-116.84
X111.76Y-78.74
X111.76Y-86.36
X111.76Y-109.24
X111.76Y-124.48
X111.77Y-94.0
X111.77Y-101.6
X111.77Y-116.84
T6
X96.53Y-99.065
X96.53Y-104.145
M30
