%TF.GenerationSoftware,KiCad,Pcbnew,9.0.6*%
%TF.CreationDate,2026-01-21T20:36:16-06:00*%
%TF.ProjectId,1000W Controller,31303030-5720-4436-9f6e-74726f6c6c65,rev?*%
%TF.SameCoordinates,Original*%
%TF.FileFunction,Copper,L2,Inr*%
%TF.FilePolarity,Positive*%
%FSLAX46Y46*%
G04 Gerber Fmt 4.6, Leading zero omitted, Abs format (unit mm)*
G04 Created by KiCad (PCBNEW 9.0.6) date 2026-01-21 20:36:16*
%MOMM*%
%LPD*%
G01*
G04 APERTURE LIST*
G04 Aperture macros list*
%AMRoundRect*
0 Rectangle with rounded corners*
0 $1 Rounding radius*
0 $2 $3 $4 $5 $6 $7 $8 $9 X,Y pos of 4 corners*
0 Add a 4 corners polygon primitive as box body*
4,1,4,$2,$3,$4,$5,$6,$7,$8,$9,$2,$3,0*
0 Add four circle primitives for the rounded corners*
1,1,$1+$1,$2,$3*
1,1,$1+$1,$4,$5*
1,1,$1+$1,$6,$7*
1,1,$1+$1,$8,$9*
0 Add four rect primitives between the rounded corners*
20,1,$1+$1,$2,$3,$4,$5,0*
20,1,$1+$1,$4,$5,$6,$7,0*
20,1,$1+$1,$6,$7,$8,$9,0*
20,1,$1+$1,$8,$9,$2,$3,0*%
G04 Aperture macros list end*
%TA.AperFunction,ComponentPad*%
%ADD10C,1.600000*%
%TD*%
%TA.AperFunction,ComponentPad*%
%ADD11C,1.778000*%
%TD*%
%TA.AperFunction,ComponentPad*%
%ADD12RoundRect,0.250000X-0.750000X0.600000X-0.750000X-0.600000X0.750000X-0.600000X0.750000X0.600000X0*%
%TD*%
%TA.AperFunction,ComponentPad*%
%ADD13O,2.000000X1.700000*%
%TD*%
%TA.AperFunction,ComponentPad*%
%ADD14RoundRect,0.250000X0.725000X-0.600000X0.725000X0.600000X-0.725000X0.600000X-0.725000X-0.600000X0*%
%TD*%
%TA.AperFunction,ComponentPad*%
%ADD15O,1.950000X1.700000*%
%TD*%
%TA.AperFunction,ComponentPad*%
%ADD16RoundRect,0.250000X0.600000X0.725000X-0.600000X0.725000X-0.600000X-0.725000X0.600000X-0.725000X0*%
%TD*%
%TA.AperFunction,ComponentPad*%
%ADD17O,1.700000X1.950000*%
%TD*%
%TA.AperFunction,ComponentPad*%
%ADD18RoundRect,0.250000X-0.620000X-0.845000X0.620000X-0.845000X0.620000X0.845000X-0.620000X0.845000X0*%
%TD*%
%TA.AperFunction,ComponentPad*%
%ADD19O,1.740000X2.190000*%
%TD*%
%TA.AperFunction,ComponentPad*%
%ADD20RoundRect,0.250000X-0.725000X0.600000X-0.725000X-0.600000X0.725000X-0.600000X0.725000X0.600000X0*%
%TD*%
%TA.AperFunction,ComponentPad*%
%ADD21R,2.000000X1.905000*%
%TD*%
%TA.AperFunction,ComponentPad*%
%ADD22O,2.000000X1.905000*%
%TD*%
%TA.AperFunction,ComponentPad*%
%ADD23RoundRect,0.250000X1.050000X-1.050000X1.050000X1.050000X-1.050000X1.050000X-1.050000X-1.050000X0*%
%TD*%
%TA.AperFunction,ComponentPad*%
%ADD24C,2.600000*%
%TD*%
%TA.AperFunction,ComponentPad*%
%ADD25RoundRect,0.250000X1.050000X0.550000X-1.050000X0.550000X-1.050000X-0.550000X1.050000X-0.550000X0*%
%TD*%
%TA.AperFunction,ComponentPad*%
%ADD26O,2.600000X1.600000*%
%TD*%
%TA.AperFunction,Conductor*%
%ADD27C,0.500000*%
%TD*%
%TA.AperFunction,Conductor*%
%ADD28C,1.000000*%
%TD*%
G04 APERTURE END LIST*
D10*
%TO.N,Net-(ADUM4-BI)*%
%TO.C,R5*%
X115570000Y-118110000D03*
%TO.N,+3.3V*%
X115570000Y-125730000D03*
%TD*%
D11*
%TO.N,+3.3V*%
%TO.C,ADUM4*%
X119380000Y-111660000D03*
%TO.N,Net-(ADUM4-AO)*%
X119380000Y-114200000D03*
%TO.N,Net-(ADUM4-BI)*%
X119380000Y-116740000D03*
%TO.N,GND*%
X119380000Y-119280000D03*
%TO.N,+ISO_3.3V*%
X132080000Y-111660000D03*
%TO.N,Net-(ADUM4-AI)*%
X132080000Y-114200000D03*
%TO.N,Net-(ADUM4-BO)*%
X132080000Y-116740000D03*
%TO.N,ISO_GND*%
X132080000Y-119280000D03*
%TD*%
D12*
%TO.N,ISO_GND*%
%TO.C,WATER_TEMP1*%
X165100000Y-114340000D03*
D13*
%TO.N,Net-(Feather_M4_Express1-A1)*%
X165100000Y-116840000D03*
%TD*%
D12*
%TO.N,ISO_GND*%
%TO.C,LED_TEMP1*%
X165100000Y-127080000D03*
D13*
%TO.N,Net-(Feather_M4_Express1-A0)*%
X165100000Y-129580000D03*
%TD*%
D10*
%TO.N,Net-(ADUM2-BI)*%
%TO.C,R7*%
X115570000Y-95250000D03*
%TO.N,+3.3V*%
X115570000Y-102870000D03*
%TD*%
D14*
%TO.N,Net-(Switch1-Pin_1)*%
%TO.C,Switch1*%
X154940000Y-143510000D03*
D15*
%TO.N,ISO_GND*%
X154940000Y-141010000D03*
X154940000Y-138510000D03*
%TO.N,Net-(Feather_M4_Express1-A3)*%
X154940000Y-136010000D03*
%TD*%
D16*
%TO.N,Net-(ISO1540-SLC1)*%
%TO.C,PMBus1*%
X113030000Y-142240000D03*
D17*
%TO.N,Net-(ISO1540-SDA1)*%
X110530000Y-142240000D03*
%TO.N,GND*%
X108030000Y-142240000D03*
%TD*%
D11*
%TO.N,+3.3V*%
%TO.C,ADUM2*%
X119380000Y-88800000D03*
%TO.N,Net-(ADUM2-AO)*%
X119380000Y-91340000D03*
%TO.N,Net-(ADUM2-BI)*%
X119380000Y-93880000D03*
%TO.N,GND*%
X119380000Y-96420000D03*
%TO.N,+ISO_3.3V*%
X132080000Y-88800000D03*
%TO.N,Net-(ADUM2-AI)*%
X132080000Y-91340000D03*
%TO.N,Net-(ADUM2-BO)*%
X132080000Y-93880000D03*
%TO.N,ISO_GND*%
X132080000Y-96420000D03*
%TD*%
D10*
%TO.N,+ISO_3.3V*%
%TO.C,R2*%
X161086661Y-134465996D03*
%TO.N,Net-(Feather_M4_Express1-A0)*%
X168706661Y-134465996D03*
%TD*%
D11*
%TO.N,+3.3V*%
%TO.C,ADUM1*%
X119380000Y-77370000D03*
%TO.N,Net-(ADUM1-AO)*%
X119380000Y-79910000D03*
%TO.N,Net-(ADUM1-BI)*%
X119380000Y-82450000D03*
%TO.N,GND*%
X119380000Y-84990000D03*
%TO.N,+ISO_3.3V*%
X132080000Y-77370000D03*
%TO.N,Net-(ADUM1-AI)*%
X132080000Y-79910000D03*
%TO.N,Net-(ADUM1-BO)*%
X132080000Y-82450000D03*
%TO.N,ISO_GND*%
X132080000Y-84990000D03*
%TD*%
D18*
%TO.N,GND*%
%TO.C,PSU_Fan1*%
X104140000Y-109240000D03*
D19*
%TO.N,+24V*%
X106680000Y-109240000D03*
%TO.N,Net-(ADUM2-AO)*%
X109220000Y-109240000D03*
%TO.N,Net-(ADUM2-BI)*%
X111760000Y-109240000D03*
%TD*%
D20*
%TO.N,ISO_GND*%
%TO.C,Display1*%
X139700000Y-135890000D03*
D15*
%TO.N,+ISO_3.3V*%
X139700000Y-138390000D03*
%TO.N,Net-(Display1-Pin_3)*%
X139700000Y-140890000D03*
%TO.N,Net-(Display1-Pin_4)*%
X139700000Y-143390000D03*
%TD*%
D21*
%TO.N,ISO_GND*%
%TO.C,U3*%
X136840000Y-71120000D03*
D22*
%TO.N,+ISO_3.3V*%
X136840000Y-68580000D03*
%TO.N,+ISO_5V*%
X136840000Y-66040000D03*
%TD*%
D11*
%TO.N,GND*%
%TO.C,ISO1540*%
X119380000Y-130810000D03*
%TO.N,Net-(ISO1540-SDA1)*%
X119380000Y-133350000D03*
%TO.N,Net-(ISO1540-SLC1)*%
X119380000Y-135890000D03*
%TO.N,+3.3V*%
X119380000Y-138430000D03*
%TO.N,ISO_GND*%
X132080000Y-130810000D03*
%TO.N,Net-(Display1-Pin_3)*%
X132080000Y-133350000D03*
%TO.N,Net-(Display1-Pin_4)*%
X132080000Y-135890000D03*
%TO.N,+ISO_3.3V*%
X132080000Y-138430000D03*
%TD*%
%TO.N,+3.3V*%
%TO.C,ADUM3*%
X119380000Y-100230000D03*
%TO.N,Net-(ADUM3-AO)*%
X119380000Y-102770000D03*
%TO.N,Net-(ADUM3-BI)*%
X119380000Y-105310000D03*
%TO.N,GND*%
X119380000Y-107850000D03*
%TO.N,+ISO_3.3V*%
X132080000Y-100230000D03*
%TO.N,Net-(ADUM3-AI)*%
X132080000Y-102770000D03*
%TO.N,Net-(ADUM3-BO)*%
X132080000Y-105310000D03*
%TO.N,ISO_GND*%
X132080000Y-107850000D03*
%TD*%
D18*
%TO.N,GND*%
%TO.C,Pump_1*%
X104150000Y-116840000D03*
D19*
%TO.N,+24V*%
X106690000Y-116840000D03*
%TO.N,Net-(ADUM3-AO)*%
X109230000Y-116840000D03*
%TO.N,Net-(ADUM3-BI)*%
X111770000Y-116840000D03*
%TD*%
D11*
%TO.N,GND*%
%TO.C,24V_5V_Buck_ISO1*%
X110984468Y-64805280D03*
%TO.N,+24V*%
X113524468Y-64805280D03*
%TO.N,unconnected-(24V_5V_Buck_ISO1-R.C.-Pad3)*%
X116064468Y-64805280D03*
%TO.N,+ISO_5V*%
X123684468Y-64805280D03*
%TO.N,ISO_GND*%
X126224468Y-64805280D03*
%TO.N,unconnected-(24V_5V_Buck_ISO1-N.C.-Pad8)*%
X128764468Y-64805280D03*
%TD*%
D18*
%TO.N,GND*%
%TO.C,Aux_Fan_1*%
X104140000Y-124480000D03*
D19*
%TO.N,+24V*%
X106680000Y-124480000D03*
%TO.N,Net-(ADUM4-AO)*%
X109220000Y-124480000D03*
%TO.N,Net-(ADUM4-BI)*%
X111760000Y-124480000D03*
%TD*%
D18*
%TO.N,GND*%
%TO.C,Rad_Fan_3*%
X104150000Y-101600000D03*
D19*
%TO.N,+24V*%
X106690000Y-101600000D03*
%TO.N,Net-(ADUM1-AO)*%
X109230000Y-101600000D03*
%TO.N,unconnected-(Rad_Fan_3-Pin_4-Pad4)*%
X111770000Y-101600000D03*
%TD*%
D18*
%TO.N,GND*%
%TO.C,Rad_Fan_1*%
X104140000Y-86360000D03*
D19*
%TO.N,+24V*%
X106680000Y-86360000D03*
%TO.N,Net-(ADUM1-AO)*%
X109220000Y-86360000D03*
%TO.N,Net-(ADUM1-BI)*%
X111760000Y-86360000D03*
%TD*%
D10*
%TO.N,Net-(ADUM1-BI)*%
%TO.C,R8*%
X115570000Y-83820000D03*
%TO.N,+3.3V*%
X115570000Y-91440000D03*
%TD*%
%TO.N,GND*%
%TO.C,R4*%
X121045975Y-73913550D03*
%TO.N,ISO_GND*%
X128665975Y-73913550D03*
%TD*%
%TO.N,+ISO_3.3V*%
%TO.C,R1*%
X161151328Y-121855784D03*
%TO.N,Net-(Feather_M4_Express1-A1)*%
X168771328Y-121855784D03*
%TD*%
D23*
%TO.N,GND*%
%TO.C,24V1*%
X96530000Y-104145000D03*
D24*
%TO.N,+24V*%
X96530000Y-99065000D03*
%TD*%
D20*
%TO.N,unconnected-(Encoder1-Pin_1-Pad1)*%
%TO.C,Encoder1*%
X165100000Y-97790000D03*
D15*
%TO.N,Net-(Encoder1-Pin_2)*%
X165100000Y-100290000D03*
%TO.N,Net-(Encoder1-Pin_3)*%
X165100000Y-102790000D03*
%TO.N,+ISO_5V*%
X165100000Y-105290000D03*
%TO.N,ISO_GND*%
X165100000Y-107790000D03*
%TD*%
D10*
%TO.N,Net-(Switch1-Pin_1)*%
%TO.C,R3*%
X149860000Y-143510000D03*
%TO.N,Net-(Feather_M4_Express1-A2)*%
X149860000Y-135890000D03*
%TD*%
%TO.N,Net-(ADUM3-BI)*%
%TO.C,R6*%
X115570000Y-106680000D03*
%TO.N,+3.3V*%
X115570000Y-114300000D03*
%TD*%
D21*
%TO.N,GND*%
%TO.C,U2*%
X105090000Y-71120000D03*
D22*
%TO.N,+3.3V*%
X105090000Y-68580000D03*
%TO.N,+5V*%
X105090000Y-66040000D03*
%TD*%
D18*
%TO.N,GND*%
%TO.C,24V_5V_Buck1*%
X104140000Y-78740000D03*
D19*
X106680000Y-78740000D03*
%TO.N,+5V*%
X109220000Y-78740000D03*
%TO.N,+24V*%
X111760000Y-78740000D03*
%TD*%
D18*
%TO.N,GND*%
%TO.C,Rad_Fan_2*%
X104150000Y-94000000D03*
D19*
%TO.N,+24V*%
X106690000Y-94000000D03*
%TO.N,Net-(ADUM1-AO)*%
X109230000Y-94000000D03*
%TO.N,unconnected-(Rad_Fan_2-Pin_4-Pad4)*%
X111770000Y-94000000D03*
%TD*%
D25*
%TO.N,unconnected-(Feather_M4_Express1-~{RESET}-Pad1)*%
%TO.C,Feather_M4_Express1*%
X157707500Y-125730000D03*
D26*
%TO.N,+ISO_3.3V*%
X157707500Y-123190000D03*
%TO.N,unconnected-(Feather_M4_Express1-AREF-Pad3)*%
X157707500Y-120650000D03*
%TO.N,ISO_GND*%
X157707500Y-118110000D03*
%TO.N,Net-(Feather_M4_Express1-A0)*%
X157707500Y-115570000D03*
%TO.N,Net-(Feather_M4_Express1-A1)*%
X157707500Y-113030000D03*
%TO.N,Net-(Feather_M4_Express1-A2)*%
X157707500Y-110490000D03*
%TO.N,Net-(Feather_M4_Express1-A3)*%
X157707500Y-107950000D03*
%TO.N,Net-(Encoder1-Pin_2)*%
X157707500Y-105410000D03*
%TO.N,Net-(Encoder1-Pin_3)*%
X157707500Y-102870000D03*
%TO.N,unconnected-(Feather_M4_Express1-SCK-Pad11)*%
X157707500Y-100330000D03*
%TO.N,unconnected-(Feather_M4_Express1-MOSI-Pad12)*%
X157707500Y-97790000D03*
%TO.N,unconnected-(Feather_M4_Express1-MISO-Pad13)*%
X157707500Y-95250000D03*
%TO.N,unconnected-(Feather_M4_Express1-RX-Pad14)*%
X157707500Y-92710000D03*
%TO.N,unconnected-(Feather_M4_Express1-TX-Pad15)*%
X157707500Y-90170000D03*
%TO.N,Net-(ADUM4-BO)*%
X157707500Y-87630000D03*
%TO.N,Net-(Display1-Pin_3)*%
X137987500Y-87630000D03*
%TO.N,Net-(Display1-Pin_4)*%
X137987500Y-90170000D03*
%TO.N,Net-(ADUM1-AI)*%
X137987500Y-92710000D03*
%TO.N,Net-(ADUM1-BO)*%
X137987500Y-95250000D03*
%TO.N,Net-(ADUM2-AI)*%
X137987500Y-97790000D03*
%TO.N,Net-(ADUM2-BO)*%
X137987500Y-100330000D03*
%TO.N,Net-(ADUM3-AI)*%
X137987500Y-102870000D03*
%TO.N,Net-(ADUM3-BO)*%
X137987500Y-105410000D03*
%TO.N,Net-(ADUM4-AI)*%
X137987500Y-107950000D03*
%TO.N,unconnected-(Feather_M4_Express1-USB-Pad26)*%
X137987500Y-110490000D03*
%TO.N,unconnected-(Feather_M4_Express1-EN-Pad27)*%
X137987500Y-113030000D03*
%TO.N,unconnected-(Feather_M4_Express1-VBAT-Pad28)*%
X137987500Y-115570000D03*
%TD*%
D27*
%TO.N,Net-(Feather_M4_Express1-A0)*%
X159900328Y-117462828D02*
X158007500Y-115570000D01*
X159900328Y-124380328D02*
X159900328Y-117462828D01*
X165100000Y-129580000D02*
X159900328Y-124380328D01*
X168706661Y-134465996D02*
X168706661Y-133186661D01*
X168706661Y-133186661D02*
X165100000Y-129580000D01*
%TO.N,Net-(Switch1-Pin_1)*%
X149860000Y-143510000D02*
X154940000Y-143510000D01*
%TO.N,Net-(ADUM2-AO)*%
X117710818Y-91340000D02*
X119380000Y-91340000D01*
X113256420Y-95794398D02*
X117710818Y-91340000D01*
X109220000Y-106243176D02*
X113256420Y-102206756D01*
X109220000Y-109240000D02*
X109220000Y-106243176D01*
X113256420Y-102206756D02*
X113256420Y-95794398D01*
%TO.N,Net-(ADUM2-BI)*%
X114319000Y-96501000D02*
X114319000Y-104121000D01*
X111760000Y-106680000D02*
X111760000Y-109240000D01*
X115570000Y-95250000D02*
X114319000Y-96501000D01*
X114319000Y-104121000D02*
X111760000Y-106680000D01*
%TO.N,Net-(Display1-Pin_3)*%
X143510000Y-121285000D02*
X132080000Y-132715000D01*
X143510000Y-93069765D02*
X143510000Y-121285000D01*
X137687500Y-87630000D02*
X138070235Y-87630000D01*
X138070235Y-87630000D02*
X143510000Y-93069765D01*
X132080000Y-132715000D02*
X132080000Y-133350000D01*
%TO.N,Net-(ADUM1-BI)*%
X111760000Y-86360000D02*
X113030000Y-86360000D01*
X113030000Y-86360000D02*
X115570000Y-83820000D01*
X116940000Y-82450000D02*
X115570000Y-83820000D01*
X119380000Y-82450000D02*
X116940000Y-82450000D01*
%TO.N,Net-(ADUM2-BI)*%
X116940000Y-93880000D02*
X115570000Y-95250000D01*
X119380000Y-93880000D02*
X116940000Y-93880000D01*
%TO.N,Net-(ADUM3-AO)*%
X109230000Y-115646000D02*
X109230000Y-116840000D01*
X113106000Y-111770000D02*
X109230000Y-115646000D01*
X113106000Y-107374818D02*
X113106000Y-111770000D01*
X117710818Y-102770000D02*
X113106000Y-107374818D01*
X119380000Y-102770000D02*
X117710818Y-102770000D01*
%TO.N,Net-(ADUM3-BI)*%
X115570000Y-111445000D02*
X115570000Y-106680000D01*
X111770000Y-115245000D02*
X115570000Y-111445000D01*
X111770000Y-116840000D02*
X111770000Y-115245000D01*
X116940000Y-105310000D02*
X115570000Y-106680000D01*
X119380000Y-105310000D02*
X116940000Y-105310000D01*
%TO.N,Net-(ADUM4-AO)*%
X109220000Y-122690818D02*
X109220000Y-124480000D01*
X117710818Y-114200000D02*
X109220000Y-122690818D01*
X119380000Y-114200000D02*
X117710818Y-114200000D01*
%TO.N,Net-(ADUM4-BI)*%
X111760000Y-121920000D02*
X111760000Y-124480000D01*
X115570000Y-118110000D02*
X111760000Y-121920000D01*
X116940000Y-116740000D02*
X115570000Y-118110000D01*
X119380000Y-116740000D02*
X116940000Y-116740000D01*
%TO.N,Net-(Feather_M4_Express1-A1)*%
X161290000Y-113030000D02*
X158007500Y-113030000D01*
X165100000Y-116840000D02*
X161290000Y-113030000D01*
D28*
%TO.N,+ISO_5V*%
X167640000Y-94939765D02*
X138740235Y-66040000D01*
X167640000Y-102750000D02*
X167640000Y-94939765D01*
X138740235Y-66040000D02*
X136840000Y-66040000D01*
X165100000Y-105290000D02*
X167640000Y-102750000D01*
D27*
%TO.N,Net-(Display1-Pin_4)*%
X142240000Y-118401400D02*
X130490000Y-130151400D01*
X142240000Y-94339765D02*
X142240000Y-118401400D01*
X130490000Y-134300000D02*
X132080000Y-135890000D01*
X138070235Y-90170000D02*
X142240000Y-94339765D01*
X137687500Y-90170000D02*
X138070235Y-90170000D01*
X130490000Y-130151400D02*
X130490000Y-134300000D01*
%TO.N,Net-(ADUM4-AI)*%
X133670000Y-111967500D02*
X137687500Y-107950000D01*
X133670000Y-112610000D02*
X133670000Y-111967500D01*
X132080000Y-114200000D02*
X133670000Y-112610000D01*
%TO.N,Net-(ADUM1-AO)*%
X109230000Y-94000000D02*
X109230000Y-86370000D01*
X115670000Y-79910000D02*
X119380000Y-79910000D01*
X109230000Y-86370000D02*
X109220000Y-86360000D01*
X109220000Y-86360000D02*
X115670000Y-79910000D01*
X109230000Y-101600000D02*
X109230000Y-94000000D01*
D28*
%TO.N,+3.3V*%
X110590000Y-68580000D02*
X119380000Y-77370000D01*
X105090000Y-68580000D02*
X110590000Y-68580000D01*
D27*
X115570000Y-102870000D02*
X115558795Y-102870000D01*
%TO.N,Net-(ISO1540-SLC1)*%
X118110000Y-135890000D02*
X119380000Y-135890000D01*
X113030000Y-140970000D02*
X118110000Y-135890000D01*
X113030000Y-142240000D02*
X113030000Y-140970000D01*
%TO.N,Net-(ISO1540-SDA1)*%
X118122765Y-133350000D02*
X110530000Y-140942765D01*
X119380000Y-133350000D02*
X118122765Y-133350000D01*
X110530000Y-140942765D02*
X110530000Y-142240000D01*
D28*
%TO.N,+ISO_5V*%
X132080000Y-66040000D02*
X130810000Y-67310000D01*
X136840000Y-66040000D02*
X132080000Y-66040000D01*
X130810000Y-67310000D02*
X126189188Y-67310000D01*
X126189188Y-67310000D02*
X123684468Y-64805280D01*
%TO.N,+5V*%
X102870000Y-72390000D02*
X102870000Y-68260000D01*
X109220000Y-78740000D02*
X102870000Y-72390000D01*
X102870000Y-68260000D02*
X105090000Y-66040000D01*
D27*
%TO.N,Net-(ADUM1-BO)*%
X132080000Y-82450000D02*
X134785500Y-85155500D01*
X134785500Y-92348000D02*
X137687500Y-95250000D01*
X134785500Y-85155500D02*
X134785500Y-92348000D01*
%TO.N,Net-(ADUM1-AI)*%
X135986500Y-91009000D02*
X137687500Y-92710000D01*
X135986500Y-83816500D02*
X135986500Y-91009000D01*
X132080000Y-79910000D02*
X135986500Y-83816500D01*
%TO.N,Net-(ADUM2-BO)*%
X132080000Y-93880000D02*
X133670000Y-95470000D01*
X133670000Y-95470000D02*
X133670000Y-96312500D01*
X133670000Y-96312500D02*
X137687500Y-100330000D01*
%TO.N,Net-(ADUM2-AI)*%
X135986500Y-96089000D02*
X137687500Y-97790000D01*
X132080000Y-91340000D02*
X135986500Y-95246500D01*
X135986500Y-95246500D02*
X135986500Y-96089000D01*
%TO.N,Net-(ADUM3-BO)*%
X137587500Y-105310000D02*
X137687500Y-105410000D01*
X132080000Y-105310000D02*
X137587500Y-105310000D01*
%TO.N,Net-(ADUM3-AI)*%
X137587500Y-102770000D02*
X137687500Y-102870000D01*
X132080000Y-102770000D02*
X137587500Y-102770000D01*
%TO.N,Net-(Display1-Pin_3)*%
X139620000Y-140890000D02*
X139700000Y-140890000D01*
X132080000Y-133350000D02*
X139620000Y-140890000D01*
%TO.N,Net-(Display1-Pin_4)*%
X132080000Y-135890000D02*
X139580000Y-143390000D01*
X139580000Y-143390000D02*
X139700000Y-143390000D01*
%TO.N,Net-(Encoder1-Pin_2)*%
X163127500Y-100290000D02*
X158007500Y-105410000D01*
X165100000Y-100290000D02*
X163127500Y-100290000D01*
%TO.N,Net-(Feather_M4_Express1-A1)*%
X168771328Y-121855784D02*
X168771328Y-120511328D01*
X168771328Y-120511328D02*
X165100000Y-116840000D01*
%TO.N,Net-(Feather_M4_Express1-A3)*%
X154940000Y-136010000D02*
X154940000Y-110634765D01*
X157624765Y-107950000D02*
X158007500Y-107950000D01*
X154940000Y-110634765D02*
X157624765Y-107950000D01*
%TD*%
M02*
