%TF.GenerationSoftware,KiCad,Pcbnew,9.0.6*%
%TF.CreationDate,2025-12-07T02:42:27-06:00*%
%TF.ProjectId,1000W Controller,31303030-5720-4436-9f6e-74726f6c6c65,rev?*%
%TF.SameCoordinates,Original*%
%TF.FileFunction,Legend,Top*%
%TF.FilePolarity,Positive*%
%FSLAX46Y46*%
G04 Gerber Fmt 4.6, Leading zero omitted, Abs format (unit mm)*
G04 Created by KiCad (PCBNEW 9.0.6) date 2025-12-07 02:42:27*
%MOMM*%
%LPD*%
G01*
G04 APERTURE LIST*
%ADD10C,0.150000*%
%ADD11C,0.100000*%
%ADD12C,0.120000*%
G04 APERTURE END LIST*
D10*
X95186666Y-34104819D02*
X94853333Y-33628628D01*
X94615238Y-34104819D02*
X94615238Y-33104819D01*
X94615238Y-33104819D02*
X94996190Y-33104819D01*
X94996190Y-33104819D02*
X95091428Y-33152438D01*
X95091428Y-33152438D02*
X95139047Y-33200057D01*
X95139047Y-33200057D02*
X95186666Y-33295295D01*
X95186666Y-33295295D02*
X95186666Y-33438152D01*
X95186666Y-33438152D02*
X95139047Y-33533390D01*
X95139047Y-33533390D02*
X95091428Y-33581009D01*
X95091428Y-33581009D02*
X94996190Y-33628628D01*
X94996190Y-33628628D02*
X94615238Y-33628628D01*
X95615238Y-33581009D02*
X95948571Y-33581009D01*
X96091428Y-34104819D02*
X95615238Y-34104819D01*
X95615238Y-34104819D02*
X95615238Y-33104819D01*
X95615238Y-33104819D02*
X96091428Y-33104819D01*
X96853333Y-33581009D02*
X96520000Y-33581009D01*
X96520000Y-34104819D02*
X96520000Y-33104819D01*
X96520000Y-33104819D02*
X96996190Y-33104819D01*
X97520000Y-33104819D02*
X97520000Y-33342914D01*
X97281905Y-33247676D02*
X97520000Y-33342914D01*
X97520000Y-33342914D02*
X97758095Y-33247676D01*
X97377143Y-33533390D02*
X97520000Y-33342914D01*
X97520000Y-33342914D02*
X97662857Y-33533390D01*
X98281905Y-33104819D02*
X98281905Y-33342914D01*
X98043810Y-33247676D02*
X98281905Y-33342914D01*
X98281905Y-33342914D02*
X98520000Y-33247676D01*
X98139048Y-33533390D02*
X98281905Y-33342914D01*
X98281905Y-33342914D02*
X98424762Y-33533390D01*
D11*
X120811027Y-108727419D02*
X121144360Y-109727419D01*
X121144360Y-109727419D02*
X121477693Y-108727419D01*
X122382455Y-109632180D02*
X122334836Y-109679800D01*
X122334836Y-109679800D02*
X122191979Y-109727419D01*
X122191979Y-109727419D02*
X122096741Y-109727419D01*
X122096741Y-109727419D02*
X121953884Y-109679800D01*
X121953884Y-109679800D02*
X121858646Y-109584561D01*
X121858646Y-109584561D02*
X121811027Y-109489323D01*
X121811027Y-109489323D02*
X121763408Y-109298847D01*
X121763408Y-109298847D02*
X121763408Y-109155990D01*
X121763408Y-109155990D02*
X121811027Y-108965514D01*
X121811027Y-108965514D02*
X121858646Y-108870276D01*
X121858646Y-108870276D02*
X121953884Y-108775038D01*
X121953884Y-108775038D02*
X122096741Y-108727419D01*
X122096741Y-108727419D02*
X122191979Y-108727419D01*
X122191979Y-108727419D02*
X122334836Y-108775038D01*
X122334836Y-108775038D02*
X122382455Y-108822657D01*
X123382455Y-109632180D02*
X123334836Y-109679800D01*
X123334836Y-109679800D02*
X123191979Y-109727419D01*
X123191979Y-109727419D02*
X123096741Y-109727419D01*
X123096741Y-109727419D02*
X122953884Y-109679800D01*
X122953884Y-109679800D02*
X122858646Y-109584561D01*
X122858646Y-109584561D02*
X122811027Y-109489323D01*
X122811027Y-109489323D02*
X122763408Y-109298847D01*
X122763408Y-109298847D02*
X122763408Y-109155990D01*
X122763408Y-109155990D02*
X122811027Y-108965514D01*
X122811027Y-108965514D02*
X122858646Y-108870276D01*
X122858646Y-108870276D02*
X122953884Y-108775038D01*
X122953884Y-108775038D02*
X123096741Y-108727419D01*
X123096741Y-108727419D02*
X123191979Y-108727419D01*
X123191979Y-108727419D02*
X123334836Y-108775038D01*
X123334836Y-108775038D02*
X123382455Y-108822657D01*
X124334836Y-109727419D02*
X123763408Y-109727419D01*
X124049122Y-109727419D02*
X124049122Y-108727419D01*
X124049122Y-108727419D02*
X123953884Y-108870276D01*
X123953884Y-108870276D02*
X123858646Y-108965514D01*
X123858646Y-108965514D02*
X123763408Y-109013133D01*
X120906265Y-111981704D02*
X121382455Y-111981704D01*
X120811027Y-112267419D02*
X121144360Y-111267419D01*
X121144360Y-111267419D02*
X121477693Y-112267419D01*
X122001503Y-111267419D02*
X122191979Y-111267419D01*
X122191979Y-111267419D02*
X122287217Y-111315038D01*
X122287217Y-111315038D02*
X122382455Y-111410276D01*
X122382455Y-111410276D02*
X122430074Y-111600752D01*
X122430074Y-111600752D02*
X122430074Y-111934085D01*
X122430074Y-111934085D02*
X122382455Y-112124561D01*
X122382455Y-112124561D02*
X122287217Y-112219800D01*
X122287217Y-112219800D02*
X122191979Y-112267419D01*
X122191979Y-112267419D02*
X122001503Y-112267419D01*
X122001503Y-112267419D02*
X121906265Y-112219800D01*
X121906265Y-112219800D02*
X121811027Y-112124561D01*
X121811027Y-112124561D02*
X121763408Y-111934085D01*
X121763408Y-111934085D02*
X121763408Y-111600752D01*
X121763408Y-111600752D02*
X121811027Y-111410276D01*
X121811027Y-111410276D02*
X121906265Y-111315038D01*
X121906265Y-111315038D02*
X122001503Y-111267419D01*
X127161027Y-108727419D02*
X127494360Y-109727419D01*
X127494360Y-109727419D02*
X127827693Y-108727419D01*
X128732455Y-109632180D02*
X128684836Y-109679800D01*
X128684836Y-109679800D02*
X128541979Y-109727419D01*
X128541979Y-109727419D02*
X128446741Y-109727419D01*
X128446741Y-109727419D02*
X128303884Y-109679800D01*
X128303884Y-109679800D02*
X128208646Y-109584561D01*
X128208646Y-109584561D02*
X128161027Y-109489323D01*
X128161027Y-109489323D02*
X128113408Y-109298847D01*
X128113408Y-109298847D02*
X128113408Y-109155990D01*
X128113408Y-109155990D02*
X128161027Y-108965514D01*
X128161027Y-108965514D02*
X128208646Y-108870276D01*
X128208646Y-108870276D02*
X128303884Y-108775038D01*
X128303884Y-108775038D02*
X128446741Y-108727419D01*
X128446741Y-108727419D02*
X128541979Y-108727419D01*
X128541979Y-108727419D02*
X128684836Y-108775038D01*
X128684836Y-108775038D02*
X128732455Y-108822657D01*
X129732455Y-109632180D02*
X129684836Y-109679800D01*
X129684836Y-109679800D02*
X129541979Y-109727419D01*
X129541979Y-109727419D02*
X129446741Y-109727419D01*
X129446741Y-109727419D02*
X129303884Y-109679800D01*
X129303884Y-109679800D02*
X129208646Y-109584561D01*
X129208646Y-109584561D02*
X129161027Y-109489323D01*
X129161027Y-109489323D02*
X129113408Y-109298847D01*
X129113408Y-109298847D02*
X129113408Y-109155990D01*
X129113408Y-109155990D02*
X129161027Y-108965514D01*
X129161027Y-108965514D02*
X129208646Y-108870276D01*
X129208646Y-108870276D02*
X129303884Y-108775038D01*
X129303884Y-108775038D02*
X129446741Y-108727419D01*
X129446741Y-108727419D02*
X129541979Y-108727419D01*
X129541979Y-108727419D02*
X129684836Y-108775038D01*
X129684836Y-108775038D02*
X129732455Y-108822657D01*
X130113408Y-108822657D02*
X130161027Y-108775038D01*
X130161027Y-108775038D02*
X130256265Y-108727419D01*
X130256265Y-108727419D02*
X130494360Y-108727419D01*
X130494360Y-108727419D02*
X130589598Y-108775038D01*
X130589598Y-108775038D02*
X130637217Y-108822657D01*
X130637217Y-108822657D02*
X130684836Y-108917895D01*
X130684836Y-108917895D02*
X130684836Y-109013133D01*
X130684836Y-109013133D02*
X130637217Y-109155990D01*
X130637217Y-109155990D02*
X130065789Y-109727419D01*
X130065789Y-109727419D02*
X130684836Y-109727419D01*
X127827693Y-116395038D02*
X127732455Y-116347419D01*
X127732455Y-116347419D02*
X127589598Y-116347419D01*
X127589598Y-116347419D02*
X127446741Y-116395038D01*
X127446741Y-116395038D02*
X127351503Y-116490276D01*
X127351503Y-116490276D02*
X127303884Y-116585514D01*
X127303884Y-116585514D02*
X127256265Y-116775990D01*
X127256265Y-116775990D02*
X127256265Y-116918847D01*
X127256265Y-116918847D02*
X127303884Y-117109323D01*
X127303884Y-117109323D02*
X127351503Y-117204561D01*
X127351503Y-117204561D02*
X127446741Y-117299800D01*
X127446741Y-117299800D02*
X127589598Y-117347419D01*
X127589598Y-117347419D02*
X127684836Y-117347419D01*
X127684836Y-117347419D02*
X127827693Y-117299800D01*
X127827693Y-117299800D02*
X127875312Y-117252180D01*
X127875312Y-117252180D02*
X127875312Y-116918847D01*
X127875312Y-116918847D02*
X127684836Y-116918847D01*
X128303884Y-117347419D02*
X128303884Y-116347419D01*
X128303884Y-116347419D02*
X128875312Y-117347419D01*
X128875312Y-117347419D02*
X128875312Y-116347419D01*
X129351503Y-117347419D02*
X129351503Y-116347419D01*
X129351503Y-116347419D02*
X129589598Y-116347419D01*
X129589598Y-116347419D02*
X129732455Y-116395038D01*
X129732455Y-116395038D02*
X129827693Y-116490276D01*
X129827693Y-116490276D02*
X129875312Y-116585514D01*
X129875312Y-116585514D02*
X129922931Y-116775990D01*
X129922931Y-116775990D02*
X129922931Y-116918847D01*
X129922931Y-116918847D02*
X129875312Y-117109323D01*
X129875312Y-117109323D02*
X129827693Y-117204561D01*
X129827693Y-117204561D02*
X129732455Y-117299800D01*
X129732455Y-117299800D02*
X129589598Y-117347419D01*
X129589598Y-117347419D02*
X129351503Y-117347419D01*
X130303884Y-116442657D02*
X130351503Y-116395038D01*
X130351503Y-116395038D02*
X130446741Y-116347419D01*
X130446741Y-116347419D02*
X130684836Y-116347419D01*
X130684836Y-116347419D02*
X130780074Y-116395038D01*
X130780074Y-116395038D02*
X130827693Y-116442657D01*
X130827693Y-116442657D02*
X130875312Y-116537895D01*
X130875312Y-116537895D02*
X130875312Y-116633133D01*
X130875312Y-116633133D02*
X130827693Y-116775990D01*
X130827693Y-116775990D02*
X130256265Y-117347419D01*
X130256265Y-117347419D02*
X130875312Y-117347419D01*
X127256265Y-111981704D02*
X127732455Y-111981704D01*
X127161027Y-112267419D02*
X127494360Y-111267419D01*
X127494360Y-111267419D02*
X127827693Y-112267419D01*
X128161027Y-112267419D02*
X128161027Y-111267419D01*
X127637217Y-114283609D02*
X127780074Y-114331228D01*
X127780074Y-114331228D02*
X127827693Y-114378847D01*
X127827693Y-114378847D02*
X127875312Y-114474085D01*
X127875312Y-114474085D02*
X127875312Y-114616942D01*
X127875312Y-114616942D02*
X127827693Y-114712180D01*
X127827693Y-114712180D02*
X127780074Y-114759800D01*
X127780074Y-114759800D02*
X127684836Y-114807419D01*
X127684836Y-114807419D02*
X127303884Y-114807419D01*
X127303884Y-114807419D02*
X127303884Y-113807419D01*
X127303884Y-113807419D02*
X127637217Y-113807419D01*
X127637217Y-113807419D02*
X127732455Y-113855038D01*
X127732455Y-113855038D02*
X127780074Y-113902657D01*
X127780074Y-113902657D02*
X127827693Y-113997895D01*
X127827693Y-113997895D02*
X127827693Y-114093133D01*
X127827693Y-114093133D02*
X127780074Y-114188371D01*
X127780074Y-114188371D02*
X127732455Y-114235990D01*
X127732455Y-114235990D02*
X127637217Y-114283609D01*
X127637217Y-114283609D02*
X127303884Y-114283609D01*
X128494360Y-113807419D02*
X128684836Y-113807419D01*
X128684836Y-113807419D02*
X128780074Y-113855038D01*
X128780074Y-113855038D02*
X128875312Y-113950276D01*
X128875312Y-113950276D02*
X128922931Y-114140752D01*
X128922931Y-114140752D02*
X128922931Y-114474085D01*
X128922931Y-114474085D02*
X128875312Y-114664561D01*
X128875312Y-114664561D02*
X128780074Y-114759800D01*
X128780074Y-114759800D02*
X128684836Y-114807419D01*
X128684836Y-114807419D02*
X128494360Y-114807419D01*
X128494360Y-114807419D02*
X128399122Y-114759800D01*
X128399122Y-114759800D02*
X128303884Y-114664561D01*
X128303884Y-114664561D02*
X128256265Y-114474085D01*
X128256265Y-114474085D02*
X128256265Y-114140752D01*
X128256265Y-114140752D02*
X128303884Y-113950276D01*
X128303884Y-113950276D02*
X128399122Y-113855038D01*
X128399122Y-113855038D02*
X128494360Y-113807419D01*
X121477693Y-116395038D02*
X121382455Y-116347419D01*
X121382455Y-116347419D02*
X121239598Y-116347419D01*
X121239598Y-116347419D02*
X121096741Y-116395038D01*
X121096741Y-116395038D02*
X121001503Y-116490276D01*
X121001503Y-116490276D02*
X120953884Y-116585514D01*
X120953884Y-116585514D02*
X120906265Y-116775990D01*
X120906265Y-116775990D02*
X120906265Y-116918847D01*
X120906265Y-116918847D02*
X120953884Y-117109323D01*
X120953884Y-117109323D02*
X121001503Y-117204561D01*
X121001503Y-117204561D02*
X121096741Y-117299800D01*
X121096741Y-117299800D02*
X121239598Y-117347419D01*
X121239598Y-117347419D02*
X121334836Y-117347419D01*
X121334836Y-117347419D02*
X121477693Y-117299800D01*
X121477693Y-117299800D02*
X121525312Y-117252180D01*
X121525312Y-117252180D02*
X121525312Y-116918847D01*
X121525312Y-116918847D02*
X121334836Y-116918847D01*
X121953884Y-117347419D02*
X121953884Y-116347419D01*
X121953884Y-116347419D02*
X122525312Y-117347419D01*
X122525312Y-117347419D02*
X122525312Y-116347419D01*
X123001503Y-117347419D02*
X123001503Y-116347419D01*
X123001503Y-116347419D02*
X123239598Y-116347419D01*
X123239598Y-116347419D02*
X123382455Y-116395038D01*
X123382455Y-116395038D02*
X123477693Y-116490276D01*
X123477693Y-116490276D02*
X123525312Y-116585514D01*
X123525312Y-116585514D02*
X123572931Y-116775990D01*
X123572931Y-116775990D02*
X123572931Y-116918847D01*
X123572931Y-116918847D02*
X123525312Y-117109323D01*
X123525312Y-117109323D02*
X123477693Y-117204561D01*
X123477693Y-117204561D02*
X123382455Y-117299800D01*
X123382455Y-117299800D02*
X123239598Y-117347419D01*
X123239598Y-117347419D02*
X123001503Y-117347419D01*
X124525312Y-117347419D02*
X123953884Y-117347419D01*
X124239598Y-117347419D02*
X124239598Y-116347419D01*
X124239598Y-116347419D02*
X124144360Y-116490276D01*
X124144360Y-116490276D02*
X124049122Y-116585514D01*
X124049122Y-116585514D02*
X123953884Y-116633133D01*
X121287217Y-114283609D02*
X121430074Y-114331228D01*
X121430074Y-114331228D02*
X121477693Y-114378847D01*
X121477693Y-114378847D02*
X121525312Y-114474085D01*
X121525312Y-114474085D02*
X121525312Y-114616942D01*
X121525312Y-114616942D02*
X121477693Y-114712180D01*
X121477693Y-114712180D02*
X121430074Y-114759800D01*
X121430074Y-114759800D02*
X121334836Y-114807419D01*
X121334836Y-114807419D02*
X120953884Y-114807419D01*
X120953884Y-114807419D02*
X120953884Y-113807419D01*
X120953884Y-113807419D02*
X121287217Y-113807419D01*
X121287217Y-113807419D02*
X121382455Y-113855038D01*
X121382455Y-113855038D02*
X121430074Y-113902657D01*
X121430074Y-113902657D02*
X121477693Y-113997895D01*
X121477693Y-113997895D02*
X121477693Y-114093133D01*
X121477693Y-114093133D02*
X121430074Y-114188371D01*
X121430074Y-114188371D02*
X121382455Y-114235990D01*
X121382455Y-114235990D02*
X121287217Y-114283609D01*
X121287217Y-114283609D02*
X120953884Y-114283609D01*
X121953884Y-114807419D02*
X121953884Y-113807419D01*
X122176265Y-113251704D02*
X122652455Y-113251704D01*
X122081027Y-113537419D02*
X122414360Y-112537419D01*
X122414360Y-112537419D02*
X122747693Y-113537419D01*
X123081027Y-113537419D02*
X123081027Y-112537419D01*
X123081027Y-112537419D02*
X123319122Y-112537419D01*
X123319122Y-112537419D02*
X123461979Y-112585038D01*
X123461979Y-112585038D02*
X123557217Y-112680276D01*
X123557217Y-112680276D02*
X123604836Y-112775514D01*
X123604836Y-112775514D02*
X123652455Y-112965990D01*
X123652455Y-112965990D02*
X123652455Y-113108847D01*
X123652455Y-113108847D02*
X123604836Y-113299323D01*
X123604836Y-113299323D02*
X123557217Y-113394561D01*
X123557217Y-113394561D02*
X123461979Y-113489800D01*
X123461979Y-113489800D02*
X123319122Y-113537419D01*
X123319122Y-113537419D02*
X123081027Y-113537419D01*
X124081027Y-112537419D02*
X124081027Y-113346942D01*
X124081027Y-113346942D02*
X124128646Y-113442180D01*
X124128646Y-113442180D02*
X124176265Y-113489800D01*
X124176265Y-113489800D02*
X124271503Y-113537419D01*
X124271503Y-113537419D02*
X124461979Y-113537419D01*
X124461979Y-113537419D02*
X124557217Y-113489800D01*
X124557217Y-113489800D02*
X124604836Y-113442180D01*
X124604836Y-113442180D02*
X124652455Y-113346942D01*
X124652455Y-113346942D02*
X124652455Y-112537419D01*
X125128646Y-113537419D02*
X125128646Y-112537419D01*
X125128646Y-112537419D02*
X125461979Y-113251704D01*
X125461979Y-113251704D02*
X125795312Y-112537419D01*
X125795312Y-112537419D02*
X125795312Y-113537419D01*
X126795312Y-113537419D02*
X126223884Y-113537419D01*
X126509598Y-113537419D02*
X126509598Y-112537419D01*
X126509598Y-112537419D02*
X126414360Y-112680276D01*
X126414360Y-112680276D02*
X126319122Y-112775514D01*
X126319122Y-112775514D02*
X126223884Y-112823133D01*
X127176265Y-112632657D02*
X127223884Y-112585038D01*
X127223884Y-112585038D02*
X127319122Y-112537419D01*
X127319122Y-112537419D02*
X127557217Y-112537419D01*
X127557217Y-112537419D02*
X127652455Y-112585038D01*
X127652455Y-112585038D02*
X127700074Y-112632657D01*
X127700074Y-112632657D02*
X127747693Y-112727895D01*
X127747693Y-112727895D02*
X127747693Y-112823133D01*
X127747693Y-112823133D02*
X127700074Y-112965990D01*
X127700074Y-112965990D02*
X127128646Y-113537419D01*
X127128646Y-113537419D02*
X127747693Y-113537419D01*
X128366741Y-112537419D02*
X128461979Y-112537419D01*
X128461979Y-112537419D02*
X128557217Y-112585038D01*
X128557217Y-112585038D02*
X128604836Y-112632657D01*
X128604836Y-112632657D02*
X128652455Y-112727895D01*
X128652455Y-112727895D02*
X128700074Y-112918371D01*
X128700074Y-112918371D02*
X128700074Y-113156466D01*
X128700074Y-113156466D02*
X128652455Y-113346942D01*
X128652455Y-113346942D02*
X128604836Y-113442180D01*
X128604836Y-113442180D02*
X128557217Y-113489800D01*
X128557217Y-113489800D02*
X128461979Y-113537419D01*
X128461979Y-113537419D02*
X128366741Y-113537419D01*
X128366741Y-113537419D02*
X128271503Y-113489800D01*
X128271503Y-113489800D02*
X128223884Y-113442180D01*
X128223884Y-113442180D02*
X128176265Y-113346942D01*
X128176265Y-113346942D02*
X128128646Y-113156466D01*
X128128646Y-113156466D02*
X128128646Y-112918371D01*
X128128646Y-112918371D02*
X128176265Y-112727895D01*
X128176265Y-112727895D02*
X128223884Y-112632657D01*
X128223884Y-112632657D02*
X128271503Y-112585038D01*
X128271503Y-112585038D02*
X128366741Y-112537419D01*
X129652455Y-113537419D02*
X129081027Y-113537419D01*
X129366741Y-113537419D02*
X129366741Y-112537419D01*
X129366741Y-112537419D02*
X129271503Y-112680276D01*
X129271503Y-112680276D02*
X129176265Y-112775514D01*
X129176265Y-112775514D02*
X129081027Y-112823133D01*
D10*
X168629819Y-110342380D02*
X169629819Y-110104285D01*
X169629819Y-110104285D02*
X168915533Y-109913809D01*
X168915533Y-109913809D02*
X169629819Y-109723333D01*
X169629819Y-109723333D02*
X168629819Y-109485238D01*
X169344104Y-109151904D02*
X169344104Y-108675714D01*
X169629819Y-109247142D02*
X168629819Y-108913809D01*
X168629819Y-108913809D02*
X169629819Y-108580476D01*
X168629819Y-108389999D02*
X168629819Y-107818571D01*
X169629819Y-108104285D02*
X168629819Y-108104285D01*
X169106009Y-107485237D02*
X169106009Y-107151904D01*
X169629819Y-107009047D02*
X169629819Y-107485237D01*
X169629819Y-107485237D02*
X168629819Y-107485237D01*
X168629819Y-107485237D02*
X168629819Y-107009047D01*
X169629819Y-106009047D02*
X169153628Y-106342380D01*
X169629819Y-106580475D02*
X168629819Y-106580475D01*
X168629819Y-106580475D02*
X168629819Y-106199523D01*
X168629819Y-106199523D02*
X168677438Y-106104285D01*
X168677438Y-106104285D02*
X168725057Y-106056666D01*
X168725057Y-106056666D02*
X168820295Y-106009047D01*
X168820295Y-106009047D02*
X168963152Y-106009047D01*
X168963152Y-106009047D02*
X169058390Y-106056666D01*
X169058390Y-106056666D02*
X169106009Y-106104285D01*
X169106009Y-106104285D02*
X169153628Y-106199523D01*
X169153628Y-106199523D02*
X169153628Y-106580475D01*
X169725057Y-105818571D02*
X169725057Y-105056666D01*
X168629819Y-104961427D02*
X168629819Y-104389999D01*
X169629819Y-104675713D02*
X168629819Y-104675713D01*
X169106009Y-104056665D02*
X169106009Y-103723332D01*
X169629819Y-103580475D02*
X169629819Y-104056665D01*
X169629819Y-104056665D02*
X168629819Y-104056665D01*
X168629819Y-104056665D02*
X168629819Y-103580475D01*
X169629819Y-103151903D02*
X168629819Y-103151903D01*
X168629819Y-103151903D02*
X169344104Y-102818570D01*
X169344104Y-102818570D02*
X168629819Y-102485237D01*
X168629819Y-102485237D02*
X169629819Y-102485237D01*
X169629819Y-102009046D02*
X168629819Y-102009046D01*
X168629819Y-102009046D02*
X168629819Y-101628094D01*
X168629819Y-101628094D02*
X168677438Y-101532856D01*
X168677438Y-101532856D02*
X168725057Y-101485237D01*
X168725057Y-101485237D02*
X168820295Y-101437618D01*
X168820295Y-101437618D02*
X168963152Y-101437618D01*
X168963152Y-101437618D02*
X169058390Y-101485237D01*
X169058390Y-101485237D02*
X169106009Y-101532856D01*
X169106009Y-101532856D02*
X169153628Y-101628094D01*
X169153628Y-101628094D02*
X169153628Y-102009046D01*
X169629819Y-100485237D02*
X169629819Y-101056665D01*
X169629819Y-100770951D02*
X168629819Y-100770951D01*
X168629819Y-100770951D02*
X168772676Y-100866189D01*
X168772676Y-100866189D02*
X168867914Y-100961427D01*
X168867914Y-100961427D02*
X168915533Y-101056665D01*
X169629819Y-121534762D02*
X169629819Y-122010952D01*
X169629819Y-122010952D02*
X168629819Y-122010952D01*
X169106009Y-121201428D02*
X169106009Y-120868095D01*
X169629819Y-120725238D02*
X169629819Y-121201428D01*
X169629819Y-121201428D02*
X168629819Y-121201428D01*
X168629819Y-121201428D02*
X168629819Y-120725238D01*
X169629819Y-120296666D02*
X168629819Y-120296666D01*
X168629819Y-120296666D02*
X168629819Y-120058571D01*
X168629819Y-120058571D02*
X168677438Y-119915714D01*
X168677438Y-119915714D02*
X168772676Y-119820476D01*
X168772676Y-119820476D02*
X168867914Y-119772857D01*
X168867914Y-119772857D02*
X169058390Y-119725238D01*
X169058390Y-119725238D02*
X169201247Y-119725238D01*
X169201247Y-119725238D02*
X169391723Y-119772857D01*
X169391723Y-119772857D02*
X169486961Y-119820476D01*
X169486961Y-119820476D02*
X169582200Y-119915714D01*
X169582200Y-119915714D02*
X169629819Y-120058571D01*
X169629819Y-120058571D02*
X169629819Y-120296666D01*
X169725057Y-119534762D02*
X169725057Y-118772857D01*
X168629819Y-118677618D02*
X168629819Y-118106190D01*
X169629819Y-118391904D02*
X168629819Y-118391904D01*
X169106009Y-117772856D02*
X169106009Y-117439523D01*
X169629819Y-117296666D02*
X169629819Y-117772856D01*
X169629819Y-117772856D02*
X168629819Y-117772856D01*
X168629819Y-117772856D02*
X168629819Y-117296666D01*
X169629819Y-116868094D02*
X168629819Y-116868094D01*
X168629819Y-116868094D02*
X169344104Y-116534761D01*
X169344104Y-116534761D02*
X168629819Y-116201428D01*
X168629819Y-116201428D02*
X169629819Y-116201428D01*
X169629819Y-115725237D02*
X168629819Y-115725237D01*
X168629819Y-115725237D02*
X168629819Y-115344285D01*
X168629819Y-115344285D02*
X168677438Y-115249047D01*
X168677438Y-115249047D02*
X168725057Y-115201428D01*
X168725057Y-115201428D02*
X168820295Y-115153809D01*
X168820295Y-115153809D02*
X168963152Y-115153809D01*
X168963152Y-115153809D02*
X169058390Y-115201428D01*
X169058390Y-115201428D02*
X169106009Y-115249047D01*
X169106009Y-115249047D02*
X169153628Y-115344285D01*
X169153628Y-115344285D02*
X169153628Y-115725237D01*
X169629819Y-114201428D02*
X169629819Y-114772856D01*
X169629819Y-114487142D02*
X168629819Y-114487142D01*
X168629819Y-114487142D02*
X168772676Y-114582380D01*
X168772676Y-114582380D02*
X168867914Y-114677618D01*
X168867914Y-114677618D02*
X168915533Y-114772856D01*
X148459524Y-146197200D02*
X148602381Y-146244819D01*
X148602381Y-146244819D02*
X148840476Y-146244819D01*
X148840476Y-146244819D02*
X148935714Y-146197200D01*
X148935714Y-146197200D02*
X148983333Y-146149580D01*
X148983333Y-146149580D02*
X149030952Y-146054342D01*
X149030952Y-146054342D02*
X149030952Y-145959104D01*
X149030952Y-145959104D02*
X148983333Y-145863866D01*
X148983333Y-145863866D02*
X148935714Y-145816247D01*
X148935714Y-145816247D02*
X148840476Y-145768628D01*
X148840476Y-145768628D02*
X148650000Y-145721009D01*
X148650000Y-145721009D02*
X148554762Y-145673390D01*
X148554762Y-145673390D02*
X148507143Y-145625771D01*
X148507143Y-145625771D02*
X148459524Y-145530533D01*
X148459524Y-145530533D02*
X148459524Y-145435295D01*
X148459524Y-145435295D02*
X148507143Y-145340057D01*
X148507143Y-145340057D02*
X148554762Y-145292438D01*
X148554762Y-145292438D02*
X148650000Y-145244819D01*
X148650000Y-145244819D02*
X148888095Y-145244819D01*
X148888095Y-145244819D02*
X149030952Y-145292438D01*
X149364286Y-145578152D02*
X149554762Y-146244819D01*
X149554762Y-146244819D02*
X149745238Y-145768628D01*
X149745238Y-145768628D02*
X149935714Y-146244819D01*
X149935714Y-146244819D02*
X150126190Y-145578152D01*
X150507143Y-146244819D02*
X150507143Y-145578152D01*
X150507143Y-145244819D02*
X150459524Y-145292438D01*
X150459524Y-145292438D02*
X150507143Y-145340057D01*
X150507143Y-145340057D02*
X150554762Y-145292438D01*
X150554762Y-145292438D02*
X150507143Y-145244819D01*
X150507143Y-145244819D02*
X150507143Y-145340057D01*
X150840476Y-145578152D02*
X151221428Y-145578152D01*
X150983333Y-145244819D02*
X150983333Y-146101961D01*
X150983333Y-146101961D02*
X151030952Y-146197200D01*
X151030952Y-146197200D02*
X151126190Y-146244819D01*
X151126190Y-146244819D02*
X151221428Y-146244819D01*
X151983333Y-146197200D02*
X151888095Y-146244819D01*
X151888095Y-146244819D02*
X151697619Y-146244819D01*
X151697619Y-146244819D02*
X151602381Y-146197200D01*
X151602381Y-146197200D02*
X151554762Y-146149580D01*
X151554762Y-146149580D02*
X151507143Y-146054342D01*
X151507143Y-146054342D02*
X151507143Y-145768628D01*
X151507143Y-145768628D02*
X151554762Y-145673390D01*
X151554762Y-145673390D02*
X151602381Y-145625771D01*
X151602381Y-145625771D02*
X151697619Y-145578152D01*
X151697619Y-145578152D02*
X151888095Y-145578152D01*
X151888095Y-145578152D02*
X151983333Y-145625771D01*
X152411905Y-146244819D02*
X152411905Y-145244819D01*
X152840476Y-146244819D02*
X152840476Y-145721009D01*
X152840476Y-145721009D02*
X152792857Y-145625771D01*
X152792857Y-145625771D02*
X152697619Y-145578152D01*
X152697619Y-145578152D02*
X152554762Y-145578152D01*
X152554762Y-145578152D02*
X152459524Y-145625771D01*
X152459524Y-145625771D02*
X152411905Y-145673390D01*
X153840476Y-146244819D02*
X153269048Y-146244819D01*
X153554762Y-146244819D02*
X153554762Y-145244819D01*
X153554762Y-145244819D02*
X153459524Y-145387676D01*
X153459524Y-145387676D02*
X153364286Y-145482914D01*
X153364286Y-145482914D02*
X153269048Y-145530533D01*
X163766666Y-138244819D02*
X163433333Y-137768628D01*
X163195238Y-138244819D02*
X163195238Y-137244819D01*
X163195238Y-137244819D02*
X163576190Y-137244819D01*
X163576190Y-137244819D02*
X163671428Y-137292438D01*
X163671428Y-137292438D02*
X163719047Y-137340057D01*
X163719047Y-137340057D02*
X163766666Y-137435295D01*
X163766666Y-137435295D02*
X163766666Y-137578152D01*
X163766666Y-137578152D02*
X163719047Y-137673390D01*
X163719047Y-137673390D02*
X163671428Y-137721009D01*
X163671428Y-137721009D02*
X163576190Y-137768628D01*
X163576190Y-137768628D02*
X163195238Y-137768628D01*
X164195238Y-137721009D02*
X164528571Y-137721009D01*
X164671428Y-138244819D02*
X164195238Y-138244819D01*
X164195238Y-138244819D02*
X164195238Y-137244819D01*
X164195238Y-137244819D02*
X164671428Y-137244819D01*
X165433333Y-137721009D02*
X165100000Y-137721009D01*
X165100000Y-138244819D02*
X165100000Y-137244819D01*
X165100000Y-137244819D02*
X165576190Y-137244819D01*
X166100000Y-137244819D02*
X166100000Y-137482914D01*
X165861905Y-137387676D02*
X166100000Y-137482914D01*
X166100000Y-137482914D02*
X166338095Y-137387676D01*
X165957143Y-137673390D02*
X166100000Y-137482914D01*
X166100000Y-137482914D02*
X166242857Y-137673390D01*
X166861905Y-137244819D02*
X166861905Y-137482914D01*
X166623810Y-137387676D02*
X166861905Y-137482914D01*
X166861905Y-137482914D02*
X167100000Y-137387676D01*
X166719048Y-137673390D02*
X166861905Y-137482914D01*
X166861905Y-137482914D02*
X167004762Y-137673390D01*
X106513333Y-146244819D02*
X106513333Y-145244819D01*
X106513333Y-145244819D02*
X106894285Y-145244819D01*
X106894285Y-145244819D02*
X106989523Y-145292438D01*
X106989523Y-145292438D02*
X107037142Y-145340057D01*
X107037142Y-145340057D02*
X107084761Y-145435295D01*
X107084761Y-145435295D02*
X107084761Y-145578152D01*
X107084761Y-145578152D02*
X107037142Y-145673390D01*
X107037142Y-145673390D02*
X106989523Y-145721009D01*
X106989523Y-145721009D02*
X106894285Y-145768628D01*
X106894285Y-145768628D02*
X106513333Y-145768628D01*
X107513333Y-146244819D02*
X107513333Y-145244819D01*
X107513333Y-145244819D02*
X107846666Y-145959104D01*
X107846666Y-145959104D02*
X108179999Y-145244819D01*
X108179999Y-145244819D02*
X108179999Y-146244819D01*
X108989523Y-145721009D02*
X109132380Y-145768628D01*
X109132380Y-145768628D02*
X109179999Y-145816247D01*
X109179999Y-145816247D02*
X109227618Y-145911485D01*
X109227618Y-145911485D02*
X109227618Y-146054342D01*
X109227618Y-146054342D02*
X109179999Y-146149580D01*
X109179999Y-146149580D02*
X109132380Y-146197200D01*
X109132380Y-146197200D02*
X109037142Y-146244819D01*
X109037142Y-146244819D02*
X108656190Y-146244819D01*
X108656190Y-146244819D02*
X108656190Y-145244819D01*
X108656190Y-145244819D02*
X108989523Y-145244819D01*
X108989523Y-145244819D02*
X109084761Y-145292438D01*
X109084761Y-145292438D02*
X109132380Y-145340057D01*
X109132380Y-145340057D02*
X109179999Y-145435295D01*
X109179999Y-145435295D02*
X109179999Y-145530533D01*
X109179999Y-145530533D02*
X109132380Y-145625771D01*
X109132380Y-145625771D02*
X109084761Y-145673390D01*
X109084761Y-145673390D02*
X108989523Y-145721009D01*
X108989523Y-145721009D02*
X108656190Y-145721009D01*
X110084761Y-145578152D02*
X110084761Y-146244819D01*
X109656190Y-145578152D02*
X109656190Y-146101961D01*
X109656190Y-146101961D02*
X109703809Y-146197200D01*
X109703809Y-146197200D02*
X109799047Y-146244819D01*
X109799047Y-146244819D02*
X109941904Y-146244819D01*
X109941904Y-146244819D02*
X110037142Y-146197200D01*
X110037142Y-146197200D02*
X110084761Y-146149580D01*
X110513333Y-146197200D02*
X110608571Y-146244819D01*
X110608571Y-146244819D02*
X110799047Y-146244819D01*
X110799047Y-146244819D02*
X110894285Y-146197200D01*
X110894285Y-146197200D02*
X110941904Y-146101961D01*
X110941904Y-146101961D02*
X110941904Y-146054342D01*
X110941904Y-146054342D02*
X110894285Y-145959104D01*
X110894285Y-145959104D02*
X110799047Y-145911485D01*
X110799047Y-145911485D02*
X110656190Y-145911485D01*
X110656190Y-145911485D02*
X110560952Y-145863866D01*
X110560952Y-145863866D02*
X110513333Y-145768628D01*
X110513333Y-145768628D02*
X110513333Y-145721009D01*
X110513333Y-145721009D02*
X110560952Y-145625771D01*
X110560952Y-145625771D02*
X110656190Y-145578152D01*
X110656190Y-145578152D02*
X110799047Y-145578152D01*
X110799047Y-145578152D02*
X110894285Y-145625771D01*
X111894285Y-146244819D02*
X111322857Y-146244819D01*
X111608571Y-146244819D02*
X111608571Y-145244819D01*
X111608571Y-145244819D02*
X111513333Y-145387676D01*
X111513333Y-145387676D02*
X111418095Y-145482914D01*
X111418095Y-145482914D02*
X111322857Y-145530533D01*
D11*
X127256265Y-86481704D02*
X127732455Y-86481704D01*
X127161027Y-86767419D02*
X127494360Y-85767419D01*
X127494360Y-85767419D02*
X127827693Y-86767419D01*
X128161027Y-86767419D02*
X128161027Y-85767419D01*
X122176265Y-87751704D02*
X122652455Y-87751704D01*
X122081027Y-88037419D02*
X122414360Y-87037419D01*
X122414360Y-87037419D02*
X122747693Y-88037419D01*
X123081027Y-88037419D02*
X123081027Y-87037419D01*
X123081027Y-87037419D02*
X123319122Y-87037419D01*
X123319122Y-87037419D02*
X123461979Y-87085038D01*
X123461979Y-87085038D02*
X123557217Y-87180276D01*
X123557217Y-87180276D02*
X123604836Y-87275514D01*
X123604836Y-87275514D02*
X123652455Y-87465990D01*
X123652455Y-87465990D02*
X123652455Y-87608847D01*
X123652455Y-87608847D02*
X123604836Y-87799323D01*
X123604836Y-87799323D02*
X123557217Y-87894561D01*
X123557217Y-87894561D02*
X123461979Y-87989800D01*
X123461979Y-87989800D02*
X123319122Y-88037419D01*
X123319122Y-88037419D02*
X123081027Y-88037419D01*
X124081027Y-87037419D02*
X124081027Y-87846942D01*
X124081027Y-87846942D02*
X124128646Y-87942180D01*
X124128646Y-87942180D02*
X124176265Y-87989800D01*
X124176265Y-87989800D02*
X124271503Y-88037419D01*
X124271503Y-88037419D02*
X124461979Y-88037419D01*
X124461979Y-88037419D02*
X124557217Y-87989800D01*
X124557217Y-87989800D02*
X124604836Y-87942180D01*
X124604836Y-87942180D02*
X124652455Y-87846942D01*
X124652455Y-87846942D02*
X124652455Y-87037419D01*
X125128646Y-88037419D02*
X125128646Y-87037419D01*
X125128646Y-87037419D02*
X125461979Y-87751704D01*
X125461979Y-87751704D02*
X125795312Y-87037419D01*
X125795312Y-87037419D02*
X125795312Y-88037419D01*
X126795312Y-88037419D02*
X126223884Y-88037419D01*
X126509598Y-88037419D02*
X126509598Y-87037419D01*
X126509598Y-87037419D02*
X126414360Y-87180276D01*
X126414360Y-87180276D02*
X126319122Y-87275514D01*
X126319122Y-87275514D02*
X126223884Y-87323133D01*
X127176265Y-87132657D02*
X127223884Y-87085038D01*
X127223884Y-87085038D02*
X127319122Y-87037419D01*
X127319122Y-87037419D02*
X127557217Y-87037419D01*
X127557217Y-87037419D02*
X127652455Y-87085038D01*
X127652455Y-87085038D02*
X127700074Y-87132657D01*
X127700074Y-87132657D02*
X127747693Y-87227895D01*
X127747693Y-87227895D02*
X127747693Y-87323133D01*
X127747693Y-87323133D02*
X127700074Y-87465990D01*
X127700074Y-87465990D02*
X127128646Y-88037419D01*
X127128646Y-88037419D02*
X127747693Y-88037419D01*
X128366741Y-87037419D02*
X128461979Y-87037419D01*
X128461979Y-87037419D02*
X128557217Y-87085038D01*
X128557217Y-87085038D02*
X128604836Y-87132657D01*
X128604836Y-87132657D02*
X128652455Y-87227895D01*
X128652455Y-87227895D02*
X128700074Y-87418371D01*
X128700074Y-87418371D02*
X128700074Y-87656466D01*
X128700074Y-87656466D02*
X128652455Y-87846942D01*
X128652455Y-87846942D02*
X128604836Y-87942180D01*
X128604836Y-87942180D02*
X128557217Y-87989800D01*
X128557217Y-87989800D02*
X128461979Y-88037419D01*
X128461979Y-88037419D02*
X128366741Y-88037419D01*
X128366741Y-88037419D02*
X128271503Y-87989800D01*
X128271503Y-87989800D02*
X128223884Y-87942180D01*
X128223884Y-87942180D02*
X128176265Y-87846942D01*
X128176265Y-87846942D02*
X128128646Y-87656466D01*
X128128646Y-87656466D02*
X128128646Y-87418371D01*
X128128646Y-87418371D02*
X128176265Y-87227895D01*
X128176265Y-87227895D02*
X128223884Y-87132657D01*
X128223884Y-87132657D02*
X128271503Y-87085038D01*
X128271503Y-87085038D02*
X128366741Y-87037419D01*
X129652455Y-88037419D02*
X129081027Y-88037419D01*
X129366741Y-88037419D02*
X129366741Y-87037419D01*
X129366741Y-87037419D02*
X129271503Y-87180276D01*
X129271503Y-87180276D02*
X129176265Y-87275514D01*
X129176265Y-87275514D02*
X129081027Y-87323133D01*
X121477693Y-90895038D02*
X121382455Y-90847419D01*
X121382455Y-90847419D02*
X121239598Y-90847419D01*
X121239598Y-90847419D02*
X121096741Y-90895038D01*
X121096741Y-90895038D02*
X121001503Y-90990276D01*
X121001503Y-90990276D02*
X120953884Y-91085514D01*
X120953884Y-91085514D02*
X120906265Y-91275990D01*
X120906265Y-91275990D02*
X120906265Y-91418847D01*
X120906265Y-91418847D02*
X120953884Y-91609323D01*
X120953884Y-91609323D02*
X121001503Y-91704561D01*
X121001503Y-91704561D02*
X121096741Y-91799800D01*
X121096741Y-91799800D02*
X121239598Y-91847419D01*
X121239598Y-91847419D02*
X121334836Y-91847419D01*
X121334836Y-91847419D02*
X121477693Y-91799800D01*
X121477693Y-91799800D02*
X121525312Y-91752180D01*
X121525312Y-91752180D02*
X121525312Y-91418847D01*
X121525312Y-91418847D02*
X121334836Y-91418847D01*
X121953884Y-91847419D02*
X121953884Y-90847419D01*
X121953884Y-90847419D02*
X122525312Y-91847419D01*
X122525312Y-91847419D02*
X122525312Y-90847419D01*
X123001503Y-91847419D02*
X123001503Y-90847419D01*
X123001503Y-90847419D02*
X123239598Y-90847419D01*
X123239598Y-90847419D02*
X123382455Y-90895038D01*
X123382455Y-90895038D02*
X123477693Y-90990276D01*
X123477693Y-90990276D02*
X123525312Y-91085514D01*
X123525312Y-91085514D02*
X123572931Y-91275990D01*
X123572931Y-91275990D02*
X123572931Y-91418847D01*
X123572931Y-91418847D02*
X123525312Y-91609323D01*
X123525312Y-91609323D02*
X123477693Y-91704561D01*
X123477693Y-91704561D02*
X123382455Y-91799800D01*
X123382455Y-91799800D02*
X123239598Y-91847419D01*
X123239598Y-91847419D02*
X123001503Y-91847419D01*
X124525312Y-91847419D02*
X123953884Y-91847419D01*
X124239598Y-91847419D02*
X124239598Y-90847419D01*
X124239598Y-90847419D02*
X124144360Y-90990276D01*
X124144360Y-90990276D02*
X124049122Y-91085514D01*
X124049122Y-91085514D02*
X123953884Y-91133133D01*
X127161027Y-83227419D02*
X127494360Y-84227419D01*
X127494360Y-84227419D02*
X127827693Y-83227419D01*
X128732455Y-84132180D02*
X128684836Y-84179800D01*
X128684836Y-84179800D02*
X128541979Y-84227419D01*
X128541979Y-84227419D02*
X128446741Y-84227419D01*
X128446741Y-84227419D02*
X128303884Y-84179800D01*
X128303884Y-84179800D02*
X128208646Y-84084561D01*
X128208646Y-84084561D02*
X128161027Y-83989323D01*
X128161027Y-83989323D02*
X128113408Y-83798847D01*
X128113408Y-83798847D02*
X128113408Y-83655990D01*
X128113408Y-83655990D02*
X128161027Y-83465514D01*
X128161027Y-83465514D02*
X128208646Y-83370276D01*
X128208646Y-83370276D02*
X128303884Y-83275038D01*
X128303884Y-83275038D02*
X128446741Y-83227419D01*
X128446741Y-83227419D02*
X128541979Y-83227419D01*
X128541979Y-83227419D02*
X128684836Y-83275038D01*
X128684836Y-83275038D02*
X128732455Y-83322657D01*
X129732455Y-84132180D02*
X129684836Y-84179800D01*
X129684836Y-84179800D02*
X129541979Y-84227419D01*
X129541979Y-84227419D02*
X129446741Y-84227419D01*
X129446741Y-84227419D02*
X129303884Y-84179800D01*
X129303884Y-84179800D02*
X129208646Y-84084561D01*
X129208646Y-84084561D02*
X129161027Y-83989323D01*
X129161027Y-83989323D02*
X129113408Y-83798847D01*
X129113408Y-83798847D02*
X129113408Y-83655990D01*
X129113408Y-83655990D02*
X129161027Y-83465514D01*
X129161027Y-83465514D02*
X129208646Y-83370276D01*
X129208646Y-83370276D02*
X129303884Y-83275038D01*
X129303884Y-83275038D02*
X129446741Y-83227419D01*
X129446741Y-83227419D02*
X129541979Y-83227419D01*
X129541979Y-83227419D02*
X129684836Y-83275038D01*
X129684836Y-83275038D02*
X129732455Y-83322657D01*
X130113408Y-83322657D02*
X130161027Y-83275038D01*
X130161027Y-83275038D02*
X130256265Y-83227419D01*
X130256265Y-83227419D02*
X130494360Y-83227419D01*
X130494360Y-83227419D02*
X130589598Y-83275038D01*
X130589598Y-83275038D02*
X130637217Y-83322657D01*
X130637217Y-83322657D02*
X130684836Y-83417895D01*
X130684836Y-83417895D02*
X130684836Y-83513133D01*
X130684836Y-83513133D02*
X130637217Y-83655990D01*
X130637217Y-83655990D02*
X130065789Y-84227419D01*
X130065789Y-84227419D02*
X130684836Y-84227419D01*
X127637217Y-88783609D02*
X127780074Y-88831228D01*
X127780074Y-88831228D02*
X127827693Y-88878847D01*
X127827693Y-88878847D02*
X127875312Y-88974085D01*
X127875312Y-88974085D02*
X127875312Y-89116942D01*
X127875312Y-89116942D02*
X127827693Y-89212180D01*
X127827693Y-89212180D02*
X127780074Y-89259800D01*
X127780074Y-89259800D02*
X127684836Y-89307419D01*
X127684836Y-89307419D02*
X127303884Y-89307419D01*
X127303884Y-89307419D02*
X127303884Y-88307419D01*
X127303884Y-88307419D02*
X127637217Y-88307419D01*
X127637217Y-88307419D02*
X127732455Y-88355038D01*
X127732455Y-88355038D02*
X127780074Y-88402657D01*
X127780074Y-88402657D02*
X127827693Y-88497895D01*
X127827693Y-88497895D02*
X127827693Y-88593133D01*
X127827693Y-88593133D02*
X127780074Y-88688371D01*
X127780074Y-88688371D02*
X127732455Y-88735990D01*
X127732455Y-88735990D02*
X127637217Y-88783609D01*
X127637217Y-88783609D02*
X127303884Y-88783609D01*
X128494360Y-88307419D02*
X128684836Y-88307419D01*
X128684836Y-88307419D02*
X128780074Y-88355038D01*
X128780074Y-88355038D02*
X128875312Y-88450276D01*
X128875312Y-88450276D02*
X128922931Y-88640752D01*
X128922931Y-88640752D02*
X128922931Y-88974085D01*
X128922931Y-88974085D02*
X128875312Y-89164561D01*
X128875312Y-89164561D02*
X128780074Y-89259800D01*
X128780074Y-89259800D02*
X128684836Y-89307419D01*
X128684836Y-89307419D02*
X128494360Y-89307419D01*
X128494360Y-89307419D02*
X128399122Y-89259800D01*
X128399122Y-89259800D02*
X128303884Y-89164561D01*
X128303884Y-89164561D02*
X128256265Y-88974085D01*
X128256265Y-88974085D02*
X128256265Y-88640752D01*
X128256265Y-88640752D02*
X128303884Y-88450276D01*
X128303884Y-88450276D02*
X128399122Y-88355038D01*
X128399122Y-88355038D02*
X128494360Y-88307419D01*
X121287217Y-88783609D02*
X121430074Y-88831228D01*
X121430074Y-88831228D02*
X121477693Y-88878847D01*
X121477693Y-88878847D02*
X121525312Y-88974085D01*
X121525312Y-88974085D02*
X121525312Y-89116942D01*
X121525312Y-89116942D02*
X121477693Y-89212180D01*
X121477693Y-89212180D02*
X121430074Y-89259800D01*
X121430074Y-89259800D02*
X121334836Y-89307419D01*
X121334836Y-89307419D02*
X120953884Y-89307419D01*
X120953884Y-89307419D02*
X120953884Y-88307419D01*
X120953884Y-88307419D02*
X121287217Y-88307419D01*
X121287217Y-88307419D02*
X121382455Y-88355038D01*
X121382455Y-88355038D02*
X121430074Y-88402657D01*
X121430074Y-88402657D02*
X121477693Y-88497895D01*
X121477693Y-88497895D02*
X121477693Y-88593133D01*
X121477693Y-88593133D02*
X121430074Y-88688371D01*
X121430074Y-88688371D02*
X121382455Y-88735990D01*
X121382455Y-88735990D02*
X121287217Y-88783609D01*
X121287217Y-88783609D02*
X120953884Y-88783609D01*
X121953884Y-89307419D02*
X121953884Y-88307419D01*
X120811027Y-83227419D02*
X121144360Y-84227419D01*
X121144360Y-84227419D02*
X121477693Y-83227419D01*
X122382455Y-84132180D02*
X122334836Y-84179800D01*
X122334836Y-84179800D02*
X122191979Y-84227419D01*
X122191979Y-84227419D02*
X122096741Y-84227419D01*
X122096741Y-84227419D02*
X121953884Y-84179800D01*
X121953884Y-84179800D02*
X121858646Y-84084561D01*
X121858646Y-84084561D02*
X121811027Y-83989323D01*
X121811027Y-83989323D02*
X121763408Y-83798847D01*
X121763408Y-83798847D02*
X121763408Y-83655990D01*
X121763408Y-83655990D02*
X121811027Y-83465514D01*
X121811027Y-83465514D02*
X121858646Y-83370276D01*
X121858646Y-83370276D02*
X121953884Y-83275038D01*
X121953884Y-83275038D02*
X122096741Y-83227419D01*
X122096741Y-83227419D02*
X122191979Y-83227419D01*
X122191979Y-83227419D02*
X122334836Y-83275038D01*
X122334836Y-83275038D02*
X122382455Y-83322657D01*
X123382455Y-84132180D02*
X123334836Y-84179800D01*
X123334836Y-84179800D02*
X123191979Y-84227419D01*
X123191979Y-84227419D02*
X123096741Y-84227419D01*
X123096741Y-84227419D02*
X122953884Y-84179800D01*
X122953884Y-84179800D02*
X122858646Y-84084561D01*
X122858646Y-84084561D02*
X122811027Y-83989323D01*
X122811027Y-83989323D02*
X122763408Y-83798847D01*
X122763408Y-83798847D02*
X122763408Y-83655990D01*
X122763408Y-83655990D02*
X122811027Y-83465514D01*
X122811027Y-83465514D02*
X122858646Y-83370276D01*
X122858646Y-83370276D02*
X122953884Y-83275038D01*
X122953884Y-83275038D02*
X123096741Y-83227419D01*
X123096741Y-83227419D02*
X123191979Y-83227419D01*
X123191979Y-83227419D02*
X123334836Y-83275038D01*
X123334836Y-83275038D02*
X123382455Y-83322657D01*
X124334836Y-84227419D02*
X123763408Y-84227419D01*
X124049122Y-84227419D02*
X124049122Y-83227419D01*
X124049122Y-83227419D02*
X123953884Y-83370276D01*
X123953884Y-83370276D02*
X123858646Y-83465514D01*
X123858646Y-83465514D02*
X123763408Y-83513133D01*
X127827693Y-90895038D02*
X127732455Y-90847419D01*
X127732455Y-90847419D02*
X127589598Y-90847419D01*
X127589598Y-90847419D02*
X127446741Y-90895038D01*
X127446741Y-90895038D02*
X127351503Y-90990276D01*
X127351503Y-90990276D02*
X127303884Y-91085514D01*
X127303884Y-91085514D02*
X127256265Y-91275990D01*
X127256265Y-91275990D02*
X127256265Y-91418847D01*
X127256265Y-91418847D02*
X127303884Y-91609323D01*
X127303884Y-91609323D02*
X127351503Y-91704561D01*
X127351503Y-91704561D02*
X127446741Y-91799800D01*
X127446741Y-91799800D02*
X127589598Y-91847419D01*
X127589598Y-91847419D02*
X127684836Y-91847419D01*
X127684836Y-91847419D02*
X127827693Y-91799800D01*
X127827693Y-91799800D02*
X127875312Y-91752180D01*
X127875312Y-91752180D02*
X127875312Y-91418847D01*
X127875312Y-91418847D02*
X127684836Y-91418847D01*
X128303884Y-91847419D02*
X128303884Y-90847419D01*
X128303884Y-90847419D02*
X128875312Y-91847419D01*
X128875312Y-91847419D02*
X128875312Y-90847419D01*
X129351503Y-91847419D02*
X129351503Y-90847419D01*
X129351503Y-90847419D02*
X129589598Y-90847419D01*
X129589598Y-90847419D02*
X129732455Y-90895038D01*
X129732455Y-90895038D02*
X129827693Y-90990276D01*
X129827693Y-90990276D02*
X129875312Y-91085514D01*
X129875312Y-91085514D02*
X129922931Y-91275990D01*
X129922931Y-91275990D02*
X129922931Y-91418847D01*
X129922931Y-91418847D02*
X129875312Y-91609323D01*
X129875312Y-91609323D02*
X129827693Y-91704561D01*
X129827693Y-91704561D02*
X129732455Y-91799800D01*
X129732455Y-91799800D02*
X129589598Y-91847419D01*
X129589598Y-91847419D02*
X129351503Y-91847419D01*
X130303884Y-90942657D02*
X130351503Y-90895038D01*
X130351503Y-90895038D02*
X130446741Y-90847419D01*
X130446741Y-90847419D02*
X130684836Y-90847419D01*
X130684836Y-90847419D02*
X130780074Y-90895038D01*
X130780074Y-90895038D02*
X130827693Y-90942657D01*
X130827693Y-90942657D02*
X130875312Y-91037895D01*
X130875312Y-91037895D02*
X130875312Y-91133133D01*
X130875312Y-91133133D02*
X130827693Y-91275990D01*
X130827693Y-91275990D02*
X130256265Y-91847419D01*
X130256265Y-91847419D02*
X130875312Y-91847419D01*
X120906265Y-86481704D02*
X121382455Y-86481704D01*
X120811027Y-86767419D02*
X121144360Y-85767419D01*
X121144360Y-85767419D02*
X121477693Y-86767419D01*
X122001503Y-85767419D02*
X122191979Y-85767419D01*
X122191979Y-85767419D02*
X122287217Y-85815038D01*
X122287217Y-85815038D02*
X122382455Y-85910276D01*
X122382455Y-85910276D02*
X122430074Y-86100752D01*
X122430074Y-86100752D02*
X122430074Y-86434085D01*
X122430074Y-86434085D02*
X122382455Y-86624561D01*
X122382455Y-86624561D02*
X122287217Y-86719800D01*
X122287217Y-86719800D02*
X122191979Y-86767419D01*
X122191979Y-86767419D02*
X122001503Y-86767419D01*
X122001503Y-86767419D02*
X121906265Y-86719800D01*
X121906265Y-86719800D02*
X121811027Y-86624561D01*
X121811027Y-86624561D02*
X121763408Y-86434085D01*
X121763408Y-86434085D02*
X121763408Y-86100752D01*
X121763408Y-86100752D02*
X121811027Y-85910276D01*
X121811027Y-85910276D02*
X121906265Y-85815038D01*
X121906265Y-85815038D02*
X122001503Y-85767419D01*
D10*
X164609994Y-122350815D02*
X164276661Y-121874624D01*
X164038566Y-122350815D02*
X164038566Y-121350815D01*
X164038566Y-121350815D02*
X164419518Y-121350815D01*
X164419518Y-121350815D02*
X164514756Y-121398434D01*
X164514756Y-121398434D02*
X164562375Y-121446053D01*
X164562375Y-121446053D02*
X164609994Y-121541291D01*
X164609994Y-121541291D02*
X164609994Y-121684148D01*
X164609994Y-121684148D02*
X164562375Y-121779386D01*
X164562375Y-121779386D02*
X164514756Y-121827005D01*
X164514756Y-121827005D02*
X164419518Y-121874624D01*
X164419518Y-121874624D02*
X164038566Y-121874624D01*
X164990947Y-121446053D02*
X165038566Y-121398434D01*
X165038566Y-121398434D02*
X165133804Y-121350815D01*
X165133804Y-121350815D02*
X165371899Y-121350815D01*
X165371899Y-121350815D02*
X165467137Y-121398434D01*
X165467137Y-121398434D02*
X165514756Y-121446053D01*
X165514756Y-121446053D02*
X165562375Y-121541291D01*
X165562375Y-121541291D02*
X165562375Y-121636529D01*
X165562375Y-121636529D02*
X165514756Y-121779386D01*
X165514756Y-121779386D02*
X164943328Y-122350815D01*
X164943328Y-122350815D02*
X165562375Y-122350815D01*
X110780002Y-114258855D02*
X110732383Y-114354093D01*
X110732383Y-114354093D02*
X110637145Y-114449331D01*
X110637145Y-114449331D02*
X110494287Y-114592188D01*
X110494287Y-114592188D02*
X110446668Y-114687426D01*
X110446668Y-114687426D02*
X110446668Y-114782664D01*
X110684764Y-114735045D02*
X110637145Y-114830283D01*
X110637145Y-114830283D02*
X110541906Y-114925521D01*
X110541906Y-114925521D02*
X110351430Y-114973140D01*
X110351430Y-114973140D02*
X110018097Y-114973140D01*
X110018097Y-114973140D02*
X109827621Y-114925521D01*
X109827621Y-114925521D02*
X109732383Y-114830283D01*
X109732383Y-114830283D02*
X109684764Y-114735045D01*
X109684764Y-114735045D02*
X109684764Y-114544569D01*
X109684764Y-114544569D02*
X109732383Y-114449331D01*
X109732383Y-114449331D02*
X109827621Y-114354093D01*
X109827621Y-114354093D02*
X110018097Y-114306474D01*
X110018097Y-114306474D02*
X110351430Y-114306474D01*
X110351430Y-114306474D02*
X110541906Y-114354093D01*
X110541906Y-114354093D02*
X110637145Y-114449331D01*
X110637145Y-114449331D02*
X110684764Y-114544569D01*
X110684764Y-114544569D02*
X110684764Y-114735045D01*
X110684764Y-113354093D02*
X110684764Y-113925521D01*
X110684764Y-113639807D02*
X109684764Y-113639807D01*
X109684764Y-113639807D02*
X109827621Y-113735045D01*
X109827621Y-113735045D02*
X109922859Y-113830283D01*
X109922859Y-113830283D02*
X109970478Y-113925521D01*
D11*
X127256265Y-73881704D02*
X127732455Y-73881704D01*
X127161027Y-74167419D02*
X127494360Y-73167419D01*
X127494360Y-73167419D02*
X127827693Y-74167419D01*
X128161027Y-74167419D02*
X128161027Y-73167419D01*
X120811027Y-70627419D02*
X121144360Y-71627419D01*
X121144360Y-71627419D02*
X121477693Y-70627419D01*
X122382455Y-71532180D02*
X122334836Y-71579800D01*
X122334836Y-71579800D02*
X122191979Y-71627419D01*
X122191979Y-71627419D02*
X122096741Y-71627419D01*
X122096741Y-71627419D02*
X121953884Y-71579800D01*
X121953884Y-71579800D02*
X121858646Y-71484561D01*
X121858646Y-71484561D02*
X121811027Y-71389323D01*
X121811027Y-71389323D02*
X121763408Y-71198847D01*
X121763408Y-71198847D02*
X121763408Y-71055990D01*
X121763408Y-71055990D02*
X121811027Y-70865514D01*
X121811027Y-70865514D02*
X121858646Y-70770276D01*
X121858646Y-70770276D02*
X121953884Y-70675038D01*
X121953884Y-70675038D02*
X122096741Y-70627419D01*
X122096741Y-70627419D02*
X122191979Y-70627419D01*
X122191979Y-70627419D02*
X122334836Y-70675038D01*
X122334836Y-70675038D02*
X122382455Y-70722657D01*
X123382455Y-71532180D02*
X123334836Y-71579800D01*
X123334836Y-71579800D02*
X123191979Y-71627419D01*
X123191979Y-71627419D02*
X123096741Y-71627419D01*
X123096741Y-71627419D02*
X122953884Y-71579800D01*
X122953884Y-71579800D02*
X122858646Y-71484561D01*
X122858646Y-71484561D02*
X122811027Y-71389323D01*
X122811027Y-71389323D02*
X122763408Y-71198847D01*
X122763408Y-71198847D02*
X122763408Y-71055990D01*
X122763408Y-71055990D02*
X122811027Y-70865514D01*
X122811027Y-70865514D02*
X122858646Y-70770276D01*
X122858646Y-70770276D02*
X122953884Y-70675038D01*
X122953884Y-70675038D02*
X123096741Y-70627419D01*
X123096741Y-70627419D02*
X123191979Y-70627419D01*
X123191979Y-70627419D02*
X123334836Y-70675038D01*
X123334836Y-70675038D02*
X123382455Y-70722657D01*
X124334836Y-71627419D02*
X123763408Y-71627419D01*
X124049122Y-71627419D02*
X124049122Y-70627419D01*
X124049122Y-70627419D02*
X123953884Y-70770276D01*
X123953884Y-70770276D02*
X123858646Y-70865514D01*
X123858646Y-70865514D02*
X123763408Y-70913133D01*
X120906265Y-73881704D02*
X121382455Y-73881704D01*
X120811027Y-74167419D02*
X121144360Y-73167419D01*
X121144360Y-73167419D02*
X121477693Y-74167419D01*
X122001503Y-73167419D02*
X122191979Y-73167419D01*
X122191979Y-73167419D02*
X122287217Y-73215038D01*
X122287217Y-73215038D02*
X122382455Y-73310276D01*
X122382455Y-73310276D02*
X122430074Y-73500752D01*
X122430074Y-73500752D02*
X122430074Y-73834085D01*
X122430074Y-73834085D02*
X122382455Y-74024561D01*
X122382455Y-74024561D02*
X122287217Y-74119800D01*
X122287217Y-74119800D02*
X122191979Y-74167419D01*
X122191979Y-74167419D02*
X122001503Y-74167419D01*
X122001503Y-74167419D02*
X121906265Y-74119800D01*
X121906265Y-74119800D02*
X121811027Y-74024561D01*
X121811027Y-74024561D02*
X121763408Y-73834085D01*
X121763408Y-73834085D02*
X121763408Y-73500752D01*
X121763408Y-73500752D02*
X121811027Y-73310276D01*
X121811027Y-73310276D02*
X121906265Y-73215038D01*
X121906265Y-73215038D02*
X122001503Y-73167419D01*
X121287217Y-76183609D02*
X121430074Y-76231228D01*
X121430074Y-76231228D02*
X121477693Y-76278847D01*
X121477693Y-76278847D02*
X121525312Y-76374085D01*
X121525312Y-76374085D02*
X121525312Y-76516942D01*
X121525312Y-76516942D02*
X121477693Y-76612180D01*
X121477693Y-76612180D02*
X121430074Y-76659800D01*
X121430074Y-76659800D02*
X121334836Y-76707419D01*
X121334836Y-76707419D02*
X120953884Y-76707419D01*
X120953884Y-76707419D02*
X120953884Y-75707419D01*
X120953884Y-75707419D02*
X121287217Y-75707419D01*
X121287217Y-75707419D02*
X121382455Y-75755038D01*
X121382455Y-75755038D02*
X121430074Y-75802657D01*
X121430074Y-75802657D02*
X121477693Y-75897895D01*
X121477693Y-75897895D02*
X121477693Y-75993133D01*
X121477693Y-75993133D02*
X121430074Y-76088371D01*
X121430074Y-76088371D02*
X121382455Y-76135990D01*
X121382455Y-76135990D02*
X121287217Y-76183609D01*
X121287217Y-76183609D02*
X120953884Y-76183609D01*
X121953884Y-76707419D02*
X121953884Y-75707419D01*
X127827693Y-78295038D02*
X127732455Y-78247419D01*
X127732455Y-78247419D02*
X127589598Y-78247419D01*
X127589598Y-78247419D02*
X127446741Y-78295038D01*
X127446741Y-78295038D02*
X127351503Y-78390276D01*
X127351503Y-78390276D02*
X127303884Y-78485514D01*
X127303884Y-78485514D02*
X127256265Y-78675990D01*
X127256265Y-78675990D02*
X127256265Y-78818847D01*
X127256265Y-78818847D02*
X127303884Y-79009323D01*
X127303884Y-79009323D02*
X127351503Y-79104561D01*
X127351503Y-79104561D02*
X127446741Y-79199800D01*
X127446741Y-79199800D02*
X127589598Y-79247419D01*
X127589598Y-79247419D02*
X127684836Y-79247419D01*
X127684836Y-79247419D02*
X127827693Y-79199800D01*
X127827693Y-79199800D02*
X127875312Y-79152180D01*
X127875312Y-79152180D02*
X127875312Y-78818847D01*
X127875312Y-78818847D02*
X127684836Y-78818847D01*
X128303884Y-79247419D02*
X128303884Y-78247419D01*
X128303884Y-78247419D02*
X128875312Y-79247419D01*
X128875312Y-79247419D02*
X128875312Y-78247419D01*
X129351503Y-79247419D02*
X129351503Y-78247419D01*
X129351503Y-78247419D02*
X129589598Y-78247419D01*
X129589598Y-78247419D02*
X129732455Y-78295038D01*
X129732455Y-78295038D02*
X129827693Y-78390276D01*
X129827693Y-78390276D02*
X129875312Y-78485514D01*
X129875312Y-78485514D02*
X129922931Y-78675990D01*
X129922931Y-78675990D02*
X129922931Y-78818847D01*
X129922931Y-78818847D02*
X129875312Y-79009323D01*
X129875312Y-79009323D02*
X129827693Y-79104561D01*
X129827693Y-79104561D02*
X129732455Y-79199800D01*
X129732455Y-79199800D02*
X129589598Y-79247419D01*
X129589598Y-79247419D02*
X129351503Y-79247419D01*
X130303884Y-78342657D02*
X130351503Y-78295038D01*
X130351503Y-78295038D02*
X130446741Y-78247419D01*
X130446741Y-78247419D02*
X130684836Y-78247419D01*
X130684836Y-78247419D02*
X130780074Y-78295038D01*
X130780074Y-78295038D02*
X130827693Y-78342657D01*
X130827693Y-78342657D02*
X130875312Y-78437895D01*
X130875312Y-78437895D02*
X130875312Y-78533133D01*
X130875312Y-78533133D02*
X130827693Y-78675990D01*
X130827693Y-78675990D02*
X130256265Y-79247419D01*
X130256265Y-79247419D02*
X130875312Y-79247419D01*
X127161027Y-70627419D02*
X127494360Y-71627419D01*
X127494360Y-71627419D02*
X127827693Y-70627419D01*
X128732455Y-71532180D02*
X128684836Y-71579800D01*
X128684836Y-71579800D02*
X128541979Y-71627419D01*
X128541979Y-71627419D02*
X128446741Y-71627419D01*
X128446741Y-71627419D02*
X128303884Y-71579800D01*
X128303884Y-71579800D02*
X128208646Y-71484561D01*
X128208646Y-71484561D02*
X128161027Y-71389323D01*
X128161027Y-71389323D02*
X128113408Y-71198847D01*
X128113408Y-71198847D02*
X128113408Y-71055990D01*
X128113408Y-71055990D02*
X128161027Y-70865514D01*
X128161027Y-70865514D02*
X128208646Y-70770276D01*
X128208646Y-70770276D02*
X128303884Y-70675038D01*
X128303884Y-70675038D02*
X128446741Y-70627419D01*
X128446741Y-70627419D02*
X128541979Y-70627419D01*
X128541979Y-70627419D02*
X128684836Y-70675038D01*
X128684836Y-70675038D02*
X128732455Y-70722657D01*
X129732455Y-71532180D02*
X129684836Y-71579800D01*
X129684836Y-71579800D02*
X129541979Y-71627419D01*
X129541979Y-71627419D02*
X129446741Y-71627419D01*
X129446741Y-71627419D02*
X129303884Y-71579800D01*
X129303884Y-71579800D02*
X129208646Y-71484561D01*
X129208646Y-71484561D02*
X129161027Y-71389323D01*
X129161027Y-71389323D02*
X129113408Y-71198847D01*
X129113408Y-71198847D02*
X129113408Y-71055990D01*
X129113408Y-71055990D02*
X129161027Y-70865514D01*
X129161027Y-70865514D02*
X129208646Y-70770276D01*
X129208646Y-70770276D02*
X129303884Y-70675038D01*
X129303884Y-70675038D02*
X129446741Y-70627419D01*
X129446741Y-70627419D02*
X129541979Y-70627419D01*
X129541979Y-70627419D02*
X129684836Y-70675038D01*
X129684836Y-70675038D02*
X129732455Y-70722657D01*
X130113408Y-70722657D02*
X130161027Y-70675038D01*
X130161027Y-70675038D02*
X130256265Y-70627419D01*
X130256265Y-70627419D02*
X130494360Y-70627419D01*
X130494360Y-70627419D02*
X130589598Y-70675038D01*
X130589598Y-70675038D02*
X130637217Y-70722657D01*
X130637217Y-70722657D02*
X130684836Y-70817895D01*
X130684836Y-70817895D02*
X130684836Y-70913133D01*
X130684836Y-70913133D02*
X130637217Y-71055990D01*
X130637217Y-71055990D02*
X130065789Y-71627419D01*
X130065789Y-71627419D02*
X130684836Y-71627419D01*
X127637217Y-76183609D02*
X127780074Y-76231228D01*
X127780074Y-76231228D02*
X127827693Y-76278847D01*
X127827693Y-76278847D02*
X127875312Y-76374085D01*
X127875312Y-76374085D02*
X127875312Y-76516942D01*
X127875312Y-76516942D02*
X127827693Y-76612180D01*
X127827693Y-76612180D02*
X127780074Y-76659800D01*
X127780074Y-76659800D02*
X127684836Y-76707419D01*
X127684836Y-76707419D02*
X127303884Y-76707419D01*
X127303884Y-76707419D02*
X127303884Y-75707419D01*
X127303884Y-75707419D02*
X127637217Y-75707419D01*
X127637217Y-75707419D02*
X127732455Y-75755038D01*
X127732455Y-75755038D02*
X127780074Y-75802657D01*
X127780074Y-75802657D02*
X127827693Y-75897895D01*
X127827693Y-75897895D02*
X127827693Y-75993133D01*
X127827693Y-75993133D02*
X127780074Y-76088371D01*
X127780074Y-76088371D02*
X127732455Y-76135990D01*
X127732455Y-76135990D02*
X127637217Y-76183609D01*
X127637217Y-76183609D02*
X127303884Y-76183609D01*
X128494360Y-75707419D02*
X128684836Y-75707419D01*
X128684836Y-75707419D02*
X128780074Y-75755038D01*
X128780074Y-75755038D02*
X128875312Y-75850276D01*
X128875312Y-75850276D02*
X128922931Y-76040752D01*
X128922931Y-76040752D02*
X128922931Y-76374085D01*
X128922931Y-76374085D02*
X128875312Y-76564561D01*
X128875312Y-76564561D02*
X128780074Y-76659800D01*
X128780074Y-76659800D02*
X128684836Y-76707419D01*
X128684836Y-76707419D02*
X128494360Y-76707419D01*
X128494360Y-76707419D02*
X128399122Y-76659800D01*
X128399122Y-76659800D02*
X128303884Y-76564561D01*
X128303884Y-76564561D02*
X128256265Y-76374085D01*
X128256265Y-76374085D02*
X128256265Y-76040752D01*
X128256265Y-76040752D02*
X128303884Y-75850276D01*
X128303884Y-75850276D02*
X128399122Y-75755038D01*
X128399122Y-75755038D02*
X128494360Y-75707419D01*
X121477693Y-78295038D02*
X121382455Y-78247419D01*
X121382455Y-78247419D02*
X121239598Y-78247419D01*
X121239598Y-78247419D02*
X121096741Y-78295038D01*
X121096741Y-78295038D02*
X121001503Y-78390276D01*
X121001503Y-78390276D02*
X120953884Y-78485514D01*
X120953884Y-78485514D02*
X120906265Y-78675990D01*
X120906265Y-78675990D02*
X120906265Y-78818847D01*
X120906265Y-78818847D02*
X120953884Y-79009323D01*
X120953884Y-79009323D02*
X121001503Y-79104561D01*
X121001503Y-79104561D02*
X121096741Y-79199800D01*
X121096741Y-79199800D02*
X121239598Y-79247419D01*
X121239598Y-79247419D02*
X121334836Y-79247419D01*
X121334836Y-79247419D02*
X121477693Y-79199800D01*
X121477693Y-79199800D02*
X121525312Y-79152180D01*
X121525312Y-79152180D02*
X121525312Y-78818847D01*
X121525312Y-78818847D02*
X121334836Y-78818847D01*
X121953884Y-79247419D02*
X121953884Y-78247419D01*
X121953884Y-78247419D02*
X122525312Y-79247419D01*
X122525312Y-79247419D02*
X122525312Y-78247419D01*
X123001503Y-79247419D02*
X123001503Y-78247419D01*
X123001503Y-78247419D02*
X123239598Y-78247419D01*
X123239598Y-78247419D02*
X123382455Y-78295038D01*
X123382455Y-78295038D02*
X123477693Y-78390276D01*
X123477693Y-78390276D02*
X123525312Y-78485514D01*
X123525312Y-78485514D02*
X123572931Y-78675990D01*
X123572931Y-78675990D02*
X123572931Y-78818847D01*
X123572931Y-78818847D02*
X123525312Y-79009323D01*
X123525312Y-79009323D02*
X123477693Y-79104561D01*
X123477693Y-79104561D02*
X123382455Y-79199800D01*
X123382455Y-79199800D02*
X123239598Y-79247419D01*
X123239598Y-79247419D02*
X123001503Y-79247419D01*
X124525312Y-79247419D02*
X123953884Y-79247419D01*
X124239598Y-79247419D02*
X124239598Y-78247419D01*
X124239598Y-78247419D02*
X124144360Y-78390276D01*
X124144360Y-78390276D02*
X124049122Y-78485514D01*
X124049122Y-78485514D02*
X123953884Y-78533133D01*
X122176265Y-75151704D02*
X122652455Y-75151704D01*
X122081027Y-75437419D02*
X122414360Y-74437419D01*
X122414360Y-74437419D02*
X122747693Y-75437419D01*
X123081027Y-75437419D02*
X123081027Y-74437419D01*
X123081027Y-74437419D02*
X123319122Y-74437419D01*
X123319122Y-74437419D02*
X123461979Y-74485038D01*
X123461979Y-74485038D02*
X123557217Y-74580276D01*
X123557217Y-74580276D02*
X123604836Y-74675514D01*
X123604836Y-74675514D02*
X123652455Y-74865990D01*
X123652455Y-74865990D02*
X123652455Y-75008847D01*
X123652455Y-75008847D02*
X123604836Y-75199323D01*
X123604836Y-75199323D02*
X123557217Y-75294561D01*
X123557217Y-75294561D02*
X123461979Y-75389800D01*
X123461979Y-75389800D02*
X123319122Y-75437419D01*
X123319122Y-75437419D02*
X123081027Y-75437419D01*
X124081027Y-74437419D02*
X124081027Y-75246942D01*
X124081027Y-75246942D02*
X124128646Y-75342180D01*
X124128646Y-75342180D02*
X124176265Y-75389800D01*
X124176265Y-75389800D02*
X124271503Y-75437419D01*
X124271503Y-75437419D02*
X124461979Y-75437419D01*
X124461979Y-75437419D02*
X124557217Y-75389800D01*
X124557217Y-75389800D02*
X124604836Y-75342180D01*
X124604836Y-75342180D02*
X124652455Y-75246942D01*
X124652455Y-75246942D02*
X124652455Y-74437419D01*
X125128646Y-75437419D02*
X125128646Y-74437419D01*
X125128646Y-74437419D02*
X125461979Y-75151704D01*
X125461979Y-75151704D02*
X125795312Y-74437419D01*
X125795312Y-74437419D02*
X125795312Y-75437419D01*
X126795312Y-75437419D02*
X126223884Y-75437419D01*
X126509598Y-75437419D02*
X126509598Y-74437419D01*
X126509598Y-74437419D02*
X126414360Y-74580276D01*
X126414360Y-74580276D02*
X126319122Y-74675514D01*
X126319122Y-74675514D02*
X126223884Y-74723133D01*
X127176265Y-74532657D02*
X127223884Y-74485038D01*
X127223884Y-74485038D02*
X127319122Y-74437419D01*
X127319122Y-74437419D02*
X127557217Y-74437419D01*
X127557217Y-74437419D02*
X127652455Y-74485038D01*
X127652455Y-74485038D02*
X127700074Y-74532657D01*
X127700074Y-74532657D02*
X127747693Y-74627895D01*
X127747693Y-74627895D02*
X127747693Y-74723133D01*
X127747693Y-74723133D02*
X127700074Y-74865990D01*
X127700074Y-74865990D02*
X127128646Y-75437419D01*
X127128646Y-75437419D02*
X127747693Y-75437419D01*
X128366741Y-74437419D02*
X128461979Y-74437419D01*
X128461979Y-74437419D02*
X128557217Y-74485038D01*
X128557217Y-74485038D02*
X128604836Y-74532657D01*
X128604836Y-74532657D02*
X128652455Y-74627895D01*
X128652455Y-74627895D02*
X128700074Y-74818371D01*
X128700074Y-74818371D02*
X128700074Y-75056466D01*
X128700074Y-75056466D02*
X128652455Y-75246942D01*
X128652455Y-75246942D02*
X128604836Y-75342180D01*
X128604836Y-75342180D02*
X128557217Y-75389800D01*
X128557217Y-75389800D02*
X128461979Y-75437419D01*
X128461979Y-75437419D02*
X128366741Y-75437419D01*
X128366741Y-75437419D02*
X128271503Y-75389800D01*
X128271503Y-75389800D02*
X128223884Y-75342180D01*
X128223884Y-75342180D02*
X128176265Y-75246942D01*
X128176265Y-75246942D02*
X128128646Y-75056466D01*
X128128646Y-75056466D02*
X128128646Y-74818371D01*
X128128646Y-74818371D02*
X128176265Y-74627895D01*
X128176265Y-74627895D02*
X128223884Y-74532657D01*
X128223884Y-74532657D02*
X128271503Y-74485038D01*
X128271503Y-74485038D02*
X128366741Y-74437419D01*
X129652455Y-75437419D02*
X129081027Y-75437419D01*
X129366741Y-75437419D02*
X129366741Y-74437419D01*
X129366741Y-74437419D02*
X129271503Y-74580276D01*
X129271503Y-74580276D02*
X129176265Y-74675514D01*
X129176265Y-74675514D02*
X129081027Y-74723133D01*
D10*
X103814876Y-121154171D02*
X104529161Y-121154171D01*
X104529161Y-121154171D02*
X104672018Y-121201790D01*
X104672018Y-121201790D02*
X104767257Y-121297028D01*
X104767257Y-121297028D02*
X104814876Y-121439885D01*
X104814876Y-121439885D02*
X104814876Y-121535123D01*
X103910114Y-120725599D02*
X103862495Y-120677980D01*
X103862495Y-120677980D02*
X103814876Y-120582742D01*
X103814876Y-120582742D02*
X103814876Y-120344647D01*
X103814876Y-120344647D02*
X103862495Y-120249409D01*
X103862495Y-120249409D02*
X103910114Y-120201790D01*
X103910114Y-120201790D02*
X104005352Y-120154171D01*
X104005352Y-120154171D02*
X104100590Y-120154171D01*
X104100590Y-120154171D02*
X104243447Y-120201790D01*
X104243447Y-120201790D02*
X104814876Y-120773218D01*
X104814876Y-120773218D02*
X104814876Y-120154171D01*
X109441904Y-92901009D02*
X109108571Y-92901009D01*
X109108571Y-93424819D02*
X109108571Y-92424819D01*
X109108571Y-92424819D02*
X109584761Y-92424819D01*
X110394285Y-93424819D02*
X110394285Y-92901009D01*
X110394285Y-92901009D02*
X110346666Y-92805771D01*
X110346666Y-92805771D02*
X110251428Y-92758152D01*
X110251428Y-92758152D02*
X110060952Y-92758152D01*
X110060952Y-92758152D02*
X109965714Y-92805771D01*
X110394285Y-93377200D02*
X110299047Y-93424819D01*
X110299047Y-93424819D02*
X110060952Y-93424819D01*
X110060952Y-93424819D02*
X109965714Y-93377200D01*
X109965714Y-93377200D02*
X109918095Y-93281961D01*
X109918095Y-93281961D02*
X109918095Y-93186723D01*
X109918095Y-93186723D02*
X109965714Y-93091485D01*
X109965714Y-93091485D02*
X110060952Y-93043866D01*
X110060952Y-93043866D02*
X110299047Y-93043866D01*
X110299047Y-93043866D02*
X110394285Y-92996247D01*
X110870476Y-92758152D02*
X110870476Y-93424819D01*
X110870476Y-92853390D02*
X110918095Y-92805771D01*
X110918095Y-92805771D02*
X111013333Y-92758152D01*
X111013333Y-92758152D02*
X111156190Y-92758152D01*
X111156190Y-92758152D02*
X111251428Y-92805771D01*
X111251428Y-92805771D02*
X111299047Y-92901009D01*
X111299047Y-92901009D02*
X111299047Y-93424819D01*
X112203809Y-92758152D02*
X112203809Y-93424819D01*
X111965714Y-92377200D02*
X111727619Y-93091485D01*
X111727619Y-93091485D02*
X112346666Y-93091485D01*
X136604819Y-136338571D02*
X135604819Y-136338571D01*
X135604819Y-136338571D02*
X135604819Y-136100476D01*
X135604819Y-136100476D02*
X135652438Y-135957619D01*
X135652438Y-135957619D02*
X135747676Y-135862381D01*
X135747676Y-135862381D02*
X135842914Y-135814762D01*
X135842914Y-135814762D02*
X136033390Y-135767143D01*
X136033390Y-135767143D02*
X136176247Y-135767143D01*
X136176247Y-135767143D02*
X136366723Y-135814762D01*
X136366723Y-135814762D02*
X136461961Y-135862381D01*
X136461961Y-135862381D02*
X136557200Y-135957619D01*
X136557200Y-135957619D02*
X136604819Y-136100476D01*
X136604819Y-136100476D02*
X136604819Y-136338571D01*
X136604819Y-135338571D02*
X135938152Y-135338571D01*
X135604819Y-135338571D02*
X135652438Y-135386190D01*
X135652438Y-135386190D02*
X135700057Y-135338571D01*
X135700057Y-135338571D02*
X135652438Y-135290952D01*
X135652438Y-135290952D02*
X135604819Y-135338571D01*
X135604819Y-135338571D02*
X135700057Y-135338571D01*
X136557200Y-134910000D02*
X136604819Y-134814762D01*
X136604819Y-134814762D02*
X136604819Y-134624286D01*
X136604819Y-134624286D02*
X136557200Y-134529048D01*
X136557200Y-134529048D02*
X136461961Y-134481429D01*
X136461961Y-134481429D02*
X136414342Y-134481429D01*
X136414342Y-134481429D02*
X136319104Y-134529048D01*
X136319104Y-134529048D02*
X136271485Y-134624286D01*
X136271485Y-134624286D02*
X136271485Y-134767143D01*
X136271485Y-134767143D02*
X136223866Y-134862381D01*
X136223866Y-134862381D02*
X136128628Y-134910000D01*
X136128628Y-134910000D02*
X136081009Y-134910000D01*
X136081009Y-134910000D02*
X135985771Y-134862381D01*
X135985771Y-134862381D02*
X135938152Y-134767143D01*
X135938152Y-134767143D02*
X135938152Y-134624286D01*
X135938152Y-134624286D02*
X135985771Y-134529048D01*
X135938152Y-134052857D02*
X136938152Y-134052857D01*
X135985771Y-134052857D02*
X135938152Y-133957619D01*
X135938152Y-133957619D02*
X135938152Y-133767143D01*
X135938152Y-133767143D02*
X135985771Y-133671905D01*
X135985771Y-133671905D02*
X136033390Y-133624286D01*
X136033390Y-133624286D02*
X136128628Y-133576667D01*
X136128628Y-133576667D02*
X136414342Y-133576667D01*
X136414342Y-133576667D02*
X136509580Y-133624286D01*
X136509580Y-133624286D02*
X136557200Y-133671905D01*
X136557200Y-133671905D02*
X136604819Y-133767143D01*
X136604819Y-133767143D02*
X136604819Y-133957619D01*
X136604819Y-133957619D02*
X136557200Y-134052857D01*
X136604819Y-133005238D02*
X136557200Y-133100476D01*
X136557200Y-133100476D02*
X136461961Y-133148095D01*
X136461961Y-133148095D02*
X135604819Y-133148095D01*
X136604819Y-132195714D02*
X136081009Y-132195714D01*
X136081009Y-132195714D02*
X135985771Y-132243333D01*
X135985771Y-132243333D02*
X135938152Y-132338571D01*
X135938152Y-132338571D02*
X135938152Y-132529047D01*
X135938152Y-132529047D02*
X135985771Y-132624285D01*
X136557200Y-132195714D02*
X136604819Y-132290952D01*
X136604819Y-132290952D02*
X136604819Y-132529047D01*
X136604819Y-132529047D02*
X136557200Y-132624285D01*
X136557200Y-132624285D02*
X136461961Y-132671904D01*
X136461961Y-132671904D02*
X136366723Y-132671904D01*
X136366723Y-132671904D02*
X136271485Y-132624285D01*
X136271485Y-132624285D02*
X136223866Y-132529047D01*
X136223866Y-132529047D02*
X136223866Y-132290952D01*
X136223866Y-132290952D02*
X136176247Y-132195714D01*
X135938152Y-131814761D02*
X136604819Y-131576666D01*
X135938152Y-131338571D02*
X136604819Y-131576666D01*
X136604819Y-131576666D02*
X136842914Y-131671904D01*
X136842914Y-131671904D02*
X136890533Y-131719523D01*
X136890533Y-131719523D02*
X136938152Y-131814761D01*
X136604819Y-130433809D02*
X136604819Y-131005237D01*
X136604819Y-130719523D02*
X135604819Y-130719523D01*
X135604819Y-130719523D02*
X135747676Y-130814761D01*
X135747676Y-130814761D02*
X135842914Y-130909999D01*
X135842914Y-130909999D02*
X135890533Y-131005237D01*
X139561762Y-63667914D02*
X140371285Y-63667914D01*
X140371285Y-63667914D02*
X140466523Y-63620295D01*
X140466523Y-63620295D02*
X140514143Y-63572676D01*
X140514143Y-63572676D02*
X140561762Y-63477438D01*
X140561762Y-63477438D02*
X140561762Y-63286962D01*
X140561762Y-63286962D02*
X140514143Y-63191724D01*
X140514143Y-63191724D02*
X140466523Y-63144105D01*
X140466523Y-63144105D02*
X140371285Y-63096486D01*
X140371285Y-63096486D02*
X139561762Y-63096486D01*
X139561762Y-62715533D02*
X139561762Y-62096486D01*
X139561762Y-62096486D02*
X139942714Y-62429819D01*
X139942714Y-62429819D02*
X139942714Y-62286962D01*
X139942714Y-62286962D02*
X139990333Y-62191724D01*
X139990333Y-62191724D02*
X140037952Y-62144105D01*
X140037952Y-62144105D02*
X140133190Y-62096486D01*
X140133190Y-62096486D02*
X140371285Y-62096486D01*
X140371285Y-62096486D02*
X140466523Y-62144105D01*
X140466523Y-62144105D02*
X140514143Y-62191724D01*
X140514143Y-62191724D02*
X140561762Y-62286962D01*
X140561762Y-62286962D02*
X140561762Y-62572676D01*
X140561762Y-62572676D02*
X140514143Y-62667914D01*
X140514143Y-62667914D02*
X140466523Y-62715533D01*
X113695267Y-117441446D02*
X112695267Y-117441446D01*
X112695267Y-117441446D02*
X112695267Y-117203351D01*
X112695267Y-117203351D02*
X112742886Y-117060494D01*
X112742886Y-117060494D02*
X112838124Y-116965256D01*
X112838124Y-116965256D02*
X112933362Y-116917637D01*
X112933362Y-116917637D02*
X113123838Y-116870018D01*
X113123838Y-116870018D02*
X113266695Y-116870018D01*
X113266695Y-116870018D02*
X113457171Y-116917637D01*
X113457171Y-116917637D02*
X113552409Y-116965256D01*
X113552409Y-116965256D02*
X113647648Y-117060494D01*
X113647648Y-117060494D02*
X113695267Y-117203351D01*
X113695267Y-117203351D02*
X113695267Y-117441446D01*
X113695267Y-115917637D02*
X113695267Y-116489065D01*
X113695267Y-116203351D02*
X112695267Y-116203351D01*
X112695267Y-116203351D02*
X112838124Y-116298589D01*
X112838124Y-116298589D02*
X112933362Y-116393827D01*
X112933362Y-116393827D02*
X112980981Y-116489065D01*
X114015267Y-120775256D02*
X113015267Y-120775256D01*
X114015267Y-120203828D02*
X113443838Y-120632399D01*
X113015267Y-120203828D02*
X113586695Y-120775256D01*
D11*
X125633411Y-45077419D02*
X125633411Y-45886942D01*
X125633411Y-45886942D02*
X125681030Y-45982180D01*
X125681030Y-45982180D02*
X125728649Y-46029800D01*
X125728649Y-46029800D02*
X125823887Y-46077419D01*
X125823887Y-46077419D02*
X126014363Y-46077419D01*
X126014363Y-46077419D02*
X126109601Y-46029800D01*
X126109601Y-46029800D02*
X126157220Y-45982180D01*
X126157220Y-45982180D02*
X126204839Y-45886942D01*
X126204839Y-45886942D02*
X126204839Y-45077419D01*
X127204839Y-46077419D02*
X126633411Y-46077419D01*
X126919125Y-46077419D02*
X126919125Y-45077419D01*
X126919125Y-45077419D02*
X126823887Y-45220276D01*
X126823887Y-45220276D02*
X126728649Y-45315514D01*
X126728649Y-45315514D02*
X126633411Y-45363133D01*
X127256265Y-122279800D02*
X127399122Y-122327419D01*
X127399122Y-122327419D02*
X127637217Y-122327419D01*
X127637217Y-122327419D02*
X127732455Y-122279800D01*
X127732455Y-122279800D02*
X127780074Y-122232180D01*
X127780074Y-122232180D02*
X127827693Y-122136942D01*
X127827693Y-122136942D02*
X127827693Y-122041704D01*
X127827693Y-122041704D02*
X127780074Y-121946466D01*
X127780074Y-121946466D02*
X127732455Y-121898847D01*
X127732455Y-121898847D02*
X127637217Y-121851228D01*
X127637217Y-121851228D02*
X127446741Y-121803609D01*
X127446741Y-121803609D02*
X127351503Y-121755990D01*
X127351503Y-121755990D02*
X127303884Y-121708371D01*
X127303884Y-121708371D02*
X127256265Y-121613133D01*
X127256265Y-121613133D02*
X127256265Y-121517895D01*
X127256265Y-121517895D02*
X127303884Y-121422657D01*
X127303884Y-121422657D02*
X127351503Y-121375038D01*
X127351503Y-121375038D02*
X127446741Y-121327419D01*
X127446741Y-121327419D02*
X127684836Y-121327419D01*
X127684836Y-121327419D02*
X127827693Y-121375038D01*
X128732455Y-122327419D02*
X128256265Y-122327419D01*
X128256265Y-122327419D02*
X128256265Y-121327419D01*
X129637217Y-122232180D02*
X129589598Y-122279800D01*
X129589598Y-122279800D02*
X129446741Y-122327419D01*
X129446741Y-122327419D02*
X129351503Y-122327419D01*
X129351503Y-122327419D02*
X129208646Y-122279800D01*
X129208646Y-122279800D02*
X129113408Y-122184561D01*
X129113408Y-122184561D02*
X129065789Y-122089323D01*
X129065789Y-122089323D02*
X129018170Y-121898847D01*
X129018170Y-121898847D02*
X129018170Y-121755990D01*
X129018170Y-121755990D02*
X129065789Y-121565514D01*
X129065789Y-121565514D02*
X129113408Y-121470276D01*
X129113408Y-121470276D02*
X129208646Y-121375038D01*
X129208646Y-121375038D02*
X129351503Y-121327419D01*
X129351503Y-121327419D02*
X129446741Y-121327419D01*
X129446741Y-121327419D02*
X129589598Y-121375038D01*
X129589598Y-121375038D02*
X129637217Y-121422657D01*
X130018170Y-121422657D02*
X130065789Y-121375038D01*
X130065789Y-121375038D02*
X130161027Y-121327419D01*
X130161027Y-121327419D02*
X130399122Y-121327419D01*
X130399122Y-121327419D02*
X130494360Y-121375038D01*
X130494360Y-121375038D02*
X130541979Y-121422657D01*
X130541979Y-121422657D02*
X130589598Y-121517895D01*
X130589598Y-121517895D02*
X130589598Y-121613133D01*
X130589598Y-121613133D02*
X130541979Y-121755990D01*
X130541979Y-121755990D02*
X129970551Y-122327419D01*
X129970551Y-122327419D02*
X130589598Y-122327419D01*
X120906265Y-122279800D02*
X121049122Y-122327419D01*
X121049122Y-122327419D02*
X121287217Y-122327419D01*
X121287217Y-122327419D02*
X121382455Y-122279800D01*
X121382455Y-122279800D02*
X121430074Y-122232180D01*
X121430074Y-122232180D02*
X121477693Y-122136942D01*
X121477693Y-122136942D02*
X121477693Y-122041704D01*
X121477693Y-122041704D02*
X121430074Y-121946466D01*
X121430074Y-121946466D02*
X121382455Y-121898847D01*
X121382455Y-121898847D02*
X121287217Y-121851228D01*
X121287217Y-121851228D02*
X121096741Y-121803609D01*
X121096741Y-121803609D02*
X121001503Y-121755990D01*
X121001503Y-121755990D02*
X120953884Y-121708371D01*
X120953884Y-121708371D02*
X120906265Y-121613133D01*
X120906265Y-121613133D02*
X120906265Y-121517895D01*
X120906265Y-121517895D02*
X120953884Y-121422657D01*
X120953884Y-121422657D02*
X121001503Y-121375038D01*
X121001503Y-121375038D02*
X121096741Y-121327419D01*
X121096741Y-121327419D02*
X121334836Y-121327419D01*
X121334836Y-121327419D02*
X121477693Y-121375038D01*
X122382455Y-122327419D02*
X121906265Y-122327419D01*
X121906265Y-122327419D02*
X121906265Y-121327419D01*
X123287217Y-122232180D02*
X123239598Y-122279800D01*
X123239598Y-122279800D02*
X123096741Y-122327419D01*
X123096741Y-122327419D02*
X123001503Y-122327419D01*
X123001503Y-122327419D02*
X122858646Y-122279800D01*
X122858646Y-122279800D02*
X122763408Y-122184561D01*
X122763408Y-122184561D02*
X122715789Y-122089323D01*
X122715789Y-122089323D02*
X122668170Y-121898847D01*
X122668170Y-121898847D02*
X122668170Y-121755990D01*
X122668170Y-121755990D02*
X122715789Y-121565514D01*
X122715789Y-121565514D02*
X122763408Y-121470276D01*
X122763408Y-121470276D02*
X122858646Y-121375038D01*
X122858646Y-121375038D02*
X123001503Y-121327419D01*
X123001503Y-121327419D02*
X123096741Y-121327419D01*
X123096741Y-121327419D02*
X123239598Y-121375038D01*
X123239598Y-121375038D02*
X123287217Y-121422657D01*
X124239598Y-122327419D02*
X123668170Y-122327419D01*
X123953884Y-122327419D02*
X123953884Y-121327419D01*
X123953884Y-121327419D02*
X123858646Y-121470276D01*
X123858646Y-121470276D02*
X123763408Y-121565514D01*
X123763408Y-121565514D02*
X123668170Y-121613133D01*
X127256265Y-119739800D02*
X127399122Y-119787419D01*
X127399122Y-119787419D02*
X127637217Y-119787419D01*
X127637217Y-119787419D02*
X127732455Y-119739800D01*
X127732455Y-119739800D02*
X127780074Y-119692180D01*
X127780074Y-119692180D02*
X127827693Y-119596942D01*
X127827693Y-119596942D02*
X127827693Y-119501704D01*
X127827693Y-119501704D02*
X127780074Y-119406466D01*
X127780074Y-119406466D02*
X127732455Y-119358847D01*
X127732455Y-119358847D02*
X127637217Y-119311228D01*
X127637217Y-119311228D02*
X127446741Y-119263609D01*
X127446741Y-119263609D02*
X127351503Y-119215990D01*
X127351503Y-119215990D02*
X127303884Y-119168371D01*
X127303884Y-119168371D02*
X127256265Y-119073133D01*
X127256265Y-119073133D02*
X127256265Y-118977895D01*
X127256265Y-118977895D02*
X127303884Y-118882657D01*
X127303884Y-118882657D02*
X127351503Y-118835038D01*
X127351503Y-118835038D02*
X127446741Y-118787419D01*
X127446741Y-118787419D02*
X127684836Y-118787419D01*
X127684836Y-118787419D02*
X127827693Y-118835038D01*
X128256265Y-119787419D02*
X128256265Y-118787419D01*
X128256265Y-118787419D02*
X128494360Y-118787419D01*
X128494360Y-118787419D02*
X128637217Y-118835038D01*
X128637217Y-118835038D02*
X128732455Y-118930276D01*
X128732455Y-118930276D02*
X128780074Y-119025514D01*
X128780074Y-119025514D02*
X128827693Y-119215990D01*
X128827693Y-119215990D02*
X128827693Y-119358847D01*
X128827693Y-119358847D02*
X128780074Y-119549323D01*
X128780074Y-119549323D02*
X128732455Y-119644561D01*
X128732455Y-119644561D02*
X128637217Y-119739800D01*
X128637217Y-119739800D02*
X128494360Y-119787419D01*
X128494360Y-119787419D02*
X128256265Y-119787419D01*
X129208646Y-119501704D02*
X129684836Y-119501704D01*
X129113408Y-119787419D02*
X129446741Y-118787419D01*
X129446741Y-118787419D02*
X129780074Y-119787419D01*
X130065789Y-118882657D02*
X130113408Y-118835038D01*
X130113408Y-118835038D02*
X130208646Y-118787419D01*
X130208646Y-118787419D02*
X130446741Y-118787419D01*
X130446741Y-118787419D02*
X130541979Y-118835038D01*
X130541979Y-118835038D02*
X130589598Y-118882657D01*
X130589598Y-118882657D02*
X130637217Y-118977895D01*
X130637217Y-118977895D02*
X130637217Y-119073133D01*
X130637217Y-119073133D02*
X130589598Y-119215990D01*
X130589598Y-119215990D02*
X130018170Y-119787419D01*
X130018170Y-119787419D02*
X130637217Y-119787419D01*
X122858884Y-142112419D02*
X122858884Y-141112419D01*
X123287455Y-142064800D02*
X123430312Y-142112419D01*
X123430312Y-142112419D02*
X123668407Y-142112419D01*
X123668407Y-142112419D02*
X123763645Y-142064800D01*
X123763645Y-142064800D02*
X123811264Y-142017180D01*
X123811264Y-142017180D02*
X123858883Y-141921942D01*
X123858883Y-141921942D02*
X123858883Y-141826704D01*
X123858883Y-141826704D02*
X123811264Y-141731466D01*
X123811264Y-141731466D02*
X123763645Y-141683847D01*
X123763645Y-141683847D02*
X123668407Y-141636228D01*
X123668407Y-141636228D02*
X123477931Y-141588609D01*
X123477931Y-141588609D02*
X123382693Y-141540990D01*
X123382693Y-141540990D02*
X123335074Y-141493371D01*
X123335074Y-141493371D02*
X123287455Y-141398133D01*
X123287455Y-141398133D02*
X123287455Y-141302895D01*
X123287455Y-141302895D02*
X123335074Y-141207657D01*
X123335074Y-141207657D02*
X123382693Y-141160038D01*
X123382693Y-141160038D02*
X123477931Y-141112419D01*
X123477931Y-141112419D02*
X123716026Y-141112419D01*
X123716026Y-141112419D02*
X123858883Y-141160038D01*
X124477931Y-141112419D02*
X124668407Y-141112419D01*
X124668407Y-141112419D02*
X124763645Y-141160038D01*
X124763645Y-141160038D02*
X124858883Y-141255276D01*
X124858883Y-141255276D02*
X124906502Y-141445752D01*
X124906502Y-141445752D02*
X124906502Y-141779085D01*
X124906502Y-141779085D02*
X124858883Y-141969561D01*
X124858883Y-141969561D02*
X124763645Y-142064800D01*
X124763645Y-142064800D02*
X124668407Y-142112419D01*
X124668407Y-142112419D02*
X124477931Y-142112419D01*
X124477931Y-142112419D02*
X124382693Y-142064800D01*
X124382693Y-142064800D02*
X124287455Y-141969561D01*
X124287455Y-141969561D02*
X124239836Y-141779085D01*
X124239836Y-141779085D02*
X124239836Y-141445752D01*
X124239836Y-141445752D02*
X124287455Y-141255276D01*
X124287455Y-141255276D02*
X124382693Y-141160038D01*
X124382693Y-141160038D02*
X124477931Y-141112419D01*
X125858883Y-142112419D02*
X125287455Y-142112419D01*
X125573169Y-142112419D02*
X125573169Y-141112419D01*
X125573169Y-141112419D02*
X125477931Y-141255276D01*
X125477931Y-141255276D02*
X125382693Y-141350514D01*
X125382693Y-141350514D02*
X125287455Y-141398133D01*
X126763645Y-141112419D02*
X126287455Y-141112419D01*
X126287455Y-141112419D02*
X126239836Y-141588609D01*
X126239836Y-141588609D02*
X126287455Y-141540990D01*
X126287455Y-141540990D02*
X126382693Y-141493371D01*
X126382693Y-141493371D02*
X126620788Y-141493371D01*
X126620788Y-141493371D02*
X126716026Y-141540990D01*
X126716026Y-141540990D02*
X126763645Y-141588609D01*
X126763645Y-141588609D02*
X126811264Y-141683847D01*
X126811264Y-141683847D02*
X126811264Y-141921942D01*
X126811264Y-141921942D02*
X126763645Y-142017180D01*
X126763645Y-142017180D02*
X126716026Y-142064800D01*
X126716026Y-142064800D02*
X126620788Y-142112419D01*
X126620788Y-142112419D02*
X126382693Y-142112419D01*
X126382693Y-142112419D02*
X126287455Y-142064800D01*
X126287455Y-142064800D02*
X126239836Y-142017180D01*
X127668407Y-141445752D02*
X127668407Y-142112419D01*
X127430312Y-141064800D02*
X127192217Y-141779085D01*
X127192217Y-141779085D02*
X127811264Y-141779085D01*
X128382693Y-141112419D02*
X128477931Y-141112419D01*
X128477931Y-141112419D02*
X128573169Y-141160038D01*
X128573169Y-141160038D02*
X128620788Y-141207657D01*
X128620788Y-141207657D02*
X128668407Y-141302895D01*
X128668407Y-141302895D02*
X128716026Y-141493371D01*
X128716026Y-141493371D02*
X128716026Y-141731466D01*
X128716026Y-141731466D02*
X128668407Y-141921942D01*
X128668407Y-141921942D02*
X128620788Y-142017180D01*
X128620788Y-142017180D02*
X128573169Y-142064800D01*
X128573169Y-142064800D02*
X128477931Y-142112419D01*
X128477931Y-142112419D02*
X128382693Y-142112419D01*
X128382693Y-142112419D02*
X128287455Y-142064800D01*
X128287455Y-142064800D02*
X128239836Y-142017180D01*
X128239836Y-142017180D02*
X128192217Y-141921942D01*
X128192217Y-141921942D02*
X128144598Y-141731466D01*
X128144598Y-141731466D02*
X128144598Y-141493371D01*
X128144598Y-141493371D02*
X128192217Y-141302895D01*
X128192217Y-141302895D02*
X128239836Y-141207657D01*
X128239836Y-141207657D02*
X128287455Y-141160038D01*
X128287455Y-141160038D02*
X128382693Y-141112419D01*
X127827693Y-116295038D02*
X127732455Y-116247419D01*
X127732455Y-116247419D02*
X127589598Y-116247419D01*
X127589598Y-116247419D02*
X127446741Y-116295038D01*
X127446741Y-116295038D02*
X127351503Y-116390276D01*
X127351503Y-116390276D02*
X127303884Y-116485514D01*
X127303884Y-116485514D02*
X127256265Y-116675990D01*
X127256265Y-116675990D02*
X127256265Y-116818847D01*
X127256265Y-116818847D02*
X127303884Y-117009323D01*
X127303884Y-117009323D02*
X127351503Y-117104561D01*
X127351503Y-117104561D02*
X127446741Y-117199800D01*
X127446741Y-117199800D02*
X127589598Y-117247419D01*
X127589598Y-117247419D02*
X127684836Y-117247419D01*
X127684836Y-117247419D02*
X127827693Y-117199800D01*
X127827693Y-117199800D02*
X127875312Y-117152180D01*
X127875312Y-117152180D02*
X127875312Y-116818847D01*
X127875312Y-116818847D02*
X127684836Y-116818847D01*
X128303884Y-117247419D02*
X128303884Y-116247419D01*
X128303884Y-116247419D02*
X128875312Y-117247419D01*
X128875312Y-117247419D02*
X128875312Y-116247419D01*
X129351503Y-117247419D02*
X129351503Y-116247419D01*
X129351503Y-116247419D02*
X129589598Y-116247419D01*
X129589598Y-116247419D02*
X129732455Y-116295038D01*
X129732455Y-116295038D02*
X129827693Y-116390276D01*
X129827693Y-116390276D02*
X129875312Y-116485514D01*
X129875312Y-116485514D02*
X129922931Y-116675990D01*
X129922931Y-116675990D02*
X129922931Y-116818847D01*
X129922931Y-116818847D02*
X129875312Y-117009323D01*
X129875312Y-117009323D02*
X129827693Y-117104561D01*
X129827693Y-117104561D02*
X129732455Y-117199800D01*
X129732455Y-117199800D02*
X129589598Y-117247419D01*
X129589598Y-117247419D02*
X129351503Y-117247419D01*
X130303884Y-116342657D02*
X130351503Y-116295038D01*
X130351503Y-116295038D02*
X130446741Y-116247419D01*
X130446741Y-116247419D02*
X130684836Y-116247419D01*
X130684836Y-116247419D02*
X130780074Y-116295038D01*
X130780074Y-116295038D02*
X130827693Y-116342657D01*
X130827693Y-116342657D02*
X130875312Y-116437895D01*
X130875312Y-116437895D02*
X130875312Y-116533133D01*
X130875312Y-116533133D02*
X130827693Y-116675990D01*
X130827693Y-116675990D02*
X130256265Y-117247419D01*
X130256265Y-117247419D02*
X130875312Y-117247419D01*
X120811027Y-123867419D02*
X121144360Y-124867419D01*
X121144360Y-124867419D02*
X121477693Y-123867419D01*
X122382455Y-124772180D02*
X122334836Y-124819800D01*
X122334836Y-124819800D02*
X122191979Y-124867419D01*
X122191979Y-124867419D02*
X122096741Y-124867419D01*
X122096741Y-124867419D02*
X121953884Y-124819800D01*
X121953884Y-124819800D02*
X121858646Y-124724561D01*
X121858646Y-124724561D02*
X121811027Y-124629323D01*
X121811027Y-124629323D02*
X121763408Y-124438847D01*
X121763408Y-124438847D02*
X121763408Y-124295990D01*
X121763408Y-124295990D02*
X121811027Y-124105514D01*
X121811027Y-124105514D02*
X121858646Y-124010276D01*
X121858646Y-124010276D02*
X121953884Y-123915038D01*
X121953884Y-123915038D02*
X122096741Y-123867419D01*
X122096741Y-123867419D02*
X122191979Y-123867419D01*
X122191979Y-123867419D02*
X122334836Y-123915038D01*
X122334836Y-123915038D02*
X122382455Y-123962657D01*
X123382455Y-124772180D02*
X123334836Y-124819800D01*
X123334836Y-124819800D02*
X123191979Y-124867419D01*
X123191979Y-124867419D02*
X123096741Y-124867419D01*
X123096741Y-124867419D02*
X122953884Y-124819800D01*
X122953884Y-124819800D02*
X122858646Y-124724561D01*
X122858646Y-124724561D02*
X122811027Y-124629323D01*
X122811027Y-124629323D02*
X122763408Y-124438847D01*
X122763408Y-124438847D02*
X122763408Y-124295990D01*
X122763408Y-124295990D02*
X122811027Y-124105514D01*
X122811027Y-124105514D02*
X122858646Y-124010276D01*
X122858646Y-124010276D02*
X122953884Y-123915038D01*
X122953884Y-123915038D02*
X123096741Y-123867419D01*
X123096741Y-123867419D02*
X123191979Y-123867419D01*
X123191979Y-123867419D02*
X123334836Y-123915038D01*
X123334836Y-123915038D02*
X123382455Y-123962657D01*
X124334836Y-124867419D02*
X123763408Y-124867419D01*
X124049122Y-124867419D02*
X124049122Y-123867419D01*
X124049122Y-123867419D02*
X123953884Y-124010276D01*
X123953884Y-124010276D02*
X123858646Y-124105514D01*
X123858646Y-124105514D02*
X123763408Y-124153133D01*
X127161027Y-123867419D02*
X127494360Y-124867419D01*
X127494360Y-124867419D02*
X127827693Y-123867419D01*
X128732455Y-124772180D02*
X128684836Y-124819800D01*
X128684836Y-124819800D02*
X128541979Y-124867419D01*
X128541979Y-124867419D02*
X128446741Y-124867419D01*
X128446741Y-124867419D02*
X128303884Y-124819800D01*
X128303884Y-124819800D02*
X128208646Y-124724561D01*
X128208646Y-124724561D02*
X128161027Y-124629323D01*
X128161027Y-124629323D02*
X128113408Y-124438847D01*
X128113408Y-124438847D02*
X128113408Y-124295990D01*
X128113408Y-124295990D02*
X128161027Y-124105514D01*
X128161027Y-124105514D02*
X128208646Y-124010276D01*
X128208646Y-124010276D02*
X128303884Y-123915038D01*
X128303884Y-123915038D02*
X128446741Y-123867419D01*
X128446741Y-123867419D02*
X128541979Y-123867419D01*
X128541979Y-123867419D02*
X128684836Y-123915038D01*
X128684836Y-123915038D02*
X128732455Y-123962657D01*
X129732455Y-124772180D02*
X129684836Y-124819800D01*
X129684836Y-124819800D02*
X129541979Y-124867419D01*
X129541979Y-124867419D02*
X129446741Y-124867419D01*
X129446741Y-124867419D02*
X129303884Y-124819800D01*
X129303884Y-124819800D02*
X129208646Y-124724561D01*
X129208646Y-124724561D02*
X129161027Y-124629323D01*
X129161027Y-124629323D02*
X129113408Y-124438847D01*
X129113408Y-124438847D02*
X129113408Y-124295990D01*
X129113408Y-124295990D02*
X129161027Y-124105514D01*
X129161027Y-124105514D02*
X129208646Y-124010276D01*
X129208646Y-124010276D02*
X129303884Y-123915038D01*
X129303884Y-123915038D02*
X129446741Y-123867419D01*
X129446741Y-123867419D02*
X129541979Y-123867419D01*
X129541979Y-123867419D02*
X129684836Y-123915038D01*
X129684836Y-123915038D02*
X129732455Y-123962657D01*
X130113408Y-123962657D02*
X130161027Y-123915038D01*
X130161027Y-123915038D02*
X130256265Y-123867419D01*
X130256265Y-123867419D02*
X130494360Y-123867419D01*
X130494360Y-123867419D02*
X130589598Y-123915038D01*
X130589598Y-123915038D02*
X130637217Y-123962657D01*
X130637217Y-123962657D02*
X130684836Y-124057895D01*
X130684836Y-124057895D02*
X130684836Y-124153133D01*
X130684836Y-124153133D02*
X130637217Y-124295990D01*
X130637217Y-124295990D02*
X130065789Y-124867419D01*
X130065789Y-124867419D02*
X130684836Y-124867419D01*
X121477693Y-116295038D02*
X121382455Y-116247419D01*
X121382455Y-116247419D02*
X121239598Y-116247419D01*
X121239598Y-116247419D02*
X121096741Y-116295038D01*
X121096741Y-116295038D02*
X121001503Y-116390276D01*
X121001503Y-116390276D02*
X120953884Y-116485514D01*
X120953884Y-116485514D02*
X120906265Y-116675990D01*
X120906265Y-116675990D02*
X120906265Y-116818847D01*
X120906265Y-116818847D02*
X120953884Y-117009323D01*
X120953884Y-117009323D02*
X121001503Y-117104561D01*
X121001503Y-117104561D02*
X121096741Y-117199800D01*
X121096741Y-117199800D02*
X121239598Y-117247419D01*
X121239598Y-117247419D02*
X121334836Y-117247419D01*
X121334836Y-117247419D02*
X121477693Y-117199800D01*
X121477693Y-117199800D02*
X121525312Y-117152180D01*
X121525312Y-117152180D02*
X121525312Y-116818847D01*
X121525312Y-116818847D02*
X121334836Y-116818847D01*
X121953884Y-117247419D02*
X121953884Y-116247419D01*
X121953884Y-116247419D02*
X122525312Y-117247419D01*
X122525312Y-117247419D02*
X122525312Y-116247419D01*
X123001503Y-117247419D02*
X123001503Y-116247419D01*
X123001503Y-116247419D02*
X123239598Y-116247419D01*
X123239598Y-116247419D02*
X123382455Y-116295038D01*
X123382455Y-116295038D02*
X123477693Y-116390276D01*
X123477693Y-116390276D02*
X123525312Y-116485514D01*
X123525312Y-116485514D02*
X123572931Y-116675990D01*
X123572931Y-116675990D02*
X123572931Y-116818847D01*
X123572931Y-116818847D02*
X123525312Y-117009323D01*
X123525312Y-117009323D02*
X123477693Y-117104561D01*
X123477693Y-117104561D02*
X123382455Y-117199800D01*
X123382455Y-117199800D02*
X123239598Y-117247419D01*
X123239598Y-117247419D02*
X123001503Y-117247419D01*
X124525312Y-117247419D02*
X123953884Y-117247419D01*
X124239598Y-117247419D02*
X124239598Y-116247419D01*
X124239598Y-116247419D02*
X124144360Y-116390276D01*
X124144360Y-116390276D02*
X124049122Y-116485514D01*
X124049122Y-116485514D02*
X123953884Y-116533133D01*
X120906265Y-119739800D02*
X121049122Y-119787419D01*
X121049122Y-119787419D02*
X121287217Y-119787419D01*
X121287217Y-119787419D02*
X121382455Y-119739800D01*
X121382455Y-119739800D02*
X121430074Y-119692180D01*
X121430074Y-119692180D02*
X121477693Y-119596942D01*
X121477693Y-119596942D02*
X121477693Y-119501704D01*
X121477693Y-119501704D02*
X121430074Y-119406466D01*
X121430074Y-119406466D02*
X121382455Y-119358847D01*
X121382455Y-119358847D02*
X121287217Y-119311228D01*
X121287217Y-119311228D02*
X121096741Y-119263609D01*
X121096741Y-119263609D02*
X121001503Y-119215990D01*
X121001503Y-119215990D02*
X120953884Y-119168371D01*
X120953884Y-119168371D02*
X120906265Y-119073133D01*
X120906265Y-119073133D02*
X120906265Y-118977895D01*
X120906265Y-118977895D02*
X120953884Y-118882657D01*
X120953884Y-118882657D02*
X121001503Y-118835038D01*
X121001503Y-118835038D02*
X121096741Y-118787419D01*
X121096741Y-118787419D02*
X121334836Y-118787419D01*
X121334836Y-118787419D02*
X121477693Y-118835038D01*
X121906265Y-119787419D02*
X121906265Y-118787419D01*
X121906265Y-118787419D02*
X122144360Y-118787419D01*
X122144360Y-118787419D02*
X122287217Y-118835038D01*
X122287217Y-118835038D02*
X122382455Y-118930276D01*
X122382455Y-118930276D02*
X122430074Y-119025514D01*
X122430074Y-119025514D02*
X122477693Y-119215990D01*
X122477693Y-119215990D02*
X122477693Y-119358847D01*
X122477693Y-119358847D02*
X122430074Y-119549323D01*
X122430074Y-119549323D02*
X122382455Y-119644561D01*
X122382455Y-119644561D02*
X122287217Y-119739800D01*
X122287217Y-119739800D02*
X122144360Y-119787419D01*
X122144360Y-119787419D02*
X121906265Y-119787419D01*
X122858646Y-119501704D02*
X123334836Y-119501704D01*
X122763408Y-119787419D02*
X123096741Y-118787419D01*
X123096741Y-118787419D02*
X123430074Y-119787419D01*
X124287217Y-119787419D02*
X123715789Y-119787419D01*
X124001503Y-119787419D02*
X124001503Y-118787419D01*
X124001503Y-118787419D02*
X123906265Y-118930276D01*
X123906265Y-118930276D02*
X123811027Y-119025514D01*
X123811027Y-119025514D02*
X123715789Y-119073133D01*
X120811027Y-95827419D02*
X121144360Y-96827419D01*
X121144360Y-96827419D02*
X121477693Y-95827419D01*
X122382455Y-96732180D02*
X122334836Y-96779800D01*
X122334836Y-96779800D02*
X122191979Y-96827419D01*
X122191979Y-96827419D02*
X122096741Y-96827419D01*
X122096741Y-96827419D02*
X121953884Y-96779800D01*
X121953884Y-96779800D02*
X121858646Y-96684561D01*
X121858646Y-96684561D02*
X121811027Y-96589323D01*
X121811027Y-96589323D02*
X121763408Y-96398847D01*
X121763408Y-96398847D02*
X121763408Y-96255990D01*
X121763408Y-96255990D02*
X121811027Y-96065514D01*
X121811027Y-96065514D02*
X121858646Y-95970276D01*
X121858646Y-95970276D02*
X121953884Y-95875038D01*
X121953884Y-95875038D02*
X122096741Y-95827419D01*
X122096741Y-95827419D02*
X122191979Y-95827419D01*
X122191979Y-95827419D02*
X122334836Y-95875038D01*
X122334836Y-95875038D02*
X122382455Y-95922657D01*
X123382455Y-96732180D02*
X123334836Y-96779800D01*
X123334836Y-96779800D02*
X123191979Y-96827419D01*
X123191979Y-96827419D02*
X123096741Y-96827419D01*
X123096741Y-96827419D02*
X122953884Y-96779800D01*
X122953884Y-96779800D02*
X122858646Y-96684561D01*
X122858646Y-96684561D02*
X122811027Y-96589323D01*
X122811027Y-96589323D02*
X122763408Y-96398847D01*
X122763408Y-96398847D02*
X122763408Y-96255990D01*
X122763408Y-96255990D02*
X122811027Y-96065514D01*
X122811027Y-96065514D02*
X122858646Y-95970276D01*
X122858646Y-95970276D02*
X122953884Y-95875038D01*
X122953884Y-95875038D02*
X123096741Y-95827419D01*
X123096741Y-95827419D02*
X123191979Y-95827419D01*
X123191979Y-95827419D02*
X123334836Y-95875038D01*
X123334836Y-95875038D02*
X123382455Y-95922657D01*
X124334836Y-96827419D02*
X123763408Y-96827419D01*
X124049122Y-96827419D02*
X124049122Y-95827419D01*
X124049122Y-95827419D02*
X123953884Y-95970276D01*
X123953884Y-95970276D02*
X123858646Y-96065514D01*
X123858646Y-96065514D02*
X123763408Y-96113133D01*
X120906265Y-99081704D02*
X121382455Y-99081704D01*
X120811027Y-99367419D02*
X121144360Y-98367419D01*
X121144360Y-98367419D02*
X121477693Y-99367419D01*
X122001503Y-98367419D02*
X122191979Y-98367419D01*
X122191979Y-98367419D02*
X122287217Y-98415038D01*
X122287217Y-98415038D02*
X122382455Y-98510276D01*
X122382455Y-98510276D02*
X122430074Y-98700752D01*
X122430074Y-98700752D02*
X122430074Y-99034085D01*
X122430074Y-99034085D02*
X122382455Y-99224561D01*
X122382455Y-99224561D02*
X122287217Y-99319800D01*
X122287217Y-99319800D02*
X122191979Y-99367419D01*
X122191979Y-99367419D02*
X122001503Y-99367419D01*
X122001503Y-99367419D02*
X121906265Y-99319800D01*
X121906265Y-99319800D02*
X121811027Y-99224561D01*
X121811027Y-99224561D02*
X121763408Y-99034085D01*
X121763408Y-99034085D02*
X121763408Y-98700752D01*
X121763408Y-98700752D02*
X121811027Y-98510276D01*
X121811027Y-98510276D02*
X121906265Y-98415038D01*
X121906265Y-98415038D02*
X122001503Y-98367419D01*
X127637217Y-101383609D02*
X127780074Y-101431228D01*
X127780074Y-101431228D02*
X127827693Y-101478847D01*
X127827693Y-101478847D02*
X127875312Y-101574085D01*
X127875312Y-101574085D02*
X127875312Y-101716942D01*
X127875312Y-101716942D02*
X127827693Y-101812180D01*
X127827693Y-101812180D02*
X127780074Y-101859800D01*
X127780074Y-101859800D02*
X127684836Y-101907419D01*
X127684836Y-101907419D02*
X127303884Y-101907419D01*
X127303884Y-101907419D02*
X127303884Y-100907419D01*
X127303884Y-100907419D02*
X127637217Y-100907419D01*
X127637217Y-100907419D02*
X127732455Y-100955038D01*
X127732455Y-100955038D02*
X127780074Y-101002657D01*
X127780074Y-101002657D02*
X127827693Y-101097895D01*
X127827693Y-101097895D02*
X127827693Y-101193133D01*
X127827693Y-101193133D02*
X127780074Y-101288371D01*
X127780074Y-101288371D02*
X127732455Y-101335990D01*
X127732455Y-101335990D02*
X127637217Y-101383609D01*
X127637217Y-101383609D02*
X127303884Y-101383609D01*
X128494360Y-100907419D02*
X128684836Y-100907419D01*
X128684836Y-100907419D02*
X128780074Y-100955038D01*
X128780074Y-100955038D02*
X128875312Y-101050276D01*
X128875312Y-101050276D02*
X128922931Y-101240752D01*
X128922931Y-101240752D02*
X128922931Y-101574085D01*
X128922931Y-101574085D02*
X128875312Y-101764561D01*
X128875312Y-101764561D02*
X128780074Y-101859800D01*
X128780074Y-101859800D02*
X128684836Y-101907419D01*
X128684836Y-101907419D02*
X128494360Y-101907419D01*
X128494360Y-101907419D02*
X128399122Y-101859800D01*
X128399122Y-101859800D02*
X128303884Y-101764561D01*
X128303884Y-101764561D02*
X128256265Y-101574085D01*
X128256265Y-101574085D02*
X128256265Y-101240752D01*
X128256265Y-101240752D02*
X128303884Y-101050276D01*
X128303884Y-101050276D02*
X128399122Y-100955038D01*
X128399122Y-100955038D02*
X128494360Y-100907419D01*
X127161027Y-95827419D02*
X127494360Y-96827419D01*
X127494360Y-96827419D02*
X127827693Y-95827419D01*
X128732455Y-96732180D02*
X128684836Y-96779800D01*
X128684836Y-96779800D02*
X128541979Y-96827419D01*
X128541979Y-96827419D02*
X128446741Y-96827419D01*
X128446741Y-96827419D02*
X128303884Y-96779800D01*
X128303884Y-96779800D02*
X128208646Y-96684561D01*
X128208646Y-96684561D02*
X128161027Y-96589323D01*
X128161027Y-96589323D02*
X128113408Y-96398847D01*
X128113408Y-96398847D02*
X128113408Y-96255990D01*
X128113408Y-96255990D02*
X128161027Y-96065514D01*
X128161027Y-96065514D02*
X128208646Y-95970276D01*
X128208646Y-95970276D02*
X128303884Y-95875038D01*
X128303884Y-95875038D02*
X128446741Y-95827419D01*
X128446741Y-95827419D02*
X128541979Y-95827419D01*
X128541979Y-95827419D02*
X128684836Y-95875038D01*
X128684836Y-95875038D02*
X128732455Y-95922657D01*
X129732455Y-96732180D02*
X129684836Y-96779800D01*
X129684836Y-96779800D02*
X129541979Y-96827419D01*
X129541979Y-96827419D02*
X129446741Y-96827419D01*
X129446741Y-96827419D02*
X129303884Y-96779800D01*
X129303884Y-96779800D02*
X129208646Y-96684561D01*
X129208646Y-96684561D02*
X129161027Y-96589323D01*
X129161027Y-96589323D02*
X129113408Y-96398847D01*
X129113408Y-96398847D02*
X129113408Y-96255990D01*
X129113408Y-96255990D02*
X129161027Y-96065514D01*
X129161027Y-96065514D02*
X129208646Y-95970276D01*
X129208646Y-95970276D02*
X129303884Y-95875038D01*
X129303884Y-95875038D02*
X129446741Y-95827419D01*
X129446741Y-95827419D02*
X129541979Y-95827419D01*
X129541979Y-95827419D02*
X129684836Y-95875038D01*
X129684836Y-95875038D02*
X129732455Y-95922657D01*
X130113408Y-95922657D02*
X130161027Y-95875038D01*
X130161027Y-95875038D02*
X130256265Y-95827419D01*
X130256265Y-95827419D02*
X130494360Y-95827419D01*
X130494360Y-95827419D02*
X130589598Y-95875038D01*
X130589598Y-95875038D02*
X130637217Y-95922657D01*
X130637217Y-95922657D02*
X130684836Y-96017895D01*
X130684836Y-96017895D02*
X130684836Y-96113133D01*
X130684836Y-96113133D02*
X130637217Y-96255990D01*
X130637217Y-96255990D02*
X130065789Y-96827419D01*
X130065789Y-96827419D02*
X130684836Y-96827419D01*
X121477693Y-103495038D02*
X121382455Y-103447419D01*
X121382455Y-103447419D02*
X121239598Y-103447419D01*
X121239598Y-103447419D02*
X121096741Y-103495038D01*
X121096741Y-103495038D02*
X121001503Y-103590276D01*
X121001503Y-103590276D02*
X120953884Y-103685514D01*
X120953884Y-103685514D02*
X120906265Y-103875990D01*
X120906265Y-103875990D02*
X120906265Y-104018847D01*
X120906265Y-104018847D02*
X120953884Y-104209323D01*
X120953884Y-104209323D02*
X121001503Y-104304561D01*
X121001503Y-104304561D02*
X121096741Y-104399800D01*
X121096741Y-104399800D02*
X121239598Y-104447419D01*
X121239598Y-104447419D02*
X121334836Y-104447419D01*
X121334836Y-104447419D02*
X121477693Y-104399800D01*
X121477693Y-104399800D02*
X121525312Y-104352180D01*
X121525312Y-104352180D02*
X121525312Y-104018847D01*
X121525312Y-104018847D02*
X121334836Y-104018847D01*
X121953884Y-104447419D02*
X121953884Y-103447419D01*
X121953884Y-103447419D02*
X122525312Y-104447419D01*
X122525312Y-104447419D02*
X122525312Y-103447419D01*
X123001503Y-104447419D02*
X123001503Y-103447419D01*
X123001503Y-103447419D02*
X123239598Y-103447419D01*
X123239598Y-103447419D02*
X123382455Y-103495038D01*
X123382455Y-103495038D02*
X123477693Y-103590276D01*
X123477693Y-103590276D02*
X123525312Y-103685514D01*
X123525312Y-103685514D02*
X123572931Y-103875990D01*
X123572931Y-103875990D02*
X123572931Y-104018847D01*
X123572931Y-104018847D02*
X123525312Y-104209323D01*
X123525312Y-104209323D02*
X123477693Y-104304561D01*
X123477693Y-104304561D02*
X123382455Y-104399800D01*
X123382455Y-104399800D02*
X123239598Y-104447419D01*
X123239598Y-104447419D02*
X123001503Y-104447419D01*
X124525312Y-104447419D02*
X123953884Y-104447419D01*
X124239598Y-104447419D02*
X124239598Y-103447419D01*
X124239598Y-103447419D02*
X124144360Y-103590276D01*
X124144360Y-103590276D02*
X124049122Y-103685514D01*
X124049122Y-103685514D02*
X123953884Y-103733133D01*
X121287217Y-101383609D02*
X121430074Y-101431228D01*
X121430074Y-101431228D02*
X121477693Y-101478847D01*
X121477693Y-101478847D02*
X121525312Y-101574085D01*
X121525312Y-101574085D02*
X121525312Y-101716942D01*
X121525312Y-101716942D02*
X121477693Y-101812180D01*
X121477693Y-101812180D02*
X121430074Y-101859800D01*
X121430074Y-101859800D02*
X121334836Y-101907419D01*
X121334836Y-101907419D02*
X120953884Y-101907419D01*
X120953884Y-101907419D02*
X120953884Y-100907419D01*
X120953884Y-100907419D02*
X121287217Y-100907419D01*
X121287217Y-100907419D02*
X121382455Y-100955038D01*
X121382455Y-100955038D02*
X121430074Y-101002657D01*
X121430074Y-101002657D02*
X121477693Y-101097895D01*
X121477693Y-101097895D02*
X121477693Y-101193133D01*
X121477693Y-101193133D02*
X121430074Y-101288371D01*
X121430074Y-101288371D02*
X121382455Y-101335990D01*
X121382455Y-101335990D02*
X121287217Y-101383609D01*
X121287217Y-101383609D02*
X120953884Y-101383609D01*
X121953884Y-101907419D02*
X121953884Y-100907419D01*
X122176265Y-100351704D02*
X122652455Y-100351704D01*
X122081027Y-100637419D02*
X122414360Y-99637419D01*
X122414360Y-99637419D02*
X122747693Y-100637419D01*
X123081027Y-100637419D02*
X123081027Y-99637419D01*
X123081027Y-99637419D02*
X123319122Y-99637419D01*
X123319122Y-99637419D02*
X123461979Y-99685038D01*
X123461979Y-99685038D02*
X123557217Y-99780276D01*
X123557217Y-99780276D02*
X123604836Y-99875514D01*
X123604836Y-99875514D02*
X123652455Y-100065990D01*
X123652455Y-100065990D02*
X123652455Y-100208847D01*
X123652455Y-100208847D02*
X123604836Y-100399323D01*
X123604836Y-100399323D02*
X123557217Y-100494561D01*
X123557217Y-100494561D02*
X123461979Y-100589800D01*
X123461979Y-100589800D02*
X123319122Y-100637419D01*
X123319122Y-100637419D02*
X123081027Y-100637419D01*
X124081027Y-99637419D02*
X124081027Y-100446942D01*
X124081027Y-100446942D02*
X124128646Y-100542180D01*
X124128646Y-100542180D02*
X124176265Y-100589800D01*
X124176265Y-100589800D02*
X124271503Y-100637419D01*
X124271503Y-100637419D02*
X124461979Y-100637419D01*
X124461979Y-100637419D02*
X124557217Y-100589800D01*
X124557217Y-100589800D02*
X124604836Y-100542180D01*
X124604836Y-100542180D02*
X124652455Y-100446942D01*
X124652455Y-100446942D02*
X124652455Y-99637419D01*
X125128646Y-100637419D02*
X125128646Y-99637419D01*
X125128646Y-99637419D02*
X125461979Y-100351704D01*
X125461979Y-100351704D02*
X125795312Y-99637419D01*
X125795312Y-99637419D02*
X125795312Y-100637419D01*
X126795312Y-100637419D02*
X126223884Y-100637419D01*
X126509598Y-100637419D02*
X126509598Y-99637419D01*
X126509598Y-99637419D02*
X126414360Y-99780276D01*
X126414360Y-99780276D02*
X126319122Y-99875514D01*
X126319122Y-99875514D02*
X126223884Y-99923133D01*
X127176265Y-99732657D02*
X127223884Y-99685038D01*
X127223884Y-99685038D02*
X127319122Y-99637419D01*
X127319122Y-99637419D02*
X127557217Y-99637419D01*
X127557217Y-99637419D02*
X127652455Y-99685038D01*
X127652455Y-99685038D02*
X127700074Y-99732657D01*
X127700074Y-99732657D02*
X127747693Y-99827895D01*
X127747693Y-99827895D02*
X127747693Y-99923133D01*
X127747693Y-99923133D02*
X127700074Y-100065990D01*
X127700074Y-100065990D02*
X127128646Y-100637419D01*
X127128646Y-100637419D02*
X127747693Y-100637419D01*
X128366741Y-99637419D02*
X128461979Y-99637419D01*
X128461979Y-99637419D02*
X128557217Y-99685038D01*
X128557217Y-99685038D02*
X128604836Y-99732657D01*
X128604836Y-99732657D02*
X128652455Y-99827895D01*
X128652455Y-99827895D02*
X128700074Y-100018371D01*
X128700074Y-100018371D02*
X128700074Y-100256466D01*
X128700074Y-100256466D02*
X128652455Y-100446942D01*
X128652455Y-100446942D02*
X128604836Y-100542180D01*
X128604836Y-100542180D02*
X128557217Y-100589800D01*
X128557217Y-100589800D02*
X128461979Y-100637419D01*
X128461979Y-100637419D02*
X128366741Y-100637419D01*
X128366741Y-100637419D02*
X128271503Y-100589800D01*
X128271503Y-100589800D02*
X128223884Y-100542180D01*
X128223884Y-100542180D02*
X128176265Y-100446942D01*
X128176265Y-100446942D02*
X128128646Y-100256466D01*
X128128646Y-100256466D02*
X128128646Y-100018371D01*
X128128646Y-100018371D02*
X128176265Y-99827895D01*
X128176265Y-99827895D02*
X128223884Y-99732657D01*
X128223884Y-99732657D02*
X128271503Y-99685038D01*
X128271503Y-99685038D02*
X128366741Y-99637419D01*
X129652455Y-100637419D02*
X129081027Y-100637419D01*
X129366741Y-100637419D02*
X129366741Y-99637419D01*
X129366741Y-99637419D02*
X129271503Y-99780276D01*
X129271503Y-99780276D02*
X129176265Y-99875514D01*
X129176265Y-99875514D02*
X129081027Y-99923133D01*
X127256265Y-99081704D02*
X127732455Y-99081704D01*
X127161027Y-99367419D02*
X127494360Y-98367419D01*
X127494360Y-98367419D02*
X127827693Y-99367419D01*
X128161027Y-99367419D02*
X128161027Y-98367419D01*
X127827693Y-103495038D02*
X127732455Y-103447419D01*
X127732455Y-103447419D02*
X127589598Y-103447419D01*
X127589598Y-103447419D02*
X127446741Y-103495038D01*
X127446741Y-103495038D02*
X127351503Y-103590276D01*
X127351503Y-103590276D02*
X127303884Y-103685514D01*
X127303884Y-103685514D02*
X127256265Y-103875990D01*
X127256265Y-103875990D02*
X127256265Y-104018847D01*
X127256265Y-104018847D02*
X127303884Y-104209323D01*
X127303884Y-104209323D02*
X127351503Y-104304561D01*
X127351503Y-104304561D02*
X127446741Y-104399800D01*
X127446741Y-104399800D02*
X127589598Y-104447419D01*
X127589598Y-104447419D02*
X127684836Y-104447419D01*
X127684836Y-104447419D02*
X127827693Y-104399800D01*
X127827693Y-104399800D02*
X127875312Y-104352180D01*
X127875312Y-104352180D02*
X127875312Y-104018847D01*
X127875312Y-104018847D02*
X127684836Y-104018847D01*
X128303884Y-104447419D02*
X128303884Y-103447419D01*
X128303884Y-103447419D02*
X128875312Y-104447419D01*
X128875312Y-104447419D02*
X128875312Y-103447419D01*
X129351503Y-104447419D02*
X129351503Y-103447419D01*
X129351503Y-103447419D02*
X129589598Y-103447419D01*
X129589598Y-103447419D02*
X129732455Y-103495038D01*
X129732455Y-103495038D02*
X129827693Y-103590276D01*
X129827693Y-103590276D02*
X129875312Y-103685514D01*
X129875312Y-103685514D02*
X129922931Y-103875990D01*
X129922931Y-103875990D02*
X129922931Y-104018847D01*
X129922931Y-104018847D02*
X129875312Y-104209323D01*
X129875312Y-104209323D02*
X129827693Y-104304561D01*
X129827693Y-104304561D02*
X129732455Y-104399800D01*
X129732455Y-104399800D02*
X129589598Y-104447419D01*
X129589598Y-104447419D02*
X129351503Y-104447419D01*
X130303884Y-103542657D02*
X130351503Y-103495038D01*
X130351503Y-103495038D02*
X130446741Y-103447419D01*
X130446741Y-103447419D02*
X130684836Y-103447419D01*
X130684836Y-103447419D02*
X130780074Y-103495038D01*
X130780074Y-103495038D02*
X130827693Y-103542657D01*
X130827693Y-103542657D02*
X130875312Y-103637895D01*
X130875312Y-103637895D02*
X130875312Y-103733133D01*
X130875312Y-103733133D02*
X130827693Y-103875990D01*
X130827693Y-103875990D02*
X130256265Y-104447419D01*
X130256265Y-104447419D02*
X130875312Y-104447419D01*
D10*
X108370476Y-100944819D02*
X108370476Y-99944819D01*
X108370476Y-99944819D02*
X108751428Y-99944819D01*
X108751428Y-99944819D02*
X108846666Y-99992438D01*
X108846666Y-99992438D02*
X108894285Y-100040057D01*
X108894285Y-100040057D02*
X108941904Y-100135295D01*
X108941904Y-100135295D02*
X108941904Y-100278152D01*
X108941904Y-100278152D02*
X108894285Y-100373390D01*
X108894285Y-100373390D02*
X108846666Y-100421009D01*
X108846666Y-100421009D02*
X108751428Y-100468628D01*
X108751428Y-100468628D02*
X108370476Y-100468628D01*
X109799047Y-100278152D02*
X109799047Y-100944819D01*
X109370476Y-100278152D02*
X109370476Y-100801961D01*
X109370476Y-100801961D02*
X109418095Y-100897200D01*
X109418095Y-100897200D02*
X109513333Y-100944819D01*
X109513333Y-100944819D02*
X109656190Y-100944819D01*
X109656190Y-100944819D02*
X109751428Y-100897200D01*
X109751428Y-100897200D02*
X109799047Y-100849580D01*
X110275238Y-100944819D02*
X110275238Y-100278152D01*
X110275238Y-100373390D02*
X110322857Y-100325771D01*
X110322857Y-100325771D02*
X110418095Y-100278152D01*
X110418095Y-100278152D02*
X110560952Y-100278152D01*
X110560952Y-100278152D02*
X110656190Y-100325771D01*
X110656190Y-100325771D02*
X110703809Y-100421009D01*
X110703809Y-100421009D02*
X110703809Y-100944819D01*
X110703809Y-100421009D02*
X110751428Y-100325771D01*
X110751428Y-100325771D02*
X110846666Y-100278152D01*
X110846666Y-100278152D02*
X110989523Y-100278152D01*
X110989523Y-100278152D02*
X111084762Y-100325771D01*
X111084762Y-100325771D02*
X111132381Y-100421009D01*
X111132381Y-100421009D02*
X111132381Y-100944819D01*
X111608571Y-100278152D02*
X111608571Y-101278152D01*
X111608571Y-100325771D02*
X111703809Y-100278152D01*
X111703809Y-100278152D02*
X111894285Y-100278152D01*
X111894285Y-100278152D02*
X111989523Y-100325771D01*
X111989523Y-100325771D02*
X112037142Y-100373390D01*
X112037142Y-100373390D02*
X112084761Y-100468628D01*
X112084761Y-100468628D02*
X112084761Y-100754342D01*
X112084761Y-100754342D02*
X112037142Y-100849580D01*
X112037142Y-100849580D02*
X111989523Y-100897200D01*
X111989523Y-100897200D02*
X111894285Y-100944819D01*
X111894285Y-100944819D02*
X111703809Y-100944819D01*
X111703809Y-100944819D02*
X111608571Y-100897200D01*
X113037142Y-100944819D02*
X112465714Y-100944819D01*
X112751428Y-100944819D02*
X112751428Y-99944819D01*
X112751428Y-99944819D02*
X112656190Y-100087676D01*
X112656190Y-100087676D02*
X112560952Y-100182914D01*
X112560952Y-100182914D02*
X112465714Y-100230533D01*
D11*
X121525875Y-64833911D02*
X121668732Y-64881530D01*
X121668732Y-64881530D02*
X121906827Y-64881530D01*
X121906827Y-64881530D02*
X122002065Y-64833911D01*
X122002065Y-64833911D02*
X122049684Y-64786291D01*
X122049684Y-64786291D02*
X122097303Y-64691053D01*
X122097303Y-64691053D02*
X122097303Y-64595815D01*
X122097303Y-64595815D02*
X122049684Y-64500577D01*
X122049684Y-64500577D02*
X122002065Y-64452958D01*
X122002065Y-64452958D02*
X121906827Y-64405339D01*
X121906827Y-64405339D02*
X121716351Y-64357720D01*
X121716351Y-64357720D02*
X121621113Y-64310101D01*
X121621113Y-64310101D02*
X121573494Y-64262482D01*
X121573494Y-64262482D02*
X121525875Y-64167244D01*
X121525875Y-64167244D02*
X121525875Y-64072006D01*
X121525875Y-64072006D02*
X121573494Y-63976768D01*
X121573494Y-63976768D02*
X121621113Y-63929149D01*
X121621113Y-63929149D02*
X121716351Y-63881530D01*
X121716351Y-63881530D02*
X121954446Y-63881530D01*
X121954446Y-63881530D02*
X122097303Y-63929149D01*
X122525875Y-64881530D02*
X122525875Y-63881530D01*
X122525875Y-63881530D02*
X122906827Y-63881530D01*
X122906827Y-63881530D02*
X123002065Y-63929149D01*
X123002065Y-63929149D02*
X123049684Y-63976768D01*
X123049684Y-63976768D02*
X123097303Y-64072006D01*
X123097303Y-64072006D02*
X123097303Y-64214863D01*
X123097303Y-64214863D02*
X123049684Y-64310101D01*
X123049684Y-64310101D02*
X123002065Y-64357720D01*
X123002065Y-64357720D02*
X122906827Y-64405339D01*
X122906827Y-64405339D02*
X122525875Y-64405339D01*
X123859208Y-64357720D02*
X124002065Y-64405339D01*
X124002065Y-64405339D02*
X124049684Y-64452958D01*
X124049684Y-64452958D02*
X124097303Y-64548196D01*
X124097303Y-64548196D02*
X124097303Y-64691053D01*
X124097303Y-64691053D02*
X124049684Y-64786291D01*
X124049684Y-64786291D02*
X124002065Y-64833911D01*
X124002065Y-64833911D02*
X123906827Y-64881530D01*
X123906827Y-64881530D02*
X123525875Y-64881530D01*
X123525875Y-64881530D02*
X123525875Y-63881530D01*
X123525875Y-63881530D02*
X123859208Y-63881530D01*
X123859208Y-63881530D02*
X123954446Y-63929149D01*
X123954446Y-63929149D02*
X124002065Y-63976768D01*
X124002065Y-63976768D02*
X124049684Y-64072006D01*
X124049684Y-64072006D02*
X124049684Y-64167244D01*
X124049684Y-64167244D02*
X124002065Y-64262482D01*
X124002065Y-64262482D02*
X123954446Y-64310101D01*
X123954446Y-64310101D02*
X123859208Y-64357720D01*
X123859208Y-64357720D02*
X123525875Y-64357720D01*
X124716351Y-63881530D02*
X124811589Y-63881530D01*
X124811589Y-63881530D02*
X124906827Y-63929149D01*
X124906827Y-63929149D02*
X124954446Y-63976768D01*
X124954446Y-63976768D02*
X125002065Y-64072006D01*
X125002065Y-64072006D02*
X125049684Y-64262482D01*
X125049684Y-64262482D02*
X125049684Y-64500577D01*
X125049684Y-64500577D02*
X125002065Y-64691053D01*
X125002065Y-64691053D02*
X124954446Y-64786291D01*
X124954446Y-64786291D02*
X124906827Y-64833911D01*
X124906827Y-64833911D02*
X124811589Y-64881530D01*
X124811589Y-64881530D02*
X124716351Y-64881530D01*
X124716351Y-64881530D02*
X124621113Y-64833911D01*
X124621113Y-64833911D02*
X124573494Y-64786291D01*
X124573494Y-64786291D02*
X124525875Y-64691053D01*
X124525875Y-64691053D02*
X124478256Y-64500577D01*
X124478256Y-64500577D02*
X124478256Y-64262482D01*
X124478256Y-64262482D02*
X124525875Y-64072006D01*
X124525875Y-64072006D02*
X124573494Y-63976768D01*
X124573494Y-63976768D02*
X124621113Y-63929149D01*
X124621113Y-63929149D02*
X124716351Y-63881530D01*
X125525875Y-64881530D02*
X125716351Y-64881530D01*
X125716351Y-64881530D02*
X125811589Y-64833911D01*
X125811589Y-64833911D02*
X125859208Y-64786291D01*
X125859208Y-64786291D02*
X125954446Y-64643434D01*
X125954446Y-64643434D02*
X126002065Y-64452958D01*
X126002065Y-64452958D02*
X126002065Y-64072006D01*
X126002065Y-64072006D02*
X125954446Y-63976768D01*
X125954446Y-63976768D02*
X125906827Y-63929149D01*
X125906827Y-63929149D02*
X125811589Y-63881530D01*
X125811589Y-63881530D02*
X125621113Y-63881530D01*
X125621113Y-63881530D02*
X125525875Y-63929149D01*
X125525875Y-63929149D02*
X125478256Y-63976768D01*
X125478256Y-63976768D02*
X125430637Y-64072006D01*
X125430637Y-64072006D02*
X125430637Y-64310101D01*
X125430637Y-64310101D02*
X125478256Y-64405339D01*
X125478256Y-64405339D02*
X125525875Y-64452958D01*
X125525875Y-64452958D02*
X125621113Y-64500577D01*
X125621113Y-64500577D02*
X125811589Y-64500577D01*
X125811589Y-64500577D02*
X125906827Y-64452958D01*
X125906827Y-64452958D02*
X125954446Y-64405339D01*
X125954446Y-64405339D02*
X126002065Y-64310101D01*
X126335399Y-63881530D02*
X126573494Y-64881530D01*
X126573494Y-64881530D02*
X126763970Y-64167244D01*
X126763970Y-64167244D02*
X126954446Y-64881530D01*
X126954446Y-64881530D02*
X127192542Y-63881530D01*
X127716351Y-64310101D02*
X127621113Y-64262482D01*
X127621113Y-64262482D02*
X127573494Y-64214863D01*
X127573494Y-64214863D02*
X127525875Y-64119625D01*
X127525875Y-64119625D02*
X127525875Y-64072006D01*
X127525875Y-64072006D02*
X127573494Y-63976768D01*
X127573494Y-63976768D02*
X127621113Y-63929149D01*
X127621113Y-63929149D02*
X127716351Y-63881530D01*
X127716351Y-63881530D02*
X127906827Y-63881530D01*
X127906827Y-63881530D02*
X128002065Y-63929149D01*
X128002065Y-63929149D02*
X128049684Y-63976768D01*
X128049684Y-63976768D02*
X128097303Y-64072006D01*
X128097303Y-64072006D02*
X128097303Y-64119625D01*
X128097303Y-64119625D02*
X128049684Y-64214863D01*
X128049684Y-64214863D02*
X128002065Y-64262482D01*
X128002065Y-64262482D02*
X127906827Y-64310101D01*
X127906827Y-64310101D02*
X127716351Y-64310101D01*
X127716351Y-64310101D02*
X127621113Y-64357720D01*
X127621113Y-64357720D02*
X127573494Y-64405339D01*
X127573494Y-64405339D02*
X127525875Y-64500577D01*
X127525875Y-64500577D02*
X127525875Y-64691053D01*
X127525875Y-64691053D02*
X127573494Y-64786291D01*
X127573494Y-64786291D02*
X127621113Y-64833911D01*
X127621113Y-64833911D02*
X127716351Y-64881530D01*
X127716351Y-64881530D02*
X127906827Y-64881530D01*
X127906827Y-64881530D02*
X128002065Y-64833911D01*
X128002065Y-64833911D02*
X128049684Y-64786291D01*
X128049684Y-64786291D02*
X128097303Y-64691053D01*
X128097303Y-64691053D02*
X128097303Y-64500577D01*
X128097303Y-64500577D02*
X128049684Y-64405339D01*
X128049684Y-64405339D02*
X128002065Y-64357720D01*
X128002065Y-64357720D02*
X127906827Y-64310101D01*
X128525875Y-64500577D02*
X129287780Y-64500577D01*
X129954446Y-63881530D02*
X130049684Y-63881530D01*
X130049684Y-63881530D02*
X130144922Y-63929149D01*
X130144922Y-63929149D02*
X130192541Y-63976768D01*
X130192541Y-63976768D02*
X130240160Y-64072006D01*
X130240160Y-64072006D02*
X130287779Y-64262482D01*
X130287779Y-64262482D02*
X130287779Y-64500577D01*
X130287779Y-64500577D02*
X130240160Y-64691053D01*
X130240160Y-64691053D02*
X130192541Y-64786291D01*
X130192541Y-64786291D02*
X130144922Y-64833911D01*
X130144922Y-64833911D02*
X130049684Y-64881530D01*
X130049684Y-64881530D02*
X129954446Y-64881530D01*
X129954446Y-64881530D02*
X129859208Y-64833911D01*
X129859208Y-64833911D02*
X129811589Y-64786291D01*
X129811589Y-64786291D02*
X129763970Y-64691053D01*
X129763970Y-64691053D02*
X129716351Y-64500577D01*
X129716351Y-64500577D02*
X129716351Y-64262482D01*
X129716351Y-64262482D02*
X129763970Y-64072006D01*
X129763970Y-64072006D02*
X129811589Y-63976768D01*
X129811589Y-63976768D02*
X129859208Y-63929149D01*
X129859208Y-63929149D02*
X129954446Y-63881530D01*
X131192541Y-63881530D02*
X130716351Y-63881530D01*
X130716351Y-63881530D02*
X130668732Y-64357720D01*
X130668732Y-64357720D02*
X130716351Y-64310101D01*
X130716351Y-64310101D02*
X130811589Y-64262482D01*
X130811589Y-64262482D02*
X131049684Y-64262482D01*
X131049684Y-64262482D02*
X131144922Y-64310101D01*
X131144922Y-64310101D02*
X131192541Y-64357720D01*
X131192541Y-64357720D02*
X131240160Y-64452958D01*
X131240160Y-64452958D02*
X131240160Y-64691053D01*
X131240160Y-64691053D02*
X131192541Y-64786291D01*
X131192541Y-64786291D02*
X131144922Y-64833911D01*
X131144922Y-64833911D02*
X131049684Y-64881530D01*
X131049684Y-64881530D02*
X130811589Y-64881530D01*
X130811589Y-64881530D02*
X130716351Y-64833911D01*
X130716351Y-64833911D02*
X130668732Y-64786291D01*
D10*
X111303669Y-112718673D02*
X110970336Y-112242482D01*
X110732241Y-112718673D02*
X110732241Y-111718673D01*
X110732241Y-111718673D02*
X111113193Y-111718673D01*
X111113193Y-111718673D02*
X111208431Y-111766292D01*
X111208431Y-111766292D02*
X111256050Y-111813911D01*
X111256050Y-111813911D02*
X111303669Y-111909149D01*
X111303669Y-111909149D02*
X111303669Y-112052006D01*
X111303669Y-112052006D02*
X111256050Y-112147244D01*
X111256050Y-112147244D02*
X111208431Y-112194863D01*
X111208431Y-112194863D02*
X111113193Y-112242482D01*
X111113193Y-112242482D02*
X110732241Y-112242482D01*
X112208431Y-111718673D02*
X111732241Y-111718673D01*
X111732241Y-111718673D02*
X111684622Y-112194863D01*
X111684622Y-112194863D02*
X111732241Y-112147244D01*
X111732241Y-112147244D02*
X111827479Y-112099625D01*
X111827479Y-112099625D02*
X112065574Y-112099625D01*
X112065574Y-112099625D02*
X112160812Y-112147244D01*
X112160812Y-112147244D02*
X112208431Y-112194863D01*
X112208431Y-112194863D02*
X112256050Y-112290101D01*
X112256050Y-112290101D02*
X112256050Y-112528196D01*
X112256050Y-112528196D02*
X112208431Y-112623434D01*
X112208431Y-112623434D02*
X112160812Y-112671054D01*
X112160812Y-112671054D02*
X112065574Y-112718673D01*
X112065574Y-112718673D02*
X111827479Y-112718673D01*
X111827479Y-112718673D02*
X111732241Y-112671054D01*
X111732241Y-112671054D02*
X111684622Y-112623434D01*
X109441904Y-85281009D02*
X109108571Y-85281009D01*
X109108571Y-85804819D02*
X109108571Y-84804819D01*
X109108571Y-84804819D02*
X109584761Y-84804819D01*
X110394285Y-85804819D02*
X110394285Y-85281009D01*
X110394285Y-85281009D02*
X110346666Y-85185771D01*
X110346666Y-85185771D02*
X110251428Y-85138152D01*
X110251428Y-85138152D02*
X110060952Y-85138152D01*
X110060952Y-85138152D02*
X109965714Y-85185771D01*
X110394285Y-85757200D02*
X110299047Y-85804819D01*
X110299047Y-85804819D02*
X110060952Y-85804819D01*
X110060952Y-85804819D02*
X109965714Y-85757200D01*
X109965714Y-85757200D02*
X109918095Y-85661961D01*
X109918095Y-85661961D02*
X109918095Y-85566723D01*
X109918095Y-85566723D02*
X109965714Y-85471485D01*
X109965714Y-85471485D02*
X110060952Y-85423866D01*
X110060952Y-85423866D02*
X110299047Y-85423866D01*
X110299047Y-85423866D02*
X110394285Y-85376247D01*
X110870476Y-85138152D02*
X110870476Y-85804819D01*
X110870476Y-85233390D02*
X110918095Y-85185771D01*
X110918095Y-85185771D02*
X111013333Y-85138152D01*
X111013333Y-85138152D02*
X111156190Y-85138152D01*
X111156190Y-85138152D02*
X111251428Y-85185771D01*
X111251428Y-85185771D02*
X111299047Y-85281009D01*
X111299047Y-85281009D02*
X111299047Y-85804819D01*
X111680000Y-84804819D02*
X112299047Y-84804819D01*
X112299047Y-84804819D02*
X111965714Y-85185771D01*
X111965714Y-85185771D02*
X112108571Y-85185771D01*
X112108571Y-85185771D02*
X112203809Y-85233390D01*
X112203809Y-85233390D02*
X112251428Y-85281009D01*
X112251428Y-85281009D02*
X112299047Y-85376247D01*
X112299047Y-85376247D02*
X112299047Y-85614342D01*
X112299047Y-85614342D02*
X112251428Y-85709580D01*
X112251428Y-85709580D02*
X112203809Y-85757200D01*
X112203809Y-85757200D02*
X112108571Y-85804819D01*
X112108571Y-85804819D02*
X111822857Y-85804819D01*
X111822857Y-85804819D02*
X111727619Y-85757200D01*
X111727619Y-85757200D02*
X111680000Y-85709580D01*
X109441904Y-70041009D02*
X109108571Y-70041009D01*
X109108571Y-70564819D02*
X109108571Y-69564819D01*
X109108571Y-69564819D02*
X109584761Y-69564819D01*
X110394285Y-70564819D02*
X110394285Y-70041009D01*
X110394285Y-70041009D02*
X110346666Y-69945771D01*
X110346666Y-69945771D02*
X110251428Y-69898152D01*
X110251428Y-69898152D02*
X110060952Y-69898152D01*
X110060952Y-69898152D02*
X109965714Y-69945771D01*
X110394285Y-70517200D02*
X110299047Y-70564819D01*
X110299047Y-70564819D02*
X110060952Y-70564819D01*
X110060952Y-70564819D02*
X109965714Y-70517200D01*
X109965714Y-70517200D02*
X109918095Y-70421961D01*
X109918095Y-70421961D02*
X109918095Y-70326723D01*
X109918095Y-70326723D02*
X109965714Y-70231485D01*
X109965714Y-70231485D02*
X110060952Y-70183866D01*
X110060952Y-70183866D02*
X110299047Y-70183866D01*
X110299047Y-70183866D02*
X110394285Y-70136247D01*
X110870476Y-69898152D02*
X110870476Y-70564819D01*
X110870476Y-69993390D02*
X110918095Y-69945771D01*
X110918095Y-69945771D02*
X111013333Y-69898152D01*
X111013333Y-69898152D02*
X111156190Y-69898152D01*
X111156190Y-69898152D02*
X111251428Y-69945771D01*
X111251428Y-69945771D02*
X111299047Y-70041009D01*
X111299047Y-70041009D02*
X111299047Y-70564819D01*
X112299047Y-70564819D02*
X111727619Y-70564819D01*
X112013333Y-70564819D02*
X112013333Y-69564819D01*
X112013333Y-69564819D02*
X111918095Y-69707676D01*
X111918095Y-69707676D02*
X111822857Y-69802914D01*
X111822857Y-69802914D02*
X111727619Y-69850533D01*
X95186666Y-138244819D02*
X94853333Y-137768628D01*
X94615238Y-138244819D02*
X94615238Y-137244819D01*
X94615238Y-137244819D02*
X94996190Y-137244819D01*
X94996190Y-137244819D02*
X95091428Y-137292438D01*
X95091428Y-137292438D02*
X95139047Y-137340057D01*
X95139047Y-137340057D02*
X95186666Y-137435295D01*
X95186666Y-137435295D02*
X95186666Y-137578152D01*
X95186666Y-137578152D02*
X95139047Y-137673390D01*
X95139047Y-137673390D02*
X95091428Y-137721009D01*
X95091428Y-137721009D02*
X94996190Y-137768628D01*
X94996190Y-137768628D02*
X94615238Y-137768628D01*
X95615238Y-137721009D02*
X95948571Y-137721009D01*
X96091428Y-138244819D02*
X95615238Y-138244819D01*
X95615238Y-138244819D02*
X95615238Y-137244819D01*
X95615238Y-137244819D02*
X96091428Y-137244819D01*
X96853333Y-137721009D02*
X96520000Y-137721009D01*
X96520000Y-138244819D02*
X96520000Y-137244819D01*
X96520000Y-137244819D02*
X96996190Y-137244819D01*
X97520000Y-137244819D02*
X97520000Y-137482914D01*
X97281905Y-137387676D02*
X97520000Y-137482914D01*
X97520000Y-137482914D02*
X97758095Y-137387676D01*
X97377143Y-137673390D02*
X97520000Y-137482914D01*
X97520000Y-137482914D02*
X97662857Y-137673390D01*
X98281905Y-137244819D02*
X98281905Y-137482914D01*
X98043810Y-137387676D02*
X98281905Y-137482914D01*
X98281905Y-137482914D02*
X98520000Y-137387676D01*
X98139048Y-137673390D02*
X98281905Y-137482914D01*
X98281905Y-137482914D02*
X98424762Y-137673390D01*
X163766666Y-34104819D02*
X163433333Y-33628628D01*
X163195238Y-34104819D02*
X163195238Y-33104819D01*
X163195238Y-33104819D02*
X163576190Y-33104819D01*
X163576190Y-33104819D02*
X163671428Y-33152438D01*
X163671428Y-33152438D02*
X163719047Y-33200057D01*
X163719047Y-33200057D02*
X163766666Y-33295295D01*
X163766666Y-33295295D02*
X163766666Y-33438152D01*
X163766666Y-33438152D02*
X163719047Y-33533390D01*
X163719047Y-33533390D02*
X163671428Y-33581009D01*
X163671428Y-33581009D02*
X163576190Y-33628628D01*
X163576190Y-33628628D02*
X163195238Y-33628628D01*
X164195238Y-33581009D02*
X164528571Y-33581009D01*
X164671428Y-34104819D02*
X164195238Y-34104819D01*
X164195238Y-34104819D02*
X164195238Y-33104819D01*
X164195238Y-33104819D02*
X164671428Y-33104819D01*
X165433333Y-33581009D02*
X165100000Y-33581009D01*
X165100000Y-34104819D02*
X165100000Y-33104819D01*
X165100000Y-33104819D02*
X165576190Y-33104819D01*
X166100000Y-33104819D02*
X166100000Y-33342914D01*
X165861905Y-33247676D02*
X166100000Y-33342914D01*
X166100000Y-33342914D02*
X166338095Y-33247676D01*
X165957143Y-33533390D02*
X166100000Y-33342914D01*
X166100000Y-33342914D02*
X166242857Y-33533390D01*
X166861905Y-33104819D02*
X166861905Y-33342914D01*
X166623810Y-33247676D02*
X166861905Y-33342914D01*
X166861905Y-33342914D02*
X167100000Y-33247676D01*
X166719048Y-33533390D02*
X166861905Y-33342914D01*
X166861905Y-33342914D02*
X167004762Y-33533390D01*
X149214819Y-50966666D02*
X148738628Y-51299999D01*
X149214819Y-51538094D02*
X148214819Y-51538094D01*
X148214819Y-51538094D02*
X148214819Y-51157142D01*
X148214819Y-51157142D02*
X148262438Y-51061904D01*
X148262438Y-51061904D02*
X148310057Y-51014285D01*
X148310057Y-51014285D02*
X148405295Y-50966666D01*
X148405295Y-50966666D02*
X148548152Y-50966666D01*
X148548152Y-50966666D02*
X148643390Y-51014285D01*
X148643390Y-51014285D02*
X148691009Y-51061904D01*
X148691009Y-51061904D02*
X148738628Y-51157142D01*
X148738628Y-51157142D02*
X148738628Y-51538094D01*
X148548152Y-50109523D02*
X149214819Y-50109523D01*
X148167200Y-50347618D02*
X148881485Y-50585713D01*
X148881485Y-50585713D02*
X148881485Y-49966666D01*
X164674661Y-109740603D02*
X164341328Y-109264412D01*
X164103233Y-109740603D02*
X164103233Y-108740603D01*
X164103233Y-108740603D02*
X164484185Y-108740603D01*
X164484185Y-108740603D02*
X164579423Y-108788222D01*
X164579423Y-108788222D02*
X164627042Y-108835841D01*
X164627042Y-108835841D02*
X164674661Y-108931079D01*
X164674661Y-108931079D02*
X164674661Y-109073936D01*
X164674661Y-109073936D02*
X164627042Y-109169174D01*
X164627042Y-109169174D02*
X164579423Y-109216793D01*
X164579423Y-109216793D02*
X164484185Y-109264412D01*
X164484185Y-109264412D02*
X164103233Y-109264412D01*
X165627042Y-109740603D02*
X165055614Y-109740603D01*
X165341328Y-109740603D02*
X165341328Y-108740603D01*
X165341328Y-108740603D02*
X165246090Y-108883460D01*
X165246090Y-108883460D02*
X165150852Y-108978698D01*
X165150852Y-108978698D02*
X165055614Y-109026317D01*
X92194819Y-89233333D02*
X92909104Y-89233333D01*
X92909104Y-89233333D02*
X93051961Y-89280952D01*
X93051961Y-89280952D02*
X93147200Y-89376190D01*
X93147200Y-89376190D02*
X93194819Y-89519047D01*
X93194819Y-89519047D02*
X93194819Y-89614285D01*
X93194819Y-88233333D02*
X93194819Y-88804761D01*
X93194819Y-88519047D02*
X92194819Y-88519047D01*
X92194819Y-88519047D02*
X92337676Y-88614285D01*
X92337676Y-88614285D02*
X92432914Y-88709523D01*
X92432914Y-88709523D02*
X92480533Y-88804761D01*
X169106009Y-94734285D02*
X169106009Y-94400952D01*
X169629819Y-94258095D02*
X169629819Y-94734285D01*
X169629819Y-94734285D02*
X168629819Y-94734285D01*
X168629819Y-94734285D02*
X168629819Y-94258095D01*
X168963152Y-93829523D02*
X169629819Y-93829523D01*
X169058390Y-93829523D02*
X169010771Y-93781904D01*
X169010771Y-93781904D02*
X168963152Y-93686666D01*
X168963152Y-93686666D02*
X168963152Y-93543809D01*
X168963152Y-93543809D02*
X169010771Y-93448571D01*
X169010771Y-93448571D02*
X169106009Y-93400952D01*
X169106009Y-93400952D02*
X169629819Y-93400952D01*
X169582200Y-92496190D02*
X169629819Y-92591428D01*
X169629819Y-92591428D02*
X169629819Y-92781904D01*
X169629819Y-92781904D02*
X169582200Y-92877142D01*
X169582200Y-92877142D02*
X169534580Y-92924761D01*
X169534580Y-92924761D02*
X169439342Y-92972380D01*
X169439342Y-92972380D02*
X169153628Y-92972380D01*
X169153628Y-92972380D02*
X169058390Y-92924761D01*
X169058390Y-92924761D02*
X169010771Y-92877142D01*
X169010771Y-92877142D02*
X168963152Y-92781904D01*
X168963152Y-92781904D02*
X168963152Y-92591428D01*
X168963152Y-92591428D02*
X169010771Y-92496190D01*
X169629819Y-91924761D02*
X169582200Y-92019999D01*
X169582200Y-92019999D02*
X169534580Y-92067618D01*
X169534580Y-92067618D02*
X169439342Y-92115237D01*
X169439342Y-92115237D02*
X169153628Y-92115237D01*
X169153628Y-92115237D02*
X169058390Y-92067618D01*
X169058390Y-92067618D02*
X169010771Y-92019999D01*
X169010771Y-92019999D02*
X168963152Y-91924761D01*
X168963152Y-91924761D02*
X168963152Y-91781904D01*
X168963152Y-91781904D02*
X169010771Y-91686666D01*
X169010771Y-91686666D02*
X169058390Y-91639047D01*
X169058390Y-91639047D02*
X169153628Y-91591428D01*
X169153628Y-91591428D02*
X169439342Y-91591428D01*
X169439342Y-91591428D02*
X169534580Y-91639047D01*
X169534580Y-91639047D02*
X169582200Y-91686666D01*
X169582200Y-91686666D02*
X169629819Y-91781904D01*
X169629819Y-91781904D02*
X169629819Y-91924761D01*
X169629819Y-90734285D02*
X168629819Y-90734285D01*
X169582200Y-90734285D02*
X169629819Y-90829523D01*
X169629819Y-90829523D02*
X169629819Y-91019999D01*
X169629819Y-91019999D02*
X169582200Y-91115237D01*
X169582200Y-91115237D02*
X169534580Y-91162856D01*
X169534580Y-91162856D02*
X169439342Y-91210475D01*
X169439342Y-91210475D02*
X169153628Y-91210475D01*
X169153628Y-91210475D02*
X169058390Y-91162856D01*
X169058390Y-91162856D02*
X169010771Y-91115237D01*
X169010771Y-91115237D02*
X168963152Y-91019999D01*
X168963152Y-91019999D02*
X168963152Y-90829523D01*
X168963152Y-90829523D02*
X169010771Y-90734285D01*
X169582200Y-89877142D02*
X169629819Y-89972380D01*
X169629819Y-89972380D02*
X169629819Y-90162856D01*
X169629819Y-90162856D02*
X169582200Y-90258094D01*
X169582200Y-90258094D02*
X169486961Y-90305713D01*
X169486961Y-90305713D02*
X169106009Y-90305713D01*
X169106009Y-90305713D02*
X169010771Y-90258094D01*
X169010771Y-90258094D02*
X168963152Y-90162856D01*
X168963152Y-90162856D02*
X168963152Y-89972380D01*
X168963152Y-89972380D02*
X169010771Y-89877142D01*
X169010771Y-89877142D02*
X169106009Y-89829523D01*
X169106009Y-89829523D02*
X169201247Y-89829523D01*
X169201247Y-89829523D02*
X169296485Y-90305713D01*
X169629819Y-89400951D02*
X168963152Y-89400951D01*
X169153628Y-89400951D02*
X169058390Y-89353332D01*
X169058390Y-89353332D02*
X169010771Y-89305713D01*
X169010771Y-89305713D02*
X168963152Y-89210475D01*
X168963152Y-89210475D02*
X168963152Y-89115237D01*
X169629819Y-88258094D02*
X169629819Y-88829522D01*
X169629819Y-88543808D02*
X168629819Y-88543808D01*
X168629819Y-88543808D02*
X168772676Y-88639046D01*
X168772676Y-88639046D02*
X168867914Y-88734284D01*
X168867914Y-88734284D02*
X168915533Y-88829522D01*
X153024819Y-132246666D02*
X152548628Y-132579999D01*
X153024819Y-132818094D02*
X152024819Y-132818094D01*
X152024819Y-132818094D02*
X152024819Y-132437142D01*
X152024819Y-132437142D02*
X152072438Y-132341904D01*
X152072438Y-132341904D02*
X152120057Y-132294285D01*
X152120057Y-132294285D02*
X152215295Y-132246666D01*
X152215295Y-132246666D02*
X152358152Y-132246666D01*
X152358152Y-132246666D02*
X152453390Y-132294285D01*
X152453390Y-132294285D02*
X152501009Y-132341904D01*
X152501009Y-132341904D02*
X152548628Y-132437142D01*
X152548628Y-132437142D02*
X152548628Y-132818094D01*
X152024819Y-131913332D02*
X152024819Y-131294285D01*
X152024819Y-131294285D02*
X152405771Y-131627618D01*
X152405771Y-131627618D02*
X152405771Y-131484761D01*
X152405771Y-131484761D02*
X152453390Y-131389523D01*
X152453390Y-131389523D02*
X152501009Y-131341904D01*
X152501009Y-131341904D02*
X152596247Y-131294285D01*
X152596247Y-131294285D02*
X152834342Y-131294285D01*
X152834342Y-131294285D02*
X152929580Y-131341904D01*
X152929580Y-131341904D02*
X152977200Y-131389523D01*
X152977200Y-131389523D02*
X153024819Y-131484761D01*
X153024819Y-131484761D02*
X153024819Y-131770475D01*
X153024819Y-131770475D02*
X152977200Y-131865713D01*
X152977200Y-131865713D02*
X152929580Y-131913332D01*
X105737175Y-63667914D02*
X106546698Y-63667914D01*
X106546698Y-63667914D02*
X106641936Y-63620295D01*
X106641936Y-63620295D02*
X106689556Y-63572676D01*
X106689556Y-63572676D02*
X106737175Y-63477438D01*
X106737175Y-63477438D02*
X106737175Y-63286962D01*
X106737175Y-63286962D02*
X106689556Y-63191724D01*
X106689556Y-63191724D02*
X106641936Y-63144105D01*
X106641936Y-63144105D02*
X106546698Y-63096486D01*
X106546698Y-63096486D02*
X105737175Y-63096486D01*
X105832413Y-62667914D02*
X105784794Y-62620295D01*
X105784794Y-62620295D02*
X105737175Y-62525057D01*
X105737175Y-62525057D02*
X105737175Y-62286962D01*
X105737175Y-62286962D02*
X105784794Y-62191724D01*
X105784794Y-62191724D02*
X105832413Y-62144105D01*
X105832413Y-62144105D02*
X105927651Y-62096486D01*
X105927651Y-62096486D02*
X106022889Y-62096486D01*
X106022889Y-62096486D02*
X106165746Y-62144105D01*
X106165746Y-62144105D02*
X106737175Y-62715533D01*
X106737175Y-62715533D02*
X106737175Y-62096486D01*
X109441904Y-77661009D02*
X109108571Y-77661009D01*
X109108571Y-78184819D02*
X109108571Y-77184819D01*
X109108571Y-77184819D02*
X109584761Y-77184819D01*
X110394285Y-78184819D02*
X110394285Y-77661009D01*
X110394285Y-77661009D02*
X110346666Y-77565771D01*
X110346666Y-77565771D02*
X110251428Y-77518152D01*
X110251428Y-77518152D02*
X110060952Y-77518152D01*
X110060952Y-77518152D02*
X109965714Y-77565771D01*
X110394285Y-78137200D02*
X110299047Y-78184819D01*
X110299047Y-78184819D02*
X110060952Y-78184819D01*
X110060952Y-78184819D02*
X109965714Y-78137200D01*
X109965714Y-78137200D02*
X109918095Y-78041961D01*
X109918095Y-78041961D02*
X109918095Y-77946723D01*
X109918095Y-77946723D02*
X109965714Y-77851485D01*
X109965714Y-77851485D02*
X110060952Y-77803866D01*
X110060952Y-77803866D02*
X110299047Y-77803866D01*
X110299047Y-77803866D02*
X110394285Y-77756247D01*
X110870476Y-77518152D02*
X110870476Y-78184819D01*
X110870476Y-77613390D02*
X110918095Y-77565771D01*
X110918095Y-77565771D02*
X111013333Y-77518152D01*
X111013333Y-77518152D02*
X111156190Y-77518152D01*
X111156190Y-77518152D02*
X111251428Y-77565771D01*
X111251428Y-77565771D02*
X111299047Y-77661009D01*
X111299047Y-77661009D02*
X111299047Y-78184819D01*
X111727619Y-77280057D02*
X111775238Y-77232438D01*
X111775238Y-77232438D02*
X111870476Y-77184819D01*
X111870476Y-77184819D02*
X112108571Y-77184819D01*
X112108571Y-77184819D02*
X112203809Y-77232438D01*
X112203809Y-77232438D02*
X112251428Y-77280057D01*
X112251428Y-77280057D02*
X112299047Y-77375295D01*
X112299047Y-77375295D02*
X112299047Y-77470533D01*
X112299047Y-77470533D02*
X112251428Y-77613390D01*
X112251428Y-77613390D02*
X111680000Y-78184819D01*
X111680000Y-78184819D02*
X112299047Y-78184819D01*
X146498214Y-125899104D02*
X146974404Y-125899104D01*
X146402976Y-126184819D02*
X146736309Y-125184819D01*
X146736309Y-125184819D02*
X147069642Y-126184819D01*
X147926785Y-126184819D02*
X147355357Y-126184819D01*
X147641071Y-126184819D02*
X147641071Y-125184819D01*
X147641071Y-125184819D02*
X147545833Y-125327676D01*
X147545833Y-125327676D02*
X147450595Y-125422914D01*
X147450595Y-125422914D02*
X147355357Y-125470533D01*
%TO.C,ADUM4*%
D11*
X118110000Y-107950000D02*
X133350000Y-107950000D01*
X133350000Y-118110000D01*
X118110000Y-118110000D01*
X118110000Y-107950000D01*
D12*
%TO.C,WATER_TEMP1*%
X162115000Y-101580000D02*
X162115000Y-109200000D01*
X162115000Y-109200000D02*
X168085000Y-109200000D01*
X162875000Y-105390000D02*
X162875000Y-103400000D01*
X162875000Y-108440000D02*
X162875000Y-105390000D01*
X165825000Y-101590000D02*
X165825000Y-102340000D01*
X165825000Y-102340000D02*
X164485000Y-102340000D01*
X165825000Y-108440000D02*
X162875000Y-108440000D01*
X165825000Y-109190000D02*
X165825000Y-108440000D01*
X167325000Y-101590000D02*
X167325000Y-103390000D01*
X167325000Y-103390000D02*
X168075000Y-103390000D01*
X167325000Y-104890000D02*
X167325000Y-105890000D01*
X167325000Y-105890000D02*
X168075000Y-105890000D01*
X167325000Y-107390000D02*
X167325000Y-109190000D01*
X167325000Y-109190000D02*
X168075000Y-109190000D01*
X168075000Y-101590000D02*
X167325000Y-101590000D01*
X168075000Y-103390000D02*
X168075000Y-101590000D01*
X168075000Y-104890000D02*
X167325000Y-104890000D01*
X168075000Y-105890000D02*
X168075000Y-104890000D01*
X168075000Y-107390000D02*
X167325000Y-107390000D01*
X168075000Y-109190000D02*
X168075000Y-107390000D01*
X168085000Y-101580000D02*
X162115000Y-101580000D01*
X168085000Y-109200000D02*
X168085000Y-101580000D01*
X168375000Y-101290000D02*
X167125000Y-101290000D01*
X168375000Y-102540000D02*
X168375000Y-101290000D01*
%TO.C,LED_TEMP1*%
X162115000Y-114320000D02*
X162115000Y-121940000D01*
X162115000Y-121940000D02*
X168085000Y-121940000D01*
X162875000Y-118130000D02*
X162875000Y-116140000D01*
X162875000Y-121180000D02*
X162875000Y-118130000D01*
X165825000Y-114330000D02*
X165825000Y-115080000D01*
X165825000Y-115080000D02*
X164485000Y-115080000D01*
X165825000Y-121180000D02*
X162875000Y-121180000D01*
X165825000Y-121930000D02*
X165825000Y-121180000D01*
X167325000Y-114330000D02*
X167325000Y-116130000D01*
X167325000Y-116130000D02*
X168075000Y-116130000D01*
X167325000Y-117630000D02*
X167325000Y-118630000D01*
X167325000Y-118630000D02*
X168075000Y-118630000D01*
X167325000Y-120130000D02*
X167325000Y-121930000D01*
X167325000Y-121930000D02*
X168075000Y-121930000D01*
X168075000Y-114330000D02*
X167325000Y-114330000D01*
X168075000Y-116130000D02*
X168075000Y-114330000D01*
X168075000Y-117630000D02*
X167325000Y-117630000D01*
X168075000Y-118630000D02*
X168075000Y-117630000D01*
X168075000Y-120130000D02*
X167325000Y-120130000D01*
X168075000Y-121930000D02*
X168075000Y-120130000D01*
X168085000Y-114320000D02*
X162115000Y-114320000D01*
X168085000Y-121940000D02*
X168085000Y-114320000D01*
X168375000Y-114030000D02*
X167125000Y-114030000D01*
X168375000Y-115280000D02*
X168375000Y-114030000D01*
%TO.C,Switch1*%
X144840000Y-138730000D02*
X144840000Y-144700000D01*
X144840000Y-144700000D02*
X157460000Y-144700000D01*
X144850000Y-142440000D02*
X145600000Y-142440000D01*
X144850000Y-143940000D02*
X144850000Y-144690000D01*
X144850000Y-144690000D02*
X146650000Y-144690000D01*
X145600000Y-139490000D02*
X151150000Y-139490000D01*
X145600000Y-142440000D02*
X145600000Y-139490000D01*
X146650000Y-143940000D02*
X144850000Y-143940000D01*
X146650000Y-144690000D02*
X146650000Y-143940000D01*
X148150000Y-143940000D02*
X148150000Y-144690000D01*
X148150000Y-144690000D02*
X154150000Y-144690000D01*
X151150000Y-139490000D02*
X155640000Y-139490000D01*
X154150000Y-143940000D02*
X148150000Y-143940000D01*
X154150000Y-144690000D02*
X154150000Y-143940000D01*
X155650000Y-143940000D02*
X155650000Y-144690000D01*
X155650000Y-144690000D02*
X157450000Y-144690000D01*
X156500000Y-144990000D02*
X157750000Y-144990000D01*
X156700000Y-142440000D02*
X156700000Y-141100000D01*
X157450000Y-142440000D02*
X156700000Y-142440000D01*
X157450000Y-143940000D02*
X155650000Y-143940000D01*
X157450000Y-144690000D02*
X157450000Y-143940000D01*
X157460000Y-138730000D02*
X144840000Y-138730000D01*
X157460000Y-144700000D02*
X157460000Y-138730000D01*
X157750000Y-144990000D02*
X157750000Y-143740000D01*
%TO.C,PMBus1*%
X104120000Y-138730000D02*
X104120000Y-144700000D01*
X104120000Y-144700000D02*
X114240000Y-144700000D01*
X104130000Y-142440000D02*
X104880000Y-142440000D01*
X104130000Y-143940000D02*
X104130000Y-144690000D01*
X104130000Y-144690000D02*
X105930000Y-144690000D01*
X104880000Y-139490000D02*
X109180000Y-139490000D01*
X104880000Y-142440000D02*
X104880000Y-139490000D01*
X105930000Y-143940000D02*
X104130000Y-143940000D01*
X105930000Y-144690000D02*
X105930000Y-143940000D01*
X107430000Y-143940000D02*
X107430000Y-144690000D01*
X107430000Y-144690000D02*
X110930000Y-144690000D01*
X109180000Y-139490000D02*
X112420000Y-139490000D01*
X110930000Y-143940000D02*
X107430000Y-143940000D01*
X110930000Y-144690000D02*
X110930000Y-143940000D01*
X112430000Y-143940000D02*
X112430000Y-144690000D01*
X112430000Y-144690000D02*
X114230000Y-144690000D01*
X113280000Y-144990000D02*
X114530000Y-144990000D01*
X113480000Y-142440000D02*
X113480000Y-141100000D01*
X114230000Y-142440000D02*
X113480000Y-142440000D01*
X114230000Y-143940000D02*
X112430000Y-143940000D01*
X114230000Y-144690000D02*
X114230000Y-143940000D01*
X114240000Y-138730000D02*
X104120000Y-138730000D01*
X114240000Y-144700000D02*
X114240000Y-138730000D01*
X114530000Y-144990000D02*
X114530000Y-143740000D01*
%TO.C,ADUM2*%
D11*
X118110000Y-82450000D02*
X133350000Y-82450000D01*
X133350000Y-92610000D01*
X118110000Y-92610000D01*
X118110000Y-82450000D01*
D12*
%TO.C,R2*%
X161506661Y-122895996D02*
X168046661Y-122895996D01*
X161506661Y-123225996D02*
X161506661Y-122895996D01*
X161506661Y-125305996D02*
X161506661Y-125635996D01*
X161506661Y-125635996D02*
X168046661Y-125635996D01*
X168046661Y-122895996D02*
X168046661Y-123225996D01*
X168046661Y-125635996D02*
X168046661Y-125305996D01*
%TO.C,Q1*%
X106269945Y-113403617D02*
X106319945Y-113403617D01*
X106269945Y-114923617D02*
X106269945Y-113403617D01*
X107269945Y-114923617D02*
X106269945Y-114923617D01*
X107439945Y-113403617D02*
X108219945Y-113403617D01*
X109339945Y-113403617D02*
X109389945Y-113403617D01*
X109389945Y-113403617D02*
X109389945Y-114923617D01*
X109389945Y-114923617D02*
X108389945Y-114923617D01*
X108209945Y-112863617D02*
X107879945Y-113103617D01*
X107879945Y-112623617D01*
X108209945Y-112863617D01*
G36*
X108209945Y-112863617D02*
G01*
X107879945Y-113103617D01*
X107879945Y-112623617D01*
X108209945Y-112863617D01*
G37*
%TO.C,ADUM1*%
D11*
X118110000Y-69850000D02*
X133350000Y-69850000D01*
X133350000Y-80010000D01*
X118110000Y-80010000D01*
X118110000Y-69850000D01*
D12*
%TO.C,J2*%
X105160057Y-123670838D02*
X105160057Y-124920838D01*
X105160057Y-124920838D02*
X106410057Y-124920838D01*
X105450057Y-117010838D02*
X105450057Y-124630838D01*
X105450057Y-124630838D02*
X111420057Y-124630838D01*
X105460057Y-117020838D02*
X105460057Y-118820838D01*
X105460057Y-118820838D02*
X106210057Y-118820838D01*
X105460057Y-120320838D02*
X105460057Y-121320838D01*
X105460057Y-121320838D02*
X106210057Y-121320838D01*
X105460057Y-122820838D02*
X105460057Y-124620838D01*
X105460057Y-124620838D02*
X106210057Y-124620838D01*
X106210057Y-117020838D02*
X105460057Y-117020838D01*
X106210057Y-118820838D02*
X106210057Y-117020838D01*
X106210057Y-120320838D02*
X105460057Y-120320838D01*
X106210057Y-121320838D02*
X106210057Y-120320838D01*
X106210057Y-122820838D02*
X105460057Y-122820838D01*
X106210057Y-124620838D02*
X106210057Y-122820838D01*
X107710057Y-117020838D02*
X107710057Y-117770838D01*
X107710057Y-117770838D02*
X110660057Y-117770838D01*
X107710057Y-123870838D02*
X110660057Y-123870838D01*
X107710057Y-124620838D02*
X107710057Y-123870838D01*
X110660057Y-117770838D02*
X110660057Y-120820838D01*
X110660057Y-123870838D02*
X110660057Y-120820838D01*
X111420057Y-117010838D02*
X105450057Y-117010838D01*
X111420057Y-124630838D02*
X111420057Y-117010838D01*
%TO.C,Fan4*%
X105330000Y-93920000D02*
X111080000Y-93920000D01*
X105330000Y-99920000D02*
X105330000Y-93920000D01*
X106680000Y-98810000D02*
X111760000Y-98810000D01*
X106680000Y-99820000D02*
X106680000Y-98810000D01*
X111760000Y-98810000D02*
X111760000Y-99820000D01*
X112430000Y-93970000D02*
X115630000Y-93970000D01*
X115630000Y-93970000D02*
X115630000Y-99920000D01*
X115630000Y-99920000D02*
X105330000Y-99920000D01*
%TO.C,Display1*%
X136950000Y-138760000D02*
X136950000Y-140010000D01*
X136950000Y-140010000D02*
X138200000Y-140010000D01*
X137240000Y-127100000D02*
X137240000Y-139720000D01*
X137240000Y-139720000D02*
X143210000Y-139720000D01*
X137250000Y-127110000D02*
X137250000Y-128910000D01*
X137250000Y-128910000D02*
X138000000Y-128910000D01*
X137250000Y-130410000D02*
X137250000Y-136410000D01*
X137250000Y-136410000D02*
X138000000Y-136410000D01*
X137250000Y-137910000D02*
X137250000Y-139710000D01*
X137250000Y-139710000D02*
X138000000Y-139710000D01*
X138000000Y-127110000D02*
X137250000Y-127110000D01*
X138000000Y-128910000D02*
X138000000Y-127110000D01*
X138000000Y-130410000D02*
X137250000Y-130410000D01*
X138000000Y-136410000D02*
X138000000Y-130410000D01*
X138000000Y-137910000D02*
X137250000Y-137910000D01*
X138000000Y-139710000D02*
X138000000Y-137910000D01*
X139500000Y-127110000D02*
X139500000Y-127860000D01*
X139500000Y-127860000D02*
X142450000Y-127860000D01*
X139500000Y-138960000D02*
X140840000Y-138960000D01*
X139500000Y-139710000D02*
X139500000Y-138960000D01*
X142450000Y-127860000D02*
X142450000Y-133410000D01*
X142450000Y-133410000D02*
X142450000Y-137900000D01*
X143210000Y-127100000D02*
X137240000Y-127100000D01*
X143210000Y-139720000D02*
X143210000Y-127100000D01*
%TO.C,U3*%
X140946943Y-57796010D02*
X145566943Y-57796010D01*
X140946943Y-61056010D02*
X142326943Y-61056010D01*
X140946943Y-64756010D02*
X142326943Y-64756010D01*
X140946943Y-68016010D02*
X140946943Y-57796010D01*
X142326943Y-68016010D02*
X142326943Y-57796010D01*
X145566943Y-57796010D02*
X145566943Y-68016010D01*
X145566943Y-68016010D02*
X140946943Y-68016010D01*
%TO.C,D1*%
X114240448Y-117983352D02*
X116480448Y-117983352D01*
X114240448Y-118103352D02*
X116480448Y-118103352D01*
X114240448Y-118223352D02*
X116480448Y-118223352D01*
X115360448Y-113933352D02*
X115360448Y-114583352D01*
X115360448Y-119473352D02*
X115360448Y-118823352D01*
X114240448Y-118823352D02*
X116480448Y-118823352D01*
X116480448Y-114583352D01*
X114240448Y-114583352D01*
X114240448Y-118823352D01*
D11*
%TO.C,U1*%
X105440316Y-35460000D02*
X147350316Y-35460000D01*
X105440316Y-55780000D02*
X105440316Y-35460000D01*
X147350316Y-35460000D02*
X147350316Y-55780000D01*
X147350316Y-55780000D02*
X105440316Y-55780000D01*
%TO.C,ISO1540*%
X116840000Y-120650000D02*
X134620000Y-120650000D01*
X116840000Y-146050000D02*
X116840000Y-120650000D01*
X134620000Y-120650000D02*
X134620000Y-146050000D01*
X134620000Y-146050000D02*
X116840000Y-146050000D01*
X116840000Y-120650000D02*
X134620000Y-120650000D01*
X134620000Y-146050000D01*
X116840000Y-146050000D01*
X116840000Y-120650000D01*
%TO.C,ADUM3*%
X118110000Y-95050000D02*
X133350000Y-95050000D01*
X133350000Y-105210000D01*
X118110000Y-105210000D01*
X118110000Y-95050000D01*
D12*
%TO.C,Pump1*%
X105330000Y-101440000D02*
X111080000Y-101440000D01*
X105330000Y-107440000D02*
X105330000Y-101440000D01*
X106680000Y-106330000D02*
X111760000Y-106330000D01*
X106680000Y-107340000D02*
X106680000Y-106330000D01*
X111760000Y-106330000D02*
X111760000Y-107340000D01*
X112430000Y-101490000D02*
X115630000Y-101490000D01*
X115630000Y-101490000D02*
X115630000Y-107440000D01*
X115630000Y-107440000D02*
X105330000Y-107440000D01*
%TO.C,U4*%
D11*
X114284610Y-58024111D02*
X138414610Y-58024111D01*
X138414610Y-67549111D01*
X114284610Y-67549111D01*
X114284610Y-58024111D01*
D12*
%TO.C,R5*%
X108200336Y-108523854D02*
X108200336Y-108853854D01*
X108200336Y-111263854D02*
X108200336Y-110933854D01*
X114740336Y-108523854D02*
X108200336Y-108523854D01*
X114740336Y-108853854D02*
X114740336Y-108523854D01*
X114740336Y-110933854D02*
X114740336Y-111263854D01*
X114740336Y-111263854D02*
X108200336Y-111263854D01*
%TO.C,Fan3*%
X105330000Y-86300000D02*
X111080000Y-86300000D01*
X105330000Y-92300000D02*
X105330000Y-86300000D01*
X106680000Y-91190000D02*
X111760000Y-91190000D01*
X106680000Y-92200000D02*
X106680000Y-91190000D01*
X111760000Y-91190000D02*
X111760000Y-92200000D01*
X112430000Y-86350000D02*
X115630000Y-86350000D01*
X115630000Y-86350000D02*
X115630000Y-92300000D01*
X115630000Y-92300000D02*
X105330000Y-92300000D01*
%TO.C,Fan1*%
X105330000Y-71060000D02*
X111080000Y-71060000D01*
X105330000Y-77060000D02*
X105330000Y-71060000D01*
X106680000Y-75950000D02*
X111760000Y-75950000D01*
X106680000Y-76960000D02*
X106680000Y-75950000D01*
X111760000Y-75950000D02*
X111760000Y-76960000D01*
X112430000Y-71110000D02*
X115630000Y-71110000D01*
X115630000Y-71110000D02*
X115630000Y-77060000D01*
X115630000Y-77060000D02*
X105330000Y-77060000D01*
%TO.C,R4*%
X149760000Y-47530000D02*
X150090000Y-47530000D01*
X149760000Y-54070000D02*
X149760000Y-47530000D01*
X150090000Y-54070000D02*
X149760000Y-54070000D01*
X152170000Y-54070000D02*
X152500000Y-54070000D01*
X152500000Y-47530000D02*
X152170000Y-47530000D01*
X152500000Y-54070000D02*
X152500000Y-47530000D01*
%TO.C,R1*%
X161571328Y-110285784D02*
X168111328Y-110285784D01*
X161571328Y-110615784D02*
X161571328Y-110285784D01*
X161571328Y-112695784D02*
X161571328Y-113025784D01*
X161571328Y-113025784D02*
X168111328Y-113025784D01*
X168111328Y-110285784D02*
X168111328Y-110615784D01*
X168111328Y-113025784D02*
X168111328Y-112695784D01*
%TO.C,J1*%
X93740000Y-83700000D02*
X103780000Y-83700000D01*
X93740000Y-94100000D02*
X93740000Y-83700000D01*
X96760000Y-94100000D02*
X96760000Y-83700000D01*
X101660000Y-94100000D02*
X101660000Y-83700000D01*
X103160000Y-94100000D02*
X103160000Y-83700000D01*
X103780000Y-83700000D02*
X103780000Y-91140000D01*
X103780000Y-91740000D02*
X103780000Y-94100000D01*
X103780000Y-94100000D02*
X93740000Y-94100000D01*
X104390000Y-91880000D02*
X103780000Y-91440000D01*
X104390000Y-91000000D01*
X104390000Y-91880000D01*
G36*
X104390000Y-91880000D02*
G01*
X103780000Y-91440000D01*
X104390000Y-91000000D01*
X104390000Y-91880000D01*
G37*
%TO.C,Encoder1*%
X162115000Y-83960000D02*
X162115000Y-99080000D01*
X162115000Y-99080000D02*
X168085000Y-99080000D01*
X162875000Y-91520000D02*
X162875000Y-85780000D01*
X162875000Y-98320000D02*
X162875000Y-91520000D01*
X165825000Y-83970000D02*
X165825000Y-84720000D01*
X165825000Y-84720000D02*
X164485000Y-84720000D01*
X165825000Y-98320000D02*
X162875000Y-98320000D01*
X165825000Y-99070000D02*
X165825000Y-98320000D01*
X167325000Y-83970000D02*
X167325000Y-85770000D01*
X167325000Y-85770000D02*
X168075000Y-85770000D01*
X167325000Y-87270000D02*
X167325000Y-95770000D01*
X167325000Y-95770000D02*
X168075000Y-95770000D01*
X167325000Y-97270000D02*
X167325000Y-99070000D01*
X167325000Y-99070000D02*
X168075000Y-99070000D01*
X168075000Y-83970000D02*
X167325000Y-83970000D01*
X168075000Y-85770000D02*
X168075000Y-83970000D01*
X168075000Y-87270000D02*
X167325000Y-87270000D01*
X168075000Y-95770000D02*
X168075000Y-87270000D01*
X168075000Y-97270000D02*
X167325000Y-97270000D01*
X168075000Y-99070000D02*
X168075000Y-97270000D01*
X168085000Y-83960000D02*
X162115000Y-83960000D01*
X168085000Y-99080000D02*
X168085000Y-83960000D01*
X168375000Y-83670000D02*
X167125000Y-83670000D01*
X168375000Y-84920000D02*
X168375000Y-83670000D01*
%TO.C,R3*%
X153570000Y-128810000D02*
X153900000Y-128810000D01*
X153570000Y-135350000D02*
X153570000Y-128810000D01*
X153900000Y-135350000D02*
X153570000Y-135350000D01*
X155980000Y-135350000D02*
X156310000Y-135350000D01*
X156310000Y-128810000D02*
X155980000Y-128810000D01*
X156310000Y-135350000D02*
X156310000Y-128810000D01*
%TO.C,U2*%
X107122356Y-57796010D02*
X111742356Y-57796010D01*
X107122356Y-61056010D02*
X108502356Y-61056010D01*
X107122356Y-64756010D02*
X108502356Y-64756010D01*
X107122356Y-68016010D02*
X107122356Y-57796010D01*
X108502356Y-68016010D02*
X108502356Y-57796010D01*
X111742356Y-57796010D02*
X111742356Y-68016010D01*
X111742356Y-68016010D02*
X107122356Y-68016010D01*
%TO.C,Fan2*%
X105330000Y-78680000D02*
X111080000Y-78680000D01*
X105330000Y-84680000D02*
X105330000Y-78680000D01*
X106680000Y-83570000D02*
X111760000Y-83570000D01*
X106680000Y-84580000D02*
X106680000Y-83570000D01*
X111760000Y-83570000D02*
X111760000Y-84580000D01*
X112430000Y-78730000D02*
X115630000Y-78730000D01*
X115630000Y-78730000D02*
X115630000Y-84680000D01*
X115630000Y-84680000D02*
X105330000Y-84680000D01*
%TO.C,A1*%
X135672500Y-121920000D02*
X135672500Y-76200000D01*
X138322500Y-73550000D02*
X156102500Y-73550000D01*
X138322500Y-124570000D02*
X156102500Y-124570000D01*
X158752500Y-121920000D02*
X158752500Y-76200000D01*
X159072500Y-117110000D02*
X159072500Y-119110000D01*
X135672500Y-76200000D02*
G75*
G02*
X138322500Y-73550000I2650000J0D01*
G01*
X138322500Y-124570000D02*
G75*
G02*
X135672500Y-121920000I0J2650000D01*
G01*
X156102500Y-73550000D02*
G75*
G02*
X158752500Y-76200000I0J-2650000D01*
G01*
X158752500Y-121920000D02*
G75*
G02*
X156102500Y-124570000I-2650000J0D01*
G01*
%TD*%
M02*
