%TF.GenerationSoftware,KiCad,Pcbnew,9.0.6*%
%TF.CreationDate,2025-12-07T02:42:27-06:00*%
%TF.ProjectId,1000W Controller,31303030-5720-4436-9f6e-74726f6c6c65,rev?*%
%TF.SameCoordinates,Original*%
%TF.FileFunction,Copper,L4,Bot*%
%TF.FilePolarity,Positive*%
%FSLAX46Y46*%
G04 Gerber Fmt 4.6, Leading zero omitted, Abs format (unit mm)*
G04 Created by KiCad (PCBNEW 9.0.6) date 2025-12-07 02:42:27*
%MOMM*%
%LPD*%
G01*
G04 APERTURE LIST*
G04 Aperture macros list*
%AMRoundRect*
0 Rectangle with rounded corners*
0 $1 Rounding radius*
0 $2 $3 $4 $5 $6 $7 $8 $9 X,Y pos of 4 corners*
0 Add a 4 corners polygon primitive as box body*
4,1,4,$2,$3,$4,$5,$6,$7,$8,$9,$2,$3,0*
0 Add four circle primitives for the rounded corners*
1,1,$1+$1,$2,$3*
1,1,$1+$1,$4,$5*
1,1,$1+$1,$6,$7*
1,1,$1+$1,$8,$9*
0 Add four rect primitives between the rounded corners*
20,1,$1+$1,$2,$3,$4,$5,0*
20,1,$1+$1,$4,$5,$6,$7,0*
20,1,$1+$1,$6,$7,$8,$9,0*
20,1,$1+$1,$8,$9,$2,$3,0*%
G04 Aperture macros list end*
%TA.AperFunction,ComponentPad*%
%ADD10C,1.778000*%
%TD*%
%TA.AperFunction,ComponentPad*%
%ADD11RoundRect,0.250000X-0.750000X0.600000X-0.750000X-0.600000X0.750000X-0.600000X0.750000X0.600000X0*%
%TD*%
%TA.AperFunction,ComponentPad*%
%ADD12O,2.000000X1.700000*%
%TD*%
%TA.AperFunction,ComponentPad*%
%ADD13RoundRect,0.250000X0.600000X0.725000X-0.600000X0.725000X-0.600000X-0.725000X0.600000X-0.725000X0*%
%TD*%
%TA.AperFunction,ComponentPad*%
%ADD14O,1.700000X1.950000*%
%TD*%
%TA.AperFunction,ComponentPad*%
%ADD15C,1.600000*%
%TD*%
%TA.AperFunction,ComponentPad*%
%ADD16RoundRect,0.250000X0.750000X-0.600000X0.750000X0.600000X-0.750000X0.600000X-0.750000X-0.600000X0*%
%TD*%
%TA.AperFunction,ComponentPad*%
%ADD17R,1.730000X2.030000*%
%TD*%
%TA.AperFunction,ComponentPad*%
%ADD18O,1.730000X2.030000*%
%TD*%
%TA.AperFunction,ComponentPad*%
%ADD19RoundRect,0.250000X0.725000X-0.600000X0.725000X0.600000X-0.725000X0.600000X-0.725000X-0.600000X0*%
%TD*%
%TA.AperFunction,ComponentPad*%
%ADD20O,1.950000X1.700000*%
%TD*%
%TA.AperFunction,ComponentPad*%
%ADD21R,2.000000X1.905000*%
%TD*%
%TA.AperFunction,ComponentPad*%
%ADD22O,2.000000X1.905000*%
%TD*%
%TA.AperFunction,ComponentPad*%
%ADD23RoundRect,0.250000X0.550000X-0.550000X0.550000X0.550000X-0.550000X0.550000X-0.550000X-0.550000X0*%
%TD*%
%TA.AperFunction,ComponentPad*%
%ADD24RoundRect,0.250000X1.050000X-1.050000X1.050000X1.050000X-1.050000X1.050000X-1.050000X-1.050000X0*%
%TD*%
%TA.AperFunction,ComponentPad*%
%ADD25C,2.600000*%
%TD*%
%TA.AperFunction,ComponentPad*%
%ADD26RoundRect,0.250000X-0.725000X0.600000X-0.725000X-0.600000X0.725000X-0.600000X0.725000X0.600000X0*%
%TD*%
%TA.AperFunction,ComponentPad*%
%ADD27RoundRect,0.250000X1.050000X0.550000X-1.050000X0.550000X-1.050000X-0.550000X1.050000X-0.550000X0*%
%TD*%
%TA.AperFunction,ComponentPad*%
%ADD28O,2.600000X1.600000*%
%TD*%
%TA.AperFunction,Conductor*%
%ADD29C,1.000000*%
%TD*%
%TA.AperFunction,Conductor*%
%ADD30C,2.000000*%
%TD*%
G04 APERTURE END LIST*
D10*
%TO.P,ADUM4,1,VCC1*%
%TO.N,+3.3V*%
X119380000Y-109220000D03*
%TO.P,ADUM4,2,AO*%
%TO.N,Net-(ADUM4-AO)*%
X119380000Y-111760000D03*
%TO.P,ADUM4,3,BI*%
%TO.N,unconnected-(ADUM4-BI-Pad3)*%
X119380000Y-114300000D03*
%TO.P,ADUM4,4,GND1*%
%TO.N,GND*%
X119380000Y-116840000D03*
%TO.P,ADUM4,5,VCC2*%
%TO.N,+ISO_3.3V*%
X132080000Y-109220000D03*
%TO.P,ADUM4,6,AI*%
%TO.N,Net-(A1-D6)*%
X132080000Y-111760000D03*
%TO.P,ADUM4,7,BO*%
%TO.N,unconnected-(ADUM4-BO-Pad7)*%
X132080000Y-114300000D03*
%TO.P,ADUM4,8,GND2*%
%TO.N,ISO_GND*%
X132080000Y-116840000D03*
%TD*%
D11*
%TO.P,WATER_TEMP1,1,Pin_1*%
%TO.N,ISO_GND*%
X165625000Y-104140000D03*
D12*
%TO.P,WATER_TEMP1,2,Pin_2*%
%TO.N,Net-(A1-A1)*%
X165625000Y-106640000D03*
%TD*%
D11*
%TO.P,LED_TEMP1,1,Pin_1*%
%TO.N,ISO_GND*%
X165625000Y-116880000D03*
D12*
%TO.P,LED_TEMP1,2,Pin_2*%
%TO.N,Net-(A1-A0)*%
X165625000Y-119380000D03*
%TD*%
D13*
%TO.P,Switch1,1,Pin_1*%
%TO.N,Net-(Switch1-Pin_1)*%
X154900000Y-142240000D03*
D14*
%TO.P,Switch1,2,Pin_2*%
%TO.N,ISO_GND*%
X152400000Y-142240000D03*
%TO.P,Switch1,3,Pin_3*%
X149900000Y-142240000D03*
%TO.P,Switch1,4,Pin_4*%
%TO.N,Net-(A1-A3)*%
X147400000Y-142240000D03*
%TD*%
D13*
%TO.P,PMBus1,1,Pin_1*%
%TO.N,Net-(ISO1540-SLC1)*%
X111680000Y-142240000D03*
D14*
%TO.P,PMBus1,2,Pin_2*%
%TO.N,Net-(ISO1540-SDA1)*%
X109180000Y-142240000D03*
%TO.P,PMBus1,3,Pin_3*%
%TO.N,GND*%
X106680000Y-142240000D03*
%TD*%
D10*
%TO.P,ADUM2,1,VCC1*%
%TO.N,+3.3V*%
X119380000Y-83720000D03*
%TO.P,ADUM2,2,AO*%
%TO.N,Net-(ADUM2-AO)*%
X119380000Y-86260000D03*
%TO.P,ADUM2,3,BI*%
%TO.N,Net-(ADUM2-BI)*%
X119380000Y-88800000D03*
%TO.P,ADUM2,4,GND1*%
%TO.N,GND*%
X119380000Y-91340000D03*
%TO.P,ADUM2,5,VCC2*%
%TO.N,+ISO_3.3V*%
X132080000Y-83720000D03*
%TO.P,ADUM2,6,AI*%
%TO.N,Net-(A1-D2)*%
X132080000Y-86260000D03*
%TO.P,ADUM2,7,BO*%
%TO.N,Net-(A1-D3)*%
X132080000Y-88800000D03*
%TO.P,ADUM2,8,GND2*%
%TO.N,ISO_GND*%
X132080000Y-91340000D03*
%TD*%
D15*
%TO.P,R2,1*%
%TO.N,+ISO_3.3V*%
X160966661Y-124265996D03*
%TO.P,R2,2*%
%TO.N,Net-(A1-A0)*%
X168586661Y-124265996D03*
%TD*%
D10*
%TO.P,ADUM1,1,VCC1*%
%TO.N,+3.3V*%
X119380000Y-71120000D03*
%TO.P,ADUM1,2,AO*%
%TO.N,Net-(ADUM1-AO)*%
X119380000Y-73660000D03*
%TO.P,ADUM1,3,BI*%
%TO.N,Net-(ADUM1-BI)*%
X119380000Y-76200000D03*
%TO.P,ADUM1,4,GND1*%
%TO.N,GND*%
X119380000Y-78740000D03*
%TO.P,ADUM1,5,VCC2*%
%TO.N,+ISO_3.3V*%
X132080000Y-71120000D03*
%TO.P,ADUM1,6,AI*%
%TO.N,Net-(A1-D0)*%
X132080000Y-73660000D03*
%TO.P,ADUM1,7,BO*%
%TO.N,Net-(A1-D1)*%
X132080000Y-76200000D03*
%TO.P,ADUM1,8,GND2*%
%TO.N,ISO_GND*%
X132080000Y-78740000D03*
%TD*%
D16*
%TO.P,J2,1,Pin_1*%
%TO.N,Net-(D1-K)*%
X107910057Y-122070838D03*
D12*
%TO.P,J2,2,Pin_2*%
%TO.N,GND*%
X107910057Y-119570838D03*
%TD*%
D17*
%TO.P,Fan4,1,Pin_1*%
%TO.N,GND*%
X106680000Y-96520000D03*
D18*
%TO.P,Fan4,2,Pin_2*%
%TO.N,+24V*%
X109220000Y-96520000D03*
%TO.P,Fan4,3,Pin_3*%
%TO.N,Net-(ADUM2-AO)*%
X111760000Y-96520000D03*
%TO.P,Fan4,4,Pin_4*%
%TO.N,Net-(ADUM2-BI)*%
X114300000Y-96520000D03*
%TD*%
D19*
%TO.P,Display1,1,Pin_1*%
%TO.N,ISO_GND*%
X139700000Y-137160000D03*
D20*
%TO.P,Display1,2,Pin_2*%
%TO.N,+ISO_3.3V*%
X139700000Y-134660000D03*
%TO.P,Display1,3,Pin_3*%
%TO.N,Net-(A1-SDA)*%
X139700000Y-132160000D03*
%TO.P,Display1,4,Pin_4*%
%TO.N,Net-(A1-SCL)*%
X139700000Y-129660000D03*
%TD*%
D21*
%TO.P,U3,1,GND*%
%TO.N,ISO_GND*%
X144206943Y-65446010D03*
D22*
%TO.P,U3,2,VO*%
%TO.N,+ISO_3.3V*%
X144206943Y-62906010D03*
%TO.P,U3,3,VI*%
%TO.N,+ISO_5V*%
X144206943Y-60366010D03*
%TD*%
D23*
%TO.P,D1,1,K*%
%TO.N,Net-(D1-K)*%
X115360448Y-120513352D03*
D15*
%TO.P,D1,2,A*%
%TO.N,GND*%
X115360448Y-112893352D03*
%TD*%
D10*
%TO.P,U1,1,IN-*%
%TO.N,GND*%
X106710316Y-54510000D03*
%TO.P,U1,2,IN+*%
%TO.N,+24V*%
X106710316Y-36730000D03*
%TO.P,U1,3,OUT-*%
%TO.N,GND*%
X146080316Y-54510000D03*
%TO.P,U1,4,OUT+*%
%TO.N,+5V*%
X146080316Y-36730000D03*
%TD*%
%TO.P,ISO1540,1,GND1*%
%TO.N,GND*%
X119380000Y-129540000D03*
%TO.P,ISO1540,2,SDA1*%
%TO.N,Net-(ISO1540-SDA1)*%
X119380000Y-132080000D03*
%TO.P,ISO1540,3,SLC1*%
%TO.N,Net-(ISO1540-SLC1)*%
X119380000Y-134620000D03*
%TO.P,ISO1540,4,VCC1*%
%TO.N,+3.3V*%
X119380000Y-137160000D03*
%TO.P,ISO1540,5,GND2*%
%TO.N,ISO_GND*%
X132080000Y-129540000D03*
%TO.P,ISO1540,6,SDA2*%
%TO.N,Net-(A1-SDA)*%
X132080000Y-132080000D03*
%TO.P,ISO1540,7,SLC2*%
%TO.N,Net-(A1-SCL)*%
X132080000Y-134620000D03*
%TO.P,ISO1540,8,VCC2*%
%TO.N,+ISO_3.3V*%
X132080000Y-137160000D03*
%TD*%
%TO.P,ADUM3,1,VCC1*%
%TO.N,+3.3V*%
X119380000Y-96320000D03*
%TO.P,ADUM3,2,AO*%
%TO.N,Net-(ADUM3-AO)*%
X119380000Y-98860000D03*
%TO.P,ADUM3,3,BI*%
%TO.N,Net-(ADUM3-BI)*%
X119380000Y-101400000D03*
%TO.P,ADUM3,4,GND1*%
%TO.N,GND*%
X119380000Y-103940000D03*
%TO.P,ADUM3,5,VCC2*%
%TO.N,+ISO_3.3V*%
X132080000Y-96320000D03*
%TO.P,ADUM3,6,AI*%
%TO.N,Net-(A1-D4)*%
X132080000Y-98860000D03*
%TO.P,ADUM3,7,BO*%
%TO.N,Net-(A1-D5)*%
X132080000Y-101400000D03*
%TO.P,ADUM3,8,GND2*%
%TO.N,ISO_GND*%
X132080000Y-103940000D03*
%TD*%
D17*
%TO.P,Pump1,1,Pin_1*%
%TO.N,GND*%
X106680000Y-104040000D03*
D18*
%TO.P,Pump1,2,Pin_2*%
%TO.N,+24V*%
X109220000Y-104040000D03*
%TO.P,Pump1,3,Pin_3*%
%TO.N,Net-(ADUM3-AO)*%
X111760000Y-104040000D03*
%TO.P,Pump1,4,Pin_4*%
%TO.N,Net-(ADUM3-BI)*%
X114300000Y-104040000D03*
%TD*%
D10*
%TO.P,U4,1,-Vin*%
%TO.N,GND*%
X117459610Y-60564111D03*
%TO.P,U4,2,+Vin*%
%TO.N,+24V*%
X119999610Y-60564111D03*
%TO.P,U4,3,R.C.*%
%TO.N,unconnected-(U4-R.C.-Pad3)*%
X122539610Y-60564111D03*
%TO.P,U4,6,+Vout*%
%TO.N,+ISO_5V*%
X130159610Y-60564111D03*
%TO.P,U4,7,-Vout*%
%TO.N,ISO_GND*%
X132699610Y-60564111D03*
%TO.P,U4,8,N.C.*%
%TO.N,unconnected-(U4-N.C.-Pad8)*%
X135239610Y-60564111D03*
%TD*%
D15*
%TO.P,R5,1*%
%TO.N,Net-(ADUM4-AO)*%
X115280336Y-109893854D03*
%TO.P,R5,2*%
%TO.N,Net-(Q1-G)*%
X107660336Y-109893854D03*
%TD*%
D17*
%TO.P,Fan3,1,Pin_1*%
%TO.N,GND*%
X106680000Y-88900000D03*
D18*
%TO.P,Fan3,2,Pin_2*%
%TO.N,+24V*%
X109220000Y-88900000D03*
%TO.P,Fan3,3,Pin_3*%
%TO.N,Net-(ADUM1-AO)*%
X111760000Y-88900000D03*
%TO.P,Fan3,4,Pin_4*%
%TO.N,unconnected-(Fan3-Pin_4-Pad4)*%
X114300000Y-88900000D03*
%TD*%
D17*
%TO.P,Fan1,1,Pin_1*%
%TO.N,GND*%
X106680000Y-73660000D03*
D18*
%TO.P,Fan1,2,Pin_2*%
%TO.N,+24V*%
X109220000Y-73660000D03*
%TO.P,Fan1,3,Pin_3*%
%TO.N,Net-(ADUM1-AO)*%
X111760000Y-73660000D03*
%TO.P,Fan1,4,Pin_4*%
%TO.N,Net-(ADUM1-BI)*%
X114300000Y-73660000D03*
%TD*%
D15*
%TO.P,R4,1*%
%TO.N,GND*%
X151130000Y-54610000D03*
%TO.P,R4,2*%
%TO.N,ISO_GND*%
X151130000Y-46990000D03*
%TD*%
%TO.P,R1,1*%
%TO.N,+ISO_3.3V*%
X161031328Y-111655784D03*
%TO.P,R1,2*%
%TO.N,Net-(A1-A1)*%
X168651328Y-111655784D03*
%TD*%
D24*
%TO.P,J1,1,Pin_1*%
%TO.N,GND*%
X99060000Y-91440000D03*
D25*
%TO.P,J1,2,Pin_2*%
%TO.N,+24V*%
X99060000Y-86360000D03*
%TD*%
D26*
%TO.P,Encoder1,1,Pin_1*%
%TO.N,unconnected-(Encoder1-Pin_1-Pad1)*%
X165625000Y-86520000D03*
D20*
%TO.P,Encoder1,2,Pin_2*%
%TO.N,Net-(A1-A4)*%
X165625000Y-89020000D03*
%TO.P,Encoder1,3,Pin_3*%
%TO.N,Net-(A1-A5)*%
X165625000Y-91520000D03*
%TO.P,Encoder1,4,Pin_4*%
%TO.N,+ISO_5V*%
X165625000Y-94020000D03*
%TO.P,Encoder1,5,Pin_5*%
%TO.N,ISO_GND*%
X165625000Y-96520000D03*
%TD*%
D15*
%TO.P,R3,1*%
%TO.N,Net-(Switch1-Pin_1)*%
X154940000Y-135890000D03*
%TO.P,R3,2*%
%TO.N,Net-(A1-A2)*%
X154940000Y-128270000D03*
%TD*%
D21*
%TO.P,U2,1,GND*%
%TO.N,GND*%
X110382356Y-65446010D03*
D22*
%TO.P,U2,2,VO*%
%TO.N,+3.3V*%
X110382356Y-62906010D03*
%TO.P,U2,3,VI*%
%TO.N,+5V*%
X110382356Y-60366010D03*
%TD*%
D17*
%TO.P,Fan2,1,Pin_1*%
%TO.N,GND*%
X106680000Y-81280000D03*
D18*
%TO.P,Fan2,2,Pin_2*%
%TO.N,+24V*%
X109220000Y-81280000D03*
%TO.P,Fan2,3,Pin_3*%
%TO.N,Net-(ADUM1-AO)*%
X111760000Y-81280000D03*
%TO.P,Fan2,4,Pin_4*%
%TO.N,unconnected-(Fan2-Pin_4-Pad4)*%
X114300000Y-81280000D03*
%TD*%
D27*
%TO.P,A1,1,~{RESET}*%
%TO.N,unconnected-(A1-~{RESET}-Pad1)*%
X157072500Y-118110000D03*
D28*
%TO.P,A1,2,3V3*%
%TO.N,+ISO_3.3V*%
X157072500Y-115570000D03*
%TO.P,A1,3,AREF*%
%TO.N,unconnected-(A1-AREF-Pad3)*%
X157072500Y-113030000D03*
%TO.P,A1,4,GND*%
%TO.N,ISO_GND*%
X157072500Y-110490000D03*
%TO.P,A1,5,A0*%
%TO.N,Net-(A1-A0)*%
X157072500Y-107950000D03*
%TO.P,A1,6,A1*%
%TO.N,Net-(A1-A1)*%
X157072500Y-105410000D03*
%TO.P,A1,7,A2*%
%TO.N,Net-(A1-A2)*%
X157072500Y-102870000D03*
%TO.P,A1,8,A3*%
%TO.N,Net-(A1-A3)*%
X157072500Y-100330000D03*
%TO.P,A1,9,A4*%
%TO.N,Net-(A1-A4)*%
X157072500Y-97790000D03*
%TO.P,A1,10,A5*%
%TO.N,Net-(A1-A5)*%
X157072500Y-95250000D03*
%TO.P,A1,11,SCK*%
%TO.N,unconnected-(A1-SCK-Pad11)*%
X157072500Y-92710000D03*
%TO.P,A1,12,MOSI*%
%TO.N,unconnected-(A1-MOSI-Pad12)*%
X157072500Y-90170000D03*
%TO.P,A1,13,MISO*%
%TO.N,unconnected-(A1-MISO-Pad13)*%
X157072500Y-87630000D03*
%TO.P,A1,14,RX*%
%TO.N,unconnected-(A1-RX-Pad14)*%
X157072500Y-85090000D03*
%TO.P,A1,15,TX*%
%TO.N,unconnected-(A1-TX-Pad15)*%
X157072500Y-82550000D03*
%TO.P,A1,16,SPARE*%
%TO.N,unconnected-(A1-SPARE-Pad16)*%
X157072500Y-80010000D03*
%TO.P,A1,17,SDA*%
%TO.N,Net-(A1-SDA)*%
X137352500Y-80010000D03*
%TO.P,A1,18,SCL*%
%TO.N,Net-(A1-SCL)*%
X137352500Y-82550000D03*
%TO.P,A1,19,D0*%
%TO.N,Net-(A1-D0)*%
X137352500Y-85090000D03*
%TO.P,A1,20,D1*%
%TO.N,Net-(A1-D1)*%
X137352500Y-87630000D03*
%TO.P,A1,21,D2*%
%TO.N,Net-(A1-D2)*%
X137352500Y-90170000D03*
%TO.P,A1,22,D3*%
%TO.N,Net-(A1-D3)*%
X137352500Y-92710000D03*
%TO.P,A1,23,D4*%
%TO.N,Net-(A1-D4)*%
X137352500Y-95250000D03*
%TO.P,A1,24,D5*%
%TO.N,Net-(A1-D5)*%
X137352500Y-97790000D03*
%TO.P,A1,25,D6*%
%TO.N,Net-(A1-D6)*%
X137352500Y-100330000D03*
%TO.P,A1,26,USB*%
%TO.N,unconnected-(A1-USB-Pad26)*%
X137352500Y-102870000D03*
%TO.P,A1,27,EN*%
%TO.N,unconnected-(A1-EN-Pad27)*%
X137352500Y-105410000D03*
%TO.P,A1,28,VBAT*%
%TO.N,unconnected-(A1-VBAT-Pad28)*%
X137352500Y-107950000D03*
%TD*%
D29*
%TO.N,Net-(A1-A5)*%
X165625000Y-91520000D02*
X161102500Y-91520000D01*
X161102500Y-91520000D02*
X157372500Y-95250000D01*
%TO.N,Net-(A1-SCL)*%
X139700000Y-129660000D02*
X137040000Y-129660000D01*
X137040000Y-129660000D02*
X132080000Y-134620000D01*
%TO.N,Net-(A1-A2)*%
X156989765Y-102870000D02*
X157372500Y-102870000D01*
%TO.N,Net-(A1-A3)*%
X156210000Y-100330000D02*
X157372500Y-100330000D01*
D30*
%TO.N,GND*%
X117459610Y-60564111D02*
X117459610Y-60148404D01*
D29*
%TO.N,Net-(Switch1-Pin_1)*%
X154900000Y-135930000D02*
X154940000Y-135890000D01*
%TD*%
M02*
