M48
; DRILL file {KiCad 9.0.6} date 2025-12-07T02:42:30-0600
; FORMAT={-:-/ absolute / metric / decimal}
; #@! TF.CreationDate,2025-12-07T02:42:30-06:00
; #@! TF.GenerationSoftware,Kicad,Pcbnew,9.0.6
; #@! TF.FileFunction,Plated,1,4,PTH
FMAT,2
METRIC
; #@! TA.AperFunction,Plated,PTH,ComponentDrill
T1C0.800
; #@! TA.AperFunction,Plated,PTH,ComponentDrill
T2C0.950
; #@! TA.AperFunction,Plated,PTH,ComponentDrill
T3C1.000
; #@! TA.AperFunction,Plated,PTH,ComponentDrill
T4C1.020
; #@! TA.AperFunction,Plated,PTH,ComponentDrill
T5C1.100
; #@! TA.AperFunction,Plated,PTH,ComponentDrill
T6C1.300
%
G90
G05
T1
X107.66Y-109.894
X115.28Y-109.894
X115.36Y-112.893
X115.36Y-120.513
X151.13Y-46.99
X151.13Y-54.61
X154.94Y-128.27
X154.94Y-135.89
X160.967Y-124.266
X161.031Y-111.656
X168.587Y-124.266
X168.651Y-111.656
T2
X106.68Y-142.24
X109.18Y-142.24
X111.68Y-142.24
X139.7Y-129.66
X139.7Y-132.16
X139.7Y-134.66
X139.7Y-137.16
X147.4Y-142.24
X149.9Y-142.24
X152.4Y-142.24
X154.9Y-142.24
X165.625Y-86.52
X165.625Y-89.02
X165.625Y-91.52
X165.625Y-94.02
X165.625Y-96.52
T3
X106.71Y-36.73
X106.71Y-54.51
X107.91Y-119.571
X107.91Y-122.071
X117.46Y-60.564
X119.38Y-71.12
X119.38Y-73.66
X119.38Y-76.2
X119.38Y-78.74
X119.38Y-83.72
X119.38Y-86.26
X119.38Y-88.8
X119.38Y-91.34
X119.38Y-96.32
X119.38Y-98.86
X119.38Y-101.4
X119.38Y-103.94
X119.38Y-109.22
X119.38Y-111.76
X119.38Y-114.3
X119.38Y-116.84
X119.38Y-129.54
X119.38Y-132.08
X119.38Y-134.62
X119.38Y-137.16
X120.0Y-60.564
X122.54Y-60.564
X130.16Y-60.564
X132.08Y-71.12
X132.08Y-73.66
X132.08Y-76.2
X132.08Y-78.74
X132.08Y-83.72
X132.08Y-86.26
X132.08Y-88.8
X132.08Y-91.34
X132.08Y-96.32
X132.08Y-98.86
X132.08Y-101.4
X132.08Y-103.94
X132.08Y-109.22
X132.08Y-111.76
X132.08Y-114.3
X132.08Y-116.84
X132.08Y-129.54
X132.08Y-132.08
X132.08Y-134.62
X132.08Y-137.16
X132.7Y-60.564
X135.24Y-60.564
X137.052Y-80.01
X137.052Y-82.55
X137.052Y-85.09
X137.052Y-87.63
X137.052Y-90.17
X137.052Y-92.71
X137.052Y-95.25
X137.052Y-97.79
X137.052Y-100.33
X137.052Y-102.87
X137.052Y-105.41
X137.052Y-107.95
X146.08Y-36.73
X146.08Y-54.51
X157.373Y-80.01
X157.373Y-82.55
X157.373Y-85.09
X157.373Y-87.63
X157.373Y-90.17
X157.373Y-92.71
X157.373Y-95.25
X157.373Y-97.79
X157.373Y-100.33
X157.373Y-102.87
X157.373Y-105.41
X157.373Y-107.95
X157.373Y-110.49
X157.373Y-113.03
X157.373Y-115.57
X157.373Y-118.11
X165.625Y-104.14
X165.625Y-106.64
X165.625Y-116.88
X165.625Y-119.38
T4
X106.68Y-73.66
X106.68Y-81.28
X106.68Y-88.9
X106.68Y-96.52
X106.68Y-104.04
X109.22Y-73.66
X109.22Y-81.28
X109.22Y-88.9
X109.22Y-96.52
X109.22Y-104.04
X111.76Y-73.66
X111.76Y-81.28
X111.76Y-88.9
X111.76Y-96.52
X111.76Y-104.04
X114.3Y-73.66
X114.3Y-81.28
X114.3Y-88.9
X114.3Y-96.52
X114.3Y-104.04
T5
X110.382Y-60.366
X110.382Y-62.906
X110.382Y-65.446
X144.207Y-60.366
X144.207Y-62.906
X144.207Y-65.446
T6
X99.06Y-86.36
X99.06Y-91.44
M30
