%TF.GenerationSoftware,KiCad,Pcbnew,9.0.6*%
%TF.CreationDate,2026-03-10T14:17:26-05:00*%
%TF.ProjectId,1000W Controller,31303030-5720-4436-9f6e-74726f6c6c65,rev?*%
%TF.SameCoordinates,Original*%
%TF.FileFunction,Copper,L1,Top*%
%TF.FilePolarity,Positive*%
%FSLAX46Y46*%
G04 Gerber Fmt 4.6, Leading zero omitted, Abs format (unit mm)*
G04 Created by KiCad (PCBNEW 9.0.6) date 2026-03-10 14:17:26*
%MOMM*%
%LPD*%
G01*
G04 APERTURE LIST*
G04 Aperture macros list*
%AMRoundRect*
0 Rectangle with rounded corners*
0 $1 Rounding radius*
0 $2 $3 $4 $5 $6 $7 $8 $9 X,Y pos of 4 corners*
0 Add a 4 corners polygon primitive as box body*
4,1,4,$2,$3,$4,$5,$6,$7,$8,$9,$2,$3,0*
0 Add four circle primitives for the rounded corners*
1,1,$1+$1,$2,$3*
1,1,$1+$1,$4,$5*
1,1,$1+$1,$6,$7*
1,1,$1+$1,$8,$9*
0 Add four rect primitives between the rounded corners*
20,1,$1+$1,$2,$3,$4,$5,0*
20,1,$1+$1,$4,$5,$6,$7,0*
20,1,$1+$1,$6,$7,$8,$9,0*
20,1,$1+$1,$8,$9,$2,$3,0*%
G04 Aperture macros list end*
%TA.AperFunction,ComponentPad*%
%ADD10RoundRect,0.250000X-0.600000X-0.725000X0.600000X-0.725000X0.600000X0.725000X-0.600000X0.725000X0*%
%TD*%
%TA.AperFunction,ComponentPad*%
%ADD11O,1.700000X1.950000*%
%TD*%
%TA.AperFunction,SMDPad,CuDef*%
%ADD12RoundRect,0.250000X-0.475000X0.250000X-0.475000X-0.250000X0.475000X-0.250000X0.475000X0.250000X0*%
%TD*%
%TA.AperFunction,SMDPad,CuDef*%
%ADD13RoundRect,0.250000X-0.262500X-0.450000X0.262500X-0.450000X0.262500X0.450000X-0.262500X0.450000X0*%
%TD*%
%TA.AperFunction,ComponentPad*%
%ADD14RoundRect,0.250000X0.845000X-0.620000X0.845000X0.620000X-0.845000X0.620000X-0.845000X-0.620000X0*%
%TD*%
%TA.AperFunction,ComponentPad*%
%ADD15O,2.190000X1.740000*%
%TD*%
%TA.AperFunction,SMDPad,CuDef*%
%ADD16RoundRect,0.150000X0.825000X0.150000X-0.825000X0.150000X-0.825000X-0.150000X0.825000X-0.150000X0*%
%TD*%
%TA.AperFunction,ComponentPad*%
%ADD17RoundRect,0.250000X0.750000X-0.600000X0.750000X0.600000X-0.750000X0.600000X-0.750000X-0.600000X0*%
%TD*%
%TA.AperFunction,ComponentPad*%
%ADD18O,2.000000X1.700000*%
%TD*%
%TA.AperFunction,SMDPad,CuDef*%
%ADD19RoundRect,0.250000X0.250000X0.475000X-0.250000X0.475000X-0.250000X-0.475000X0.250000X-0.475000X0*%
%TD*%
%TA.AperFunction,ComponentPad*%
%ADD20RoundRect,0.250000X-0.600000X-0.750000X0.600000X-0.750000X0.600000X0.750000X-0.600000X0.750000X0*%
%TD*%
%TA.AperFunction,ComponentPad*%
%ADD21O,1.700000X2.000000*%
%TD*%
%TA.AperFunction,ComponentPad*%
%ADD22R,1.500000X2.300000*%
%TD*%
%TA.AperFunction,ComponentPad*%
%ADD23O,1.500000X2.300000*%
%TD*%
%TA.AperFunction,ComponentPad*%
%ADD24RoundRect,0.250000X0.600000X0.725000X-0.600000X0.725000X-0.600000X-0.725000X0.600000X-0.725000X0*%
%TD*%
%TA.AperFunction,ComponentPad*%
%ADD25RoundRect,0.250000X-0.750000X0.750000X-0.750000X-0.750000X0.750000X-0.750000X0.750000X0.750000X0*%
%TD*%
%TA.AperFunction,ComponentPad*%
%ADD26C,2.000000*%
%TD*%
%TA.AperFunction,SMDPad,CuDef*%
%ADD27RoundRect,0.250000X0.262500X0.450000X-0.262500X0.450000X-0.262500X-0.450000X0.262500X-0.450000X0*%
%TD*%
%TA.AperFunction,SMDPad,CuDef*%
%ADD28RoundRect,0.250000X0.450000X-0.262500X0.450000X0.262500X-0.450000X0.262500X-0.450000X-0.262500X0*%
%TD*%
%TA.AperFunction,SMDPad,CuDef*%
%ADD29RoundRect,0.250000X-0.450000X0.262500X-0.450000X-0.262500X0.450000X-0.262500X0.450000X0.262500X0*%
%TD*%
%TA.AperFunction,SMDPad,CuDef*%
%ADD30RoundRect,0.150000X-0.587500X-0.150000X0.587500X-0.150000X0.587500X0.150000X-0.587500X0.150000X0*%
%TD*%
%TA.AperFunction,ComponentPad*%
%ADD31RoundRect,0.250000X-1.050000X1.050000X-1.050000X-1.050000X1.050000X-1.050000X1.050000X1.050000X0*%
%TD*%
%TA.AperFunction,ComponentPad*%
%ADD32C,2.600000*%
%TD*%
%TA.AperFunction,ComponentPad*%
%ADD33R,2.000000X1.905000*%
%TD*%
%TA.AperFunction,ComponentPad*%
%ADD34O,2.000000X1.905000*%
%TD*%
%TA.AperFunction,SMDPad,CuDef*%
%ADD35RoundRect,0.250000X0.475000X-0.250000X0.475000X0.250000X-0.475000X0.250000X-0.475000X-0.250000X0*%
%TD*%
%TA.AperFunction,SMDPad,CuDef*%
%ADD36RoundRect,0.250000X-0.325000X-1.100000X0.325000X-1.100000X0.325000X1.100000X-0.325000X1.100000X0*%
%TD*%
%TA.AperFunction,ComponentPad*%
%ADD37RoundRect,0.250000X-1.350000X-1.350000X1.350000X-1.350000X1.350000X1.350000X-1.350000X1.350000X0*%
%TD*%
%TA.AperFunction,ComponentPad*%
%ADD38C,3.200000*%
%TD*%
%TA.AperFunction,ComponentPad*%
%ADD39O,2.600000X1.600000*%
%TD*%
%TA.AperFunction,ComponentPad*%
%ADD40RoundRect,0.250000X1.050000X0.550000X-1.050000X0.550000X-1.050000X-0.550000X1.050000X-0.550000X0*%
%TD*%
%TA.AperFunction,SMDPad,CuDef*%
%ADD41RoundRect,0.250000X-0.250000X-0.475000X0.250000X-0.475000X0.250000X0.475000X-0.250000X0.475000X0*%
%TD*%
%TA.AperFunction,ComponentPad*%
%ADD42C,1.778000*%
%TD*%
%TA.AperFunction,ViaPad*%
%ADD43C,0.600000*%
%TD*%
%TA.AperFunction,Conductor*%
%ADD44C,0.250000*%
%TD*%
%TA.AperFunction,Conductor*%
%ADD45C,0.500000*%
%TD*%
%TA.AperFunction,Conductor*%
%ADD46C,0.200000*%
%TD*%
G04 APERTURE END LIST*
D10*
%TO.P,Encoder1,1,Pin_1*%
%TO.N,unconnected-(Encoder1-Pin_1-Pad1)*%
X164418000Y-86377000D03*
D11*
%TO.P,Encoder1,2,Pin_2*%
%TO.N,Net-(Encoder1-Pin_2)*%
X166918000Y-86377000D03*
%TO.P,Encoder1,3,Pin_3*%
%TO.N,Net-(Encoder1-Pin_3)*%
X169418000Y-86377000D03*
%TO.P,Encoder1,4,Pin_4*%
%TO.N,+ISO_5V*%
X171918000Y-86377000D03*
%TO.P,Encoder1,5,Pin_5*%
%TO.N,ISO_GND*%
X174418000Y-86377000D03*
%TD*%
D10*
%TO.P,Switch1,1,Pin_1*%
%TO.N,Net-(Switch1-Pin_1)*%
X162620000Y-115807000D03*
D11*
%TO.P,Switch1,2,Pin_2*%
%TO.N,ISO_GND*%
X165120000Y-115807000D03*
%TO.P,Switch1,3,Pin_3*%
X167620000Y-115807000D03*
%TO.P,Switch1,4,Pin_4*%
%TO.N,Net-(Feather_M4_CAN_Express1-A3)*%
X170120000Y-115807000D03*
%TD*%
D12*
%TO.P,C19,1*%
%TO.N,ISO_GND*%
X163576000Y-96773360D03*
%TO.P,C19,2*%
%TO.N,Net-(Encoder1-Pin_3)*%
X163576000Y-98673360D03*
%TD*%
D13*
%TO.P,R5,1*%
%TO.N,Net-(Aux_Fan_1-Pin_4)*%
X123039500Y-113538000D03*
%TO.P,R5,2*%
%TO.N,+3.3V*%
X124864500Y-113538000D03*
%TD*%
D14*
%TO.P,Rad_Fan_3,1,Pin_1*%
%TO.N,GND*%
X106680000Y-113665000D03*
D15*
%TO.P,Rad_Fan_3,2,Pin_2*%
%TO.N,+24V*%
X106680000Y-111125000D03*
%TO.P,Rad_Fan_3,3,Pin_3*%
%TO.N,Net-(Rad_Fan_1-Pin_3)*%
X106680000Y-108585000D03*
%TO.P,Rad_Fan_3,4,Pin_4*%
%TO.N,unconnected-(Rad_Fan_3-Pin_4-Pad4)*%
X106680000Y-106045000D03*
%TD*%
D16*
%TO.P,U6,1,VDD1*%
%TO.N,+ISO_3.3V*%
X132015000Y-114935000D03*
%TO.P,U6,2,VOA*%
%TO.N,Net-(Feather_M4_CAN_Express1-D13)*%
X132015000Y-113665000D03*
%TO.P,U6,3,VIB*%
%TO.N,Net-(Feather_M4_CAN_Express1-D4)*%
X132015000Y-112395000D03*
%TO.P,U6,4,GND1*%
%TO.N,ISO_GND*%
X132015000Y-111125000D03*
%TO.P,U6,5,GND2*%
%TO.N,GND*%
X127065000Y-111125000D03*
%TO.P,U6,6,VOB*%
%TO.N,Net-(Aux_Fan_1-Pin_3)*%
X127065000Y-112395000D03*
%TO.P,U6,7,VIA*%
%TO.N,Net-(Aux_Fan_1-Pin_4)*%
X127065000Y-113665000D03*
%TO.P,U6,8,VDD2*%
%TO.N,+3.3V*%
X127065000Y-114935000D03*
%TD*%
D17*
%TO.P,Therm_sw1,1,Pin_1*%
%TO.N,Net-(Q3-G)*%
X163813000Y-108946000D03*
D18*
%TO.P,Therm_sw1,2,Pin_2*%
%TO.N,Net-(Feather_M4_CAN_Express1-A4)*%
X163813000Y-106446000D03*
%TD*%
D19*
%TO.P,C3,1*%
%TO.N,+3.3V*%
X124902000Y-102870000D03*
%TO.P,C3,2*%
%TO.N,GND*%
X123002000Y-102870000D03*
%TD*%
D16*
%TO.P,U1,1,VDD1*%
%TO.N,+ISO_3.3V*%
X132015000Y-95885000D03*
%TO.P,U1,2,VOA*%
%TO.N,Net-(Feather_M4_CAN_Express1-D10)*%
X132015000Y-94615000D03*
%TO.P,U1,3,VIB*%
%TO.N,Net-(Feather_M4_CAN_Express1-D5)*%
X132015000Y-93345000D03*
%TO.P,U1,4,GND1*%
%TO.N,ISO_GND*%
X132015000Y-92075000D03*
%TO.P,U1,5,GND2*%
%TO.N,GND*%
X127065000Y-92075000D03*
%TO.P,U1,6,VOB*%
%TO.N,Net-(Rad_Fan_1-Pin_3)*%
X127065000Y-93345000D03*
%TO.P,U1,7,VIA*%
%TO.N,Net-(Rad_Fan_1-Pin_4)*%
X127065000Y-94615000D03*
%TO.P,U1,8,VDD2*%
%TO.N,+3.3V*%
X127065000Y-95885000D03*
%TD*%
D20*
%TO.P,LED_TEMP1,1,Pin_1*%
%TO.N,ISO_GND*%
X162580000Y-131555000D03*
D21*
%TO.P,LED_TEMP1,2,Pin_2*%
%TO.N,Net-(Feather_M4_CAN_Express1-A0)*%
X165080000Y-131555000D03*
%TD*%
D22*
%TO.P,U2,1,IN*%
%TO.N,+24V*%
X125095000Y-125905500D03*
D23*
%TO.P,U2,2,GND*%
%TO.N,GND*%
X127635000Y-125905500D03*
%TO.P,U2,3,OUT*%
%TO.N,+3.3V*%
X130175000Y-125905500D03*
%TD*%
D13*
%TO.P,R8,1*%
%TO.N,Net-(Rad_Fan_1-Pin_4)*%
X123039500Y-94488000D03*
%TO.P,R8,2*%
%TO.N,+3.3V*%
X124864500Y-94488000D03*
%TD*%
D19*
%TO.P,C15,1*%
%TO.N,GND*%
X124902000Y-98806000D03*
%TO.P,C15,2*%
%TO.N,Net-(PSU_Fan1-Pin_4)*%
X123002000Y-98806000D03*
%TD*%
D12*
%TO.P,C7,1*%
%TO.N,+ISO_3.3V*%
X134620000Y-102428000D03*
%TO.P,C7,2*%
%TO.N,ISO_GND*%
X134620000Y-104328000D03*
%TD*%
D24*
%TO.P,Display1,1,Pin_1*%
%TO.N,ISO_GND*%
X165294000Y-77741000D03*
D11*
%TO.P,Display1,2,Pin_2*%
%TO.N,+ISO_3.3V*%
X162794000Y-77741000D03*
%TO.P,Display1,3,Pin_3*%
%TO.N,Net-(Display1-Pin_3)*%
X160294000Y-77741000D03*
%TO.P,Display1,4,Pin_4*%
%TO.N,Net-(Display1-Pin_4)*%
X157794000Y-77741000D03*
%TD*%
D25*
%TO.P,C9,1*%
%TO.N,+24V*%
X119380000Y-77007323D03*
D26*
%TO.P,C9,2*%
%TO.N,GND*%
X119380000Y-82007323D03*
%TD*%
D27*
%TO.P,R12,1*%
%TO.N,+ISO_3.3V*%
X176019757Y-118364000D03*
%TO.P,R12,2*%
%TO.N,Net-(Feather_M4_CAN_Express1-A3)*%
X174194757Y-118364000D03*
%TD*%
D14*
%TO.P,Aux_Fan_1,1,Pin_1*%
%TO.N,GND*%
X106680000Y-125095000D03*
D15*
%TO.P,Aux_Fan_1,2,Pin_2*%
%TO.N,+24V*%
X106680000Y-122555000D03*
%TO.P,Aux_Fan_1,3,Pin_3*%
%TO.N,Net-(Aux_Fan_1-Pin_3)*%
X106680000Y-120015000D03*
%TO.P,Aux_Fan_1,4,Pin_4*%
%TO.N,Net-(Aux_Fan_1-Pin_4)*%
X106680000Y-117475000D03*
%TD*%
D12*
%TO.P,C6,1*%
%TO.N,+ISO_3.3V*%
X134620000Y-108778000D03*
%TO.P,C6,2*%
%TO.N,ISO_GND*%
X134620000Y-110678000D03*
%TD*%
D14*
%TO.P,Pump_1,1,Pin_1*%
%TO.N,GND*%
X116840000Y-125095000D03*
D15*
%TO.P,Pump_1,2,Pin_2*%
%TO.N,+24V*%
X116840000Y-122555000D03*
%TO.P,Pump_1,3,Pin_3*%
%TO.N,Net-(Pump_1-Pin_3)*%
X116840000Y-120015000D03*
%TO.P,Pump_1,4,Pin_4*%
%TO.N,Net-(Pump_1-Pin_4)*%
X116840000Y-117475000D03*
%TD*%
D28*
%TO.P,R13,1*%
%TO.N,Net-(Encoder1-Pin_2)*%
X161290000Y-94892500D03*
%TO.P,R13,2*%
%TO.N,+ISO_3.3V*%
X161290000Y-93067500D03*
%TD*%
D19*
%TO.P,C1,1*%
%TO.N,+3.3V*%
X124902000Y-115570000D03*
%TO.P,C1,2*%
%TO.N,GND*%
X123002000Y-115570000D03*
%TD*%
D28*
%TO.P,R16,1*%
%TO.N,/12V_AUX*%
X168910000Y-100400744D03*
%TO.P,R16,2*%
%TO.N,Net-(Q2-G)*%
X168910000Y-98575744D03*
%TD*%
D29*
%TO.P,R15,1*%
%TO.N,Net-(Q3-G)*%
X168910000Y-94845500D03*
%TO.P,R15,2*%
%TO.N,ISO_GND*%
X168910000Y-96670500D03*
%TD*%
D27*
%TO.P,R3,1*%
%TO.N,Net-(Switch1-Pin_1)*%
X171092500Y-122682000D03*
%TO.P,R3,2*%
%TO.N,Net-(Feather_M4_CAN_Express1-A2)*%
X169267500Y-122682000D03*
%TD*%
D30*
%TO.P,Q2,1,G*%
%TO.N,Net-(Q2-G)*%
X171290406Y-98598037D03*
%TO.P,Q2,2,S*%
%TO.N,/12V_AUX*%
X171290406Y-100498037D03*
%TO.P,Q2,3,D*%
%TO.N,/remote_on_off*%
X173165406Y-99548037D03*
%TD*%
D16*
%TO.P,U4,1,VDD1*%
%TO.N,+ISO_3.3V*%
X132015000Y-102235000D03*
%TO.P,U4,2,VOA*%
%TO.N,Net-(Feather_M4_CAN_Express1-D12)*%
X132015000Y-100965000D03*
%TO.P,U4,3,VIB*%
%TO.N,Net-(Feather_M4_CAN_Express1-D9)*%
X132015000Y-99695000D03*
%TO.P,U4,4,GND1*%
%TO.N,ISO_GND*%
X132015000Y-98425000D03*
%TO.P,U4,5,GND2*%
%TO.N,GND*%
X127065000Y-98425000D03*
%TO.P,U4,6,VOB*%
%TO.N,Net-(PSU_Fan1-Pin_3)*%
X127065000Y-99695000D03*
%TO.P,U4,7,VIA*%
%TO.N,Net-(PSU_Fan1-Pin_4)*%
X127065000Y-100965000D03*
%TO.P,U4,8,VDD2*%
%TO.N,+3.3V*%
X127065000Y-102235000D03*
%TD*%
D13*
%TO.P,R4,1*%
%TO.N,GND*%
X128627500Y-89408000D03*
%TO.P,R4,2*%
%TO.N,ISO_GND*%
X130452500Y-89408000D03*
%TD*%
D29*
%TO.P,R9,1*%
%TO.N,ISO_GND*%
X175387000Y-98655500D03*
%TO.P,R9,2*%
%TO.N,/remote_on_off*%
X175387000Y-100480500D03*
%TD*%
D14*
%TO.P,PSU_Fan1,1,Pin_1*%
%TO.N,GND*%
X116860000Y-113665000D03*
D15*
%TO.P,PSU_Fan1,2,Pin_2*%
%TO.N,+24V*%
X116860000Y-111125000D03*
%TO.P,PSU_Fan1,3,Pin_3*%
%TO.N,Net-(PSU_Fan1-Pin_3)*%
X116860000Y-108585000D03*
%TO.P,PSU_Fan1,4,Pin_4*%
%TO.N,Net-(PSU_Fan1-Pin_4)*%
X116860000Y-106045000D03*
%TD*%
D31*
%TO.P,24V1,1,Pin_1*%
%TO.N,GND*%
X107950000Y-84455000D03*
D32*
%TO.P,24V1,2,Pin_2*%
%TO.N,+24V*%
X107950000Y-89535000D03*
%TD*%
D14*
%TO.P,Rad_Fan_2,1,Pin_1*%
%TO.N,GND*%
X116840000Y-102235000D03*
D15*
%TO.P,Rad_Fan_2,2,Pin_2*%
%TO.N,+24V*%
X116840000Y-99695000D03*
%TO.P,Rad_Fan_2,3,Pin_3*%
%TO.N,Net-(Rad_Fan_1-Pin_3)*%
X116840000Y-97155000D03*
%TO.P,Rad_Fan_2,4,Pin_4*%
%TO.N,unconnected-(Rad_Fan_2-Pin_4-Pad4)*%
X116840000Y-94615000D03*
%TD*%
D13*
%TO.P,R7,1*%
%TO.N,Net-(PSU_Fan1-Pin_4)*%
X123039500Y-100838000D03*
%TO.P,R7,2*%
%TO.N,+3.3V*%
X124864500Y-100838000D03*
%TD*%
D19*
%TO.P,C10,1*%
%TO.N,GND*%
X124902000Y-111506000D03*
%TO.P,C10,2*%
%TO.N,Net-(Aux_Fan_1-Pin_4)*%
X123002000Y-111506000D03*
%TD*%
%TO.P,C2,1*%
%TO.N,+3.3V*%
X124902000Y-109220000D03*
%TO.P,C2,2*%
%TO.N,GND*%
X123002000Y-109220000D03*
%TD*%
D17*
%TO.P,Remote1,1,Pin_1*%
%TO.N,/remote_on_off*%
X172703000Y-108946000D03*
D18*
%TO.P,Remote1,2,Pin_2*%
%TO.N,/12V_AUX*%
X172703000Y-106446000D03*
%TD*%
D16*
%TO.P,U5,1,VDD1*%
%TO.N,+ISO_3.3V*%
X132015000Y-108585000D03*
%TO.P,U5,2,VOA*%
%TO.N,Net-(Feather_M4_CAN_Express1-D11)*%
X132015000Y-107315000D03*
%TO.P,U5,3,VIB*%
%TO.N,Net-(Feather_M4_CAN_Express1-D6)*%
X132015000Y-106045000D03*
%TO.P,U5,4,GND1*%
%TO.N,ISO_GND*%
X132015000Y-104775000D03*
%TO.P,U5,5,GND2*%
%TO.N,GND*%
X127065000Y-104775000D03*
%TO.P,U5,6,VOB*%
%TO.N,Net-(Pump_1-Pin_3)*%
X127065000Y-106045000D03*
%TO.P,U5,7,VIA*%
%TO.N,Net-(Pump_1-Pin_4)*%
X127065000Y-107315000D03*
%TO.P,U5,8,VDD2*%
%TO.N,+3.3V*%
X127065000Y-108585000D03*
%TD*%
D20*
%TO.P,WATER_TEMP1,1,Pin_1*%
%TO.N,ISO_GND*%
X162580000Y-123681000D03*
D21*
%TO.P,WATER_TEMP1,2,Pin_2*%
%TO.N,Net-(Feather_M4_CAN_Express1-A1)*%
X165080000Y-123681000D03*
%TD*%
D33*
%TO.P,U3,1,GND*%
%TO.N,ISO_GND*%
X151062733Y-76803668D03*
D34*
%TO.P,U3,2,VO*%
%TO.N,+ISO_3.3V*%
X151062733Y-79343668D03*
%TO.P,U3,3,VI*%
%TO.N,+ISO_5V*%
X151062733Y-81883668D03*
%TD*%
D12*
%TO.P,C18,1*%
%TO.N,ISO_GND*%
X163576000Y-93030000D03*
%TO.P,C18,2*%
%TO.N,Net-(Encoder1-Pin_2)*%
X163576000Y-94930000D03*
%TD*%
D19*
%TO.P,C4,1*%
%TO.N,+3.3V*%
X124902000Y-96520000D03*
%TO.P,C4,2*%
%TO.N,GND*%
X123002000Y-96520000D03*
%TD*%
D28*
%TO.P,R14,1*%
%TO.N,Net-(Encoder1-Pin_3)*%
X161290000Y-98635860D03*
%TO.P,R14,2*%
%TO.N,+ISO_3.3V*%
X161290000Y-96810860D03*
%TD*%
D19*
%TO.P,C16,1*%
%TO.N,GND*%
X124902000Y-92456000D03*
%TO.P,C16,2*%
%TO.N,Net-(Rad_Fan_1-Pin_4)*%
X123002000Y-92456000D03*
%TD*%
D13*
%TO.P,R6,1*%
%TO.N,Net-(Pump_1-Pin_4)*%
X123039500Y-107188000D03*
%TO.P,R6,2*%
%TO.N,+3.3V*%
X124864500Y-107188000D03*
%TD*%
D27*
%TO.P,R1,1*%
%TO.N,+ISO_3.3V*%
X171092500Y-124968000D03*
%TO.P,R1,2*%
%TO.N,Net-(Feather_M4_CAN_Express1-A1)*%
X169267500Y-124968000D03*
%TD*%
D12*
%TO.P,C5,1*%
%TO.N,+ISO_3.3V*%
X134620000Y-115128000D03*
%TO.P,C5,2*%
%TO.N,ISO_GND*%
X134620000Y-117028000D03*
%TD*%
D14*
%TO.P,Rad_Fan_1,1,Pin_1*%
%TO.N,GND*%
X106680000Y-102235000D03*
D15*
%TO.P,Rad_Fan_1,2,Pin_2*%
%TO.N,+24V*%
X106680000Y-99695000D03*
%TO.P,Rad_Fan_1,3,Pin_3*%
%TO.N,Net-(Rad_Fan_1-Pin_3)*%
X106680000Y-97155000D03*
%TO.P,Rad_Fan_1,4,Pin_4*%
%TO.N,Net-(Rad_Fan_1-Pin_4)*%
X106680000Y-94615000D03*
%TD*%
D35*
%TO.P,C12,1*%
%TO.N,+ISO_3.3V*%
X156384701Y-83754000D03*
%TO.P,C12,2*%
%TO.N,ISO_GND*%
X156384701Y-81854000D03*
%TD*%
D12*
%TO.P,C11,1*%
%TO.N,+3.3V*%
X133096000Y-129606000D03*
%TO.P,C11,2*%
%TO.N,GND*%
X133096000Y-131506000D03*
%TD*%
D30*
%TO.P,Q3,1,G*%
%TO.N,Net-(Q3-G)*%
X171274500Y-94808000D03*
%TO.P,Q3,2,S*%
%TO.N,ISO_GND*%
X171274500Y-96708000D03*
%TO.P,Q3,3,D*%
%TO.N,Net-(Q2-G)*%
X173149500Y-95758000D03*
%TD*%
D36*
%TO.P,C13,1*%
%TO.N,+ISO_5V*%
X139749000Y-86995000D03*
%TO.P,C13,2*%
%TO.N,ISO_GND*%
X142699000Y-86995000D03*
%TD*%
D12*
%TO.P,C8,1*%
%TO.N,+ISO_3.3V*%
X134620000Y-96078000D03*
%TO.P,C8,2*%
%TO.N,ISO_GND*%
X134620000Y-97978000D03*
%TD*%
D37*
%TO.P,D1,1,K*%
%TO.N,+24V*%
X114300000Y-132080000D03*
D38*
%TO.P,D1,2,A*%
%TO.N,GND*%
X129540000Y-132080000D03*
%TD*%
D27*
%TO.P,R2,1*%
%TO.N,+ISO_3.3V*%
X171092500Y-127254000D03*
%TO.P,R2,2*%
%TO.N,Net-(Feather_M4_CAN_Express1-A0)*%
X169267500Y-127254000D03*
%TD*%
D39*
%TO.P,Feather_M4_CAN_Express1,28,VBAT*%
%TO.N,unconnected-(Feather_M4_CAN_Express1-VBAT-Pad28)*%
X137460000Y-119380000D03*
%TO.P,Feather_M4_CAN_Express1,27,EN*%
%TO.N,unconnected-(Feather_M4_CAN_Express1-EN-Pad27)*%
X137460000Y-116840000D03*
%TO.P,Feather_M4_CAN_Express1,26,USB*%
%TO.N,unconnected-(Feather_M4_CAN_Express1-USB-Pad26)*%
X137460000Y-114300000D03*
%TO.P,Feather_M4_CAN_Express1,25,D13*%
%TO.N,Net-(Feather_M4_CAN_Express1-D13)*%
X137460000Y-111760000D03*
%TO.P,Feather_M4_CAN_Express1,24,D12*%
%TO.N,Net-(Feather_M4_CAN_Express1-D12)*%
X137460000Y-109220000D03*
%TO.P,Feather_M4_CAN_Express1,23,D11*%
%TO.N,Net-(Feather_M4_CAN_Express1-D11)*%
X137460000Y-106680000D03*
%TO.P,Feather_M4_CAN_Express1,22,D10*%
%TO.N,Net-(Feather_M4_CAN_Express1-D10)*%
X137460000Y-104140000D03*
%TO.P,Feather_M4_CAN_Express1,21,D9*%
%TO.N,Net-(Feather_M4_CAN_Express1-D9)*%
X137460000Y-101600000D03*
%TO.P,Feather_M4_CAN_Express1,20,D6*%
%TO.N,Net-(Feather_M4_CAN_Express1-D6)*%
X137460000Y-99060000D03*
%TO.P,Feather_M4_CAN_Express1,19,D5*%
%TO.N,Net-(Feather_M4_CAN_Express1-D5)*%
X137460000Y-96520000D03*
%TO.P,Feather_M4_CAN_Express1,18,SCL*%
%TO.N,Net-(Display1-Pin_3)*%
X137460000Y-93980000D03*
%TO.P,Feather_M4_CAN_Express1,17,SDA*%
%TO.N,Net-(Display1-Pin_4)*%
X137460000Y-91440000D03*
%TO.P,Feather_M4_CAN_Express1,16,D4*%
%TO.N,Net-(Feather_M4_CAN_Express1-D4)*%
X157180000Y-91440000D03*
%TO.P,Feather_M4_CAN_Express1,15,TX*%
%TO.N,Net-(Encoder1-Pin_2)*%
X157180000Y-93980000D03*
%TO.P,Feather_M4_CAN_Express1,14,RX*%
%TO.N,Net-(Encoder1-Pin_3)*%
X157180000Y-96520000D03*
%TO.P,Feather_M4_CAN_Express1,13,MISO*%
%TO.N,unconnected-(Feather_M4_CAN_Express1-MISO-Pad13)*%
X157180000Y-99060000D03*
%TO.P,Feather_M4_CAN_Express1,12,MOSI*%
%TO.N,unconnected-(Feather_M4_CAN_Express1-MOSI-Pad12)*%
X157180000Y-101600000D03*
%TO.P,Feather_M4_CAN_Express1,11,SCK*%
%TO.N,unconnected-(Feather_M4_CAN_Express1-SCK-Pad11)*%
X157180000Y-104140000D03*
%TO.P,Feather_M4_CAN_Express1,10,A5*%
%TO.N,unconnected-(Feather_M4_CAN_Express1-A5-Pad10)*%
X157180000Y-106680000D03*
%TO.P,Feather_M4_CAN_Express1,9,A4*%
%TO.N,Net-(Feather_M4_CAN_Express1-A4)*%
X157180000Y-109220000D03*
%TO.P,Feather_M4_CAN_Express1,8,A3*%
%TO.N,Net-(Feather_M4_CAN_Express1-A3)*%
X157180000Y-111760000D03*
%TO.P,Feather_M4_CAN_Express1,7,A2*%
%TO.N,Net-(Feather_M4_CAN_Express1-A2)*%
X157180000Y-114300000D03*
%TO.P,Feather_M4_CAN_Express1,6,A1*%
%TO.N,Net-(Feather_M4_CAN_Express1-A1)*%
X157180000Y-116840000D03*
%TO.P,Feather_M4_CAN_Express1,5,A0*%
%TO.N,Net-(Feather_M4_CAN_Express1-A0)*%
X157180000Y-119380000D03*
%TO.P,Feather_M4_CAN_Express1,4,GND*%
%TO.N,ISO_GND*%
X157180000Y-121920000D03*
%TO.P,Feather_M4_CAN_Express1,3,AREF*%
%TO.N,unconnected-(Feather_M4_CAN_Express1-AREF-Pad3)*%
X157180000Y-124460000D03*
%TO.P,Feather_M4_CAN_Express1,2,3V3*%
%TO.N,+ISO_3.3V*%
X157180000Y-127000000D03*
D40*
%TO.P,Feather_M4_CAN_Express1,1,~{RESET}*%
%TO.N,unconnected-(Feather_M4_CAN_Express1-~{RESET}-Pad1)*%
X157180000Y-129540000D03*
%TD*%
D41*
%TO.P,C17,1*%
%TO.N,Net-(Feather_M4_CAN_Express1-A3)*%
X174179219Y-116078000D03*
%TO.P,C17,2*%
%TO.N,ISO_GND*%
X176079219Y-116078000D03*
%TD*%
D42*
%TO.P,24V_5V_Buck_ISO1,1,-Vin*%
%TO.N,GND*%
X128270000Y-76617500D03*
%TO.P,24V_5V_Buck_ISO1,2,+Vin*%
%TO.N,+24V*%
X130810000Y-76617500D03*
%TO.P,24V_5V_Buck_ISO1,3,R.C.*%
%TO.N,unconnected-(24V_5V_Buck_ISO1-R.C.-Pad3)*%
X133350000Y-76617500D03*
%TO.P,24V_5V_Buck_ISO1,6,+Vout*%
%TO.N,+ISO_5V*%
X140970000Y-76617500D03*
%TO.P,24V_5V_Buck_ISO1,7,-Vout*%
%TO.N,ISO_GND*%
X143510000Y-76617500D03*
%TO.P,24V_5V_Buck_ISO1,8,N.C.*%
%TO.N,unconnected-(24V_5V_Buck_ISO1-N.C.-Pad8)*%
X146050000Y-76617500D03*
%TD*%
D19*
%TO.P,C14,1*%
%TO.N,GND*%
X124902000Y-105156000D03*
%TO.P,C14,2*%
%TO.N,Net-(Pump_1-Pin_4)*%
X123002000Y-105156000D03*
%TD*%
D43*
%TO.N,ISO_GND*%
X163576000Y-93030000D03*
X134620000Y-110678000D03*
X132015000Y-92075000D03*
X175387000Y-98655500D03*
X168910000Y-96670500D03*
X142748000Y-87630000D03*
X134620000Y-104328000D03*
X163576000Y-96773360D03*
X130452500Y-89408000D03*
X142748000Y-86360000D03*
X176079219Y-116078000D03*
X134620000Y-117028000D03*
X134620000Y-97978000D03*
%TO.N,+ISO_3.3V*%
X161290000Y-93067500D03*
X161290000Y-96810860D03*
X134587000Y-115095000D03*
X134620000Y-108778000D03*
X134620000Y-102428000D03*
X171092500Y-127254000D03*
X134620000Y-96078000D03*
X176019757Y-118364000D03*
%TO.N,GND*%
X124902000Y-92456000D03*
X128627500Y-89408000D03*
X123002000Y-96520000D03*
X124902000Y-105156000D03*
X123002000Y-115570000D03*
X123002000Y-102870000D03*
X123002000Y-109220000D03*
X124902000Y-111506000D03*
X124902000Y-98806000D03*
%TO.N,Net-(Aux_Fan_1-Pin_3)*%
X127065000Y-112395000D03*
%TO.N,Net-(Aux_Fan_1-Pin_4)*%
X123039500Y-113538000D03*
X127065000Y-113665000D03*
%TO.N,+3.3V*%
X124902000Y-109220000D03*
X124902000Y-96520000D03*
X124902000Y-115570000D03*
X124902000Y-102870000D03*
%TO.N,Net-(Feather_M4_CAN_Express1-D10)*%
X132015000Y-94615000D03*
%TO.N,Net-(PSU_Fan1-Pin_3)*%
X127065000Y-99695000D03*
%TO.N,Net-(PSU_Fan1-Pin_4)*%
X123039500Y-100838000D03*
X127065000Y-100965000D03*
%TO.N,Net-(Pump_1-Pin_4)*%
X127065000Y-107315000D03*
X123039500Y-107188000D03*
%TO.N,Net-(Pump_1-Pin_3)*%
X127065000Y-106045000D03*
%TO.N,Net-(Rad_Fan_1-Pin_4)*%
X127065000Y-94615000D03*
X123039500Y-94488000D03*
%TO.N,Net-(Rad_Fan_1-Pin_3)*%
X127065000Y-93345000D03*
%TO.N,Net-(Feather_M4_CAN_Express1-D12)*%
X132015000Y-100965000D03*
%TD*%
D44*
%TO.N,ISO_GND*%
X134173000Y-104775000D02*
X134620000Y-104328000D01*
X130467499Y-89393001D02*
X130452500Y-89408000D01*
X134173000Y-111125000D02*
X134620000Y-110678000D01*
X171274500Y-96708000D02*
X168947500Y-96708000D01*
X168504860Y-96670500D02*
X168910000Y-96670500D01*
X168947500Y-96708000D02*
X168910000Y-96670500D01*
X168486500Y-96670500D02*
X168910000Y-96670500D01*
X132015000Y-98425000D02*
X134173000Y-98425000D01*
X134173000Y-98425000D02*
X134620000Y-97978000D01*
X132015000Y-111125000D02*
X134173000Y-111125000D01*
X132015000Y-104775000D02*
X134173000Y-104775000D01*
D45*
X151334369Y-76803668D02*
X156384701Y-81854000D01*
X151062733Y-76803668D02*
X151334369Y-76803668D01*
D44*
%TO.N,+ISO_3.3V*%
X134427000Y-95885000D02*
X134620000Y-96078000D01*
X134587000Y-115095000D02*
X134620000Y-115128000D01*
X134427000Y-102235000D02*
X134620000Y-102428000D01*
X134427000Y-108585000D02*
X134620000Y-108778000D01*
X132015000Y-114935000D02*
X134427000Y-114935000D01*
X132015000Y-95885000D02*
X134427000Y-95885000D01*
X171092500Y-127254000D02*
X171092500Y-124968000D01*
X132015000Y-108585000D02*
X134427000Y-108585000D01*
X134427000Y-114935000D02*
X134587000Y-115095000D01*
D45*
X151062733Y-79343668D02*
X155473065Y-83754000D01*
D44*
X132015000Y-102235000D02*
X134427000Y-102235000D01*
D45*
X155473065Y-83754000D02*
X156384701Y-83754000D01*
D44*
%TO.N,GND*%
X127065000Y-104775000D02*
X125283000Y-104775000D01*
X125283000Y-111125000D02*
X124902000Y-111506000D01*
D45*
X127635000Y-126045000D02*
X133096000Y-131506000D01*
D44*
X125283000Y-104775000D02*
X124902000Y-105156000D01*
X127065000Y-92075000D02*
X125283000Y-92075000D01*
X125283000Y-98425000D02*
X124902000Y-98806000D01*
X125283000Y-92075000D02*
X124902000Y-92456000D01*
X127065000Y-111125000D02*
X125283000Y-111125000D01*
D45*
X127635000Y-125905500D02*
X127635000Y-126045000D01*
D44*
X127065000Y-98425000D02*
X125283000Y-98425000D01*
%TO.N,Net-(Aux_Fan_1-Pin_4)*%
X123039500Y-111543500D02*
X123002000Y-111506000D01*
X123039500Y-113538000D02*
X123039500Y-111543500D01*
%TO.N,+3.3V*%
X125537000Y-102235000D02*
X124902000Y-102870000D01*
X127065000Y-95885000D02*
X125537000Y-95885000D01*
X124902000Y-102870000D02*
X124902000Y-100875500D01*
X124902000Y-109220000D02*
X124902000Y-107225500D01*
X127065000Y-102235000D02*
X125537000Y-102235000D01*
X124902000Y-100875500D02*
X124864500Y-100838000D01*
D45*
X130175000Y-125905500D02*
X130175000Y-126685000D01*
D44*
X125537000Y-114935000D02*
X124902000Y-115570000D01*
X127065000Y-108585000D02*
X125537000Y-108585000D01*
X124902000Y-107225500D02*
X124864500Y-107188000D01*
X124902000Y-96520000D02*
X124902000Y-94525500D01*
D45*
X130175000Y-126685000D02*
X133096000Y-129606000D01*
D44*
X127065000Y-114935000D02*
X125537000Y-114935000D01*
X125537000Y-108585000D02*
X124902000Y-109220000D01*
X124902000Y-94525500D02*
X124864500Y-94488000D01*
X124902000Y-113575500D02*
X124864500Y-113538000D01*
X124902000Y-115570000D02*
X124902000Y-113575500D01*
X125537000Y-95885000D02*
X124902000Y-96520000D01*
%TO.N,/12V_AUX*%
X171290406Y-100498037D02*
X169007293Y-100498037D01*
X169007293Y-100498037D02*
X168910000Y-100400744D01*
X172703000Y-106446000D02*
X172703000Y-101910631D01*
X172703000Y-101910631D02*
X171290406Y-100498037D01*
%TO.N,Net-(Feather_M4_CAN_Express1-A3)*%
X166073000Y-111760000D02*
X157480000Y-111760000D01*
X174179219Y-116078000D02*
X170391000Y-116078000D01*
X174179219Y-118348462D02*
X174194757Y-118364000D01*
X170120000Y-115807000D02*
X166073000Y-111760000D01*
X170391000Y-116078000D02*
X170120000Y-115807000D01*
X174179219Y-116078000D02*
X174179219Y-118348462D01*
%TO.N,Net-(Feather_M4_CAN_Express1-D5)*%
X132015000Y-93345000D02*
X133985000Y-93345000D01*
X133985000Y-93345000D02*
X137160000Y-96520000D01*
D45*
%TO.N,+ISO_5V*%
X151062733Y-81883668D02*
X146236168Y-81883668D01*
X139749000Y-86995000D02*
X139749000Y-77838500D01*
D44*
X170617000Y-85076000D02*
X154255065Y-85076000D01*
X171918000Y-86377000D02*
X170617000Y-85076000D01*
D45*
X146236168Y-81883668D02*
X140970000Y-76617500D01*
X139749000Y-77838500D02*
X140970000Y-76617500D01*
D44*
X154255065Y-85076000D02*
X151062733Y-81883668D01*
%TO.N,Net-(Feather_M4_CAN_Express1-A0)*%
X158806000Y-125281000D02*
X158806000Y-120706000D01*
X169267500Y-127254000D02*
X165080000Y-131441500D01*
X158806000Y-120706000D02*
X157480000Y-119380000D01*
X165080000Y-131441500D02*
X165080000Y-131555000D01*
X165080000Y-131555000D02*
X158806000Y-125281000D01*
%TO.N,Net-(Switch1-Pin_1)*%
X163921000Y-117108000D02*
X165518500Y-117108000D01*
X162620000Y-115807000D02*
X163921000Y-117108000D01*
X165518500Y-117108000D02*
X171092500Y-122682000D01*
%TO.N,Net-(Feather_M4_CAN_Express1-D4)*%
X134449514Y-112395000D02*
X136498514Y-110346000D01*
X136498514Y-110346000D02*
X138574000Y-110346000D01*
X138574000Y-110346000D02*
X157480000Y-91440000D01*
X132015000Y-112395000D02*
X134449514Y-112395000D01*
%TO.N,Net-(Feather_M4_CAN_Express1-D9)*%
X132015000Y-99695000D02*
X135255000Y-99695000D01*
X135255000Y-99695000D02*
X137160000Y-101600000D01*
%TO.N,Net-(PSU_Fan1-Pin_4)*%
X123039500Y-98843500D02*
X123002000Y-98806000D01*
X123039500Y-100838000D02*
X123039500Y-98843500D01*
%TO.N,Net-(Pump_1-Pin_4)*%
X123039500Y-107188000D02*
X123039500Y-105193500D01*
X123039500Y-105193500D02*
X123002000Y-105156000D01*
%TO.N,Net-(Encoder1-Pin_3)*%
X163538500Y-98635860D02*
X163576000Y-98673360D01*
X159595860Y-98635860D02*
X161290000Y-98635860D01*
X167369000Y-88426000D02*
X169418000Y-86377000D01*
X167369000Y-94880360D02*
X167369000Y-88426000D01*
X163576000Y-98673360D02*
X167369000Y-94880360D01*
X161290000Y-98635860D02*
X163538500Y-98635860D01*
X157480000Y-96520000D02*
X159595860Y-98635860D01*
%TO.N,Net-(Encoder1-Pin_2)*%
X161290000Y-94892500D02*
X163538500Y-94892500D01*
X163538500Y-94892500D02*
X163576000Y-94930000D01*
X166918000Y-91588000D02*
X166918000Y-86377000D01*
X158392500Y-94892500D02*
X157480000Y-93980000D01*
X161290000Y-94892500D02*
X158392500Y-94892500D01*
X163576000Y-94930000D02*
X166918000Y-91588000D01*
%TO.N,Net-(Feather_M4_CAN_Express1-D6)*%
X132506000Y-105554000D02*
X138138404Y-105554000D01*
X139192000Y-101092000D02*
X137160000Y-99060000D01*
X139192000Y-104500404D02*
X139192000Y-101092000D01*
X138138404Y-105554000D02*
X139192000Y-104500404D01*
X132015000Y-106045000D02*
X132506000Y-105554000D01*
%TO.N,/remote_on_off*%
X174029000Y-100411631D02*
X173165406Y-99548037D01*
X172703000Y-108946000D02*
X174029000Y-107620000D01*
D46*
X175387000Y-100480500D02*
X174097869Y-100480500D01*
D44*
X174029000Y-107620000D02*
X174029000Y-100411631D01*
D46*
X174097869Y-100480500D02*
X174029000Y-100411631D01*
D44*
%TO.N,Net-(Feather_M4_CAN_Express1-D11)*%
X136525000Y-107315000D02*
X137160000Y-106680000D01*
X132015000Y-107315000D02*
X136525000Y-107315000D01*
%TO.N,Net-(Feather_M4_CAN_Express1-A1)*%
X166367000Y-124968000D02*
X165080000Y-123681000D01*
X165080000Y-123681000D02*
X158239000Y-116840000D01*
X158239000Y-116840000D02*
X157480000Y-116840000D01*
X169267500Y-124968000D02*
X166367000Y-124968000D01*
%TO.N,Net-(Rad_Fan_1-Pin_4)*%
X123002000Y-92456000D02*
X123002000Y-94450500D01*
X123002000Y-94450500D02*
X123039500Y-94488000D01*
%TO.N,Net-(Feather_M4_CAN_Express1-D13)*%
X135255000Y-113665000D02*
X137160000Y-111760000D01*
X132015000Y-113665000D02*
X135255000Y-113665000D01*
%TO.N,Net-(Q2-G)*%
X168932293Y-98598037D02*
X168910000Y-98575744D01*
X173149500Y-95758000D02*
X173149500Y-96738943D01*
X173149500Y-96738943D02*
X171290406Y-98598037D01*
X171290406Y-98598037D02*
X168932293Y-98598037D01*
%TO.N,Net-(Feather_M4_CAN_Express1-D12)*%
X136652000Y-109728000D02*
X137160000Y-109220000D01*
%TO.N,Net-(Feather_M4_CAN_Express1-A2)*%
X167348486Y-122682000D02*
X158966486Y-114300000D01*
X158966486Y-114300000D02*
X157480000Y-114300000D01*
X169267500Y-122682000D02*
X167348486Y-122682000D01*
%TO.N,Net-(Feather_M4_CAN_Express1-A4)*%
X160254000Y-106446000D02*
X157480000Y-109220000D01*
X163813000Y-106446000D02*
X160254000Y-106446000D01*
%TO.N,Net-(Q3-G)*%
X163813000Y-108946000D02*
X165843500Y-106915500D01*
X168947500Y-94808000D02*
X168910000Y-94845500D01*
X165843500Y-106915500D02*
X165852000Y-106907000D01*
X171274500Y-94808000D02*
X168947500Y-94808000D01*
X165843500Y-97912000D02*
X165843500Y-106915500D01*
X168910000Y-94845500D02*
X165843500Y-97912000D01*
%TD*%
%TA.AperFunction,Conductor*%
%TO.N,+24V*%
G36*
X134563039Y-74187685D02*
G01*
X134608794Y-74240489D01*
X134620000Y-74292000D01*
X134620000Y-76083553D01*
X134600315Y-76150592D01*
X134547511Y-76196347D01*
X134478353Y-76206291D01*
X134414797Y-76177266D01*
X134385515Y-76139848D01*
X134356831Y-76083553D01*
X134324588Y-76020272D01*
X134282773Y-75962718D01*
X134219167Y-75875171D01*
X134219163Y-75875166D01*
X134092333Y-75748336D01*
X134092328Y-75748332D01*
X133947231Y-75642914D01*
X133947230Y-75642913D01*
X133947228Y-75642912D01*
X133787416Y-75561484D01*
X133616834Y-75506058D01*
X133616832Y-75506057D01*
X133616830Y-75506057D01*
X133439686Y-75478000D01*
X133439681Y-75478000D01*
X133260319Y-75478000D01*
X133260314Y-75478000D01*
X133083169Y-75506057D01*
X132912581Y-75561485D01*
X132752768Y-75642914D01*
X132607671Y-75748332D01*
X132607666Y-75748336D01*
X132480836Y-75875166D01*
X132480832Y-75875171D01*
X132375414Y-76020268D01*
X132293985Y-76180081D01*
X132238557Y-76350669D01*
X132210500Y-76527813D01*
X132210500Y-76707186D01*
X132238557Y-76884330D01*
X132238558Y-76884334D01*
X132293984Y-77054916D01*
X132343168Y-77151446D01*
X132375414Y-77214731D01*
X132480832Y-77359828D01*
X132480836Y-77359833D01*
X132607666Y-77486663D01*
X132607671Y-77486667D01*
X132734232Y-77578618D01*
X132752772Y-77592088D01*
X132912584Y-77673516D01*
X133083166Y-77728942D01*
X133149598Y-77739463D01*
X133260314Y-77757000D01*
X133260319Y-77757000D01*
X133439686Y-77757000D01*
X133538099Y-77741412D01*
X133616834Y-77728942D01*
X133787416Y-77673516D01*
X133947228Y-77592088D01*
X134092335Y-77486662D01*
X134219162Y-77359835D01*
X134324588Y-77214728D01*
X134385515Y-77095150D01*
X134433489Y-77044355D01*
X134501310Y-77027560D01*
X134567445Y-77050097D01*
X134610897Y-77104812D01*
X134620000Y-77151446D01*
X134620000Y-83696000D01*
X134600315Y-83763039D01*
X134547511Y-83808794D01*
X134496000Y-83820000D01*
X120889000Y-83820000D01*
X120903999Y-118363999D01*
X120904000Y-118364000D01*
X134496000Y-118364000D01*
X134563039Y-118383685D01*
X134608794Y-118436489D01*
X134620000Y-118488000D01*
X134620000Y-135004000D01*
X134600315Y-135071039D01*
X134547511Y-135116794D01*
X134496000Y-135128000D01*
X108683362Y-135128000D01*
X108616323Y-135108315D01*
X108595681Y-135091681D01*
X107563899Y-134059899D01*
X107530414Y-133998576D01*
X107535398Y-133928884D01*
X107577270Y-133872951D01*
X107589568Y-133864837D01*
X107793803Y-133746924D01*
X108001851Y-133587282D01*
X108001855Y-133587277D01*
X108001860Y-133587274D01*
X108187274Y-133401860D01*
X108187277Y-133401855D01*
X108187282Y-133401851D01*
X108346924Y-133193803D01*
X108478043Y-132966697D01*
X108578398Y-132724419D01*
X108646270Y-132471116D01*
X108680500Y-132211120D01*
X108680500Y-131958711D01*
X127689500Y-131958711D01*
X127689500Y-132201288D01*
X127721161Y-132441785D01*
X127783947Y-132676104D01*
X127872546Y-132890000D01*
X127876776Y-132900212D01*
X127998064Y-133110289D01*
X127998066Y-133110292D01*
X127998067Y-133110293D01*
X128145733Y-133302736D01*
X128145739Y-133302743D01*
X128317256Y-133474260D01*
X128317262Y-133474265D01*
X128509711Y-133621936D01*
X128719788Y-133743224D01*
X128943900Y-133836054D01*
X129178211Y-133898838D01*
X129358586Y-133922584D01*
X129418711Y-133930500D01*
X129418712Y-133930500D01*
X129661289Y-133930500D01*
X129709388Y-133924167D01*
X129901789Y-133898838D01*
X130136100Y-133836054D01*
X130360212Y-133743224D01*
X130570289Y-133621936D01*
X130762738Y-133474265D01*
X130934265Y-133302738D01*
X131081936Y-133110289D01*
X131203224Y-132900212D01*
X131296054Y-132676100D01*
X131358838Y-132441789D01*
X131390500Y-132201288D01*
X131390500Y-131958712D01*
X131389206Y-131948886D01*
X131358838Y-131718214D01*
X131358838Y-131718211D01*
X131296054Y-131483900D01*
X131203224Y-131259788D01*
X131081936Y-131049711D01*
X131017853Y-130966196D01*
X130934266Y-130857263D01*
X130934260Y-130857256D01*
X130762743Y-130685739D01*
X130762736Y-130685733D01*
X130570293Y-130538067D01*
X130570292Y-130538066D01*
X130570289Y-130538064D01*
X130360212Y-130416776D01*
X130360205Y-130416773D01*
X130136104Y-130323947D01*
X129901785Y-130261161D01*
X129661289Y-130229500D01*
X129661288Y-130229500D01*
X129418712Y-130229500D01*
X129418711Y-130229500D01*
X129178214Y-130261161D01*
X128943895Y-130323947D01*
X128719794Y-130416773D01*
X128719785Y-130416777D01*
X128509706Y-130538067D01*
X128317263Y-130685733D01*
X128317256Y-130685739D01*
X128145739Y-130857256D01*
X128145733Y-130857263D01*
X127998067Y-131049706D01*
X127876777Y-131259785D01*
X127876773Y-131259794D01*
X127783947Y-131483895D01*
X127721161Y-131718214D01*
X127689500Y-131958711D01*
X108680500Y-131958711D01*
X108680500Y-131948880D01*
X108646270Y-131688884D01*
X108578398Y-131435581D01*
X108488536Y-131218635D01*
X108478046Y-131193309D01*
X108478041Y-131193299D01*
X108346924Y-130966196D01*
X108187281Y-130758148D01*
X108187274Y-130758140D01*
X108001860Y-130572726D01*
X108001851Y-130572718D01*
X107793803Y-130413075D01*
X107566700Y-130281958D01*
X107566690Y-130281953D01*
X107324428Y-130181605D01*
X107324421Y-130181603D01*
X107324419Y-130181602D01*
X107071116Y-130113730D01*
X107013339Y-130106123D01*
X106811127Y-130079500D01*
X106811120Y-130079500D01*
X106548880Y-130079500D01*
X106548872Y-130079500D01*
X106317772Y-130109926D01*
X106288884Y-130113730D01*
X106035581Y-130181602D01*
X106035571Y-130181605D01*
X105793309Y-130281953D01*
X105793299Y-130281958D01*
X105566196Y-130413075D01*
X105358148Y-130572718D01*
X105172718Y-130758148D01*
X105013075Y-130966196D01*
X104895168Y-131170419D01*
X104844601Y-131218635D01*
X104775994Y-131231858D01*
X104711129Y-131205890D01*
X104700100Y-131196100D01*
X103668319Y-130164319D01*
X103634834Y-130102996D01*
X103632000Y-130076638D01*
X103632000Y-126404043D01*
X126634499Y-126404043D01*
X126672947Y-126597329D01*
X126672950Y-126597339D01*
X126748364Y-126779407D01*
X126748371Y-126779420D01*
X126857860Y-126943281D01*
X126857863Y-126943285D01*
X126997214Y-127082636D01*
X126997218Y-127082639D01*
X127161079Y-127192128D01*
X127161092Y-127192135D01*
X127340195Y-127266321D01*
X127343165Y-127267551D01*
X127343169Y-127267551D01*
X127343170Y-127267552D01*
X127536456Y-127306000D01*
X127536459Y-127306000D01*
X127733543Y-127306000D01*
X127863582Y-127280132D01*
X127926835Y-127267551D01*
X128007903Y-127233970D01*
X128077372Y-127226502D01*
X128139852Y-127257777D01*
X128143037Y-127260851D01*
X132084181Y-131201994D01*
X132117666Y-131263317D01*
X132120500Y-131289675D01*
X132120500Y-131803870D01*
X132120501Y-131803876D01*
X132126908Y-131863483D01*
X132177202Y-131998328D01*
X132177206Y-131998335D01*
X132263452Y-132113544D01*
X132263455Y-132113547D01*
X132378664Y-132199793D01*
X132378671Y-132199797D01*
X132513517Y-132250091D01*
X132513516Y-132250091D01*
X132520444Y-132250835D01*
X132573127Y-132256500D01*
X133618872Y-132256499D01*
X133678483Y-132250091D01*
X133813331Y-132199796D01*
X133928546Y-132113546D01*
X134014796Y-131998331D01*
X134065091Y-131863483D01*
X134071500Y-131803873D01*
X134071499Y-131208128D01*
X134065091Y-131148517D01*
X134014796Y-131013669D01*
X134014795Y-131013668D01*
X134014793Y-131013664D01*
X133928547Y-130898455D01*
X133928544Y-130898452D01*
X133813335Y-130812206D01*
X133813328Y-130812202D01*
X133678482Y-130761908D01*
X133678483Y-130761908D01*
X133618883Y-130755501D01*
X133618881Y-130755500D01*
X133618873Y-130755500D01*
X133618865Y-130755500D01*
X133104675Y-130755500D01*
X133075234Y-130746855D01*
X133045248Y-130740332D01*
X133040232Y-130736577D01*
X133037636Y-130735815D01*
X133016994Y-130719181D01*
X132865993Y-130568180D01*
X132832508Y-130506857D01*
X132837492Y-130437165D01*
X132879364Y-130381232D01*
X132944828Y-130356815D01*
X132953674Y-130356499D01*
X133618871Y-130356499D01*
X133618872Y-130356499D01*
X133678483Y-130350091D01*
X133813331Y-130299796D01*
X133928546Y-130213546D01*
X134014796Y-130098331D01*
X134065091Y-129963483D01*
X134071500Y-129903873D01*
X134071499Y-129308128D01*
X134065091Y-129248517D01*
X134014796Y-129113669D01*
X134014795Y-129113668D01*
X134014793Y-129113664D01*
X133928547Y-128998455D01*
X133928544Y-128998452D01*
X133813335Y-128912206D01*
X133813328Y-128912202D01*
X133678482Y-128861908D01*
X133678483Y-128861908D01*
X133618883Y-128855501D01*
X133618881Y-128855500D01*
X133618873Y-128855500D01*
X133618865Y-128855500D01*
X133104676Y-128855500D01*
X133037637Y-128835815D01*
X133016995Y-128819181D01*
X131095497Y-126897683D01*
X131062012Y-126836360D01*
X131066996Y-126766668D01*
X131068604Y-126762580D01*
X131137051Y-126597335D01*
X131149632Y-126534082D01*
X131175500Y-126404043D01*
X131175500Y-125406956D01*
X131137052Y-125213670D01*
X131137051Y-125213669D01*
X131137051Y-125213665D01*
X131137049Y-125213660D01*
X131061635Y-125031592D01*
X131061628Y-125031579D01*
X130952139Y-124867718D01*
X130952136Y-124867714D01*
X130812785Y-124728363D01*
X130812781Y-124728360D01*
X130648920Y-124618871D01*
X130648907Y-124618864D01*
X130466839Y-124543450D01*
X130466829Y-124543447D01*
X130273543Y-124505000D01*
X130273541Y-124505000D01*
X130076459Y-124505000D01*
X130076457Y-124505000D01*
X129883170Y-124543447D01*
X129883160Y-124543450D01*
X129701092Y-124618864D01*
X129701079Y-124618871D01*
X129537218Y-124728360D01*
X129537214Y-124728363D01*
X129397863Y-124867714D01*
X129397860Y-124867718D01*
X129288371Y-125031579D01*
X129288364Y-125031592D01*
X129212950Y-125213660D01*
X129212947Y-125213670D01*
X129174500Y-125406956D01*
X129174500Y-126404045D01*
X129212111Y-126593127D01*
X129205884Y-126662718D01*
X129163021Y-126717896D01*
X129097131Y-126741140D01*
X129029134Y-126725072D01*
X129002813Y-126704999D01*
X128671819Y-126374005D01*
X128638334Y-126312682D01*
X128635500Y-126286324D01*
X128635500Y-125406956D01*
X128597052Y-125213670D01*
X128597051Y-125213669D01*
X128597051Y-125213665D01*
X128597049Y-125213660D01*
X128521635Y-125031592D01*
X128521628Y-125031579D01*
X128412139Y-124867718D01*
X128412136Y-124867714D01*
X128272785Y-124728363D01*
X128272781Y-124728360D01*
X128108920Y-124618871D01*
X128108907Y-124618864D01*
X127926839Y-124543450D01*
X127926829Y-124543447D01*
X127733543Y-124505000D01*
X127733541Y-124505000D01*
X127536459Y-124505000D01*
X127536457Y-124505000D01*
X127343170Y-124543447D01*
X127343160Y-124543450D01*
X127161092Y-124618864D01*
X127161079Y-124618871D01*
X126997218Y-124728360D01*
X126997214Y-124728363D01*
X126857863Y-124867714D01*
X126857860Y-124867718D01*
X126748371Y-125031579D01*
X126748364Y-125031592D01*
X126672950Y-125213660D01*
X126672947Y-125213670D01*
X126634500Y-125406956D01*
X126634500Y-125406959D01*
X126634500Y-126404041D01*
X126634500Y-126404043D01*
X126634499Y-126404043D01*
X103632000Y-126404043D01*
X103632000Y-124427135D01*
X105334500Y-124427135D01*
X105334500Y-125762870D01*
X105334501Y-125762876D01*
X105340908Y-125822483D01*
X105391202Y-125957328D01*
X105391206Y-125957335D01*
X105477452Y-126072544D01*
X105477455Y-126072547D01*
X105592664Y-126158793D01*
X105592671Y-126158797D01*
X105727517Y-126209091D01*
X105727516Y-126209091D01*
X105734444Y-126209835D01*
X105787127Y-126215500D01*
X107572872Y-126215499D01*
X107632483Y-126209091D01*
X107767331Y-126158796D01*
X107882546Y-126072546D01*
X107968796Y-125957331D01*
X108019091Y-125822483D01*
X108025500Y-125762873D01*
X108025499Y-124427135D01*
X115494500Y-124427135D01*
X115494500Y-125762870D01*
X115494501Y-125762876D01*
X115500908Y-125822483D01*
X115551202Y-125957328D01*
X115551206Y-125957335D01*
X115637452Y-126072544D01*
X115637455Y-126072547D01*
X115752664Y-126158793D01*
X115752671Y-126158797D01*
X115887517Y-126209091D01*
X115887516Y-126209091D01*
X115894444Y-126209835D01*
X115947127Y-126215500D01*
X117732872Y-126215499D01*
X117792483Y-126209091D01*
X117927331Y-126158796D01*
X118042546Y-126072546D01*
X118128796Y-125957331D01*
X118179091Y-125822483D01*
X118185500Y-125762873D01*
X118185499Y-125031592D01*
X118185499Y-124427129D01*
X118185498Y-124427123D01*
X118185497Y-124427116D01*
X118179091Y-124367517D01*
X118128796Y-124232669D01*
X118128795Y-124232668D01*
X118128793Y-124232664D01*
X118042547Y-124117455D01*
X118042544Y-124117452D01*
X117927335Y-124031206D01*
X117927328Y-124031202D01*
X117792482Y-123980908D01*
X117792483Y-123980908D01*
X117732883Y-123974501D01*
X117732881Y-123974500D01*
X117732873Y-123974500D01*
X117732864Y-123974500D01*
X115947129Y-123974500D01*
X115947123Y-123974501D01*
X115887516Y-123980908D01*
X115752671Y-124031202D01*
X115752664Y-124031206D01*
X115637455Y-124117452D01*
X115637452Y-124117455D01*
X115551206Y-124232664D01*
X115551202Y-124232671D01*
X115500908Y-124367517D01*
X115494501Y-124427116D01*
X115494501Y-124427123D01*
X115494500Y-124427135D01*
X108025499Y-124427135D01*
X108025499Y-124427128D01*
X108019091Y-124367517D01*
X107968796Y-124232669D01*
X107968795Y-124232668D01*
X107968793Y-124232664D01*
X107882547Y-124117455D01*
X107882544Y-124117452D01*
X107767335Y-124031206D01*
X107767328Y-124031202D01*
X107632482Y-123980908D01*
X107632483Y-123980908D01*
X107572883Y-123974501D01*
X107572881Y-123974500D01*
X107572873Y-123974500D01*
X107572864Y-123974500D01*
X105787129Y-123974500D01*
X105787123Y-123974501D01*
X105727516Y-123980908D01*
X105592671Y-124031202D01*
X105592664Y-124031206D01*
X105477455Y-124117452D01*
X105477452Y-124117455D01*
X105391206Y-124232664D01*
X105391202Y-124232671D01*
X105340908Y-124367517D01*
X105334501Y-124427116D01*
X105334501Y-124427123D01*
X105334500Y-124427135D01*
X103632000Y-124427135D01*
X103632000Y-119926809D01*
X105334500Y-119926809D01*
X105334500Y-120103190D01*
X105362089Y-120277384D01*
X105416593Y-120445127D01*
X105496662Y-120602270D01*
X105600330Y-120744957D01*
X105725043Y-120869670D01*
X105867730Y-120973338D01*
X105941975Y-121011167D01*
X106024872Y-121053406D01*
X106024874Y-121053406D01*
X106024877Y-121053408D01*
X106114788Y-121082622D01*
X106192615Y-121107910D01*
X106366810Y-121135500D01*
X106366815Y-121135500D01*
X106993190Y-121135500D01*
X107167384Y-121107910D01*
X107335123Y-121053408D01*
X107492270Y-120973338D01*
X107634957Y-120869670D01*
X107759670Y-120744957D01*
X107863338Y-120602270D01*
X107943408Y-120445123D01*
X107997910Y-120277384D01*
X108025500Y-120103190D01*
X108025500Y-119926809D01*
X115494500Y-119926809D01*
X115494500Y-120103190D01*
X115522089Y-120277384D01*
X115576593Y-120445127D01*
X115656662Y-120602270D01*
X115760330Y-120744957D01*
X115885043Y-120869670D01*
X116027730Y-120973338D01*
X116101975Y-121011167D01*
X116184872Y-121053406D01*
X116184874Y-121053406D01*
X116184877Y-121053408D01*
X116274788Y-121082622D01*
X116352615Y-121107910D01*
X116526810Y-121135500D01*
X116526815Y-121135500D01*
X117153190Y-121135500D01*
X117327384Y-121107910D01*
X117495123Y-121053408D01*
X117652270Y-120973338D01*
X117794957Y-120869670D01*
X117919670Y-120744957D01*
X118023338Y-120602270D01*
X118103408Y-120445123D01*
X118157910Y-120277384D01*
X118185500Y-120103190D01*
X118185500Y-119926809D01*
X118157910Y-119752615D01*
X118103406Y-119584872D01*
X118023337Y-119427729D01*
X117919670Y-119285043D01*
X117794957Y-119160330D01*
X117652270Y-119056662D01*
X117495127Y-118976593D01*
X117327384Y-118922089D01*
X117153190Y-118894500D01*
X117153185Y-118894500D01*
X116526815Y-118894500D01*
X116526810Y-118894500D01*
X116352615Y-118922089D01*
X116184872Y-118976593D01*
X116027729Y-119056662D01*
X115885040Y-119160332D01*
X115760332Y-119285040D01*
X115656662Y-119427729D01*
X115576593Y-119584872D01*
X115522089Y-119752615D01*
X115494500Y-119926809D01*
X108025500Y-119926809D01*
X107997910Y-119752615D01*
X107943406Y-119584872D01*
X107863337Y-119427729D01*
X107759670Y-119285043D01*
X107634957Y-119160330D01*
X107492270Y-119056662D01*
X107335127Y-118976593D01*
X107167384Y-118922089D01*
X106993190Y-118894500D01*
X106993185Y-118894500D01*
X106366815Y-118894500D01*
X106366810Y-118894500D01*
X106192615Y-118922089D01*
X106024872Y-118976593D01*
X105867729Y-119056662D01*
X105725040Y-119160332D01*
X105600332Y-119285040D01*
X105496662Y-119427729D01*
X105416593Y-119584872D01*
X105362089Y-119752615D01*
X105334500Y-119926809D01*
X103632000Y-119926809D01*
X103632000Y-117386809D01*
X105334500Y-117386809D01*
X105334500Y-117563190D01*
X105362089Y-117737384D01*
X105416593Y-117905127D01*
X105496662Y-118062270D01*
X105600330Y-118204957D01*
X105725043Y-118329670D01*
X105867730Y-118433338D01*
X105941975Y-118471167D01*
X106024872Y-118513406D01*
X106024874Y-118513406D01*
X106024877Y-118513408D01*
X106114788Y-118542622D01*
X106192615Y-118567910D01*
X106366810Y-118595500D01*
X106366815Y-118595500D01*
X106993190Y-118595500D01*
X107167384Y-118567910D01*
X107335123Y-118513408D01*
X107492270Y-118433338D01*
X107634957Y-118329670D01*
X107759670Y-118204957D01*
X107863338Y-118062270D01*
X107943408Y-117905123D01*
X107997910Y-117737384D01*
X108000379Y-117721796D01*
X108025500Y-117563190D01*
X108025500Y-117386809D01*
X115494500Y-117386809D01*
X115494500Y-117563190D01*
X115522089Y-117737384D01*
X115576593Y-117905127D01*
X115656662Y-118062270D01*
X115760330Y-118204957D01*
X115885043Y-118329670D01*
X116027730Y-118433338D01*
X116101975Y-118471167D01*
X116184872Y-118513406D01*
X116184874Y-118513406D01*
X116184877Y-118513408D01*
X116274788Y-118542622D01*
X116352615Y-118567910D01*
X116526810Y-118595500D01*
X116526815Y-118595500D01*
X117153190Y-118595500D01*
X117327384Y-118567910D01*
X117495123Y-118513408D01*
X117652270Y-118433338D01*
X117794957Y-118329670D01*
X117919670Y-118204957D01*
X118023338Y-118062270D01*
X118103408Y-117905123D01*
X118157910Y-117737384D01*
X118160379Y-117721796D01*
X118185500Y-117563190D01*
X118185500Y-117386809D01*
X118157910Y-117212615D01*
X118103406Y-117044872D01*
X118023337Y-116887729D01*
X117919670Y-116745043D01*
X117794957Y-116620330D01*
X117652270Y-116516662D01*
X117597580Y-116488796D01*
X117495127Y-116436593D01*
X117327384Y-116382089D01*
X117153190Y-116354500D01*
X117153185Y-116354500D01*
X116526815Y-116354500D01*
X116526810Y-116354500D01*
X116352615Y-116382089D01*
X116184872Y-116436593D01*
X116027729Y-116516662D01*
X115885040Y-116620332D01*
X115760332Y-116745040D01*
X115656662Y-116887729D01*
X115576593Y-117044872D01*
X115522089Y-117212615D01*
X115494500Y-117386809D01*
X108025500Y-117386809D01*
X107997910Y-117212615D01*
X107943406Y-117044872D01*
X107863337Y-116887729D01*
X107759670Y-116745043D01*
X107634957Y-116620330D01*
X107492270Y-116516662D01*
X107437580Y-116488796D01*
X107335127Y-116436593D01*
X107167384Y-116382089D01*
X106993190Y-116354500D01*
X106993185Y-116354500D01*
X106366815Y-116354500D01*
X106366810Y-116354500D01*
X106192615Y-116382089D01*
X106024872Y-116436593D01*
X105867729Y-116516662D01*
X105725040Y-116620332D01*
X105600332Y-116745040D01*
X105496662Y-116887729D01*
X105416593Y-117044872D01*
X105362089Y-117212615D01*
X105334500Y-117386809D01*
X103632000Y-117386809D01*
X103632000Y-112997135D01*
X105334500Y-112997135D01*
X105334500Y-114332870D01*
X105334501Y-114332876D01*
X105340908Y-114392483D01*
X105391202Y-114527328D01*
X105391206Y-114527335D01*
X105477452Y-114642544D01*
X105477455Y-114642547D01*
X105592664Y-114728793D01*
X105592671Y-114728797D01*
X105727517Y-114779091D01*
X105727516Y-114779091D01*
X105734444Y-114779835D01*
X105787127Y-114785500D01*
X107572872Y-114785499D01*
X107632483Y-114779091D01*
X107767331Y-114728796D01*
X107882546Y-114642546D01*
X107968796Y-114527331D01*
X108019091Y-114392483D01*
X108025500Y-114332873D01*
X108025499Y-112997135D01*
X115514500Y-112997135D01*
X115514500Y-114332870D01*
X115514501Y-114332876D01*
X115520908Y-114392483D01*
X115571202Y-114527328D01*
X115571206Y-114527335D01*
X115657452Y-114642544D01*
X115657455Y-114642547D01*
X115772664Y-114728793D01*
X115772671Y-114728797D01*
X115907517Y-114779091D01*
X115907516Y-114779091D01*
X115914444Y-114779835D01*
X115967127Y-114785500D01*
X117752872Y-114785499D01*
X117812483Y-114779091D01*
X117947331Y-114728796D01*
X118062546Y-114642546D01*
X118148796Y-114527331D01*
X118199091Y-114392483D01*
X118205500Y-114332873D01*
X118205499Y-112997128D01*
X118199091Y-112937517D01*
X118196528Y-112930646D01*
X118148797Y-112802671D01*
X118148793Y-112802664D01*
X118062547Y-112687455D01*
X118062544Y-112687452D01*
X117947335Y-112601206D01*
X117947328Y-112601202D01*
X117812482Y-112550908D01*
X117812483Y-112550908D01*
X117752883Y-112544501D01*
X117752881Y-112544500D01*
X117752873Y-112544500D01*
X117752864Y-112544500D01*
X115967129Y-112544500D01*
X115967123Y-112544501D01*
X115907516Y-112550908D01*
X115772671Y-112601202D01*
X115772664Y-112601206D01*
X115657455Y-112687452D01*
X115657452Y-112687455D01*
X115571206Y-112802664D01*
X115571202Y-112802671D01*
X115520908Y-112937517D01*
X115514501Y-112997116D01*
X115514501Y-112997123D01*
X115514500Y-112997135D01*
X108025499Y-112997135D01*
X108025499Y-112997128D01*
X108019091Y-112937517D01*
X108016528Y-112930646D01*
X107968797Y-112802671D01*
X107968793Y-112802664D01*
X107882547Y-112687455D01*
X107882544Y-112687452D01*
X107767335Y-112601206D01*
X107767328Y-112601202D01*
X107632482Y-112550908D01*
X107632483Y-112550908D01*
X107572883Y-112544501D01*
X107572881Y-112544500D01*
X107572873Y-112544500D01*
X107572864Y-112544500D01*
X105787129Y-112544500D01*
X105787123Y-112544501D01*
X105727516Y-112550908D01*
X105592671Y-112601202D01*
X105592664Y-112601206D01*
X105477455Y-112687452D01*
X105477452Y-112687455D01*
X105391206Y-112802664D01*
X105391202Y-112802671D01*
X105340908Y-112937517D01*
X105334501Y-112997116D01*
X105334501Y-112997123D01*
X105334500Y-112997135D01*
X103632000Y-112997135D01*
X103632000Y-108496809D01*
X105334500Y-108496809D01*
X105334500Y-108673190D01*
X105362089Y-108847384D01*
X105416593Y-109015127D01*
X105470358Y-109120646D01*
X105496662Y-109172270D01*
X105600330Y-109314957D01*
X105725043Y-109439670D01*
X105867730Y-109543338D01*
X105941975Y-109581167D01*
X106024872Y-109623406D01*
X106024874Y-109623406D01*
X106024877Y-109623408D01*
X106114788Y-109652622D01*
X106192615Y-109677910D01*
X106366810Y-109705500D01*
X106366815Y-109705500D01*
X106993190Y-109705500D01*
X107167384Y-109677910D01*
X107335123Y-109623408D01*
X107492270Y-109543338D01*
X107634957Y-109439670D01*
X107759670Y-109314957D01*
X107863338Y-109172270D01*
X107943408Y-109015123D01*
X107997910Y-108847384D01*
X108010718Y-108766518D01*
X108025500Y-108673190D01*
X108025500Y-108496809D01*
X115514500Y-108496809D01*
X115514500Y-108673190D01*
X115542089Y-108847384D01*
X115596593Y-109015127D01*
X115650358Y-109120646D01*
X115676662Y-109172270D01*
X115780330Y-109314957D01*
X115905043Y-109439670D01*
X116047730Y-109543338D01*
X116121975Y-109581167D01*
X116204872Y-109623406D01*
X116204874Y-109623406D01*
X116204877Y-109623408D01*
X116294788Y-109652622D01*
X116372615Y-109677910D01*
X116546810Y-109705500D01*
X116546815Y-109705500D01*
X117173190Y-109705500D01*
X117347384Y-109677910D01*
X117515123Y-109623408D01*
X117672270Y-109543338D01*
X117814957Y-109439670D01*
X117939670Y-109314957D01*
X118043338Y-109172270D01*
X118123408Y-109015123D01*
X118177910Y-108847384D01*
X118190718Y-108766518D01*
X118205500Y-108673190D01*
X118205500Y-108496809D01*
X118177910Y-108322615D01*
X118141156Y-108209500D01*
X118123408Y-108154877D01*
X118123406Y-108154874D01*
X118123406Y-108154872D01*
X118081167Y-108071975D01*
X118043338Y-107997730D01*
X117939670Y-107855043D01*
X117814957Y-107730330D01*
X117672270Y-107626662D01*
X117650314Y-107615475D01*
X117515127Y-107546593D01*
X117347384Y-107492089D01*
X117173190Y-107464500D01*
X117173185Y-107464500D01*
X116546815Y-107464500D01*
X116546810Y-107464500D01*
X116372615Y-107492089D01*
X116204872Y-107546593D01*
X116047729Y-107626662D01*
X115905040Y-107730332D01*
X115780332Y-107855040D01*
X115676662Y-107997729D01*
X115596593Y-108154872D01*
X115542089Y-108322615D01*
X115514500Y-108496809D01*
X108025500Y-108496809D01*
X107997910Y-108322615D01*
X107961156Y-108209500D01*
X107943408Y-108154877D01*
X107943406Y-108154874D01*
X107943406Y-108154872D01*
X107901167Y-108071975D01*
X107863338Y-107997730D01*
X107759670Y-107855043D01*
X107634957Y-107730330D01*
X107492270Y-107626662D01*
X107470314Y-107615475D01*
X107335127Y-107546593D01*
X107167384Y-107492089D01*
X106993190Y-107464500D01*
X106993185Y-107464500D01*
X106366815Y-107464500D01*
X106366810Y-107464500D01*
X106192615Y-107492089D01*
X106024872Y-107546593D01*
X105867729Y-107626662D01*
X105725040Y-107730332D01*
X105600332Y-107855040D01*
X105496662Y-107997729D01*
X105416593Y-108154872D01*
X105362089Y-108322615D01*
X105334500Y-108496809D01*
X103632000Y-108496809D01*
X103632000Y-105956809D01*
X105334500Y-105956809D01*
X105334500Y-106133190D01*
X105362089Y-106307384D01*
X105416593Y-106475127D01*
X105470358Y-106580646D01*
X105496662Y-106632270D01*
X105600330Y-106774957D01*
X105725043Y-106899670D01*
X105867730Y-107003338D01*
X105939087Y-107039696D01*
X106024872Y-107083406D01*
X106024874Y-107083406D01*
X106024877Y-107083408D01*
X106114788Y-107112622D01*
X106192615Y-107137910D01*
X106366810Y-107165500D01*
X106366815Y-107165500D01*
X106993190Y-107165500D01*
X107167384Y-107137910D01*
X107181015Y-107133481D01*
X107335123Y-107083408D01*
X107492270Y-107003338D01*
X107634957Y-106899670D01*
X107759670Y-106774957D01*
X107863338Y-106632270D01*
X107943408Y-106475123D01*
X107997910Y-106307384D01*
X108025500Y-106133190D01*
X108025500Y-105956809D01*
X115514500Y-105956809D01*
X115514500Y-106133190D01*
X115542089Y-106307384D01*
X115596593Y-106475127D01*
X115650358Y-106580646D01*
X115676662Y-106632270D01*
X115780330Y-106774957D01*
X115905043Y-106899670D01*
X116047730Y-107003338D01*
X116119087Y-107039696D01*
X116204872Y-107083406D01*
X116204874Y-107083406D01*
X116204877Y-107083408D01*
X116294788Y-107112622D01*
X116372615Y-107137910D01*
X116546810Y-107165500D01*
X116546815Y-107165500D01*
X117173190Y-107165500D01*
X117347384Y-107137910D01*
X117361015Y-107133481D01*
X117515123Y-107083408D01*
X117672270Y-107003338D01*
X117814957Y-106899670D01*
X117939670Y-106774957D01*
X118043338Y-106632270D01*
X118123408Y-106475123D01*
X118177910Y-106307384D01*
X118205500Y-106133190D01*
X118205500Y-105956809D01*
X118177910Y-105782615D01*
X118144201Y-105678872D01*
X118123408Y-105614877D01*
X118123406Y-105614874D01*
X118123406Y-105614872D01*
X118081167Y-105531975D01*
X118043338Y-105457730D01*
X117939670Y-105315043D01*
X117814957Y-105190330D01*
X117672270Y-105086662D01*
X117643673Y-105072091D01*
X117515127Y-105006593D01*
X117347384Y-104952089D01*
X117173190Y-104924500D01*
X117173185Y-104924500D01*
X116546815Y-104924500D01*
X116546810Y-104924500D01*
X116372615Y-104952089D01*
X116204872Y-105006593D01*
X116047729Y-105086662D01*
X115905040Y-105190332D01*
X115780332Y-105315040D01*
X115676662Y-105457729D01*
X115596593Y-105614872D01*
X115542089Y-105782615D01*
X115514500Y-105956809D01*
X108025500Y-105956809D01*
X107997910Y-105782615D01*
X107964201Y-105678872D01*
X107943408Y-105614877D01*
X107943406Y-105614874D01*
X107943406Y-105614872D01*
X107901167Y-105531975D01*
X107863338Y-105457730D01*
X107759670Y-105315043D01*
X107634957Y-105190330D01*
X107492270Y-105086662D01*
X107463673Y-105072091D01*
X107335127Y-105006593D01*
X107167384Y-104952089D01*
X106993190Y-104924500D01*
X106993185Y-104924500D01*
X106366815Y-104924500D01*
X106366810Y-104924500D01*
X106192615Y-104952089D01*
X106024872Y-105006593D01*
X105867729Y-105086662D01*
X105725040Y-105190332D01*
X105600332Y-105315040D01*
X105496662Y-105457729D01*
X105416593Y-105614872D01*
X105362089Y-105782615D01*
X105334500Y-105956809D01*
X103632000Y-105956809D01*
X103632000Y-101567135D01*
X105334500Y-101567135D01*
X105334500Y-102902870D01*
X105334501Y-102902876D01*
X105340908Y-102962483D01*
X105391202Y-103097328D01*
X105391206Y-103097335D01*
X105477452Y-103212544D01*
X105477455Y-103212547D01*
X105592664Y-103298793D01*
X105592671Y-103298797D01*
X105727517Y-103349091D01*
X105727516Y-103349091D01*
X105734444Y-103349835D01*
X105787127Y-103355500D01*
X107572872Y-103355499D01*
X107632483Y-103349091D01*
X107767331Y-103298796D01*
X107882546Y-103212546D01*
X107968796Y-103097331D01*
X108019091Y-102962483D01*
X108025500Y-102902873D01*
X108025499Y-101567135D01*
X115494500Y-101567135D01*
X115494500Y-102902870D01*
X115494501Y-102902876D01*
X115500908Y-102962483D01*
X115551202Y-103097328D01*
X115551206Y-103097335D01*
X115637452Y-103212544D01*
X115637455Y-103212547D01*
X115752664Y-103298793D01*
X115752671Y-103298797D01*
X115887517Y-103349091D01*
X115887516Y-103349091D01*
X115894444Y-103349835D01*
X115947127Y-103355500D01*
X117732872Y-103355499D01*
X117792483Y-103349091D01*
X117927331Y-103298796D01*
X118042546Y-103212546D01*
X118128796Y-103097331D01*
X118179091Y-102962483D01*
X118185500Y-102902873D01*
X118185499Y-101567128D01*
X118179091Y-101507517D01*
X118176528Y-101500646D01*
X118128797Y-101372671D01*
X118128793Y-101372664D01*
X118042547Y-101257455D01*
X118042544Y-101257452D01*
X117927335Y-101171206D01*
X117927328Y-101171202D01*
X117792482Y-101120908D01*
X117792483Y-101120908D01*
X117732883Y-101114501D01*
X117732881Y-101114500D01*
X117732873Y-101114500D01*
X117732864Y-101114500D01*
X115947129Y-101114500D01*
X115947123Y-101114501D01*
X115887516Y-101120908D01*
X115752671Y-101171202D01*
X115752664Y-101171206D01*
X115637455Y-101257452D01*
X115637452Y-101257455D01*
X115551206Y-101372664D01*
X115551202Y-101372671D01*
X115500908Y-101507517D01*
X115494501Y-101567116D01*
X115494501Y-101567123D01*
X115494500Y-101567135D01*
X108025499Y-101567135D01*
X108025499Y-101567128D01*
X108019091Y-101507517D01*
X108016528Y-101500646D01*
X107968797Y-101372671D01*
X107968793Y-101372664D01*
X107882547Y-101257455D01*
X107882544Y-101257452D01*
X107767335Y-101171206D01*
X107767328Y-101171202D01*
X107632482Y-101120908D01*
X107632483Y-101120908D01*
X107572883Y-101114501D01*
X107572881Y-101114500D01*
X107572873Y-101114500D01*
X107572864Y-101114500D01*
X105787129Y-101114500D01*
X105787123Y-101114501D01*
X105727516Y-101120908D01*
X105592671Y-101171202D01*
X105592664Y-101171206D01*
X105477455Y-101257452D01*
X105477452Y-101257455D01*
X105391206Y-101372664D01*
X105391202Y-101372671D01*
X105340908Y-101507517D01*
X105334501Y-101567116D01*
X105334501Y-101567123D01*
X105334500Y-101567135D01*
X103632000Y-101567135D01*
X103632000Y-97066809D01*
X105334500Y-97066809D01*
X105334500Y-97243190D01*
X105362089Y-97417384D01*
X105416593Y-97585127D01*
X105464999Y-97680128D01*
X105496662Y-97742270D01*
X105600330Y-97884957D01*
X105725043Y-98009670D01*
X105867730Y-98113338D01*
X105939087Y-98149696D01*
X106024872Y-98193406D01*
X106024874Y-98193406D01*
X106024877Y-98193408D01*
X106114788Y-98222622D01*
X106192615Y-98247910D01*
X106366810Y-98275500D01*
X106366815Y-98275500D01*
X106993190Y-98275500D01*
X107167384Y-98247910D01*
X107181015Y-98243481D01*
X107335123Y-98193408D01*
X107492270Y-98113338D01*
X107634957Y-98009670D01*
X107759670Y-97884957D01*
X107863338Y-97742270D01*
X107943408Y-97585123D01*
X107997910Y-97417384D01*
X108008179Y-97352546D01*
X108025500Y-97243190D01*
X108025500Y-97066809D01*
X115494500Y-97066809D01*
X115494500Y-97243190D01*
X115522089Y-97417384D01*
X115576593Y-97585127D01*
X115624999Y-97680128D01*
X115656662Y-97742270D01*
X115760330Y-97884957D01*
X115885043Y-98009670D01*
X116027730Y-98113338D01*
X116099087Y-98149696D01*
X116184872Y-98193406D01*
X116184874Y-98193406D01*
X116184877Y-98193408D01*
X116274788Y-98222622D01*
X116352615Y-98247910D01*
X116526810Y-98275500D01*
X116526815Y-98275500D01*
X117153190Y-98275500D01*
X117327384Y-98247910D01*
X117341015Y-98243481D01*
X117495123Y-98193408D01*
X117652270Y-98113338D01*
X117794957Y-98009670D01*
X117919670Y-97884957D01*
X118023338Y-97742270D01*
X118103408Y-97585123D01*
X118157910Y-97417384D01*
X118168179Y-97352546D01*
X118185500Y-97243190D01*
X118185500Y-97066809D01*
X118157910Y-96892615D01*
X118103406Y-96724872D01*
X118023337Y-96567729D01*
X117919670Y-96425043D01*
X117794957Y-96300330D01*
X117652270Y-96196662D01*
X117495127Y-96116593D01*
X117327384Y-96062089D01*
X117153190Y-96034500D01*
X117153185Y-96034500D01*
X116526815Y-96034500D01*
X116526810Y-96034500D01*
X116352615Y-96062089D01*
X116184872Y-96116593D01*
X116027729Y-96196662D01*
X115885040Y-96300332D01*
X115760332Y-96425040D01*
X115656662Y-96567729D01*
X115576593Y-96724872D01*
X115522089Y-96892615D01*
X115494500Y-97066809D01*
X108025500Y-97066809D01*
X107997910Y-96892615D01*
X107943406Y-96724872D01*
X107863337Y-96567729D01*
X107759670Y-96425043D01*
X107634957Y-96300330D01*
X107492270Y-96196662D01*
X107335127Y-96116593D01*
X107167384Y-96062089D01*
X106993190Y-96034500D01*
X106993185Y-96034500D01*
X106366815Y-96034500D01*
X106366810Y-96034500D01*
X106192615Y-96062089D01*
X106024872Y-96116593D01*
X105867729Y-96196662D01*
X105725040Y-96300332D01*
X105600332Y-96425040D01*
X105496662Y-96567729D01*
X105416593Y-96724872D01*
X105362089Y-96892615D01*
X105334500Y-97066809D01*
X103632000Y-97066809D01*
X103632000Y-94526809D01*
X105334500Y-94526809D01*
X105334500Y-94703190D01*
X105362089Y-94877384D01*
X105416593Y-95045127D01*
X105496662Y-95202270D01*
X105600330Y-95344957D01*
X105725043Y-95469670D01*
X105867730Y-95573338D01*
X105939087Y-95609696D01*
X106024872Y-95653406D01*
X106024874Y-95653406D01*
X106024877Y-95653408D01*
X106114788Y-95682622D01*
X106192615Y-95707910D01*
X106366810Y-95735500D01*
X106366815Y-95735500D01*
X106993190Y-95735500D01*
X107167384Y-95707910D01*
X107181015Y-95703481D01*
X107335123Y-95653408D01*
X107492270Y-95573338D01*
X107634957Y-95469670D01*
X107759670Y-95344957D01*
X107863338Y-95202270D01*
X107943408Y-95045123D01*
X107997910Y-94877384D01*
X108010718Y-94796518D01*
X108025500Y-94703190D01*
X108025500Y-94526809D01*
X115494500Y-94526809D01*
X115494500Y-94703190D01*
X115522089Y-94877384D01*
X115576593Y-95045127D01*
X115656662Y-95202270D01*
X115760330Y-95344957D01*
X115885043Y-95469670D01*
X116027730Y-95573338D01*
X116099087Y-95609696D01*
X116184872Y-95653406D01*
X116184874Y-95653406D01*
X116184877Y-95653408D01*
X116274788Y-95682622D01*
X116352615Y-95707910D01*
X116526810Y-95735500D01*
X116526815Y-95735500D01*
X117153190Y-95735500D01*
X117327384Y-95707910D01*
X117341015Y-95703481D01*
X117495123Y-95653408D01*
X117652270Y-95573338D01*
X117794957Y-95469670D01*
X117919670Y-95344957D01*
X118023338Y-95202270D01*
X118103408Y-95045123D01*
X118157910Y-94877384D01*
X118170718Y-94796518D01*
X118185500Y-94703190D01*
X118185500Y-94526809D01*
X118157910Y-94352615D01*
X118132622Y-94274788D01*
X118103408Y-94184877D01*
X118103406Y-94184874D01*
X118103406Y-94184872D01*
X118061167Y-94101975D01*
X118023338Y-94027730D01*
X117919670Y-93885043D01*
X117794957Y-93760330D01*
X117652270Y-93656662D01*
X117495127Y-93576593D01*
X117327384Y-93522089D01*
X117153190Y-93494500D01*
X117153185Y-93494500D01*
X116526815Y-93494500D01*
X116526810Y-93494500D01*
X116352615Y-93522089D01*
X116184872Y-93576593D01*
X116027729Y-93656662D01*
X115885040Y-93760332D01*
X115760332Y-93885040D01*
X115656662Y-94027729D01*
X115576593Y-94184872D01*
X115522089Y-94352615D01*
X115494500Y-94526809D01*
X108025500Y-94526809D01*
X107997910Y-94352615D01*
X107972622Y-94274788D01*
X107943408Y-94184877D01*
X107943406Y-94184874D01*
X107943406Y-94184872D01*
X107901167Y-94101975D01*
X107863338Y-94027730D01*
X107759670Y-93885043D01*
X107634957Y-93760330D01*
X107492270Y-93656662D01*
X107335127Y-93576593D01*
X107167384Y-93522089D01*
X106993190Y-93494500D01*
X106993185Y-93494500D01*
X106366815Y-93494500D01*
X106366810Y-93494500D01*
X106192615Y-93522089D01*
X106024872Y-93576593D01*
X105867729Y-93656662D01*
X105725040Y-93760332D01*
X105600332Y-93885040D01*
X105496662Y-94027729D01*
X105416593Y-94184872D01*
X105362089Y-94352615D01*
X105334500Y-94526809D01*
X103632000Y-94526809D01*
X103632000Y-83357135D01*
X106399500Y-83357135D01*
X106399500Y-85552870D01*
X106399501Y-85552876D01*
X106405908Y-85612483D01*
X106456202Y-85747328D01*
X106456206Y-85747335D01*
X106542452Y-85862544D01*
X106542455Y-85862547D01*
X106657664Y-85948793D01*
X106657671Y-85948797D01*
X106792517Y-85999091D01*
X106792516Y-85999091D01*
X106799444Y-85999835D01*
X106852127Y-86005500D01*
X109047872Y-86005499D01*
X109107483Y-85999091D01*
X109242331Y-85948796D01*
X109357546Y-85862546D01*
X109443796Y-85747331D01*
X109494091Y-85612483D01*
X109500500Y-85552873D01*
X109500499Y-83357128D01*
X109494091Y-83297517D01*
X109443796Y-83162669D01*
X109443795Y-83162668D01*
X109443793Y-83162664D01*
X109357547Y-83047455D01*
X109357544Y-83047452D01*
X109242335Y-82961206D01*
X109242328Y-82961202D01*
X109107482Y-82910908D01*
X109107483Y-82910908D01*
X109047883Y-82904501D01*
X109047881Y-82904500D01*
X109047873Y-82904500D01*
X109047864Y-82904500D01*
X106852129Y-82904500D01*
X106852123Y-82904501D01*
X106792516Y-82910908D01*
X106657671Y-82961202D01*
X106657664Y-82961206D01*
X106542455Y-83047452D01*
X106542452Y-83047455D01*
X106456206Y-83162664D01*
X106456202Y-83162671D01*
X106405908Y-83297517D01*
X106399501Y-83357116D01*
X106399501Y-83357123D01*
X106399500Y-83357135D01*
X103632000Y-83357135D01*
X103632000Y-81908900D01*
X118129500Y-81908900D01*
X118129500Y-82105745D01*
X118160290Y-82300149D01*
X118221117Y-82487352D01*
X118310476Y-82662728D01*
X118426172Y-82821969D01*
X118565354Y-82961151D01*
X118724595Y-83076847D01*
X118807455Y-83119066D01*
X118899970Y-83166205D01*
X118899972Y-83166205D01*
X118899975Y-83166207D01*
X119000317Y-83198810D01*
X119087173Y-83227032D01*
X119281578Y-83257823D01*
X119281583Y-83257823D01*
X119478422Y-83257823D01*
X119672826Y-83227032D01*
X119860025Y-83166207D01*
X120035405Y-83076847D01*
X120194646Y-82961151D01*
X120333828Y-82821969D01*
X120449524Y-82662728D01*
X120538884Y-82487348D01*
X120599709Y-82300149D01*
X120630500Y-82105745D01*
X120630500Y-81908900D01*
X120599709Y-81714496D01*
X120538882Y-81527293D01*
X120449523Y-81351917D01*
X120333828Y-81192677D01*
X120194646Y-81053495D01*
X120035405Y-80937799D01*
X119860029Y-80848440D01*
X119672826Y-80787613D01*
X119478422Y-80756823D01*
X119478417Y-80756823D01*
X119281583Y-80756823D01*
X119281578Y-80756823D01*
X119087173Y-80787613D01*
X118899970Y-80848440D01*
X118724594Y-80937799D01*
X118633741Y-81003808D01*
X118565354Y-81053495D01*
X118565352Y-81053497D01*
X118565351Y-81053497D01*
X118426174Y-81192674D01*
X118426174Y-81192675D01*
X118426172Y-81192677D01*
X118376485Y-81261064D01*
X118310476Y-81351917D01*
X118221117Y-81527293D01*
X118160290Y-81714496D01*
X118129500Y-81908900D01*
X103632000Y-81908900D01*
X103632000Y-79219361D01*
X103651685Y-79152322D01*
X103668314Y-79131685D01*
X104622257Y-78177742D01*
X104683576Y-78144260D01*
X104753267Y-78149244D01*
X104809201Y-78191116D01*
X104824495Y-78217973D01*
X104881953Y-78356690D01*
X104881958Y-78356700D01*
X105013075Y-78583803D01*
X105172718Y-78791851D01*
X105172726Y-78791860D01*
X105358140Y-78977274D01*
X105358148Y-78977281D01*
X105566196Y-79136924D01*
X105793299Y-79268041D01*
X105793309Y-79268046D01*
X106035571Y-79368394D01*
X106035581Y-79368398D01*
X106288884Y-79436270D01*
X106548880Y-79470500D01*
X106548887Y-79470500D01*
X106811113Y-79470500D01*
X106811120Y-79470500D01*
X107071116Y-79436270D01*
X107324419Y-79368398D01*
X107566697Y-79268043D01*
X107793803Y-79136924D01*
X108001851Y-78977282D01*
X108001855Y-78977277D01*
X108001860Y-78977274D01*
X108187274Y-78791860D01*
X108187277Y-78791855D01*
X108187282Y-78791851D01*
X108346924Y-78583803D01*
X108478043Y-78356697D01*
X108578398Y-78114419D01*
X108646270Y-77861116D01*
X108680500Y-77601120D01*
X108680500Y-77338880D01*
X108646270Y-77078884D01*
X108578398Y-76825581D01*
X108578394Y-76825571D01*
X108478046Y-76583309D01*
X108478042Y-76583302D01*
X108446006Y-76527813D01*
X127130500Y-76527813D01*
X127130500Y-76707186D01*
X127158557Y-76884330D01*
X127158558Y-76884334D01*
X127213984Y-77054916D01*
X127263168Y-77151446D01*
X127295414Y-77214731D01*
X127400832Y-77359828D01*
X127400836Y-77359833D01*
X127527666Y-77486663D01*
X127527671Y-77486667D01*
X127654232Y-77578618D01*
X127672772Y-77592088D01*
X127832584Y-77673516D01*
X128003166Y-77728942D01*
X128069598Y-77739463D01*
X128180314Y-77757000D01*
X128180319Y-77757000D01*
X128359686Y-77757000D01*
X128458099Y-77741412D01*
X128536834Y-77728942D01*
X128707416Y-77673516D01*
X128867228Y-77592088D01*
X129012335Y-77486662D01*
X129139162Y-77359835D01*
X129244588Y-77214728D01*
X129326016Y-77054916D01*
X129381442Y-76884334D01*
X129393912Y-76805599D01*
X129409500Y-76707186D01*
X129409500Y-76527813D01*
X129382318Y-76356197D01*
X129381442Y-76350666D01*
X129326016Y-76180084D01*
X129244588Y-76020272D01*
X129202773Y-75962718D01*
X129139167Y-75875171D01*
X129139163Y-75875166D01*
X129012333Y-75748336D01*
X129012328Y-75748332D01*
X128867231Y-75642914D01*
X128867230Y-75642913D01*
X128867228Y-75642912D01*
X128707416Y-75561484D01*
X128536834Y-75506058D01*
X128536832Y-75506057D01*
X128536830Y-75506057D01*
X128359686Y-75478000D01*
X128359681Y-75478000D01*
X128180319Y-75478000D01*
X128180314Y-75478000D01*
X128003169Y-75506057D01*
X127832581Y-75561485D01*
X127672768Y-75642914D01*
X127527671Y-75748332D01*
X127527666Y-75748336D01*
X127400836Y-75875166D01*
X127400832Y-75875171D01*
X127295414Y-76020268D01*
X127213985Y-76180081D01*
X127158557Y-76350669D01*
X127130500Y-76527813D01*
X108446006Y-76527813D01*
X108346924Y-76356196D01*
X108209624Y-76177266D01*
X108187282Y-76148149D01*
X108187281Y-76148148D01*
X108187274Y-76148140D01*
X108001860Y-75962726D01*
X108001851Y-75962718D01*
X107793803Y-75803075D01*
X107566700Y-75671958D01*
X107566690Y-75671953D01*
X107427973Y-75614495D01*
X107373570Y-75570654D01*
X107351505Y-75504360D01*
X107368784Y-75436660D01*
X107387738Y-75412261D01*
X108595681Y-74204319D01*
X108657004Y-74170834D01*
X108683362Y-74168000D01*
X134496000Y-74168000D01*
X134563039Y-74187685D01*
G37*
%TD.AperFunction*%
%TD*%
M02*
