%TF.GenerationSoftware,KiCad,Pcbnew,9.0.6*%
%TF.CreationDate,2026-03-10T14:17:26-05:00*%
%TF.ProjectId,1000W Controller,31303030-5720-4436-9f6e-74726f6c6c65,rev?*%
%TF.SameCoordinates,Original*%
%TF.FileFunction,Copper,L4,Bot*%
%TF.FilePolarity,Positive*%
%FSLAX46Y46*%
G04 Gerber Fmt 4.6, Leading zero omitted, Abs format (unit mm)*
G04 Created by KiCad (PCBNEW 9.0.6) date 2026-03-10 14:17:26*
%MOMM*%
%LPD*%
G01*
G04 APERTURE LIST*
G04 Aperture macros list*
%AMRoundRect*
0 Rectangle with rounded corners*
0 $1 Rounding radius*
0 $2 $3 $4 $5 $6 $7 $8 $9 X,Y pos of 4 corners*
0 Add a 4 corners polygon primitive as box body*
4,1,4,$2,$3,$4,$5,$6,$7,$8,$9,$2,$3,0*
0 Add four circle primitives for the rounded corners*
1,1,$1+$1,$2,$3*
1,1,$1+$1,$4,$5*
1,1,$1+$1,$6,$7*
1,1,$1+$1,$8,$9*
0 Add four rect primitives between the rounded corners*
20,1,$1+$1,$2,$3,$4,$5,0*
20,1,$1+$1,$4,$5,$6,$7,0*
20,1,$1+$1,$6,$7,$8,$9,0*
20,1,$1+$1,$8,$9,$2,$3,0*%
G04 Aperture macros list end*
%TA.AperFunction,ComponentPad*%
%ADD10RoundRect,0.250000X-0.600000X-0.725000X0.600000X-0.725000X0.600000X0.725000X-0.600000X0.725000X0*%
%TD*%
%TA.AperFunction,ComponentPad*%
%ADD11O,1.700000X1.950000*%
%TD*%
%TA.AperFunction,ComponentPad*%
%ADD12RoundRect,0.250000X0.845000X-0.620000X0.845000X0.620000X-0.845000X0.620000X-0.845000X-0.620000X0*%
%TD*%
%TA.AperFunction,ComponentPad*%
%ADD13O,2.190000X1.740000*%
%TD*%
%TA.AperFunction,ComponentPad*%
%ADD14RoundRect,0.250000X0.750000X-0.600000X0.750000X0.600000X-0.750000X0.600000X-0.750000X-0.600000X0*%
%TD*%
%TA.AperFunction,ComponentPad*%
%ADD15O,2.000000X1.700000*%
%TD*%
%TA.AperFunction,ComponentPad*%
%ADD16RoundRect,0.250000X-0.600000X-0.750000X0.600000X-0.750000X0.600000X0.750000X-0.600000X0.750000X0*%
%TD*%
%TA.AperFunction,ComponentPad*%
%ADD17O,1.700000X2.000000*%
%TD*%
%TA.AperFunction,ComponentPad*%
%ADD18R,1.500000X2.300000*%
%TD*%
%TA.AperFunction,ComponentPad*%
%ADD19O,1.500000X2.300000*%
%TD*%
%TA.AperFunction,ComponentPad*%
%ADD20RoundRect,0.250000X0.600000X0.725000X-0.600000X0.725000X-0.600000X-0.725000X0.600000X-0.725000X0*%
%TD*%
%TA.AperFunction,ComponentPad*%
%ADD21RoundRect,0.250000X-0.750000X0.750000X-0.750000X-0.750000X0.750000X-0.750000X0.750000X0.750000X0*%
%TD*%
%TA.AperFunction,ComponentPad*%
%ADD22C,2.000000*%
%TD*%
%TA.AperFunction,ComponentPad*%
%ADD23RoundRect,0.250000X-1.050000X1.050000X-1.050000X-1.050000X1.050000X-1.050000X1.050000X1.050000X0*%
%TD*%
%TA.AperFunction,ComponentPad*%
%ADD24C,2.600000*%
%TD*%
%TA.AperFunction,ComponentPad*%
%ADD25R,2.000000X1.905000*%
%TD*%
%TA.AperFunction,ComponentPad*%
%ADD26O,2.000000X1.905000*%
%TD*%
%TA.AperFunction,ComponentPad*%
%ADD27RoundRect,0.250000X-1.350000X-1.350000X1.350000X-1.350000X1.350000X1.350000X-1.350000X1.350000X0*%
%TD*%
%TA.AperFunction,ComponentPad*%
%ADD28C,3.200000*%
%TD*%
%TA.AperFunction,ComponentPad*%
%ADD29O,2.600000X1.600000*%
%TD*%
%TA.AperFunction,ComponentPad*%
%ADD30RoundRect,0.250000X1.050000X0.550000X-1.050000X0.550000X-1.050000X-0.550000X1.050000X-0.550000X0*%
%TD*%
%TA.AperFunction,ComponentPad*%
%ADD31C,1.778000*%
%TD*%
%TA.AperFunction,ViaPad*%
%ADD32C,0.600000*%
%TD*%
%TA.AperFunction,Conductor*%
%ADD33C,0.250000*%
%TD*%
G04 APERTURE END LIST*
D10*
%TO.P,Encoder1,1,Pin_1*%
%TO.N,unconnected-(Encoder1-Pin_1-Pad1)*%
X164418000Y-86377000D03*
D11*
%TO.P,Encoder1,2,Pin_2*%
%TO.N,Net-(Encoder1-Pin_2)*%
X166918000Y-86377000D03*
%TO.P,Encoder1,3,Pin_3*%
%TO.N,Net-(Encoder1-Pin_3)*%
X169418000Y-86377000D03*
%TO.P,Encoder1,4,Pin_4*%
%TO.N,+ISO_5V*%
X171918000Y-86377000D03*
%TO.P,Encoder1,5,Pin_5*%
%TO.N,ISO_GND*%
X174418000Y-86377000D03*
%TD*%
D10*
%TO.P,Switch1,1,Pin_1*%
%TO.N,Net-(Switch1-Pin_1)*%
X162620000Y-115807000D03*
D11*
%TO.P,Switch1,2,Pin_2*%
%TO.N,ISO_GND*%
X165120000Y-115807000D03*
%TO.P,Switch1,3,Pin_3*%
X167620000Y-115807000D03*
%TO.P,Switch1,4,Pin_4*%
%TO.N,Net-(Feather_M4_CAN_Express1-A3)*%
X170120000Y-115807000D03*
%TD*%
D12*
%TO.P,Rad_Fan_3,1,Pin_1*%
%TO.N,GND*%
X106680000Y-113665000D03*
D13*
%TO.P,Rad_Fan_3,2,Pin_2*%
%TO.N,+24V*%
X106680000Y-111125000D03*
%TO.P,Rad_Fan_3,3,Pin_3*%
%TO.N,Net-(Rad_Fan_1-Pin_3)*%
X106680000Y-108585000D03*
%TO.P,Rad_Fan_3,4,Pin_4*%
%TO.N,unconnected-(Rad_Fan_3-Pin_4-Pad4)*%
X106680000Y-106045000D03*
%TD*%
D14*
%TO.P,Therm_sw1,1,Pin_1*%
%TO.N,Net-(Q3-G)*%
X163813000Y-108946000D03*
D15*
%TO.P,Therm_sw1,2,Pin_2*%
%TO.N,Net-(Feather_M4_CAN_Express1-A4)*%
X163813000Y-106446000D03*
%TD*%
D16*
%TO.P,LED_TEMP1,1,Pin_1*%
%TO.N,ISO_GND*%
X162580000Y-131555000D03*
D17*
%TO.P,LED_TEMP1,2,Pin_2*%
%TO.N,Net-(Feather_M4_CAN_Express1-A0)*%
X165080000Y-131555000D03*
%TD*%
D18*
%TO.P,U2,1,IN*%
%TO.N,+24V*%
X125095000Y-125905500D03*
D19*
%TO.P,U2,2,GND*%
%TO.N,GND*%
X127635000Y-125905500D03*
%TO.P,U2,3,OUT*%
%TO.N,+3.3V*%
X130175000Y-125905500D03*
%TD*%
D20*
%TO.P,Display1,1,Pin_1*%
%TO.N,ISO_GND*%
X165294000Y-77741000D03*
D11*
%TO.P,Display1,2,Pin_2*%
%TO.N,+ISO_3.3V*%
X162794000Y-77741000D03*
%TO.P,Display1,3,Pin_3*%
%TO.N,Net-(Display1-Pin_3)*%
X160294000Y-77741000D03*
%TO.P,Display1,4,Pin_4*%
%TO.N,Net-(Display1-Pin_4)*%
X157794000Y-77741000D03*
%TD*%
D21*
%TO.P,C9,1*%
%TO.N,+24V*%
X119380000Y-77007323D03*
D22*
%TO.P,C9,2*%
%TO.N,GND*%
X119380000Y-82007323D03*
%TD*%
D12*
%TO.P,Aux_Fan_1,1,Pin_1*%
%TO.N,GND*%
X106680000Y-125095000D03*
D13*
%TO.P,Aux_Fan_1,2,Pin_2*%
%TO.N,+24V*%
X106680000Y-122555000D03*
%TO.P,Aux_Fan_1,3,Pin_3*%
%TO.N,Net-(Aux_Fan_1-Pin_3)*%
X106680000Y-120015000D03*
%TO.P,Aux_Fan_1,4,Pin_4*%
%TO.N,Net-(Aux_Fan_1-Pin_4)*%
X106680000Y-117475000D03*
%TD*%
D12*
%TO.P,Pump_1,1,Pin_1*%
%TO.N,GND*%
X116840000Y-125095000D03*
D13*
%TO.P,Pump_1,2,Pin_2*%
%TO.N,+24V*%
X116840000Y-122555000D03*
%TO.P,Pump_1,3,Pin_3*%
%TO.N,Net-(Pump_1-Pin_3)*%
X116840000Y-120015000D03*
%TO.P,Pump_1,4,Pin_4*%
%TO.N,Net-(Pump_1-Pin_4)*%
X116840000Y-117475000D03*
%TD*%
D12*
%TO.P,PSU_Fan1,1,Pin_1*%
%TO.N,GND*%
X116860000Y-113665000D03*
D13*
%TO.P,PSU_Fan1,2,Pin_2*%
%TO.N,+24V*%
X116860000Y-111125000D03*
%TO.P,PSU_Fan1,3,Pin_3*%
%TO.N,Net-(PSU_Fan1-Pin_3)*%
X116860000Y-108585000D03*
%TO.P,PSU_Fan1,4,Pin_4*%
%TO.N,Net-(PSU_Fan1-Pin_4)*%
X116860000Y-106045000D03*
%TD*%
D23*
%TO.P,24V1,1,Pin_1*%
%TO.N,GND*%
X107950000Y-84455000D03*
D24*
%TO.P,24V1,2,Pin_2*%
%TO.N,+24V*%
X107950000Y-89535000D03*
%TD*%
D12*
%TO.P,Rad_Fan_2,1,Pin_1*%
%TO.N,GND*%
X116840000Y-102235000D03*
D13*
%TO.P,Rad_Fan_2,2,Pin_2*%
%TO.N,+24V*%
X116840000Y-99695000D03*
%TO.P,Rad_Fan_2,3,Pin_3*%
%TO.N,Net-(Rad_Fan_1-Pin_3)*%
X116840000Y-97155000D03*
%TO.P,Rad_Fan_2,4,Pin_4*%
%TO.N,unconnected-(Rad_Fan_2-Pin_4-Pad4)*%
X116840000Y-94615000D03*
%TD*%
D14*
%TO.P,Remote1,1,Pin_1*%
%TO.N,/remote_on_off*%
X172703000Y-108946000D03*
D15*
%TO.P,Remote1,2,Pin_2*%
%TO.N,/12V_AUX*%
X172703000Y-106446000D03*
%TD*%
D16*
%TO.P,WATER_TEMP1,1,Pin_1*%
%TO.N,ISO_GND*%
X162580000Y-123681000D03*
D17*
%TO.P,WATER_TEMP1,2,Pin_2*%
%TO.N,Net-(Feather_M4_CAN_Express1-A1)*%
X165080000Y-123681000D03*
%TD*%
D25*
%TO.P,U3,1,GND*%
%TO.N,ISO_GND*%
X151062733Y-76803668D03*
D26*
%TO.P,U3,2,VO*%
%TO.N,+ISO_3.3V*%
X151062733Y-79343668D03*
%TO.P,U3,3,VI*%
%TO.N,+ISO_5V*%
X151062733Y-81883668D03*
%TD*%
D12*
%TO.P,Rad_Fan_1,1,Pin_1*%
%TO.N,GND*%
X106680000Y-102235000D03*
D13*
%TO.P,Rad_Fan_1,2,Pin_2*%
%TO.N,+24V*%
X106680000Y-99695000D03*
%TO.P,Rad_Fan_1,3,Pin_3*%
%TO.N,Net-(Rad_Fan_1-Pin_3)*%
X106680000Y-97155000D03*
%TO.P,Rad_Fan_1,4,Pin_4*%
%TO.N,Net-(Rad_Fan_1-Pin_4)*%
X106680000Y-94615000D03*
%TD*%
D27*
%TO.P,D1,1,K*%
%TO.N,+24V*%
X114300000Y-132080000D03*
D28*
%TO.P,D1,2,A*%
%TO.N,GND*%
X129540000Y-132080000D03*
%TD*%
D29*
%TO.P,Feather_M4_CAN_Express1,28,VBAT*%
%TO.N,unconnected-(Feather_M4_CAN_Express1-VBAT-Pad28)*%
X137460000Y-119380000D03*
%TO.P,Feather_M4_CAN_Express1,27,EN*%
%TO.N,unconnected-(Feather_M4_CAN_Express1-EN-Pad27)*%
X137460000Y-116840000D03*
%TO.P,Feather_M4_CAN_Express1,26,USB*%
%TO.N,unconnected-(Feather_M4_CAN_Express1-USB-Pad26)*%
X137460000Y-114300000D03*
%TO.P,Feather_M4_CAN_Express1,25,D13*%
%TO.N,Net-(Feather_M4_CAN_Express1-D13)*%
X137460000Y-111760000D03*
%TO.P,Feather_M4_CAN_Express1,24,D12*%
%TO.N,Net-(Feather_M4_CAN_Express1-D12)*%
X137460000Y-109220000D03*
%TO.P,Feather_M4_CAN_Express1,23,D11*%
%TO.N,Net-(Feather_M4_CAN_Express1-D11)*%
X137460000Y-106680000D03*
%TO.P,Feather_M4_CAN_Express1,22,D10*%
%TO.N,Net-(Feather_M4_CAN_Express1-D10)*%
X137460000Y-104140000D03*
%TO.P,Feather_M4_CAN_Express1,21,D9*%
%TO.N,Net-(Feather_M4_CAN_Express1-D9)*%
X137460000Y-101600000D03*
%TO.P,Feather_M4_CAN_Express1,20,D6*%
%TO.N,Net-(Feather_M4_CAN_Express1-D6)*%
X137460000Y-99060000D03*
%TO.P,Feather_M4_CAN_Express1,19,D5*%
%TO.N,Net-(Feather_M4_CAN_Express1-D5)*%
X137460000Y-96520000D03*
%TO.P,Feather_M4_CAN_Express1,18,SCL*%
%TO.N,Net-(Display1-Pin_3)*%
X137460000Y-93980000D03*
%TO.P,Feather_M4_CAN_Express1,17,SDA*%
%TO.N,Net-(Display1-Pin_4)*%
X137460000Y-91440000D03*
%TO.P,Feather_M4_CAN_Express1,16,D4*%
%TO.N,Net-(Feather_M4_CAN_Express1-D4)*%
X157180000Y-91440000D03*
%TO.P,Feather_M4_CAN_Express1,15,TX*%
%TO.N,Net-(Encoder1-Pin_2)*%
X157180000Y-93980000D03*
%TO.P,Feather_M4_CAN_Express1,14,RX*%
%TO.N,Net-(Encoder1-Pin_3)*%
X157180000Y-96520000D03*
%TO.P,Feather_M4_CAN_Express1,13,MISO*%
%TO.N,unconnected-(Feather_M4_CAN_Express1-MISO-Pad13)*%
X157180000Y-99060000D03*
%TO.P,Feather_M4_CAN_Express1,12,MOSI*%
%TO.N,unconnected-(Feather_M4_CAN_Express1-MOSI-Pad12)*%
X157180000Y-101600000D03*
%TO.P,Feather_M4_CAN_Express1,11,SCK*%
%TO.N,unconnected-(Feather_M4_CAN_Express1-SCK-Pad11)*%
X157180000Y-104140000D03*
%TO.P,Feather_M4_CAN_Express1,10,A5*%
%TO.N,unconnected-(Feather_M4_CAN_Express1-A5-Pad10)*%
X157180000Y-106680000D03*
%TO.P,Feather_M4_CAN_Express1,9,A4*%
%TO.N,Net-(Feather_M4_CAN_Express1-A4)*%
X157180000Y-109220000D03*
%TO.P,Feather_M4_CAN_Express1,8,A3*%
%TO.N,Net-(Feather_M4_CAN_Express1-A3)*%
X157180000Y-111760000D03*
%TO.P,Feather_M4_CAN_Express1,7,A2*%
%TO.N,Net-(Feather_M4_CAN_Express1-A2)*%
X157180000Y-114300000D03*
%TO.P,Feather_M4_CAN_Express1,6,A1*%
%TO.N,Net-(Feather_M4_CAN_Express1-A1)*%
X157180000Y-116840000D03*
%TO.P,Feather_M4_CAN_Express1,5,A0*%
%TO.N,Net-(Feather_M4_CAN_Express1-A0)*%
X157180000Y-119380000D03*
%TO.P,Feather_M4_CAN_Express1,4,GND*%
%TO.N,ISO_GND*%
X157180000Y-121920000D03*
%TO.P,Feather_M4_CAN_Express1,3,AREF*%
%TO.N,unconnected-(Feather_M4_CAN_Express1-AREF-Pad3)*%
X157180000Y-124460000D03*
%TO.P,Feather_M4_CAN_Express1,2,3V3*%
%TO.N,+ISO_3.3V*%
X157180000Y-127000000D03*
D30*
%TO.P,Feather_M4_CAN_Express1,1,~{RESET}*%
%TO.N,unconnected-(Feather_M4_CAN_Express1-~{RESET}-Pad1)*%
X157180000Y-129540000D03*
%TD*%
D31*
%TO.P,24V_5V_Buck_ISO1,1,-Vin*%
%TO.N,GND*%
X128270000Y-76617500D03*
%TO.P,24V_5V_Buck_ISO1,2,+Vin*%
%TO.N,+24V*%
X130810000Y-76617500D03*
%TO.P,24V_5V_Buck_ISO1,3,R.C.*%
%TO.N,unconnected-(24V_5V_Buck_ISO1-R.C.-Pad3)*%
X133350000Y-76617500D03*
%TO.P,24V_5V_Buck_ISO1,6,+Vout*%
%TO.N,+ISO_5V*%
X140970000Y-76617500D03*
%TO.P,24V_5V_Buck_ISO1,7,-Vout*%
%TO.N,ISO_GND*%
X143510000Y-76617500D03*
%TO.P,24V_5V_Buck_ISO1,8,N.C.*%
%TO.N,unconnected-(24V_5V_Buck_ISO1-N.C.-Pad8)*%
X146050000Y-76617500D03*
%TD*%
D32*
%TO.N,ISO_GND*%
X163576000Y-93030000D03*
X134620000Y-110678000D03*
X132015000Y-92075000D03*
X175387000Y-98655500D03*
X168910000Y-96670500D03*
X142748000Y-87630000D03*
X134620000Y-104328000D03*
X163576000Y-96773360D03*
X130452500Y-89408000D03*
X142748000Y-86360000D03*
X176079219Y-116078000D03*
X134620000Y-117028000D03*
X134620000Y-97978000D03*
%TO.N,+ISO_3.3V*%
X161290000Y-93067500D03*
X161290000Y-96810860D03*
X134587000Y-115095000D03*
X134620000Y-108778000D03*
X134620000Y-102428000D03*
X171092500Y-127254000D03*
X134620000Y-96078000D03*
X176019757Y-118364000D03*
%TO.N,GND*%
X124902000Y-92456000D03*
X128627500Y-89408000D03*
X123002000Y-96520000D03*
X124902000Y-105156000D03*
X123002000Y-115570000D03*
X123002000Y-102870000D03*
X123002000Y-109220000D03*
X124902000Y-111506000D03*
X124902000Y-98806000D03*
%TO.N,Net-(Aux_Fan_1-Pin_3)*%
X127065000Y-112395000D03*
%TO.N,Net-(Aux_Fan_1-Pin_4)*%
X123039500Y-113538000D03*
X127065000Y-113665000D03*
%TO.N,+3.3V*%
X124902000Y-109220000D03*
X124902000Y-96520000D03*
X124902000Y-115570000D03*
X124902000Y-102870000D03*
%TO.N,Net-(Feather_M4_CAN_Express1-D10)*%
X132015000Y-94615000D03*
%TO.N,Net-(PSU_Fan1-Pin_3)*%
X127065000Y-99695000D03*
%TO.N,Net-(PSU_Fan1-Pin_4)*%
X123039500Y-100838000D03*
X127065000Y-100965000D03*
%TO.N,Net-(Pump_1-Pin_4)*%
X127065000Y-107315000D03*
X123039500Y-107188000D03*
%TO.N,Net-(Pump_1-Pin_3)*%
X127065000Y-106045000D03*
%TO.N,Net-(Rad_Fan_1-Pin_4)*%
X127065000Y-94615000D03*
X123039500Y-94488000D03*
%TO.N,Net-(Rad_Fan_1-Pin_3)*%
X127065000Y-93345000D03*
%TO.N,Net-(Feather_M4_CAN_Express1-D12)*%
X132015000Y-100965000D03*
%TD*%
D33*
%TO.N,Net-(Feather_M4_CAN_Express1-D10)*%
X135834000Y-102814000D02*
X135834000Y-98180000D01*
X137160000Y-104140000D02*
X135834000Y-102814000D01*
X135834000Y-98180000D02*
X132269000Y-94615000D01*
X132269000Y-94615000D02*
X132015000Y-94615000D01*
%TO.N,Net-(Feather_M4_CAN_Express1-D12)*%
X132015000Y-104075000D02*
X132015000Y-100965000D01*
X137160000Y-109220000D02*
X132015000Y-104075000D01*
%TO.N,Net-(Display1-Pin_3)*%
X144055000Y-93980000D02*
X160294000Y-77741000D01*
X137160000Y-93980000D02*
X144055000Y-93980000D01*
%TO.N,Net-(Display1-Pin_4)*%
X137160000Y-91440000D02*
X144095000Y-91440000D01*
X144095000Y-91440000D02*
X157794000Y-77741000D01*
%TD*%
%TA.AperFunction,Conductor*%
%TO.N,GND*%
G36*
X134563039Y-74187685D02*
G01*
X134608794Y-74240489D01*
X134620000Y-74292000D01*
X134620000Y-76217558D01*
X134600315Y-76284597D01*
X134547511Y-76330352D01*
X134478353Y-76340296D01*
X134414797Y-76311271D01*
X134378069Y-76255876D01*
X134359679Y-76199277D01*
X134281824Y-76046478D01*
X134200957Y-75935173D01*
X134181029Y-75907744D01*
X134181025Y-75907739D01*
X134059760Y-75786474D01*
X134059755Y-75786470D01*
X133921025Y-75685678D01*
X133921024Y-75685677D01*
X133921022Y-75685676D01*
X133768223Y-75607821D01*
X133605125Y-75554827D01*
X133605123Y-75554826D01*
X133605122Y-75554826D01*
X133475009Y-75534218D01*
X133435746Y-75528000D01*
X133264254Y-75528000D01*
X133232379Y-75533048D01*
X133094877Y-75554826D01*
X132931774Y-75607822D01*
X132778974Y-75685678D01*
X132640244Y-75786470D01*
X132640239Y-75786474D01*
X132518974Y-75907739D01*
X132518970Y-75907744D01*
X132418178Y-76046474D01*
X132340322Y-76199274D01*
X132287326Y-76362377D01*
X132260500Y-76531754D01*
X132260500Y-76703245D01*
X132287326Y-76872622D01*
X132287327Y-76872625D01*
X132321930Y-76979123D01*
X132340322Y-77035725D01*
X132418178Y-77188525D01*
X132518970Y-77327255D01*
X132518974Y-77327260D01*
X132640239Y-77448525D01*
X132640244Y-77448529D01*
X132761251Y-77536445D01*
X132778978Y-77549324D01*
X132931777Y-77627179D01*
X133094875Y-77680173D01*
X133264254Y-77707000D01*
X133264255Y-77707000D01*
X133435745Y-77707000D01*
X133435746Y-77707000D01*
X133605125Y-77680173D01*
X133768223Y-77627179D01*
X133921022Y-77549324D01*
X134059762Y-77448524D01*
X134181024Y-77327262D01*
X134281824Y-77188522D01*
X134359679Y-77035723D01*
X134378070Y-76979121D01*
X134417506Y-76921448D01*
X134481865Y-76894249D01*
X134550711Y-76906163D01*
X134602187Y-76953408D01*
X134620000Y-77017441D01*
X134620000Y-83696000D01*
X134600315Y-83763039D01*
X134547511Y-83808794D01*
X134496000Y-83820000D01*
X129286000Y-83820000D01*
X129286000Y-118364000D01*
X134496000Y-118364000D01*
X134563039Y-118383685D01*
X134608794Y-118436489D01*
X134620000Y-118488000D01*
X134620000Y-135004000D01*
X134600315Y-135071039D01*
X134547511Y-135116794D01*
X134496000Y-135128000D01*
X108683362Y-135128000D01*
X108616323Y-135108315D01*
X108595681Y-135091681D01*
X107563899Y-134059899D01*
X107530414Y-133998576D01*
X107535398Y-133928884D01*
X107577270Y-133872951D01*
X107589568Y-133864837D01*
X107793803Y-133746924D01*
X108001851Y-133587282D01*
X108001855Y-133587277D01*
X108001860Y-133587274D01*
X108187274Y-133401860D01*
X108187277Y-133401855D01*
X108187282Y-133401851D01*
X108346924Y-133193803D01*
X108478043Y-132966697D01*
X108578398Y-132724419D01*
X108646270Y-132471116D01*
X108680500Y-132211120D01*
X108680500Y-131948880D01*
X108646270Y-131688884D01*
X108578398Y-131435581D01*
X108479202Y-131196100D01*
X108478046Y-131193309D01*
X108478041Y-131193299D01*
X108346924Y-130966196D01*
X108187281Y-130758148D01*
X108187274Y-130758140D01*
X108104864Y-130675730D01*
X112499500Y-130675730D01*
X112499500Y-133484269D01*
X112502353Y-133514699D01*
X112502353Y-133514701D01*
X112547206Y-133642880D01*
X112547207Y-133642882D01*
X112627850Y-133752150D01*
X112737118Y-133832793D01*
X112779845Y-133847744D01*
X112865299Y-133877646D01*
X112895730Y-133880500D01*
X112895734Y-133880500D01*
X115704270Y-133880500D01*
X115734699Y-133877646D01*
X115734701Y-133877646D01*
X115798790Y-133855219D01*
X115862882Y-133832793D01*
X115972150Y-133752150D01*
X116052793Y-133642882D01*
X116075219Y-133578790D01*
X116097646Y-133514701D01*
X116097646Y-133514699D01*
X116100500Y-133484269D01*
X116100500Y-130675730D01*
X116097646Y-130645300D01*
X116097646Y-130645298D01*
X116052793Y-130517119D01*
X116052792Y-130517117D01*
X115972150Y-130407850D01*
X115862882Y-130327207D01*
X115862880Y-130327206D01*
X115734700Y-130282353D01*
X115704270Y-130279500D01*
X115704266Y-130279500D01*
X112895734Y-130279500D01*
X112895730Y-130279500D01*
X112865300Y-130282353D01*
X112865298Y-130282353D01*
X112737119Y-130327206D01*
X112737117Y-130327207D01*
X112627850Y-130407850D01*
X112547207Y-130517117D01*
X112547206Y-130517119D01*
X112502353Y-130645298D01*
X112502353Y-130645300D01*
X112499500Y-130675730D01*
X108104864Y-130675730D01*
X108001860Y-130572726D01*
X108001851Y-130572718D01*
X107793803Y-130413075D01*
X107566700Y-130281958D01*
X107566690Y-130281953D01*
X107324428Y-130181605D01*
X107324421Y-130181603D01*
X107324419Y-130181602D01*
X107071116Y-130113730D01*
X107013339Y-130106123D01*
X106811127Y-130079500D01*
X106811120Y-130079500D01*
X106548880Y-130079500D01*
X106548872Y-130079500D01*
X106317772Y-130109926D01*
X106288884Y-130113730D01*
X106035581Y-130181602D01*
X106035571Y-130181605D01*
X105793309Y-130281953D01*
X105793299Y-130281958D01*
X105566196Y-130413075D01*
X105358148Y-130572718D01*
X105172718Y-130758148D01*
X105013075Y-130966196D01*
X104895168Y-131170419D01*
X104844601Y-131218635D01*
X104775994Y-131231858D01*
X104711129Y-131205890D01*
X104700100Y-131196100D01*
X103668319Y-130164319D01*
X103634834Y-130102996D01*
X103632000Y-130076638D01*
X103632000Y-124735747D01*
X124144500Y-124735747D01*
X124144500Y-127075252D01*
X124156131Y-127133729D01*
X124156132Y-127133730D01*
X124200447Y-127200052D01*
X124266769Y-127244367D01*
X124266770Y-127244368D01*
X124325247Y-127255999D01*
X124325250Y-127256000D01*
X124325252Y-127256000D01*
X125864750Y-127256000D01*
X125864751Y-127255999D01*
X125879568Y-127253052D01*
X125923229Y-127244368D01*
X125923229Y-127244367D01*
X125923231Y-127244367D01*
X125989552Y-127200052D01*
X126033867Y-127133731D01*
X126033867Y-127133729D01*
X126033868Y-127133729D01*
X126045499Y-127075252D01*
X126045500Y-127075250D01*
X126045500Y-125411879D01*
X129224500Y-125411879D01*
X129224500Y-126399120D01*
X129261025Y-126582743D01*
X129261027Y-126582751D01*
X129332676Y-126755728D01*
X129332681Y-126755737D01*
X129436697Y-126911407D01*
X129436700Y-126911411D01*
X129569088Y-127043799D01*
X129569092Y-127043802D01*
X129724762Y-127147818D01*
X129724768Y-127147821D01*
X129724769Y-127147822D01*
X129897749Y-127219473D01*
X130022901Y-127244367D01*
X130081379Y-127255999D01*
X130081383Y-127256000D01*
X130081384Y-127256000D01*
X130268617Y-127256000D01*
X130268618Y-127255999D01*
X130452251Y-127219473D01*
X130625231Y-127147822D01*
X130780908Y-127043802D01*
X130913302Y-126911408D01*
X131017322Y-126755731D01*
X131088973Y-126582751D01*
X131125500Y-126399116D01*
X131125500Y-125411884D01*
X131088973Y-125228249D01*
X131017322Y-125055269D01*
X131017321Y-125055268D01*
X131017318Y-125055262D01*
X130913302Y-124899592D01*
X130913299Y-124899588D01*
X130780911Y-124767200D01*
X130780907Y-124767197D01*
X130625237Y-124663181D01*
X130625228Y-124663176D01*
X130452251Y-124591527D01*
X130452243Y-124591525D01*
X130268620Y-124555000D01*
X130268616Y-124555000D01*
X130081384Y-124555000D01*
X130081379Y-124555000D01*
X129897756Y-124591525D01*
X129897748Y-124591527D01*
X129724771Y-124663176D01*
X129724762Y-124663181D01*
X129569092Y-124767197D01*
X129569088Y-124767200D01*
X129436700Y-124899588D01*
X129436697Y-124899592D01*
X129332681Y-125055262D01*
X129332676Y-125055271D01*
X129261027Y-125228248D01*
X129261025Y-125228256D01*
X129224500Y-125411879D01*
X126045500Y-125411879D01*
X126045500Y-124735749D01*
X126045499Y-124735747D01*
X126033868Y-124677270D01*
X126033867Y-124677269D01*
X125989552Y-124610947D01*
X125923230Y-124566632D01*
X125923229Y-124566631D01*
X125864752Y-124555000D01*
X125864748Y-124555000D01*
X124325252Y-124555000D01*
X124325247Y-124555000D01*
X124266770Y-124566631D01*
X124266769Y-124566632D01*
X124200447Y-124610947D01*
X124156132Y-124677269D01*
X124156131Y-124677270D01*
X124144500Y-124735747D01*
X103632000Y-124735747D01*
X103632000Y-122449560D01*
X105384500Y-122449560D01*
X105384500Y-122660439D01*
X105425636Y-122867245D01*
X105425638Y-122867253D01*
X105506333Y-123062069D01*
X105506338Y-123062078D01*
X105623487Y-123237403D01*
X105623490Y-123237407D01*
X105772592Y-123386509D01*
X105772596Y-123386512D01*
X105947921Y-123503661D01*
X105947927Y-123503664D01*
X105947928Y-123503665D01*
X106142747Y-123584362D01*
X106349560Y-123625499D01*
X106349564Y-123625500D01*
X106349565Y-123625500D01*
X107010436Y-123625500D01*
X107010437Y-123625499D01*
X107217253Y-123584362D01*
X107412072Y-123503665D01*
X107587404Y-123386512D01*
X107736512Y-123237404D01*
X107853665Y-123062072D01*
X107934362Y-122867253D01*
X107975500Y-122660435D01*
X107975500Y-122449565D01*
X107975499Y-122449560D01*
X115544500Y-122449560D01*
X115544500Y-122660439D01*
X115585636Y-122867245D01*
X115585638Y-122867253D01*
X115666333Y-123062069D01*
X115666338Y-123062078D01*
X115783487Y-123237403D01*
X115783490Y-123237407D01*
X115932592Y-123386509D01*
X115932596Y-123386512D01*
X116107921Y-123503661D01*
X116107927Y-123503664D01*
X116107928Y-123503665D01*
X116302747Y-123584362D01*
X116509560Y-123625499D01*
X116509564Y-123625500D01*
X116509565Y-123625500D01*
X117170436Y-123625500D01*
X117170437Y-123625499D01*
X117377253Y-123584362D01*
X117572072Y-123503665D01*
X117747404Y-123386512D01*
X117896512Y-123237404D01*
X118013665Y-123062072D01*
X118094362Y-122867253D01*
X118135500Y-122660435D01*
X118135500Y-122449565D01*
X118094362Y-122242747D01*
X118013665Y-122047928D01*
X118013664Y-122047927D01*
X118013661Y-122047921D01*
X117896512Y-121872596D01*
X117896509Y-121872592D01*
X117747407Y-121723490D01*
X117747403Y-121723487D01*
X117572078Y-121606338D01*
X117572069Y-121606333D01*
X117377253Y-121525638D01*
X117377245Y-121525636D01*
X117170439Y-121484500D01*
X117170435Y-121484500D01*
X116509565Y-121484500D01*
X116509560Y-121484500D01*
X116302754Y-121525636D01*
X116302746Y-121525638D01*
X116107930Y-121606333D01*
X116107921Y-121606338D01*
X115932596Y-121723487D01*
X115932592Y-121723490D01*
X115783490Y-121872592D01*
X115783487Y-121872596D01*
X115666338Y-122047921D01*
X115666333Y-122047930D01*
X115585638Y-122242746D01*
X115585636Y-122242754D01*
X115544500Y-122449560D01*
X107975499Y-122449560D01*
X107934362Y-122242747D01*
X107853665Y-122047928D01*
X107853664Y-122047927D01*
X107853661Y-122047921D01*
X107736512Y-121872596D01*
X107736509Y-121872592D01*
X107587407Y-121723490D01*
X107587403Y-121723487D01*
X107412078Y-121606338D01*
X107412069Y-121606333D01*
X107217253Y-121525638D01*
X107217245Y-121525636D01*
X107010439Y-121484500D01*
X107010435Y-121484500D01*
X106349565Y-121484500D01*
X106349560Y-121484500D01*
X106142754Y-121525636D01*
X106142746Y-121525638D01*
X105947930Y-121606333D01*
X105947921Y-121606338D01*
X105772596Y-121723487D01*
X105772592Y-121723490D01*
X105623490Y-121872592D01*
X105623487Y-121872596D01*
X105506338Y-122047921D01*
X105506333Y-122047930D01*
X105425638Y-122242746D01*
X105425636Y-122242754D01*
X105384500Y-122449560D01*
X103632000Y-122449560D01*
X103632000Y-119909560D01*
X105384500Y-119909560D01*
X105384500Y-120120439D01*
X105425636Y-120327245D01*
X105425638Y-120327253D01*
X105506333Y-120522069D01*
X105506338Y-120522078D01*
X105623487Y-120697403D01*
X105623490Y-120697407D01*
X105772592Y-120846509D01*
X105772596Y-120846512D01*
X105947921Y-120963661D01*
X105947927Y-120963664D01*
X105947928Y-120963665D01*
X106142747Y-121044362D01*
X106349560Y-121085499D01*
X106349564Y-121085500D01*
X106349565Y-121085500D01*
X107010436Y-121085500D01*
X107010437Y-121085499D01*
X107217253Y-121044362D01*
X107412072Y-120963665D01*
X107587404Y-120846512D01*
X107736512Y-120697404D01*
X107853665Y-120522072D01*
X107934362Y-120327253D01*
X107975500Y-120120435D01*
X107975500Y-119909565D01*
X107975499Y-119909560D01*
X115544500Y-119909560D01*
X115544500Y-120120439D01*
X115585636Y-120327245D01*
X115585638Y-120327253D01*
X115666333Y-120522069D01*
X115666338Y-120522078D01*
X115783487Y-120697403D01*
X115783490Y-120697407D01*
X115932592Y-120846509D01*
X115932596Y-120846512D01*
X116107921Y-120963661D01*
X116107927Y-120963664D01*
X116107928Y-120963665D01*
X116302747Y-121044362D01*
X116509560Y-121085499D01*
X116509564Y-121085500D01*
X116509565Y-121085500D01*
X117170436Y-121085500D01*
X117170437Y-121085499D01*
X117377253Y-121044362D01*
X117572072Y-120963665D01*
X117747404Y-120846512D01*
X117896512Y-120697404D01*
X118013665Y-120522072D01*
X118094362Y-120327253D01*
X118135500Y-120120435D01*
X118135500Y-119909565D01*
X118094362Y-119702747D01*
X118013665Y-119507928D01*
X118013664Y-119507927D01*
X118013661Y-119507921D01*
X117896512Y-119332596D01*
X117896509Y-119332592D01*
X117747407Y-119183490D01*
X117747403Y-119183487D01*
X117572078Y-119066338D01*
X117572069Y-119066333D01*
X117377253Y-118985638D01*
X117377245Y-118985636D01*
X117170439Y-118944500D01*
X117170435Y-118944500D01*
X116509565Y-118944500D01*
X116509560Y-118944500D01*
X116302754Y-118985636D01*
X116302746Y-118985638D01*
X116107930Y-119066333D01*
X116107921Y-119066338D01*
X115932596Y-119183487D01*
X115932592Y-119183490D01*
X115783490Y-119332592D01*
X115783487Y-119332596D01*
X115666338Y-119507921D01*
X115666333Y-119507930D01*
X115585638Y-119702746D01*
X115585636Y-119702754D01*
X115544500Y-119909560D01*
X107975499Y-119909560D01*
X107934362Y-119702747D01*
X107853665Y-119507928D01*
X107853664Y-119507927D01*
X107853661Y-119507921D01*
X107736512Y-119332596D01*
X107736509Y-119332592D01*
X107587407Y-119183490D01*
X107587403Y-119183487D01*
X107412078Y-119066338D01*
X107412069Y-119066333D01*
X107217253Y-118985638D01*
X107217245Y-118985636D01*
X107010439Y-118944500D01*
X107010435Y-118944500D01*
X106349565Y-118944500D01*
X106349560Y-118944500D01*
X106142754Y-118985636D01*
X106142746Y-118985638D01*
X105947930Y-119066333D01*
X105947921Y-119066338D01*
X105772596Y-119183487D01*
X105772592Y-119183490D01*
X105623490Y-119332592D01*
X105623487Y-119332596D01*
X105506338Y-119507921D01*
X105506333Y-119507930D01*
X105425638Y-119702746D01*
X105425636Y-119702754D01*
X105384500Y-119909560D01*
X103632000Y-119909560D01*
X103632000Y-117369560D01*
X105384500Y-117369560D01*
X105384500Y-117580439D01*
X105425636Y-117787245D01*
X105425638Y-117787253D01*
X105506333Y-117982069D01*
X105506338Y-117982078D01*
X105623487Y-118157403D01*
X105623490Y-118157407D01*
X105772592Y-118306509D01*
X105772596Y-118306512D01*
X105947921Y-118423661D01*
X105947927Y-118423664D01*
X105947928Y-118423665D01*
X106142747Y-118504362D01*
X106349560Y-118545499D01*
X106349564Y-118545500D01*
X106349565Y-118545500D01*
X107010436Y-118545500D01*
X107010437Y-118545499D01*
X107217253Y-118504362D01*
X107412072Y-118423665D01*
X107587404Y-118306512D01*
X107736512Y-118157404D01*
X107853665Y-117982072D01*
X107934362Y-117787253D01*
X107975500Y-117580435D01*
X107975500Y-117369565D01*
X107975499Y-117369560D01*
X115544500Y-117369560D01*
X115544500Y-117580439D01*
X115585636Y-117787245D01*
X115585638Y-117787253D01*
X115666333Y-117982069D01*
X115666338Y-117982078D01*
X115783487Y-118157403D01*
X115783490Y-118157407D01*
X115932592Y-118306509D01*
X115932596Y-118306512D01*
X116107921Y-118423661D01*
X116107927Y-118423664D01*
X116107928Y-118423665D01*
X116302747Y-118504362D01*
X116509560Y-118545499D01*
X116509564Y-118545500D01*
X116509565Y-118545500D01*
X117170436Y-118545500D01*
X117170437Y-118545499D01*
X117377253Y-118504362D01*
X117572072Y-118423665D01*
X117747404Y-118306512D01*
X117896512Y-118157404D01*
X118013665Y-117982072D01*
X118094362Y-117787253D01*
X118135500Y-117580435D01*
X118135500Y-117369565D01*
X118094362Y-117162747D01*
X118013665Y-116967928D01*
X118013664Y-116967927D01*
X118013661Y-116967921D01*
X117896512Y-116792596D01*
X117896509Y-116792592D01*
X117747407Y-116643490D01*
X117747403Y-116643487D01*
X117572078Y-116526338D01*
X117572069Y-116526333D01*
X117377253Y-116445638D01*
X117377245Y-116445636D01*
X117170439Y-116404500D01*
X117170435Y-116404500D01*
X116509565Y-116404500D01*
X116509560Y-116404500D01*
X116302754Y-116445636D01*
X116302746Y-116445638D01*
X116107930Y-116526333D01*
X116107921Y-116526338D01*
X115932596Y-116643487D01*
X115932592Y-116643490D01*
X115783490Y-116792592D01*
X115783487Y-116792596D01*
X115666338Y-116967921D01*
X115666333Y-116967930D01*
X115585638Y-117162746D01*
X115585636Y-117162754D01*
X115544500Y-117369560D01*
X107975499Y-117369560D01*
X107934362Y-117162747D01*
X107853665Y-116967928D01*
X107853664Y-116967927D01*
X107853661Y-116967921D01*
X107736512Y-116792596D01*
X107736509Y-116792592D01*
X107587407Y-116643490D01*
X107587403Y-116643487D01*
X107412078Y-116526338D01*
X107412069Y-116526333D01*
X107217253Y-116445638D01*
X107217245Y-116445636D01*
X107010439Y-116404500D01*
X107010435Y-116404500D01*
X106349565Y-116404500D01*
X106349560Y-116404500D01*
X106142754Y-116445636D01*
X106142746Y-116445638D01*
X105947930Y-116526333D01*
X105947921Y-116526338D01*
X105772596Y-116643487D01*
X105772592Y-116643490D01*
X105623490Y-116792592D01*
X105623487Y-116792596D01*
X105506338Y-116967921D01*
X105506333Y-116967930D01*
X105425638Y-117162746D01*
X105425636Y-117162754D01*
X105384500Y-117369560D01*
X103632000Y-117369560D01*
X103632000Y-115504108D01*
X124401500Y-115504108D01*
X124401500Y-115635891D01*
X124435608Y-115763187D01*
X124468554Y-115820250D01*
X124501500Y-115877314D01*
X124594686Y-115970500D01*
X124708814Y-116036392D01*
X124836108Y-116070500D01*
X124836110Y-116070500D01*
X124967890Y-116070500D01*
X124967892Y-116070500D01*
X125095186Y-116036392D01*
X125209314Y-115970500D01*
X125302500Y-115877314D01*
X125368392Y-115763186D01*
X125402500Y-115635892D01*
X125402500Y-115504108D01*
X125368392Y-115376814D01*
X125302500Y-115262686D01*
X125209314Y-115169500D01*
X125152250Y-115136554D01*
X125095187Y-115103608D01*
X125031539Y-115086554D01*
X124967892Y-115069500D01*
X124836108Y-115069500D01*
X124708812Y-115103608D01*
X124594686Y-115169500D01*
X124594683Y-115169502D01*
X124501502Y-115262683D01*
X124501500Y-115262686D01*
X124435608Y-115376812D01*
X124401500Y-115504108D01*
X103632000Y-115504108D01*
X103632000Y-113472108D01*
X122539000Y-113472108D01*
X122539000Y-113603891D01*
X122573108Y-113731187D01*
X122606054Y-113788250D01*
X122639000Y-113845314D01*
X122732186Y-113938500D01*
X122846314Y-114004392D01*
X122973608Y-114038500D01*
X122973610Y-114038500D01*
X123105390Y-114038500D01*
X123105392Y-114038500D01*
X123232686Y-114004392D01*
X123346814Y-113938500D01*
X123440000Y-113845314D01*
X123505892Y-113731186D01*
X123540000Y-113603892D01*
X123540000Y-113599108D01*
X126564500Y-113599108D01*
X126564500Y-113730891D01*
X126598608Y-113858187D01*
X126631554Y-113915250D01*
X126664500Y-113972314D01*
X126757686Y-114065500D01*
X126871814Y-114131392D01*
X126999108Y-114165500D01*
X126999110Y-114165500D01*
X127130890Y-114165500D01*
X127130892Y-114165500D01*
X127258186Y-114131392D01*
X127372314Y-114065500D01*
X127465500Y-113972314D01*
X127531392Y-113858186D01*
X127565500Y-113730892D01*
X127565500Y-113599108D01*
X127531392Y-113471814D01*
X127465500Y-113357686D01*
X127372314Y-113264500D01*
X127313741Y-113230683D01*
X127258187Y-113198608D01*
X127194539Y-113181554D01*
X127130892Y-113164500D01*
X126999108Y-113164500D01*
X126871812Y-113198608D01*
X126757686Y-113264500D01*
X126757683Y-113264502D01*
X126664502Y-113357683D01*
X126664500Y-113357686D01*
X126598608Y-113471812D01*
X126564500Y-113599108D01*
X123540000Y-113599108D01*
X123540000Y-113472108D01*
X123505892Y-113344814D01*
X123440000Y-113230686D01*
X123346814Y-113137500D01*
X123289750Y-113104554D01*
X123232687Y-113071608D01*
X123169039Y-113054554D01*
X123105392Y-113037500D01*
X122973608Y-113037500D01*
X122846312Y-113071608D01*
X122732186Y-113137500D01*
X122732183Y-113137502D01*
X122639002Y-113230683D01*
X122639000Y-113230686D01*
X122573108Y-113344812D01*
X122539000Y-113472108D01*
X103632000Y-113472108D01*
X103632000Y-112329108D01*
X126564500Y-112329108D01*
X126564500Y-112460891D01*
X126598608Y-112588187D01*
X126631554Y-112645250D01*
X126664500Y-112702314D01*
X126757686Y-112795500D01*
X126871814Y-112861392D01*
X126999108Y-112895500D01*
X126999110Y-112895500D01*
X127130890Y-112895500D01*
X127130892Y-112895500D01*
X127258186Y-112861392D01*
X127372314Y-112795500D01*
X127465500Y-112702314D01*
X127531392Y-112588186D01*
X127565500Y-112460892D01*
X127565500Y-112329108D01*
X127531392Y-112201814D01*
X127465500Y-112087686D01*
X127372314Y-111994500D01*
X127306512Y-111956509D01*
X127258187Y-111928608D01*
X127194539Y-111911554D01*
X127130892Y-111894500D01*
X126999108Y-111894500D01*
X126871812Y-111928608D01*
X126757686Y-111994500D01*
X126757683Y-111994502D01*
X126664502Y-112087683D01*
X126664500Y-112087686D01*
X126598608Y-112201812D01*
X126564500Y-112329108D01*
X103632000Y-112329108D01*
X103632000Y-111019560D01*
X105384500Y-111019560D01*
X105384500Y-111230439D01*
X105425636Y-111437245D01*
X105425638Y-111437253D01*
X105506333Y-111632069D01*
X105506338Y-111632078D01*
X105623487Y-111807403D01*
X105623490Y-111807407D01*
X105772592Y-111956509D01*
X105772596Y-111956512D01*
X105947921Y-112073661D01*
X105947930Y-112073666D01*
X105992063Y-112091946D01*
X106142747Y-112154362D01*
X106349560Y-112195499D01*
X106349564Y-112195500D01*
X106349565Y-112195500D01*
X107010436Y-112195500D01*
X107010437Y-112195499D01*
X107217253Y-112154362D01*
X107412072Y-112073665D01*
X107587404Y-111956512D01*
X107736512Y-111807404D01*
X107853665Y-111632072D01*
X107934362Y-111437253D01*
X107975500Y-111230435D01*
X107975500Y-111019565D01*
X107975499Y-111019560D01*
X115564500Y-111019560D01*
X115564500Y-111230439D01*
X115605636Y-111437245D01*
X115605638Y-111437253D01*
X115686333Y-111632069D01*
X115686338Y-111632078D01*
X115803487Y-111807403D01*
X115803490Y-111807407D01*
X115952592Y-111956509D01*
X115952596Y-111956512D01*
X116127921Y-112073661D01*
X116127930Y-112073666D01*
X116172063Y-112091946D01*
X116322747Y-112154362D01*
X116529560Y-112195499D01*
X116529564Y-112195500D01*
X116529565Y-112195500D01*
X117190436Y-112195500D01*
X117190437Y-112195499D01*
X117397253Y-112154362D01*
X117592072Y-112073665D01*
X117767404Y-111956512D01*
X117916512Y-111807404D01*
X118033665Y-111632072D01*
X118114362Y-111437253D01*
X118155500Y-111230435D01*
X118155500Y-111019565D01*
X118114362Y-110812747D01*
X118033665Y-110617928D01*
X118033664Y-110617927D01*
X118033661Y-110617921D01*
X117916512Y-110442596D01*
X117916509Y-110442592D01*
X117767407Y-110293490D01*
X117767403Y-110293487D01*
X117592078Y-110176338D01*
X117592069Y-110176333D01*
X117397253Y-110095638D01*
X117397245Y-110095636D01*
X117190439Y-110054500D01*
X117190435Y-110054500D01*
X116529565Y-110054500D01*
X116529560Y-110054500D01*
X116322754Y-110095636D01*
X116322746Y-110095638D01*
X116127930Y-110176333D01*
X116127921Y-110176338D01*
X115952596Y-110293487D01*
X115952592Y-110293490D01*
X115803490Y-110442592D01*
X115803487Y-110442596D01*
X115686338Y-110617921D01*
X115686333Y-110617930D01*
X115605638Y-110812746D01*
X115605636Y-110812754D01*
X115564500Y-111019560D01*
X107975499Y-111019560D01*
X107934362Y-110812747D01*
X107853665Y-110617928D01*
X107853664Y-110617927D01*
X107853661Y-110617921D01*
X107736512Y-110442596D01*
X107736509Y-110442592D01*
X107587407Y-110293490D01*
X107587403Y-110293487D01*
X107412078Y-110176338D01*
X107412069Y-110176333D01*
X107217253Y-110095638D01*
X107217245Y-110095636D01*
X107010439Y-110054500D01*
X107010435Y-110054500D01*
X106349565Y-110054500D01*
X106349560Y-110054500D01*
X106142754Y-110095636D01*
X106142746Y-110095638D01*
X105947930Y-110176333D01*
X105947921Y-110176338D01*
X105772596Y-110293487D01*
X105772592Y-110293490D01*
X105623490Y-110442592D01*
X105623487Y-110442596D01*
X105506338Y-110617921D01*
X105506333Y-110617930D01*
X105425638Y-110812746D01*
X105425636Y-110812754D01*
X105384500Y-111019560D01*
X103632000Y-111019560D01*
X103632000Y-108479560D01*
X105384500Y-108479560D01*
X105384500Y-108690439D01*
X105425636Y-108897245D01*
X105425638Y-108897253D01*
X105506333Y-109092069D01*
X105506338Y-109092078D01*
X105623487Y-109267403D01*
X105623490Y-109267407D01*
X105772592Y-109416509D01*
X105772596Y-109416512D01*
X105947921Y-109533661D01*
X105947927Y-109533664D01*
X105947928Y-109533665D01*
X106142747Y-109614362D01*
X106349560Y-109655499D01*
X106349564Y-109655500D01*
X106349565Y-109655500D01*
X107010436Y-109655500D01*
X107010437Y-109655499D01*
X107217253Y-109614362D01*
X107412072Y-109533665D01*
X107587404Y-109416512D01*
X107736512Y-109267404D01*
X107853665Y-109092072D01*
X107934362Y-108897253D01*
X107975500Y-108690435D01*
X107975500Y-108479565D01*
X107975499Y-108479560D01*
X115564500Y-108479560D01*
X115564500Y-108690439D01*
X115605636Y-108897245D01*
X115605638Y-108897253D01*
X115686333Y-109092069D01*
X115686338Y-109092078D01*
X115803487Y-109267403D01*
X115803490Y-109267407D01*
X115952592Y-109416509D01*
X115952596Y-109416512D01*
X116127921Y-109533661D01*
X116127927Y-109533664D01*
X116127928Y-109533665D01*
X116322747Y-109614362D01*
X116529560Y-109655499D01*
X116529564Y-109655500D01*
X116529565Y-109655500D01*
X117190436Y-109655500D01*
X117190437Y-109655499D01*
X117397253Y-109614362D01*
X117592072Y-109533665D01*
X117767404Y-109416512D01*
X117916512Y-109267404D01*
X117992214Y-109154108D01*
X124401500Y-109154108D01*
X124401500Y-109285891D01*
X124435608Y-109413187D01*
X124437528Y-109416512D01*
X124501500Y-109527314D01*
X124594686Y-109620500D01*
X124708814Y-109686392D01*
X124836108Y-109720500D01*
X124836110Y-109720500D01*
X124967890Y-109720500D01*
X124967892Y-109720500D01*
X125095186Y-109686392D01*
X125209314Y-109620500D01*
X125302500Y-109527314D01*
X125368392Y-109413186D01*
X125402500Y-109285892D01*
X125402500Y-109154108D01*
X125368392Y-109026814D01*
X125302500Y-108912686D01*
X125209314Y-108819500D01*
X125152250Y-108786554D01*
X125095187Y-108753608D01*
X125031539Y-108736554D01*
X124967892Y-108719500D01*
X124836108Y-108719500D01*
X124708812Y-108753608D01*
X124594686Y-108819500D01*
X124594683Y-108819502D01*
X124501502Y-108912683D01*
X124501500Y-108912686D01*
X124435608Y-109026812D01*
X124401500Y-109154108D01*
X117992214Y-109154108D01*
X118033665Y-109092072D01*
X118114362Y-108897253D01*
X118155500Y-108690435D01*
X118155500Y-108479565D01*
X118114362Y-108272747D01*
X118033665Y-108077928D01*
X118033664Y-108077927D01*
X118033661Y-108077921D01*
X117916512Y-107902596D01*
X117916509Y-107902592D01*
X117767407Y-107753490D01*
X117767403Y-107753487D01*
X117592078Y-107636338D01*
X117592069Y-107636333D01*
X117397253Y-107555638D01*
X117397245Y-107555636D01*
X117190439Y-107514500D01*
X117190435Y-107514500D01*
X116529565Y-107514500D01*
X116529560Y-107514500D01*
X116322754Y-107555636D01*
X116322746Y-107555638D01*
X116127930Y-107636333D01*
X116127921Y-107636338D01*
X115952596Y-107753487D01*
X115952592Y-107753490D01*
X115803490Y-107902592D01*
X115803487Y-107902596D01*
X115686338Y-108077921D01*
X115686333Y-108077930D01*
X115605638Y-108272746D01*
X115605636Y-108272754D01*
X115564500Y-108479560D01*
X107975499Y-108479560D01*
X107934362Y-108272747D01*
X107853665Y-108077928D01*
X107853664Y-108077927D01*
X107853661Y-108077921D01*
X107736512Y-107902596D01*
X107736509Y-107902592D01*
X107587407Y-107753490D01*
X107587403Y-107753487D01*
X107412078Y-107636338D01*
X107412069Y-107636333D01*
X107217253Y-107555638D01*
X107217245Y-107555636D01*
X107010439Y-107514500D01*
X107010435Y-107514500D01*
X106349565Y-107514500D01*
X106349560Y-107514500D01*
X106142754Y-107555636D01*
X106142746Y-107555638D01*
X105947930Y-107636333D01*
X105947921Y-107636338D01*
X105772596Y-107753487D01*
X105772592Y-107753490D01*
X105623490Y-107902592D01*
X105623487Y-107902596D01*
X105506338Y-108077921D01*
X105506333Y-108077930D01*
X105425638Y-108272746D01*
X105425636Y-108272754D01*
X105384500Y-108479560D01*
X103632000Y-108479560D01*
X103632000Y-107122108D01*
X122539000Y-107122108D01*
X122539000Y-107253891D01*
X122573108Y-107381187D01*
X122606054Y-107438250D01*
X122639000Y-107495314D01*
X122732186Y-107588500D01*
X122846314Y-107654392D01*
X122973608Y-107688500D01*
X122973610Y-107688500D01*
X123105390Y-107688500D01*
X123105392Y-107688500D01*
X123232686Y-107654392D01*
X123346814Y-107588500D01*
X123440000Y-107495314D01*
X123505892Y-107381186D01*
X123540000Y-107253892D01*
X123540000Y-107249108D01*
X126564500Y-107249108D01*
X126564500Y-107380891D01*
X126598608Y-107508187D01*
X126602253Y-107514500D01*
X126664500Y-107622314D01*
X126757686Y-107715500D01*
X126871814Y-107781392D01*
X126999108Y-107815500D01*
X126999110Y-107815500D01*
X127130890Y-107815500D01*
X127130892Y-107815500D01*
X127258186Y-107781392D01*
X127372314Y-107715500D01*
X127465500Y-107622314D01*
X127531392Y-107508186D01*
X127565500Y-107380892D01*
X127565500Y-107249108D01*
X127531392Y-107121814D01*
X127465500Y-107007686D01*
X127372314Y-106914500D01*
X127306512Y-106876509D01*
X127258187Y-106848608D01*
X127194539Y-106831554D01*
X127130892Y-106814500D01*
X126999108Y-106814500D01*
X126871812Y-106848608D01*
X126757686Y-106914500D01*
X126757683Y-106914502D01*
X126664502Y-107007683D01*
X126664500Y-107007686D01*
X126598608Y-107121812D01*
X126564500Y-107249108D01*
X123540000Y-107249108D01*
X123540000Y-107122108D01*
X123505892Y-106994814D01*
X123440000Y-106880686D01*
X123346814Y-106787500D01*
X123289750Y-106754554D01*
X123232687Y-106721608D01*
X123169039Y-106704554D01*
X123105392Y-106687500D01*
X122973608Y-106687500D01*
X122846312Y-106721608D01*
X122732186Y-106787500D01*
X122732183Y-106787502D01*
X122639002Y-106880683D01*
X122639000Y-106880686D01*
X122573108Y-106994812D01*
X122539000Y-107122108D01*
X103632000Y-107122108D01*
X103632000Y-105939560D01*
X105384500Y-105939560D01*
X105384500Y-106150439D01*
X105425636Y-106357245D01*
X105425638Y-106357253D01*
X105506333Y-106552069D01*
X105506338Y-106552078D01*
X105623487Y-106727403D01*
X105623490Y-106727407D01*
X105772592Y-106876509D01*
X105772596Y-106876512D01*
X105947921Y-106993661D01*
X105947930Y-106993666D01*
X105992063Y-107011946D01*
X106142747Y-107074362D01*
X106349560Y-107115499D01*
X106349564Y-107115500D01*
X106349565Y-107115500D01*
X107010436Y-107115500D01*
X107010437Y-107115499D01*
X107217253Y-107074362D01*
X107412072Y-106993665D01*
X107587404Y-106876512D01*
X107736512Y-106727404D01*
X107853665Y-106552072D01*
X107934362Y-106357253D01*
X107975500Y-106150435D01*
X107975500Y-105939565D01*
X107975499Y-105939560D01*
X115564500Y-105939560D01*
X115564500Y-106150439D01*
X115605636Y-106357245D01*
X115605638Y-106357253D01*
X115686333Y-106552069D01*
X115686338Y-106552078D01*
X115803487Y-106727403D01*
X115803490Y-106727407D01*
X115952592Y-106876509D01*
X115952596Y-106876512D01*
X116127921Y-106993661D01*
X116127930Y-106993666D01*
X116172063Y-107011946D01*
X116322747Y-107074362D01*
X116529560Y-107115499D01*
X116529564Y-107115500D01*
X116529565Y-107115500D01*
X117190436Y-107115500D01*
X117190437Y-107115499D01*
X117397253Y-107074362D01*
X117535619Y-107017048D01*
X117578179Y-106999420D01*
X117582608Y-106997584D01*
X117592072Y-106993665D01*
X117767404Y-106876512D01*
X117916512Y-106727404D01*
X118033665Y-106552072D01*
X118114362Y-106357253D01*
X118155500Y-106150435D01*
X118155500Y-105979108D01*
X126564500Y-105979108D01*
X126564500Y-106110892D01*
X126581554Y-106174539D01*
X126598608Y-106238187D01*
X126631554Y-106295250D01*
X126664500Y-106352314D01*
X126757686Y-106445500D01*
X126871814Y-106511392D01*
X126999108Y-106545500D01*
X126999110Y-106545500D01*
X127130890Y-106545500D01*
X127130892Y-106545500D01*
X127258186Y-106511392D01*
X127372314Y-106445500D01*
X127465500Y-106352314D01*
X127531392Y-106238186D01*
X127565500Y-106110892D01*
X127565500Y-105979108D01*
X127531392Y-105851814D01*
X127465500Y-105737686D01*
X127372314Y-105644500D01*
X127315250Y-105611554D01*
X127258187Y-105578608D01*
X127194539Y-105561554D01*
X127130892Y-105544500D01*
X126999108Y-105544500D01*
X126871812Y-105578608D01*
X126757686Y-105644500D01*
X126757683Y-105644502D01*
X126664502Y-105737683D01*
X126664500Y-105737686D01*
X126598608Y-105851812D01*
X126575097Y-105939560D01*
X126564500Y-105979108D01*
X118155500Y-105979108D01*
X118155500Y-105939565D01*
X118114362Y-105732747D01*
X118033665Y-105537928D01*
X118033664Y-105537927D01*
X118033661Y-105537921D01*
X117916512Y-105362596D01*
X117916509Y-105362592D01*
X117767407Y-105213490D01*
X117767403Y-105213487D01*
X117592078Y-105096338D01*
X117592069Y-105096333D01*
X117397253Y-105015638D01*
X117397245Y-105015636D01*
X117190439Y-104974500D01*
X117190435Y-104974500D01*
X116529565Y-104974500D01*
X116529560Y-104974500D01*
X116322754Y-105015636D01*
X116322746Y-105015638D01*
X116127930Y-105096333D01*
X116127921Y-105096338D01*
X115952596Y-105213487D01*
X115952592Y-105213490D01*
X115803490Y-105362592D01*
X115803487Y-105362596D01*
X115686338Y-105537921D01*
X115686333Y-105537930D01*
X115605638Y-105732746D01*
X115605636Y-105732754D01*
X115564500Y-105939560D01*
X107975499Y-105939560D01*
X107934362Y-105732747D01*
X107853665Y-105537928D01*
X107853664Y-105537927D01*
X107853661Y-105537921D01*
X107736512Y-105362596D01*
X107736509Y-105362592D01*
X107587407Y-105213490D01*
X107587403Y-105213487D01*
X107412078Y-105096338D01*
X107412069Y-105096333D01*
X107217253Y-105015638D01*
X107217245Y-105015636D01*
X107010439Y-104974500D01*
X107010435Y-104974500D01*
X106349565Y-104974500D01*
X106349560Y-104974500D01*
X106142754Y-105015636D01*
X106142746Y-105015638D01*
X105947930Y-105096333D01*
X105947921Y-105096338D01*
X105772596Y-105213487D01*
X105772592Y-105213490D01*
X105623490Y-105362592D01*
X105623487Y-105362596D01*
X105506338Y-105537921D01*
X105506333Y-105537930D01*
X105425638Y-105732746D01*
X105425636Y-105732754D01*
X105384500Y-105939560D01*
X103632000Y-105939560D01*
X103632000Y-102804108D01*
X124401500Y-102804108D01*
X124401500Y-102935891D01*
X124435608Y-103063187D01*
X124468554Y-103120250D01*
X124501500Y-103177314D01*
X124594686Y-103270500D01*
X124708814Y-103336392D01*
X124836108Y-103370500D01*
X124836110Y-103370500D01*
X124967890Y-103370500D01*
X124967892Y-103370500D01*
X125095186Y-103336392D01*
X125209314Y-103270500D01*
X125302500Y-103177314D01*
X125368392Y-103063186D01*
X125402500Y-102935892D01*
X125402500Y-102804108D01*
X125368392Y-102676814D01*
X125302500Y-102562686D01*
X125209314Y-102469500D01*
X125152250Y-102436554D01*
X125095187Y-102403608D01*
X125031539Y-102386554D01*
X124967892Y-102369500D01*
X124836108Y-102369500D01*
X124708812Y-102403608D01*
X124594686Y-102469500D01*
X124594683Y-102469502D01*
X124501502Y-102562683D01*
X124501500Y-102562686D01*
X124435608Y-102676812D01*
X124401500Y-102804108D01*
X103632000Y-102804108D01*
X103632000Y-100772108D01*
X122539000Y-100772108D01*
X122539000Y-100903891D01*
X122573108Y-101031187D01*
X122606054Y-101088250D01*
X122639000Y-101145314D01*
X122732186Y-101238500D01*
X122846314Y-101304392D01*
X122973608Y-101338500D01*
X122973610Y-101338500D01*
X123105390Y-101338500D01*
X123105392Y-101338500D01*
X123232686Y-101304392D01*
X123346814Y-101238500D01*
X123440000Y-101145314D01*
X123505892Y-101031186D01*
X123540000Y-100903892D01*
X123540000Y-100899108D01*
X126564500Y-100899108D01*
X126564500Y-101030891D01*
X126598608Y-101158187D01*
X126631554Y-101215250D01*
X126664500Y-101272314D01*
X126757686Y-101365500D01*
X126871814Y-101431392D01*
X126999108Y-101465500D01*
X126999110Y-101465500D01*
X127130890Y-101465500D01*
X127130892Y-101465500D01*
X127258186Y-101431392D01*
X127372314Y-101365500D01*
X127465500Y-101272314D01*
X127531392Y-101158186D01*
X127565500Y-101030892D01*
X127565500Y-100899108D01*
X127531392Y-100771814D01*
X127465500Y-100657686D01*
X127372314Y-100564500D01*
X127306512Y-100526509D01*
X127258187Y-100498608D01*
X127194539Y-100481554D01*
X127130892Y-100464500D01*
X126999108Y-100464500D01*
X126871812Y-100498608D01*
X126757686Y-100564500D01*
X126757683Y-100564502D01*
X126664502Y-100657683D01*
X126664500Y-100657686D01*
X126598608Y-100771812D01*
X126564500Y-100899108D01*
X123540000Y-100899108D01*
X123540000Y-100772108D01*
X123505892Y-100644814D01*
X123440000Y-100530686D01*
X123346814Y-100437500D01*
X123289750Y-100404554D01*
X123232687Y-100371608D01*
X123169039Y-100354554D01*
X123105392Y-100337500D01*
X122973608Y-100337500D01*
X122846312Y-100371608D01*
X122732186Y-100437500D01*
X122732183Y-100437502D01*
X122639002Y-100530683D01*
X122639000Y-100530686D01*
X122573108Y-100644812D01*
X122539000Y-100772108D01*
X103632000Y-100772108D01*
X103632000Y-99589560D01*
X105384500Y-99589560D01*
X105384500Y-99800439D01*
X105425636Y-100007245D01*
X105425638Y-100007253D01*
X105506333Y-100202069D01*
X105506338Y-100202078D01*
X105623487Y-100377403D01*
X105623490Y-100377407D01*
X105772592Y-100526509D01*
X105772596Y-100526512D01*
X105947921Y-100643661D01*
X105947930Y-100643666D01*
X105992063Y-100661946D01*
X106142747Y-100724362D01*
X106349560Y-100765499D01*
X106349564Y-100765500D01*
X106349565Y-100765500D01*
X107010436Y-100765500D01*
X107010437Y-100765499D01*
X107217253Y-100724362D01*
X107412072Y-100643665D01*
X107587404Y-100526512D01*
X107736512Y-100377404D01*
X107853665Y-100202072D01*
X107934362Y-100007253D01*
X107975500Y-99800435D01*
X107975500Y-99589565D01*
X107975499Y-99589560D01*
X115544500Y-99589560D01*
X115544500Y-99800439D01*
X115585636Y-100007245D01*
X115585638Y-100007253D01*
X115666333Y-100202069D01*
X115666338Y-100202078D01*
X115783487Y-100377403D01*
X115783490Y-100377407D01*
X115932592Y-100526509D01*
X115932596Y-100526512D01*
X116107921Y-100643661D01*
X116107930Y-100643666D01*
X116152063Y-100661946D01*
X116302747Y-100724362D01*
X116509560Y-100765499D01*
X116509564Y-100765500D01*
X116509565Y-100765500D01*
X117170436Y-100765500D01*
X117170437Y-100765499D01*
X117377253Y-100724362D01*
X117515619Y-100667048D01*
X117558179Y-100649420D01*
X117562608Y-100647584D01*
X117572072Y-100643665D01*
X117747404Y-100526512D01*
X117896512Y-100377404D01*
X118013665Y-100202072D01*
X118094362Y-100007253D01*
X118135500Y-99800435D01*
X118135500Y-99629108D01*
X126564500Y-99629108D01*
X126564500Y-99760892D01*
X126581554Y-99824539D01*
X126598608Y-99888187D01*
X126631554Y-99945250D01*
X126664500Y-100002314D01*
X126757686Y-100095500D01*
X126871814Y-100161392D01*
X126999108Y-100195500D01*
X126999110Y-100195500D01*
X127130890Y-100195500D01*
X127130892Y-100195500D01*
X127258186Y-100161392D01*
X127372314Y-100095500D01*
X127465500Y-100002314D01*
X127531392Y-99888186D01*
X127565500Y-99760892D01*
X127565500Y-99629108D01*
X127531392Y-99501814D01*
X127465500Y-99387686D01*
X127372314Y-99294500D01*
X127315250Y-99261554D01*
X127258187Y-99228608D01*
X127194539Y-99211554D01*
X127130892Y-99194500D01*
X126999108Y-99194500D01*
X126871812Y-99228608D01*
X126757686Y-99294500D01*
X126757683Y-99294502D01*
X126664502Y-99387683D01*
X126664500Y-99387686D01*
X126598608Y-99501812D01*
X126575097Y-99589560D01*
X126564500Y-99629108D01*
X118135500Y-99629108D01*
X118135500Y-99589565D01*
X118094362Y-99382747D01*
X118013665Y-99187928D01*
X118013664Y-99187927D01*
X118013661Y-99187921D01*
X117896512Y-99012596D01*
X117896509Y-99012592D01*
X117747407Y-98863490D01*
X117747403Y-98863487D01*
X117572078Y-98746338D01*
X117572069Y-98746333D01*
X117377253Y-98665638D01*
X117377245Y-98665636D01*
X117170439Y-98624500D01*
X117170435Y-98624500D01*
X116509565Y-98624500D01*
X116509560Y-98624500D01*
X116302754Y-98665636D01*
X116302746Y-98665638D01*
X116107930Y-98746333D01*
X116107921Y-98746338D01*
X115932596Y-98863487D01*
X115932592Y-98863490D01*
X115783490Y-99012592D01*
X115783487Y-99012596D01*
X115666338Y-99187921D01*
X115666333Y-99187930D01*
X115585638Y-99382746D01*
X115585636Y-99382754D01*
X115544500Y-99589560D01*
X107975499Y-99589560D01*
X107934362Y-99382747D01*
X107853665Y-99187928D01*
X107853664Y-99187927D01*
X107853661Y-99187921D01*
X107736512Y-99012596D01*
X107736509Y-99012592D01*
X107587407Y-98863490D01*
X107587403Y-98863487D01*
X107412078Y-98746338D01*
X107412069Y-98746333D01*
X107217253Y-98665638D01*
X107217245Y-98665636D01*
X107010439Y-98624500D01*
X107010435Y-98624500D01*
X106349565Y-98624500D01*
X106349560Y-98624500D01*
X106142754Y-98665636D01*
X106142746Y-98665638D01*
X105947930Y-98746333D01*
X105947921Y-98746338D01*
X105772596Y-98863487D01*
X105772592Y-98863490D01*
X105623490Y-99012592D01*
X105623487Y-99012596D01*
X105506338Y-99187921D01*
X105506333Y-99187930D01*
X105425638Y-99382746D01*
X105425636Y-99382754D01*
X105384500Y-99589560D01*
X103632000Y-99589560D01*
X103632000Y-97049560D01*
X105384500Y-97049560D01*
X105384500Y-97260439D01*
X105425636Y-97467245D01*
X105425638Y-97467253D01*
X105506333Y-97662069D01*
X105506338Y-97662078D01*
X105623487Y-97837403D01*
X105623490Y-97837407D01*
X105772592Y-97986509D01*
X105772596Y-97986512D01*
X105947921Y-98103661D01*
X105947927Y-98103664D01*
X105947928Y-98103665D01*
X106142747Y-98184362D01*
X106349560Y-98225499D01*
X106349564Y-98225500D01*
X106349565Y-98225500D01*
X107010436Y-98225500D01*
X107010437Y-98225499D01*
X107217253Y-98184362D01*
X107412072Y-98103665D01*
X107587404Y-97986512D01*
X107736512Y-97837404D01*
X107853665Y-97662072D01*
X107934362Y-97467253D01*
X107975500Y-97260435D01*
X107975500Y-97049565D01*
X107975499Y-97049560D01*
X115544500Y-97049560D01*
X115544500Y-97260439D01*
X115585636Y-97467245D01*
X115585638Y-97467253D01*
X115666333Y-97662069D01*
X115666338Y-97662078D01*
X115783487Y-97837403D01*
X115783490Y-97837407D01*
X115932592Y-97986509D01*
X115932596Y-97986512D01*
X116107921Y-98103661D01*
X116107927Y-98103664D01*
X116107928Y-98103665D01*
X116302747Y-98184362D01*
X116509560Y-98225499D01*
X116509564Y-98225500D01*
X116509565Y-98225500D01*
X117170436Y-98225500D01*
X117170437Y-98225499D01*
X117377253Y-98184362D01*
X117572072Y-98103665D01*
X117747404Y-97986512D01*
X117896512Y-97837404D01*
X118013665Y-97662072D01*
X118094362Y-97467253D01*
X118135500Y-97260435D01*
X118135500Y-97049565D01*
X118094362Y-96842747D01*
X118013665Y-96647928D01*
X118013664Y-96647927D01*
X118013661Y-96647921D01*
X117924760Y-96514872D01*
X117924759Y-96514870D01*
X117896515Y-96472600D01*
X117896509Y-96472592D01*
X117878025Y-96454108D01*
X124401500Y-96454108D01*
X124401500Y-96585891D01*
X124435608Y-96713187D01*
X124468554Y-96770250D01*
X124501500Y-96827314D01*
X124594686Y-96920500D01*
X124708814Y-96986392D01*
X124836108Y-97020500D01*
X124836110Y-97020500D01*
X124967890Y-97020500D01*
X124967892Y-97020500D01*
X125095186Y-96986392D01*
X125209314Y-96920500D01*
X125302500Y-96827314D01*
X125368392Y-96713186D01*
X125402500Y-96585892D01*
X125402500Y-96454108D01*
X125368392Y-96326814D01*
X125302500Y-96212686D01*
X125209314Y-96119500D01*
X125148692Y-96084500D01*
X125095187Y-96053608D01*
X125031539Y-96036554D01*
X124967892Y-96019500D01*
X124836108Y-96019500D01*
X124708812Y-96053608D01*
X124594686Y-96119500D01*
X124594683Y-96119502D01*
X124501502Y-96212683D01*
X124501500Y-96212686D01*
X124435608Y-96326812D01*
X124401500Y-96454108D01*
X117878025Y-96454108D01*
X117747407Y-96323490D01*
X117747403Y-96323487D01*
X117572078Y-96206338D01*
X117572069Y-96206333D01*
X117377253Y-96125638D01*
X117377245Y-96125636D01*
X117170439Y-96084500D01*
X117170435Y-96084500D01*
X116509565Y-96084500D01*
X116509560Y-96084500D01*
X116302754Y-96125636D01*
X116302746Y-96125638D01*
X116107930Y-96206333D01*
X116107921Y-96206338D01*
X115932596Y-96323487D01*
X115932592Y-96323490D01*
X115783490Y-96472592D01*
X115783487Y-96472596D01*
X115666338Y-96647921D01*
X115666333Y-96647930D01*
X115585638Y-96842746D01*
X115585636Y-96842754D01*
X115544500Y-97049560D01*
X107975499Y-97049560D01*
X107934362Y-96842747D01*
X107853665Y-96647928D01*
X107853664Y-96647927D01*
X107853661Y-96647921D01*
X107736512Y-96472596D01*
X107736509Y-96472592D01*
X107587407Y-96323490D01*
X107587403Y-96323487D01*
X107412078Y-96206338D01*
X107412069Y-96206333D01*
X107217253Y-96125638D01*
X107217245Y-96125636D01*
X107010439Y-96084500D01*
X107010435Y-96084500D01*
X106349565Y-96084500D01*
X106349560Y-96084500D01*
X106142754Y-96125636D01*
X106142746Y-96125638D01*
X105947930Y-96206333D01*
X105947921Y-96206338D01*
X105772596Y-96323487D01*
X105772592Y-96323490D01*
X105623490Y-96472592D01*
X105623487Y-96472596D01*
X105506338Y-96647921D01*
X105506333Y-96647930D01*
X105425638Y-96842746D01*
X105425636Y-96842754D01*
X105384500Y-97049560D01*
X103632000Y-97049560D01*
X103632000Y-94509560D01*
X105384500Y-94509560D01*
X105384500Y-94720439D01*
X105425636Y-94927245D01*
X105425638Y-94927253D01*
X105506333Y-95122069D01*
X105506338Y-95122078D01*
X105623487Y-95297403D01*
X105623490Y-95297407D01*
X105772592Y-95446509D01*
X105772596Y-95446512D01*
X105947921Y-95563661D01*
X105947930Y-95563666D01*
X105992063Y-95581946D01*
X106142747Y-95644362D01*
X106309346Y-95677500D01*
X106349560Y-95685499D01*
X106349564Y-95685500D01*
X106349565Y-95685500D01*
X107010436Y-95685500D01*
X107010437Y-95685499D01*
X107217253Y-95644362D01*
X107412072Y-95563665D01*
X107587404Y-95446512D01*
X107736512Y-95297404D01*
X107853665Y-95122072D01*
X107934362Y-94927253D01*
X107975500Y-94720435D01*
X107975500Y-94509565D01*
X107975499Y-94509560D01*
X115544500Y-94509560D01*
X115544500Y-94720439D01*
X115585636Y-94927245D01*
X115585638Y-94927253D01*
X115666333Y-95122069D01*
X115666338Y-95122078D01*
X115783487Y-95297403D01*
X115783490Y-95297407D01*
X115932592Y-95446509D01*
X115932596Y-95446512D01*
X116107921Y-95563661D01*
X116107930Y-95563666D01*
X116152063Y-95581946D01*
X116302747Y-95644362D01*
X116469346Y-95677500D01*
X116509560Y-95685499D01*
X116509564Y-95685500D01*
X116509565Y-95685500D01*
X117170436Y-95685500D01*
X117170437Y-95685499D01*
X117377253Y-95644362D01*
X117572072Y-95563665D01*
X117747404Y-95446512D01*
X117896512Y-95297404D01*
X118013665Y-95122072D01*
X118094362Y-94927253D01*
X118135500Y-94720435D01*
X118135500Y-94509565D01*
X118121299Y-94438170D01*
X118121299Y-94438168D01*
X118118104Y-94422108D01*
X122539000Y-94422108D01*
X122539000Y-94553891D01*
X122573108Y-94681187D01*
X122595768Y-94720435D01*
X122639000Y-94795314D01*
X122732186Y-94888500D01*
X122846314Y-94954392D01*
X122973608Y-94988500D01*
X122973610Y-94988500D01*
X123105390Y-94988500D01*
X123105392Y-94988500D01*
X123232686Y-94954392D01*
X123346814Y-94888500D01*
X123440000Y-94795314D01*
X123505892Y-94681186D01*
X123540000Y-94553892D01*
X123540000Y-94549108D01*
X126564500Y-94549108D01*
X126564500Y-94680892D01*
X126581554Y-94744539D01*
X126598608Y-94808187D01*
X126631554Y-94865250D01*
X126664500Y-94922314D01*
X126757686Y-95015500D01*
X126871814Y-95081392D01*
X126999108Y-95115500D01*
X126999110Y-95115500D01*
X127130890Y-95115500D01*
X127130892Y-95115500D01*
X127258186Y-95081392D01*
X127372314Y-95015500D01*
X127465500Y-94922314D01*
X127531392Y-94808186D01*
X127565500Y-94680892D01*
X127565500Y-94549108D01*
X127531392Y-94421814D01*
X127465500Y-94307686D01*
X127372314Y-94214500D01*
X127313741Y-94180683D01*
X127258187Y-94148608D01*
X127194539Y-94131554D01*
X127130892Y-94114500D01*
X126999108Y-94114500D01*
X126871812Y-94148608D01*
X126757686Y-94214500D01*
X126757683Y-94214502D01*
X126664502Y-94307683D01*
X126664500Y-94307686D01*
X126598608Y-94421812D01*
X126575097Y-94509560D01*
X126564500Y-94549108D01*
X123540000Y-94549108D01*
X123540000Y-94422108D01*
X123505892Y-94294814D01*
X123440000Y-94180686D01*
X123346814Y-94087500D01*
X123289750Y-94054554D01*
X123232687Y-94021608D01*
X123169039Y-94004554D01*
X123105392Y-93987500D01*
X122973608Y-93987500D01*
X122846312Y-94021608D01*
X122732186Y-94087500D01*
X122732183Y-94087502D01*
X122639002Y-94180683D01*
X122639000Y-94180686D01*
X122573108Y-94294812D01*
X122539000Y-94422108D01*
X118118104Y-94422108D01*
X118095344Y-94307686D01*
X118094362Y-94302747D01*
X118013665Y-94107928D01*
X118013664Y-94107927D01*
X118013661Y-94107921D01*
X117896512Y-93932596D01*
X117896509Y-93932592D01*
X117747407Y-93783490D01*
X117747403Y-93783487D01*
X117572078Y-93666338D01*
X117572069Y-93666333D01*
X117377253Y-93585638D01*
X117377245Y-93585636D01*
X117170439Y-93544500D01*
X117170435Y-93544500D01*
X116509565Y-93544500D01*
X116509560Y-93544500D01*
X116302754Y-93585636D01*
X116302746Y-93585638D01*
X116107930Y-93666333D01*
X116107921Y-93666338D01*
X115932596Y-93783487D01*
X115932592Y-93783490D01*
X115783490Y-93932592D01*
X115783487Y-93932596D01*
X115666338Y-94107921D01*
X115666333Y-94107930D01*
X115585638Y-94302746D01*
X115585636Y-94302754D01*
X115544500Y-94509560D01*
X107975499Y-94509560D01*
X107934362Y-94302747D01*
X107853665Y-94107928D01*
X107853664Y-94107927D01*
X107853661Y-94107921D01*
X107736512Y-93932596D01*
X107736509Y-93932592D01*
X107587407Y-93783490D01*
X107587403Y-93783487D01*
X107412078Y-93666338D01*
X107412069Y-93666333D01*
X107217253Y-93585638D01*
X107217245Y-93585636D01*
X107010439Y-93544500D01*
X107010435Y-93544500D01*
X106349565Y-93544500D01*
X106349560Y-93544500D01*
X106142754Y-93585636D01*
X106142746Y-93585638D01*
X105947930Y-93666333D01*
X105947921Y-93666338D01*
X105772596Y-93783487D01*
X105772592Y-93783490D01*
X105623490Y-93932592D01*
X105623487Y-93932596D01*
X105506338Y-94107921D01*
X105506333Y-94107930D01*
X105425638Y-94302746D01*
X105425636Y-94302754D01*
X105384500Y-94509560D01*
X103632000Y-94509560D01*
X103632000Y-93279108D01*
X126564500Y-93279108D01*
X126564500Y-93410891D01*
X126598608Y-93538187D01*
X126602253Y-93544500D01*
X126664500Y-93652314D01*
X126757686Y-93745500D01*
X126871814Y-93811392D01*
X126999108Y-93845500D01*
X126999110Y-93845500D01*
X127130890Y-93845500D01*
X127130892Y-93845500D01*
X127258186Y-93811392D01*
X127372314Y-93745500D01*
X127465500Y-93652314D01*
X127531392Y-93538186D01*
X127565500Y-93410892D01*
X127565500Y-93279108D01*
X127531392Y-93151814D01*
X127465500Y-93037686D01*
X127372314Y-92944500D01*
X127315250Y-92911554D01*
X127258187Y-92878608D01*
X127194539Y-92861554D01*
X127130892Y-92844500D01*
X126999108Y-92844500D01*
X126871812Y-92878608D01*
X126757686Y-92944500D01*
X126757683Y-92944502D01*
X126664502Y-93037683D01*
X126664500Y-93037686D01*
X126598608Y-93151812D01*
X126564500Y-93279108D01*
X103632000Y-93279108D01*
X103632000Y-89416902D01*
X106449500Y-89416902D01*
X106449500Y-89653097D01*
X106486446Y-89886368D01*
X106559433Y-90110996D01*
X106666657Y-90321433D01*
X106805483Y-90512510D01*
X106972490Y-90679517D01*
X107163567Y-90818343D01*
X107262991Y-90869002D01*
X107374003Y-90925566D01*
X107374005Y-90925566D01*
X107374008Y-90925568D01*
X107494412Y-90964689D01*
X107598631Y-90998553D01*
X107831903Y-91035500D01*
X107831908Y-91035500D01*
X108068097Y-91035500D01*
X108301368Y-90998553D01*
X108525992Y-90925568D01*
X108736433Y-90818343D01*
X108927510Y-90679517D01*
X109094517Y-90512510D01*
X109233343Y-90321433D01*
X109340568Y-90110992D01*
X109413553Y-89886368D01*
X109425886Y-89808500D01*
X109450500Y-89653097D01*
X109450500Y-89416902D01*
X109413553Y-89183631D01*
X109340566Y-88959003D01*
X109233342Y-88748566D01*
X109094517Y-88557490D01*
X108927510Y-88390483D01*
X108736433Y-88251657D01*
X108525996Y-88144433D01*
X108301368Y-88071446D01*
X108068097Y-88034500D01*
X108068092Y-88034500D01*
X107831908Y-88034500D01*
X107831903Y-88034500D01*
X107598631Y-88071446D01*
X107374003Y-88144433D01*
X107163566Y-88251657D01*
X107054550Y-88330862D01*
X106972490Y-88390483D01*
X106972488Y-88390485D01*
X106972487Y-88390485D01*
X106805485Y-88557487D01*
X106805485Y-88557488D01*
X106805483Y-88557490D01*
X106745862Y-88639550D01*
X106666657Y-88748566D01*
X106559433Y-88959003D01*
X106486446Y-89183631D01*
X106449500Y-89416902D01*
X103632000Y-89416902D01*
X103632000Y-79219361D01*
X103651685Y-79152322D01*
X103668314Y-79131685D01*
X104622257Y-78177742D01*
X104683576Y-78144260D01*
X104753267Y-78149244D01*
X104809201Y-78191116D01*
X104824495Y-78217973D01*
X104881953Y-78356690D01*
X104881958Y-78356700D01*
X105013075Y-78583803D01*
X105172718Y-78791851D01*
X105172726Y-78791860D01*
X105358140Y-78977274D01*
X105358148Y-78977281D01*
X105566196Y-79136924D01*
X105793299Y-79268041D01*
X105793309Y-79268046D01*
X106035571Y-79368394D01*
X106035581Y-79368398D01*
X106288884Y-79436270D01*
X106548880Y-79470500D01*
X106548887Y-79470500D01*
X106811113Y-79470500D01*
X106811120Y-79470500D01*
X107071116Y-79436270D01*
X107324419Y-79368398D01*
X107566697Y-79268043D01*
X107793803Y-79136924D01*
X108001851Y-78977282D01*
X108001855Y-78977277D01*
X108001860Y-78977274D01*
X108187274Y-78791860D01*
X108187277Y-78791855D01*
X108187282Y-78791851D01*
X108346924Y-78583803D01*
X108478043Y-78356697D01*
X108578398Y-78114419D01*
X108646270Y-77861116D01*
X108680500Y-77601120D01*
X108680500Y-77338880D01*
X108646270Y-77078884D01*
X108578398Y-76825581D01*
X108578394Y-76825571D01*
X108478046Y-76583309D01*
X108478041Y-76583299D01*
X108346924Y-76356196D01*
X108285114Y-76275645D01*
X108229412Y-76203053D01*
X118179500Y-76203053D01*
X118179500Y-77811592D01*
X118182353Y-77842022D01*
X118182353Y-77842024D01*
X118227206Y-77970203D01*
X118227207Y-77970205D01*
X118307850Y-78079473D01*
X118417118Y-78160116D01*
X118459845Y-78175067D01*
X118545299Y-78204969D01*
X118575730Y-78207823D01*
X118575734Y-78207823D01*
X120184270Y-78207823D01*
X120214699Y-78204969D01*
X120214701Y-78204969D01*
X120278790Y-78182542D01*
X120342882Y-78160116D01*
X120452150Y-78079473D01*
X120532793Y-77970205D01*
X120570965Y-77861116D01*
X120577646Y-77842024D01*
X120577646Y-77842022D01*
X120580500Y-77811592D01*
X120580500Y-76531754D01*
X129720500Y-76531754D01*
X129720500Y-76703245D01*
X129747326Y-76872622D01*
X129747327Y-76872625D01*
X129781930Y-76979123D01*
X129800322Y-77035725D01*
X129878178Y-77188525D01*
X129978970Y-77327255D01*
X129978974Y-77327260D01*
X130100239Y-77448525D01*
X130100244Y-77448529D01*
X130221251Y-77536445D01*
X130238978Y-77549324D01*
X130391777Y-77627179D01*
X130554875Y-77680173D01*
X130724254Y-77707000D01*
X130724255Y-77707000D01*
X130895745Y-77707000D01*
X130895746Y-77707000D01*
X131065125Y-77680173D01*
X131228223Y-77627179D01*
X131381022Y-77549324D01*
X131519762Y-77448524D01*
X131641024Y-77327262D01*
X131741824Y-77188522D01*
X131819679Y-77035723D01*
X131872673Y-76872625D01*
X131899500Y-76703246D01*
X131899500Y-76531754D01*
X131872673Y-76362375D01*
X131819679Y-76199277D01*
X131741824Y-76046478D01*
X131660957Y-75935173D01*
X131641029Y-75907744D01*
X131641025Y-75907739D01*
X131519760Y-75786474D01*
X131519755Y-75786470D01*
X131381025Y-75685678D01*
X131381024Y-75685677D01*
X131381022Y-75685676D01*
X131228223Y-75607821D01*
X131065125Y-75554827D01*
X131065123Y-75554826D01*
X131065122Y-75554826D01*
X130935009Y-75534218D01*
X130895746Y-75528000D01*
X130724254Y-75528000D01*
X130692379Y-75533048D01*
X130554877Y-75554826D01*
X130391774Y-75607822D01*
X130238974Y-75685678D01*
X130100244Y-75786470D01*
X130100239Y-75786474D01*
X129978974Y-75907739D01*
X129978970Y-75907744D01*
X129878178Y-76046474D01*
X129800322Y-76199274D01*
X129747326Y-76362377D01*
X129720500Y-76531754D01*
X120580500Y-76531754D01*
X120580500Y-76203053D01*
X120577646Y-76172623D01*
X120577646Y-76172621D01*
X120544006Y-76076486D01*
X120532793Y-76044441D01*
X120452150Y-75935173D01*
X120342882Y-75854530D01*
X120342880Y-75854529D01*
X120214700Y-75809676D01*
X120184270Y-75806823D01*
X120184266Y-75806823D01*
X118575734Y-75806823D01*
X118575730Y-75806823D01*
X118545300Y-75809676D01*
X118545298Y-75809676D01*
X118417119Y-75854529D01*
X118417117Y-75854530D01*
X118307850Y-75935173D01*
X118227207Y-76044440D01*
X118227206Y-76044442D01*
X118182353Y-76172621D01*
X118182353Y-76172623D01*
X118179500Y-76203053D01*
X108229412Y-76203053D01*
X108187281Y-76148148D01*
X108187274Y-76148140D01*
X108001860Y-75962726D01*
X108001851Y-75962718D01*
X107793803Y-75803075D01*
X107566700Y-75671958D01*
X107566690Y-75671953D01*
X107427973Y-75614495D01*
X107373570Y-75570654D01*
X107351505Y-75504360D01*
X107368784Y-75436660D01*
X107387738Y-75412261D01*
X108595681Y-74204319D01*
X108657004Y-74170834D01*
X108683362Y-74168000D01*
X134496000Y-74168000D01*
X134563039Y-74187685D01*
G37*
%TD.AperFunction*%
%TD*%
M02*
