%TF.GenerationSoftware,KiCad,Pcbnew,9.0.6*%
%TF.CreationDate,2026-03-10T14:17:26-05:00*%
%TF.ProjectId,1000W Controller,31303030-5720-4436-9f6e-74726f6c6c65,rev?*%
%TF.SameCoordinates,Original*%
%TF.FileFunction,Soldermask,Bot*%
%TF.FilePolarity,Negative*%
%FSLAX46Y46*%
G04 Gerber Fmt 4.6, Leading zero omitted, Abs format (unit mm)*
G04 Created by KiCad (PCBNEW 9.0.6) date 2026-03-10 14:17:26*
%MOMM*%
%LPD*%
G01*
G04 APERTURE LIST*
G04 Aperture macros list*
%AMRoundRect*
0 Rectangle with rounded corners*
0 $1 Rounding radius*
0 $2 $3 $4 $5 $6 $7 $8 $9 X,Y pos of 4 corners*
0 Add a 4 corners polygon primitive as box body*
4,1,4,$2,$3,$4,$5,$6,$7,$8,$9,$2,$3,0*
0 Add four circle primitives for the rounded corners*
1,1,$1+$1,$2,$3*
1,1,$1+$1,$4,$5*
1,1,$1+$1,$6,$7*
1,1,$1+$1,$8,$9*
0 Add four rect primitives between the rounded corners*
20,1,$1+$1,$2,$3,$4,$5,0*
20,1,$1+$1,$4,$5,$6,$7,0*
20,1,$1+$1,$6,$7,$8,$9,0*
20,1,$1+$1,$8,$9,$2,$3,0*%
G04 Aperture macros list end*
%ADD10RoundRect,0.250000X-0.600000X-0.725000X0.600000X-0.725000X0.600000X0.725000X-0.600000X0.725000X0*%
%ADD11O,1.700000X1.950000*%
%ADD12RoundRect,0.250000X0.845000X-0.620000X0.845000X0.620000X-0.845000X0.620000X-0.845000X-0.620000X0*%
%ADD13O,2.190000X1.740000*%
%ADD14RoundRect,0.250000X0.750000X-0.600000X0.750000X0.600000X-0.750000X0.600000X-0.750000X-0.600000X0*%
%ADD15O,2.000000X1.700000*%
%ADD16RoundRect,0.250000X-0.600000X-0.750000X0.600000X-0.750000X0.600000X0.750000X-0.600000X0.750000X0*%
%ADD17O,1.700000X2.000000*%
%ADD18R,1.500000X2.300000*%
%ADD19O,1.500000X2.300000*%
%ADD20RoundRect,0.250000X0.600000X0.725000X-0.600000X0.725000X-0.600000X-0.725000X0.600000X-0.725000X0*%
%ADD21RoundRect,0.250000X-0.750000X0.750000X-0.750000X-0.750000X0.750000X-0.750000X0.750000X0.750000X0*%
%ADD22C,2.000000*%
%ADD23C,3.500000*%
%ADD24RoundRect,0.250000X-1.050000X1.050000X-1.050000X-1.050000X1.050000X-1.050000X1.050000X1.050000X0*%
%ADD25C,2.600000*%
%ADD26R,2.000000X1.905000*%
%ADD27O,2.000000X1.905000*%
%ADD28RoundRect,0.250000X-1.350000X-1.350000X1.350000X-1.350000X1.350000X1.350000X-1.350000X1.350000X0*%
%ADD29C,3.200000*%
%ADD30O,2.600000X1.600000*%
%ADD31RoundRect,0.250000X1.050000X0.550000X-1.050000X0.550000X-1.050000X-0.550000X1.050000X-0.550000X0*%
%ADD32C,1.778000*%
G04 APERTURE END LIST*
D10*
%TO.C,Encoder1*%
X164418000Y-86377000D03*
D11*
X166918000Y-86377000D03*
X169418000Y-86377000D03*
X171918000Y-86377000D03*
X174418000Y-86377000D03*
%TD*%
D10*
%TO.C,Switch1*%
X162620000Y-115807000D03*
D11*
X165120000Y-115807000D03*
X167620000Y-115807000D03*
X170120000Y-115807000D03*
%TD*%
D12*
%TO.C,Rad_Fan_3*%
X106680000Y-113665000D03*
D13*
X106680000Y-111125000D03*
X106680000Y-108585000D03*
X106680000Y-106045000D03*
%TD*%
D14*
%TO.C,Therm_sw1*%
X163813000Y-108946000D03*
D15*
X163813000Y-106446000D03*
%TD*%
D16*
%TO.C,LED_TEMP1*%
X162580000Y-131555000D03*
D17*
X165080000Y-131555000D03*
%TD*%
D18*
%TO.C,U2*%
X125095000Y-125905500D03*
D19*
X127635000Y-125905500D03*
X130175000Y-125905500D03*
%TD*%
D20*
%TO.C,Display1*%
X165294000Y-77741000D03*
D11*
X162794000Y-77741000D03*
X160294000Y-77741000D03*
X157794000Y-77741000D03*
%TD*%
D21*
%TO.C,C9*%
X119380000Y-77007323D03*
D22*
X119380000Y-82007323D03*
%TD*%
D12*
%TO.C,Aux_Fan_1*%
X106680000Y-125095000D03*
D13*
X106680000Y-122555000D03*
X106680000Y-120015000D03*
X106680000Y-117475000D03*
%TD*%
D23*
%TO.C,REF\u002A\u002A*%
X106680000Y-132080000D03*
%TD*%
D12*
%TO.C,Pump_1*%
X116840000Y-125095000D03*
D13*
X116840000Y-122555000D03*
X116840000Y-120015000D03*
X116840000Y-117475000D03*
%TD*%
D23*
%TO.C,REF\u002A\u002A*%
X173990000Y-132080000D03*
%TD*%
D12*
%TO.C,PSU_Fan1*%
X116860000Y-113665000D03*
D13*
X116860000Y-111125000D03*
X116860000Y-108585000D03*
X116860000Y-106045000D03*
%TD*%
D24*
%TO.C,24V1*%
X107950000Y-84455000D03*
D25*
X107950000Y-89535000D03*
%TD*%
D12*
%TO.C,Rad_Fan_2*%
X116840000Y-102235000D03*
D13*
X116840000Y-99695000D03*
X116840000Y-97155000D03*
X116840000Y-94615000D03*
%TD*%
D23*
%TO.C,REF\u002A\u002A*%
X106680000Y-77470000D03*
%TD*%
D14*
%TO.C,Remote1*%
X172703000Y-108946000D03*
D15*
X172703000Y-106446000D03*
%TD*%
D16*
%TO.C,WATER_TEMP1*%
X162580000Y-123681000D03*
D17*
X165080000Y-123681000D03*
%TD*%
D26*
%TO.C,U3*%
X151062733Y-76803668D03*
D27*
X151062733Y-79343668D03*
X151062733Y-81883668D03*
%TD*%
D23*
%TO.C,REF\u002A\u002A*%
X173990000Y-77470000D03*
%TD*%
D12*
%TO.C,Rad_Fan_1*%
X106680000Y-102235000D03*
D13*
X106680000Y-99695000D03*
X106680000Y-97155000D03*
X106680000Y-94615000D03*
%TD*%
D28*
%TO.C,D1*%
X114300000Y-132080000D03*
D29*
X129540000Y-132080000D03*
%TD*%
D30*
%TO.C,Feather_M4_CAN_Express1*%
X137460000Y-119380000D03*
X137460000Y-116840000D03*
X137460000Y-114300000D03*
X137460000Y-111760000D03*
X137460000Y-109220000D03*
X137460000Y-106680000D03*
X137460000Y-104140000D03*
X137460000Y-101600000D03*
X137460000Y-99060000D03*
X137460000Y-96520000D03*
X137460000Y-93980000D03*
X137460000Y-91440000D03*
X157180000Y-91440000D03*
X157180000Y-93980000D03*
X157180000Y-96520000D03*
X157180000Y-99060000D03*
X157180000Y-101600000D03*
X157180000Y-104140000D03*
X157180000Y-106680000D03*
X157180000Y-109220000D03*
X157180000Y-111760000D03*
X157180000Y-114300000D03*
X157180000Y-116840000D03*
X157180000Y-119380000D03*
X157180000Y-121920000D03*
X157180000Y-124460000D03*
X157180000Y-127000000D03*
D31*
X157180000Y-129540000D03*
%TD*%
D32*
%TO.C,24V_5V_Buck_ISO1*%
X128270000Y-76617500D03*
X130810000Y-76617500D03*
X133350000Y-76617500D03*
X140970000Y-76617500D03*
X143510000Y-76617500D03*
X146050000Y-76617500D03*
%TD*%
M02*
