%TF.GenerationSoftware,KiCad,Pcbnew,9.0.6*%
%TF.CreationDate,2026-03-10T14:17:26-05:00*%
%TF.ProjectId,1000W Controller,31303030-5720-4436-9f6e-74726f6c6c65,rev?*%
%TF.SameCoordinates,Original*%
%TF.FileFunction,Paste,Top*%
%TF.FilePolarity,Positive*%
%FSLAX46Y46*%
G04 Gerber Fmt 4.6, Leading zero omitted, Abs format (unit mm)*
G04 Created by KiCad (PCBNEW 9.0.6) date 2026-03-10 14:17:26*
%MOMM*%
%LPD*%
G01*
G04 APERTURE LIST*
G04 Aperture macros list*
%AMRoundRect*
0 Rectangle with rounded corners*
0 $1 Rounding radius*
0 $2 $3 $4 $5 $6 $7 $8 $9 X,Y pos of 4 corners*
0 Add a 4 corners polygon primitive as box body*
4,1,4,$2,$3,$4,$5,$6,$7,$8,$9,$2,$3,0*
0 Add four circle primitives for the rounded corners*
1,1,$1+$1,$2,$3*
1,1,$1+$1,$4,$5*
1,1,$1+$1,$6,$7*
1,1,$1+$1,$8,$9*
0 Add four rect primitives between the rounded corners*
20,1,$1+$1,$2,$3,$4,$5,0*
20,1,$1+$1,$4,$5,$6,$7,0*
20,1,$1+$1,$6,$7,$8,$9,0*
20,1,$1+$1,$8,$9,$2,$3,0*%
G04 Aperture macros list end*
%ADD10RoundRect,0.250000X-0.475000X0.250000X-0.475000X-0.250000X0.475000X-0.250000X0.475000X0.250000X0*%
%ADD11RoundRect,0.250000X-0.262500X-0.450000X0.262500X-0.450000X0.262500X0.450000X-0.262500X0.450000X0*%
%ADD12RoundRect,0.150000X0.825000X0.150000X-0.825000X0.150000X-0.825000X-0.150000X0.825000X-0.150000X0*%
%ADD13RoundRect,0.250000X0.250000X0.475000X-0.250000X0.475000X-0.250000X-0.475000X0.250000X-0.475000X0*%
%ADD14RoundRect,0.250000X0.262500X0.450000X-0.262500X0.450000X-0.262500X-0.450000X0.262500X-0.450000X0*%
%ADD15RoundRect,0.250000X0.450000X-0.262500X0.450000X0.262500X-0.450000X0.262500X-0.450000X-0.262500X0*%
%ADD16RoundRect,0.250000X-0.450000X0.262500X-0.450000X-0.262500X0.450000X-0.262500X0.450000X0.262500X0*%
%ADD17RoundRect,0.150000X-0.587500X-0.150000X0.587500X-0.150000X0.587500X0.150000X-0.587500X0.150000X0*%
%ADD18RoundRect,0.250000X0.475000X-0.250000X0.475000X0.250000X-0.475000X0.250000X-0.475000X-0.250000X0*%
%ADD19RoundRect,0.250000X-0.325000X-1.100000X0.325000X-1.100000X0.325000X1.100000X-0.325000X1.100000X0*%
%ADD20RoundRect,0.250000X-0.250000X-0.475000X0.250000X-0.475000X0.250000X0.475000X-0.250000X0.475000X0*%
G04 APERTURE END LIST*
D10*
%TO.C,C19*%
X163576000Y-96773360D03*
X163576000Y-98673360D03*
%TD*%
D11*
%TO.C,R5*%
X123039500Y-113538000D03*
X124864500Y-113538000D03*
%TD*%
D12*
%TO.C,U6*%
X132015000Y-114935000D03*
X132015000Y-113665000D03*
X132015000Y-112395000D03*
X132015000Y-111125000D03*
X127065000Y-111125000D03*
X127065000Y-112395000D03*
X127065000Y-113665000D03*
X127065000Y-114935000D03*
%TD*%
D13*
%TO.C,C3*%
X124902000Y-102870000D03*
X123002000Y-102870000D03*
%TD*%
D12*
%TO.C,U1*%
X132015000Y-95885000D03*
X132015000Y-94615000D03*
X132015000Y-93345000D03*
X132015000Y-92075000D03*
X127065000Y-92075000D03*
X127065000Y-93345000D03*
X127065000Y-94615000D03*
X127065000Y-95885000D03*
%TD*%
D11*
%TO.C,R8*%
X123039500Y-94488000D03*
X124864500Y-94488000D03*
%TD*%
D13*
%TO.C,C15*%
X124902000Y-98806000D03*
X123002000Y-98806000D03*
%TD*%
D10*
%TO.C,C7*%
X134620000Y-102428000D03*
X134620000Y-104328000D03*
%TD*%
D14*
%TO.C,R12*%
X176019757Y-118364000D03*
X174194757Y-118364000D03*
%TD*%
D10*
%TO.C,C6*%
X134620000Y-108778000D03*
X134620000Y-110678000D03*
%TD*%
D15*
%TO.C,R13*%
X161290000Y-94892500D03*
X161290000Y-93067500D03*
%TD*%
D13*
%TO.C,C1*%
X124902000Y-115570000D03*
X123002000Y-115570000D03*
%TD*%
D15*
%TO.C,R16*%
X168910000Y-100400744D03*
X168910000Y-98575744D03*
%TD*%
D16*
%TO.C,R15*%
X168910000Y-94845500D03*
X168910000Y-96670500D03*
%TD*%
D14*
%TO.C,R3*%
X171092500Y-122682000D03*
X169267500Y-122682000D03*
%TD*%
D17*
%TO.C,Q2*%
X171290406Y-98598037D03*
X171290406Y-100498037D03*
X173165406Y-99548037D03*
%TD*%
D12*
%TO.C,U4*%
X132015000Y-102235000D03*
X132015000Y-100965000D03*
X132015000Y-99695000D03*
X132015000Y-98425000D03*
X127065000Y-98425000D03*
X127065000Y-99695000D03*
X127065000Y-100965000D03*
X127065000Y-102235000D03*
%TD*%
D11*
%TO.C,R4*%
X128627500Y-89408000D03*
X130452500Y-89408000D03*
%TD*%
D16*
%TO.C,R9*%
X175387000Y-98655500D03*
X175387000Y-100480500D03*
%TD*%
D11*
%TO.C,R7*%
X123039500Y-100838000D03*
X124864500Y-100838000D03*
%TD*%
D13*
%TO.C,C10*%
X124902000Y-111506000D03*
X123002000Y-111506000D03*
%TD*%
%TO.C,C2*%
X124902000Y-109220000D03*
X123002000Y-109220000D03*
%TD*%
D12*
%TO.C,U5*%
X132015000Y-108585000D03*
X132015000Y-107315000D03*
X132015000Y-106045000D03*
X132015000Y-104775000D03*
X127065000Y-104775000D03*
X127065000Y-106045000D03*
X127065000Y-107315000D03*
X127065000Y-108585000D03*
%TD*%
D10*
%TO.C,C18*%
X163576000Y-93030000D03*
X163576000Y-94930000D03*
%TD*%
D13*
%TO.C,C4*%
X124902000Y-96520000D03*
X123002000Y-96520000D03*
%TD*%
D15*
%TO.C,R14*%
X161290000Y-98635860D03*
X161290000Y-96810860D03*
%TD*%
D13*
%TO.C,C16*%
X124902000Y-92456000D03*
X123002000Y-92456000D03*
%TD*%
D11*
%TO.C,R6*%
X123039500Y-107188000D03*
X124864500Y-107188000D03*
%TD*%
D14*
%TO.C,R1*%
X171092500Y-124968000D03*
X169267500Y-124968000D03*
%TD*%
D10*
%TO.C,C5*%
X134620000Y-115128000D03*
X134620000Y-117028000D03*
%TD*%
D18*
%TO.C,C12*%
X156384701Y-83754000D03*
X156384701Y-81854000D03*
%TD*%
D10*
%TO.C,C11*%
X133096000Y-129606000D03*
X133096000Y-131506000D03*
%TD*%
D17*
%TO.C,Q3*%
X171274500Y-94808000D03*
X171274500Y-96708000D03*
X173149500Y-95758000D03*
%TD*%
D19*
%TO.C,C13*%
X139749000Y-86995000D03*
X142699000Y-86995000D03*
%TD*%
D10*
%TO.C,C8*%
X134620000Y-96078000D03*
X134620000Y-97978000D03*
%TD*%
D14*
%TO.C,R2*%
X171092500Y-127254000D03*
X169267500Y-127254000D03*
%TD*%
D20*
%TO.C,C17*%
X174179219Y-116078000D03*
X176079219Y-116078000D03*
%TD*%
D13*
%TO.C,C14*%
X124902000Y-105156000D03*
X123002000Y-105156000D03*
%TD*%
M02*
