M48
; DRILL file {KiCad 9.0.6} date 2026-03-10T14:17:28-0500
; FORMAT={-:-/ absolute / metric / decimal}
; #@! TF.CreationDate,2026-03-10T14:17:28-05:00
; #@! TF.GenerationSoftware,Kicad,Pcbnew,9.0.6
; #@! TF.FileFunction,Plated,1,4,PTH
FMAT,2
METRIC
; #@! TA.AperFunction,Plated,PTH,ViaDrill
T1C0.300
; #@! TA.AperFunction,Plated,PTH,ComponentDrill
T2C0.950
; #@! TA.AperFunction,Plated,PTH,ComponentDrill
T3C1.000
; #@! TA.AperFunction,Plated,PTH,ComponentDrill
T4C1.100
; #@! TA.AperFunction,Plated,PTH,ComponentDrill
T5C1.190
; #@! TA.AperFunction,Plated,PTH,ComponentDrill
T6C1.300
; #@! TA.AperFunction,Plated,PTH,ComponentDrill
T7C1.600
%
G90
G05
T1
X123.002Y-96.52
X123.002Y-102.87
X123.002Y-109.22
X123.002Y-115.57
X123.039Y-94.488
X123.039Y-100.838
X123.039Y-107.188
X123.039Y-113.538
X124.902Y-92.456
X124.902Y-96.52
X124.902Y-98.806
X124.902Y-102.87
X124.902Y-105.156
X124.902Y-109.22
X124.902Y-111.506
X124.902Y-115.57
X127.065Y-93.345
X127.065Y-94.615
X127.065Y-99.695
X127.065Y-100.965
X127.065Y-106.045
X127.065Y-107.315
X127.065Y-112.395
X127.065Y-113.665
X128.627Y-89.408
X130.452Y-89.408
X132.015Y-92.075
X132.015Y-94.615
X132.015Y-100.965
X134.587Y-115.095
X134.62Y-96.078
X134.62Y-97.978
X134.62Y-102.428
X134.62Y-104.328
X134.62Y-108.778
X134.62Y-110.678
X134.62Y-117.028
X142.748Y-86.36
X142.748Y-87.63
X161.29Y-93.067
X161.29Y-96.811
X163.576Y-93.03
X163.576Y-96.773
X168.91Y-96.67
X171.093Y-127.254
X175.387Y-98.655
X176.02Y-118.364
X176.079Y-116.078
T2
X157.794Y-77.741
X160.294Y-77.741
X162.62Y-115.807
X162.794Y-77.741
X164.418Y-86.377
X165.12Y-115.807
X165.294Y-77.741
X166.918Y-86.377
X167.62Y-115.807
X169.418Y-86.377
X170.12Y-115.807
X171.918Y-86.377
X174.418Y-86.377
T3
X119.38Y-77.007
X119.38Y-82.007
X125.095Y-125.905
X127.635Y-125.905
X128.27Y-76.617
X130.175Y-125.905
X130.81Y-76.617
X133.35Y-76.617
X137.16Y-91.44
X137.16Y-93.98
X137.16Y-96.52
X137.16Y-99.06
X137.16Y-101.6
X137.16Y-104.14
X137.16Y-106.68
X137.16Y-109.22
X137.16Y-111.76
X137.16Y-114.3
X137.16Y-116.84
X137.16Y-119.38
X140.97Y-76.617
X143.51Y-76.617
X146.05Y-76.617
X157.48Y-91.44
X157.48Y-93.98
X157.48Y-96.52
X157.48Y-99.06
X157.48Y-101.6
X157.48Y-104.14
X157.48Y-106.68
X157.48Y-109.22
X157.48Y-111.76
X157.48Y-114.3
X157.48Y-116.84
X157.48Y-119.38
X157.48Y-121.92
X157.48Y-124.46
X157.48Y-127.0
X157.48Y-129.54
X162.58Y-123.681
X162.58Y-131.555
X163.813Y-106.446
X163.813Y-108.946
X165.08Y-123.681
X165.08Y-131.555
X172.703Y-106.446
X172.703Y-108.946
T4
X151.063Y-76.804
X151.063Y-79.344
X151.063Y-81.884
T5
X106.68Y-94.615
X106.68Y-97.155
X106.68Y-99.695
X106.68Y-102.235
X106.68Y-106.045
X106.68Y-108.585
X106.68Y-111.125
X106.68Y-113.665
X106.68Y-117.475
X106.68Y-120.015
X106.68Y-122.555
X106.68Y-125.095
X116.84Y-94.615
X116.84Y-97.155
X116.84Y-99.695
X116.84Y-102.235
X116.84Y-117.475
X116.84Y-120.015
X116.84Y-122.555
X116.84Y-125.095
X116.86Y-106.045
X116.86Y-108.585
X116.86Y-111.125
X116.86Y-113.665
T6
X107.95Y-84.455
X107.95Y-89.535
T7
X114.3Y-132.08
X129.54Y-132.08
M30
