%TF.GenerationSoftware,KiCad,Pcbnew,9.0.6*%
%TF.CreationDate,2026-03-10T14:17:26-05:00*%
%TF.ProjectId,1000W Controller,31303030-5720-4436-9f6e-74726f6c6c65,rev?*%
%TF.SameCoordinates,Original*%
%TF.FileFunction,Copper,L2,Inr*%
%TF.FilePolarity,Positive*%
%FSLAX46Y46*%
G04 Gerber Fmt 4.6, Leading zero omitted, Abs format (unit mm)*
G04 Created by KiCad (PCBNEW 9.0.6) date 2026-03-10 14:17:26*
%MOMM*%
%LPD*%
G01*
G04 APERTURE LIST*
G04 Aperture macros list*
%AMRoundRect*
0 Rectangle with rounded corners*
0 $1 Rounding radius*
0 $2 $3 $4 $5 $6 $7 $8 $9 X,Y pos of 4 corners*
0 Add a 4 corners polygon primitive as box body*
4,1,4,$2,$3,$4,$5,$6,$7,$8,$9,$2,$3,0*
0 Add four circle primitives for the rounded corners*
1,1,$1+$1,$2,$3*
1,1,$1+$1,$4,$5*
1,1,$1+$1,$6,$7*
1,1,$1+$1,$8,$9*
0 Add four rect primitives between the rounded corners*
20,1,$1+$1,$2,$3,$4,$5,0*
20,1,$1+$1,$4,$5,$6,$7,0*
20,1,$1+$1,$6,$7,$8,$9,0*
20,1,$1+$1,$8,$9,$2,$3,0*%
G04 Aperture macros list end*
%TA.AperFunction,ComponentPad*%
%ADD10RoundRect,0.250000X-0.600000X-0.725000X0.600000X-0.725000X0.600000X0.725000X-0.600000X0.725000X0*%
%TD*%
%TA.AperFunction,ComponentPad*%
%ADD11O,1.700000X1.950000*%
%TD*%
%TA.AperFunction,ComponentPad*%
%ADD12RoundRect,0.250000X0.845000X-0.620000X0.845000X0.620000X-0.845000X0.620000X-0.845000X-0.620000X0*%
%TD*%
%TA.AperFunction,ComponentPad*%
%ADD13O,2.190000X1.740000*%
%TD*%
%TA.AperFunction,ComponentPad*%
%ADD14RoundRect,0.250000X0.750000X-0.600000X0.750000X0.600000X-0.750000X0.600000X-0.750000X-0.600000X0*%
%TD*%
%TA.AperFunction,ComponentPad*%
%ADD15O,2.000000X1.700000*%
%TD*%
%TA.AperFunction,ComponentPad*%
%ADD16RoundRect,0.250000X-0.600000X-0.750000X0.600000X-0.750000X0.600000X0.750000X-0.600000X0.750000X0*%
%TD*%
%TA.AperFunction,ComponentPad*%
%ADD17O,1.700000X2.000000*%
%TD*%
%TA.AperFunction,ComponentPad*%
%ADD18R,1.500000X2.300000*%
%TD*%
%TA.AperFunction,ComponentPad*%
%ADD19O,1.500000X2.300000*%
%TD*%
%TA.AperFunction,ComponentPad*%
%ADD20RoundRect,0.250000X0.600000X0.725000X-0.600000X0.725000X-0.600000X-0.725000X0.600000X-0.725000X0*%
%TD*%
%TA.AperFunction,ComponentPad*%
%ADD21RoundRect,0.250000X-0.750000X0.750000X-0.750000X-0.750000X0.750000X-0.750000X0.750000X0.750000X0*%
%TD*%
%TA.AperFunction,ComponentPad*%
%ADD22C,2.000000*%
%TD*%
%TA.AperFunction,ComponentPad*%
%ADD23RoundRect,0.250000X-1.050000X1.050000X-1.050000X-1.050000X1.050000X-1.050000X1.050000X1.050000X0*%
%TD*%
%TA.AperFunction,ComponentPad*%
%ADD24C,2.600000*%
%TD*%
%TA.AperFunction,ComponentPad*%
%ADD25R,2.000000X1.905000*%
%TD*%
%TA.AperFunction,ComponentPad*%
%ADD26O,2.000000X1.905000*%
%TD*%
%TA.AperFunction,ComponentPad*%
%ADD27RoundRect,0.250000X-1.350000X-1.350000X1.350000X-1.350000X1.350000X1.350000X-1.350000X1.350000X0*%
%TD*%
%TA.AperFunction,ComponentPad*%
%ADD28C,3.200000*%
%TD*%
%TA.AperFunction,ComponentPad*%
%ADD29O,2.600000X1.600000*%
%TD*%
%TA.AperFunction,ComponentPad*%
%ADD30RoundRect,0.250000X1.050000X0.550000X-1.050000X0.550000X-1.050000X-0.550000X1.050000X-0.550000X0*%
%TD*%
%TA.AperFunction,ComponentPad*%
%ADD31C,1.778000*%
%TD*%
%TA.AperFunction,ViaPad*%
%ADD32C,0.600000*%
%TD*%
G04 APERTURE END LIST*
D10*
%TO.N,unconnected-(Encoder1-Pin_1-Pad1)*%
%TO.C,Encoder1*%
X164418000Y-86377000D03*
D11*
%TO.N,Net-(Encoder1-Pin_2)*%
X166918000Y-86377000D03*
%TO.N,Net-(Encoder1-Pin_3)*%
X169418000Y-86377000D03*
%TO.N,+ISO_5V*%
X171918000Y-86377000D03*
%TO.N,ISO_GND*%
X174418000Y-86377000D03*
%TD*%
D10*
%TO.N,Net-(Switch1-Pin_1)*%
%TO.C,Switch1*%
X162620000Y-115807000D03*
D11*
%TO.N,ISO_GND*%
X165120000Y-115807000D03*
X167620000Y-115807000D03*
%TO.N,Net-(Feather_M4_CAN_Express1-A3)*%
X170120000Y-115807000D03*
%TD*%
D12*
%TO.N,GND*%
%TO.C,Rad_Fan_3*%
X106680000Y-113665000D03*
D13*
%TO.N,+24V*%
X106680000Y-111125000D03*
%TO.N,Net-(Rad_Fan_1-Pin_3)*%
X106680000Y-108585000D03*
%TO.N,unconnected-(Rad_Fan_3-Pin_4-Pad4)*%
X106680000Y-106045000D03*
%TD*%
D14*
%TO.N,Net-(Q3-G)*%
%TO.C,Therm_sw1*%
X163813000Y-108946000D03*
D15*
%TO.N,Net-(Feather_M4_CAN_Express1-A4)*%
X163813000Y-106446000D03*
%TD*%
D16*
%TO.N,ISO_GND*%
%TO.C,LED_TEMP1*%
X162580000Y-131555000D03*
D17*
%TO.N,Net-(Feather_M4_CAN_Express1-A0)*%
X165080000Y-131555000D03*
%TD*%
D18*
%TO.N,+24V*%
%TO.C,U2*%
X125095000Y-125905500D03*
D19*
%TO.N,GND*%
X127635000Y-125905500D03*
%TO.N,+3.3V*%
X130175000Y-125905500D03*
%TD*%
D20*
%TO.N,ISO_GND*%
%TO.C,Display1*%
X165294000Y-77741000D03*
D11*
%TO.N,+ISO_3.3V*%
X162794000Y-77741000D03*
%TO.N,Net-(Display1-Pin_3)*%
X160294000Y-77741000D03*
%TO.N,Net-(Display1-Pin_4)*%
X157794000Y-77741000D03*
%TD*%
D21*
%TO.N,+24V*%
%TO.C,C9*%
X119380000Y-77007323D03*
D22*
%TO.N,GND*%
X119380000Y-82007323D03*
%TD*%
D12*
%TO.N,GND*%
%TO.C,Aux_Fan_1*%
X106680000Y-125095000D03*
D13*
%TO.N,+24V*%
X106680000Y-122555000D03*
%TO.N,Net-(Aux_Fan_1-Pin_3)*%
X106680000Y-120015000D03*
%TO.N,Net-(Aux_Fan_1-Pin_4)*%
X106680000Y-117475000D03*
%TD*%
D12*
%TO.N,GND*%
%TO.C,Pump_1*%
X116840000Y-125095000D03*
D13*
%TO.N,+24V*%
X116840000Y-122555000D03*
%TO.N,Net-(Pump_1-Pin_3)*%
X116840000Y-120015000D03*
%TO.N,Net-(Pump_1-Pin_4)*%
X116840000Y-117475000D03*
%TD*%
D12*
%TO.N,GND*%
%TO.C,PSU_Fan1*%
X116860000Y-113665000D03*
D13*
%TO.N,+24V*%
X116860000Y-111125000D03*
%TO.N,Net-(PSU_Fan1-Pin_3)*%
X116860000Y-108585000D03*
%TO.N,Net-(PSU_Fan1-Pin_4)*%
X116860000Y-106045000D03*
%TD*%
D23*
%TO.N,GND*%
%TO.C,24V1*%
X107950000Y-84455000D03*
D24*
%TO.N,+24V*%
X107950000Y-89535000D03*
%TD*%
D12*
%TO.N,GND*%
%TO.C,Rad_Fan_2*%
X116840000Y-102235000D03*
D13*
%TO.N,+24V*%
X116840000Y-99695000D03*
%TO.N,Net-(Rad_Fan_1-Pin_3)*%
X116840000Y-97155000D03*
%TO.N,unconnected-(Rad_Fan_2-Pin_4-Pad4)*%
X116840000Y-94615000D03*
%TD*%
D14*
%TO.N,/remote_on_off*%
%TO.C,Remote1*%
X172703000Y-108946000D03*
D15*
%TO.N,/12V_AUX*%
X172703000Y-106446000D03*
%TD*%
D16*
%TO.N,ISO_GND*%
%TO.C,WATER_TEMP1*%
X162580000Y-123681000D03*
D17*
%TO.N,Net-(Feather_M4_CAN_Express1-A1)*%
X165080000Y-123681000D03*
%TD*%
D25*
%TO.N,ISO_GND*%
%TO.C,U3*%
X151062733Y-76803668D03*
D26*
%TO.N,+ISO_3.3V*%
X151062733Y-79343668D03*
%TO.N,+ISO_5V*%
X151062733Y-81883668D03*
%TD*%
D12*
%TO.N,GND*%
%TO.C,Rad_Fan_1*%
X106680000Y-102235000D03*
D13*
%TO.N,+24V*%
X106680000Y-99695000D03*
%TO.N,Net-(Rad_Fan_1-Pin_3)*%
X106680000Y-97155000D03*
%TO.N,Net-(Rad_Fan_1-Pin_4)*%
X106680000Y-94615000D03*
%TD*%
D27*
%TO.N,+24V*%
%TO.C,D1*%
X114300000Y-132080000D03*
D28*
%TO.N,GND*%
X129540000Y-132080000D03*
%TD*%
D29*
%TO.N,unconnected-(Feather_M4_CAN_Express1-VBAT-Pad28)*%
%TO.C,Feather_M4_CAN_Express1*%
X137460000Y-119380000D03*
%TO.N,unconnected-(Feather_M4_CAN_Express1-EN-Pad27)*%
X137460000Y-116840000D03*
%TO.N,unconnected-(Feather_M4_CAN_Express1-USB-Pad26)*%
X137460000Y-114300000D03*
%TO.N,Net-(Feather_M4_CAN_Express1-D13)*%
X137460000Y-111760000D03*
%TO.N,Net-(Feather_M4_CAN_Express1-D12)*%
X137460000Y-109220000D03*
%TO.N,Net-(Feather_M4_CAN_Express1-D11)*%
X137460000Y-106680000D03*
%TO.N,Net-(Feather_M4_CAN_Express1-D10)*%
X137460000Y-104140000D03*
%TO.N,Net-(Feather_M4_CAN_Express1-D9)*%
X137460000Y-101600000D03*
%TO.N,Net-(Feather_M4_CAN_Express1-D6)*%
X137460000Y-99060000D03*
%TO.N,Net-(Feather_M4_CAN_Express1-D5)*%
X137460000Y-96520000D03*
%TO.N,Net-(Display1-Pin_3)*%
X137460000Y-93980000D03*
%TO.N,Net-(Display1-Pin_4)*%
X137460000Y-91440000D03*
%TO.N,Net-(Feather_M4_CAN_Express1-D4)*%
X157180000Y-91440000D03*
%TO.N,Net-(Encoder1-Pin_2)*%
X157180000Y-93980000D03*
%TO.N,Net-(Encoder1-Pin_3)*%
X157180000Y-96520000D03*
%TO.N,unconnected-(Feather_M4_CAN_Express1-MISO-Pad13)*%
X157180000Y-99060000D03*
%TO.N,unconnected-(Feather_M4_CAN_Express1-MOSI-Pad12)*%
X157180000Y-101600000D03*
%TO.N,unconnected-(Feather_M4_CAN_Express1-SCK-Pad11)*%
X157180000Y-104140000D03*
%TO.N,unconnected-(Feather_M4_CAN_Express1-A5-Pad10)*%
X157180000Y-106680000D03*
%TO.N,Net-(Feather_M4_CAN_Express1-A4)*%
X157180000Y-109220000D03*
%TO.N,Net-(Feather_M4_CAN_Express1-A3)*%
X157180000Y-111760000D03*
%TO.N,Net-(Feather_M4_CAN_Express1-A2)*%
X157180000Y-114300000D03*
%TO.N,Net-(Feather_M4_CAN_Express1-A1)*%
X157180000Y-116840000D03*
%TO.N,Net-(Feather_M4_CAN_Express1-A0)*%
X157180000Y-119380000D03*
%TO.N,ISO_GND*%
X157180000Y-121920000D03*
%TO.N,unconnected-(Feather_M4_CAN_Express1-AREF-Pad3)*%
X157180000Y-124460000D03*
%TO.N,+ISO_3.3V*%
X157180000Y-127000000D03*
D30*
%TO.N,unconnected-(Feather_M4_CAN_Express1-~{RESET}-Pad1)*%
X157180000Y-129540000D03*
%TD*%
D31*
%TO.N,GND*%
%TO.C,24V_5V_Buck_ISO1*%
X128270000Y-76617500D03*
%TO.N,+24V*%
X130810000Y-76617500D03*
%TO.N,unconnected-(24V_5V_Buck_ISO1-R.C.-Pad3)*%
X133350000Y-76617500D03*
%TO.N,+ISO_5V*%
X140970000Y-76617500D03*
%TO.N,ISO_GND*%
X143510000Y-76617500D03*
%TO.N,unconnected-(24V_5V_Buck_ISO1-N.C.-Pad8)*%
X146050000Y-76617500D03*
%TD*%
D32*
%TO.N,ISO_GND*%
X163576000Y-93030000D03*
X134620000Y-110678000D03*
X132015000Y-92075000D03*
X175387000Y-98655500D03*
X168910000Y-96670500D03*
X142748000Y-87630000D03*
X134620000Y-104328000D03*
X163576000Y-96773360D03*
X130452500Y-89408000D03*
X142748000Y-86360000D03*
X176079219Y-116078000D03*
X134620000Y-117028000D03*
X134620000Y-97978000D03*
%TO.N,+ISO_3.3V*%
X161290000Y-93067500D03*
X161290000Y-96810860D03*
X134587000Y-115095000D03*
X134620000Y-108778000D03*
X134620000Y-102428000D03*
X171092500Y-127254000D03*
X134620000Y-96078000D03*
X176019757Y-118364000D03*
%TO.N,GND*%
X124902000Y-92456000D03*
X128627500Y-89408000D03*
X123002000Y-96520000D03*
X124902000Y-105156000D03*
X123002000Y-115570000D03*
X123002000Y-102870000D03*
X123002000Y-109220000D03*
X124902000Y-111506000D03*
X124902000Y-98806000D03*
%TO.N,Net-(Aux_Fan_1-Pin_3)*%
X127065000Y-112395000D03*
%TO.N,Net-(Aux_Fan_1-Pin_4)*%
X123039500Y-113538000D03*
X127065000Y-113665000D03*
%TO.N,+3.3V*%
X124902000Y-109220000D03*
X124902000Y-96520000D03*
X124902000Y-115570000D03*
X124902000Y-102870000D03*
%TO.N,Net-(Feather_M4_CAN_Express1-D10)*%
X132015000Y-94615000D03*
%TO.N,Net-(PSU_Fan1-Pin_3)*%
X127065000Y-99695000D03*
%TO.N,Net-(PSU_Fan1-Pin_4)*%
X123039500Y-100838000D03*
X127065000Y-100965000D03*
%TO.N,Net-(Pump_1-Pin_4)*%
X127065000Y-107315000D03*
X123039500Y-107188000D03*
%TO.N,Net-(Pump_1-Pin_3)*%
X127065000Y-106045000D03*
%TO.N,Net-(Rad_Fan_1-Pin_4)*%
X127065000Y-94615000D03*
X123039500Y-94488000D03*
%TO.N,Net-(Rad_Fan_1-Pin_3)*%
X127065000Y-93345000D03*
%TO.N,Net-(Feather_M4_CAN_Express1-D12)*%
X132015000Y-100965000D03*
%TD*%
%TA.AperFunction,Conductor*%
%TO.N,+3.3V*%
G36*
X129229039Y-84347685D02*
G01*
X129274794Y-84400489D01*
X129286000Y-84452000D01*
X129286000Y-88988784D01*
X129266315Y-89055823D01*
X129213511Y-89101578D01*
X129144353Y-89111522D01*
X129080797Y-89082497D01*
X129074097Y-89075390D01*
X129073756Y-89075732D01*
X128965517Y-88967493D01*
X128965511Y-88967488D01*
X128839988Y-88895017D01*
X128839989Y-88895017D01*
X128828506Y-88891940D01*
X128699975Y-88857500D01*
X128555025Y-88857500D01*
X128426493Y-88891940D01*
X128415011Y-88895017D01*
X128289488Y-88967488D01*
X128289482Y-88967493D01*
X128186993Y-89069982D01*
X128186988Y-89069988D01*
X128114517Y-89195511D01*
X128114516Y-89195515D01*
X128077000Y-89335525D01*
X128077000Y-89480475D01*
X128114516Y-89620485D01*
X128114517Y-89620488D01*
X128186988Y-89746011D01*
X128186990Y-89746013D01*
X128186991Y-89746015D01*
X128289485Y-89848509D01*
X128289486Y-89848510D01*
X128289488Y-89848511D01*
X128415011Y-89920982D01*
X128415012Y-89920982D01*
X128415015Y-89920984D01*
X128555025Y-89958500D01*
X128555028Y-89958500D01*
X128699972Y-89958500D01*
X128699975Y-89958500D01*
X128839985Y-89920984D01*
X128965515Y-89848509D01*
X129068009Y-89746015D01*
X129068009Y-89746014D01*
X129073756Y-89740268D01*
X129076106Y-89742618D01*
X129120030Y-89710534D01*
X129189775Y-89706366D01*
X129250702Y-89740567D01*
X129283467Y-89802278D01*
X129286000Y-89827215D01*
X129286000Y-118364000D01*
X134496000Y-118364000D01*
X134563039Y-118383685D01*
X134608794Y-118436489D01*
X134620000Y-118488000D01*
X134620000Y-128400000D01*
X134600315Y-128467039D01*
X134547511Y-128512794D01*
X134496000Y-128524000D01*
X121536000Y-128524000D01*
X121468961Y-128504315D01*
X121423206Y-128451511D01*
X121412000Y-128400000D01*
X121412000Y-124730821D01*
X124094500Y-124730821D01*
X124094500Y-127080178D01*
X124109032Y-127153235D01*
X124109033Y-127153239D01*
X124109034Y-127153240D01*
X124164399Y-127236101D01*
X124211470Y-127267552D01*
X124247260Y-127291466D01*
X124247264Y-127291467D01*
X124320321Y-127305999D01*
X124320324Y-127306000D01*
X124320326Y-127306000D01*
X125869676Y-127306000D01*
X125869677Y-127305999D01*
X125942740Y-127291466D01*
X126025601Y-127236101D01*
X126080966Y-127153240D01*
X126095500Y-127080174D01*
X126095500Y-126404043D01*
X126634499Y-126404043D01*
X126672947Y-126597329D01*
X126672950Y-126597339D01*
X126748364Y-126779407D01*
X126748371Y-126779420D01*
X126857860Y-126943281D01*
X126857863Y-126943285D01*
X126997214Y-127082636D01*
X126997218Y-127082639D01*
X127161079Y-127192128D01*
X127161092Y-127192135D01*
X127343160Y-127267549D01*
X127343165Y-127267551D01*
X127343169Y-127267551D01*
X127343170Y-127267552D01*
X127536456Y-127306000D01*
X127536459Y-127306000D01*
X127733543Y-127306000D01*
X127863582Y-127280132D01*
X127926835Y-127267551D01*
X128108914Y-127192132D01*
X128272782Y-127082639D01*
X128412139Y-126943282D01*
X128521632Y-126779414D01*
X128597051Y-126597335D01*
X128635500Y-126404041D01*
X128635500Y-125407117D01*
X128925000Y-125407117D01*
X128925000Y-125655500D01*
X129741988Y-125655500D01*
X129709075Y-125712507D01*
X129675000Y-125839674D01*
X129675000Y-125971326D01*
X129709075Y-126098493D01*
X129741988Y-126155500D01*
X128925000Y-126155500D01*
X128925000Y-126403882D01*
X128955778Y-126598205D01*
X129016581Y-126785335D01*
X129105904Y-126960643D01*
X129221555Y-127119821D01*
X129360678Y-127258944D01*
X129519856Y-127374595D01*
X129695162Y-127463918D01*
X129882283Y-127524718D01*
X129925000Y-127531484D01*
X129925000Y-126338512D01*
X129982007Y-126371425D01*
X130109174Y-126405500D01*
X130240826Y-126405500D01*
X130367993Y-126371425D01*
X130425000Y-126338512D01*
X130425000Y-127531483D01*
X130467716Y-127524718D01*
X130654837Y-127463918D01*
X130830143Y-127374595D01*
X130989321Y-127258944D01*
X131128444Y-127119821D01*
X131244095Y-126960643D01*
X131333418Y-126785335D01*
X131394221Y-126598205D01*
X131425000Y-126403882D01*
X131425000Y-126155500D01*
X130608012Y-126155500D01*
X130640925Y-126098493D01*
X130675000Y-125971326D01*
X130675000Y-125839674D01*
X130640925Y-125712507D01*
X130608012Y-125655500D01*
X131425000Y-125655500D01*
X131425000Y-125407117D01*
X131394221Y-125212794D01*
X131333418Y-125025664D01*
X131244095Y-124850356D01*
X131128444Y-124691178D01*
X130989321Y-124552055D01*
X130830143Y-124436404D01*
X130654835Y-124347081D01*
X130467705Y-124286278D01*
X130425000Y-124279514D01*
X130425000Y-125472488D01*
X130367993Y-125439575D01*
X130240826Y-125405500D01*
X130109174Y-125405500D01*
X129982007Y-125439575D01*
X129925000Y-125472488D01*
X129925000Y-124279514D01*
X129924999Y-124279514D01*
X129882294Y-124286278D01*
X129695164Y-124347081D01*
X129519856Y-124436404D01*
X129360678Y-124552055D01*
X129221555Y-124691178D01*
X129105904Y-124850356D01*
X129016581Y-125025664D01*
X128955778Y-125212794D01*
X128925000Y-125407117D01*
X128635500Y-125407117D01*
X128635500Y-125406959D01*
X128635500Y-125406956D01*
X128597052Y-125213670D01*
X128597051Y-125213669D01*
X128597051Y-125213665D01*
X128596690Y-125212794D01*
X128521635Y-125031592D01*
X128521628Y-125031579D01*
X128412139Y-124867718D01*
X128412136Y-124867714D01*
X128272785Y-124728363D01*
X128272781Y-124728360D01*
X128108920Y-124618871D01*
X128108907Y-124618864D01*
X127926839Y-124543450D01*
X127926829Y-124543447D01*
X127733543Y-124505000D01*
X127733541Y-124505000D01*
X127536459Y-124505000D01*
X127536457Y-124505000D01*
X127343170Y-124543447D01*
X127343160Y-124543450D01*
X127161092Y-124618864D01*
X127161079Y-124618871D01*
X126997218Y-124728360D01*
X126997214Y-124728363D01*
X126857863Y-124867714D01*
X126857860Y-124867718D01*
X126748371Y-125031579D01*
X126748364Y-125031592D01*
X126672950Y-125213660D01*
X126672947Y-125213670D01*
X126634500Y-125406956D01*
X126634500Y-125406959D01*
X126634500Y-126404041D01*
X126634500Y-126404043D01*
X126634499Y-126404043D01*
X126095500Y-126404043D01*
X126095500Y-124730826D01*
X126095500Y-124730823D01*
X126095499Y-124730821D01*
X126080967Y-124657764D01*
X126080966Y-124657760D01*
X126025601Y-124574899D01*
X125942740Y-124519534D01*
X125942739Y-124519533D01*
X125942735Y-124519532D01*
X125869677Y-124505000D01*
X125869674Y-124505000D01*
X124320326Y-124505000D01*
X124320323Y-124505000D01*
X124247264Y-124519532D01*
X124247260Y-124519533D01*
X124164399Y-124574899D01*
X124109033Y-124657760D01*
X124109032Y-124657764D01*
X124094500Y-124730821D01*
X121412000Y-124730821D01*
X121412000Y-115497525D01*
X122451500Y-115497525D01*
X122451500Y-115642475D01*
X122452311Y-115645500D01*
X122489017Y-115782488D01*
X122561488Y-115908011D01*
X122561490Y-115908013D01*
X122561491Y-115908015D01*
X122663985Y-116010509D01*
X122663986Y-116010510D01*
X122663988Y-116010511D01*
X122789511Y-116082982D01*
X122789512Y-116082982D01*
X122789515Y-116082984D01*
X122929525Y-116120500D01*
X122929528Y-116120500D01*
X123074472Y-116120500D01*
X123074475Y-116120500D01*
X123214485Y-116082984D01*
X123340015Y-116010509D01*
X123442509Y-115908015D01*
X123514984Y-115782485D01*
X123552500Y-115642475D01*
X123552500Y-115497525D01*
X123514984Y-115357515D01*
X123442509Y-115231985D01*
X123340015Y-115129491D01*
X123340013Y-115129490D01*
X123340011Y-115129488D01*
X123214488Y-115057017D01*
X123214489Y-115057017D01*
X123203006Y-115053940D01*
X123074475Y-115019500D01*
X122929525Y-115019500D01*
X122800993Y-115053940D01*
X122789511Y-115057017D01*
X122663988Y-115129488D01*
X122663982Y-115129493D01*
X122561493Y-115231982D01*
X122561488Y-115231988D01*
X122489017Y-115357511D01*
X122489016Y-115357515D01*
X122451500Y-115497525D01*
X121412000Y-115497525D01*
X121412000Y-113465525D01*
X122489000Y-113465525D01*
X122489000Y-113610475D01*
X122523029Y-113737472D01*
X122526517Y-113750488D01*
X122598988Y-113876011D01*
X122598990Y-113876013D01*
X122598991Y-113876015D01*
X122701485Y-113978509D01*
X122701486Y-113978510D01*
X122701488Y-113978511D01*
X122827011Y-114050982D01*
X122827012Y-114050982D01*
X122827015Y-114050984D01*
X122967025Y-114088500D01*
X122967028Y-114088500D01*
X123111972Y-114088500D01*
X123111975Y-114088500D01*
X123251985Y-114050984D01*
X123377515Y-113978509D01*
X123480009Y-113876015D01*
X123552484Y-113750485D01*
X123590000Y-113610475D01*
X123590000Y-113465525D01*
X123552484Y-113325515D01*
X123480009Y-113199985D01*
X123377515Y-113097491D01*
X123377513Y-113097490D01*
X123377511Y-113097488D01*
X123251988Y-113025017D01*
X123251989Y-113025017D01*
X123240506Y-113021940D01*
X123111975Y-112987500D01*
X122967025Y-112987500D01*
X122838493Y-113021940D01*
X122827011Y-113025017D01*
X122701488Y-113097488D01*
X122701482Y-113097493D01*
X122598993Y-113199982D01*
X122598988Y-113199988D01*
X122526517Y-113325511D01*
X122526516Y-113325515D01*
X122489000Y-113465525D01*
X121412000Y-113465525D01*
X121412000Y-112322525D01*
X126514500Y-112322525D01*
X126514500Y-112467475D01*
X126552016Y-112607485D01*
X126552017Y-112607488D01*
X126624488Y-112733011D01*
X126624490Y-112733013D01*
X126624491Y-112733015D01*
X126726985Y-112835509D01*
X126726986Y-112835510D01*
X126726988Y-112835511D01*
X126852511Y-112907982D01*
X126852512Y-112907982D01*
X126852515Y-112907984D01*
X126856386Y-112909021D01*
X126860881Y-112910226D01*
X126920541Y-112946591D01*
X126951069Y-113009439D01*
X126942774Y-113078814D01*
X126898288Y-113132691D01*
X126860881Y-113149774D01*
X126852516Y-113152015D01*
X126852511Y-113152017D01*
X126726988Y-113224488D01*
X126726982Y-113224493D01*
X126624493Y-113326982D01*
X126624488Y-113326988D01*
X126552017Y-113452511D01*
X126552016Y-113452515D01*
X126514500Y-113592525D01*
X126514500Y-113737475D01*
X126551621Y-113876011D01*
X126552017Y-113877488D01*
X126624488Y-114003011D01*
X126624490Y-114003013D01*
X126624491Y-114003015D01*
X126726985Y-114105509D01*
X126726986Y-114105510D01*
X126726988Y-114105511D01*
X126852511Y-114177982D01*
X126852512Y-114177982D01*
X126852515Y-114177984D01*
X126992525Y-114215500D01*
X126992528Y-114215500D01*
X127137472Y-114215500D01*
X127137475Y-114215500D01*
X127277485Y-114177984D01*
X127403015Y-114105509D01*
X127505509Y-114003015D01*
X127577984Y-113877485D01*
X127615500Y-113737475D01*
X127615500Y-113592525D01*
X127577984Y-113452515D01*
X127505509Y-113326985D01*
X127403015Y-113224491D01*
X127403013Y-113224490D01*
X127403011Y-113224488D01*
X127277487Y-113152017D01*
X127277486Y-113152016D01*
X127277485Y-113152016D01*
X127269118Y-113149774D01*
X127209459Y-113113410D01*
X127178930Y-113050563D01*
X127187225Y-112981188D01*
X127231710Y-112927310D01*
X127269117Y-112910226D01*
X127277485Y-112907984D01*
X127403015Y-112835509D01*
X127505509Y-112733015D01*
X127577984Y-112607485D01*
X127615500Y-112467475D01*
X127615500Y-112322525D01*
X127577984Y-112182515D01*
X127505509Y-112056985D01*
X127403015Y-111954491D01*
X127403013Y-111954490D01*
X127403011Y-111954488D01*
X127277488Y-111882017D01*
X127277489Y-111882017D01*
X127266006Y-111878940D01*
X127137475Y-111844500D01*
X126992525Y-111844500D01*
X126863993Y-111878940D01*
X126852511Y-111882017D01*
X126726988Y-111954488D01*
X126726982Y-111954493D01*
X126624493Y-112056982D01*
X126624488Y-112056988D01*
X126552017Y-112182511D01*
X126552016Y-112182515D01*
X126514500Y-112322525D01*
X121412000Y-112322525D01*
X121412000Y-111433525D01*
X124351500Y-111433525D01*
X124351500Y-111578475D01*
X124389016Y-111718485D01*
X124389017Y-111718488D01*
X124461488Y-111844011D01*
X124461490Y-111844013D01*
X124461491Y-111844015D01*
X124563985Y-111946509D01*
X124563986Y-111946510D01*
X124563988Y-111946511D01*
X124689511Y-112018982D01*
X124689512Y-112018982D01*
X124689515Y-112018984D01*
X124829525Y-112056500D01*
X124829528Y-112056500D01*
X124974472Y-112056500D01*
X124974475Y-112056500D01*
X125114485Y-112018984D01*
X125240015Y-111946509D01*
X125342509Y-111844015D01*
X125414984Y-111718485D01*
X125452500Y-111578475D01*
X125452500Y-111433525D01*
X125414984Y-111293515D01*
X125377447Y-111228500D01*
X125342511Y-111167988D01*
X125342506Y-111167982D01*
X125240017Y-111065493D01*
X125240011Y-111065488D01*
X125114488Y-110993017D01*
X125114489Y-110993017D01*
X125103006Y-110989940D01*
X124974475Y-110955500D01*
X124829525Y-110955500D01*
X124700993Y-110989940D01*
X124689511Y-110993017D01*
X124563988Y-111065488D01*
X124563982Y-111065493D01*
X124461493Y-111167982D01*
X124461488Y-111167988D01*
X124389017Y-111293511D01*
X124389016Y-111293515D01*
X124351500Y-111433525D01*
X121412000Y-111433525D01*
X121412000Y-109147525D01*
X122451500Y-109147525D01*
X122451500Y-109292475D01*
X122489016Y-109432485D01*
X122489017Y-109432488D01*
X122561488Y-109558011D01*
X122561490Y-109558013D01*
X122561491Y-109558015D01*
X122663985Y-109660509D01*
X122663986Y-109660510D01*
X122663988Y-109660511D01*
X122789511Y-109732982D01*
X122789512Y-109732982D01*
X122789515Y-109732984D01*
X122929525Y-109770500D01*
X122929528Y-109770500D01*
X123074472Y-109770500D01*
X123074475Y-109770500D01*
X123214485Y-109732984D01*
X123340015Y-109660509D01*
X123442509Y-109558015D01*
X123514984Y-109432485D01*
X123552500Y-109292475D01*
X123552500Y-109147525D01*
X123514984Y-109007515D01*
X123442509Y-108881985D01*
X123340015Y-108779491D01*
X123340013Y-108779490D01*
X123340011Y-108779488D01*
X123214488Y-108707017D01*
X123214489Y-108707017D01*
X123203006Y-108703940D01*
X123074475Y-108669500D01*
X122929525Y-108669500D01*
X122800993Y-108703940D01*
X122789511Y-108707017D01*
X122663988Y-108779488D01*
X122663982Y-108779493D01*
X122561493Y-108881982D01*
X122561488Y-108881988D01*
X122489017Y-109007511D01*
X122489016Y-109007515D01*
X122451500Y-109147525D01*
X121412000Y-109147525D01*
X121412000Y-107115525D01*
X122489000Y-107115525D01*
X122489000Y-107260475D01*
X122523029Y-107387472D01*
X122526517Y-107400488D01*
X122598988Y-107526011D01*
X122598990Y-107526013D01*
X122598991Y-107526015D01*
X122701485Y-107628509D01*
X122701486Y-107628510D01*
X122701488Y-107628511D01*
X122827011Y-107700982D01*
X122827012Y-107700982D01*
X122827015Y-107700984D01*
X122967025Y-107738500D01*
X122967028Y-107738500D01*
X123111972Y-107738500D01*
X123111975Y-107738500D01*
X123251985Y-107700984D01*
X123377515Y-107628509D01*
X123480009Y-107526015D01*
X123552484Y-107400485D01*
X123590000Y-107260475D01*
X123590000Y-107115525D01*
X123552484Y-106975515D01*
X123480009Y-106849985D01*
X123377515Y-106747491D01*
X123377513Y-106747490D01*
X123377511Y-106747488D01*
X123251988Y-106675017D01*
X123251989Y-106675017D01*
X123240506Y-106671940D01*
X123111975Y-106637500D01*
X122967025Y-106637500D01*
X122838493Y-106671940D01*
X122827011Y-106675017D01*
X122701488Y-106747488D01*
X122701482Y-106747493D01*
X122598993Y-106849982D01*
X122598988Y-106849988D01*
X122526517Y-106975511D01*
X122526516Y-106975515D01*
X122489000Y-107115525D01*
X121412000Y-107115525D01*
X121412000Y-105972525D01*
X126514500Y-105972525D01*
X126514500Y-106117475D01*
X126552016Y-106257485D01*
X126552017Y-106257488D01*
X126624488Y-106383011D01*
X126624490Y-106383013D01*
X126624491Y-106383015D01*
X126726985Y-106485509D01*
X126726986Y-106485510D01*
X126726988Y-106485511D01*
X126852511Y-106557982D01*
X126852512Y-106557982D01*
X126852515Y-106557984D01*
X126856386Y-106559021D01*
X126860881Y-106560226D01*
X126920541Y-106596591D01*
X126951069Y-106659439D01*
X126942774Y-106728814D01*
X126898288Y-106782691D01*
X126860881Y-106799774D01*
X126852516Y-106802015D01*
X126852511Y-106802017D01*
X126726988Y-106874488D01*
X126726982Y-106874493D01*
X126624493Y-106976982D01*
X126624488Y-106976988D01*
X126552017Y-107102511D01*
X126552016Y-107102515D01*
X126514500Y-107242525D01*
X126514500Y-107387475D01*
X126551621Y-107526011D01*
X126552017Y-107527488D01*
X126624488Y-107653011D01*
X126624490Y-107653013D01*
X126624491Y-107653015D01*
X126726985Y-107755509D01*
X126726986Y-107755510D01*
X126726988Y-107755511D01*
X126852511Y-107827982D01*
X126852512Y-107827982D01*
X126852515Y-107827984D01*
X126992525Y-107865500D01*
X126992528Y-107865500D01*
X127137472Y-107865500D01*
X127137475Y-107865500D01*
X127277485Y-107827984D01*
X127403015Y-107755509D01*
X127505509Y-107653015D01*
X127577984Y-107527485D01*
X127615500Y-107387475D01*
X127615500Y-107242525D01*
X127577984Y-107102515D01*
X127505509Y-106976985D01*
X127403015Y-106874491D01*
X127403013Y-106874490D01*
X127403011Y-106874488D01*
X127277487Y-106802017D01*
X127277486Y-106802016D01*
X127277485Y-106802016D01*
X127269118Y-106799774D01*
X127209459Y-106763410D01*
X127178930Y-106700563D01*
X127187225Y-106631188D01*
X127231710Y-106577310D01*
X127269117Y-106560226D01*
X127277485Y-106557984D01*
X127403015Y-106485509D01*
X127505509Y-106383015D01*
X127577984Y-106257485D01*
X127615500Y-106117475D01*
X127615500Y-105972525D01*
X127577984Y-105832515D01*
X127505509Y-105706985D01*
X127403015Y-105604491D01*
X127403013Y-105604490D01*
X127403011Y-105604488D01*
X127277488Y-105532017D01*
X127277489Y-105532017D01*
X127266006Y-105528940D01*
X127137475Y-105494500D01*
X126992525Y-105494500D01*
X126863993Y-105528940D01*
X126852511Y-105532017D01*
X126726988Y-105604488D01*
X126726982Y-105604493D01*
X126624493Y-105706982D01*
X126624488Y-105706988D01*
X126552017Y-105832511D01*
X126552016Y-105832515D01*
X126514500Y-105972525D01*
X121412000Y-105972525D01*
X121412000Y-105083525D01*
X124351500Y-105083525D01*
X124351500Y-105228475D01*
X124389016Y-105368485D01*
X124389017Y-105368488D01*
X124461488Y-105494011D01*
X124461490Y-105494013D01*
X124461491Y-105494015D01*
X124563985Y-105596509D01*
X124563986Y-105596510D01*
X124563988Y-105596511D01*
X124689511Y-105668982D01*
X124689512Y-105668982D01*
X124689515Y-105668984D01*
X124829525Y-105706500D01*
X124829528Y-105706500D01*
X124974472Y-105706500D01*
X124974475Y-105706500D01*
X125114485Y-105668984D01*
X125240015Y-105596509D01*
X125342509Y-105494015D01*
X125414984Y-105368485D01*
X125452500Y-105228475D01*
X125452500Y-105083525D01*
X125414984Y-104943515D01*
X125377447Y-104878500D01*
X125342511Y-104817988D01*
X125342506Y-104817982D01*
X125240017Y-104715493D01*
X125240011Y-104715488D01*
X125114488Y-104643017D01*
X125114489Y-104643017D01*
X125103006Y-104639940D01*
X124974475Y-104605500D01*
X124829525Y-104605500D01*
X124700993Y-104639940D01*
X124689511Y-104643017D01*
X124563988Y-104715488D01*
X124563982Y-104715493D01*
X124461493Y-104817982D01*
X124461488Y-104817988D01*
X124389017Y-104943511D01*
X124389016Y-104943515D01*
X124351500Y-105083525D01*
X121412000Y-105083525D01*
X121412000Y-102797525D01*
X122451500Y-102797525D01*
X122451500Y-102942475D01*
X122489016Y-103082485D01*
X122489017Y-103082488D01*
X122561488Y-103208011D01*
X122561490Y-103208013D01*
X122561491Y-103208015D01*
X122663985Y-103310509D01*
X122663986Y-103310510D01*
X122663988Y-103310511D01*
X122789511Y-103382982D01*
X122789512Y-103382982D01*
X122789515Y-103382984D01*
X122929525Y-103420500D01*
X122929528Y-103420500D01*
X123074472Y-103420500D01*
X123074475Y-103420500D01*
X123214485Y-103382984D01*
X123340015Y-103310509D01*
X123442509Y-103208015D01*
X123514984Y-103082485D01*
X123552500Y-102942475D01*
X123552500Y-102797525D01*
X123514984Y-102657515D01*
X123442509Y-102531985D01*
X123340015Y-102429491D01*
X123340013Y-102429490D01*
X123340011Y-102429488D01*
X123214488Y-102357017D01*
X123214489Y-102357017D01*
X123203006Y-102353940D01*
X123074475Y-102319500D01*
X122929525Y-102319500D01*
X122800993Y-102353940D01*
X122789511Y-102357017D01*
X122663988Y-102429488D01*
X122663982Y-102429493D01*
X122561493Y-102531982D01*
X122561488Y-102531988D01*
X122489017Y-102657511D01*
X122489016Y-102657515D01*
X122451500Y-102797525D01*
X121412000Y-102797525D01*
X121412000Y-100765525D01*
X122489000Y-100765525D01*
X122489000Y-100910475D01*
X122523029Y-101037472D01*
X122526517Y-101050488D01*
X122598988Y-101176011D01*
X122598990Y-101176013D01*
X122598991Y-101176015D01*
X122701485Y-101278509D01*
X122701486Y-101278510D01*
X122701488Y-101278511D01*
X122827011Y-101350982D01*
X122827012Y-101350982D01*
X122827015Y-101350984D01*
X122967025Y-101388500D01*
X122967028Y-101388500D01*
X123111972Y-101388500D01*
X123111975Y-101388500D01*
X123251985Y-101350984D01*
X123377515Y-101278509D01*
X123480009Y-101176015D01*
X123552484Y-101050485D01*
X123590000Y-100910475D01*
X123590000Y-100765525D01*
X123552484Y-100625515D01*
X123480009Y-100499985D01*
X123377515Y-100397491D01*
X123377513Y-100397490D01*
X123377511Y-100397488D01*
X123251988Y-100325017D01*
X123251989Y-100325017D01*
X123240506Y-100321940D01*
X123111975Y-100287500D01*
X122967025Y-100287500D01*
X122838493Y-100321940D01*
X122827011Y-100325017D01*
X122701488Y-100397488D01*
X122701482Y-100397493D01*
X122598993Y-100499982D01*
X122598988Y-100499988D01*
X122526517Y-100625511D01*
X122526516Y-100625515D01*
X122489000Y-100765525D01*
X121412000Y-100765525D01*
X121412000Y-99622525D01*
X126514500Y-99622525D01*
X126514500Y-99767475D01*
X126552016Y-99907485D01*
X126552017Y-99907488D01*
X126624488Y-100033011D01*
X126624490Y-100033013D01*
X126624491Y-100033015D01*
X126726985Y-100135509D01*
X126726986Y-100135510D01*
X126726988Y-100135511D01*
X126852511Y-100207982D01*
X126852512Y-100207982D01*
X126852515Y-100207984D01*
X126856386Y-100209021D01*
X126860881Y-100210226D01*
X126920541Y-100246591D01*
X126951069Y-100309439D01*
X126942774Y-100378814D01*
X126898288Y-100432691D01*
X126860881Y-100449774D01*
X126852516Y-100452015D01*
X126852511Y-100452017D01*
X126726988Y-100524488D01*
X126726982Y-100524493D01*
X126624493Y-100626982D01*
X126624488Y-100626988D01*
X126552017Y-100752511D01*
X126552016Y-100752515D01*
X126514500Y-100892525D01*
X126514500Y-101037475D01*
X126551621Y-101176011D01*
X126552017Y-101177488D01*
X126624488Y-101303011D01*
X126624490Y-101303013D01*
X126624491Y-101303015D01*
X126726985Y-101405509D01*
X126726986Y-101405510D01*
X126726988Y-101405511D01*
X126852511Y-101477982D01*
X126852512Y-101477982D01*
X126852515Y-101477984D01*
X126992525Y-101515500D01*
X126992528Y-101515500D01*
X127137472Y-101515500D01*
X127137475Y-101515500D01*
X127277485Y-101477984D01*
X127403015Y-101405509D01*
X127505509Y-101303015D01*
X127577984Y-101177485D01*
X127615500Y-101037475D01*
X127615500Y-100892525D01*
X127577984Y-100752515D01*
X127505509Y-100626985D01*
X127403015Y-100524491D01*
X127403013Y-100524490D01*
X127403011Y-100524488D01*
X127277487Y-100452017D01*
X127277486Y-100452016D01*
X127277485Y-100452016D01*
X127269118Y-100449774D01*
X127209459Y-100413410D01*
X127178930Y-100350563D01*
X127187225Y-100281188D01*
X127231710Y-100227310D01*
X127269117Y-100210226D01*
X127277485Y-100207984D01*
X127403015Y-100135509D01*
X127505509Y-100033015D01*
X127577984Y-99907485D01*
X127615500Y-99767475D01*
X127615500Y-99622525D01*
X127577984Y-99482515D01*
X127505509Y-99356985D01*
X127403015Y-99254491D01*
X127403013Y-99254490D01*
X127403011Y-99254488D01*
X127277488Y-99182017D01*
X127277489Y-99182017D01*
X127266006Y-99178940D01*
X127137475Y-99144500D01*
X126992525Y-99144500D01*
X126863993Y-99178940D01*
X126852511Y-99182017D01*
X126726988Y-99254488D01*
X126726982Y-99254493D01*
X126624493Y-99356982D01*
X126624488Y-99356988D01*
X126552017Y-99482511D01*
X126552016Y-99482515D01*
X126514500Y-99622525D01*
X121412000Y-99622525D01*
X121412000Y-98733525D01*
X124351500Y-98733525D01*
X124351500Y-98878475D01*
X124389016Y-99018485D01*
X124389017Y-99018488D01*
X124461488Y-99144011D01*
X124461490Y-99144013D01*
X124461491Y-99144015D01*
X124563985Y-99246509D01*
X124563986Y-99246510D01*
X124563988Y-99246511D01*
X124689511Y-99318982D01*
X124689512Y-99318982D01*
X124689515Y-99318984D01*
X124829525Y-99356500D01*
X124829528Y-99356500D01*
X124974472Y-99356500D01*
X124974475Y-99356500D01*
X125114485Y-99318984D01*
X125240015Y-99246509D01*
X125342509Y-99144015D01*
X125414984Y-99018485D01*
X125452500Y-98878475D01*
X125452500Y-98733525D01*
X125414984Y-98593515D01*
X125377447Y-98528500D01*
X125342511Y-98467988D01*
X125342506Y-98467982D01*
X125240017Y-98365493D01*
X125240011Y-98365488D01*
X125114488Y-98293017D01*
X125114489Y-98293017D01*
X125103006Y-98289940D01*
X124974475Y-98255500D01*
X124829525Y-98255500D01*
X124700993Y-98289940D01*
X124689511Y-98293017D01*
X124563988Y-98365488D01*
X124563982Y-98365493D01*
X124461493Y-98467982D01*
X124461488Y-98467988D01*
X124389017Y-98593511D01*
X124389016Y-98593515D01*
X124351500Y-98733525D01*
X121412000Y-98733525D01*
X121412000Y-96447525D01*
X122451500Y-96447525D01*
X122451500Y-96592475D01*
X122489016Y-96732485D01*
X122489017Y-96732488D01*
X122561488Y-96858011D01*
X122561490Y-96858013D01*
X122561491Y-96858015D01*
X122663985Y-96960509D01*
X122663986Y-96960510D01*
X122663988Y-96960511D01*
X122789511Y-97032982D01*
X122789512Y-97032982D01*
X122789515Y-97032984D01*
X122929525Y-97070500D01*
X122929528Y-97070500D01*
X123074472Y-97070500D01*
X123074475Y-97070500D01*
X123214485Y-97032984D01*
X123340015Y-96960509D01*
X123442509Y-96858015D01*
X123514984Y-96732485D01*
X123552500Y-96592475D01*
X123552500Y-96447525D01*
X123514984Y-96307515D01*
X123442509Y-96181985D01*
X123340015Y-96079491D01*
X123340013Y-96079490D01*
X123340011Y-96079488D01*
X123214488Y-96007017D01*
X123214489Y-96007017D01*
X123203006Y-96003940D01*
X123074475Y-95969500D01*
X122929525Y-95969500D01*
X122800993Y-96003940D01*
X122789511Y-96007017D01*
X122663988Y-96079488D01*
X122663982Y-96079493D01*
X122561493Y-96181982D01*
X122561488Y-96181988D01*
X122489017Y-96307511D01*
X122489016Y-96307515D01*
X122451500Y-96447525D01*
X121412000Y-96447525D01*
X121412000Y-94415525D01*
X122489000Y-94415525D01*
X122489000Y-94560475D01*
X122523029Y-94687472D01*
X122526517Y-94700488D01*
X122598988Y-94826011D01*
X122598990Y-94826013D01*
X122598991Y-94826015D01*
X122701485Y-94928509D01*
X122701486Y-94928510D01*
X122701488Y-94928511D01*
X122827011Y-95000982D01*
X122827012Y-95000982D01*
X122827015Y-95000984D01*
X122967025Y-95038500D01*
X122967028Y-95038500D01*
X123111972Y-95038500D01*
X123111975Y-95038500D01*
X123251985Y-95000984D01*
X123377515Y-94928509D01*
X123480009Y-94826015D01*
X123552484Y-94700485D01*
X123590000Y-94560475D01*
X123590000Y-94415525D01*
X123552484Y-94275515D01*
X123480009Y-94149985D01*
X123377515Y-94047491D01*
X123377513Y-94047490D01*
X123377511Y-94047488D01*
X123251988Y-93975017D01*
X123251989Y-93975017D01*
X123240506Y-93971940D01*
X123111975Y-93937500D01*
X122967025Y-93937500D01*
X122838493Y-93971940D01*
X122827011Y-93975017D01*
X122701488Y-94047488D01*
X122701482Y-94047493D01*
X122598993Y-94149982D01*
X122598988Y-94149988D01*
X122526517Y-94275511D01*
X122526516Y-94275515D01*
X122489000Y-94415525D01*
X121412000Y-94415525D01*
X121412000Y-93272525D01*
X126514500Y-93272525D01*
X126514500Y-93417475D01*
X126552016Y-93557485D01*
X126552017Y-93557488D01*
X126624488Y-93683011D01*
X126624490Y-93683013D01*
X126624491Y-93683015D01*
X126726985Y-93785509D01*
X126726986Y-93785510D01*
X126726988Y-93785511D01*
X126852511Y-93857982D01*
X126852512Y-93857982D01*
X126852515Y-93857984D01*
X126856386Y-93859021D01*
X126860881Y-93860226D01*
X126920541Y-93896591D01*
X126951069Y-93959439D01*
X126942774Y-94028814D01*
X126898288Y-94082691D01*
X126860881Y-94099774D01*
X126852516Y-94102015D01*
X126852511Y-94102017D01*
X126726988Y-94174488D01*
X126726982Y-94174493D01*
X126624493Y-94276982D01*
X126624488Y-94276988D01*
X126552017Y-94402511D01*
X126552016Y-94402515D01*
X126514500Y-94542525D01*
X126514500Y-94687475D01*
X126551621Y-94826011D01*
X126552017Y-94827488D01*
X126624488Y-94953011D01*
X126624490Y-94953013D01*
X126624491Y-94953015D01*
X126726985Y-95055509D01*
X126726986Y-95055510D01*
X126726988Y-95055511D01*
X126852511Y-95127982D01*
X126852512Y-95127982D01*
X126852515Y-95127984D01*
X126992525Y-95165500D01*
X126992528Y-95165500D01*
X127137472Y-95165500D01*
X127137475Y-95165500D01*
X127277485Y-95127984D01*
X127403015Y-95055509D01*
X127505509Y-94953015D01*
X127577984Y-94827485D01*
X127615500Y-94687475D01*
X127615500Y-94542525D01*
X127577984Y-94402515D01*
X127505509Y-94276985D01*
X127403015Y-94174491D01*
X127403013Y-94174490D01*
X127403011Y-94174488D01*
X127277487Y-94102017D01*
X127277486Y-94102016D01*
X127277485Y-94102016D01*
X127269118Y-94099774D01*
X127209459Y-94063410D01*
X127178930Y-94000563D01*
X127187225Y-93931188D01*
X127231710Y-93877310D01*
X127269117Y-93860226D01*
X127277485Y-93857984D01*
X127403015Y-93785509D01*
X127505509Y-93683015D01*
X127577984Y-93557485D01*
X127615500Y-93417475D01*
X127615500Y-93272525D01*
X127577984Y-93132515D01*
X127505509Y-93006985D01*
X127403015Y-92904491D01*
X127403013Y-92904490D01*
X127403011Y-92904488D01*
X127277488Y-92832017D01*
X127277489Y-92832017D01*
X127266006Y-92828940D01*
X127137475Y-92794500D01*
X126992525Y-92794500D01*
X126863993Y-92828940D01*
X126852511Y-92832017D01*
X126726988Y-92904488D01*
X126726982Y-92904493D01*
X126624493Y-93006982D01*
X126624488Y-93006988D01*
X126552017Y-93132511D01*
X126552016Y-93132515D01*
X126514500Y-93272525D01*
X121412000Y-93272525D01*
X121412000Y-92383525D01*
X124351500Y-92383525D01*
X124351500Y-92528475D01*
X124367446Y-92587984D01*
X124389017Y-92668488D01*
X124461488Y-92794011D01*
X124461490Y-92794013D01*
X124461491Y-92794015D01*
X124563985Y-92896509D01*
X124563986Y-92896510D01*
X124563988Y-92896511D01*
X124689511Y-92968982D01*
X124689512Y-92968982D01*
X124689515Y-92968984D01*
X124829525Y-93006500D01*
X124829528Y-93006500D01*
X124974472Y-93006500D01*
X124974475Y-93006500D01*
X125114485Y-92968984D01*
X125240015Y-92896509D01*
X125342509Y-92794015D01*
X125414984Y-92668485D01*
X125452500Y-92528475D01*
X125452500Y-92383525D01*
X125414984Y-92243515D01*
X125342509Y-92117985D01*
X125240015Y-92015491D01*
X125240013Y-92015490D01*
X125240011Y-92015488D01*
X125114488Y-91943017D01*
X125114489Y-91943017D01*
X125103006Y-91939940D01*
X124974475Y-91905500D01*
X124829525Y-91905500D01*
X124700993Y-91939940D01*
X124689511Y-91943017D01*
X124563988Y-92015488D01*
X124563982Y-92015493D01*
X124461493Y-92117982D01*
X124461488Y-92117988D01*
X124389017Y-92243511D01*
X124389016Y-92243515D01*
X124351500Y-92383525D01*
X121412000Y-92383525D01*
X121412000Y-84452000D01*
X121431685Y-84384961D01*
X121484489Y-84339206D01*
X121536000Y-84328000D01*
X129162000Y-84328000D01*
X129229039Y-84347685D01*
G37*
%TD.AperFunction*%
%TD*%
%TA.AperFunction,Conductor*%
%TO.N,+ISO_3.3V*%
G36*
X172307677Y-74187685D02*
G01*
X172328319Y-74204319D01*
X173469765Y-75345765D01*
X173503250Y-75407088D01*
X173498266Y-75476780D01*
X173456394Y-75532713D01*
X173414179Y-75553220D01*
X173345589Y-75571599D01*
X173345571Y-75571605D01*
X173103309Y-75671953D01*
X173103299Y-75671958D01*
X172876196Y-75803075D01*
X172668148Y-75962718D01*
X172482718Y-76148148D01*
X172323075Y-76356196D01*
X172191958Y-76583299D01*
X172191953Y-76583309D01*
X172091605Y-76825571D01*
X172091602Y-76825581D01*
X172034361Y-77039211D01*
X172023730Y-77078885D01*
X171989500Y-77338872D01*
X171989500Y-77601127D01*
X172013161Y-77780842D01*
X172023730Y-77861116D01*
X172073222Y-78045822D01*
X172091602Y-78114418D01*
X172091605Y-78114428D01*
X172191953Y-78356690D01*
X172191958Y-78356700D01*
X172323075Y-78583803D01*
X172482718Y-78791851D01*
X172482726Y-78791860D01*
X172668140Y-78977274D01*
X172668148Y-78977281D01*
X172876196Y-79136924D01*
X173103299Y-79268041D01*
X173103309Y-79268046D01*
X173345571Y-79368394D01*
X173345581Y-79368398D01*
X173598884Y-79436270D01*
X173858880Y-79470500D01*
X173858887Y-79470500D01*
X174121113Y-79470500D01*
X174121120Y-79470500D01*
X174381116Y-79436270D01*
X174634419Y-79368398D01*
X174876697Y-79268043D01*
X175103803Y-79136924D01*
X175311851Y-78977282D01*
X175311855Y-78977277D01*
X175311860Y-78977274D01*
X175497274Y-78791860D01*
X175497277Y-78791855D01*
X175497282Y-78791851D01*
X175656924Y-78583803D01*
X175788043Y-78356697D01*
X175888398Y-78114419D01*
X175906778Y-78045820D01*
X175943143Y-77986161D01*
X176005990Y-77955632D01*
X176075365Y-77963927D01*
X176114234Y-77990234D01*
X177255681Y-79131681D01*
X177289166Y-79193004D01*
X177292000Y-79219362D01*
X177292000Y-130076637D01*
X177272315Y-130143676D01*
X177255681Y-130164318D01*
X176047745Y-131372253D01*
X175986422Y-131405738D01*
X175916730Y-131400754D01*
X175860797Y-131358882D01*
X175845503Y-131332024D01*
X175788048Y-131193314D01*
X175788041Y-131193299D01*
X175656924Y-130966196D01*
X175497281Y-130758148D01*
X175497274Y-130758140D01*
X175311860Y-130572726D01*
X175311851Y-130572718D01*
X175103803Y-130413075D01*
X174876700Y-130281958D01*
X174876690Y-130281953D01*
X174634428Y-130181605D01*
X174634421Y-130181603D01*
X174634419Y-130181602D01*
X174381116Y-130113730D01*
X174323339Y-130106123D01*
X174121127Y-130079500D01*
X174121120Y-130079500D01*
X173858880Y-130079500D01*
X173858872Y-130079500D01*
X173627772Y-130109926D01*
X173598884Y-130113730D01*
X173371336Y-130174701D01*
X173345581Y-130181602D01*
X173345571Y-130181605D01*
X173103309Y-130281953D01*
X173103299Y-130281958D01*
X172876196Y-130413075D01*
X172668148Y-130572718D01*
X172482718Y-130758148D01*
X172323075Y-130966196D01*
X172191958Y-131193299D01*
X172191953Y-131193309D01*
X172091605Y-131435571D01*
X172091602Y-131435581D01*
X172023730Y-131688885D01*
X171989500Y-131948872D01*
X171989500Y-132211127D01*
X172008163Y-132352876D01*
X172023730Y-132471116D01*
X172075024Y-132662547D01*
X172091602Y-132724418D01*
X172091605Y-132724428D01*
X172191953Y-132966690D01*
X172191958Y-132966700D01*
X172323075Y-133193803D01*
X172482718Y-133401851D01*
X172482726Y-133401860D01*
X172668140Y-133587274D01*
X172668148Y-133587281D01*
X172876196Y-133746924D01*
X173103299Y-133878041D01*
X173103314Y-133878048D01*
X173153506Y-133898838D01*
X173242024Y-133935503D01*
X173296428Y-133979343D01*
X173318493Y-134045638D01*
X173301214Y-134113337D01*
X173282253Y-134137745D01*
X172328319Y-135091681D01*
X172266996Y-135125166D01*
X172240638Y-135128000D01*
X135252000Y-135128000D01*
X135184961Y-135108315D01*
X135139206Y-135055511D01*
X135128000Y-135004000D01*
X135128000Y-130757135D01*
X161479500Y-130757135D01*
X161479500Y-132352870D01*
X161479501Y-132352876D01*
X161485908Y-132412483D01*
X161536202Y-132547328D01*
X161536206Y-132547335D01*
X161622452Y-132662544D01*
X161622455Y-132662547D01*
X161737664Y-132748793D01*
X161737671Y-132748797D01*
X161872517Y-132799091D01*
X161872516Y-132799091D01*
X161879444Y-132799835D01*
X161932127Y-132805500D01*
X163227872Y-132805499D01*
X163287483Y-132799091D01*
X163422331Y-132748796D01*
X163537546Y-132662546D01*
X163623796Y-132547331D01*
X163674091Y-132412483D01*
X163680500Y-132352873D01*
X163680499Y-131318389D01*
X163979500Y-131318389D01*
X163979500Y-131791610D01*
X164004407Y-131948872D01*
X164006598Y-131962701D01*
X164060127Y-132127445D01*
X164138768Y-132281788D01*
X164240586Y-132421928D01*
X164363072Y-132544414D01*
X164503212Y-132646232D01*
X164657555Y-132724873D01*
X164822299Y-132778402D01*
X164993389Y-132805500D01*
X164993390Y-132805500D01*
X165166610Y-132805500D01*
X165166611Y-132805500D01*
X165337701Y-132778402D01*
X165502445Y-132724873D01*
X165656788Y-132646232D01*
X165796928Y-132544414D01*
X165919414Y-132421928D01*
X166021232Y-132281788D01*
X166099873Y-132127445D01*
X166153402Y-131962701D01*
X166180500Y-131791611D01*
X166180500Y-131318389D01*
X166153402Y-131147299D01*
X166099873Y-130982555D01*
X166021232Y-130828212D01*
X165919414Y-130688072D01*
X165796928Y-130565586D01*
X165656788Y-130463768D01*
X165564560Y-130416776D01*
X165502447Y-130385128D01*
X165502446Y-130385127D01*
X165502445Y-130385127D01*
X165337701Y-130331598D01*
X165337699Y-130331597D01*
X165337698Y-130331597D01*
X165206271Y-130310781D01*
X165166611Y-130304500D01*
X164993389Y-130304500D01*
X164953728Y-130310781D01*
X164822302Y-130331597D01*
X164657552Y-130385128D01*
X164503211Y-130463768D01*
X164423256Y-130521859D01*
X164363072Y-130565586D01*
X164363070Y-130565588D01*
X164363069Y-130565588D01*
X164240588Y-130688069D01*
X164240588Y-130688070D01*
X164240586Y-130688072D01*
X164233725Y-130697516D01*
X164138768Y-130828211D01*
X164060128Y-130982552D01*
X164006597Y-131147302D01*
X163979500Y-131318389D01*
X163680499Y-131318389D01*
X163680499Y-130757128D01*
X163674091Y-130697517D01*
X163670568Y-130688072D01*
X163623797Y-130562671D01*
X163623793Y-130562664D01*
X163537547Y-130447455D01*
X163537544Y-130447452D01*
X163422335Y-130361206D01*
X163422328Y-130361202D01*
X163287482Y-130310908D01*
X163287483Y-130310908D01*
X163227883Y-130304501D01*
X163227881Y-130304500D01*
X163227873Y-130304500D01*
X163227864Y-130304500D01*
X161932129Y-130304500D01*
X161932123Y-130304501D01*
X161872516Y-130310908D01*
X161737671Y-130361202D01*
X161737664Y-130361206D01*
X161622455Y-130447452D01*
X161622452Y-130447455D01*
X161536206Y-130562664D01*
X161536202Y-130562671D01*
X161485908Y-130697517D01*
X161479501Y-130757116D01*
X161479501Y-130757123D01*
X161479500Y-130757135D01*
X135128000Y-130757135D01*
X135128000Y-126750000D01*
X155403391Y-126750000D01*
X157046988Y-126750000D01*
X157014075Y-126807007D01*
X156980000Y-126934174D01*
X156980000Y-127065826D01*
X157014075Y-127192993D01*
X157046988Y-127250000D01*
X155403391Y-127250000D01*
X155412009Y-127304413D01*
X155475244Y-127499029D01*
X155568140Y-127681349D01*
X155688417Y-127846894D01*
X155688417Y-127846895D01*
X155833104Y-127991582D01*
X155998650Y-128111859D01*
X156180968Y-128204755D01*
X156375582Y-128267990D01*
X156533657Y-128293027D01*
X156596792Y-128322956D01*
X156633723Y-128382268D01*
X156632725Y-128452130D01*
X156594115Y-128510363D01*
X156530151Y-128538477D01*
X156514259Y-128539500D01*
X156075730Y-128539500D01*
X156045300Y-128542353D01*
X156045298Y-128542353D01*
X155917119Y-128587206D01*
X155917117Y-128587207D01*
X155807850Y-128667850D01*
X155727207Y-128777117D01*
X155727206Y-128777119D01*
X155682353Y-128905298D01*
X155682353Y-128905300D01*
X155679500Y-128935730D01*
X155679500Y-130144269D01*
X155682353Y-130174699D01*
X155682353Y-130174701D01*
X155719885Y-130281957D01*
X155727207Y-130302882D01*
X155807850Y-130412150D01*
X155917118Y-130492793D01*
X155959845Y-130507744D01*
X156045299Y-130537646D01*
X156075730Y-130540500D01*
X156075734Y-130540500D01*
X158284270Y-130540500D01*
X158314699Y-130537646D01*
X158314701Y-130537646D01*
X158378790Y-130515219D01*
X158442882Y-130492793D01*
X158552150Y-130412150D01*
X158632793Y-130302882D01*
X158658470Y-130229500D01*
X158677646Y-130174701D01*
X158677646Y-130174699D01*
X158680500Y-130144269D01*
X158680500Y-128935730D01*
X158677646Y-128905300D01*
X158677646Y-128905298D01*
X158632793Y-128777119D01*
X158632792Y-128777117D01*
X158552150Y-128667850D01*
X158442882Y-128587207D01*
X158442880Y-128587206D01*
X158314700Y-128542353D01*
X158284270Y-128539500D01*
X158284266Y-128539500D01*
X157845741Y-128539500D01*
X157778702Y-128519815D01*
X157732947Y-128467011D01*
X157723003Y-128397853D01*
X157752028Y-128334297D01*
X157810806Y-128296523D01*
X157826343Y-128293027D01*
X157984417Y-128267990D01*
X158179031Y-128204755D01*
X158361349Y-128111859D01*
X158526894Y-127991582D01*
X158526895Y-127991582D01*
X158671582Y-127846895D01*
X158671582Y-127846894D01*
X158791859Y-127681349D01*
X158884755Y-127499029D01*
X158947990Y-127304413D01*
X158956609Y-127250000D01*
X157913012Y-127250000D01*
X157945925Y-127192993D01*
X157980000Y-127065826D01*
X157980000Y-126934174D01*
X157945925Y-126807007D01*
X157913012Y-126750000D01*
X158956609Y-126750000D01*
X158947990Y-126695586D01*
X158884755Y-126500970D01*
X158791859Y-126318650D01*
X158671582Y-126153105D01*
X158671582Y-126153104D01*
X158526895Y-126008417D01*
X158361349Y-125888140D01*
X158179031Y-125795244D01*
X157984417Y-125732009D01*
X157795731Y-125702124D01*
X157732596Y-125672194D01*
X157695665Y-125612883D01*
X157696663Y-125543020D01*
X157735273Y-125484788D01*
X157790938Y-125458034D01*
X157971835Y-125422051D01*
X158153914Y-125346632D01*
X158317782Y-125237139D01*
X158457139Y-125097782D01*
X158566632Y-124933914D01*
X158642051Y-124751835D01*
X158680500Y-124558541D01*
X158680500Y-124361459D01*
X158680500Y-124361456D01*
X158642052Y-124168170D01*
X158642051Y-124168169D01*
X158642051Y-124168165D01*
X158609135Y-124088697D01*
X158566635Y-123986092D01*
X158566628Y-123986079D01*
X158457139Y-123822218D01*
X158457136Y-123822214D01*
X158317785Y-123682863D01*
X158317781Y-123682860D01*
X158153920Y-123573371D01*
X158153907Y-123573364D01*
X157971839Y-123497950D01*
X157971829Y-123497947D01*
X157778543Y-123459500D01*
X157778541Y-123459500D01*
X156581459Y-123459500D01*
X156581457Y-123459500D01*
X156388170Y-123497947D01*
X156388160Y-123497950D01*
X156206092Y-123573364D01*
X156206079Y-123573371D01*
X156042218Y-123682860D01*
X156042214Y-123682863D01*
X155902863Y-123822214D01*
X155902860Y-123822218D01*
X155793371Y-123986079D01*
X155793364Y-123986092D01*
X155717950Y-124168160D01*
X155717947Y-124168170D01*
X155679500Y-124361456D01*
X155679500Y-124361459D01*
X155679500Y-124558541D01*
X155679500Y-124558543D01*
X155679499Y-124558543D01*
X155717947Y-124751829D01*
X155717950Y-124751839D01*
X155793364Y-124933907D01*
X155793371Y-124933920D01*
X155902860Y-125097781D01*
X155902863Y-125097785D01*
X156042214Y-125237136D01*
X156042218Y-125237139D01*
X156206079Y-125346628D01*
X156206092Y-125346635D01*
X156351729Y-125406959D01*
X156388165Y-125422051D01*
X156520674Y-125448409D01*
X156569061Y-125458034D01*
X156630972Y-125490419D01*
X156665546Y-125551134D01*
X156661807Y-125620904D01*
X156620940Y-125677576D01*
X156564269Y-125702124D01*
X156375581Y-125732010D01*
X156180968Y-125795244D01*
X155998650Y-125888140D01*
X155833105Y-126008417D01*
X155833104Y-126008417D01*
X155688417Y-126153104D01*
X155688417Y-126153105D01*
X155568140Y-126318650D01*
X155475244Y-126500970D01*
X155412009Y-126695586D01*
X155403391Y-126750000D01*
X135128000Y-126750000D01*
X135128000Y-122018543D01*
X155679499Y-122018543D01*
X155717947Y-122211829D01*
X155717950Y-122211839D01*
X155793364Y-122393907D01*
X155793371Y-122393920D01*
X155902860Y-122557781D01*
X155902863Y-122557785D01*
X156042214Y-122697136D01*
X156042218Y-122697139D01*
X156206079Y-122806628D01*
X156206092Y-122806635D01*
X156388160Y-122882049D01*
X156388165Y-122882051D01*
X156388169Y-122882051D01*
X156388170Y-122882052D01*
X156581456Y-122920500D01*
X156581459Y-122920500D01*
X157778543Y-122920500D01*
X157966385Y-122883135D01*
X161479500Y-122883135D01*
X161479500Y-124478870D01*
X161479501Y-124478876D01*
X161485908Y-124538483D01*
X161536202Y-124673328D01*
X161536206Y-124673335D01*
X161622452Y-124788544D01*
X161622455Y-124788547D01*
X161737664Y-124874793D01*
X161737671Y-124874797D01*
X161872517Y-124925091D01*
X161872516Y-124925091D01*
X161879444Y-124925835D01*
X161932127Y-124931500D01*
X163227872Y-124931499D01*
X163287483Y-124925091D01*
X163422331Y-124874796D01*
X163537546Y-124788546D01*
X163623796Y-124673331D01*
X163674091Y-124538483D01*
X163680500Y-124478873D01*
X163680499Y-123444389D01*
X163979500Y-123444389D01*
X163979500Y-123917611D01*
X164006598Y-124088701D01*
X164060127Y-124253445D01*
X164138768Y-124407788D01*
X164240586Y-124547928D01*
X164363072Y-124670414D01*
X164503212Y-124772232D01*
X164657555Y-124850873D01*
X164822299Y-124904402D01*
X164993389Y-124931500D01*
X164993390Y-124931500D01*
X165166610Y-124931500D01*
X165166611Y-124931500D01*
X165337701Y-124904402D01*
X165502445Y-124850873D01*
X165656788Y-124772232D01*
X165796928Y-124670414D01*
X165919414Y-124547928D01*
X166021232Y-124407788D01*
X166099873Y-124253445D01*
X166153402Y-124088701D01*
X166180500Y-123917611D01*
X166180500Y-123444389D01*
X166153402Y-123273299D01*
X166099873Y-123108555D01*
X166021232Y-122954212D01*
X165919414Y-122814072D01*
X165796928Y-122691586D01*
X165656788Y-122589768D01*
X165502445Y-122511127D01*
X165337701Y-122457598D01*
X165337699Y-122457597D01*
X165337698Y-122457597D01*
X165206271Y-122436781D01*
X165166611Y-122430500D01*
X164993389Y-122430500D01*
X164953728Y-122436781D01*
X164822302Y-122457597D01*
X164657552Y-122511128D01*
X164503211Y-122589768D01*
X164423256Y-122647859D01*
X164363072Y-122691586D01*
X164363070Y-122691588D01*
X164363069Y-122691588D01*
X164240588Y-122814069D01*
X164240588Y-122814070D01*
X164240586Y-122814072D01*
X164233725Y-122823516D01*
X164138768Y-122954211D01*
X164060128Y-123108552D01*
X164006597Y-123273302D01*
X163979500Y-123444389D01*
X163680499Y-123444389D01*
X163680499Y-122883128D01*
X163674091Y-122823517D01*
X163670568Y-122814072D01*
X163623797Y-122688671D01*
X163623793Y-122688664D01*
X163537547Y-122573455D01*
X163537544Y-122573452D01*
X163422335Y-122487206D01*
X163422328Y-122487202D01*
X163287482Y-122436908D01*
X163287483Y-122436908D01*
X163227883Y-122430501D01*
X163227881Y-122430500D01*
X163227873Y-122430500D01*
X163227864Y-122430500D01*
X161932129Y-122430500D01*
X161932123Y-122430501D01*
X161872516Y-122436908D01*
X161737671Y-122487202D01*
X161737664Y-122487206D01*
X161622455Y-122573452D01*
X161622452Y-122573455D01*
X161536206Y-122688664D01*
X161536202Y-122688671D01*
X161485908Y-122823517D01*
X161479501Y-122883116D01*
X161479501Y-122883123D01*
X161479500Y-122883135D01*
X157966385Y-122883135D01*
X157971835Y-122882051D01*
X158153914Y-122806632D01*
X158153920Y-122806628D01*
X158198705Y-122776704D01*
X158240611Y-122748702D01*
X158317782Y-122697139D01*
X158457139Y-122557782D01*
X158566632Y-122393914D01*
X158642051Y-122211835D01*
X158680500Y-122018541D01*
X158680500Y-121821459D01*
X158680500Y-121821456D01*
X158642052Y-121628170D01*
X158642051Y-121628169D01*
X158642051Y-121628165D01*
X158642049Y-121628160D01*
X158566635Y-121446092D01*
X158566628Y-121446079D01*
X158457139Y-121282218D01*
X158457136Y-121282214D01*
X158317785Y-121142863D01*
X158317781Y-121142860D01*
X158153920Y-121033371D01*
X158153907Y-121033364D01*
X157971839Y-120957950D01*
X157971829Y-120957947D01*
X157778543Y-120919500D01*
X157778541Y-120919500D01*
X156581459Y-120919500D01*
X156581457Y-120919500D01*
X156388170Y-120957947D01*
X156388160Y-120957950D01*
X156206092Y-121033364D01*
X156206079Y-121033371D01*
X156042218Y-121142860D01*
X156042214Y-121142863D01*
X155902863Y-121282214D01*
X155902860Y-121282218D01*
X155793371Y-121446079D01*
X155793364Y-121446092D01*
X155717950Y-121628160D01*
X155717947Y-121628170D01*
X155679500Y-121821456D01*
X155679500Y-121821459D01*
X155679500Y-122018541D01*
X155679500Y-122018543D01*
X155679499Y-122018543D01*
X135128000Y-122018543D01*
X135128000Y-119478543D01*
X135959499Y-119478543D01*
X135997947Y-119671829D01*
X135997950Y-119671839D01*
X136073364Y-119853907D01*
X136073371Y-119853920D01*
X136182860Y-120017781D01*
X136182863Y-120017785D01*
X136322214Y-120157136D01*
X136322218Y-120157139D01*
X136486079Y-120266628D01*
X136486092Y-120266635D01*
X136668160Y-120342049D01*
X136668165Y-120342051D01*
X136668169Y-120342051D01*
X136668170Y-120342052D01*
X136861456Y-120380500D01*
X136861459Y-120380500D01*
X138058543Y-120380500D01*
X138188582Y-120354632D01*
X138251835Y-120342051D01*
X138433914Y-120266632D01*
X138597782Y-120157139D01*
X138737139Y-120017782D01*
X138846632Y-119853914D01*
X138922051Y-119671835D01*
X138960500Y-119478543D01*
X155679499Y-119478543D01*
X155717947Y-119671829D01*
X155717950Y-119671839D01*
X155793364Y-119853907D01*
X155793371Y-119853920D01*
X155902860Y-120017781D01*
X155902863Y-120017785D01*
X156042214Y-120157136D01*
X156042218Y-120157139D01*
X156206079Y-120266628D01*
X156206092Y-120266635D01*
X156388160Y-120342049D01*
X156388165Y-120342051D01*
X156388169Y-120342051D01*
X156388170Y-120342052D01*
X156581456Y-120380500D01*
X156581459Y-120380500D01*
X157778543Y-120380500D01*
X157908582Y-120354632D01*
X157971835Y-120342051D01*
X158153914Y-120266632D01*
X158317782Y-120157139D01*
X158457139Y-120017782D01*
X158566632Y-119853914D01*
X158642051Y-119671835D01*
X158680500Y-119478541D01*
X158680500Y-119281459D01*
X158680500Y-119281456D01*
X158642052Y-119088170D01*
X158642051Y-119088169D01*
X158642051Y-119088165D01*
X158642049Y-119088160D01*
X158566635Y-118906092D01*
X158566628Y-118906079D01*
X158457139Y-118742218D01*
X158457136Y-118742214D01*
X158317785Y-118602863D01*
X158317781Y-118602860D01*
X158153920Y-118493371D01*
X158153907Y-118493364D01*
X157971839Y-118417950D01*
X157971829Y-118417947D01*
X157778543Y-118379500D01*
X157778541Y-118379500D01*
X156581459Y-118379500D01*
X156581457Y-118379500D01*
X156388170Y-118417947D01*
X156388160Y-118417950D01*
X156206092Y-118493364D01*
X156206079Y-118493371D01*
X156042218Y-118602860D01*
X156042214Y-118602863D01*
X155902863Y-118742214D01*
X155902860Y-118742218D01*
X155793371Y-118906079D01*
X155793364Y-118906092D01*
X155717950Y-119088160D01*
X155717947Y-119088170D01*
X155679500Y-119281456D01*
X155679500Y-119281459D01*
X155679500Y-119478541D01*
X155679500Y-119478543D01*
X155679499Y-119478543D01*
X138960500Y-119478543D01*
X138960500Y-119478541D01*
X138960500Y-119281459D01*
X138960500Y-119281456D01*
X138922052Y-119088170D01*
X138922051Y-119088169D01*
X138922051Y-119088165D01*
X138922049Y-119088160D01*
X138846635Y-118906092D01*
X138846628Y-118906079D01*
X138737139Y-118742218D01*
X138737136Y-118742214D01*
X138597785Y-118602863D01*
X138597781Y-118602860D01*
X138433920Y-118493371D01*
X138433907Y-118493364D01*
X138251839Y-118417950D01*
X138251829Y-118417947D01*
X138058543Y-118379500D01*
X138058541Y-118379500D01*
X136861459Y-118379500D01*
X136861457Y-118379500D01*
X136668170Y-118417947D01*
X136668160Y-118417950D01*
X136486092Y-118493364D01*
X136486079Y-118493371D01*
X136322218Y-118602860D01*
X136322214Y-118602863D01*
X136182863Y-118742214D01*
X136182860Y-118742218D01*
X136073371Y-118906079D01*
X136073364Y-118906092D01*
X135997950Y-119088160D01*
X135997947Y-119088170D01*
X135959500Y-119281456D01*
X135959500Y-119281459D01*
X135959500Y-119478541D01*
X135959500Y-119478543D01*
X135959499Y-119478543D01*
X135128000Y-119478543D01*
X135128000Y-117856000D01*
X129918000Y-117856000D01*
X129850961Y-117836315D01*
X129805206Y-117783511D01*
X129794000Y-117732000D01*
X129794000Y-116955525D01*
X134069500Y-116955525D01*
X134069500Y-117100475D01*
X134107016Y-117240485D01*
X134107017Y-117240488D01*
X134179488Y-117366011D01*
X134179490Y-117366013D01*
X134179491Y-117366015D01*
X134281985Y-117468509D01*
X134281986Y-117468510D01*
X134281988Y-117468511D01*
X134407511Y-117540982D01*
X134407512Y-117540982D01*
X134407515Y-117540984D01*
X134547525Y-117578500D01*
X134547528Y-117578500D01*
X134692472Y-117578500D01*
X134692475Y-117578500D01*
X134832485Y-117540984D01*
X134958015Y-117468509D01*
X135060509Y-117366015D01*
X135132984Y-117240485D01*
X135170500Y-117100475D01*
X135170500Y-116955525D01*
X135165950Y-116938543D01*
X135959499Y-116938543D01*
X135997947Y-117131829D01*
X135997950Y-117131839D01*
X136073364Y-117313907D01*
X136073371Y-117313920D01*
X136182860Y-117477781D01*
X136182863Y-117477785D01*
X136322214Y-117617136D01*
X136322218Y-117617139D01*
X136486079Y-117726628D01*
X136486092Y-117726635D01*
X136623405Y-117783511D01*
X136668165Y-117802051D01*
X136668169Y-117802051D01*
X136668170Y-117802052D01*
X136861456Y-117840500D01*
X136861459Y-117840500D01*
X138058543Y-117840500D01*
X138188582Y-117814632D01*
X138251835Y-117802051D01*
X138392655Y-117743721D01*
X138433907Y-117726635D01*
X138433907Y-117726634D01*
X138433914Y-117726632D01*
X138597782Y-117617139D01*
X138737139Y-117477782D01*
X138846632Y-117313914D01*
X138922051Y-117131835D01*
X138943085Y-117026091D01*
X138960500Y-116938543D01*
X155679499Y-116938543D01*
X155717947Y-117131829D01*
X155717950Y-117131839D01*
X155793364Y-117313907D01*
X155793371Y-117313920D01*
X155902860Y-117477781D01*
X155902863Y-117477785D01*
X156042214Y-117617136D01*
X156042218Y-117617139D01*
X156206079Y-117726628D01*
X156206092Y-117726635D01*
X156343405Y-117783511D01*
X156388165Y-117802051D01*
X156388169Y-117802051D01*
X156388170Y-117802052D01*
X156581456Y-117840500D01*
X156581459Y-117840500D01*
X157778543Y-117840500D01*
X157908582Y-117814632D01*
X157971835Y-117802051D01*
X158112655Y-117743721D01*
X158153907Y-117726635D01*
X158153907Y-117726634D01*
X158153914Y-117726632D01*
X158317782Y-117617139D01*
X158457139Y-117477782D01*
X158566632Y-117313914D01*
X158642051Y-117131835D01*
X158663085Y-117026091D01*
X158680500Y-116938543D01*
X158680500Y-116741456D01*
X158642052Y-116548170D01*
X158642051Y-116548169D01*
X158642051Y-116548165D01*
X158587313Y-116416015D01*
X158566635Y-116366092D01*
X158566628Y-116366079D01*
X158457139Y-116202218D01*
X158457136Y-116202214D01*
X158317785Y-116062863D01*
X158317781Y-116062860D01*
X158153920Y-115953371D01*
X158153907Y-115953364D01*
X157971839Y-115877950D01*
X157971829Y-115877947D01*
X157778543Y-115839500D01*
X157778541Y-115839500D01*
X156581459Y-115839500D01*
X156581457Y-115839500D01*
X156388170Y-115877947D01*
X156388160Y-115877950D01*
X156206092Y-115953364D01*
X156206079Y-115953371D01*
X156042218Y-116062860D01*
X156042214Y-116062863D01*
X155902863Y-116202214D01*
X155902860Y-116202218D01*
X155793371Y-116366079D01*
X155793364Y-116366092D01*
X155717950Y-116548160D01*
X155717947Y-116548170D01*
X155679500Y-116741456D01*
X155679500Y-116741459D01*
X155679500Y-116938541D01*
X155679500Y-116938543D01*
X155679499Y-116938543D01*
X138960500Y-116938543D01*
X138960500Y-116741456D01*
X138922052Y-116548170D01*
X138922051Y-116548169D01*
X138922051Y-116548165D01*
X138867313Y-116416015D01*
X138846635Y-116366092D01*
X138846628Y-116366079D01*
X138737139Y-116202218D01*
X138737136Y-116202214D01*
X138597785Y-116062863D01*
X138597781Y-116062860D01*
X138433920Y-115953371D01*
X138433907Y-115953364D01*
X138251839Y-115877950D01*
X138251829Y-115877947D01*
X138058543Y-115839500D01*
X138058541Y-115839500D01*
X136861459Y-115839500D01*
X136861457Y-115839500D01*
X136668170Y-115877947D01*
X136668160Y-115877950D01*
X136486092Y-115953364D01*
X136486079Y-115953371D01*
X136322218Y-116062860D01*
X136322214Y-116062863D01*
X136182863Y-116202214D01*
X136182860Y-116202218D01*
X136073371Y-116366079D01*
X136073364Y-116366092D01*
X135997950Y-116548160D01*
X135997947Y-116548170D01*
X135959500Y-116741456D01*
X135959500Y-116741459D01*
X135959500Y-116938541D01*
X135959500Y-116938543D01*
X135959499Y-116938543D01*
X135165950Y-116938543D01*
X135132984Y-116815515D01*
X135132982Y-116815511D01*
X135122508Y-116797369D01*
X135122507Y-116797368D01*
X135107520Y-116771411D01*
X135060509Y-116689985D01*
X134958015Y-116587491D01*
X134958013Y-116587490D01*
X134958011Y-116587488D01*
X134832488Y-116515017D01*
X134832489Y-116515017D01*
X134809242Y-116508788D01*
X134692475Y-116477500D01*
X134547525Y-116477500D01*
X134430758Y-116508788D01*
X134407511Y-116515017D01*
X134281988Y-116587488D01*
X134281982Y-116587493D01*
X134179493Y-116689982D01*
X134179488Y-116689988D01*
X134107017Y-116815511D01*
X134107016Y-116815515D01*
X134069500Y-116955525D01*
X129794000Y-116955525D01*
X129794000Y-114398543D01*
X135959499Y-114398543D01*
X135997947Y-114591829D01*
X135997950Y-114591839D01*
X136073364Y-114773907D01*
X136073371Y-114773920D01*
X136182860Y-114937781D01*
X136182863Y-114937785D01*
X136322214Y-115077136D01*
X136322218Y-115077139D01*
X136486079Y-115186628D01*
X136486092Y-115186635D01*
X136662132Y-115259552D01*
X136668165Y-115262051D01*
X136668169Y-115262051D01*
X136668170Y-115262052D01*
X136861456Y-115300500D01*
X136861459Y-115300500D01*
X138058543Y-115300500D01*
X138188582Y-115274632D01*
X138251835Y-115262051D01*
X138433914Y-115186632D01*
X138597782Y-115077139D01*
X138737139Y-114937782D01*
X138846632Y-114773914D01*
X138922051Y-114591835D01*
X138960500Y-114398543D01*
X155679499Y-114398543D01*
X155717947Y-114591829D01*
X155717950Y-114591839D01*
X155793364Y-114773907D01*
X155793371Y-114773920D01*
X155902860Y-114937781D01*
X155902863Y-114937785D01*
X156042214Y-115077136D01*
X156042218Y-115077139D01*
X156206079Y-115186628D01*
X156206092Y-115186635D01*
X156382132Y-115259552D01*
X156388165Y-115262051D01*
X156388169Y-115262051D01*
X156388170Y-115262052D01*
X156581456Y-115300500D01*
X156581459Y-115300500D01*
X157778543Y-115300500D01*
X157908582Y-115274632D01*
X157971835Y-115262051D01*
X158153914Y-115186632D01*
X158317782Y-115077139D01*
X158360786Y-115034135D01*
X161519500Y-115034135D01*
X161519500Y-116579870D01*
X161519501Y-116579876D01*
X161525908Y-116639483D01*
X161576202Y-116774328D01*
X161576206Y-116774335D01*
X161662452Y-116889544D01*
X161662455Y-116889547D01*
X161777664Y-116975793D01*
X161777671Y-116975797D01*
X161912517Y-117026091D01*
X161912516Y-117026091D01*
X161919444Y-117026835D01*
X161972127Y-117032500D01*
X163267872Y-117032499D01*
X163327483Y-117026091D01*
X163462331Y-116975796D01*
X163577546Y-116889546D01*
X163663796Y-116774331D01*
X163714091Y-116639483D01*
X163720500Y-116579873D01*
X163720499Y-115595389D01*
X164019500Y-115595389D01*
X164019500Y-116018610D01*
X164040384Y-116150472D01*
X164046598Y-116189701D01*
X164100127Y-116354445D01*
X164178768Y-116508788D01*
X164280586Y-116648928D01*
X164403072Y-116771414D01*
X164543212Y-116873232D01*
X164697555Y-116951873D01*
X164862299Y-117005402D01*
X165033389Y-117032500D01*
X165033390Y-117032500D01*
X165206610Y-117032500D01*
X165206611Y-117032500D01*
X165377701Y-117005402D01*
X165542445Y-116951873D01*
X165696788Y-116873232D01*
X165836928Y-116771414D01*
X165959414Y-116648928D01*
X166061232Y-116508788D01*
X166139873Y-116354445D01*
X166193402Y-116189701D01*
X166220500Y-116018611D01*
X166220500Y-115595389D01*
X166519500Y-115595389D01*
X166519500Y-116018610D01*
X166540384Y-116150472D01*
X166546598Y-116189701D01*
X166600127Y-116354445D01*
X166678768Y-116508788D01*
X166780586Y-116648928D01*
X166903072Y-116771414D01*
X167043212Y-116873232D01*
X167197555Y-116951873D01*
X167362299Y-117005402D01*
X167533389Y-117032500D01*
X167533390Y-117032500D01*
X167706610Y-117032500D01*
X167706611Y-117032500D01*
X167877701Y-117005402D01*
X168042445Y-116951873D01*
X168196788Y-116873232D01*
X168336928Y-116771414D01*
X168459414Y-116648928D01*
X168561232Y-116508788D01*
X168639873Y-116354445D01*
X168693402Y-116189701D01*
X168720500Y-116018611D01*
X168720500Y-115595389D01*
X169019500Y-115595389D01*
X169019500Y-116018610D01*
X169040384Y-116150472D01*
X169046598Y-116189701D01*
X169100127Y-116354445D01*
X169178768Y-116508788D01*
X169280586Y-116648928D01*
X169403072Y-116771414D01*
X169543212Y-116873232D01*
X169697555Y-116951873D01*
X169862299Y-117005402D01*
X170033389Y-117032500D01*
X170033390Y-117032500D01*
X170206610Y-117032500D01*
X170206611Y-117032500D01*
X170377701Y-117005402D01*
X170542445Y-116951873D01*
X170696788Y-116873232D01*
X170836928Y-116771414D01*
X170959414Y-116648928D01*
X171061232Y-116508788D01*
X171139873Y-116354445D01*
X171193402Y-116189701D01*
X171220500Y-116018611D01*
X171220500Y-116005525D01*
X175528719Y-116005525D01*
X175528719Y-116150475D01*
X175539229Y-116189697D01*
X175566236Y-116290488D01*
X175638707Y-116416011D01*
X175638709Y-116416013D01*
X175638710Y-116416015D01*
X175741204Y-116518509D01*
X175741205Y-116518510D01*
X175741207Y-116518511D01*
X175866730Y-116590982D01*
X175866731Y-116590982D01*
X175866734Y-116590984D01*
X176006744Y-116628500D01*
X176006747Y-116628500D01*
X176151691Y-116628500D01*
X176151694Y-116628500D01*
X176291704Y-116590984D01*
X176417234Y-116518509D01*
X176519728Y-116416015D01*
X176592203Y-116290485D01*
X176629719Y-116150475D01*
X176629719Y-116005525D01*
X176592203Y-115865515D01*
X176519728Y-115739985D01*
X176417234Y-115637491D01*
X176417232Y-115637490D01*
X176417230Y-115637488D01*
X176291707Y-115565017D01*
X176291708Y-115565017D01*
X176280225Y-115561940D01*
X176151694Y-115527500D01*
X176006744Y-115527500D01*
X175878212Y-115561940D01*
X175866730Y-115565017D01*
X175741207Y-115637488D01*
X175741201Y-115637493D01*
X175638712Y-115739982D01*
X175638707Y-115739988D01*
X175566236Y-115865511D01*
X175566235Y-115865515D01*
X175528719Y-116005525D01*
X171220500Y-116005525D01*
X171220500Y-115595389D01*
X171193402Y-115424299D01*
X171139873Y-115259555D01*
X171061232Y-115105212D01*
X170959414Y-114965072D01*
X170836928Y-114842586D01*
X170696788Y-114740768D01*
X170542445Y-114662127D01*
X170377701Y-114608598D01*
X170377699Y-114608597D01*
X170377698Y-114608597D01*
X170246271Y-114587781D01*
X170206611Y-114581500D01*
X170033389Y-114581500D01*
X169993728Y-114587781D01*
X169862302Y-114608597D01*
X169697552Y-114662128D01*
X169543211Y-114740768D01*
X169497582Y-114773920D01*
X169403072Y-114842586D01*
X169403070Y-114842588D01*
X169403069Y-114842588D01*
X169280588Y-114965069D01*
X169280588Y-114965070D01*
X169280586Y-114965072D01*
X169273725Y-114974516D01*
X169178768Y-115105211D01*
X169100128Y-115259552D01*
X169046597Y-115424302D01*
X169019500Y-115595389D01*
X168720500Y-115595389D01*
X168693402Y-115424299D01*
X168639873Y-115259555D01*
X168561232Y-115105212D01*
X168459414Y-114965072D01*
X168336928Y-114842586D01*
X168196788Y-114740768D01*
X168042445Y-114662127D01*
X167877701Y-114608598D01*
X167877699Y-114608597D01*
X167877698Y-114608597D01*
X167746271Y-114587781D01*
X167706611Y-114581500D01*
X167533389Y-114581500D01*
X167493728Y-114587781D01*
X167362302Y-114608597D01*
X167197552Y-114662128D01*
X167043211Y-114740768D01*
X166997582Y-114773920D01*
X166903072Y-114842586D01*
X166903070Y-114842588D01*
X166903069Y-114842588D01*
X166780588Y-114965069D01*
X166780588Y-114965070D01*
X166780586Y-114965072D01*
X166773725Y-114974516D01*
X166678768Y-115105211D01*
X166600128Y-115259552D01*
X166546597Y-115424302D01*
X166519500Y-115595389D01*
X166220500Y-115595389D01*
X166193402Y-115424299D01*
X166139873Y-115259555D01*
X166061232Y-115105212D01*
X165959414Y-114965072D01*
X165836928Y-114842586D01*
X165696788Y-114740768D01*
X165542445Y-114662127D01*
X165377701Y-114608598D01*
X165377699Y-114608597D01*
X165377698Y-114608597D01*
X165246271Y-114587781D01*
X165206611Y-114581500D01*
X165033389Y-114581500D01*
X164993728Y-114587781D01*
X164862302Y-114608597D01*
X164697552Y-114662128D01*
X164543211Y-114740768D01*
X164497582Y-114773920D01*
X164403072Y-114842586D01*
X164403070Y-114842588D01*
X164403069Y-114842588D01*
X164280588Y-114965069D01*
X164280588Y-114965070D01*
X164280586Y-114965072D01*
X164273725Y-114974516D01*
X164178768Y-115105211D01*
X164100128Y-115259552D01*
X164046597Y-115424302D01*
X164019500Y-115595389D01*
X163720499Y-115595389D01*
X163720499Y-115034128D01*
X163714091Y-114974517D01*
X163710568Y-114965072D01*
X163663797Y-114839671D01*
X163663793Y-114839664D01*
X163577547Y-114724455D01*
X163577544Y-114724452D01*
X163462335Y-114638206D01*
X163462328Y-114638202D01*
X163327482Y-114587908D01*
X163327483Y-114587908D01*
X163267883Y-114581501D01*
X163267881Y-114581500D01*
X163267873Y-114581500D01*
X163267864Y-114581500D01*
X161972129Y-114581500D01*
X161972123Y-114581501D01*
X161912516Y-114587908D01*
X161777671Y-114638202D01*
X161777664Y-114638206D01*
X161662455Y-114724452D01*
X161662452Y-114724455D01*
X161576206Y-114839664D01*
X161576202Y-114839671D01*
X161525908Y-114974517D01*
X161519501Y-115034116D01*
X161519501Y-115034123D01*
X161519500Y-115034135D01*
X158360786Y-115034135D01*
X158360805Y-115034116D01*
X158451797Y-114943125D01*
X158457136Y-114937785D01*
X158457139Y-114937782D01*
X158566632Y-114773914D01*
X158642051Y-114591835D01*
X158680500Y-114398541D01*
X158680500Y-114201459D01*
X158680500Y-114201456D01*
X158642052Y-114008170D01*
X158642051Y-114008169D01*
X158642051Y-114008165D01*
X158642049Y-114008160D01*
X158566635Y-113826092D01*
X158566628Y-113826079D01*
X158457139Y-113662218D01*
X158457136Y-113662214D01*
X158317785Y-113522863D01*
X158317781Y-113522860D01*
X158153920Y-113413371D01*
X158153907Y-113413364D01*
X157971839Y-113337950D01*
X157971829Y-113337947D01*
X157778543Y-113299500D01*
X157778541Y-113299500D01*
X156581459Y-113299500D01*
X156581457Y-113299500D01*
X156388170Y-113337947D01*
X156388160Y-113337950D01*
X156206092Y-113413364D01*
X156206079Y-113413371D01*
X156042218Y-113522860D01*
X156042214Y-113522863D01*
X155902863Y-113662214D01*
X155902860Y-113662218D01*
X155793371Y-113826079D01*
X155793364Y-113826092D01*
X155717950Y-114008160D01*
X155717947Y-114008170D01*
X155679500Y-114201456D01*
X155679500Y-114201459D01*
X155679500Y-114398541D01*
X155679500Y-114398543D01*
X155679499Y-114398543D01*
X138960500Y-114398543D01*
X138960500Y-114398541D01*
X138960500Y-114201459D01*
X138960500Y-114201456D01*
X138922052Y-114008170D01*
X138922051Y-114008169D01*
X138922051Y-114008165D01*
X138922049Y-114008160D01*
X138846635Y-113826092D01*
X138846628Y-113826079D01*
X138737139Y-113662218D01*
X138737136Y-113662214D01*
X138597785Y-113522863D01*
X138597781Y-113522860D01*
X138433920Y-113413371D01*
X138433907Y-113413364D01*
X138251839Y-113337950D01*
X138251829Y-113337947D01*
X138058543Y-113299500D01*
X138058541Y-113299500D01*
X136861459Y-113299500D01*
X136861457Y-113299500D01*
X136668170Y-113337947D01*
X136668160Y-113337950D01*
X136486092Y-113413364D01*
X136486079Y-113413371D01*
X136322218Y-113522860D01*
X136322214Y-113522863D01*
X136182863Y-113662214D01*
X136182860Y-113662218D01*
X136073371Y-113826079D01*
X136073364Y-113826092D01*
X135997950Y-114008160D01*
X135997947Y-114008170D01*
X135959500Y-114201456D01*
X135959500Y-114201459D01*
X135959500Y-114398541D01*
X135959500Y-114398543D01*
X135959499Y-114398543D01*
X129794000Y-114398543D01*
X129794000Y-111858543D01*
X135959499Y-111858543D01*
X135997947Y-112051829D01*
X135997950Y-112051839D01*
X136073364Y-112233907D01*
X136073371Y-112233920D01*
X136182860Y-112397781D01*
X136182863Y-112397785D01*
X136322214Y-112537136D01*
X136322218Y-112537139D01*
X136486079Y-112646628D01*
X136486092Y-112646635D01*
X136668160Y-112722049D01*
X136668165Y-112722051D01*
X136668169Y-112722051D01*
X136668170Y-112722052D01*
X136861456Y-112760500D01*
X136861459Y-112760500D01*
X138058543Y-112760500D01*
X138188582Y-112734632D01*
X138251835Y-112722051D01*
X138433914Y-112646632D01*
X138597782Y-112537139D01*
X138737139Y-112397782D01*
X138846632Y-112233914D01*
X138922051Y-112051835D01*
X138960500Y-111858543D01*
X155679499Y-111858543D01*
X155717947Y-112051829D01*
X155717950Y-112051839D01*
X155793364Y-112233907D01*
X155793371Y-112233920D01*
X155902860Y-112397781D01*
X155902863Y-112397785D01*
X156042214Y-112537136D01*
X156042218Y-112537139D01*
X156206079Y-112646628D01*
X156206092Y-112646635D01*
X156388160Y-112722049D01*
X156388165Y-112722051D01*
X156388169Y-112722051D01*
X156388170Y-112722052D01*
X156581456Y-112760500D01*
X156581459Y-112760500D01*
X157778543Y-112760500D01*
X157908582Y-112734632D01*
X157971835Y-112722051D01*
X158153914Y-112646632D01*
X158317782Y-112537139D01*
X158457139Y-112397782D01*
X158566632Y-112233914D01*
X158642051Y-112051835D01*
X158680500Y-111858541D01*
X158680500Y-111661459D01*
X158680500Y-111661456D01*
X158642052Y-111468170D01*
X158642051Y-111468169D01*
X158642051Y-111468165D01*
X158642049Y-111468160D01*
X158566635Y-111286092D01*
X158566628Y-111286079D01*
X158457139Y-111122218D01*
X158457136Y-111122214D01*
X158317785Y-110982863D01*
X158317781Y-110982860D01*
X158153920Y-110873371D01*
X158153907Y-110873364D01*
X157971839Y-110797950D01*
X157971829Y-110797947D01*
X157778543Y-110759500D01*
X157778541Y-110759500D01*
X156581459Y-110759500D01*
X156581457Y-110759500D01*
X156388170Y-110797947D01*
X156388160Y-110797950D01*
X156206092Y-110873364D01*
X156206079Y-110873371D01*
X156042218Y-110982860D01*
X156042214Y-110982863D01*
X155902863Y-111122214D01*
X155902860Y-111122218D01*
X155793371Y-111286079D01*
X155793364Y-111286092D01*
X155717950Y-111468160D01*
X155717947Y-111468170D01*
X155679500Y-111661456D01*
X155679500Y-111661459D01*
X155679500Y-111858541D01*
X155679500Y-111858543D01*
X155679499Y-111858543D01*
X138960500Y-111858543D01*
X138960500Y-111858541D01*
X138960500Y-111661459D01*
X138960500Y-111661456D01*
X138922052Y-111468170D01*
X138922051Y-111468169D01*
X138922051Y-111468165D01*
X138922049Y-111468160D01*
X138846635Y-111286092D01*
X138846628Y-111286079D01*
X138737139Y-111122218D01*
X138737136Y-111122214D01*
X138597785Y-110982863D01*
X138597781Y-110982860D01*
X138433920Y-110873371D01*
X138433907Y-110873364D01*
X138251839Y-110797950D01*
X138251829Y-110797947D01*
X138058543Y-110759500D01*
X138058541Y-110759500D01*
X136861459Y-110759500D01*
X136861457Y-110759500D01*
X136668170Y-110797947D01*
X136668160Y-110797950D01*
X136486092Y-110873364D01*
X136486079Y-110873371D01*
X136322218Y-110982860D01*
X136322214Y-110982863D01*
X136182863Y-111122214D01*
X136182860Y-111122218D01*
X136073371Y-111286079D01*
X136073364Y-111286092D01*
X135997950Y-111468160D01*
X135997947Y-111468170D01*
X135959500Y-111661456D01*
X135959500Y-111661459D01*
X135959500Y-111858541D01*
X135959500Y-111858543D01*
X135959499Y-111858543D01*
X129794000Y-111858543D01*
X129794000Y-110605525D01*
X134069500Y-110605525D01*
X134069500Y-110750475D01*
X134107016Y-110890485D01*
X134107017Y-110890488D01*
X134179488Y-111016011D01*
X134179490Y-111016013D01*
X134179491Y-111016015D01*
X134281985Y-111118509D01*
X134281986Y-111118510D01*
X134281988Y-111118511D01*
X134407511Y-111190982D01*
X134407512Y-111190982D01*
X134407515Y-111190984D01*
X134547525Y-111228500D01*
X134547528Y-111228500D01*
X134692472Y-111228500D01*
X134692475Y-111228500D01*
X134832485Y-111190984D01*
X134958015Y-111118509D01*
X135060509Y-111016015D01*
X135132984Y-110890485D01*
X135170500Y-110750475D01*
X135170500Y-110605525D01*
X135132984Y-110465515D01*
X135060509Y-110339985D01*
X134958015Y-110237491D01*
X134958013Y-110237490D01*
X134958011Y-110237488D01*
X134832488Y-110165017D01*
X134832489Y-110165017D01*
X134821006Y-110161940D01*
X134692475Y-110127500D01*
X134547525Y-110127500D01*
X134418993Y-110161940D01*
X134407511Y-110165017D01*
X134281988Y-110237488D01*
X134281982Y-110237493D01*
X134179493Y-110339982D01*
X134179488Y-110339988D01*
X134107017Y-110465511D01*
X134107016Y-110465515D01*
X134069500Y-110605525D01*
X129794000Y-110605525D01*
X129794000Y-109318543D01*
X135959499Y-109318543D01*
X135997947Y-109511829D01*
X135997950Y-109511839D01*
X136073364Y-109693907D01*
X136073371Y-109693920D01*
X136182860Y-109857781D01*
X136182863Y-109857785D01*
X136322214Y-109997136D01*
X136322218Y-109997139D01*
X136486079Y-110106628D01*
X136486092Y-110106635D01*
X136627041Y-110165017D01*
X136668165Y-110182051D01*
X136668169Y-110182051D01*
X136668170Y-110182052D01*
X136861456Y-110220500D01*
X136861459Y-110220500D01*
X138058543Y-110220500D01*
X138188582Y-110194632D01*
X138251835Y-110182051D01*
X138433914Y-110106632D01*
X138597782Y-109997139D01*
X138737139Y-109857782D01*
X138846632Y-109693914D01*
X138922051Y-109511835D01*
X138960500Y-109318543D01*
X155679499Y-109318543D01*
X155717947Y-109511829D01*
X155717950Y-109511839D01*
X155793364Y-109693907D01*
X155793371Y-109693920D01*
X155902860Y-109857781D01*
X155902863Y-109857785D01*
X156042214Y-109997136D01*
X156042218Y-109997139D01*
X156206079Y-110106628D01*
X156206092Y-110106635D01*
X156347041Y-110165017D01*
X156388165Y-110182051D01*
X156388169Y-110182051D01*
X156388170Y-110182052D01*
X156581456Y-110220500D01*
X156581459Y-110220500D01*
X157778543Y-110220500D01*
X157908582Y-110194632D01*
X157971835Y-110182051D01*
X158153914Y-110106632D01*
X158317782Y-109997139D01*
X158457139Y-109857782D01*
X158566632Y-109693914D01*
X158642051Y-109511835D01*
X158680500Y-109318541D01*
X158680500Y-109121459D01*
X158680500Y-109121456D01*
X158642052Y-108928170D01*
X158642051Y-108928169D01*
X158642051Y-108928165D01*
X158642049Y-108928160D01*
X158566635Y-108746092D01*
X158566628Y-108746079D01*
X158457139Y-108582218D01*
X158457136Y-108582214D01*
X158317785Y-108442863D01*
X158317781Y-108442860D01*
X158250506Y-108397908D01*
X158153920Y-108333371D01*
X158153907Y-108333364D01*
X158068856Y-108298135D01*
X162562500Y-108298135D01*
X162562500Y-109593870D01*
X162562501Y-109593876D01*
X162568908Y-109653483D01*
X162619202Y-109788328D01*
X162619206Y-109788335D01*
X162705452Y-109903544D01*
X162705455Y-109903547D01*
X162820664Y-109989793D01*
X162820671Y-109989797D01*
X162955517Y-110040091D01*
X162955516Y-110040091D01*
X162962444Y-110040835D01*
X163015127Y-110046500D01*
X164610872Y-110046499D01*
X164670483Y-110040091D01*
X164805331Y-109989796D01*
X164920546Y-109903546D01*
X165006796Y-109788331D01*
X165057091Y-109653483D01*
X165063500Y-109593873D01*
X165063499Y-108298135D01*
X171452500Y-108298135D01*
X171452500Y-109593870D01*
X171452501Y-109593876D01*
X171458908Y-109653483D01*
X171509202Y-109788328D01*
X171509206Y-109788335D01*
X171595452Y-109903544D01*
X171595455Y-109903547D01*
X171710664Y-109989793D01*
X171710671Y-109989797D01*
X171845517Y-110040091D01*
X171845516Y-110040091D01*
X171852444Y-110040835D01*
X171905127Y-110046500D01*
X173500872Y-110046499D01*
X173560483Y-110040091D01*
X173695331Y-109989796D01*
X173810546Y-109903546D01*
X173896796Y-109788331D01*
X173947091Y-109653483D01*
X173953500Y-109593873D01*
X173953499Y-108298128D01*
X173947091Y-108238517D01*
X173896796Y-108103669D01*
X173896795Y-108103668D01*
X173896793Y-108103664D01*
X173810547Y-107988455D01*
X173810544Y-107988452D01*
X173695335Y-107902206D01*
X173695328Y-107902202D01*
X173560482Y-107851908D01*
X173560483Y-107851908D01*
X173500883Y-107845501D01*
X173500881Y-107845500D01*
X173500873Y-107845500D01*
X173500864Y-107845500D01*
X171905129Y-107845500D01*
X171905123Y-107845501D01*
X171845516Y-107851908D01*
X171710671Y-107902202D01*
X171710664Y-107902206D01*
X171595455Y-107988452D01*
X171595452Y-107988455D01*
X171509206Y-108103664D01*
X171509202Y-108103671D01*
X171458908Y-108238517D01*
X171452501Y-108298116D01*
X171452501Y-108298123D01*
X171452500Y-108298135D01*
X165063499Y-108298135D01*
X165063499Y-108298128D01*
X165057091Y-108238517D01*
X165006796Y-108103669D01*
X165006795Y-108103668D01*
X165006793Y-108103664D01*
X164920547Y-107988455D01*
X164920544Y-107988452D01*
X164805335Y-107902206D01*
X164805328Y-107902202D01*
X164670482Y-107851908D01*
X164670483Y-107851908D01*
X164610883Y-107845501D01*
X164610881Y-107845500D01*
X164610873Y-107845500D01*
X164610864Y-107845500D01*
X163015129Y-107845500D01*
X163015123Y-107845501D01*
X162955516Y-107851908D01*
X162820671Y-107902202D01*
X162820664Y-107902206D01*
X162705455Y-107988452D01*
X162705452Y-107988455D01*
X162619206Y-108103664D01*
X162619202Y-108103671D01*
X162568908Y-108238517D01*
X162562501Y-108298116D01*
X162562501Y-108298123D01*
X162562500Y-108298135D01*
X158068856Y-108298135D01*
X157971839Y-108257950D01*
X157971829Y-108257947D01*
X157778543Y-108219500D01*
X157778541Y-108219500D01*
X156581459Y-108219500D01*
X156581457Y-108219500D01*
X156388170Y-108257947D01*
X156388160Y-108257950D01*
X156206092Y-108333364D01*
X156206079Y-108333371D01*
X156042218Y-108442860D01*
X156042214Y-108442863D01*
X155902863Y-108582214D01*
X155902860Y-108582218D01*
X155793371Y-108746079D01*
X155793364Y-108746092D01*
X155717950Y-108928160D01*
X155717947Y-108928170D01*
X155679500Y-109121456D01*
X155679500Y-109121459D01*
X155679500Y-109318541D01*
X155679500Y-109318543D01*
X155679499Y-109318543D01*
X138960500Y-109318543D01*
X138960500Y-109318541D01*
X138960500Y-109121459D01*
X138960500Y-109121456D01*
X138922052Y-108928170D01*
X138922051Y-108928169D01*
X138922051Y-108928165D01*
X138922049Y-108928160D01*
X138846635Y-108746092D01*
X138846628Y-108746079D01*
X138737139Y-108582218D01*
X138737136Y-108582214D01*
X138597785Y-108442863D01*
X138597781Y-108442860D01*
X138433920Y-108333371D01*
X138433907Y-108333364D01*
X138251839Y-108257950D01*
X138251829Y-108257947D01*
X138058543Y-108219500D01*
X138058541Y-108219500D01*
X136861459Y-108219500D01*
X136861457Y-108219500D01*
X136668170Y-108257947D01*
X136668160Y-108257950D01*
X136486092Y-108333364D01*
X136486079Y-108333371D01*
X136322218Y-108442860D01*
X136322214Y-108442863D01*
X136182863Y-108582214D01*
X136182860Y-108582218D01*
X136073371Y-108746079D01*
X136073364Y-108746092D01*
X135997950Y-108928160D01*
X135997947Y-108928170D01*
X135959500Y-109121456D01*
X135959500Y-109121459D01*
X135959500Y-109318541D01*
X135959500Y-109318543D01*
X135959499Y-109318543D01*
X129794000Y-109318543D01*
X129794000Y-106778543D01*
X135959499Y-106778543D01*
X135997947Y-106971829D01*
X135997950Y-106971839D01*
X136073364Y-107153907D01*
X136073371Y-107153920D01*
X136182860Y-107317781D01*
X136182863Y-107317785D01*
X136322214Y-107457136D01*
X136322218Y-107457139D01*
X136486079Y-107566628D01*
X136486092Y-107566635D01*
X136668160Y-107642049D01*
X136668165Y-107642051D01*
X136668169Y-107642051D01*
X136668170Y-107642052D01*
X136861456Y-107680500D01*
X136861459Y-107680500D01*
X138058543Y-107680500D01*
X138188582Y-107654632D01*
X138251835Y-107642051D01*
X138433914Y-107566632D01*
X138597782Y-107457139D01*
X138737139Y-107317782D01*
X138846632Y-107153914D01*
X138922051Y-106971835D01*
X138934632Y-106908582D01*
X138960500Y-106778543D01*
X155679499Y-106778543D01*
X155717947Y-106971829D01*
X155717950Y-106971839D01*
X155793364Y-107153907D01*
X155793371Y-107153920D01*
X155902860Y-107317781D01*
X155902863Y-107317785D01*
X156042214Y-107457136D01*
X156042218Y-107457139D01*
X156206079Y-107566628D01*
X156206092Y-107566635D01*
X156388160Y-107642049D01*
X156388165Y-107642051D01*
X156388169Y-107642051D01*
X156388170Y-107642052D01*
X156581456Y-107680500D01*
X156581459Y-107680500D01*
X157778543Y-107680500D01*
X157908582Y-107654632D01*
X157971835Y-107642051D01*
X158153914Y-107566632D01*
X158317782Y-107457139D01*
X158457139Y-107317782D01*
X158566632Y-107153914D01*
X158642051Y-106971835D01*
X158654632Y-106908582D01*
X158680500Y-106778543D01*
X158680500Y-106581456D01*
X158642051Y-106388165D01*
X158630132Y-106359389D01*
X162562500Y-106359389D01*
X162562500Y-106532611D01*
X162589598Y-106703701D01*
X162643127Y-106868445D01*
X162721768Y-107022788D01*
X162823586Y-107162928D01*
X162946072Y-107285414D01*
X163086212Y-107387232D01*
X163240555Y-107465873D01*
X163405299Y-107519402D01*
X163576389Y-107546500D01*
X163576390Y-107546500D01*
X164049610Y-107546500D01*
X164049611Y-107546500D01*
X164220701Y-107519402D01*
X164385445Y-107465873D01*
X164539788Y-107387232D01*
X164679928Y-107285414D01*
X164802414Y-107162928D01*
X164904232Y-107022788D01*
X164982873Y-106868445D01*
X165036402Y-106703701D01*
X165063500Y-106532611D01*
X165063500Y-106359389D01*
X171452500Y-106359389D01*
X171452500Y-106532611D01*
X171479598Y-106703701D01*
X171533127Y-106868445D01*
X171611768Y-107022788D01*
X171713586Y-107162928D01*
X171836072Y-107285414D01*
X171976212Y-107387232D01*
X172130555Y-107465873D01*
X172295299Y-107519402D01*
X172466389Y-107546500D01*
X172466390Y-107546500D01*
X172939610Y-107546500D01*
X172939611Y-107546500D01*
X173110701Y-107519402D01*
X173275445Y-107465873D01*
X173429788Y-107387232D01*
X173569928Y-107285414D01*
X173692414Y-107162928D01*
X173794232Y-107022788D01*
X173872873Y-106868445D01*
X173926402Y-106703701D01*
X173953500Y-106532611D01*
X173953500Y-106359389D01*
X173926402Y-106188299D01*
X173872873Y-106023555D01*
X173794232Y-105869212D01*
X173692414Y-105729072D01*
X173569928Y-105606586D01*
X173429788Y-105504768D01*
X173275445Y-105426127D01*
X173110701Y-105372598D01*
X173110699Y-105372597D01*
X173110698Y-105372597D01*
X172979271Y-105351781D01*
X172939611Y-105345500D01*
X172466389Y-105345500D01*
X172426728Y-105351781D01*
X172295302Y-105372597D01*
X172130552Y-105426128D01*
X171976211Y-105504768D01*
X171896256Y-105562859D01*
X171836072Y-105606586D01*
X171836070Y-105606588D01*
X171836069Y-105606588D01*
X171713588Y-105729069D01*
X171713588Y-105729070D01*
X171713586Y-105729072D01*
X171669859Y-105789256D01*
X171611768Y-105869211D01*
X171533128Y-106023552D01*
X171479597Y-106188302D01*
X171452500Y-106359389D01*
X165063500Y-106359389D01*
X165036402Y-106188299D01*
X164982873Y-106023555D01*
X164904232Y-105869212D01*
X164802414Y-105729072D01*
X164679928Y-105606586D01*
X164539788Y-105504768D01*
X164385445Y-105426127D01*
X164220701Y-105372598D01*
X164220699Y-105372597D01*
X164220698Y-105372597D01*
X164089271Y-105351781D01*
X164049611Y-105345500D01*
X163576389Y-105345500D01*
X163536728Y-105351781D01*
X163405302Y-105372597D01*
X163240552Y-105426128D01*
X163086211Y-105504768D01*
X163006256Y-105562859D01*
X162946072Y-105606586D01*
X162946070Y-105606588D01*
X162946069Y-105606588D01*
X162823588Y-105729069D01*
X162823588Y-105729070D01*
X162823586Y-105729072D01*
X162779859Y-105789256D01*
X162721768Y-105869211D01*
X162643128Y-106023552D01*
X162589597Y-106188302D01*
X162562500Y-106359389D01*
X158630132Y-106359389D01*
X158566635Y-106206092D01*
X158566628Y-106206079D01*
X158457139Y-106042218D01*
X158457136Y-106042214D01*
X158317785Y-105902863D01*
X158317781Y-105902860D01*
X158153920Y-105793371D01*
X158153907Y-105793364D01*
X157971839Y-105717950D01*
X157971829Y-105717947D01*
X157778543Y-105679500D01*
X157778541Y-105679500D01*
X156581459Y-105679500D01*
X156581457Y-105679500D01*
X156388170Y-105717947D01*
X156388160Y-105717950D01*
X156206092Y-105793364D01*
X156206079Y-105793371D01*
X156042218Y-105902860D01*
X156042214Y-105902863D01*
X155902863Y-106042214D01*
X155902860Y-106042218D01*
X155793371Y-106206079D01*
X155793364Y-106206092D01*
X155717950Y-106388160D01*
X155717947Y-106388170D01*
X155679500Y-106581456D01*
X155679500Y-106581459D01*
X155679500Y-106778541D01*
X155679500Y-106778543D01*
X155679499Y-106778543D01*
X138960500Y-106778543D01*
X138960500Y-106581456D01*
X138922052Y-106388170D01*
X138922051Y-106388169D01*
X138922051Y-106388165D01*
X138910132Y-106359389D01*
X138846635Y-106206092D01*
X138846628Y-106206079D01*
X138737139Y-106042218D01*
X138737136Y-106042214D01*
X138597785Y-105902863D01*
X138597781Y-105902860D01*
X138433920Y-105793371D01*
X138433907Y-105793364D01*
X138251839Y-105717950D01*
X138251829Y-105717947D01*
X138058543Y-105679500D01*
X138058541Y-105679500D01*
X136861459Y-105679500D01*
X136861457Y-105679500D01*
X136668170Y-105717947D01*
X136668160Y-105717950D01*
X136486092Y-105793364D01*
X136486079Y-105793371D01*
X136322218Y-105902860D01*
X136322214Y-105902863D01*
X136182863Y-106042214D01*
X136182860Y-106042218D01*
X136073371Y-106206079D01*
X136073364Y-106206092D01*
X135997950Y-106388160D01*
X135997947Y-106388170D01*
X135959500Y-106581456D01*
X135959500Y-106581459D01*
X135959500Y-106778541D01*
X135959500Y-106778543D01*
X135959499Y-106778543D01*
X129794000Y-106778543D01*
X129794000Y-104255525D01*
X134069500Y-104255525D01*
X134069500Y-104400475D01*
X134107016Y-104540485D01*
X134107017Y-104540488D01*
X134179488Y-104666011D01*
X134179490Y-104666013D01*
X134179491Y-104666015D01*
X134281985Y-104768509D01*
X134281986Y-104768510D01*
X134281988Y-104768511D01*
X134407511Y-104840982D01*
X134407512Y-104840982D01*
X134407515Y-104840984D01*
X134547525Y-104878500D01*
X134547528Y-104878500D01*
X134692472Y-104878500D01*
X134692475Y-104878500D01*
X134832485Y-104840984D01*
X134958015Y-104768509D01*
X135060509Y-104666015D01*
X135132984Y-104540485D01*
X135170500Y-104400475D01*
X135170500Y-104255525D01*
X135165950Y-104238543D01*
X135959499Y-104238543D01*
X135997947Y-104431829D01*
X135997950Y-104431839D01*
X136073364Y-104613907D01*
X136073371Y-104613920D01*
X136182860Y-104777781D01*
X136182863Y-104777785D01*
X136322214Y-104917136D01*
X136322218Y-104917139D01*
X136486079Y-105026628D01*
X136486092Y-105026635D01*
X136668160Y-105102049D01*
X136668165Y-105102051D01*
X136668169Y-105102051D01*
X136668170Y-105102052D01*
X136861456Y-105140500D01*
X136861459Y-105140500D01*
X138058543Y-105140500D01*
X138188582Y-105114632D01*
X138251835Y-105102051D01*
X138433914Y-105026632D01*
X138597782Y-104917139D01*
X138737139Y-104777782D01*
X138846632Y-104613914D01*
X138922051Y-104431835D01*
X138934632Y-104368582D01*
X138960500Y-104238543D01*
X155679499Y-104238543D01*
X155717947Y-104431829D01*
X155717950Y-104431839D01*
X155793364Y-104613907D01*
X155793371Y-104613920D01*
X155902860Y-104777781D01*
X155902863Y-104777785D01*
X156042214Y-104917136D01*
X156042218Y-104917139D01*
X156206079Y-105026628D01*
X156206092Y-105026635D01*
X156388160Y-105102049D01*
X156388165Y-105102051D01*
X156388169Y-105102051D01*
X156388170Y-105102052D01*
X156581456Y-105140500D01*
X156581459Y-105140500D01*
X157778543Y-105140500D01*
X157908582Y-105114632D01*
X157971835Y-105102051D01*
X158153914Y-105026632D01*
X158317782Y-104917139D01*
X158457139Y-104777782D01*
X158566632Y-104613914D01*
X158642051Y-104431835D01*
X158654632Y-104368582D01*
X158680500Y-104238543D01*
X158680500Y-104041456D01*
X158642052Y-103848170D01*
X158642051Y-103848169D01*
X158642051Y-103848165D01*
X158612781Y-103777500D01*
X158566635Y-103666092D01*
X158566628Y-103666079D01*
X158457139Y-103502218D01*
X158457136Y-103502214D01*
X158317785Y-103362863D01*
X158317781Y-103362860D01*
X158153920Y-103253371D01*
X158153907Y-103253364D01*
X157971839Y-103177950D01*
X157971829Y-103177947D01*
X157778543Y-103139500D01*
X157778541Y-103139500D01*
X156581459Y-103139500D01*
X156581457Y-103139500D01*
X156388170Y-103177947D01*
X156388160Y-103177950D01*
X156206092Y-103253364D01*
X156206079Y-103253371D01*
X156042218Y-103362860D01*
X156042214Y-103362863D01*
X155902863Y-103502214D01*
X155902860Y-103502218D01*
X155793371Y-103666079D01*
X155793364Y-103666092D01*
X155717950Y-103848160D01*
X155717947Y-103848170D01*
X155679500Y-104041456D01*
X155679500Y-104041459D01*
X155679500Y-104238541D01*
X155679500Y-104238543D01*
X155679499Y-104238543D01*
X138960500Y-104238543D01*
X138960500Y-104041456D01*
X138922052Y-103848170D01*
X138922051Y-103848169D01*
X138922051Y-103848165D01*
X138892781Y-103777500D01*
X138846635Y-103666092D01*
X138846628Y-103666079D01*
X138737139Y-103502218D01*
X138737136Y-103502214D01*
X138597785Y-103362863D01*
X138597781Y-103362860D01*
X138433920Y-103253371D01*
X138433907Y-103253364D01*
X138251839Y-103177950D01*
X138251829Y-103177947D01*
X138058543Y-103139500D01*
X138058541Y-103139500D01*
X136861459Y-103139500D01*
X136861457Y-103139500D01*
X136668170Y-103177947D01*
X136668160Y-103177950D01*
X136486092Y-103253364D01*
X136486079Y-103253371D01*
X136322218Y-103362860D01*
X136322214Y-103362863D01*
X136182863Y-103502214D01*
X136182860Y-103502218D01*
X136073371Y-103666079D01*
X136073364Y-103666092D01*
X135997950Y-103848160D01*
X135997947Y-103848170D01*
X135959500Y-104041456D01*
X135959500Y-104041459D01*
X135959500Y-104238541D01*
X135959500Y-104238543D01*
X135959499Y-104238543D01*
X135165950Y-104238543D01*
X135132984Y-104115515D01*
X135132982Y-104115511D01*
X135122508Y-104097369D01*
X135122507Y-104097368D01*
X135111863Y-104078934D01*
X135060509Y-103989985D01*
X134958015Y-103887491D01*
X134958013Y-103887490D01*
X134958011Y-103887488D01*
X134832488Y-103815017D01*
X134832489Y-103815017D01*
X134821006Y-103811940D01*
X134692475Y-103777500D01*
X134547525Y-103777500D01*
X134418993Y-103811940D01*
X134407511Y-103815017D01*
X134281988Y-103887488D01*
X134281982Y-103887493D01*
X134179493Y-103989982D01*
X134179488Y-103989988D01*
X134107017Y-104115511D01*
X134107016Y-104115515D01*
X134069500Y-104255525D01*
X129794000Y-104255525D01*
X129794000Y-101698543D01*
X135959499Y-101698543D01*
X135997947Y-101891829D01*
X135997950Y-101891839D01*
X136073364Y-102073907D01*
X136073371Y-102073920D01*
X136182860Y-102237781D01*
X136182863Y-102237785D01*
X136322214Y-102377136D01*
X136322218Y-102377139D01*
X136486079Y-102486628D01*
X136486092Y-102486635D01*
X136668160Y-102562049D01*
X136668165Y-102562051D01*
X136668169Y-102562051D01*
X136668170Y-102562052D01*
X136861456Y-102600500D01*
X136861459Y-102600500D01*
X138058543Y-102600500D01*
X138188582Y-102574632D01*
X138251835Y-102562051D01*
X138433914Y-102486632D01*
X138597782Y-102377139D01*
X138737139Y-102237782D01*
X138846632Y-102073914D01*
X138922051Y-101891835D01*
X138960500Y-101698543D01*
X155679499Y-101698543D01*
X155717947Y-101891829D01*
X155717950Y-101891839D01*
X155793364Y-102073907D01*
X155793371Y-102073920D01*
X155902860Y-102237781D01*
X155902863Y-102237785D01*
X156042214Y-102377136D01*
X156042218Y-102377139D01*
X156206079Y-102486628D01*
X156206092Y-102486635D01*
X156388160Y-102562049D01*
X156388165Y-102562051D01*
X156388169Y-102562051D01*
X156388170Y-102562052D01*
X156581456Y-102600500D01*
X156581459Y-102600500D01*
X157778543Y-102600500D01*
X157908582Y-102574632D01*
X157971835Y-102562051D01*
X158153914Y-102486632D01*
X158317782Y-102377139D01*
X158457139Y-102237782D01*
X158566632Y-102073914D01*
X158642051Y-101891835D01*
X158680500Y-101698541D01*
X158680500Y-101501459D01*
X158680500Y-101501456D01*
X158642052Y-101308170D01*
X158642051Y-101308169D01*
X158642051Y-101308165D01*
X158639916Y-101303011D01*
X158566635Y-101126092D01*
X158566628Y-101126079D01*
X158457139Y-100962218D01*
X158457136Y-100962214D01*
X158317785Y-100822863D01*
X158317781Y-100822860D01*
X158153920Y-100713371D01*
X158153907Y-100713364D01*
X157971839Y-100637950D01*
X157971829Y-100637947D01*
X157778543Y-100599500D01*
X157778541Y-100599500D01*
X156581459Y-100599500D01*
X156581457Y-100599500D01*
X156388170Y-100637947D01*
X156388160Y-100637950D01*
X156206092Y-100713364D01*
X156206079Y-100713371D01*
X156042218Y-100822860D01*
X156042214Y-100822863D01*
X155902863Y-100962214D01*
X155902860Y-100962218D01*
X155793371Y-101126079D01*
X155793364Y-101126092D01*
X155717950Y-101308160D01*
X155717947Y-101308170D01*
X155679500Y-101501456D01*
X155679500Y-101501459D01*
X155679500Y-101698541D01*
X155679500Y-101698543D01*
X155679499Y-101698543D01*
X138960500Y-101698543D01*
X138960500Y-101698541D01*
X138960500Y-101501459D01*
X138960500Y-101501456D01*
X138922052Y-101308170D01*
X138922051Y-101308169D01*
X138922051Y-101308165D01*
X138919916Y-101303011D01*
X138846635Y-101126092D01*
X138846628Y-101126079D01*
X138737139Y-100962218D01*
X138737136Y-100962214D01*
X138597785Y-100822863D01*
X138597781Y-100822860D01*
X138433920Y-100713371D01*
X138433907Y-100713364D01*
X138251839Y-100637950D01*
X138251829Y-100637947D01*
X138058543Y-100599500D01*
X138058541Y-100599500D01*
X136861459Y-100599500D01*
X136861457Y-100599500D01*
X136668170Y-100637947D01*
X136668160Y-100637950D01*
X136486092Y-100713364D01*
X136486079Y-100713371D01*
X136322218Y-100822860D01*
X136322214Y-100822863D01*
X136182863Y-100962214D01*
X136182860Y-100962218D01*
X136073371Y-101126079D01*
X136073364Y-101126092D01*
X135997950Y-101308160D01*
X135997947Y-101308170D01*
X135959500Y-101501456D01*
X135959500Y-101501459D01*
X135959500Y-101698541D01*
X135959500Y-101698543D01*
X135959499Y-101698543D01*
X129794000Y-101698543D01*
X129794000Y-100892525D01*
X131464500Y-100892525D01*
X131464500Y-101037475D01*
X131502016Y-101177485D01*
X131502017Y-101177488D01*
X131574488Y-101303011D01*
X131574490Y-101303013D01*
X131574491Y-101303015D01*
X131676985Y-101405509D01*
X131676986Y-101405510D01*
X131676988Y-101405511D01*
X131802511Y-101477982D01*
X131802512Y-101477982D01*
X131802515Y-101477984D01*
X131942525Y-101515500D01*
X131942528Y-101515500D01*
X132087472Y-101515500D01*
X132087475Y-101515500D01*
X132227485Y-101477984D01*
X132353015Y-101405509D01*
X132455509Y-101303015D01*
X132527984Y-101177485D01*
X132565500Y-101037475D01*
X132565500Y-100892525D01*
X132527984Y-100752515D01*
X132505382Y-100713368D01*
X132455511Y-100626988D01*
X132455506Y-100626982D01*
X132353017Y-100524493D01*
X132353011Y-100524488D01*
X132227488Y-100452017D01*
X132227489Y-100452017D01*
X132216006Y-100448940D01*
X132087475Y-100414500D01*
X131942525Y-100414500D01*
X131813993Y-100448940D01*
X131802511Y-100452017D01*
X131676988Y-100524488D01*
X131676982Y-100524493D01*
X131574493Y-100626982D01*
X131574488Y-100626988D01*
X131502017Y-100752511D01*
X131502016Y-100752515D01*
X131464500Y-100892525D01*
X129794000Y-100892525D01*
X129794000Y-99158543D01*
X135959499Y-99158543D01*
X135997947Y-99351829D01*
X135997950Y-99351839D01*
X136073364Y-99533907D01*
X136073371Y-99533920D01*
X136182860Y-99697781D01*
X136182863Y-99697785D01*
X136322214Y-99837136D01*
X136322218Y-99837139D01*
X136486079Y-99946628D01*
X136486092Y-99946635D01*
X136668160Y-100022049D01*
X136668165Y-100022051D01*
X136668169Y-100022051D01*
X136668170Y-100022052D01*
X136861456Y-100060500D01*
X136861459Y-100060500D01*
X138058543Y-100060500D01*
X138188582Y-100034632D01*
X138251835Y-100022051D01*
X138433914Y-99946632D01*
X138597782Y-99837139D01*
X138737139Y-99697782D01*
X138846632Y-99533914D01*
X138922051Y-99351835D01*
X138951060Y-99206000D01*
X138960500Y-99158543D01*
X155679499Y-99158543D01*
X155717947Y-99351829D01*
X155717950Y-99351839D01*
X155793364Y-99533907D01*
X155793371Y-99533920D01*
X155902860Y-99697781D01*
X155902863Y-99697785D01*
X156042214Y-99837136D01*
X156042218Y-99837139D01*
X156206079Y-99946628D01*
X156206092Y-99946635D01*
X156388160Y-100022049D01*
X156388165Y-100022051D01*
X156388169Y-100022051D01*
X156388170Y-100022052D01*
X156581456Y-100060500D01*
X156581459Y-100060500D01*
X157778543Y-100060500D01*
X157908582Y-100034632D01*
X157971835Y-100022051D01*
X158153914Y-99946632D01*
X158317782Y-99837139D01*
X158457139Y-99697782D01*
X158566632Y-99533914D01*
X158642051Y-99351835D01*
X158671060Y-99206000D01*
X158680500Y-99158543D01*
X158680500Y-98961456D01*
X158642052Y-98768170D01*
X158642051Y-98768169D01*
X158642051Y-98768165D01*
X158566632Y-98586086D01*
X158566628Y-98586079D01*
X158564587Y-98583025D01*
X174836500Y-98583025D01*
X174836500Y-98727975D01*
X174874016Y-98867985D01*
X174874017Y-98867988D01*
X174946488Y-98993511D01*
X174946490Y-98993513D01*
X174946491Y-98993515D01*
X175048985Y-99096009D01*
X175048986Y-99096010D01*
X175048988Y-99096011D01*
X175174511Y-99168482D01*
X175174512Y-99168482D01*
X175174515Y-99168484D01*
X175314525Y-99206000D01*
X175314528Y-99206000D01*
X175459472Y-99206000D01*
X175459475Y-99206000D01*
X175599485Y-99168484D01*
X175725015Y-99096009D01*
X175827509Y-98993515D01*
X175899984Y-98867985D01*
X175937500Y-98727975D01*
X175937500Y-98583025D01*
X175899984Y-98443015D01*
X175885835Y-98418509D01*
X175827511Y-98317488D01*
X175827506Y-98317482D01*
X175725017Y-98214993D01*
X175725011Y-98214988D01*
X175599488Y-98142517D01*
X175599489Y-98142517D01*
X175588006Y-98139440D01*
X175459475Y-98105000D01*
X175314525Y-98105000D01*
X175185993Y-98139440D01*
X175174511Y-98142517D01*
X175048988Y-98214988D01*
X175048982Y-98214993D01*
X174946493Y-98317482D01*
X174946488Y-98317488D01*
X174874017Y-98443011D01*
X174874016Y-98443015D01*
X174836500Y-98583025D01*
X158564587Y-98583025D01*
X158457139Y-98422218D01*
X158457136Y-98422214D01*
X158317785Y-98282863D01*
X158317781Y-98282860D01*
X158153920Y-98173371D01*
X158153907Y-98173364D01*
X157971839Y-98097950D01*
X157971829Y-98097947D01*
X157778543Y-98059500D01*
X157778541Y-98059500D01*
X156581459Y-98059500D01*
X156581457Y-98059500D01*
X156388170Y-98097947D01*
X156388160Y-98097950D01*
X156206092Y-98173364D01*
X156206079Y-98173371D01*
X156042218Y-98282860D01*
X156042214Y-98282863D01*
X155902863Y-98422214D01*
X155902860Y-98422218D01*
X155793371Y-98586079D01*
X155793364Y-98586092D01*
X155717950Y-98768160D01*
X155717947Y-98768170D01*
X155679500Y-98961456D01*
X155679500Y-98961459D01*
X155679500Y-99158541D01*
X155679500Y-99158543D01*
X155679499Y-99158543D01*
X138960500Y-99158543D01*
X138960500Y-98961456D01*
X138922052Y-98768170D01*
X138922051Y-98768169D01*
X138922051Y-98768165D01*
X138905403Y-98727972D01*
X138846635Y-98586092D01*
X138846628Y-98586079D01*
X138737139Y-98422218D01*
X138737136Y-98422214D01*
X138597785Y-98282863D01*
X138597781Y-98282860D01*
X138433920Y-98173371D01*
X138433907Y-98173364D01*
X138251839Y-98097950D01*
X138251829Y-98097947D01*
X138058543Y-98059500D01*
X138058541Y-98059500D01*
X136861459Y-98059500D01*
X136861457Y-98059500D01*
X136668170Y-98097947D01*
X136668160Y-98097950D01*
X136486092Y-98173364D01*
X136486079Y-98173371D01*
X136322218Y-98282860D01*
X136322214Y-98282863D01*
X136182863Y-98422214D01*
X136182860Y-98422218D01*
X136073371Y-98586079D01*
X136073364Y-98586092D01*
X135997950Y-98768160D01*
X135997947Y-98768170D01*
X135959500Y-98961456D01*
X135959500Y-98961459D01*
X135959500Y-99158541D01*
X135959500Y-99158543D01*
X135959499Y-99158543D01*
X129794000Y-99158543D01*
X129794000Y-97905525D01*
X134069500Y-97905525D01*
X134069500Y-98050475D01*
X134107016Y-98190485D01*
X134107017Y-98190488D01*
X134179488Y-98316011D01*
X134179490Y-98316013D01*
X134179491Y-98316015D01*
X134281985Y-98418509D01*
X134281986Y-98418510D01*
X134281988Y-98418511D01*
X134407511Y-98490982D01*
X134407512Y-98490982D01*
X134407515Y-98490984D01*
X134547525Y-98528500D01*
X134547528Y-98528500D01*
X134692472Y-98528500D01*
X134692475Y-98528500D01*
X134832485Y-98490984D01*
X134958015Y-98418509D01*
X135060509Y-98316015D01*
X135132984Y-98190485D01*
X135170500Y-98050475D01*
X135170500Y-97905525D01*
X135132984Y-97765515D01*
X135060509Y-97639985D01*
X134958015Y-97537491D01*
X134958013Y-97537490D01*
X134958011Y-97537488D01*
X134832488Y-97465017D01*
X134832489Y-97465017D01*
X134821006Y-97461940D01*
X134692475Y-97427500D01*
X134547525Y-97427500D01*
X134418993Y-97461940D01*
X134407511Y-97465017D01*
X134281988Y-97537488D01*
X134281982Y-97537493D01*
X134179493Y-97639982D01*
X134179488Y-97639988D01*
X134107017Y-97765511D01*
X134107016Y-97765515D01*
X134069500Y-97905525D01*
X129794000Y-97905525D01*
X129794000Y-96618543D01*
X135959499Y-96618543D01*
X135997947Y-96811829D01*
X135997950Y-96811839D01*
X136073364Y-96993907D01*
X136073371Y-96993920D01*
X136182860Y-97157781D01*
X136182863Y-97157785D01*
X136322214Y-97297136D01*
X136322218Y-97297139D01*
X136486079Y-97406628D01*
X136486092Y-97406635D01*
X136627041Y-97465017D01*
X136668165Y-97482051D01*
X136668169Y-97482051D01*
X136668170Y-97482052D01*
X136861456Y-97520500D01*
X136861459Y-97520500D01*
X138058543Y-97520500D01*
X138188582Y-97494632D01*
X138251835Y-97482051D01*
X138433914Y-97406632D01*
X138597782Y-97297139D01*
X138737139Y-97157782D01*
X138846632Y-96993914D01*
X138922051Y-96811835D01*
X138944121Y-96700885D01*
X138960500Y-96618543D01*
X155679499Y-96618543D01*
X155717947Y-96811829D01*
X155717950Y-96811839D01*
X155793364Y-96993907D01*
X155793371Y-96993920D01*
X155902860Y-97157781D01*
X155902863Y-97157785D01*
X156042214Y-97297136D01*
X156042218Y-97297139D01*
X156206079Y-97406628D01*
X156206092Y-97406635D01*
X156347041Y-97465017D01*
X156388165Y-97482051D01*
X156388169Y-97482051D01*
X156388170Y-97482052D01*
X156581456Y-97520500D01*
X156581459Y-97520500D01*
X157778543Y-97520500D01*
X157908582Y-97494632D01*
X157971835Y-97482051D01*
X158153914Y-97406632D01*
X158317782Y-97297139D01*
X158457139Y-97157782D01*
X158566632Y-96993914D01*
X158642051Y-96811835D01*
X158655749Y-96742972D01*
X158664121Y-96700885D01*
X163025500Y-96700885D01*
X163025500Y-96845835D01*
X163063016Y-96985845D01*
X163063017Y-96985848D01*
X163135488Y-97111371D01*
X163135490Y-97111373D01*
X163135491Y-97111375D01*
X163237985Y-97213869D01*
X163237986Y-97213870D01*
X163237988Y-97213871D01*
X163363511Y-97286342D01*
X163363512Y-97286342D01*
X163363515Y-97286344D01*
X163503525Y-97323860D01*
X163503528Y-97323860D01*
X163648472Y-97323860D01*
X163648475Y-97323860D01*
X163788485Y-97286344D01*
X163914015Y-97213869D01*
X164016509Y-97111375D01*
X164088984Y-96985845D01*
X164126500Y-96845835D01*
X164126500Y-96700885D01*
X164098938Y-96598025D01*
X168359500Y-96598025D01*
X168359500Y-96742975D01*
X168387061Y-96845832D01*
X168397017Y-96882988D01*
X168469488Y-97008511D01*
X168469490Y-97008513D01*
X168469491Y-97008515D01*
X168571985Y-97111009D01*
X168571986Y-97111010D01*
X168571988Y-97111011D01*
X168697511Y-97183482D01*
X168697512Y-97183482D01*
X168697515Y-97183484D01*
X168837525Y-97221000D01*
X168837528Y-97221000D01*
X168982472Y-97221000D01*
X168982475Y-97221000D01*
X169122485Y-97183484D01*
X169248015Y-97111009D01*
X169350509Y-97008515D01*
X169422984Y-96882985D01*
X169460500Y-96742975D01*
X169460500Y-96598025D01*
X169422984Y-96458015D01*
X169409895Y-96435345D01*
X169350511Y-96332488D01*
X169350506Y-96332482D01*
X169248017Y-96229993D01*
X169248011Y-96229988D01*
X169122488Y-96157517D01*
X169122489Y-96157517D01*
X169111006Y-96154440D01*
X168982475Y-96120000D01*
X168837525Y-96120000D01*
X168708993Y-96154440D01*
X168697511Y-96157517D01*
X168571988Y-96229988D01*
X168571982Y-96229993D01*
X168469493Y-96332482D01*
X168469488Y-96332488D01*
X168397017Y-96458011D01*
X168397016Y-96458015D01*
X168359500Y-96598025D01*
X164098938Y-96598025D01*
X164088984Y-96560875D01*
X164029595Y-96458011D01*
X164016511Y-96435348D01*
X164016506Y-96435342D01*
X163914017Y-96332853D01*
X163914011Y-96332848D01*
X163788488Y-96260377D01*
X163788489Y-96260377D01*
X163777006Y-96257300D01*
X163648475Y-96222860D01*
X163503525Y-96222860D01*
X163374993Y-96257300D01*
X163363511Y-96260377D01*
X163237988Y-96332848D01*
X163237982Y-96332853D01*
X163135493Y-96435342D01*
X163135488Y-96435348D01*
X163063017Y-96560871D01*
X163063016Y-96560875D01*
X163025500Y-96700885D01*
X158664121Y-96700885D01*
X158670550Y-96668566D01*
X158670550Y-96668565D01*
X158677630Y-96632968D01*
X158680500Y-96618541D01*
X158680500Y-96421459D01*
X158680500Y-96421456D01*
X158642052Y-96228170D01*
X158642051Y-96228169D01*
X158642051Y-96228165D01*
X158612788Y-96157517D01*
X158566635Y-96046092D01*
X158566628Y-96046079D01*
X158457139Y-95882218D01*
X158457136Y-95882214D01*
X158317785Y-95742863D01*
X158317781Y-95742860D01*
X158153920Y-95633371D01*
X158153907Y-95633364D01*
X157971839Y-95557950D01*
X157971829Y-95557947D01*
X157778543Y-95519500D01*
X157778541Y-95519500D01*
X156581459Y-95519500D01*
X156581457Y-95519500D01*
X156388170Y-95557947D01*
X156388160Y-95557950D01*
X156206092Y-95633364D01*
X156206079Y-95633371D01*
X156042218Y-95742860D01*
X156042214Y-95742863D01*
X155902863Y-95882214D01*
X155902860Y-95882218D01*
X155793371Y-96046079D01*
X155793364Y-96046092D01*
X155717950Y-96228160D01*
X155717947Y-96228170D01*
X155679500Y-96421456D01*
X155679500Y-96421459D01*
X155679500Y-96618541D01*
X155679500Y-96618543D01*
X155679499Y-96618543D01*
X138960500Y-96618543D01*
X138960500Y-96421456D01*
X138922052Y-96228170D01*
X138922051Y-96228169D01*
X138922051Y-96228165D01*
X138892788Y-96157517D01*
X138846635Y-96046092D01*
X138846628Y-96046079D01*
X138737139Y-95882218D01*
X138737136Y-95882214D01*
X138597785Y-95742863D01*
X138597781Y-95742860D01*
X138433920Y-95633371D01*
X138433907Y-95633364D01*
X138251839Y-95557950D01*
X138251829Y-95557947D01*
X138058543Y-95519500D01*
X138058541Y-95519500D01*
X136861459Y-95519500D01*
X136861457Y-95519500D01*
X136668170Y-95557947D01*
X136668160Y-95557950D01*
X136486092Y-95633364D01*
X136486079Y-95633371D01*
X136322218Y-95742860D01*
X136322214Y-95742863D01*
X136182863Y-95882214D01*
X136182860Y-95882218D01*
X136073371Y-96046079D01*
X136073364Y-96046092D01*
X135997950Y-96228160D01*
X135997947Y-96228170D01*
X135959500Y-96421456D01*
X135959500Y-96421459D01*
X135959500Y-96618541D01*
X135959500Y-96618543D01*
X135959499Y-96618543D01*
X129794000Y-96618543D01*
X129794000Y-94542525D01*
X131464500Y-94542525D01*
X131464500Y-94687475D01*
X131483166Y-94757136D01*
X131502017Y-94827488D01*
X131574488Y-94953011D01*
X131574490Y-94953013D01*
X131574491Y-94953015D01*
X131676985Y-95055509D01*
X131676986Y-95055510D01*
X131676988Y-95055511D01*
X131802511Y-95127982D01*
X131802512Y-95127982D01*
X131802515Y-95127984D01*
X131942525Y-95165500D01*
X131942528Y-95165500D01*
X132087472Y-95165500D01*
X132087475Y-95165500D01*
X132227485Y-95127984D01*
X132353015Y-95055509D01*
X132455509Y-94953015D01*
X132527984Y-94827485D01*
X132565500Y-94687475D01*
X132565500Y-94542525D01*
X132527984Y-94402515D01*
X132455509Y-94276985D01*
X132353015Y-94174491D01*
X132353013Y-94174490D01*
X132353011Y-94174488D01*
X132227488Y-94102017D01*
X132227489Y-94102017D01*
X132216006Y-94098940D01*
X132139884Y-94078543D01*
X135959499Y-94078543D01*
X135997947Y-94271829D01*
X135997950Y-94271839D01*
X136073364Y-94453907D01*
X136073371Y-94453920D01*
X136182860Y-94617781D01*
X136182863Y-94617785D01*
X136322214Y-94757136D01*
X136322218Y-94757139D01*
X136486079Y-94866628D01*
X136486092Y-94866635D01*
X136668160Y-94942049D01*
X136668165Y-94942051D01*
X136668169Y-94942051D01*
X136668170Y-94942052D01*
X136861456Y-94980500D01*
X136861459Y-94980500D01*
X138058543Y-94980500D01*
X138196736Y-94953011D01*
X138251835Y-94942051D01*
X138433914Y-94866632D01*
X138597782Y-94757139D01*
X138737139Y-94617782D01*
X138846632Y-94453914D01*
X138922051Y-94271835D01*
X138941415Y-94174488D01*
X138960500Y-94078543D01*
X155679499Y-94078543D01*
X155717947Y-94271829D01*
X155717950Y-94271839D01*
X155793364Y-94453907D01*
X155793371Y-94453920D01*
X155902860Y-94617781D01*
X155902863Y-94617785D01*
X156042214Y-94757136D01*
X156042218Y-94757139D01*
X156206079Y-94866628D01*
X156206092Y-94866635D01*
X156388160Y-94942049D01*
X156388165Y-94942051D01*
X156388169Y-94942051D01*
X156388170Y-94942052D01*
X156581456Y-94980500D01*
X156581459Y-94980500D01*
X157778543Y-94980500D01*
X157916736Y-94953011D01*
X157971835Y-94942051D01*
X158153914Y-94866632D01*
X158317782Y-94757139D01*
X158457139Y-94617782D01*
X158566632Y-94453914D01*
X158642051Y-94271835D01*
X158661415Y-94174488D01*
X158680500Y-94078543D01*
X158680500Y-93881456D01*
X158642052Y-93688170D01*
X158642051Y-93688169D01*
X158642051Y-93688165D01*
X158581915Y-93542982D01*
X158566635Y-93506092D01*
X158566628Y-93506079D01*
X158457139Y-93342218D01*
X158457136Y-93342214D01*
X158317785Y-93202863D01*
X158317781Y-93202860D01*
X158153920Y-93093371D01*
X158153907Y-93093364D01*
X158082915Y-93063959D01*
X157971839Y-93017950D01*
X157971829Y-93017947D01*
X157778543Y-92979500D01*
X157778541Y-92979500D01*
X156581459Y-92979500D01*
X156581457Y-92979500D01*
X156388170Y-93017947D01*
X156388160Y-93017950D01*
X156206092Y-93093364D01*
X156206079Y-93093371D01*
X156042218Y-93202860D01*
X156042214Y-93202863D01*
X155902863Y-93342214D01*
X155902860Y-93342218D01*
X155793371Y-93506079D01*
X155793364Y-93506092D01*
X155717950Y-93688160D01*
X155717947Y-93688170D01*
X155679500Y-93881456D01*
X155679500Y-93881459D01*
X155679500Y-94078541D01*
X155679500Y-94078543D01*
X155679499Y-94078543D01*
X138960500Y-94078543D01*
X138960500Y-93881456D01*
X138922052Y-93688170D01*
X138922051Y-93688169D01*
X138922051Y-93688165D01*
X138861915Y-93542982D01*
X138846635Y-93506092D01*
X138846628Y-93506079D01*
X138737139Y-93342218D01*
X138737136Y-93342214D01*
X138597785Y-93202863D01*
X138597781Y-93202860D01*
X138433920Y-93093371D01*
X138433907Y-93093364D01*
X138251839Y-93017950D01*
X138251829Y-93017947D01*
X138058543Y-92979500D01*
X138058541Y-92979500D01*
X136861459Y-92979500D01*
X136861457Y-92979500D01*
X136668170Y-93017947D01*
X136668160Y-93017950D01*
X136486092Y-93093364D01*
X136486079Y-93093371D01*
X136322218Y-93202860D01*
X136322214Y-93202863D01*
X136182863Y-93342214D01*
X136182860Y-93342218D01*
X136073371Y-93506079D01*
X136073364Y-93506092D01*
X135997950Y-93688160D01*
X135997947Y-93688170D01*
X135959500Y-93881456D01*
X135959500Y-93881459D01*
X135959500Y-94078541D01*
X135959500Y-94078543D01*
X135959499Y-94078543D01*
X132139884Y-94078543D01*
X132087475Y-94064500D01*
X131942525Y-94064500D01*
X131813993Y-94098940D01*
X131802511Y-94102017D01*
X131676988Y-94174488D01*
X131676982Y-94174493D01*
X131574493Y-94276982D01*
X131574488Y-94276988D01*
X131502017Y-94402511D01*
X131502016Y-94402515D01*
X131464500Y-94542525D01*
X129794000Y-94542525D01*
X129794000Y-92957525D01*
X163025500Y-92957525D01*
X163025500Y-93102475D01*
X163063016Y-93242485D01*
X163063017Y-93242488D01*
X163135488Y-93368011D01*
X163135490Y-93368013D01*
X163135491Y-93368015D01*
X163237985Y-93470509D01*
X163237986Y-93470510D01*
X163237988Y-93470511D01*
X163363511Y-93542982D01*
X163363512Y-93542982D01*
X163363515Y-93542984D01*
X163503525Y-93580500D01*
X163503528Y-93580500D01*
X163648472Y-93580500D01*
X163648475Y-93580500D01*
X163788485Y-93542984D01*
X163914015Y-93470509D01*
X164016509Y-93368015D01*
X164088984Y-93242485D01*
X164126500Y-93102475D01*
X164126500Y-92957525D01*
X164088984Y-92817515D01*
X164016509Y-92691985D01*
X163914015Y-92589491D01*
X163914013Y-92589490D01*
X163914011Y-92589488D01*
X163788488Y-92517017D01*
X163788489Y-92517017D01*
X163777006Y-92513940D01*
X163648475Y-92479500D01*
X163503525Y-92479500D01*
X163374993Y-92513940D01*
X163363511Y-92517017D01*
X163237988Y-92589488D01*
X163237982Y-92589493D01*
X163135493Y-92691982D01*
X163135488Y-92691988D01*
X163063017Y-92817511D01*
X163063016Y-92817515D01*
X163025500Y-92957525D01*
X129794000Y-92957525D01*
X129794000Y-92002525D01*
X131464500Y-92002525D01*
X131464500Y-92147475D01*
X131483166Y-92217136D01*
X131502017Y-92287488D01*
X131574488Y-92413011D01*
X131574490Y-92413013D01*
X131574491Y-92413015D01*
X131676985Y-92515509D01*
X131676986Y-92515510D01*
X131676988Y-92515511D01*
X131802511Y-92587982D01*
X131802512Y-92587982D01*
X131802515Y-92587984D01*
X131942525Y-92625500D01*
X131942528Y-92625500D01*
X132087472Y-92625500D01*
X132087475Y-92625500D01*
X132227485Y-92587984D01*
X132353015Y-92515509D01*
X132455509Y-92413015D01*
X132527984Y-92287485D01*
X132565500Y-92147475D01*
X132565500Y-92002525D01*
X132527984Y-91862515D01*
X132455509Y-91736985D01*
X132353015Y-91634491D01*
X132353013Y-91634490D01*
X132353011Y-91634488D01*
X132227488Y-91562017D01*
X132227489Y-91562017D01*
X132216006Y-91558940D01*
X132139884Y-91538543D01*
X135959499Y-91538543D01*
X135997947Y-91731829D01*
X135997950Y-91731839D01*
X136073364Y-91913907D01*
X136073371Y-91913920D01*
X136182860Y-92077781D01*
X136182863Y-92077785D01*
X136322214Y-92217136D01*
X136322218Y-92217139D01*
X136486079Y-92326628D01*
X136486092Y-92326635D01*
X136668160Y-92402049D01*
X136668165Y-92402051D01*
X136668169Y-92402051D01*
X136668170Y-92402052D01*
X136861456Y-92440500D01*
X136861459Y-92440500D01*
X138058543Y-92440500D01*
X138196736Y-92413011D01*
X138251835Y-92402051D01*
X138433914Y-92326632D01*
X138597782Y-92217139D01*
X138737139Y-92077782D01*
X138846632Y-91913914D01*
X138922051Y-91731835D01*
X138941415Y-91634488D01*
X138960500Y-91538543D01*
X155679499Y-91538543D01*
X155717947Y-91731829D01*
X155717950Y-91731839D01*
X155793364Y-91913907D01*
X155793371Y-91913920D01*
X155902860Y-92077781D01*
X155902863Y-92077785D01*
X156042214Y-92217136D01*
X156042218Y-92217139D01*
X156206079Y-92326628D01*
X156206092Y-92326635D01*
X156388160Y-92402049D01*
X156388165Y-92402051D01*
X156388169Y-92402051D01*
X156388170Y-92402052D01*
X156581456Y-92440500D01*
X156581459Y-92440500D01*
X157778543Y-92440500D01*
X157916736Y-92413011D01*
X157971835Y-92402051D01*
X158153914Y-92326632D01*
X158317782Y-92217139D01*
X158457139Y-92077782D01*
X158566632Y-91913914D01*
X158642051Y-91731835D01*
X158661415Y-91634488D01*
X158680500Y-91538543D01*
X158680500Y-91341456D01*
X158642052Y-91148170D01*
X158642051Y-91148169D01*
X158642051Y-91148165D01*
X158642049Y-91148160D01*
X158566635Y-90966092D01*
X158566628Y-90966079D01*
X158457139Y-90802218D01*
X158457136Y-90802214D01*
X158317785Y-90662863D01*
X158317781Y-90662860D01*
X158153920Y-90553371D01*
X158153907Y-90553364D01*
X157971839Y-90477950D01*
X157971829Y-90477947D01*
X157778543Y-90439500D01*
X157778541Y-90439500D01*
X156581459Y-90439500D01*
X156581457Y-90439500D01*
X156388170Y-90477947D01*
X156388160Y-90477950D01*
X156206092Y-90553364D01*
X156206079Y-90553371D01*
X156042218Y-90662860D01*
X156042214Y-90662863D01*
X155902863Y-90802214D01*
X155902860Y-90802218D01*
X155793371Y-90966079D01*
X155793364Y-90966092D01*
X155717950Y-91148160D01*
X155717947Y-91148170D01*
X155679500Y-91341456D01*
X155679500Y-91341459D01*
X155679500Y-91538541D01*
X155679500Y-91538543D01*
X155679499Y-91538543D01*
X138960500Y-91538543D01*
X138960500Y-91341456D01*
X138922052Y-91148170D01*
X138922051Y-91148169D01*
X138922051Y-91148165D01*
X138922049Y-91148160D01*
X138846635Y-90966092D01*
X138846628Y-90966079D01*
X138737139Y-90802218D01*
X138737136Y-90802214D01*
X138597785Y-90662863D01*
X138597781Y-90662860D01*
X138433920Y-90553371D01*
X138433907Y-90553364D01*
X138251839Y-90477950D01*
X138251829Y-90477947D01*
X138058543Y-90439500D01*
X138058541Y-90439500D01*
X136861459Y-90439500D01*
X136861457Y-90439500D01*
X136668170Y-90477947D01*
X136668160Y-90477950D01*
X136486092Y-90553364D01*
X136486079Y-90553371D01*
X136322218Y-90662860D01*
X136322214Y-90662863D01*
X136182863Y-90802214D01*
X136182860Y-90802218D01*
X136073371Y-90966079D01*
X136073364Y-90966092D01*
X135997950Y-91148160D01*
X135997947Y-91148170D01*
X135959500Y-91341456D01*
X135959500Y-91341459D01*
X135959500Y-91538541D01*
X135959500Y-91538543D01*
X135959499Y-91538543D01*
X132139884Y-91538543D01*
X132087475Y-91524500D01*
X131942525Y-91524500D01*
X131813993Y-91558940D01*
X131802511Y-91562017D01*
X131676988Y-91634488D01*
X131676982Y-91634493D01*
X131574493Y-91736982D01*
X131574488Y-91736988D01*
X131502017Y-91862511D01*
X131502016Y-91862515D01*
X131464500Y-92002525D01*
X129794000Y-92002525D01*
X129794000Y-89827215D01*
X129813685Y-89760176D01*
X129866489Y-89714421D01*
X129935647Y-89704477D01*
X129999203Y-89733502D01*
X130005900Y-89740611D01*
X130006244Y-89740268D01*
X130011991Y-89746015D01*
X130114485Y-89848509D01*
X130114486Y-89848510D01*
X130114488Y-89848511D01*
X130240011Y-89920982D01*
X130240012Y-89920982D01*
X130240015Y-89920984D01*
X130380025Y-89958500D01*
X130380028Y-89958500D01*
X130524972Y-89958500D01*
X130524975Y-89958500D01*
X130664985Y-89920984D01*
X130790515Y-89848509D01*
X130893009Y-89746015D01*
X130965484Y-89620485D01*
X131003000Y-89480475D01*
X131003000Y-89335525D01*
X130965484Y-89195515D01*
X130915889Y-89109615D01*
X130893011Y-89069988D01*
X130893006Y-89069982D01*
X130790517Y-88967493D01*
X130790511Y-88967488D01*
X130664988Y-88895017D01*
X130664989Y-88895017D01*
X130653506Y-88891940D01*
X130524975Y-88857500D01*
X130380025Y-88857500D01*
X130251493Y-88891940D01*
X130240011Y-88895017D01*
X130114488Y-88967488D01*
X130114482Y-88967493D01*
X130006244Y-89075732D01*
X130003902Y-89073390D01*
X129959893Y-89105493D01*
X129890145Y-89109615D01*
X129829241Y-89075374D01*
X129796517Y-89013641D01*
X129794000Y-88988784D01*
X129794000Y-86287525D01*
X142197500Y-86287525D01*
X142197500Y-86432475D01*
X142235016Y-86572485D01*
X142235017Y-86572488D01*
X142307488Y-86698011D01*
X142307490Y-86698013D01*
X142307491Y-86698015D01*
X142409985Y-86800509D01*
X142409986Y-86800510D01*
X142409988Y-86800511D01*
X142535511Y-86872982D01*
X142535512Y-86872982D01*
X142535515Y-86872984D01*
X142539386Y-86874021D01*
X142543881Y-86875226D01*
X142603541Y-86911591D01*
X142634069Y-86974439D01*
X142625774Y-87043814D01*
X142581288Y-87097691D01*
X142543881Y-87114774D01*
X142535516Y-87117015D01*
X142535511Y-87117017D01*
X142409988Y-87189488D01*
X142409982Y-87189493D01*
X142307493Y-87291982D01*
X142307488Y-87291988D01*
X142235017Y-87417511D01*
X142235016Y-87417515D01*
X142197500Y-87557525D01*
X142197500Y-87702475D01*
X142235016Y-87842485D01*
X142235017Y-87842488D01*
X142307488Y-87968011D01*
X142307490Y-87968013D01*
X142307491Y-87968015D01*
X142409985Y-88070509D01*
X142409986Y-88070510D01*
X142409988Y-88070511D01*
X142535511Y-88142982D01*
X142535512Y-88142982D01*
X142535515Y-88142984D01*
X142675525Y-88180500D01*
X142675528Y-88180500D01*
X142820472Y-88180500D01*
X142820475Y-88180500D01*
X142960485Y-88142984D01*
X143086015Y-88070509D01*
X143188509Y-87968015D01*
X143260984Y-87842485D01*
X143298500Y-87702475D01*
X143298500Y-87557525D01*
X143260984Y-87417515D01*
X143218733Y-87344335D01*
X143188511Y-87291988D01*
X143188506Y-87291982D01*
X143086017Y-87189493D01*
X143086011Y-87189488D01*
X142960487Y-87117017D01*
X142960486Y-87117016D01*
X142960485Y-87117016D01*
X142952118Y-87114774D01*
X142892459Y-87078410D01*
X142861930Y-87015563D01*
X142870225Y-86946188D01*
X142914710Y-86892310D01*
X142952117Y-86875226D01*
X142960485Y-86872984D01*
X143086015Y-86800509D01*
X143188509Y-86698015D01*
X143260984Y-86572485D01*
X143298500Y-86432475D01*
X143298500Y-86287525D01*
X143260984Y-86147515D01*
X143188509Y-86021985D01*
X143086015Y-85919491D01*
X143086013Y-85919490D01*
X143086011Y-85919488D01*
X142960488Y-85847017D01*
X142960489Y-85847017D01*
X142949006Y-85843940D01*
X142820475Y-85809500D01*
X142675525Y-85809500D01*
X142546993Y-85843940D01*
X142535511Y-85847017D01*
X142409988Y-85919488D01*
X142409982Y-85919493D01*
X142307493Y-86021982D01*
X142307488Y-86021988D01*
X142235017Y-86147511D01*
X142235016Y-86147515D01*
X142197500Y-86287525D01*
X129794000Y-86287525D01*
X129794000Y-85604135D01*
X163317500Y-85604135D01*
X163317500Y-87149870D01*
X163317501Y-87149876D01*
X163323908Y-87209483D01*
X163374202Y-87344328D01*
X163374206Y-87344335D01*
X163460452Y-87459544D01*
X163460455Y-87459547D01*
X163575664Y-87545793D01*
X163575671Y-87545797D01*
X163710517Y-87596091D01*
X163710516Y-87596091D01*
X163717444Y-87596835D01*
X163770127Y-87602500D01*
X165065872Y-87602499D01*
X165125483Y-87596091D01*
X165260331Y-87545796D01*
X165375546Y-87459546D01*
X165461796Y-87344331D01*
X165512091Y-87209483D01*
X165518500Y-87149873D01*
X165518499Y-86165389D01*
X165817500Y-86165389D01*
X165817500Y-86588611D01*
X165844598Y-86759701D01*
X165893950Y-86911591D01*
X165898128Y-86924447D01*
X165923600Y-86974439D01*
X165976768Y-87078788D01*
X166078586Y-87218928D01*
X166201072Y-87341414D01*
X166341212Y-87443232D01*
X166495555Y-87521873D01*
X166660299Y-87575402D01*
X166831389Y-87602500D01*
X166831390Y-87602500D01*
X167004610Y-87602500D01*
X167004611Y-87602500D01*
X167175701Y-87575402D01*
X167340445Y-87521873D01*
X167494788Y-87443232D01*
X167634928Y-87341414D01*
X167757414Y-87218928D01*
X167859232Y-87078788D01*
X167937873Y-86924445D01*
X167991402Y-86759701D01*
X168018500Y-86588611D01*
X168018500Y-86165389D01*
X168317500Y-86165389D01*
X168317500Y-86588611D01*
X168344598Y-86759701D01*
X168393950Y-86911591D01*
X168398128Y-86924447D01*
X168423600Y-86974439D01*
X168476768Y-87078788D01*
X168578586Y-87218928D01*
X168701072Y-87341414D01*
X168841212Y-87443232D01*
X168995555Y-87521873D01*
X169160299Y-87575402D01*
X169331389Y-87602500D01*
X169331390Y-87602500D01*
X169504610Y-87602500D01*
X169504611Y-87602500D01*
X169675701Y-87575402D01*
X169840445Y-87521873D01*
X169994788Y-87443232D01*
X170134928Y-87341414D01*
X170257414Y-87218928D01*
X170359232Y-87078788D01*
X170437873Y-86924445D01*
X170491402Y-86759701D01*
X170518500Y-86588611D01*
X170518500Y-86165389D01*
X170817500Y-86165389D01*
X170817500Y-86588611D01*
X170844598Y-86759701D01*
X170893950Y-86911591D01*
X170898128Y-86924447D01*
X170923600Y-86974439D01*
X170976768Y-87078788D01*
X171078586Y-87218928D01*
X171201072Y-87341414D01*
X171341212Y-87443232D01*
X171495555Y-87521873D01*
X171660299Y-87575402D01*
X171831389Y-87602500D01*
X171831390Y-87602500D01*
X172004610Y-87602500D01*
X172004611Y-87602500D01*
X172175701Y-87575402D01*
X172340445Y-87521873D01*
X172494788Y-87443232D01*
X172634928Y-87341414D01*
X172757414Y-87218928D01*
X172859232Y-87078788D01*
X172937873Y-86924445D01*
X172991402Y-86759701D01*
X173018500Y-86588611D01*
X173018500Y-86165389D01*
X173317500Y-86165389D01*
X173317500Y-86588611D01*
X173344598Y-86759701D01*
X173393950Y-86911591D01*
X173398128Y-86924447D01*
X173423600Y-86974439D01*
X173476768Y-87078788D01*
X173578586Y-87218928D01*
X173701072Y-87341414D01*
X173841212Y-87443232D01*
X173995555Y-87521873D01*
X174160299Y-87575402D01*
X174331389Y-87602500D01*
X174331390Y-87602500D01*
X174504610Y-87602500D01*
X174504611Y-87602500D01*
X174675701Y-87575402D01*
X174840445Y-87521873D01*
X174994788Y-87443232D01*
X175134928Y-87341414D01*
X175257414Y-87218928D01*
X175359232Y-87078788D01*
X175437873Y-86924445D01*
X175491402Y-86759701D01*
X175518500Y-86588611D01*
X175518500Y-86165389D01*
X175491402Y-85994299D01*
X175437873Y-85829555D01*
X175359232Y-85675212D01*
X175257414Y-85535072D01*
X175134928Y-85412586D01*
X174994788Y-85310768D01*
X174840445Y-85232127D01*
X174675701Y-85178598D01*
X174675699Y-85178597D01*
X174675698Y-85178597D01*
X174544271Y-85157781D01*
X174504611Y-85151500D01*
X174331389Y-85151500D01*
X174291728Y-85157781D01*
X174160302Y-85178597D01*
X173995552Y-85232128D01*
X173841211Y-85310768D01*
X173761256Y-85368859D01*
X173701072Y-85412586D01*
X173701070Y-85412588D01*
X173701069Y-85412588D01*
X173578588Y-85535069D01*
X173578588Y-85535070D01*
X173578586Y-85535072D01*
X173571725Y-85544516D01*
X173476768Y-85675211D01*
X173398128Y-85829552D01*
X173344597Y-85994302D01*
X173340213Y-86021982D01*
X173317500Y-86165389D01*
X173018500Y-86165389D01*
X172991402Y-85994299D01*
X172937873Y-85829555D01*
X172859232Y-85675212D01*
X172757414Y-85535072D01*
X172634928Y-85412586D01*
X172494788Y-85310768D01*
X172340445Y-85232127D01*
X172175701Y-85178598D01*
X172175699Y-85178597D01*
X172175698Y-85178597D01*
X172044271Y-85157781D01*
X172004611Y-85151500D01*
X171831389Y-85151500D01*
X171791728Y-85157781D01*
X171660302Y-85178597D01*
X171495552Y-85232128D01*
X171341211Y-85310768D01*
X171261256Y-85368859D01*
X171201072Y-85412586D01*
X171201070Y-85412588D01*
X171201069Y-85412588D01*
X171078588Y-85535069D01*
X171078588Y-85535070D01*
X171078586Y-85535072D01*
X171071725Y-85544516D01*
X170976768Y-85675211D01*
X170898128Y-85829552D01*
X170844597Y-85994302D01*
X170840213Y-86021982D01*
X170817500Y-86165389D01*
X170518500Y-86165389D01*
X170491402Y-85994299D01*
X170437873Y-85829555D01*
X170359232Y-85675212D01*
X170257414Y-85535072D01*
X170134928Y-85412586D01*
X169994788Y-85310768D01*
X169840445Y-85232127D01*
X169675701Y-85178598D01*
X169675699Y-85178597D01*
X169675698Y-85178597D01*
X169544271Y-85157781D01*
X169504611Y-85151500D01*
X169331389Y-85151500D01*
X169291728Y-85157781D01*
X169160302Y-85178597D01*
X168995552Y-85232128D01*
X168841211Y-85310768D01*
X168761256Y-85368859D01*
X168701072Y-85412586D01*
X168701070Y-85412588D01*
X168701069Y-85412588D01*
X168578588Y-85535069D01*
X168578588Y-85535070D01*
X168578586Y-85535072D01*
X168571725Y-85544516D01*
X168476768Y-85675211D01*
X168398128Y-85829552D01*
X168344597Y-85994302D01*
X168340213Y-86021982D01*
X168317500Y-86165389D01*
X168018500Y-86165389D01*
X167991402Y-85994299D01*
X167937873Y-85829555D01*
X167859232Y-85675212D01*
X167757414Y-85535072D01*
X167634928Y-85412586D01*
X167494788Y-85310768D01*
X167340445Y-85232127D01*
X167175701Y-85178598D01*
X167175699Y-85178597D01*
X167175698Y-85178597D01*
X167044271Y-85157781D01*
X167004611Y-85151500D01*
X166831389Y-85151500D01*
X166791728Y-85157781D01*
X166660302Y-85178597D01*
X166495552Y-85232128D01*
X166341211Y-85310768D01*
X166261256Y-85368859D01*
X166201072Y-85412586D01*
X166201070Y-85412588D01*
X166201069Y-85412588D01*
X166078588Y-85535069D01*
X166078588Y-85535070D01*
X166078586Y-85535072D01*
X166071725Y-85544516D01*
X165976768Y-85675211D01*
X165898128Y-85829552D01*
X165844597Y-85994302D01*
X165840213Y-86021982D01*
X165817500Y-86165389D01*
X165518499Y-86165389D01*
X165518499Y-85604128D01*
X165512091Y-85544517D01*
X165508568Y-85535072D01*
X165461797Y-85409671D01*
X165461793Y-85409664D01*
X165375547Y-85294455D01*
X165375544Y-85294452D01*
X165260335Y-85208206D01*
X165260328Y-85208202D01*
X165125482Y-85157908D01*
X165125483Y-85157908D01*
X165065883Y-85151501D01*
X165065881Y-85151500D01*
X165065873Y-85151500D01*
X165065864Y-85151500D01*
X163770129Y-85151500D01*
X163770123Y-85151501D01*
X163710516Y-85157908D01*
X163575671Y-85208202D01*
X163575664Y-85208206D01*
X163460455Y-85294452D01*
X163460452Y-85294455D01*
X163374206Y-85409664D01*
X163374202Y-85409671D01*
X163323908Y-85544517D01*
X163317501Y-85604116D01*
X163317501Y-85604123D01*
X163317500Y-85604135D01*
X129794000Y-85604135D01*
X129794000Y-84452000D01*
X129813685Y-84384961D01*
X129866489Y-84339206D01*
X129918000Y-84328000D01*
X135128000Y-84328000D01*
X135128000Y-79093668D01*
X149584224Y-79093668D01*
X150571985Y-79093668D01*
X150550215Y-79131376D01*
X150512733Y-79271259D01*
X150512733Y-79416077D01*
X150550215Y-79555960D01*
X150571985Y-79593668D01*
X149584224Y-79593668D01*
X149598498Y-79683796D01*
X149669150Y-79901238D01*
X149772944Y-80104944D01*
X149907330Y-80289910D01*
X150068990Y-80451570D01*
X150253956Y-80585956D01*
X150367999Y-80644064D01*
X150418795Y-80692038D01*
X150435590Y-80759859D01*
X150413053Y-80825994D01*
X150384590Y-80854867D01*
X150231531Y-80966071D01*
X150231529Y-80966073D01*
X150231528Y-80966073D01*
X150097638Y-81099963D01*
X149986335Y-81253158D01*
X149900368Y-81421875D01*
X149900367Y-81421878D01*
X149841855Y-81601963D01*
X149812233Y-81788990D01*
X149812233Y-81978345D01*
X149841855Y-82165372D01*
X149900367Y-82345457D01*
X149900368Y-82345460D01*
X149986335Y-82514177D01*
X150097636Y-82667370D01*
X150231531Y-82801265D01*
X150384724Y-82912566D01*
X150467474Y-82954729D01*
X150553440Y-82998532D01*
X150553443Y-82998533D01*
X150643485Y-83027789D01*
X150733530Y-83057046D01*
X150920555Y-83086668D01*
X150920556Y-83086668D01*
X151204910Y-83086668D01*
X151204911Y-83086668D01*
X151391936Y-83057046D01*
X151572025Y-82998532D01*
X151740742Y-82912566D01*
X151893935Y-82801265D01*
X152027830Y-82667370D01*
X152139131Y-82514177D01*
X152225097Y-82345460D01*
X152283611Y-82165371D01*
X152313233Y-81978346D01*
X152313233Y-81788990D01*
X152283611Y-81601965D01*
X152225097Y-81421876D01*
X152225097Y-81421875D01*
X152139130Y-81253158D01*
X152027830Y-81099966D01*
X151893935Y-80966071D01*
X151740876Y-80854867D01*
X151698210Y-80799537D01*
X151692231Y-80729924D01*
X151724837Y-80668129D01*
X151757467Y-80644064D01*
X151871507Y-80585958D01*
X152056475Y-80451570D01*
X152218135Y-80289910D01*
X152352521Y-80104944D01*
X152456315Y-79901238D01*
X152526967Y-79683796D01*
X152541242Y-79593668D01*
X151553481Y-79593668D01*
X151575251Y-79555960D01*
X151612733Y-79416077D01*
X151612733Y-79271259D01*
X151575251Y-79131376D01*
X151553481Y-79093668D01*
X152541242Y-79093668D01*
X152526967Y-79003539D01*
X152456315Y-78786097D01*
X152352521Y-78582391D01*
X152218135Y-78397425D01*
X152056474Y-78235764D01*
X152044921Y-78227371D01*
X152002254Y-78172042D01*
X151996273Y-78102428D01*
X152028878Y-78040633D01*
X152089716Y-78006274D01*
X152093613Y-78005434D01*
X152160468Y-77992135D01*
X152160468Y-77992134D01*
X152160473Y-77992134D01*
X152243334Y-77936769D01*
X152298699Y-77853908D01*
X152313233Y-77780842D01*
X152313233Y-77529389D01*
X156693500Y-77529389D01*
X156693500Y-77952611D01*
X156695292Y-77963927D01*
X156719127Y-78114418D01*
X156720598Y-78123701D01*
X156774127Y-78288445D01*
X156852768Y-78442788D01*
X156954586Y-78582928D01*
X157077072Y-78705414D01*
X157217212Y-78807232D01*
X157371555Y-78885873D01*
X157536299Y-78939402D01*
X157707389Y-78966500D01*
X157707390Y-78966500D01*
X157880610Y-78966500D01*
X157880611Y-78966500D01*
X158051701Y-78939402D01*
X158216445Y-78885873D01*
X158370788Y-78807232D01*
X158510928Y-78705414D01*
X158633414Y-78582928D01*
X158735232Y-78442788D01*
X158813873Y-78288445D01*
X158867402Y-78123701D01*
X158894500Y-77952611D01*
X158894500Y-77529389D01*
X159193500Y-77529389D01*
X159193500Y-77952611D01*
X159195292Y-77963927D01*
X159219127Y-78114418D01*
X159220598Y-78123701D01*
X159274127Y-78288445D01*
X159352768Y-78442788D01*
X159454586Y-78582928D01*
X159577072Y-78705414D01*
X159717212Y-78807232D01*
X159871555Y-78885873D01*
X160036299Y-78939402D01*
X160207389Y-78966500D01*
X160207390Y-78966500D01*
X160380610Y-78966500D01*
X160380611Y-78966500D01*
X160551701Y-78939402D01*
X160716445Y-78885873D01*
X160870788Y-78807232D01*
X161010928Y-78705414D01*
X161133414Y-78582928D01*
X161235232Y-78442788D01*
X161298814Y-78317999D01*
X161346788Y-78267204D01*
X161414609Y-78250408D01*
X161480744Y-78272945D01*
X161524196Y-78327660D01*
X161527230Y-78335976D01*
X161542904Y-78384217D01*
X161639379Y-78573557D01*
X161764272Y-78745459D01*
X161764276Y-78745464D01*
X161914535Y-78895723D01*
X161914540Y-78895727D01*
X162086442Y-79020620D01*
X162275782Y-79117095D01*
X162477871Y-79182757D01*
X162544000Y-79193231D01*
X162544000Y-78145145D01*
X162610657Y-78183630D01*
X162731465Y-78216000D01*
X162856535Y-78216000D01*
X162977343Y-78183630D01*
X163044000Y-78145145D01*
X163044000Y-79193230D01*
X163110126Y-79182757D01*
X163110129Y-79182757D01*
X163312217Y-79117095D01*
X163501557Y-79020620D01*
X163673459Y-78895727D01*
X163673464Y-78895723D01*
X163823723Y-78745464D01*
X163823727Y-78745459D01*
X163948622Y-78573555D01*
X163966910Y-78537664D01*
X164014884Y-78486867D01*
X164082705Y-78470072D01*
X164148840Y-78492609D01*
X164192292Y-78547324D01*
X164197039Y-78566188D01*
X164198124Y-78565932D01*
X164199907Y-78573479D01*
X164250202Y-78708328D01*
X164250206Y-78708335D01*
X164336452Y-78823544D01*
X164336455Y-78823547D01*
X164451664Y-78909793D01*
X164451671Y-78909797D01*
X164586517Y-78960091D01*
X164586516Y-78960091D01*
X164593444Y-78960835D01*
X164646127Y-78966500D01*
X165941872Y-78966499D01*
X166001483Y-78960091D01*
X166136331Y-78909796D01*
X166251546Y-78823546D01*
X166337796Y-78708331D01*
X166388091Y-78573483D01*
X166394500Y-78513873D01*
X166394499Y-76968128D01*
X166388091Y-76908517D01*
X166384568Y-76899072D01*
X166337797Y-76773671D01*
X166337793Y-76773664D01*
X166251547Y-76658455D01*
X166251544Y-76658452D01*
X166136335Y-76572206D01*
X166136328Y-76572202D01*
X166001482Y-76521908D01*
X166001483Y-76521908D01*
X165941883Y-76515501D01*
X165941881Y-76515500D01*
X165941873Y-76515500D01*
X165941864Y-76515500D01*
X164646129Y-76515500D01*
X164646123Y-76515501D01*
X164586516Y-76521908D01*
X164451671Y-76572202D01*
X164451664Y-76572206D01*
X164336455Y-76658452D01*
X164336452Y-76658455D01*
X164250206Y-76773664D01*
X164250202Y-76773671D01*
X164199908Y-76908517D01*
X164198126Y-76916062D01*
X164194925Y-76915305D01*
X164173791Y-76966041D01*
X164116319Y-77005774D01*
X164046489Y-77008129D01*
X163986471Y-76972356D01*
X163966910Y-76944336D01*
X163948622Y-76908444D01*
X163823727Y-76736540D01*
X163823723Y-76736535D01*
X163673464Y-76586276D01*
X163673459Y-76586272D01*
X163501557Y-76461379D01*
X163312215Y-76364903D01*
X163110124Y-76299241D01*
X163044000Y-76288768D01*
X163044000Y-77336854D01*
X162977343Y-77298370D01*
X162856535Y-77266000D01*
X162731465Y-77266000D01*
X162610657Y-77298370D01*
X162544000Y-77336854D01*
X162544000Y-76288768D01*
X162543999Y-76288768D01*
X162477875Y-76299241D01*
X162275784Y-76364903D01*
X162086442Y-76461379D01*
X161914540Y-76586272D01*
X161914535Y-76586276D01*
X161764276Y-76736535D01*
X161764272Y-76736540D01*
X161639379Y-76908442D01*
X161542905Y-77097781D01*
X161527230Y-77146024D01*
X161487792Y-77203699D01*
X161423433Y-77230897D01*
X161354587Y-77218982D01*
X161303111Y-77171738D01*
X161298814Y-77163999D01*
X161235233Y-77039213D01*
X161186658Y-76972356D01*
X161133414Y-76899072D01*
X161010928Y-76776586D01*
X160870788Y-76674768D01*
X160716445Y-76596127D01*
X160551701Y-76542598D01*
X160551699Y-76542597D01*
X160551698Y-76542597D01*
X160420271Y-76521781D01*
X160380611Y-76515500D01*
X160207389Y-76515500D01*
X160167728Y-76521781D01*
X160036302Y-76542597D01*
X159871552Y-76596128D01*
X159717211Y-76674768D01*
X159637256Y-76732859D01*
X159577072Y-76776586D01*
X159577070Y-76776588D01*
X159577069Y-76776588D01*
X159454588Y-76899069D01*
X159454588Y-76899070D01*
X159454586Y-76899072D01*
X159447777Y-76908444D01*
X159352768Y-77039211D01*
X159274128Y-77193552D01*
X159220597Y-77358302D01*
X159193500Y-77529389D01*
X158894500Y-77529389D01*
X158867402Y-77358299D01*
X158813873Y-77193555D01*
X158735232Y-77039212D01*
X158633414Y-76899072D01*
X158510928Y-76776586D01*
X158370788Y-76674768D01*
X158216445Y-76596127D01*
X158051701Y-76542598D01*
X158051699Y-76542597D01*
X158051698Y-76542597D01*
X157920271Y-76521781D01*
X157880611Y-76515500D01*
X157707389Y-76515500D01*
X157667728Y-76521781D01*
X157536302Y-76542597D01*
X157371552Y-76596128D01*
X157217211Y-76674768D01*
X157137256Y-76732859D01*
X157077072Y-76776586D01*
X157077070Y-76776588D01*
X157077069Y-76776588D01*
X156954588Y-76899069D01*
X156954588Y-76899070D01*
X156954586Y-76899072D01*
X156947777Y-76908444D01*
X156852768Y-77039211D01*
X156774128Y-77193552D01*
X156720597Y-77358302D01*
X156693500Y-77529389D01*
X152313233Y-77529389D01*
X152313233Y-75826494D01*
X152313233Y-75826491D01*
X152313232Y-75826489D01*
X152298700Y-75753432D01*
X152298699Y-75753428D01*
X152295294Y-75748332D01*
X152243334Y-75670567D01*
X152160473Y-75615202D01*
X152160472Y-75615201D01*
X152160468Y-75615200D01*
X152087410Y-75600668D01*
X152087407Y-75600668D01*
X150038059Y-75600668D01*
X150038056Y-75600668D01*
X149964997Y-75615200D01*
X149964993Y-75615201D01*
X149882132Y-75670567D01*
X149826766Y-75753428D01*
X149826765Y-75753432D01*
X149812233Y-75826489D01*
X149812233Y-77780846D01*
X149826765Y-77853903D01*
X149826766Y-77853907D01*
X149826767Y-77853908D01*
X149882132Y-77936769D01*
X149922778Y-77963927D01*
X149964993Y-77992134D01*
X149964997Y-77992135D01*
X150031852Y-78005434D01*
X150093763Y-78037819D01*
X150128337Y-78098535D01*
X150124598Y-78168304D01*
X150083731Y-78224976D01*
X150080547Y-78227368D01*
X150068999Y-78235758D01*
X150068990Y-78235765D01*
X149907330Y-78397425D01*
X149772944Y-78582391D01*
X149669150Y-78786097D01*
X149598498Y-79003539D01*
X149584224Y-79093668D01*
X135128000Y-79093668D01*
X135128000Y-76527813D01*
X139830500Y-76527813D01*
X139830500Y-76707186D01*
X139858557Y-76884330D01*
X139858558Y-76884334D01*
X139913984Y-77054916D01*
X139989792Y-77203699D01*
X139995414Y-77214731D01*
X140100832Y-77359828D01*
X140100836Y-77359833D01*
X140227666Y-77486663D01*
X140227671Y-77486667D01*
X140354232Y-77578618D01*
X140372772Y-77592088D01*
X140532584Y-77673516D01*
X140703166Y-77728942D01*
X140769598Y-77739463D01*
X140880314Y-77757000D01*
X140880319Y-77757000D01*
X141059686Y-77757000D01*
X141158099Y-77741412D01*
X141236834Y-77728942D01*
X141407416Y-77673516D01*
X141567228Y-77592088D01*
X141712335Y-77486662D01*
X141839162Y-77359835D01*
X141944588Y-77214728D01*
X142026016Y-77054916D01*
X142081442Y-76884334D01*
X142098507Y-76776588D01*
X142109500Y-76707186D01*
X142109500Y-76527813D01*
X142370500Y-76527813D01*
X142370500Y-76707186D01*
X142398557Y-76884330D01*
X142398558Y-76884334D01*
X142453984Y-77054916D01*
X142529792Y-77203699D01*
X142535414Y-77214731D01*
X142640832Y-77359828D01*
X142640836Y-77359833D01*
X142767666Y-77486663D01*
X142767671Y-77486667D01*
X142894232Y-77578618D01*
X142912772Y-77592088D01*
X143072584Y-77673516D01*
X143243166Y-77728942D01*
X143309598Y-77739463D01*
X143420314Y-77757000D01*
X143420319Y-77757000D01*
X143599686Y-77757000D01*
X143698099Y-77741412D01*
X143776834Y-77728942D01*
X143947416Y-77673516D01*
X144107228Y-77592088D01*
X144252335Y-77486662D01*
X144379162Y-77359835D01*
X144484588Y-77214728D01*
X144566016Y-77054916D01*
X144621442Y-76884334D01*
X144638507Y-76776588D01*
X144649500Y-76707186D01*
X144649500Y-76527813D01*
X144910500Y-76527813D01*
X144910500Y-76707186D01*
X144938557Y-76884330D01*
X144938558Y-76884334D01*
X144993984Y-77054916D01*
X145069792Y-77203699D01*
X145075414Y-77214731D01*
X145180832Y-77359828D01*
X145180836Y-77359833D01*
X145307666Y-77486663D01*
X145307671Y-77486667D01*
X145434232Y-77578618D01*
X145452772Y-77592088D01*
X145612584Y-77673516D01*
X145783166Y-77728942D01*
X145849598Y-77739463D01*
X145960314Y-77757000D01*
X145960319Y-77757000D01*
X146139686Y-77757000D01*
X146238099Y-77741412D01*
X146316834Y-77728942D01*
X146487416Y-77673516D01*
X146647228Y-77592088D01*
X146792335Y-77486662D01*
X146919162Y-77359835D01*
X147024588Y-77214728D01*
X147106016Y-77054916D01*
X147161442Y-76884334D01*
X147178507Y-76776588D01*
X147189500Y-76707186D01*
X147189500Y-76527813D01*
X147162318Y-76356197D01*
X147161442Y-76350666D01*
X147106016Y-76180084D01*
X147024588Y-76020272D01*
X146982773Y-75962718D01*
X146919167Y-75875171D01*
X146919163Y-75875166D01*
X146792333Y-75748336D01*
X146792328Y-75748332D01*
X146647231Y-75642914D01*
X146647230Y-75642913D01*
X146647228Y-75642912D01*
X146487416Y-75561484D01*
X146316834Y-75506058D01*
X146316832Y-75506057D01*
X146316830Y-75506057D01*
X146139686Y-75478000D01*
X146139681Y-75478000D01*
X145960319Y-75478000D01*
X145960314Y-75478000D01*
X145783169Y-75506057D01*
X145612581Y-75561485D01*
X145452768Y-75642914D01*
X145307671Y-75748332D01*
X145307666Y-75748336D01*
X145180836Y-75875166D01*
X145180832Y-75875171D01*
X145075414Y-76020268D01*
X144993985Y-76180081D01*
X144938557Y-76350669D01*
X144910500Y-76527813D01*
X144649500Y-76527813D01*
X144622318Y-76356197D01*
X144621442Y-76350666D01*
X144566016Y-76180084D01*
X144484588Y-76020272D01*
X144442773Y-75962718D01*
X144379167Y-75875171D01*
X144379163Y-75875166D01*
X144252333Y-75748336D01*
X144252328Y-75748332D01*
X144107231Y-75642914D01*
X144107230Y-75642913D01*
X144107228Y-75642912D01*
X143947416Y-75561484D01*
X143776834Y-75506058D01*
X143776832Y-75506057D01*
X143776830Y-75506057D01*
X143599686Y-75478000D01*
X143599681Y-75478000D01*
X143420319Y-75478000D01*
X143420314Y-75478000D01*
X143243169Y-75506057D01*
X143072581Y-75561485D01*
X142912768Y-75642914D01*
X142767671Y-75748332D01*
X142767666Y-75748336D01*
X142640836Y-75875166D01*
X142640832Y-75875171D01*
X142535414Y-76020268D01*
X142453985Y-76180081D01*
X142398557Y-76350669D01*
X142370500Y-76527813D01*
X142109500Y-76527813D01*
X142082318Y-76356197D01*
X142081442Y-76350666D01*
X142026016Y-76180084D01*
X141944588Y-76020272D01*
X141902773Y-75962718D01*
X141839167Y-75875171D01*
X141839163Y-75875166D01*
X141712333Y-75748336D01*
X141712328Y-75748332D01*
X141567231Y-75642914D01*
X141567230Y-75642913D01*
X141567228Y-75642912D01*
X141407416Y-75561484D01*
X141236834Y-75506058D01*
X141236832Y-75506057D01*
X141236830Y-75506057D01*
X141059686Y-75478000D01*
X141059681Y-75478000D01*
X140880319Y-75478000D01*
X140880314Y-75478000D01*
X140703169Y-75506057D01*
X140532581Y-75561485D01*
X140372768Y-75642914D01*
X140227671Y-75748332D01*
X140227666Y-75748336D01*
X140100836Y-75875166D01*
X140100832Y-75875171D01*
X139995414Y-76020268D01*
X139913985Y-76180081D01*
X139858557Y-76350669D01*
X139830500Y-76527813D01*
X135128000Y-76527813D01*
X135128000Y-74292000D01*
X135147685Y-74224961D01*
X135200489Y-74179206D01*
X135252000Y-74168000D01*
X172240638Y-74168000D01*
X172307677Y-74187685D01*
G37*
%TD.AperFunction*%
%TD*%
M02*
