M48
; DRILL file {KiCad 9.0.6} date 2025-12-08T01:14:51-0600
; FORMAT={-:-/ absolute / metric / decimal}
; #@! TF.CreationDate,2025-12-08T01:14:51-06:00
; #@! TF.GenerationSoftware,Kicad,Pcbnew,9.0.6
; #@! TF.FileFunction,Plated,1,4,PTH
FMAT,2
METRIC
; #@! TA.AperFunction,Plated,PTH,ComponentDrill
T1C0.800
; #@! TA.AperFunction,Plated,PTH,ComponentDrill
T2C0.950
; #@! TA.AperFunction,Plated,PTH,ComponentDrill
T3C1.000
; #@! TA.AperFunction,Plated,PTH,ComponentDrill
T4C1.020
; #@! TA.AperFunction,Plated,PTH,ComponentDrill
T5C1.100
; #@! TA.AperFunction,Plated,PTH,ComponentDrill
T6C1.300
%
G90
G05
T1
X105.13Y-109.894
X112.378Y-115.57
X112.378Y-123.19
X112.75Y-109.894
X115.57Y-73.66
X115.57Y-81.28
X115.57Y-88.9
X115.57Y-96.52
X115.674Y-104.206
X115.674Y-111.826
X121.857Y-72.202
X129.477Y-72.202
X154.94Y-128.27
X154.94Y-135.89
X160.967Y-124.266
X161.031Y-111.656
X168.587Y-124.266
X168.651Y-111.656
T2
X106.68Y-142.24
X109.18Y-142.24
X111.68Y-142.24
X139.7Y-129.66
X139.7Y-132.16
X139.7Y-134.66
X139.7Y-137.16
X147.4Y-142.24
X149.9Y-142.24
X152.4Y-142.24
X154.9Y-142.24
X165.625Y-86.52
X165.625Y-89.02
X165.625Y-91.52
X165.625Y-94.02
X165.625Y-96.52
T3
X105.38Y-119.571
X105.38Y-122.071
X106.654Y-34.382
X106.654Y-52.162
X116.84Y-56.297
X119.38Y-56.297
X119.38Y-77.37
X119.38Y-79.91
X119.38Y-82.45
X119.38Y-84.99
X119.38Y-88.8
X119.38Y-91.34
X119.38Y-93.88
X119.38Y-96.42
X119.38Y-100.23
X119.38Y-102.77
X119.38Y-105.31
X119.38Y-107.85
X119.38Y-111.66
X119.38Y-114.2
X119.38Y-116.74
X119.38Y-119.28
X119.38Y-130.81
X119.38Y-133.35
X119.38Y-135.89
X119.38Y-138.43
X121.92Y-56.297
X129.54Y-56.297
X132.08Y-56.297
X132.08Y-77.37
X132.08Y-79.91
X132.08Y-82.45
X132.08Y-84.99
X132.08Y-88.8
X132.08Y-91.34
X132.08Y-93.88
X132.08Y-96.42
X132.08Y-100.23
X132.08Y-102.77
X132.08Y-105.31
X132.08Y-107.85
X132.08Y-111.66
X132.08Y-114.2
X132.08Y-116.74
X132.08Y-119.28
X132.08Y-130.81
X132.08Y-133.35
X132.08Y-135.89
X132.08Y-138.43
X134.62Y-56.297
X137.052Y-80.01
X137.052Y-82.55
X137.052Y-85.09
X137.052Y-87.63
X137.052Y-90.17
X137.052Y-92.71
X137.052Y-95.25
X137.052Y-97.79
X137.052Y-100.33
X137.052Y-102.87
X137.052Y-105.41
X137.052Y-107.95
X146.024Y-34.382
X146.024Y-52.162
X157.373Y-80.01
X157.373Y-82.55
X157.373Y-85.09
X157.373Y-87.63
X157.373Y-90.17
X157.373Y-92.71
X157.373Y-95.25
X157.373Y-97.79
X157.373Y-100.33
X157.373Y-102.87
X157.373Y-105.41
X157.373Y-107.95
X157.373Y-110.49
X157.373Y-113.03
X157.373Y-115.57
X157.373Y-118.11
X165.625Y-104.14
X165.625Y-106.64
X165.625Y-116.88
X165.625Y-119.38
T4
X104.15Y-73.66
X104.15Y-81.28
X104.15Y-88.9
X104.15Y-96.52
X104.15Y-104.04
X106.69Y-73.66
X106.69Y-81.28
X106.69Y-88.9
X106.69Y-96.52
X106.69Y-104.04
X109.23Y-73.66
X109.23Y-81.28
X109.23Y-88.9
X109.23Y-96.52
X109.23Y-104.04
X111.77Y-73.66
X111.77Y-81.28
X111.77Y-88.9
X111.77Y-96.52
X111.77Y-104.04
T5
X116.276Y-65.397
X118.816Y-65.397
X121.356Y-65.397
X130.031Y-65.449
X132.571Y-65.449
X135.111Y-65.449
T6
X96.53Y-86.36
X96.53Y-91.44
M30
