%TF.GenerationSoftware,KiCad,Pcbnew,9.0.6*%
%TF.CreationDate,2025-12-08T01:14:47-06:00*%
%TF.ProjectId,1000W Controller,31303030-5720-4436-9f6e-74726f6c6c65,rev?*%
%TF.SameCoordinates,Original*%
%TF.FileFunction,Legend,Top*%
%TF.FilePolarity,Positive*%
%FSLAX46Y46*%
G04 Gerber Fmt 4.6, Leading zero omitted, Abs format (unit mm)*
G04 Created by KiCad (PCBNEW 9.0.6) date 2025-12-08 01:14:47*
%MOMM*%
%LPD*%
G01*
G04 APERTURE LIST*
%ADD10C,0.150000*%
%ADD11C,0.100000*%
%ADD12C,0.120000*%
G04 APERTURE END LIST*
D10*
X118394819Y-77636666D02*
X117918628Y-77969999D01*
X118394819Y-78208094D02*
X117394819Y-78208094D01*
X117394819Y-78208094D02*
X117394819Y-77827142D01*
X117394819Y-77827142D02*
X117442438Y-77731904D01*
X117442438Y-77731904D02*
X117490057Y-77684285D01*
X117490057Y-77684285D02*
X117585295Y-77636666D01*
X117585295Y-77636666D02*
X117728152Y-77636666D01*
X117728152Y-77636666D02*
X117823390Y-77684285D01*
X117823390Y-77684285D02*
X117871009Y-77731904D01*
X117871009Y-77731904D02*
X117918628Y-77827142D01*
X117918628Y-77827142D02*
X117918628Y-78208094D01*
X117823390Y-77065237D02*
X117775771Y-77160475D01*
X117775771Y-77160475D02*
X117728152Y-77208094D01*
X117728152Y-77208094D02*
X117632914Y-77255713D01*
X117632914Y-77255713D02*
X117585295Y-77255713D01*
X117585295Y-77255713D02*
X117490057Y-77208094D01*
X117490057Y-77208094D02*
X117442438Y-77160475D01*
X117442438Y-77160475D02*
X117394819Y-77065237D01*
X117394819Y-77065237D02*
X117394819Y-76874761D01*
X117394819Y-76874761D02*
X117442438Y-76779523D01*
X117442438Y-76779523D02*
X117490057Y-76731904D01*
X117490057Y-76731904D02*
X117585295Y-76684285D01*
X117585295Y-76684285D02*
X117632914Y-76684285D01*
X117632914Y-76684285D02*
X117728152Y-76731904D01*
X117728152Y-76731904D02*
X117775771Y-76779523D01*
X117775771Y-76779523D02*
X117823390Y-76874761D01*
X117823390Y-76874761D02*
X117823390Y-77065237D01*
X117823390Y-77065237D02*
X117871009Y-77160475D01*
X117871009Y-77160475D02*
X117918628Y-77208094D01*
X117918628Y-77208094D02*
X118013866Y-77255713D01*
X118013866Y-77255713D02*
X118204342Y-77255713D01*
X118204342Y-77255713D02*
X118299580Y-77208094D01*
X118299580Y-77208094D02*
X118347200Y-77160475D01*
X118347200Y-77160475D02*
X118394819Y-77065237D01*
X118394819Y-77065237D02*
X118394819Y-76874761D01*
X118394819Y-76874761D02*
X118347200Y-76779523D01*
X118347200Y-76779523D02*
X118299580Y-76731904D01*
X118299580Y-76731904D02*
X118204342Y-76684285D01*
X118204342Y-76684285D02*
X118013866Y-76684285D01*
X118013866Y-76684285D02*
X117918628Y-76731904D01*
X117918628Y-76731904D02*
X117871009Y-76779523D01*
X117871009Y-76779523D02*
X117823390Y-76874761D01*
X113654819Y-92876666D02*
X113178628Y-93209999D01*
X113654819Y-93448094D02*
X112654819Y-93448094D01*
X112654819Y-93448094D02*
X112654819Y-93067142D01*
X112654819Y-93067142D02*
X112702438Y-92971904D01*
X112702438Y-92971904D02*
X112750057Y-92924285D01*
X112750057Y-92924285D02*
X112845295Y-92876666D01*
X112845295Y-92876666D02*
X112988152Y-92876666D01*
X112988152Y-92876666D02*
X113083390Y-92924285D01*
X113083390Y-92924285D02*
X113131009Y-92971904D01*
X113131009Y-92971904D02*
X113178628Y-93067142D01*
X113178628Y-93067142D02*
X113178628Y-93448094D01*
X112654819Y-92543332D02*
X112654819Y-91876666D01*
X112654819Y-91876666D02*
X113654819Y-92305237D01*
X118498712Y-108182979D02*
X118022521Y-108516312D01*
X118498712Y-108754407D02*
X117498712Y-108754407D01*
X117498712Y-108754407D02*
X117498712Y-108373455D01*
X117498712Y-108373455D02*
X117546331Y-108278217D01*
X117546331Y-108278217D02*
X117593950Y-108230598D01*
X117593950Y-108230598D02*
X117689188Y-108182979D01*
X117689188Y-108182979D02*
X117832045Y-108182979D01*
X117832045Y-108182979D02*
X117927283Y-108230598D01*
X117927283Y-108230598D02*
X117974902Y-108278217D01*
X117974902Y-108278217D02*
X118022521Y-108373455D01*
X118022521Y-108373455D02*
X118022521Y-108754407D01*
X117498712Y-107325836D02*
X117498712Y-107516312D01*
X117498712Y-107516312D02*
X117546331Y-107611550D01*
X117546331Y-107611550D02*
X117593950Y-107659169D01*
X117593950Y-107659169D02*
X117736807Y-107754407D01*
X117736807Y-107754407D02*
X117927283Y-107802026D01*
X117927283Y-107802026D02*
X118308235Y-107802026D01*
X118308235Y-107802026D02*
X118403473Y-107754407D01*
X118403473Y-107754407D02*
X118451093Y-107706788D01*
X118451093Y-107706788D02*
X118498712Y-107611550D01*
X118498712Y-107611550D02*
X118498712Y-107421074D01*
X118498712Y-107421074D02*
X118451093Y-107325836D01*
X118451093Y-107325836D02*
X118403473Y-107278217D01*
X118403473Y-107278217D02*
X118308235Y-107230598D01*
X118308235Y-107230598D02*
X118070140Y-107230598D01*
X118070140Y-107230598D02*
X117974902Y-107278217D01*
X117974902Y-107278217D02*
X117927283Y-107325836D01*
X117927283Y-107325836D02*
X117879664Y-107421074D01*
X117879664Y-107421074D02*
X117879664Y-107611550D01*
X117879664Y-107611550D02*
X117927283Y-107706788D01*
X117927283Y-107706788D02*
X117974902Y-107754407D01*
X117974902Y-107754407D02*
X118070140Y-107802026D01*
X106911904Y-77661009D02*
X106578571Y-77661009D01*
X106578571Y-78184819D02*
X106578571Y-77184819D01*
X106578571Y-77184819D02*
X107054761Y-77184819D01*
X107864285Y-78184819D02*
X107864285Y-77661009D01*
X107864285Y-77661009D02*
X107816666Y-77565771D01*
X107816666Y-77565771D02*
X107721428Y-77518152D01*
X107721428Y-77518152D02*
X107530952Y-77518152D01*
X107530952Y-77518152D02*
X107435714Y-77565771D01*
X107864285Y-78137200D02*
X107769047Y-78184819D01*
X107769047Y-78184819D02*
X107530952Y-78184819D01*
X107530952Y-78184819D02*
X107435714Y-78137200D01*
X107435714Y-78137200D02*
X107388095Y-78041961D01*
X107388095Y-78041961D02*
X107388095Y-77946723D01*
X107388095Y-77946723D02*
X107435714Y-77851485D01*
X107435714Y-77851485D02*
X107530952Y-77803866D01*
X107530952Y-77803866D02*
X107769047Y-77803866D01*
X107769047Y-77803866D02*
X107864285Y-77756247D01*
X108340476Y-77518152D02*
X108340476Y-78184819D01*
X108340476Y-77613390D02*
X108388095Y-77565771D01*
X108388095Y-77565771D02*
X108483333Y-77518152D01*
X108483333Y-77518152D02*
X108626190Y-77518152D01*
X108626190Y-77518152D02*
X108721428Y-77565771D01*
X108721428Y-77565771D02*
X108769047Y-77661009D01*
X108769047Y-77661009D02*
X108769047Y-78184819D01*
X109197619Y-77280057D02*
X109245238Y-77232438D01*
X109245238Y-77232438D02*
X109340476Y-77184819D01*
X109340476Y-77184819D02*
X109578571Y-77184819D01*
X109578571Y-77184819D02*
X109673809Y-77232438D01*
X109673809Y-77232438D02*
X109721428Y-77280057D01*
X109721428Y-77280057D02*
X109769047Y-77375295D01*
X109769047Y-77375295D02*
X109769047Y-77470533D01*
X109769047Y-77470533D02*
X109721428Y-77613390D01*
X109721428Y-77613390D02*
X109150000Y-78184819D01*
X109150000Y-78184819D02*
X109769047Y-78184819D01*
X89664819Y-89233333D02*
X90379104Y-89233333D01*
X90379104Y-89233333D02*
X90521961Y-89280952D01*
X90521961Y-89280952D02*
X90617200Y-89376190D01*
X90617200Y-89376190D02*
X90664819Y-89519047D01*
X90664819Y-89519047D02*
X90664819Y-89614285D01*
X90664819Y-88233333D02*
X90664819Y-88804761D01*
X90664819Y-88519047D02*
X89664819Y-88519047D01*
X89664819Y-88519047D02*
X89807676Y-88614285D01*
X89807676Y-88614285D02*
X89902914Y-88709523D01*
X89902914Y-88709523D02*
X89950533Y-88804761D01*
X106911904Y-92901009D02*
X106578571Y-92901009D01*
X106578571Y-93424819D02*
X106578571Y-92424819D01*
X106578571Y-92424819D02*
X107054761Y-92424819D01*
X107864285Y-93424819D02*
X107864285Y-92901009D01*
X107864285Y-92901009D02*
X107816666Y-92805771D01*
X107816666Y-92805771D02*
X107721428Y-92758152D01*
X107721428Y-92758152D02*
X107530952Y-92758152D01*
X107530952Y-92758152D02*
X107435714Y-92805771D01*
X107864285Y-93377200D02*
X107769047Y-93424819D01*
X107769047Y-93424819D02*
X107530952Y-93424819D01*
X107530952Y-93424819D02*
X107435714Y-93377200D01*
X107435714Y-93377200D02*
X107388095Y-93281961D01*
X107388095Y-93281961D02*
X107388095Y-93186723D01*
X107388095Y-93186723D02*
X107435714Y-93091485D01*
X107435714Y-93091485D02*
X107530952Y-93043866D01*
X107530952Y-93043866D02*
X107769047Y-93043866D01*
X107769047Y-93043866D02*
X107864285Y-92996247D01*
X108340476Y-92758152D02*
X108340476Y-93424819D01*
X108340476Y-92853390D02*
X108388095Y-92805771D01*
X108388095Y-92805771D02*
X108483333Y-92758152D01*
X108483333Y-92758152D02*
X108626190Y-92758152D01*
X108626190Y-92758152D02*
X108721428Y-92805771D01*
X108721428Y-92805771D02*
X108769047Y-92901009D01*
X108769047Y-92901009D02*
X108769047Y-93424819D01*
X109673809Y-92758152D02*
X109673809Y-93424819D01*
X109435714Y-92377200D02*
X109197619Y-93091485D01*
X109197619Y-93091485D02*
X109816666Y-93091485D01*
X108182798Y-120118094D02*
X107182798Y-120118094D01*
X107182798Y-120118094D02*
X107182798Y-119879999D01*
X107182798Y-119879999D02*
X107230417Y-119737142D01*
X107230417Y-119737142D02*
X107325655Y-119641904D01*
X107325655Y-119641904D02*
X107420893Y-119594285D01*
X107420893Y-119594285D02*
X107611369Y-119546666D01*
X107611369Y-119546666D02*
X107754226Y-119546666D01*
X107754226Y-119546666D02*
X107944702Y-119594285D01*
X107944702Y-119594285D02*
X108039940Y-119641904D01*
X108039940Y-119641904D02*
X108135179Y-119737142D01*
X108135179Y-119737142D02*
X108182798Y-119879999D01*
X108182798Y-119879999D02*
X108182798Y-120118094D01*
X108182798Y-118594285D02*
X108182798Y-119165713D01*
X108182798Y-118879999D02*
X107182798Y-118879999D01*
X107182798Y-118879999D02*
X107325655Y-118975237D01*
X107325655Y-118975237D02*
X107420893Y-119070475D01*
X107420893Y-119070475D02*
X107468512Y-119165713D01*
X108502798Y-123451904D02*
X107502798Y-123451904D01*
X108502798Y-122880476D02*
X107931369Y-123309047D01*
X107502798Y-122880476D02*
X108074226Y-123451904D01*
X108250002Y-114258855D02*
X108202383Y-114354093D01*
X108202383Y-114354093D02*
X108107145Y-114449331D01*
X108107145Y-114449331D02*
X107964287Y-114592188D01*
X107964287Y-114592188D02*
X107916668Y-114687426D01*
X107916668Y-114687426D02*
X107916668Y-114782664D01*
X108154764Y-114735045D02*
X108107145Y-114830283D01*
X108107145Y-114830283D02*
X108011906Y-114925521D01*
X108011906Y-114925521D02*
X107821430Y-114973140D01*
X107821430Y-114973140D02*
X107488097Y-114973140D01*
X107488097Y-114973140D02*
X107297621Y-114925521D01*
X107297621Y-114925521D02*
X107202383Y-114830283D01*
X107202383Y-114830283D02*
X107154764Y-114735045D01*
X107154764Y-114735045D02*
X107154764Y-114544569D01*
X107154764Y-114544569D02*
X107202383Y-114449331D01*
X107202383Y-114449331D02*
X107297621Y-114354093D01*
X107297621Y-114354093D02*
X107488097Y-114306474D01*
X107488097Y-114306474D02*
X107821430Y-114306474D01*
X107821430Y-114306474D02*
X108011906Y-114354093D01*
X108011906Y-114354093D02*
X108107145Y-114449331D01*
X108107145Y-114449331D02*
X108154764Y-114544569D01*
X108154764Y-114544569D02*
X108154764Y-114735045D01*
X108154764Y-113354093D02*
X108154764Y-113925521D01*
X108154764Y-113639807D02*
X107154764Y-113639807D01*
X107154764Y-113639807D02*
X107297621Y-113735045D01*
X107297621Y-113735045D02*
X107392859Y-113830283D01*
X107392859Y-113830283D02*
X107440478Y-113925521D01*
X101284876Y-121154171D02*
X101999161Y-121154171D01*
X101999161Y-121154171D02*
X102142018Y-121201790D01*
X102142018Y-121201790D02*
X102237257Y-121297028D01*
X102237257Y-121297028D02*
X102284876Y-121439885D01*
X102284876Y-121439885D02*
X102284876Y-121535123D01*
X101380114Y-120725599D02*
X101332495Y-120677980D01*
X101332495Y-120677980D02*
X101284876Y-120582742D01*
X101284876Y-120582742D02*
X101284876Y-120344647D01*
X101284876Y-120344647D02*
X101332495Y-120249409D01*
X101332495Y-120249409D02*
X101380114Y-120201790D01*
X101380114Y-120201790D02*
X101475352Y-120154171D01*
X101475352Y-120154171D02*
X101570590Y-120154171D01*
X101570590Y-120154171D02*
X101713447Y-120201790D01*
X101713447Y-120201790D02*
X102284876Y-120773218D01*
X102284876Y-120773218D02*
X102284876Y-120154171D01*
X106911904Y-85281009D02*
X106578571Y-85281009D01*
X106578571Y-85804819D02*
X106578571Y-84804819D01*
X106578571Y-84804819D02*
X107054761Y-84804819D01*
X107864285Y-85804819D02*
X107864285Y-85281009D01*
X107864285Y-85281009D02*
X107816666Y-85185771D01*
X107816666Y-85185771D02*
X107721428Y-85138152D01*
X107721428Y-85138152D02*
X107530952Y-85138152D01*
X107530952Y-85138152D02*
X107435714Y-85185771D01*
X107864285Y-85757200D02*
X107769047Y-85804819D01*
X107769047Y-85804819D02*
X107530952Y-85804819D01*
X107530952Y-85804819D02*
X107435714Y-85757200D01*
X107435714Y-85757200D02*
X107388095Y-85661961D01*
X107388095Y-85661961D02*
X107388095Y-85566723D01*
X107388095Y-85566723D02*
X107435714Y-85471485D01*
X107435714Y-85471485D02*
X107530952Y-85423866D01*
X107530952Y-85423866D02*
X107769047Y-85423866D01*
X107769047Y-85423866D02*
X107864285Y-85376247D01*
X108340476Y-85138152D02*
X108340476Y-85804819D01*
X108340476Y-85233390D02*
X108388095Y-85185771D01*
X108388095Y-85185771D02*
X108483333Y-85138152D01*
X108483333Y-85138152D02*
X108626190Y-85138152D01*
X108626190Y-85138152D02*
X108721428Y-85185771D01*
X108721428Y-85185771D02*
X108769047Y-85281009D01*
X108769047Y-85281009D02*
X108769047Y-85804819D01*
X109150000Y-84804819D02*
X109769047Y-84804819D01*
X109769047Y-84804819D02*
X109435714Y-85185771D01*
X109435714Y-85185771D02*
X109578571Y-85185771D01*
X109578571Y-85185771D02*
X109673809Y-85233390D01*
X109673809Y-85233390D02*
X109721428Y-85281009D01*
X109721428Y-85281009D02*
X109769047Y-85376247D01*
X109769047Y-85376247D02*
X109769047Y-85614342D01*
X109769047Y-85614342D02*
X109721428Y-85709580D01*
X109721428Y-85709580D02*
X109673809Y-85757200D01*
X109673809Y-85757200D02*
X109578571Y-85804819D01*
X109578571Y-85804819D02*
X109292857Y-85804819D01*
X109292857Y-85804819D02*
X109197619Y-85757200D01*
X109197619Y-85757200D02*
X109150000Y-85709580D01*
X108773669Y-112718673D02*
X108440336Y-112242482D01*
X108202241Y-112718673D02*
X108202241Y-111718673D01*
X108202241Y-111718673D02*
X108583193Y-111718673D01*
X108583193Y-111718673D02*
X108678431Y-111766292D01*
X108678431Y-111766292D02*
X108726050Y-111813911D01*
X108726050Y-111813911D02*
X108773669Y-111909149D01*
X108773669Y-111909149D02*
X108773669Y-112052006D01*
X108773669Y-112052006D02*
X108726050Y-112147244D01*
X108726050Y-112147244D02*
X108678431Y-112194863D01*
X108678431Y-112194863D02*
X108583193Y-112242482D01*
X108583193Y-112242482D02*
X108202241Y-112242482D01*
X109678431Y-111718673D02*
X109202241Y-111718673D01*
X109202241Y-111718673D02*
X109154622Y-112194863D01*
X109154622Y-112194863D02*
X109202241Y-112147244D01*
X109202241Y-112147244D02*
X109297479Y-112099625D01*
X109297479Y-112099625D02*
X109535574Y-112099625D01*
X109535574Y-112099625D02*
X109630812Y-112147244D01*
X109630812Y-112147244D02*
X109678431Y-112194863D01*
X109678431Y-112194863D02*
X109726050Y-112290101D01*
X109726050Y-112290101D02*
X109726050Y-112528196D01*
X109726050Y-112528196D02*
X109678431Y-112623434D01*
X109678431Y-112623434D02*
X109630812Y-112671054D01*
X109630812Y-112671054D02*
X109535574Y-112718673D01*
X109535574Y-112718673D02*
X109297479Y-112718673D01*
X109297479Y-112718673D02*
X109202241Y-112671054D01*
X109202241Y-112671054D02*
X109154622Y-112623434D01*
X105840476Y-100944819D02*
X105840476Y-99944819D01*
X105840476Y-99944819D02*
X106221428Y-99944819D01*
X106221428Y-99944819D02*
X106316666Y-99992438D01*
X106316666Y-99992438D02*
X106364285Y-100040057D01*
X106364285Y-100040057D02*
X106411904Y-100135295D01*
X106411904Y-100135295D02*
X106411904Y-100278152D01*
X106411904Y-100278152D02*
X106364285Y-100373390D01*
X106364285Y-100373390D02*
X106316666Y-100421009D01*
X106316666Y-100421009D02*
X106221428Y-100468628D01*
X106221428Y-100468628D02*
X105840476Y-100468628D01*
X107269047Y-100278152D02*
X107269047Y-100944819D01*
X106840476Y-100278152D02*
X106840476Y-100801961D01*
X106840476Y-100801961D02*
X106888095Y-100897200D01*
X106888095Y-100897200D02*
X106983333Y-100944819D01*
X106983333Y-100944819D02*
X107126190Y-100944819D01*
X107126190Y-100944819D02*
X107221428Y-100897200D01*
X107221428Y-100897200D02*
X107269047Y-100849580D01*
X107745238Y-100944819D02*
X107745238Y-100278152D01*
X107745238Y-100373390D02*
X107792857Y-100325771D01*
X107792857Y-100325771D02*
X107888095Y-100278152D01*
X107888095Y-100278152D02*
X108030952Y-100278152D01*
X108030952Y-100278152D02*
X108126190Y-100325771D01*
X108126190Y-100325771D02*
X108173809Y-100421009D01*
X108173809Y-100421009D02*
X108173809Y-100944819D01*
X108173809Y-100421009D02*
X108221428Y-100325771D01*
X108221428Y-100325771D02*
X108316666Y-100278152D01*
X108316666Y-100278152D02*
X108459523Y-100278152D01*
X108459523Y-100278152D02*
X108554762Y-100325771D01*
X108554762Y-100325771D02*
X108602381Y-100421009D01*
X108602381Y-100421009D02*
X108602381Y-100944819D01*
X109078571Y-100278152D02*
X109078571Y-101278152D01*
X109078571Y-100325771D02*
X109173809Y-100278152D01*
X109173809Y-100278152D02*
X109364285Y-100278152D01*
X109364285Y-100278152D02*
X109459523Y-100325771D01*
X109459523Y-100325771D02*
X109507142Y-100373390D01*
X109507142Y-100373390D02*
X109554761Y-100468628D01*
X109554761Y-100468628D02*
X109554761Y-100754342D01*
X109554761Y-100754342D02*
X109507142Y-100849580D01*
X109507142Y-100849580D02*
X109459523Y-100897200D01*
X109459523Y-100897200D02*
X109364285Y-100944819D01*
X109364285Y-100944819D02*
X109173809Y-100944819D01*
X109173809Y-100944819D02*
X109078571Y-100897200D01*
X110507142Y-100944819D02*
X109935714Y-100944819D01*
X110221428Y-100944819D02*
X110221428Y-99944819D01*
X110221428Y-99944819D02*
X110126190Y-100087676D01*
X110126190Y-100087676D02*
X110030952Y-100182914D01*
X110030952Y-100182914D02*
X109935714Y-100230533D01*
X118053831Y-68951786D02*
X118053831Y-69761309D01*
X118053831Y-69761309D02*
X118101450Y-69856547D01*
X118101450Y-69856547D02*
X118149069Y-69904167D01*
X118149069Y-69904167D02*
X118244307Y-69951786D01*
X118244307Y-69951786D02*
X118434783Y-69951786D01*
X118434783Y-69951786D02*
X118530021Y-69904167D01*
X118530021Y-69904167D02*
X118577640Y-69856547D01*
X118577640Y-69856547D02*
X118625259Y-69761309D01*
X118625259Y-69761309D02*
X118625259Y-68951786D01*
X119053831Y-69047024D02*
X119101450Y-68999405D01*
X119101450Y-68999405D02*
X119196688Y-68951786D01*
X119196688Y-68951786D02*
X119434783Y-68951786D01*
X119434783Y-68951786D02*
X119530021Y-68999405D01*
X119530021Y-68999405D02*
X119577640Y-69047024D01*
X119577640Y-69047024D02*
X119625259Y-69142262D01*
X119625259Y-69142262D02*
X119625259Y-69237500D01*
X119625259Y-69237500D02*
X119577640Y-69380357D01*
X119577640Y-69380357D02*
X119006212Y-69951786D01*
X119006212Y-69951786D02*
X119625259Y-69951786D01*
X169106009Y-94734285D02*
X169106009Y-94400952D01*
X169629819Y-94258095D02*
X169629819Y-94734285D01*
X169629819Y-94734285D02*
X168629819Y-94734285D01*
X168629819Y-94734285D02*
X168629819Y-94258095D01*
X168963152Y-93829523D02*
X169629819Y-93829523D01*
X169058390Y-93829523D02*
X169010771Y-93781904D01*
X169010771Y-93781904D02*
X168963152Y-93686666D01*
X168963152Y-93686666D02*
X168963152Y-93543809D01*
X168963152Y-93543809D02*
X169010771Y-93448571D01*
X169010771Y-93448571D02*
X169106009Y-93400952D01*
X169106009Y-93400952D02*
X169629819Y-93400952D01*
X169582200Y-92496190D02*
X169629819Y-92591428D01*
X169629819Y-92591428D02*
X169629819Y-92781904D01*
X169629819Y-92781904D02*
X169582200Y-92877142D01*
X169582200Y-92877142D02*
X169534580Y-92924761D01*
X169534580Y-92924761D02*
X169439342Y-92972380D01*
X169439342Y-92972380D02*
X169153628Y-92972380D01*
X169153628Y-92972380D02*
X169058390Y-92924761D01*
X169058390Y-92924761D02*
X169010771Y-92877142D01*
X169010771Y-92877142D02*
X168963152Y-92781904D01*
X168963152Y-92781904D02*
X168963152Y-92591428D01*
X168963152Y-92591428D02*
X169010771Y-92496190D01*
X169629819Y-91924761D02*
X169582200Y-92019999D01*
X169582200Y-92019999D02*
X169534580Y-92067618D01*
X169534580Y-92067618D02*
X169439342Y-92115237D01*
X169439342Y-92115237D02*
X169153628Y-92115237D01*
X169153628Y-92115237D02*
X169058390Y-92067618D01*
X169058390Y-92067618D02*
X169010771Y-92019999D01*
X169010771Y-92019999D02*
X168963152Y-91924761D01*
X168963152Y-91924761D02*
X168963152Y-91781904D01*
X168963152Y-91781904D02*
X169010771Y-91686666D01*
X169010771Y-91686666D02*
X169058390Y-91639047D01*
X169058390Y-91639047D02*
X169153628Y-91591428D01*
X169153628Y-91591428D02*
X169439342Y-91591428D01*
X169439342Y-91591428D02*
X169534580Y-91639047D01*
X169534580Y-91639047D02*
X169582200Y-91686666D01*
X169582200Y-91686666D02*
X169629819Y-91781904D01*
X169629819Y-91781904D02*
X169629819Y-91924761D01*
X169629819Y-90734285D02*
X168629819Y-90734285D01*
X169582200Y-90734285D02*
X169629819Y-90829523D01*
X169629819Y-90829523D02*
X169629819Y-91019999D01*
X169629819Y-91019999D02*
X169582200Y-91115237D01*
X169582200Y-91115237D02*
X169534580Y-91162856D01*
X169534580Y-91162856D02*
X169439342Y-91210475D01*
X169439342Y-91210475D02*
X169153628Y-91210475D01*
X169153628Y-91210475D02*
X169058390Y-91162856D01*
X169058390Y-91162856D02*
X169010771Y-91115237D01*
X169010771Y-91115237D02*
X168963152Y-91019999D01*
X168963152Y-91019999D02*
X168963152Y-90829523D01*
X168963152Y-90829523D02*
X169010771Y-90734285D01*
X169582200Y-89877142D02*
X169629819Y-89972380D01*
X169629819Y-89972380D02*
X169629819Y-90162856D01*
X169629819Y-90162856D02*
X169582200Y-90258094D01*
X169582200Y-90258094D02*
X169486961Y-90305713D01*
X169486961Y-90305713D02*
X169106009Y-90305713D01*
X169106009Y-90305713D02*
X169010771Y-90258094D01*
X169010771Y-90258094D02*
X168963152Y-90162856D01*
X168963152Y-90162856D02*
X168963152Y-89972380D01*
X168963152Y-89972380D02*
X169010771Y-89877142D01*
X169010771Y-89877142D02*
X169106009Y-89829523D01*
X169106009Y-89829523D02*
X169201247Y-89829523D01*
X169201247Y-89829523D02*
X169296485Y-90305713D01*
X169629819Y-89400951D02*
X168963152Y-89400951D01*
X169153628Y-89400951D02*
X169058390Y-89353332D01*
X169058390Y-89353332D02*
X169010771Y-89305713D01*
X169010771Y-89305713D02*
X168963152Y-89210475D01*
X168963152Y-89210475D02*
X168963152Y-89115237D01*
X169629819Y-88258094D02*
X169629819Y-88829522D01*
X169629819Y-88543808D02*
X168629819Y-88543808D01*
X168629819Y-88543808D02*
X168772676Y-88639046D01*
X168772676Y-88639046D02*
X168867914Y-88734284D01*
X168867914Y-88734284D02*
X168915533Y-88829522D01*
X146498214Y-125899104D02*
X146974404Y-125899104D01*
X146402976Y-126184819D02*
X146736309Y-125184819D01*
X146736309Y-125184819D02*
X147069642Y-126184819D01*
X147926785Y-126184819D02*
X147355357Y-126184819D01*
X147641071Y-126184819D02*
X147641071Y-125184819D01*
X147641071Y-125184819D02*
X147545833Y-125327676D01*
X147545833Y-125327676D02*
X147450595Y-125422914D01*
X147450595Y-125422914D02*
X147355357Y-125470533D01*
X153024819Y-132246666D02*
X152548628Y-132579999D01*
X153024819Y-132818094D02*
X152024819Y-132818094D01*
X152024819Y-132818094D02*
X152024819Y-132437142D01*
X152024819Y-132437142D02*
X152072438Y-132341904D01*
X152072438Y-132341904D02*
X152120057Y-132294285D01*
X152120057Y-132294285D02*
X152215295Y-132246666D01*
X152215295Y-132246666D02*
X152358152Y-132246666D01*
X152358152Y-132246666D02*
X152453390Y-132294285D01*
X152453390Y-132294285D02*
X152501009Y-132341904D01*
X152501009Y-132341904D02*
X152548628Y-132437142D01*
X152548628Y-132437142D02*
X152548628Y-132818094D01*
X152024819Y-131913332D02*
X152024819Y-131294285D01*
X152024819Y-131294285D02*
X152405771Y-131627618D01*
X152405771Y-131627618D02*
X152405771Y-131484761D01*
X152405771Y-131484761D02*
X152453390Y-131389523D01*
X152453390Y-131389523D02*
X152501009Y-131341904D01*
X152501009Y-131341904D02*
X152596247Y-131294285D01*
X152596247Y-131294285D02*
X152834342Y-131294285D01*
X152834342Y-131294285D02*
X152929580Y-131341904D01*
X152929580Y-131341904D02*
X152977200Y-131389523D01*
X152977200Y-131389523D02*
X153024819Y-131484761D01*
X153024819Y-131484761D02*
X153024819Y-131770475D01*
X153024819Y-131770475D02*
X152977200Y-131865713D01*
X152977200Y-131865713D02*
X152929580Y-131913332D01*
X136604819Y-136338571D02*
X135604819Y-136338571D01*
X135604819Y-136338571D02*
X135604819Y-136100476D01*
X135604819Y-136100476D02*
X135652438Y-135957619D01*
X135652438Y-135957619D02*
X135747676Y-135862381D01*
X135747676Y-135862381D02*
X135842914Y-135814762D01*
X135842914Y-135814762D02*
X136033390Y-135767143D01*
X136033390Y-135767143D02*
X136176247Y-135767143D01*
X136176247Y-135767143D02*
X136366723Y-135814762D01*
X136366723Y-135814762D02*
X136461961Y-135862381D01*
X136461961Y-135862381D02*
X136557200Y-135957619D01*
X136557200Y-135957619D02*
X136604819Y-136100476D01*
X136604819Y-136100476D02*
X136604819Y-136338571D01*
X136604819Y-135338571D02*
X135938152Y-135338571D01*
X135604819Y-135338571D02*
X135652438Y-135386190D01*
X135652438Y-135386190D02*
X135700057Y-135338571D01*
X135700057Y-135338571D02*
X135652438Y-135290952D01*
X135652438Y-135290952D02*
X135604819Y-135338571D01*
X135604819Y-135338571D02*
X135700057Y-135338571D01*
X136557200Y-134910000D02*
X136604819Y-134814762D01*
X136604819Y-134814762D02*
X136604819Y-134624286D01*
X136604819Y-134624286D02*
X136557200Y-134529048D01*
X136557200Y-134529048D02*
X136461961Y-134481429D01*
X136461961Y-134481429D02*
X136414342Y-134481429D01*
X136414342Y-134481429D02*
X136319104Y-134529048D01*
X136319104Y-134529048D02*
X136271485Y-134624286D01*
X136271485Y-134624286D02*
X136271485Y-134767143D01*
X136271485Y-134767143D02*
X136223866Y-134862381D01*
X136223866Y-134862381D02*
X136128628Y-134910000D01*
X136128628Y-134910000D02*
X136081009Y-134910000D01*
X136081009Y-134910000D02*
X135985771Y-134862381D01*
X135985771Y-134862381D02*
X135938152Y-134767143D01*
X135938152Y-134767143D02*
X135938152Y-134624286D01*
X135938152Y-134624286D02*
X135985771Y-134529048D01*
X135938152Y-134052857D02*
X136938152Y-134052857D01*
X135985771Y-134052857D02*
X135938152Y-133957619D01*
X135938152Y-133957619D02*
X135938152Y-133767143D01*
X135938152Y-133767143D02*
X135985771Y-133671905D01*
X135985771Y-133671905D02*
X136033390Y-133624286D01*
X136033390Y-133624286D02*
X136128628Y-133576667D01*
X136128628Y-133576667D02*
X136414342Y-133576667D01*
X136414342Y-133576667D02*
X136509580Y-133624286D01*
X136509580Y-133624286D02*
X136557200Y-133671905D01*
X136557200Y-133671905D02*
X136604819Y-133767143D01*
X136604819Y-133767143D02*
X136604819Y-133957619D01*
X136604819Y-133957619D02*
X136557200Y-134052857D01*
X136604819Y-133005238D02*
X136557200Y-133100476D01*
X136557200Y-133100476D02*
X136461961Y-133148095D01*
X136461961Y-133148095D02*
X135604819Y-133148095D01*
X136604819Y-132195714D02*
X136081009Y-132195714D01*
X136081009Y-132195714D02*
X135985771Y-132243333D01*
X135985771Y-132243333D02*
X135938152Y-132338571D01*
X135938152Y-132338571D02*
X135938152Y-132529047D01*
X135938152Y-132529047D02*
X135985771Y-132624285D01*
X136557200Y-132195714D02*
X136604819Y-132290952D01*
X136604819Y-132290952D02*
X136604819Y-132529047D01*
X136604819Y-132529047D02*
X136557200Y-132624285D01*
X136557200Y-132624285D02*
X136461961Y-132671904D01*
X136461961Y-132671904D02*
X136366723Y-132671904D01*
X136366723Y-132671904D02*
X136271485Y-132624285D01*
X136271485Y-132624285D02*
X136223866Y-132529047D01*
X136223866Y-132529047D02*
X136223866Y-132290952D01*
X136223866Y-132290952D02*
X136176247Y-132195714D01*
X135938152Y-131814761D02*
X136604819Y-131576666D01*
X135938152Y-131338571D02*
X136604819Y-131576666D01*
X136604819Y-131576666D02*
X136842914Y-131671904D01*
X136842914Y-131671904D02*
X136890533Y-131719523D01*
X136890533Y-131719523D02*
X136938152Y-131814761D01*
X136604819Y-130433809D02*
X136604819Y-131005237D01*
X136604819Y-130719523D02*
X135604819Y-130719523D01*
X135604819Y-130719523D02*
X135747676Y-130814761D01*
X135747676Y-130814761D02*
X135842914Y-130909999D01*
X135842914Y-130909999D02*
X135890533Y-131005237D01*
X131808897Y-69003733D02*
X131808897Y-69813256D01*
X131808897Y-69813256D02*
X131856516Y-69908494D01*
X131856516Y-69908494D02*
X131904135Y-69956114D01*
X131904135Y-69956114D02*
X131999373Y-70003733D01*
X131999373Y-70003733D02*
X132189849Y-70003733D01*
X132189849Y-70003733D02*
X132285087Y-69956114D01*
X132285087Y-69956114D02*
X132332706Y-69908494D01*
X132332706Y-69908494D02*
X132380325Y-69813256D01*
X132380325Y-69813256D02*
X132380325Y-69003733D01*
X132761278Y-69003733D02*
X133380325Y-69003733D01*
X133380325Y-69003733D02*
X133046992Y-69384685D01*
X133046992Y-69384685D02*
X133189849Y-69384685D01*
X133189849Y-69384685D02*
X133285087Y-69432304D01*
X133285087Y-69432304D02*
X133332706Y-69479923D01*
X133332706Y-69479923D02*
X133380325Y-69575161D01*
X133380325Y-69575161D02*
X133380325Y-69813256D01*
X133380325Y-69813256D02*
X133332706Y-69908494D01*
X133332706Y-69908494D02*
X133285087Y-69956114D01*
X133285087Y-69956114D02*
X133189849Y-70003733D01*
X133189849Y-70003733D02*
X132904135Y-70003733D01*
X132904135Y-70003733D02*
X132808897Y-69956114D01*
X132808897Y-69956114D02*
X132761278Y-69908494D01*
D11*
X125576802Y-42729068D02*
X125576802Y-43538591D01*
X125576802Y-43538591D02*
X125624421Y-43633829D01*
X125624421Y-43633829D02*
X125672040Y-43681449D01*
X125672040Y-43681449D02*
X125767278Y-43729068D01*
X125767278Y-43729068D02*
X125957754Y-43729068D01*
X125957754Y-43729068D02*
X126052992Y-43681449D01*
X126052992Y-43681449D02*
X126100611Y-43633829D01*
X126100611Y-43633829D02*
X126148230Y-43538591D01*
X126148230Y-43538591D02*
X126148230Y-42729068D01*
X127148230Y-43729068D02*
X126576802Y-43729068D01*
X126862516Y-43729068D02*
X126862516Y-42729068D01*
X126862516Y-42729068D02*
X126767278Y-42871925D01*
X126767278Y-42871925D02*
X126672040Y-42967163D01*
X126672040Y-42967163D02*
X126576802Y-43014782D01*
X127256265Y-80131704D02*
X127732455Y-80131704D01*
X127161027Y-80417419D02*
X127494360Y-79417419D01*
X127494360Y-79417419D02*
X127827693Y-80417419D01*
X128161027Y-80417419D02*
X128161027Y-79417419D01*
X120811027Y-76877419D02*
X121144360Y-77877419D01*
X121144360Y-77877419D02*
X121477693Y-76877419D01*
X122382455Y-77782180D02*
X122334836Y-77829800D01*
X122334836Y-77829800D02*
X122191979Y-77877419D01*
X122191979Y-77877419D02*
X122096741Y-77877419D01*
X122096741Y-77877419D02*
X121953884Y-77829800D01*
X121953884Y-77829800D02*
X121858646Y-77734561D01*
X121858646Y-77734561D02*
X121811027Y-77639323D01*
X121811027Y-77639323D02*
X121763408Y-77448847D01*
X121763408Y-77448847D02*
X121763408Y-77305990D01*
X121763408Y-77305990D02*
X121811027Y-77115514D01*
X121811027Y-77115514D02*
X121858646Y-77020276D01*
X121858646Y-77020276D02*
X121953884Y-76925038D01*
X121953884Y-76925038D02*
X122096741Y-76877419D01*
X122096741Y-76877419D02*
X122191979Y-76877419D01*
X122191979Y-76877419D02*
X122334836Y-76925038D01*
X122334836Y-76925038D02*
X122382455Y-76972657D01*
X123382455Y-77782180D02*
X123334836Y-77829800D01*
X123334836Y-77829800D02*
X123191979Y-77877419D01*
X123191979Y-77877419D02*
X123096741Y-77877419D01*
X123096741Y-77877419D02*
X122953884Y-77829800D01*
X122953884Y-77829800D02*
X122858646Y-77734561D01*
X122858646Y-77734561D02*
X122811027Y-77639323D01*
X122811027Y-77639323D02*
X122763408Y-77448847D01*
X122763408Y-77448847D02*
X122763408Y-77305990D01*
X122763408Y-77305990D02*
X122811027Y-77115514D01*
X122811027Y-77115514D02*
X122858646Y-77020276D01*
X122858646Y-77020276D02*
X122953884Y-76925038D01*
X122953884Y-76925038D02*
X123096741Y-76877419D01*
X123096741Y-76877419D02*
X123191979Y-76877419D01*
X123191979Y-76877419D02*
X123334836Y-76925038D01*
X123334836Y-76925038D02*
X123382455Y-76972657D01*
X124334836Y-77877419D02*
X123763408Y-77877419D01*
X124049122Y-77877419D02*
X124049122Y-76877419D01*
X124049122Y-76877419D02*
X123953884Y-77020276D01*
X123953884Y-77020276D02*
X123858646Y-77115514D01*
X123858646Y-77115514D02*
X123763408Y-77163133D01*
X120906265Y-80131704D02*
X121382455Y-80131704D01*
X120811027Y-80417419D02*
X121144360Y-79417419D01*
X121144360Y-79417419D02*
X121477693Y-80417419D01*
X122001503Y-79417419D02*
X122191979Y-79417419D01*
X122191979Y-79417419D02*
X122287217Y-79465038D01*
X122287217Y-79465038D02*
X122382455Y-79560276D01*
X122382455Y-79560276D02*
X122430074Y-79750752D01*
X122430074Y-79750752D02*
X122430074Y-80084085D01*
X122430074Y-80084085D02*
X122382455Y-80274561D01*
X122382455Y-80274561D02*
X122287217Y-80369800D01*
X122287217Y-80369800D02*
X122191979Y-80417419D01*
X122191979Y-80417419D02*
X122001503Y-80417419D01*
X122001503Y-80417419D02*
X121906265Y-80369800D01*
X121906265Y-80369800D02*
X121811027Y-80274561D01*
X121811027Y-80274561D02*
X121763408Y-80084085D01*
X121763408Y-80084085D02*
X121763408Y-79750752D01*
X121763408Y-79750752D02*
X121811027Y-79560276D01*
X121811027Y-79560276D02*
X121906265Y-79465038D01*
X121906265Y-79465038D02*
X122001503Y-79417419D01*
X121287217Y-82433609D02*
X121430074Y-82481228D01*
X121430074Y-82481228D02*
X121477693Y-82528847D01*
X121477693Y-82528847D02*
X121525312Y-82624085D01*
X121525312Y-82624085D02*
X121525312Y-82766942D01*
X121525312Y-82766942D02*
X121477693Y-82862180D01*
X121477693Y-82862180D02*
X121430074Y-82909800D01*
X121430074Y-82909800D02*
X121334836Y-82957419D01*
X121334836Y-82957419D02*
X120953884Y-82957419D01*
X120953884Y-82957419D02*
X120953884Y-81957419D01*
X120953884Y-81957419D02*
X121287217Y-81957419D01*
X121287217Y-81957419D02*
X121382455Y-82005038D01*
X121382455Y-82005038D02*
X121430074Y-82052657D01*
X121430074Y-82052657D02*
X121477693Y-82147895D01*
X121477693Y-82147895D02*
X121477693Y-82243133D01*
X121477693Y-82243133D02*
X121430074Y-82338371D01*
X121430074Y-82338371D02*
X121382455Y-82385990D01*
X121382455Y-82385990D02*
X121287217Y-82433609D01*
X121287217Y-82433609D02*
X120953884Y-82433609D01*
X121953884Y-82957419D02*
X121953884Y-81957419D01*
X127827693Y-84545038D02*
X127732455Y-84497419D01*
X127732455Y-84497419D02*
X127589598Y-84497419D01*
X127589598Y-84497419D02*
X127446741Y-84545038D01*
X127446741Y-84545038D02*
X127351503Y-84640276D01*
X127351503Y-84640276D02*
X127303884Y-84735514D01*
X127303884Y-84735514D02*
X127256265Y-84925990D01*
X127256265Y-84925990D02*
X127256265Y-85068847D01*
X127256265Y-85068847D02*
X127303884Y-85259323D01*
X127303884Y-85259323D02*
X127351503Y-85354561D01*
X127351503Y-85354561D02*
X127446741Y-85449800D01*
X127446741Y-85449800D02*
X127589598Y-85497419D01*
X127589598Y-85497419D02*
X127684836Y-85497419D01*
X127684836Y-85497419D02*
X127827693Y-85449800D01*
X127827693Y-85449800D02*
X127875312Y-85402180D01*
X127875312Y-85402180D02*
X127875312Y-85068847D01*
X127875312Y-85068847D02*
X127684836Y-85068847D01*
X128303884Y-85497419D02*
X128303884Y-84497419D01*
X128303884Y-84497419D02*
X128875312Y-85497419D01*
X128875312Y-85497419D02*
X128875312Y-84497419D01*
X129351503Y-85497419D02*
X129351503Y-84497419D01*
X129351503Y-84497419D02*
X129589598Y-84497419D01*
X129589598Y-84497419D02*
X129732455Y-84545038D01*
X129732455Y-84545038D02*
X129827693Y-84640276D01*
X129827693Y-84640276D02*
X129875312Y-84735514D01*
X129875312Y-84735514D02*
X129922931Y-84925990D01*
X129922931Y-84925990D02*
X129922931Y-85068847D01*
X129922931Y-85068847D02*
X129875312Y-85259323D01*
X129875312Y-85259323D02*
X129827693Y-85354561D01*
X129827693Y-85354561D02*
X129732455Y-85449800D01*
X129732455Y-85449800D02*
X129589598Y-85497419D01*
X129589598Y-85497419D02*
X129351503Y-85497419D01*
X130303884Y-84592657D02*
X130351503Y-84545038D01*
X130351503Y-84545038D02*
X130446741Y-84497419D01*
X130446741Y-84497419D02*
X130684836Y-84497419D01*
X130684836Y-84497419D02*
X130780074Y-84545038D01*
X130780074Y-84545038D02*
X130827693Y-84592657D01*
X130827693Y-84592657D02*
X130875312Y-84687895D01*
X130875312Y-84687895D02*
X130875312Y-84783133D01*
X130875312Y-84783133D02*
X130827693Y-84925990D01*
X130827693Y-84925990D02*
X130256265Y-85497419D01*
X130256265Y-85497419D02*
X130875312Y-85497419D01*
X127161027Y-76877419D02*
X127494360Y-77877419D01*
X127494360Y-77877419D02*
X127827693Y-76877419D01*
X128732455Y-77782180D02*
X128684836Y-77829800D01*
X128684836Y-77829800D02*
X128541979Y-77877419D01*
X128541979Y-77877419D02*
X128446741Y-77877419D01*
X128446741Y-77877419D02*
X128303884Y-77829800D01*
X128303884Y-77829800D02*
X128208646Y-77734561D01*
X128208646Y-77734561D02*
X128161027Y-77639323D01*
X128161027Y-77639323D02*
X128113408Y-77448847D01*
X128113408Y-77448847D02*
X128113408Y-77305990D01*
X128113408Y-77305990D02*
X128161027Y-77115514D01*
X128161027Y-77115514D02*
X128208646Y-77020276D01*
X128208646Y-77020276D02*
X128303884Y-76925038D01*
X128303884Y-76925038D02*
X128446741Y-76877419D01*
X128446741Y-76877419D02*
X128541979Y-76877419D01*
X128541979Y-76877419D02*
X128684836Y-76925038D01*
X128684836Y-76925038D02*
X128732455Y-76972657D01*
X129732455Y-77782180D02*
X129684836Y-77829800D01*
X129684836Y-77829800D02*
X129541979Y-77877419D01*
X129541979Y-77877419D02*
X129446741Y-77877419D01*
X129446741Y-77877419D02*
X129303884Y-77829800D01*
X129303884Y-77829800D02*
X129208646Y-77734561D01*
X129208646Y-77734561D02*
X129161027Y-77639323D01*
X129161027Y-77639323D02*
X129113408Y-77448847D01*
X129113408Y-77448847D02*
X129113408Y-77305990D01*
X129113408Y-77305990D02*
X129161027Y-77115514D01*
X129161027Y-77115514D02*
X129208646Y-77020276D01*
X129208646Y-77020276D02*
X129303884Y-76925038D01*
X129303884Y-76925038D02*
X129446741Y-76877419D01*
X129446741Y-76877419D02*
X129541979Y-76877419D01*
X129541979Y-76877419D02*
X129684836Y-76925038D01*
X129684836Y-76925038D02*
X129732455Y-76972657D01*
X130113408Y-76972657D02*
X130161027Y-76925038D01*
X130161027Y-76925038D02*
X130256265Y-76877419D01*
X130256265Y-76877419D02*
X130494360Y-76877419D01*
X130494360Y-76877419D02*
X130589598Y-76925038D01*
X130589598Y-76925038D02*
X130637217Y-76972657D01*
X130637217Y-76972657D02*
X130684836Y-77067895D01*
X130684836Y-77067895D02*
X130684836Y-77163133D01*
X130684836Y-77163133D02*
X130637217Y-77305990D01*
X130637217Y-77305990D02*
X130065789Y-77877419D01*
X130065789Y-77877419D02*
X130684836Y-77877419D01*
X127637217Y-82433609D02*
X127780074Y-82481228D01*
X127780074Y-82481228D02*
X127827693Y-82528847D01*
X127827693Y-82528847D02*
X127875312Y-82624085D01*
X127875312Y-82624085D02*
X127875312Y-82766942D01*
X127875312Y-82766942D02*
X127827693Y-82862180D01*
X127827693Y-82862180D02*
X127780074Y-82909800D01*
X127780074Y-82909800D02*
X127684836Y-82957419D01*
X127684836Y-82957419D02*
X127303884Y-82957419D01*
X127303884Y-82957419D02*
X127303884Y-81957419D01*
X127303884Y-81957419D02*
X127637217Y-81957419D01*
X127637217Y-81957419D02*
X127732455Y-82005038D01*
X127732455Y-82005038D02*
X127780074Y-82052657D01*
X127780074Y-82052657D02*
X127827693Y-82147895D01*
X127827693Y-82147895D02*
X127827693Y-82243133D01*
X127827693Y-82243133D02*
X127780074Y-82338371D01*
X127780074Y-82338371D02*
X127732455Y-82385990D01*
X127732455Y-82385990D02*
X127637217Y-82433609D01*
X127637217Y-82433609D02*
X127303884Y-82433609D01*
X128494360Y-81957419D02*
X128684836Y-81957419D01*
X128684836Y-81957419D02*
X128780074Y-82005038D01*
X128780074Y-82005038D02*
X128875312Y-82100276D01*
X128875312Y-82100276D02*
X128922931Y-82290752D01*
X128922931Y-82290752D02*
X128922931Y-82624085D01*
X128922931Y-82624085D02*
X128875312Y-82814561D01*
X128875312Y-82814561D02*
X128780074Y-82909800D01*
X128780074Y-82909800D02*
X128684836Y-82957419D01*
X128684836Y-82957419D02*
X128494360Y-82957419D01*
X128494360Y-82957419D02*
X128399122Y-82909800D01*
X128399122Y-82909800D02*
X128303884Y-82814561D01*
X128303884Y-82814561D02*
X128256265Y-82624085D01*
X128256265Y-82624085D02*
X128256265Y-82290752D01*
X128256265Y-82290752D02*
X128303884Y-82100276D01*
X128303884Y-82100276D02*
X128399122Y-82005038D01*
X128399122Y-82005038D02*
X128494360Y-81957419D01*
X121477693Y-84545038D02*
X121382455Y-84497419D01*
X121382455Y-84497419D02*
X121239598Y-84497419D01*
X121239598Y-84497419D02*
X121096741Y-84545038D01*
X121096741Y-84545038D02*
X121001503Y-84640276D01*
X121001503Y-84640276D02*
X120953884Y-84735514D01*
X120953884Y-84735514D02*
X120906265Y-84925990D01*
X120906265Y-84925990D02*
X120906265Y-85068847D01*
X120906265Y-85068847D02*
X120953884Y-85259323D01*
X120953884Y-85259323D02*
X121001503Y-85354561D01*
X121001503Y-85354561D02*
X121096741Y-85449800D01*
X121096741Y-85449800D02*
X121239598Y-85497419D01*
X121239598Y-85497419D02*
X121334836Y-85497419D01*
X121334836Y-85497419D02*
X121477693Y-85449800D01*
X121477693Y-85449800D02*
X121525312Y-85402180D01*
X121525312Y-85402180D02*
X121525312Y-85068847D01*
X121525312Y-85068847D02*
X121334836Y-85068847D01*
X121953884Y-85497419D02*
X121953884Y-84497419D01*
X121953884Y-84497419D02*
X122525312Y-85497419D01*
X122525312Y-85497419D02*
X122525312Y-84497419D01*
X123001503Y-85497419D02*
X123001503Y-84497419D01*
X123001503Y-84497419D02*
X123239598Y-84497419D01*
X123239598Y-84497419D02*
X123382455Y-84545038D01*
X123382455Y-84545038D02*
X123477693Y-84640276D01*
X123477693Y-84640276D02*
X123525312Y-84735514D01*
X123525312Y-84735514D02*
X123572931Y-84925990D01*
X123572931Y-84925990D02*
X123572931Y-85068847D01*
X123572931Y-85068847D02*
X123525312Y-85259323D01*
X123525312Y-85259323D02*
X123477693Y-85354561D01*
X123477693Y-85354561D02*
X123382455Y-85449800D01*
X123382455Y-85449800D02*
X123239598Y-85497419D01*
X123239598Y-85497419D02*
X123001503Y-85497419D01*
X124525312Y-85497419D02*
X123953884Y-85497419D01*
X124239598Y-85497419D02*
X124239598Y-84497419D01*
X124239598Y-84497419D02*
X124144360Y-84640276D01*
X124144360Y-84640276D02*
X124049122Y-84735514D01*
X124049122Y-84735514D02*
X123953884Y-84783133D01*
X122176265Y-81401704D02*
X122652455Y-81401704D01*
X122081027Y-81687419D02*
X122414360Y-80687419D01*
X122414360Y-80687419D02*
X122747693Y-81687419D01*
X123081027Y-81687419D02*
X123081027Y-80687419D01*
X123081027Y-80687419D02*
X123319122Y-80687419D01*
X123319122Y-80687419D02*
X123461979Y-80735038D01*
X123461979Y-80735038D02*
X123557217Y-80830276D01*
X123557217Y-80830276D02*
X123604836Y-80925514D01*
X123604836Y-80925514D02*
X123652455Y-81115990D01*
X123652455Y-81115990D02*
X123652455Y-81258847D01*
X123652455Y-81258847D02*
X123604836Y-81449323D01*
X123604836Y-81449323D02*
X123557217Y-81544561D01*
X123557217Y-81544561D02*
X123461979Y-81639800D01*
X123461979Y-81639800D02*
X123319122Y-81687419D01*
X123319122Y-81687419D02*
X123081027Y-81687419D01*
X124081027Y-80687419D02*
X124081027Y-81496942D01*
X124081027Y-81496942D02*
X124128646Y-81592180D01*
X124128646Y-81592180D02*
X124176265Y-81639800D01*
X124176265Y-81639800D02*
X124271503Y-81687419D01*
X124271503Y-81687419D02*
X124461979Y-81687419D01*
X124461979Y-81687419D02*
X124557217Y-81639800D01*
X124557217Y-81639800D02*
X124604836Y-81592180D01*
X124604836Y-81592180D02*
X124652455Y-81496942D01*
X124652455Y-81496942D02*
X124652455Y-80687419D01*
X125128646Y-81687419D02*
X125128646Y-80687419D01*
X125128646Y-80687419D02*
X125461979Y-81401704D01*
X125461979Y-81401704D02*
X125795312Y-80687419D01*
X125795312Y-80687419D02*
X125795312Y-81687419D01*
X126795312Y-81687419D02*
X126223884Y-81687419D01*
X126509598Y-81687419D02*
X126509598Y-80687419D01*
X126509598Y-80687419D02*
X126414360Y-80830276D01*
X126414360Y-80830276D02*
X126319122Y-80925514D01*
X126319122Y-80925514D02*
X126223884Y-80973133D01*
X127176265Y-80782657D02*
X127223884Y-80735038D01*
X127223884Y-80735038D02*
X127319122Y-80687419D01*
X127319122Y-80687419D02*
X127557217Y-80687419D01*
X127557217Y-80687419D02*
X127652455Y-80735038D01*
X127652455Y-80735038D02*
X127700074Y-80782657D01*
X127700074Y-80782657D02*
X127747693Y-80877895D01*
X127747693Y-80877895D02*
X127747693Y-80973133D01*
X127747693Y-80973133D02*
X127700074Y-81115990D01*
X127700074Y-81115990D02*
X127128646Y-81687419D01*
X127128646Y-81687419D02*
X127747693Y-81687419D01*
X128366741Y-80687419D02*
X128461979Y-80687419D01*
X128461979Y-80687419D02*
X128557217Y-80735038D01*
X128557217Y-80735038D02*
X128604836Y-80782657D01*
X128604836Y-80782657D02*
X128652455Y-80877895D01*
X128652455Y-80877895D02*
X128700074Y-81068371D01*
X128700074Y-81068371D02*
X128700074Y-81306466D01*
X128700074Y-81306466D02*
X128652455Y-81496942D01*
X128652455Y-81496942D02*
X128604836Y-81592180D01*
X128604836Y-81592180D02*
X128557217Y-81639800D01*
X128557217Y-81639800D02*
X128461979Y-81687419D01*
X128461979Y-81687419D02*
X128366741Y-81687419D01*
X128366741Y-81687419D02*
X128271503Y-81639800D01*
X128271503Y-81639800D02*
X128223884Y-81592180D01*
X128223884Y-81592180D02*
X128176265Y-81496942D01*
X128176265Y-81496942D02*
X128128646Y-81306466D01*
X128128646Y-81306466D02*
X128128646Y-81068371D01*
X128128646Y-81068371D02*
X128176265Y-80877895D01*
X128176265Y-80877895D02*
X128223884Y-80782657D01*
X128223884Y-80782657D02*
X128271503Y-80735038D01*
X128271503Y-80735038D02*
X128366741Y-80687419D01*
X129652455Y-81687419D02*
X129081027Y-81687419D01*
X129366741Y-81687419D02*
X129366741Y-80687419D01*
X129366741Y-80687419D02*
X129271503Y-80830276D01*
X129271503Y-80830276D02*
X129176265Y-80925514D01*
X129176265Y-80925514D02*
X129081027Y-80973133D01*
X120811027Y-111167419D02*
X121144360Y-112167419D01*
X121144360Y-112167419D02*
X121477693Y-111167419D01*
X122382455Y-112072180D02*
X122334836Y-112119800D01*
X122334836Y-112119800D02*
X122191979Y-112167419D01*
X122191979Y-112167419D02*
X122096741Y-112167419D01*
X122096741Y-112167419D02*
X121953884Y-112119800D01*
X121953884Y-112119800D02*
X121858646Y-112024561D01*
X121858646Y-112024561D02*
X121811027Y-111929323D01*
X121811027Y-111929323D02*
X121763408Y-111738847D01*
X121763408Y-111738847D02*
X121763408Y-111595990D01*
X121763408Y-111595990D02*
X121811027Y-111405514D01*
X121811027Y-111405514D02*
X121858646Y-111310276D01*
X121858646Y-111310276D02*
X121953884Y-111215038D01*
X121953884Y-111215038D02*
X122096741Y-111167419D01*
X122096741Y-111167419D02*
X122191979Y-111167419D01*
X122191979Y-111167419D02*
X122334836Y-111215038D01*
X122334836Y-111215038D02*
X122382455Y-111262657D01*
X123382455Y-112072180D02*
X123334836Y-112119800D01*
X123334836Y-112119800D02*
X123191979Y-112167419D01*
X123191979Y-112167419D02*
X123096741Y-112167419D01*
X123096741Y-112167419D02*
X122953884Y-112119800D01*
X122953884Y-112119800D02*
X122858646Y-112024561D01*
X122858646Y-112024561D02*
X122811027Y-111929323D01*
X122811027Y-111929323D02*
X122763408Y-111738847D01*
X122763408Y-111738847D02*
X122763408Y-111595990D01*
X122763408Y-111595990D02*
X122811027Y-111405514D01*
X122811027Y-111405514D02*
X122858646Y-111310276D01*
X122858646Y-111310276D02*
X122953884Y-111215038D01*
X122953884Y-111215038D02*
X123096741Y-111167419D01*
X123096741Y-111167419D02*
X123191979Y-111167419D01*
X123191979Y-111167419D02*
X123334836Y-111215038D01*
X123334836Y-111215038D02*
X123382455Y-111262657D01*
X124334836Y-112167419D02*
X123763408Y-112167419D01*
X124049122Y-112167419D02*
X124049122Y-111167419D01*
X124049122Y-111167419D02*
X123953884Y-111310276D01*
X123953884Y-111310276D02*
X123858646Y-111405514D01*
X123858646Y-111405514D02*
X123763408Y-111453133D01*
X120906265Y-114421704D02*
X121382455Y-114421704D01*
X120811027Y-114707419D02*
X121144360Y-113707419D01*
X121144360Y-113707419D02*
X121477693Y-114707419D01*
X122001503Y-113707419D02*
X122191979Y-113707419D01*
X122191979Y-113707419D02*
X122287217Y-113755038D01*
X122287217Y-113755038D02*
X122382455Y-113850276D01*
X122382455Y-113850276D02*
X122430074Y-114040752D01*
X122430074Y-114040752D02*
X122430074Y-114374085D01*
X122430074Y-114374085D02*
X122382455Y-114564561D01*
X122382455Y-114564561D02*
X122287217Y-114659800D01*
X122287217Y-114659800D02*
X122191979Y-114707419D01*
X122191979Y-114707419D02*
X122001503Y-114707419D01*
X122001503Y-114707419D02*
X121906265Y-114659800D01*
X121906265Y-114659800D02*
X121811027Y-114564561D01*
X121811027Y-114564561D02*
X121763408Y-114374085D01*
X121763408Y-114374085D02*
X121763408Y-114040752D01*
X121763408Y-114040752D02*
X121811027Y-113850276D01*
X121811027Y-113850276D02*
X121906265Y-113755038D01*
X121906265Y-113755038D02*
X122001503Y-113707419D01*
X127161027Y-111167419D02*
X127494360Y-112167419D01*
X127494360Y-112167419D02*
X127827693Y-111167419D01*
X128732455Y-112072180D02*
X128684836Y-112119800D01*
X128684836Y-112119800D02*
X128541979Y-112167419D01*
X128541979Y-112167419D02*
X128446741Y-112167419D01*
X128446741Y-112167419D02*
X128303884Y-112119800D01*
X128303884Y-112119800D02*
X128208646Y-112024561D01*
X128208646Y-112024561D02*
X128161027Y-111929323D01*
X128161027Y-111929323D02*
X128113408Y-111738847D01*
X128113408Y-111738847D02*
X128113408Y-111595990D01*
X128113408Y-111595990D02*
X128161027Y-111405514D01*
X128161027Y-111405514D02*
X128208646Y-111310276D01*
X128208646Y-111310276D02*
X128303884Y-111215038D01*
X128303884Y-111215038D02*
X128446741Y-111167419D01*
X128446741Y-111167419D02*
X128541979Y-111167419D01*
X128541979Y-111167419D02*
X128684836Y-111215038D01*
X128684836Y-111215038D02*
X128732455Y-111262657D01*
X129732455Y-112072180D02*
X129684836Y-112119800D01*
X129684836Y-112119800D02*
X129541979Y-112167419D01*
X129541979Y-112167419D02*
X129446741Y-112167419D01*
X129446741Y-112167419D02*
X129303884Y-112119800D01*
X129303884Y-112119800D02*
X129208646Y-112024561D01*
X129208646Y-112024561D02*
X129161027Y-111929323D01*
X129161027Y-111929323D02*
X129113408Y-111738847D01*
X129113408Y-111738847D02*
X129113408Y-111595990D01*
X129113408Y-111595990D02*
X129161027Y-111405514D01*
X129161027Y-111405514D02*
X129208646Y-111310276D01*
X129208646Y-111310276D02*
X129303884Y-111215038D01*
X129303884Y-111215038D02*
X129446741Y-111167419D01*
X129446741Y-111167419D02*
X129541979Y-111167419D01*
X129541979Y-111167419D02*
X129684836Y-111215038D01*
X129684836Y-111215038D02*
X129732455Y-111262657D01*
X130113408Y-111262657D02*
X130161027Y-111215038D01*
X130161027Y-111215038D02*
X130256265Y-111167419D01*
X130256265Y-111167419D02*
X130494360Y-111167419D01*
X130494360Y-111167419D02*
X130589598Y-111215038D01*
X130589598Y-111215038D02*
X130637217Y-111262657D01*
X130637217Y-111262657D02*
X130684836Y-111357895D01*
X130684836Y-111357895D02*
X130684836Y-111453133D01*
X130684836Y-111453133D02*
X130637217Y-111595990D01*
X130637217Y-111595990D02*
X130065789Y-112167419D01*
X130065789Y-112167419D02*
X130684836Y-112167419D01*
X127827693Y-118835038D02*
X127732455Y-118787419D01*
X127732455Y-118787419D02*
X127589598Y-118787419D01*
X127589598Y-118787419D02*
X127446741Y-118835038D01*
X127446741Y-118835038D02*
X127351503Y-118930276D01*
X127351503Y-118930276D02*
X127303884Y-119025514D01*
X127303884Y-119025514D02*
X127256265Y-119215990D01*
X127256265Y-119215990D02*
X127256265Y-119358847D01*
X127256265Y-119358847D02*
X127303884Y-119549323D01*
X127303884Y-119549323D02*
X127351503Y-119644561D01*
X127351503Y-119644561D02*
X127446741Y-119739800D01*
X127446741Y-119739800D02*
X127589598Y-119787419D01*
X127589598Y-119787419D02*
X127684836Y-119787419D01*
X127684836Y-119787419D02*
X127827693Y-119739800D01*
X127827693Y-119739800D02*
X127875312Y-119692180D01*
X127875312Y-119692180D02*
X127875312Y-119358847D01*
X127875312Y-119358847D02*
X127684836Y-119358847D01*
X128303884Y-119787419D02*
X128303884Y-118787419D01*
X128303884Y-118787419D02*
X128875312Y-119787419D01*
X128875312Y-119787419D02*
X128875312Y-118787419D01*
X129351503Y-119787419D02*
X129351503Y-118787419D01*
X129351503Y-118787419D02*
X129589598Y-118787419D01*
X129589598Y-118787419D02*
X129732455Y-118835038D01*
X129732455Y-118835038D02*
X129827693Y-118930276D01*
X129827693Y-118930276D02*
X129875312Y-119025514D01*
X129875312Y-119025514D02*
X129922931Y-119215990D01*
X129922931Y-119215990D02*
X129922931Y-119358847D01*
X129922931Y-119358847D02*
X129875312Y-119549323D01*
X129875312Y-119549323D02*
X129827693Y-119644561D01*
X129827693Y-119644561D02*
X129732455Y-119739800D01*
X129732455Y-119739800D02*
X129589598Y-119787419D01*
X129589598Y-119787419D02*
X129351503Y-119787419D01*
X130303884Y-118882657D02*
X130351503Y-118835038D01*
X130351503Y-118835038D02*
X130446741Y-118787419D01*
X130446741Y-118787419D02*
X130684836Y-118787419D01*
X130684836Y-118787419D02*
X130780074Y-118835038D01*
X130780074Y-118835038D02*
X130827693Y-118882657D01*
X130827693Y-118882657D02*
X130875312Y-118977895D01*
X130875312Y-118977895D02*
X130875312Y-119073133D01*
X130875312Y-119073133D02*
X130827693Y-119215990D01*
X130827693Y-119215990D02*
X130256265Y-119787419D01*
X130256265Y-119787419D02*
X130875312Y-119787419D01*
X127256265Y-114421704D02*
X127732455Y-114421704D01*
X127161027Y-114707419D02*
X127494360Y-113707419D01*
X127494360Y-113707419D02*
X127827693Y-114707419D01*
X128161027Y-114707419D02*
X128161027Y-113707419D01*
X127637217Y-116723609D02*
X127780074Y-116771228D01*
X127780074Y-116771228D02*
X127827693Y-116818847D01*
X127827693Y-116818847D02*
X127875312Y-116914085D01*
X127875312Y-116914085D02*
X127875312Y-117056942D01*
X127875312Y-117056942D02*
X127827693Y-117152180D01*
X127827693Y-117152180D02*
X127780074Y-117199800D01*
X127780074Y-117199800D02*
X127684836Y-117247419D01*
X127684836Y-117247419D02*
X127303884Y-117247419D01*
X127303884Y-117247419D02*
X127303884Y-116247419D01*
X127303884Y-116247419D02*
X127637217Y-116247419D01*
X127637217Y-116247419D02*
X127732455Y-116295038D01*
X127732455Y-116295038D02*
X127780074Y-116342657D01*
X127780074Y-116342657D02*
X127827693Y-116437895D01*
X127827693Y-116437895D02*
X127827693Y-116533133D01*
X127827693Y-116533133D02*
X127780074Y-116628371D01*
X127780074Y-116628371D02*
X127732455Y-116675990D01*
X127732455Y-116675990D02*
X127637217Y-116723609D01*
X127637217Y-116723609D02*
X127303884Y-116723609D01*
X128494360Y-116247419D02*
X128684836Y-116247419D01*
X128684836Y-116247419D02*
X128780074Y-116295038D01*
X128780074Y-116295038D02*
X128875312Y-116390276D01*
X128875312Y-116390276D02*
X128922931Y-116580752D01*
X128922931Y-116580752D02*
X128922931Y-116914085D01*
X128922931Y-116914085D02*
X128875312Y-117104561D01*
X128875312Y-117104561D02*
X128780074Y-117199800D01*
X128780074Y-117199800D02*
X128684836Y-117247419D01*
X128684836Y-117247419D02*
X128494360Y-117247419D01*
X128494360Y-117247419D02*
X128399122Y-117199800D01*
X128399122Y-117199800D02*
X128303884Y-117104561D01*
X128303884Y-117104561D02*
X128256265Y-116914085D01*
X128256265Y-116914085D02*
X128256265Y-116580752D01*
X128256265Y-116580752D02*
X128303884Y-116390276D01*
X128303884Y-116390276D02*
X128399122Y-116295038D01*
X128399122Y-116295038D02*
X128494360Y-116247419D01*
X121477693Y-118835038D02*
X121382455Y-118787419D01*
X121382455Y-118787419D02*
X121239598Y-118787419D01*
X121239598Y-118787419D02*
X121096741Y-118835038D01*
X121096741Y-118835038D02*
X121001503Y-118930276D01*
X121001503Y-118930276D02*
X120953884Y-119025514D01*
X120953884Y-119025514D02*
X120906265Y-119215990D01*
X120906265Y-119215990D02*
X120906265Y-119358847D01*
X120906265Y-119358847D02*
X120953884Y-119549323D01*
X120953884Y-119549323D02*
X121001503Y-119644561D01*
X121001503Y-119644561D02*
X121096741Y-119739800D01*
X121096741Y-119739800D02*
X121239598Y-119787419D01*
X121239598Y-119787419D02*
X121334836Y-119787419D01*
X121334836Y-119787419D02*
X121477693Y-119739800D01*
X121477693Y-119739800D02*
X121525312Y-119692180D01*
X121525312Y-119692180D02*
X121525312Y-119358847D01*
X121525312Y-119358847D02*
X121334836Y-119358847D01*
X121953884Y-119787419D02*
X121953884Y-118787419D01*
X121953884Y-118787419D02*
X122525312Y-119787419D01*
X122525312Y-119787419D02*
X122525312Y-118787419D01*
X123001503Y-119787419D02*
X123001503Y-118787419D01*
X123001503Y-118787419D02*
X123239598Y-118787419D01*
X123239598Y-118787419D02*
X123382455Y-118835038D01*
X123382455Y-118835038D02*
X123477693Y-118930276D01*
X123477693Y-118930276D02*
X123525312Y-119025514D01*
X123525312Y-119025514D02*
X123572931Y-119215990D01*
X123572931Y-119215990D02*
X123572931Y-119358847D01*
X123572931Y-119358847D02*
X123525312Y-119549323D01*
X123525312Y-119549323D02*
X123477693Y-119644561D01*
X123477693Y-119644561D02*
X123382455Y-119739800D01*
X123382455Y-119739800D02*
X123239598Y-119787419D01*
X123239598Y-119787419D02*
X123001503Y-119787419D01*
X124525312Y-119787419D02*
X123953884Y-119787419D01*
X124239598Y-119787419D02*
X124239598Y-118787419D01*
X124239598Y-118787419D02*
X124144360Y-118930276D01*
X124144360Y-118930276D02*
X124049122Y-119025514D01*
X124049122Y-119025514D02*
X123953884Y-119073133D01*
X121287217Y-116723609D02*
X121430074Y-116771228D01*
X121430074Y-116771228D02*
X121477693Y-116818847D01*
X121477693Y-116818847D02*
X121525312Y-116914085D01*
X121525312Y-116914085D02*
X121525312Y-117056942D01*
X121525312Y-117056942D02*
X121477693Y-117152180D01*
X121477693Y-117152180D02*
X121430074Y-117199800D01*
X121430074Y-117199800D02*
X121334836Y-117247419D01*
X121334836Y-117247419D02*
X120953884Y-117247419D01*
X120953884Y-117247419D02*
X120953884Y-116247419D01*
X120953884Y-116247419D02*
X121287217Y-116247419D01*
X121287217Y-116247419D02*
X121382455Y-116295038D01*
X121382455Y-116295038D02*
X121430074Y-116342657D01*
X121430074Y-116342657D02*
X121477693Y-116437895D01*
X121477693Y-116437895D02*
X121477693Y-116533133D01*
X121477693Y-116533133D02*
X121430074Y-116628371D01*
X121430074Y-116628371D02*
X121382455Y-116675990D01*
X121382455Y-116675990D02*
X121287217Y-116723609D01*
X121287217Y-116723609D02*
X120953884Y-116723609D01*
X121953884Y-117247419D02*
X121953884Y-116247419D01*
X122176265Y-115691704D02*
X122652455Y-115691704D01*
X122081027Y-115977419D02*
X122414360Y-114977419D01*
X122414360Y-114977419D02*
X122747693Y-115977419D01*
X123081027Y-115977419D02*
X123081027Y-114977419D01*
X123081027Y-114977419D02*
X123319122Y-114977419D01*
X123319122Y-114977419D02*
X123461979Y-115025038D01*
X123461979Y-115025038D02*
X123557217Y-115120276D01*
X123557217Y-115120276D02*
X123604836Y-115215514D01*
X123604836Y-115215514D02*
X123652455Y-115405990D01*
X123652455Y-115405990D02*
X123652455Y-115548847D01*
X123652455Y-115548847D02*
X123604836Y-115739323D01*
X123604836Y-115739323D02*
X123557217Y-115834561D01*
X123557217Y-115834561D02*
X123461979Y-115929800D01*
X123461979Y-115929800D02*
X123319122Y-115977419D01*
X123319122Y-115977419D02*
X123081027Y-115977419D01*
X124081027Y-114977419D02*
X124081027Y-115786942D01*
X124081027Y-115786942D02*
X124128646Y-115882180D01*
X124128646Y-115882180D02*
X124176265Y-115929800D01*
X124176265Y-115929800D02*
X124271503Y-115977419D01*
X124271503Y-115977419D02*
X124461979Y-115977419D01*
X124461979Y-115977419D02*
X124557217Y-115929800D01*
X124557217Y-115929800D02*
X124604836Y-115882180D01*
X124604836Y-115882180D02*
X124652455Y-115786942D01*
X124652455Y-115786942D02*
X124652455Y-114977419D01*
X125128646Y-115977419D02*
X125128646Y-114977419D01*
X125128646Y-114977419D02*
X125461979Y-115691704D01*
X125461979Y-115691704D02*
X125795312Y-114977419D01*
X125795312Y-114977419D02*
X125795312Y-115977419D01*
X126795312Y-115977419D02*
X126223884Y-115977419D01*
X126509598Y-115977419D02*
X126509598Y-114977419D01*
X126509598Y-114977419D02*
X126414360Y-115120276D01*
X126414360Y-115120276D02*
X126319122Y-115215514D01*
X126319122Y-115215514D02*
X126223884Y-115263133D01*
X127176265Y-115072657D02*
X127223884Y-115025038D01*
X127223884Y-115025038D02*
X127319122Y-114977419D01*
X127319122Y-114977419D02*
X127557217Y-114977419D01*
X127557217Y-114977419D02*
X127652455Y-115025038D01*
X127652455Y-115025038D02*
X127700074Y-115072657D01*
X127700074Y-115072657D02*
X127747693Y-115167895D01*
X127747693Y-115167895D02*
X127747693Y-115263133D01*
X127747693Y-115263133D02*
X127700074Y-115405990D01*
X127700074Y-115405990D02*
X127128646Y-115977419D01*
X127128646Y-115977419D02*
X127747693Y-115977419D01*
X128366741Y-114977419D02*
X128461979Y-114977419D01*
X128461979Y-114977419D02*
X128557217Y-115025038D01*
X128557217Y-115025038D02*
X128604836Y-115072657D01*
X128604836Y-115072657D02*
X128652455Y-115167895D01*
X128652455Y-115167895D02*
X128700074Y-115358371D01*
X128700074Y-115358371D02*
X128700074Y-115596466D01*
X128700074Y-115596466D02*
X128652455Y-115786942D01*
X128652455Y-115786942D02*
X128604836Y-115882180D01*
X128604836Y-115882180D02*
X128557217Y-115929800D01*
X128557217Y-115929800D02*
X128461979Y-115977419D01*
X128461979Y-115977419D02*
X128366741Y-115977419D01*
X128366741Y-115977419D02*
X128271503Y-115929800D01*
X128271503Y-115929800D02*
X128223884Y-115882180D01*
X128223884Y-115882180D02*
X128176265Y-115786942D01*
X128176265Y-115786942D02*
X128128646Y-115596466D01*
X128128646Y-115596466D02*
X128128646Y-115358371D01*
X128128646Y-115358371D02*
X128176265Y-115167895D01*
X128176265Y-115167895D02*
X128223884Y-115072657D01*
X128223884Y-115072657D02*
X128271503Y-115025038D01*
X128271503Y-115025038D02*
X128366741Y-114977419D01*
X129652455Y-115977419D02*
X129081027Y-115977419D01*
X129366741Y-115977419D02*
X129366741Y-114977419D01*
X129366741Y-114977419D02*
X129271503Y-115120276D01*
X129271503Y-115120276D02*
X129176265Y-115215514D01*
X129176265Y-115215514D02*
X129081027Y-115263133D01*
D10*
X95186666Y-34104819D02*
X94853333Y-33628628D01*
X94615238Y-34104819D02*
X94615238Y-33104819D01*
X94615238Y-33104819D02*
X94996190Y-33104819D01*
X94996190Y-33104819D02*
X95091428Y-33152438D01*
X95091428Y-33152438D02*
X95139047Y-33200057D01*
X95139047Y-33200057D02*
X95186666Y-33295295D01*
X95186666Y-33295295D02*
X95186666Y-33438152D01*
X95186666Y-33438152D02*
X95139047Y-33533390D01*
X95139047Y-33533390D02*
X95091428Y-33581009D01*
X95091428Y-33581009D02*
X94996190Y-33628628D01*
X94996190Y-33628628D02*
X94615238Y-33628628D01*
X95615238Y-33581009D02*
X95948571Y-33581009D01*
X96091428Y-34104819D02*
X95615238Y-34104819D01*
X95615238Y-34104819D02*
X95615238Y-33104819D01*
X95615238Y-33104819D02*
X96091428Y-33104819D01*
X96853333Y-33581009D02*
X96520000Y-33581009D01*
X96520000Y-34104819D02*
X96520000Y-33104819D01*
X96520000Y-33104819D02*
X96996190Y-33104819D01*
X97520000Y-33104819D02*
X97520000Y-33342914D01*
X97281905Y-33247676D02*
X97520000Y-33342914D01*
X97520000Y-33342914D02*
X97758095Y-33247676D01*
X97377143Y-33533390D02*
X97520000Y-33342914D01*
X97520000Y-33342914D02*
X97662857Y-33533390D01*
X98281905Y-33104819D02*
X98281905Y-33342914D01*
X98043810Y-33247676D02*
X98281905Y-33342914D01*
X98281905Y-33342914D02*
X98520000Y-33247676D01*
X98139048Y-33533390D02*
X98281905Y-33342914D01*
X98281905Y-33342914D02*
X98424762Y-33533390D01*
D11*
X120811027Y-99737419D02*
X121144360Y-100737419D01*
X121144360Y-100737419D02*
X121477693Y-99737419D01*
X122382455Y-100642180D02*
X122334836Y-100689800D01*
X122334836Y-100689800D02*
X122191979Y-100737419D01*
X122191979Y-100737419D02*
X122096741Y-100737419D01*
X122096741Y-100737419D02*
X121953884Y-100689800D01*
X121953884Y-100689800D02*
X121858646Y-100594561D01*
X121858646Y-100594561D02*
X121811027Y-100499323D01*
X121811027Y-100499323D02*
X121763408Y-100308847D01*
X121763408Y-100308847D02*
X121763408Y-100165990D01*
X121763408Y-100165990D02*
X121811027Y-99975514D01*
X121811027Y-99975514D02*
X121858646Y-99880276D01*
X121858646Y-99880276D02*
X121953884Y-99785038D01*
X121953884Y-99785038D02*
X122096741Y-99737419D01*
X122096741Y-99737419D02*
X122191979Y-99737419D01*
X122191979Y-99737419D02*
X122334836Y-99785038D01*
X122334836Y-99785038D02*
X122382455Y-99832657D01*
X123382455Y-100642180D02*
X123334836Y-100689800D01*
X123334836Y-100689800D02*
X123191979Y-100737419D01*
X123191979Y-100737419D02*
X123096741Y-100737419D01*
X123096741Y-100737419D02*
X122953884Y-100689800D01*
X122953884Y-100689800D02*
X122858646Y-100594561D01*
X122858646Y-100594561D02*
X122811027Y-100499323D01*
X122811027Y-100499323D02*
X122763408Y-100308847D01*
X122763408Y-100308847D02*
X122763408Y-100165990D01*
X122763408Y-100165990D02*
X122811027Y-99975514D01*
X122811027Y-99975514D02*
X122858646Y-99880276D01*
X122858646Y-99880276D02*
X122953884Y-99785038D01*
X122953884Y-99785038D02*
X123096741Y-99737419D01*
X123096741Y-99737419D02*
X123191979Y-99737419D01*
X123191979Y-99737419D02*
X123334836Y-99785038D01*
X123334836Y-99785038D02*
X123382455Y-99832657D01*
X124334836Y-100737419D02*
X123763408Y-100737419D01*
X124049122Y-100737419D02*
X124049122Y-99737419D01*
X124049122Y-99737419D02*
X123953884Y-99880276D01*
X123953884Y-99880276D02*
X123858646Y-99975514D01*
X123858646Y-99975514D02*
X123763408Y-100023133D01*
X120906265Y-102991704D02*
X121382455Y-102991704D01*
X120811027Y-103277419D02*
X121144360Y-102277419D01*
X121144360Y-102277419D02*
X121477693Y-103277419D01*
X122001503Y-102277419D02*
X122191979Y-102277419D01*
X122191979Y-102277419D02*
X122287217Y-102325038D01*
X122287217Y-102325038D02*
X122382455Y-102420276D01*
X122382455Y-102420276D02*
X122430074Y-102610752D01*
X122430074Y-102610752D02*
X122430074Y-102944085D01*
X122430074Y-102944085D02*
X122382455Y-103134561D01*
X122382455Y-103134561D02*
X122287217Y-103229800D01*
X122287217Y-103229800D02*
X122191979Y-103277419D01*
X122191979Y-103277419D02*
X122001503Y-103277419D01*
X122001503Y-103277419D02*
X121906265Y-103229800D01*
X121906265Y-103229800D02*
X121811027Y-103134561D01*
X121811027Y-103134561D02*
X121763408Y-102944085D01*
X121763408Y-102944085D02*
X121763408Y-102610752D01*
X121763408Y-102610752D02*
X121811027Y-102420276D01*
X121811027Y-102420276D02*
X121906265Y-102325038D01*
X121906265Y-102325038D02*
X122001503Y-102277419D01*
X127637217Y-105293609D02*
X127780074Y-105341228D01*
X127780074Y-105341228D02*
X127827693Y-105388847D01*
X127827693Y-105388847D02*
X127875312Y-105484085D01*
X127875312Y-105484085D02*
X127875312Y-105626942D01*
X127875312Y-105626942D02*
X127827693Y-105722180D01*
X127827693Y-105722180D02*
X127780074Y-105769800D01*
X127780074Y-105769800D02*
X127684836Y-105817419D01*
X127684836Y-105817419D02*
X127303884Y-105817419D01*
X127303884Y-105817419D02*
X127303884Y-104817419D01*
X127303884Y-104817419D02*
X127637217Y-104817419D01*
X127637217Y-104817419D02*
X127732455Y-104865038D01*
X127732455Y-104865038D02*
X127780074Y-104912657D01*
X127780074Y-104912657D02*
X127827693Y-105007895D01*
X127827693Y-105007895D02*
X127827693Y-105103133D01*
X127827693Y-105103133D02*
X127780074Y-105198371D01*
X127780074Y-105198371D02*
X127732455Y-105245990D01*
X127732455Y-105245990D02*
X127637217Y-105293609D01*
X127637217Y-105293609D02*
X127303884Y-105293609D01*
X128494360Y-104817419D02*
X128684836Y-104817419D01*
X128684836Y-104817419D02*
X128780074Y-104865038D01*
X128780074Y-104865038D02*
X128875312Y-104960276D01*
X128875312Y-104960276D02*
X128922931Y-105150752D01*
X128922931Y-105150752D02*
X128922931Y-105484085D01*
X128922931Y-105484085D02*
X128875312Y-105674561D01*
X128875312Y-105674561D02*
X128780074Y-105769800D01*
X128780074Y-105769800D02*
X128684836Y-105817419D01*
X128684836Y-105817419D02*
X128494360Y-105817419D01*
X128494360Y-105817419D02*
X128399122Y-105769800D01*
X128399122Y-105769800D02*
X128303884Y-105674561D01*
X128303884Y-105674561D02*
X128256265Y-105484085D01*
X128256265Y-105484085D02*
X128256265Y-105150752D01*
X128256265Y-105150752D02*
X128303884Y-104960276D01*
X128303884Y-104960276D02*
X128399122Y-104865038D01*
X128399122Y-104865038D02*
X128494360Y-104817419D01*
X127161027Y-99737419D02*
X127494360Y-100737419D01*
X127494360Y-100737419D02*
X127827693Y-99737419D01*
X128732455Y-100642180D02*
X128684836Y-100689800D01*
X128684836Y-100689800D02*
X128541979Y-100737419D01*
X128541979Y-100737419D02*
X128446741Y-100737419D01*
X128446741Y-100737419D02*
X128303884Y-100689800D01*
X128303884Y-100689800D02*
X128208646Y-100594561D01*
X128208646Y-100594561D02*
X128161027Y-100499323D01*
X128161027Y-100499323D02*
X128113408Y-100308847D01*
X128113408Y-100308847D02*
X128113408Y-100165990D01*
X128113408Y-100165990D02*
X128161027Y-99975514D01*
X128161027Y-99975514D02*
X128208646Y-99880276D01*
X128208646Y-99880276D02*
X128303884Y-99785038D01*
X128303884Y-99785038D02*
X128446741Y-99737419D01*
X128446741Y-99737419D02*
X128541979Y-99737419D01*
X128541979Y-99737419D02*
X128684836Y-99785038D01*
X128684836Y-99785038D02*
X128732455Y-99832657D01*
X129732455Y-100642180D02*
X129684836Y-100689800D01*
X129684836Y-100689800D02*
X129541979Y-100737419D01*
X129541979Y-100737419D02*
X129446741Y-100737419D01*
X129446741Y-100737419D02*
X129303884Y-100689800D01*
X129303884Y-100689800D02*
X129208646Y-100594561D01*
X129208646Y-100594561D02*
X129161027Y-100499323D01*
X129161027Y-100499323D02*
X129113408Y-100308847D01*
X129113408Y-100308847D02*
X129113408Y-100165990D01*
X129113408Y-100165990D02*
X129161027Y-99975514D01*
X129161027Y-99975514D02*
X129208646Y-99880276D01*
X129208646Y-99880276D02*
X129303884Y-99785038D01*
X129303884Y-99785038D02*
X129446741Y-99737419D01*
X129446741Y-99737419D02*
X129541979Y-99737419D01*
X129541979Y-99737419D02*
X129684836Y-99785038D01*
X129684836Y-99785038D02*
X129732455Y-99832657D01*
X130113408Y-99832657D02*
X130161027Y-99785038D01*
X130161027Y-99785038D02*
X130256265Y-99737419D01*
X130256265Y-99737419D02*
X130494360Y-99737419D01*
X130494360Y-99737419D02*
X130589598Y-99785038D01*
X130589598Y-99785038D02*
X130637217Y-99832657D01*
X130637217Y-99832657D02*
X130684836Y-99927895D01*
X130684836Y-99927895D02*
X130684836Y-100023133D01*
X130684836Y-100023133D02*
X130637217Y-100165990D01*
X130637217Y-100165990D02*
X130065789Y-100737419D01*
X130065789Y-100737419D02*
X130684836Y-100737419D01*
X121477693Y-107405038D02*
X121382455Y-107357419D01*
X121382455Y-107357419D02*
X121239598Y-107357419D01*
X121239598Y-107357419D02*
X121096741Y-107405038D01*
X121096741Y-107405038D02*
X121001503Y-107500276D01*
X121001503Y-107500276D02*
X120953884Y-107595514D01*
X120953884Y-107595514D02*
X120906265Y-107785990D01*
X120906265Y-107785990D02*
X120906265Y-107928847D01*
X120906265Y-107928847D02*
X120953884Y-108119323D01*
X120953884Y-108119323D02*
X121001503Y-108214561D01*
X121001503Y-108214561D02*
X121096741Y-108309800D01*
X121096741Y-108309800D02*
X121239598Y-108357419D01*
X121239598Y-108357419D02*
X121334836Y-108357419D01*
X121334836Y-108357419D02*
X121477693Y-108309800D01*
X121477693Y-108309800D02*
X121525312Y-108262180D01*
X121525312Y-108262180D02*
X121525312Y-107928847D01*
X121525312Y-107928847D02*
X121334836Y-107928847D01*
X121953884Y-108357419D02*
X121953884Y-107357419D01*
X121953884Y-107357419D02*
X122525312Y-108357419D01*
X122525312Y-108357419D02*
X122525312Y-107357419D01*
X123001503Y-108357419D02*
X123001503Y-107357419D01*
X123001503Y-107357419D02*
X123239598Y-107357419D01*
X123239598Y-107357419D02*
X123382455Y-107405038D01*
X123382455Y-107405038D02*
X123477693Y-107500276D01*
X123477693Y-107500276D02*
X123525312Y-107595514D01*
X123525312Y-107595514D02*
X123572931Y-107785990D01*
X123572931Y-107785990D02*
X123572931Y-107928847D01*
X123572931Y-107928847D02*
X123525312Y-108119323D01*
X123525312Y-108119323D02*
X123477693Y-108214561D01*
X123477693Y-108214561D02*
X123382455Y-108309800D01*
X123382455Y-108309800D02*
X123239598Y-108357419D01*
X123239598Y-108357419D02*
X123001503Y-108357419D01*
X124525312Y-108357419D02*
X123953884Y-108357419D01*
X124239598Y-108357419D02*
X124239598Y-107357419D01*
X124239598Y-107357419D02*
X124144360Y-107500276D01*
X124144360Y-107500276D02*
X124049122Y-107595514D01*
X124049122Y-107595514D02*
X123953884Y-107643133D01*
X121287217Y-105293609D02*
X121430074Y-105341228D01*
X121430074Y-105341228D02*
X121477693Y-105388847D01*
X121477693Y-105388847D02*
X121525312Y-105484085D01*
X121525312Y-105484085D02*
X121525312Y-105626942D01*
X121525312Y-105626942D02*
X121477693Y-105722180D01*
X121477693Y-105722180D02*
X121430074Y-105769800D01*
X121430074Y-105769800D02*
X121334836Y-105817419D01*
X121334836Y-105817419D02*
X120953884Y-105817419D01*
X120953884Y-105817419D02*
X120953884Y-104817419D01*
X120953884Y-104817419D02*
X121287217Y-104817419D01*
X121287217Y-104817419D02*
X121382455Y-104865038D01*
X121382455Y-104865038D02*
X121430074Y-104912657D01*
X121430074Y-104912657D02*
X121477693Y-105007895D01*
X121477693Y-105007895D02*
X121477693Y-105103133D01*
X121477693Y-105103133D02*
X121430074Y-105198371D01*
X121430074Y-105198371D02*
X121382455Y-105245990D01*
X121382455Y-105245990D02*
X121287217Y-105293609D01*
X121287217Y-105293609D02*
X120953884Y-105293609D01*
X121953884Y-105817419D02*
X121953884Y-104817419D01*
X122176265Y-104261704D02*
X122652455Y-104261704D01*
X122081027Y-104547419D02*
X122414360Y-103547419D01*
X122414360Y-103547419D02*
X122747693Y-104547419D01*
X123081027Y-104547419D02*
X123081027Y-103547419D01*
X123081027Y-103547419D02*
X123319122Y-103547419D01*
X123319122Y-103547419D02*
X123461979Y-103595038D01*
X123461979Y-103595038D02*
X123557217Y-103690276D01*
X123557217Y-103690276D02*
X123604836Y-103785514D01*
X123604836Y-103785514D02*
X123652455Y-103975990D01*
X123652455Y-103975990D02*
X123652455Y-104118847D01*
X123652455Y-104118847D02*
X123604836Y-104309323D01*
X123604836Y-104309323D02*
X123557217Y-104404561D01*
X123557217Y-104404561D02*
X123461979Y-104499800D01*
X123461979Y-104499800D02*
X123319122Y-104547419D01*
X123319122Y-104547419D02*
X123081027Y-104547419D01*
X124081027Y-103547419D02*
X124081027Y-104356942D01*
X124081027Y-104356942D02*
X124128646Y-104452180D01*
X124128646Y-104452180D02*
X124176265Y-104499800D01*
X124176265Y-104499800D02*
X124271503Y-104547419D01*
X124271503Y-104547419D02*
X124461979Y-104547419D01*
X124461979Y-104547419D02*
X124557217Y-104499800D01*
X124557217Y-104499800D02*
X124604836Y-104452180D01*
X124604836Y-104452180D02*
X124652455Y-104356942D01*
X124652455Y-104356942D02*
X124652455Y-103547419D01*
X125128646Y-104547419D02*
X125128646Y-103547419D01*
X125128646Y-103547419D02*
X125461979Y-104261704D01*
X125461979Y-104261704D02*
X125795312Y-103547419D01*
X125795312Y-103547419D02*
X125795312Y-104547419D01*
X126795312Y-104547419D02*
X126223884Y-104547419D01*
X126509598Y-104547419D02*
X126509598Y-103547419D01*
X126509598Y-103547419D02*
X126414360Y-103690276D01*
X126414360Y-103690276D02*
X126319122Y-103785514D01*
X126319122Y-103785514D02*
X126223884Y-103833133D01*
X127176265Y-103642657D02*
X127223884Y-103595038D01*
X127223884Y-103595038D02*
X127319122Y-103547419D01*
X127319122Y-103547419D02*
X127557217Y-103547419D01*
X127557217Y-103547419D02*
X127652455Y-103595038D01*
X127652455Y-103595038D02*
X127700074Y-103642657D01*
X127700074Y-103642657D02*
X127747693Y-103737895D01*
X127747693Y-103737895D02*
X127747693Y-103833133D01*
X127747693Y-103833133D02*
X127700074Y-103975990D01*
X127700074Y-103975990D02*
X127128646Y-104547419D01*
X127128646Y-104547419D02*
X127747693Y-104547419D01*
X128366741Y-103547419D02*
X128461979Y-103547419D01*
X128461979Y-103547419D02*
X128557217Y-103595038D01*
X128557217Y-103595038D02*
X128604836Y-103642657D01*
X128604836Y-103642657D02*
X128652455Y-103737895D01*
X128652455Y-103737895D02*
X128700074Y-103928371D01*
X128700074Y-103928371D02*
X128700074Y-104166466D01*
X128700074Y-104166466D02*
X128652455Y-104356942D01*
X128652455Y-104356942D02*
X128604836Y-104452180D01*
X128604836Y-104452180D02*
X128557217Y-104499800D01*
X128557217Y-104499800D02*
X128461979Y-104547419D01*
X128461979Y-104547419D02*
X128366741Y-104547419D01*
X128366741Y-104547419D02*
X128271503Y-104499800D01*
X128271503Y-104499800D02*
X128223884Y-104452180D01*
X128223884Y-104452180D02*
X128176265Y-104356942D01*
X128176265Y-104356942D02*
X128128646Y-104166466D01*
X128128646Y-104166466D02*
X128128646Y-103928371D01*
X128128646Y-103928371D02*
X128176265Y-103737895D01*
X128176265Y-103737895D02*
X128223884Y-103642657D01*
X128223884Y-103642657D02*
X128271503Y-103595038D01*
X128271503Y-103595038D02*
X128366741Y-103547419D01*
X129652455Y-104547419D02*
X129081027Y-104547419D01*
X129366741Y-104547419D02*
X129366741Y-103547419D01*
X129366741Y-103547419D02*
X129271503Y-103690276D01*
X129271503Y-103690276D02*
X129176265Y-103785514D01*
X129176265Y-103785514D02*
X129081027Y-103833133D01*
X127256265Y-102991704D02*
X127732455Y-102991704D01*
X127161027Y-103277419D02*
X127494360Y-102277419D01*
X127494360Y-102277419D02*
X127827693Y-103277419D01*
X128161027Y-103277419D02*
X128161027Y-102277419D01*
X127827693Y-107405038D02*
X127732455Y-107357419D01*
X127732455Y-107357419D02*
X127589598Y-107357419D01*
X127589598Y-107357419D02*
X127446741Y-107405038D01*
X127446741Y-107405038D02*
X127351503Y-107500276D01*
X127351503Y-107500276D02*
X127303884Y-107595514D01*
X127303884Y-107595514D02*
X127256265Y-107785990D01*
X127256265Y-107785990D02*
X127256265Y-107928847D01*
X127256265Y-107928847D02*
X127303884Y-108119323D01*
X127303884Y-108119323D02*
X127351503Y-108214561D01*
X127351503Y-108214561D02*
X127446741Y-108309800D01*
X127446741Y-108309800D02*
X127589598Y-108357419D01*
X127589598Y-108357419D02*
X127684836Y-108357419D01*
X127684836Y-108357419D02*
X127827693Y-108309800D01*
X127827693Y-108309800D02*
X127875312Y-108262180D01*
X127875312Y-108262180D02*
X127875312Y-107928847D01*
X127875312Y-107928847D02*
X127684836Y-107928847D01*
X128303884Y-108357419D02*
X128303884Y-107357419D01*
X128303884Y-107357419D02*
X128875312Y-108357419D01*
X128875312Y-108357419D02*
X128875312Y-107357419D01*
X129351503Y-108357419D02*
X129351503Y-107357419D01*
X129351503Y-107357419D02*
X129589598Y-107357419D01*
X129589598Y-107357419D02*
X129732455Y-107405038D01*
X129732455Y-107405038D02*
X129827693Y-107500276D01*
X129827693Y-107500276D02*
X129875312Y-107595514D01*
X129875312Y-107595514D02*
X129922931Y-107785990D01*
X129922931Y-107785990D02*
X129922931Y-107928847D01*
X129922931Y-107928847D02*
X129875312Y-108119323D01*
X129875312Y-108119323D02*
X129827693Y-108214561D01*
X129827693Y-108214561D02*
X129732455Y-108309800D01*
X129732455Y-108309800D02*
X129589598Y-108357419D01*
X129589598Y-108357419D02*
X129351503Y-108357419D01*
X130303884Y-107452657D02*
X130351503Y-107405038D01*
X130351503Y-107405038D02*
X130446741Y-107357419D01*
X130446741Y-107357419D02*
X130684836Y-107357419D01*
X130684836Y-107357419D02*
X130780074Y-107405038D01*
X130780074Y-107405038D02*
X130827693Y-107452657D01*
X130827693Y-107452657D02*
X130875312Y-107547895D01*
X130875312Y-107547895D02*
X130875312Y-107643133D01*
X130875312Y-107643133D02*
X130827693Y-107785990D01*
X130827693Y-107785990D02*
X130256265Y-108357419D01*
X130256265Y-108357419D02*
X130875312Y-108357419D01*
X127302439Y-136299679D02*
X127445296Y-136347298D01*
X127445296Y-136347298D02*
X127683391Y-136347298D01*
X127683391Y-136347298D02*
X127778629Y-136299679D01*
X127778629Y-136299679D02*
X127826248Y-136252059D01*
X127826248Y-136252059D02*
X127873867Y-136156821D01*
X127873867Y-136156821D02*
X127873867Y-136061583D01*
X127873867Y-136061583D02*
X127826248Y-135966345D01*
X127826248Y-135966345D02*
X127778629Y-135918726D01*
X127778629Y-135918726D02*
X127683391Y-135871107D01*
X127683391Y-135871107D02*
X127492915Y-135823488D01*
X127492915Y-135823488D02*
X127397677Y-135775869D01*
X127397677Y-135775869D02*
X127350058Y-135728250D01*
X127350058Y-135728250D02*
X127302439Y-135633012D01*
X127302439Y-135633012D02*
X127302439Y-135537774D01*
X127302439Y-135537774D02*
X127350058Y-135442536D01*
X127350058Y-135442536D02*
X127397677Y-135394917D01*
X127397677Y-135394917D02*
X127492915Y-135347298D01*
X127492915Y-135347298D02*
X127731010Y-135347298D01*
X127731010Y-135347298D02*
X127873867Y-135394917D01*
X128778629Y-136347298D02*
X128302439Y-136347298D01*
X128302439Y-136347298D02*
X128302439Y-135347298D01*
X129683391Y-136252059D02*
X129635772Y-136299679D01*
X129635772Y-136299679D02*
X129492915Y-136347298D01*
X129492915Y-136347298D02*
X129397677Y-136347298D01*
X129397677Y-136347298D02*
X129254820Y-136299679D01*
X129254820Y-136299679D02*
X129159582Y-136204440D01*
X129159582Y-136204440D02*
X129111963Y-136109202D01*
X129111963Y-136109202D02*
X129064344Y-135918726D01*
X129064344Y-135918726D02*
X129064344Y-135775869D01*
X129064344Y-135775869D02*
X129111963Y-135585393D01*
X129111963Y-135585393D02*
X129159582Y-135490155D01*
X129159582Y-135490155D02*
X129254820Y-135394917D01*
X129254820Y-135394917D02*
X129397677Y-135347298D01*
X129397677Y-135347298D02*
X129492915Y-135347298D01*
X129492915Y-135347298D02*
X129635772Y-135394917D01*
X129635772Y-135394917D02*
X129683391Y-135442536D01*
X130064344Y-135442536D02*
X130111963Y-135394917D01*
X130111963Y-135394917D02*
X130207201Y-135347298D01*
X130207201Y-135347298D02*
X130445296Y-135347298D01*
X130445296Y-135347298D02*
X130540534Y-135394917D01*
X130540534Y-135394917D02*
X130588153Y-135442536D01*
X130588153Y-135442536D02*
X130635772Y-135537774D01*
X130635772Y-135537774D02*
X130635772Y-135633012D01*
X130635772Y-135633012D02*
X130588153Y-135775869D01*
X130588153Y-135775869D02*
X130016725Y-136347298D01*
X130016725Y-136347298D02*
X130635772Y-136347298D01*
X120952439Y-136299679D02*
X121095296Y-136347298D01*
X121095296Y-136347298D02*
X121333391Y-136347298D01*
X121333391Y-136347298D02*
X121428629Y-136299679D01*
X121428629Y-136299679D02*
X121476248Y-136252059D01*
X121476248Y-136252059D02*
X121523867Y-136156821D01*
X121523867Y-136156821D02*
X121523867Y-136061583D01*
X121523867Y-136061583D02*
X121476248Y-135966345D01*
X121476248Y-135966345D02*
X121428629Y-135918726D01*
X121428629Y-135918726D02*
X121333391Y-135871107D01*
X121333391Y-135871107D02*
X121142915Y-135823488D01*
X121142915Y-135823488D02*
X121047677Y-135775869D01*
X121047677Y-135775869D02*
X121000058Y-135728250D01*
X121000058Y-135728250D02*
X120952439Y-135633012D01*
X120952439Y-135633012D02*
X120952439Y-135537774D01*
X120952439Y-135537774D02*
X121000058Y-135442536D01*
X121000058Y-135442536D02*
X121047677Y-135394917D01*
X121047677Y-135394917D02*
X121142915Y-135347298D01*
X121142915Y-135347298D02*
X121381010Y-135347298D01*
X121381010Y-135347298D02*
X121523867Y-135394917D01*
X122428629Y-136347298D02*
X121952439Y-136347298D01*
X121952439Y-136347298D02*
X121952439Y-135347298D01*
X123333391Y-136252059D02*
X123285772Y-136299679D01*
X123285772Y-136299679D02*
X123142915Y-136347298D01*
X123142915Y-136347298D02*
X123047677Y-136347298D01*
X123047677Y-136347298D02*
X122904820Y-136299679D01*
X122904820Y-136299679D02*
X122809582Y-136204440D01*
X122809582Y-136204440D02*
X122761963Y-136109202D01*
X122761963Y-136109202D02*
X122714344Y-135918726D01*
X122714344Y-135918726D02*
X122714344Y-135775869D01*
X122714344Y-135775869D02*
X122761963Y-135585393D01*
X122761963Y-135585393D02*
X122809582Y-135490155D01*
X122809582Y-135490155D02*
X122904820Y-135394917D01*
X122904820Y-135394917D02*
X123047677Y-135347298D01*
X123047677Y-135347298D02*
X123142915Y-135347298D01*
X123142915Y-135347298D02*
X123285772Y-135394917D01*
X123285772Y-135394917D02*
X123333391Y-135442536D01*
X124285772Y-136347298D02*
X123714344Y-136347298D01*
X124000058Y-136347298D02*
X124000058Y-135347298D01*
X124000058Y-135347298D02*
X123904820Y-135490155D01*
X123904820Y-135490155D02*
X123809582Y-135585393D01*
X123809582Y-135585393D02*
X123714344Y-135633012D01*
X127302439Y-133759679D02*
X127445296Y-133807298D01*
X127445296Y-133807298D02*
X127683391Y-133807298D01*
X127683391Y-133807298D02*
X127778629Y-133759679D01*
X127778629Y-133759679D02*
X127826248Y-133712059D01*
X127826248Y-133712059D02*
X127873867Y-133616821D01*
X127873867Y-133616821D02*
X127873867Y-133521583D01*
X127873867Y-133521583D02*
X127826248Y-133426345D01*
X127826248Y-133426345D02*
X127778629Y-133378726D01*
X127778629Y-133378726D02*
X127683391Y-133331107D01*
X127683391Y-133331107D02*
X127492915Y-133283488D01*
X127492915Y-133283488D02*
X127397677Y-133235869D01*
X127397677Y-133235869D02*
X127350058Y-133188250D01*
X127350058Y-133188250D02*
X127302439Y-133093012D01*
X127302439Y-133093012D02*
X127302439Y-132997774D01*
X127302439Y-132997774D02*
X127350058Y-132902536D01*
X127350058Y-132902536D02*
X127397677Y-132854917D01*
X127397677Y-132854917D02*
X127492915Y-132807298D01*
X127492915Y-132807298D02*
X127731010Y-132807298D01*
X127731010Y-132807298D02*
X127873867Y-132854917D01*
X128302439Y-133807298D02*
X128302439Y-132807298D01*
X128302439Y-132807298D02*
X128540534Y-132807298D01*
X128540534Y-132807298D02*
X128683391Y-132854917D01*
X128683391Y-132854917D02*
X128778629Y-132950155D01*
X128778629Y-132950155D02*
X128826248Y-133045393D01*
X128826248Y-133045393D02*
X128873867Y-133235869D01*
X128873867Y-133235869D02*
X128873867Y-133378726D01*
X128873867Y-133378726D02*
X128826248Y-133569202D01*
X128826248Y-133569202D02*
X128778629Y-133664440D01*
X128778629Y-133664440D02*
X128683391Y-133759679D01*
X128683391Y-133759679D02*
X128540534Y-133807298D01*
X128540534Y-133807298D02*
X128302439Y-133807298D01*
X129254820Y-133521583D02*
X129731010Y-133521583D01*
X129159582Y-133807298D02*
X129492915Y-132807298D01*
X129492915Y-132807298D02*
X129826248Y-133807298D01*
X130111963Y-132902536D02*
X130159582Y-132854917D01*
X130159582Y-132854917D02*
X130254820Y-132807298D01*
X130254820Y-132807298D02*
X130492915Y-132807298D01*
X130492915Y-132807298D02*
X130588153Y-132854917D01*
X130588153Y-132854917D02*
X130635772Y-132902536D01*
X130635772Y-132902536D02*
X130683391Y-132997774D01*
X130683391Y-132997774D02*
X130683391Y-133093012D01*
X130683391Y-133093012D02*
X130635772Y-133235869D01*
X130635772Y-133235869D02*
X130064344Y-133807298D01*
X130064344Y-133807298D02*
X130683391Y-133807298D01*
X122858884Y-143382419D02*
X122858884Y-142382419D01*
X123287455Y-143334800D02*
X123430312Y-143382419D01*
X123430312Y-143382419D02*
X123668407Y-143382419D01*
X123668407Y-143382419D02*
X123763645Y-143334800D01*
X123763645Y-143334800D02*
X123811264Y-143287180D01*
X123811264Y-143287180D02*
X123858883Y-143191942D01*
X123858883Y-143191942D02*
X123858883Y-143096704D01*
X123858883Y-143096704D02*
X123811264Y-143001466D01*
X123811264Y-143001466D02*
X123763645Y-142953847D01*
X123763645Y-142953847D02*
X123668407Y-142906228D01*
X123668407Y-142906228D02*
X123477931Y-142858609D01*
X123477931Y-142858609D02*
X123382693Y-142810990D01*
X123382693Y-142810990D02*
X123335074Y-142763371D01*
X123335074Y-142763371D02*
X123287455Y-142668133D01*
X123287455Y-142668133D02*
X123287455Y-142572895D01*
X123287455Y-142572895D02*
X123335074Y-142477657D01*
X123335074Y-142477657D02*
X123382693Y-142430038D01*
X123382693Y-142430038D02*
X123477931Y-142382419D01*
X123477931Y-142382419D02*
X123716026Y-142382419D01*
X123716026Y-142382419D02*
X123858883Y-142430038D01*
X124477931Y-142382419D02*
X124668407Y-142382419D01*
X124668407Y-142382419D02*
X124763645Y-142430038D01*
X124763645Y-142430038D02*
X124858883Y-142525276D01*
X124858883Y-142525276D02*
X124906502Y-142715752D01*
X124906502Y-142715752D02*
X124906502Y-143049085D01*
X124906502Y-143049085D02*
X124858883Y-143239561D01*
X124858883Y-143239561D02*
X124763645Y-143334800D01*
X124763645Y-143334800D02*
X124668407Y-143382419D01*
X124668407Y-143382419D02*
X124477931Y-143382419D01*
X124477931Y-143382419D02*
X124382693Y-143334800D01*
X124382693Y-143334800D02*
X124287455Y-143239561D01*
X124287455Y-143239561D02*
X124239836Y-143049085D01*
X124239836Y-143049085D02*
X124239836Y-142715752D01*
X124239836Y-142715752D02*
X124287455Y-142525276D01*
X124287455Y-142525276D02*
X124382693Y-142430038D01*
X124382693Y-142430038D02*
X124477931Y-142382419D01*
X125858883Y-143382419D02*
X125287455Y-143382419D01*
X125573169Y-143382419D02*
X125573169Y-142382419D01*
X125573169Y-142382419D02*
X125477931Y-142525276D01*
X125477931Y-142525276D02*
X125382693Y-142620514D01*
X125382693Y-142620514D02*
X125287455Y-142668133D01*
X126763645Y-142382419D02*
X126287455Y-142382419D01*
X126287455Y-142382419D02*
X126239836Y-142858609D01*
X126239836Y-142858609D02*
X126287455Y-142810990D01*
X126287455Y-142810990D02*
X126382693Y-142763371D01*
X126382693Y-142763371D02*
X126620788Y-142763371D01*
X126620788Y-142763371D02*
X126716026Y-142810990D01*
X126716026Y-142810990D02*
X126763645Y-142858609D01*
X126763645Y-142858609D02*
X126811264Y-142953847D01*
X126811264Y-142953847D02*
X126811264Y-143191942D01*
X126811264Y-143191942D02*
X126763645Y-143287180D01*
X126763645Y-143287180D02*
X126716026Y-143334800D01*
X126716026Y-143334800D02*
X126620788Y-143382419D01*
X126620788Y-143382419D02*
X126382693Y-143382419D01*
X126382693Y-143382419D02*
X126287455Y-143334800D01*
X126287455Y-143334800D02*
X126239836Y-143287180D01*
X127668407Y-142715752D02*
X127668407Y-143382419D01*
X127430312Y-142334800D02*
X127192217Y-143049085D01*
X127192217Y-143049085D02*
X127811264Y-143049085D01*
X128382693Y-142382419D02*
X128477931Y-142382419D01*
X128477931Y-142382419D02*
X128573169Y-142430038D01*
X128573169Y-142430038D02*
X128620788Y-142477657D01*
X128620788Y-142477657D02*
X128668407Y-142572895D01*
X128668407Y-142572895D02*
X128716026Y-142763371D01*
X128716026Y-142763371D02*
X128716026Y-143001466D01*
X128716026Y-143001466D02*
X128668407Y-143191942D01*
X128668407Y-143191942D02*
X128620788Y-143287180D01*
X128620788Y-143287180D02*
X128573169Y-143334800D01*
X128573169Y-143334800D02*
X128477931Y-143382419D01*
X128477931Y-143382419D02*
X128382693Y-143382419D01*
X128382693Y-143382419D02*
X128287455Y-143334800D01*
X128287455Y-143334800D02*
X128239836Y-143287180D01*
X128239836Y-143287180D02*
X128192217Y-143191942D01*
X128192217Y-143191942D02*
X128144598Y-143001466D01*
X128144598Y-143001466D02*
X128144598Y-142763371D01*
X128144598Y-142763371D02*
X128192217Y-142572895D01*
X128192217Y-142572895D02*
X128239836Y-142477657D01*
X128239836Y-142477657D02*
X128287455Y-142430038D01*
X128287455Y-142430038D02*
X128382693Y-142382419D01*
X127873867Y-130314917D02*
X127778629Y-130267298D01*
X127778629Y-130267298D02*
X127635772Y-130267298D01*
X127635772Y-130267298D02*
X127492915Y-130314917D01*
X127492915Y-130314917D02*
X127397677Y-130410155D01*
X127397677Y-130410155D02*
X127350058Y-130505393D01*
X127350058Y-130505393D02*
X127302439Y-130695869D01*
X127302439Y-130695869D02*
X127302439Y-130838726D01*
X127302439Y-130838726D02*
X127350058Y-131029202D01*
X127350058Y-131029202D02*
X127397677Y-131124440D01*
X127397677Y-131124440D02*
X127492915Y-131219679D01*
X127492915Y-131219679D02*
X127635772Y-131267298D01*
X127635772Y-131267298D02*
X127731010Y-131267298D01*
X127731010Y-131267298D02*
X127873867Y-131219679D01*
X127873867Y-131219679D02*
X127921486Y-131172059D01*
X127921486Y-131172059D02*
X127921486Y-130838726D01*
X127921486Y-130838726D02*
X127731010Y-130838726D01*
X128350058Y-131267298D02*
X128350058Y-130267298D01*
X128350058Y-130267298D02*
X128921486Y-131267298D01*
X128921486Y-131267298D02*
X128921486Y-130267298D01*
X129397677Y-131267298D02*
X129397677Y-130267298D01*
X129397677Y-130267298D02*
X129635772Y-130267298D01*
X129635772Y-130267298D02*
X129778629Y-130314917D01*
X129778629Y-130314917D02*
X129873867Y-130410155D01*
X129873867Y-130410155D02*
X129921486Y-130505393D01*
X129921486Y-130505393D02*
X129969105Y-130695869D01*
X129969105Y-130695869D02*
X129969105Y-130838726D01*
X129969105Y-130838726D02*
X129921486Y-131029202D01*
X129921486Y-131029202D02*
X129873867Y-131124440D01*
X129873867Y-131124440D02*
X129778629Y-131219679D01*
X129778629Y-131219679D02*
X129635772Y-131267298D01*
X129635772Y-131267298D02*
X129397677Y-131267298D01*
X130350058Y-130362536D02*
X130397677Y-130314917D01*
X130397677Y-130314917D02*
X130492915Y-130267298D01*
X130492915Y-130267298D02*
X130731010Y-130267298D01*
X130731010Y-130267298D02*
X130826248Y-130314917D01*
X130826248Y-130314917D02*
X130873867Y-130362536D01*
X130873867Y-130362536D02*
X130921486Y-130457774D01*
X130921486Y-130457774D02*
X130921486Y-130553012D01*
X130921486Y-130553012D02*
X130873867Y-130695869D01*
X130873867Y-130695869D02*
X130302439Y-131267298D01*
X130302439Y-131267298D02*
X130921486Y-131267298D01*
X120857201Y-137887298D02*
X121190534Y-138887298D01*
X121190534Y-138887298D02*
X121523867Y-137887298D01*
X122428629Y-138792059D02*
X122381010Y-138839679D01*
X122381010Y-138839679D02*
X122238153Y-138887298D01*
X122238153Y-138887298D02*
X122142915Y-138887298D01*
X122142915Y-138887298D02*
X122000058Y-138839679D01*
X122000058Y-138839679D02*
X121904820Y-138744440D01*
X121904820Y-138744440D02*
X121857201Y-138649202D01*
X121857201Y-138649202D02*
X121809582Y-138458726D01*
X121809582Y-138458726D02*
X121809582Y-138315869D01*
X121809582Y-138315869D02*
X121857201Y-138125393D01*
X121857201Y-138125393D02*
X121904820Y-138030155D01*
X121904820Y-138030155D02*
X122000058Y-137934917D01*
X122000058Y-137934917D02*
X122142915Y-137887298D01*
X122142915Y-137887298D02*
X122238153Y-137887298D01*
X122238153Y-137887298D02*
X122381010Y-137934917D01*
X122381010Y-137934917D02*
X122428629Y-137982536D01*
X123428629Y-138792059D02*
X123381010Y-138839679D01*
X123381010Y-138839679D02*
X123238153Y-138887298D01*
X123238153Y-138887298D02*
X123142915Y-138887298D01*
X123142915Y-138887298D02*
X123000058Y-138839679D01*
X123000058Y-138839679D02*
X122904820Y-138744440D01*
X122904820Y-138744440D02*
X122857201Y-138649202D01*
X122857201Y-138649202D02*
X122809582Y-138458726D01*
X122809582Y-138458726D02*
X122809582Y-138315869D01*
X122809582Y-138315869D02*
X122857201Y-138125393D01*
X122857201Y-138125393D02*
X122904820Y-138030155D01*
X122904820Y-138030155D02*
X123000058Y-137934917D01*
X123000058Y-137934917D02*
X123142915Y-137887298D01*
X123142915Y-137887298D02*
X123238153Y-137887298D01*
X123238153Y-137887298D02*
X123381010Y-137934917D01*
X123381010Y-137934917D02*
X123428629Y-137982536D01*
X124381010Y-138887298D02*
X123809582Y-138887298D01*
X124095296Y-138887298D02*
X124095296Y-137887298D01*
X124095296Y-137887298D02*
X124000058Y-138030155D01*
X124000058Y-138030155D02*
X123904820Y-138125393D01*
X123904820Y-138125393D02*
X123809582Y-138173012D01*
X127207201Y-137887298D02*
X127540534Y-138887298D01*
X127540534Y-138887298D02*
X127873867Y-137887298D01*
X128778629Y-138792059D02*
X128731010Y-138839679D01*
X128731010Y-138839679D02*
X128588153Y-138887298D01*
X128588153Y-138887298D02*
X128492915Y-138887298D01*
X128492915Y-138887298D02*
X128350058Y-138839679D01*
X128350058Y-138839679D02*
X128254820Y-138744440D01*
X128254820Y-138744440D02*
X128207201Y-138649202D01*
X128207201Y-138649202D02*
X128159582Y-138458726D01*
X128159582Y-138458726D02*
X128159582Y-138315869D01*
X128159582Y-138315869D02*
X128207201Y-138125393D01*
X128207201Y-138125393D02*
X128254820Y-138030155D01*
X128254820Y-138030155D02*
X128350058Y-137934917D01*
X128350058Y-137934917D02*
X128492915Y-137887298D01*
X128492915Y-137887298D02*
X128588153Y-137887298D01*
X128588153Y-137887298D02*
X128731010Y-137934917D01*
X128731010Y-137934917D02*
X128778629Y-137982536D01*
X129778629Y-138792059D02*
X129731010Y-138839679D01*
X129731010Y-138839679D02*
X129588153Y-138887298D01*
X129588153Y-138887298D02*
X129492915Y-138887298D01*
X129492915Y-138887298D02*
X129350058Y-138839679D01*
X129350058Y-138839679D02*
X129254820Y-138744440D01*
X129254820Y-138744440D02*
X129207201Y-138649202D01*
X129207201Y-138649202D02*
X129159582Y-138458726D01*
X129159582Y-138458726D02*
X129159582Y-138315869D01*
X129159582Y-138315869D02*
X129207201Y-138125393D01*
X129207201Y-138125393D02*
X129254820Y-138030155D01*
X129254820Y-138030155D02*
X129350058Y-137934917D01*
X129350058Y-137934917D02*
X129492915Y-137887298D01*
X129492915Y-137887298D02*
X129588153Y-137887298D01*
X129588153Y-137887298D02*
X129731010Y-137934917D01*
X129731010Y-137934917D02*
X129778629Y-137982536D01*
X130159582Y-137982536D02*
X130207201Y-137934917D01*
X130207201Y-137934917D02*
X130302439Y-137887298D01*
X130302439Y-137887298D02*
X130540534Y-137887298D01*
X130540534Y-137887298D02*
X130635772Y-137934917D01*
X130635772Y-137934917D02*
X130683391Y-137982536D01*
X130683391Y-137982536D02*
X130731010Y-138077774D01*
X130731010Y-138077774D02*
X130731010Y-138173012D01*
X130731010Y-138173012D02*
X130683391Y-138315869D01*
X130683391Y-138315869D02*
X130111963Y-138887298D01*
X130111963Y-138887298D02*
X130731010Y-138887298D01*
X121523867Y-130314917D02*
X121428629Y-130267298D01*
X121428629Y-130267298D02*
X121285772Y-130267298D01*
X121285772Y-130267298D02*
X121142915Y-130314917D01*
X121142915Y-130314917D02*
X121047677Y-130410155D01*
X121047677Y-130410155D02*
X121000058Y-130505393D01*
X121000058Y-130505393D02*
X120952439Y-130695869D01*
X120952439Y-130695869D02*
X120952439Y-130838726D01*
X120952439Y-130838726D02*
X121000058Y-131029202D01*
X121000058Y-131029202D02*
X121047677Y-131124440D01*
X121047677Y-131124440D02*
X121142915Y-131219679D01*
X121142915Y-131219679D02*
X121285772Y-131267298D01*
X121285772Y-131267298D02*
X121381010Y-131267298D01*
X121381010Y-131267298D02*
X121523867Y-131219679D01*
X121523867Y-131219679D02*
X121571486Y-131172059D01*
X121571486Y-131172059D02*
X121571486Y-130838726D01*
X121571486Y-130838726D02*
X121381010Y-130838726D01*
X122000058Y-131267298D02*
X122000058Y-130267298D01*
X122000058Y-130267298D02*
X122571486Y-131267298D01*
X122571486Y-131267298D02*
X122571486Y-130267298D01*
X123047677Y-131267298D02*
X123047677Y-130267298D01*
X123047677Y-130267298D02*
X123285772Y-130267298D01*
X123285772Y-130267298D02*
X123428629Y-130314917D01*
X123428629Y-130314917D02*
X123523867Y-130410155D01*
X123523867Y-130410155D02*
X123571486Y-130505393D01*
X123571486Y-130505393D02*
X123619105Y-130695869D01*
X123619105Y-130695869D02*
X123619105Y-130838726D01*
X123619105Y-130838726D02*
X123571486Y-131029202D01*
X123571486Y-131029202D02*
X123523867Y-131124440D01*
X123523867Y-131124440D02*
X123428629Y-131219679D01*
X123428629Y-131219679D02*
X123285772Y-131267298D01*
X123285772Y-131267298D02*
X123047677Y-131267298D01*
X124571486Y-131267298D02*
X124000058Y-131267298D01*
X124285772Y-131267298D02*
X124285772Y-130267298D01*
X124285772Y-130267298D02*
X124190534Y-130410155D01*
X124190534Y-130410155D02*
X124095296Y-130505393D01*
X124095296Y-130505393D02*
X124000058Y-130553012D01*
X120952439Y-133759679D02*
X121095296Y-133807298D01*
X121095296Y-133807298D02*
X121333391Y-133807298D01*
X121333391Y-133807298D02*
X121428629Y-133759679D01*
X121428629Y-133759679D02*
X121476248Y-133712059D01*
X121476248Y-133712059D02*
X121523867Y-133616821D01*
X121523867Y-133616821D02*
X121523867Y-133521583D01*
X121523867Y-133521583D02*
X121476248Y-133426345D01*
X121476248Y-133426345D02*
X121428629Y-133378726D01*
X121428629Y-133378726D02*
X121333391Y-133331107D01*
X121333391Y-133331107D02*
X121142915Y-133283488D01*
X121142915Y-133283488D02*
X121047677Y-133235869D01*
X121047677Y-133235869D02*
X121000058Y-133188250D01*
X121000058Y-133188250D02*
X120952439Y-133093012D01*
X120952439Y-133093012D02*
X120952439Y-132997774D01*
X120952439Y-132997774D02*
X121000058Y-132902536D01*
X121000058Y-132902536D02*
X121047677Y-132854917D01*
X121047677Y-132854917D02*
X121142915Y-132807298D01*
X121142915Y-132807298D02*
X121381010Y-132807298D01*
X121381010Y-132807298D02*
X121523867Y-132854917D01*
X121952439Y-133807298D02*
X121952439Y-132807298D01*
X121952439Y-132807298D02*
X122190534Y-132807298D01*
X122190534Y-132807298D02*
X122333391Y-132854917D01*
X122333391Y-132854917D02*
X122428629Y-132950155D01*
X122428629Y-132950155D02*
X122476248Y-133045393D01*
X122476248Y-133045393D02*
X122523867Y-133235869D01*
X122523867Y-133235869D02*
X122523867Y-133378726D01*
X122523867Y-133378726D02*
X122476248Y-133569202D01*
X122476248Y-133569202D02*
X122428629Y-133664440D01*
X122428629Y-133664440D02*
X122333391Y-133759679D01*
X122333391Y-133759679D02*
X122190534Y-133807298D01*
X122190534Y-133807298D02*
X121952439Y-133807298D01*
X122904820Y-133521583D02*
X123381010Y-133521583D01*
X122809582Y-133807298D02*
X123142915Y-132807298D01*
X123142915Y-132807298D02*
X123476248Y-133807298D01*
X124333391Y-133807298D02*
X123761963Y-133807298D01*
X124047677Y-133807298D02*
X124047677Y-132807298D01*
X124047677Y-132807298D02*
X123952439Y-132950155D01*
X123952439Y-132950155D02*
X123857201Y-133045393D01*
X123857201Y-133045393D02*
X123761963Y-133093012D01*
X120906265Y-60567300D02*
X121049122Y-60614919D01*
X121049122Y-60614919D02*
X121287217Y-60614919D01*
X121287217Y-60614919D02*
X121382455Y-60567300D01*
X121382455Y-60567300D02*
X121430074Y-60519680D01*
X121430074Y-60519680D02*
X121477693Y-60424442D01*
X121477693Y-60424442D02*
X121477693Y-60329204D01*
X121477693Y-60329204D02*
X121430074Y-60233966D01*
X121430074Y-60233966D02*
X121382455Y-60186347D01*
X121382455Y-60186347D02*
X121287217Y-60138728D01*
X121287217Y-60138728D02*
X121096741Y-60091109D01*
X121096741Y-60091109D02*
X121001503Y-60043490D01*
X121001503Y-60043490D02*
X120953884Y-59995871D01*
X120953884Y-59995871D02*
X120906265Y-59900633D01*
X120906265Y-59900633D02*
X120906265Y-59805395D01*
X120906265Y-59805395D02*
X120953884Y-59710157D01*
X120953884Y-59710157D02*
X121001503Y-59662538D01*
X121001503Y-59662538D02*
X121096741Y-59614919D01*
X121096741Y-59614919D02*
X121334836Y-59614919D01*
X121334836Y-59614919D02*
X121477693Y-59662538D01*
X121906265Y-60614919D02*
X121906265Y-59614919D01*
X121906265Y-59614919D02*
X122287217Y-59614919D01*
X122287217Y-59614919D02*
X122382455Y-59662538D01*
X122382455Y-59662538D02*
X122430074Y-59710157D01*
X122430074Y-59710157D02*
X122477693Y-59805395D01*
X122477693Y-59805395D02*
X122477693Y-59948252D01*
X122477693Y-59948252D02*
X122430074Y-60043490D01*
X122430074Y-60043490D02*
X122382455Y-60091109D01*
X122382455Y-60091109D02*
X122287217Y-60138728D01*
X122287217Y-60138728D02*
X121906265Y-60138728D01*
X123239598Y-60091109D02*
X123382455Y-60138728D01*
X123382455Y-60138728D02*
X123430074Y-60186347D01*
X123430074Y-60186347D02*
X123477693Y-60281585D01*
X123477693Y-60281585D02*
X123477693Y-60424442D01*
X123477693Y-60424442D02*
X123430074Y-60519680D01*
X123430074Y-60519680D02*
X123382455Y-60567300D01*
X123382455Y-60567300D02*
X123287217Y-60614919D01*
X123287217Y-60614919D02*
X122906265Y-60614919D01*
X122906265Y-60614919D02*
X122906265Y-59614919D01*
X122906265Y-59614919D02*
X123239598Y-59614919D01*
X123239598Y-59614919D02*
X123334836Y-59662538D01*
X123334836Y-59662538D02*
X123382455Y-59710157D01*
X123382455Y-59710157D02*
X123430074Y-59805395D01*
X123430074Y-59805395D02*
X123430074Y-59900633D01*
X123430074Y-59900633D02*
X123382455Y-59995871D01*
X123382455Y-59995871D02*
X123334836Y-60043490D01*
X123334836Y-60043490D02*
X123239598Y-60091109D01*
X123239598Y-60091109D02*
X122906265Y-60091109D01*
X124096741Y-59614919D02*
X124191979Y-59614919D01*
X124191979Y-59614919D02*
X124287217Y-59662538D01*
X124287217Y-59662538D02*
X124334836Y-59710157D01*
X124334836Y-59710157D02*
X124382455Y-59805395D01*
X124382455Y-59805395D02*
X124430074Y-59995871D01*
X124430074Y-59995871D02*
X124430074Y-60233966D01*
X124430074Y-60233966D02*
X124382455Y-60424442D01*
X124382455Y-60424442D02*
X124334836Y-60519680D01*
X124334836Y-60519680D02*
X124287217Y-60567300D01*
X124287217Y-60567300D02*
X124191979Y-60614919D01*
X124191979Y-60614919D02*
X124096741Y-60614919D01*
X124096741Y-60614919D02*
X124001503Y-60567300D01*
X124001503Y-60567300D02*
X123953884Y-60519680D01*
X123953884Y-60519680D02*
X123906265Y-60424442D01*
X123906265Y-60424442D02*
X123858646Y-60233966D01*
X123858646Y-60233966D02*
X123858646Y-59995871D01*
X123858646Y-59995871D02*
X123906265Y-59805395D01*
X123906265Y-59805395D02*
X123953884Y-59710157D01*
X123953884Y-59710157D02*
X124001503Y-59662538D01*
X124001503Y-59662538D02*
X124096741Y-59614919D01*
X124906265Y-60614919D02*
X125096741Y-60614919D01*
X125096741Y-60614919D02*
X125191979Y-60567300D01*
X125191979Y-60567300D02*
X125239598Y-60519680D01*
X125239598Y-60519680D02*
X125334836Y-60376823D01*
X125334836Y-60376823D02*
X125382455Y-60186347D01*
X125382455Y-60186347D02*
X125382455Y-59805395D01*
X125382455Y-59805395D02*
X125334836Y-59710157D01*
X125334836Y-59710157D02*
X125287217Y-59662538D01*
X125287217Y-59662538D02*
X125191979Y-59614919D01*
X125191979Y-59614919D02*
X125001503Y-59614919D01*
X125001503Y-59614919D02*
X124906265Y-59662538D01*
X124906265Y-59662538D02*
X124858646Y-59710157D01*
X124858646Y-59710157D02*
X124811027Y-59805395D01*
X124811027Y-59805395D02*
X124811027Y-60043490D01*
X124811027Y-60043490D02*
X124858646Y-60138728D01*
X124858646Y-60138728D02*
X124906265Y-60186347D01*
X124906265Y-60186347D02*
X125001503Y-60233966D01*
X125001503Y-60233966D02*
X125191979Y-60233966D01*
X125191979Y-60233966D02*
X125287217Y-60186347D01*
X125287217Y-60186347D02*
X125334836Y-60138728D01*
X125334836Y-60138728D02*
X125382455Y-60043490D01*
X125715789Y-59614919D02*
X125953884Y-60614919D01*
X125953884Y-60614919D02*
X126144360Y-59900633D01*
X126144360Y-59900633D02*
X126334836Y-60614919D01*
X126334836Y-60614919D02*
X126572932Y-59614919D01*
X127096741Y-60043490D02*
X127001503Y-59995871D01*
X127001503Y-59995871D02*
X126953884Y-59948252D01*
X126953884Y-59948252D02*
X126906265Y-59853014D01*
X126906265Y-59853014D02*
X126906265Y-59805395D01*
X126906265Y-59805395D02*
X126953884Y-59710157D01*
X126953884Y-59710157D02*
X127001503Y-59662538D01*
X127001503Y-59662538D02*
X127096741Y-59614919D01*
X127096741Y-59614919D02*
X127287217Y-59614919D01*
X127287217Y-59614919D02*
X127382455Y-59662538D01*
X127382455Y-59662538D02*
X127430074Y-59710157D01*
X127430074Y-59710157D02*
X127477693Y-59805395D01*
X127477693Y-59805395D02*
X127477693Y-59853014D01*
X127477693Y-59853014D02*
X127430074Y-59948252D01*
X127430074Y-59948252D02*
X127382455Y-59995871D01*
X127382455Y-59995871D02*
X127287217Y-60043490D01*
X127287217Y-60043490D02*
X127096741Y-60043490D01*
X127096741Y-60043490D02*
X127001503Y-60091109D01*
X127001503Y-60091109D02*
X126953884Y-60138728D01*
X126953884Y-60138728D02*
X126906265Y-60233966D01*
X126906265Y-60233966D02*
X126906265Y-60424442D01*
X126906265Y-60424442D02*
X126953884Y-60519680D01*
X126953884Y-60519680D02*
X127001503Y-60567300D01*
X127001503Y-60567300D02*
X127096741Y-60614919D01*
X127096741Y-60614919D02*
X127287217Y-60614919D01*
X127287217Y-60614919D02*
X127382455Y-60567300D01*
X127382455Y-60567300D02*
X127430074Y-60519680D01*
X127430074Y-60519680D02*
X127477693Y-60424442D01*
X127477693Y-60424442D02*
X127477693Y-60233966D01*
X127477693Y-60233966D02*
X127430074Y-60138728D01*
X127430074Y-60138728D02*
X127382455Y-60091109D01*
X127382455Y-60091109D02*
X127287217Y-60043490D01*
X127906265Y-60233966D02*
X128668170Y-60233966D01*
X129334836Y-59614919D02*
X129430074Y-59614919D01*
X129430074Y-59614919D02*
X129525312Y-59662538D01*
X129525312Y-59662538D02*
X129572931Y-59710157D01*
X129572931Y-59710157D02*
X129620550Y-59805395D01*
X129620550Y-59805395D02*
X129668169Y-59995871D01*
X129668169Y-59995871D02*
X129668169Y-60233966D01*
X129668169Y-60233966D02*
X129620550Y-60424442D01*
X129620550Y-60424442D02*
X129572931Y-60519680D01*
X129572931Y-60519680D02*
X129525312Y-60567300D01*
X129525312Y-60567300D02*
X129430074Y-60614919D01*
X129430074Y-60614919D02*
X129334836Y-60614919D01*
X129334836Y-60614919D02*
X129239598Y-60567300D01*
X129239598Y-60567300D02*
X129191979Y-60519680D01*
X129191979Y-60519680D02*
X129144360Y-60424442D01*
X129144360Y-60424442D02*
X129096741Y-60233966D01*
X129096741Y-60233966D02*
X129096741Y-59995871D01*
X129096741Y-59995871D02*
X129144360Y-59805395D01*
X129144360Y-59805395D02*
X129191979Y-59710157D01*
X129191979Y-59710157D02*
X129239598Y-59662538D01*
X129239598Y-59662538D02*
X129334836Y-59614919D01*
X130572931Y-59614919D02*
X130096741Y-59614919D01*
X130096741Y-59614919D02*
X130049122Y-60091109D01*
X130049122Y-60091109D02*
X130096741Y-60043490D01*
X130096741Y-60043490D02*
X130191979Y-59995871D01*
X130191979Y-59995871D02*
X130430074Y-59995871D01*
X130430074Y-59995871D02*
X130525312Y-60043490D01*
X130525312Y-60043490D02*
X130572931Y-60091109D01*
X130572931Y-60091109D02*
X130620550Y-60186347D01*
X130620550Y-60186347D02*
X130620550Y-60424442D01*
X130620550Y-60424442D02*
X130572931Y-60519680D01*
X130572931Y-60519680D02*
X130525312Y-60567300D01*
X130525312Y-60567300D02*
X130430074Y-60614919D01*
X130430074Y-60614919D02*
X130191979Y-60614919D01*
X130191979Y-60614919D02*
X130096741Y-60567300D01*
X130096741Y-60567300D02*
X130049122Y-60519680D01*
D10*
X106911904Y-70041009D02*
X106578571Y-70041009D01*
X106578571Y-70564819D02*
X106578571Y-69564819D01*
X106578571Y-69564819D02*
X107054761Y-69564819D01*
X107864285Y-70564819D02*
X107864285Y-70041009D01*
X107864285Y-70041009D02*
X107816666Y-69945771D01*
X107816666Y-69945771D02*
X107721428Y-69898152D01*
X107721428Y-69898152D02*
X107530952Y-69898152D01*
X107530952Y-69898152D02*
X107435714Y-69945771D01*
X107864285Y-70517200D02*
X107769047Y-70564819D01*
X107769047Y-70564819D02*
X107530952Y-70564819D01*
X107530952Y-70564819D02*
X107435714Y-70517200D01*
X107435714Y-70517200D02*
X107388095Y-70421961D01*
X107388095Y-70421961D02*
X107388095Y-70326723D01*
X107388095Y-70326723D02*
X107435714Y-70231485D01*
X107435714Y-70231485D02*
X107530952Y-70183866D01*
X107530952Y-70183866D02*
X107769047Y-70183866D01*
X107769047Y-70183866D02*
X107864285Y-70136247D01*
X108340476Y-69898152D02*
X108340476Y-70564819D01*
X108340476Y-69993390D02*
X108388095Y-69945771D01*
X108388095Y-69945771D02*
X108483333Y-69898152D01*
X108483333Y-69898152D02*
X108626190Y-69898152D01*
X108626190Y-69898152D02*
X108721428Y-69945771D01*
X108721428Y-69945771D02*
X108769047Y-70041009D01*
X108769047Y-70041009D02*
X108769047Y-70564819D01*
X109769047Y-70564819D02*
X109197619Y-70564819D01*
X109483333Y-70564819D02*
X109483333Y-69564819D01*
X109483333Y-69564819D02*
X109388095Y-69707676D01*
X109388095Y-69707676D02*
X109292857Y-69802914D01*
X109292857Y-69802914D02*
X109197619Y-69850533D01*
X163766666Y-34104819D02*
X163433333Y-33628628D01*
X163195238Y-34104819D02*
X163195238Y-33104819D01*
X163195238Y-33104819D02*
X163576190Y-33104819D01*
X163576190Y-33104819D02*
X163671428Y-33152438D01*
X163671428Y-33152438D02*
X163719047Y-33200057D01*
X163719047Y-33200057D02*
X163766666Y-33295295D01*
X163766666Y-33295295D02*
X163766666Y-33438152D01*
X163766666Y-33438152D02*
X163719047Y-33533390D01*
X163719047Y-33533390D02*
X163671428Y-33581009D01*
X163671428Y-33581009D02*
X163576190Y-33628628D01*
X163576190Y-33628628D02*
X163195238Y-33628628D01*
X164195238Y-33581009D02*
X164528571Y-33581009D01*
X164671428Y-34104819D02*
X164195238Y-34104819D01*
X164195238Y-34104819D02*
X164195238Y-33104819D01*
X164195238Y-33104819D02*
X164671428Y-33104819D01*
X165433333Y-33581009D02*
X165100000Y-33581009D01*
X165100000Y-34104819D02*
X165100000Y-33104819D01*
X165100000Y-33104819D02*
X165576190Y-33104819D01*
X166100000Y-33104819D02*
X166100000Y-33342914D01*
X165861905Y-33247676D02*
X166100000Y-33342914D01*
X166100000Y-33342914D02*
X166338095Y-33247676D01*
X165957143Y-33533390D02*
X166100000Y-33342914D01*
X166100000Y-33342914D02*
X166242857Y-33533390D01*
X166861905Y-33104819D02*
X166861905Y-33342914D01*
X166623810Y-33247676D02*
X166861905Y-33342914D01*
X166861905Y-33342914D02*
X167100000Y-33247676D01*
X166719048Y-33533390D02*
X166861905Y-33342914D01*
X166861905Y-33342914D02*
X167004762Y-33533390D01*
X95186666Y-138244819D02*
X94853333Y-137768628D01*
X94615238Y-138244819D02*
X94615238Y-137244819D01*
X94615238Y-137244819D02*
X94996190Y-137244819D01*
X94996190Y-137244819D02*
X95091428Y-137292438D01*
X95091428Y-137292438D02*
X95139047Y-137340057D01*
X95139047Y-137340057D02*
X95186666Y-137435295D01*
X95186666Y-137435295D02*
X95186666Y-137578152D01*
X95186666Y-137578152D02*
X95139047Y-137673390D01*
X95139047Y-137673390D02*
X95091428Y-137721009D01*
X95091428Y-137721009D02*
X94996190Y-137768628D01*
X94996190Y-137768628D02*
X94615238Y-137768628D01*
X95615238Y-137721009D02*
X95948571Y-137721009D01*
X96091428Y-138244819D02*
X95615238Y-138244819D01*
X95615238Y-138244819D02*
X95615238Y-137244819D01*
X95615238Y-137244819D02*
X96091428Y-137244819D01*
X96853333Y-137721009D02*
X96520000Y-137721009D01*
X96520000Y-138244819D02*
X96520000Y-137244819D01*
X96520000Y-137244819D02*
X96996190Y-137244819D01*
X97520000Y-137244819D02*
X97520000Y-137482914D01*
X97281905Y-137387676D02*
X97520000Y-137482914D01*
X97520000Y-137482914D02*
X97758095Y-137387676D01*
X97377143Y-137673390D02*
X97520000Y-137482914D01*
X97520000Y-137482914D02*
X97662857Y-137673390D01*
X98281905Y-137244819D02*
X98281905Y-137482914D01*
X98043810Y-137387676D02*
X98281905Y-137482914D01*
X98281905Y-137482914D02*
X98520000Y-137387676D01*
X98139048Y-137673390D02*
X98281905Y-137482914D01*
X98281905Y-137482914D02*
X98424762Y-137673390D01*
X125500628Y-70286779D02*
X125167295Y-69810588D01*
X124929200Y-70286779D02*
X124929200Y-69286779D01*
X124929200Y-69286779D02*
X125310152Y-69286779D01*
X125310152Y-69286779D02*
X125405390Y-69334398D01*
X125405390Y-69334398D02*
X125453009Y-69382017D01*
X125453009Y-69382017D02*
X125500628Y-69477255D01*
X125500628Y-69477255D02*
X125500628Y-69620112D01*
X125500628Y-69620112D02*
X125453009Y-69715350D01*
X125453009Y-69715350D02*
X125405390Y-69762969D01*
X125405390Y-69762969D02*
X125310152Y-69810588D01*
X125310152Y-69810588D02*
X124929200Y-69810588D01*
X126357771Y-69620112D02*
X126357771Y-70286779D01*
X126119676Y-69239160D02*
X125881581Y-69953445D01*
X125881581Y-69953445D02*
X126500628Y-69953445D01*
X164674661Y-109740603D02*
X164341328Y-109264412D01*
X164103233Y-109740603D02*
X164103233Y-108740603D01*
X164103233Y-108740603D02*
X164484185Y-108740603D01*
X164484185Y-108740603D02*
X164579423Y-108788222D01*
X164579423Y-108788222D02*
X164627042Y-108835841D01*
X164627042Y-108835841D02*
X164674661Y-108931079D01*
X164674661Y-108931079D02*
X164674661Y-109073936D01*
X164674661Y-109073936D02*
X164627042Y-109169174D01*
X164627042Y-109169174D02*
X164579423Y-109216793D01*
X164579423Y-109216793D02*
X164484185Y-109264412D01*
X164484185Y-109264412D02*
X164103233Y-109264412D01*
X165627042Y-109740603D02*
X165055614Y-109740603D01*
X165341328Y-109740603D02*
X165341328Y-108740603D01*
X165341328Y-108740603D02*
X165246090Y-108883460D01*
X165246090Y-108883460D02*
X165150852Y-108978698D01*
X165150852Y-108978698D02*
X165055614Y-109026317D01*
X168629819Y-110342380D02*
X169629819Y-110104285D01*
X169629819Y-110104285D02*
X168915533Y-109913809D01*
X168915533Y-109913809D02*
X169629819Y-109723333D01*
X169629819Y-109723333D02*
X168629819Y-109485238D01*
X169344104Y-109151904D02*
X169344104Y-108675714D01*
X169629819Y-109247142D02*
X168629819Y-108913809D01*
X168629819Y-108913809D02*
X169629819Y-108580476D01*
X168629819Y-108389999D02*
X168629819Y-107818571D01*
X169629819Y-108104285D02*
X168629819Y-108104285D01*
X169106009Y-107485237D02*
X169106009Y-107151904D01*
X169629819Y-107009047D02*
X169629819Y-107485237D01*
X169629819Y-107485237D02*
X168629819Y-107485237D01*
X168629819Y-107485237D02*
X168629819Y-107009047D01*
X169629819Y-106009047D02*
X169153628Y-106342380D01*
X169629819Y-106580475D02*
X168629819Y-106580475D01*
X168629819Y-106580475D02*
X168629819Y-106199523D01*
X168629819Y-106199523D02*
X168677438Y-106104285D01*
X168677438Y-106104285D02*
X168725057Y-106056666D01*
X168725057Y-106056666D02*
X168820295Y-106009047D01*
X168820295Y-106009047D02*
X168963152Y-106009047D01*
X168963152Y-106009047D02*
X169058390Y-106056666D01*
X169058390Y-106056666D02*
X169106009Y-106104285D01*
X169106009Y-106104285D02*
X169153628Y-106199523D01*
X169153628Y-106199523D02*
X169153628Y-106580475D01*
X169725057Y-105818571D02*
X169725057Y-105056666D01*
X168629819Y-104961427D02*
X168629819Y-104389999D01*
X169629819Y-104675713D02*
X168629819Y-104675713D01*
X169106009Y-104056665D02*
X169106009Y-103723332D01*
X169629819Y-103580475D02*
X169629819Y-104056665D01*
X169629819Y-104056665D02*
X168629819Y-104056665D01*
X168629819Y-104056665D02*
X168629819Y-103580475D01*
X169629819Y-103151903D02*
X168629819Y-103151903D01*
X168629819Y-103151903D02*
X169344104Y-102818570D01*
X169344104Y-102818570D02*
X168629819Y-102485237D01*
X168629819Y-102485237D02*
X169629819Y-102485237D01*
X169629819Y-102009046D02*
X168629819Y-102009046D01*
X168629819Y-102009046D02*
X168629819Y-101628094D01*
X168629819Y-101628094D02*
X168677438Y-101532856D01*
X168677438Y-101532856D02*
X168725057Y-101485237D01*
X168725057Y-101485237D02*
X168820295Y-101437618D01*
X168820295Y-101437618D02*
X168963152Y-101437618D01*
X168963152Y-101437618D02*
X169058390Y-101485237D01*
X169058390Y-101485237D02*
X169106009Y-101532856D01*
X169106009Y-101532856D02*
X169153628Y-101628094D01*
X169153628Y-101628094D02*
X169153628Y-102009046D01*
X169629819Y-100485237D02*
X169629819Y-101056665D01*
X169629819Y-100770951D02*
X168629819Y-100770951D01*
X168629819Y-100770951D02*
X168772676Y-100866189D01*
X168772676Y-100866189D02*
X168867914Y-100961427D01*
X168867914Y-100961427D02*
X168915533Y-101056665D01*
X169629819Y-121534762D02*
X169629819Y-122010952D01*
X169629819Y-122010952D02*
X168629819Y-122010952D01*
X169106009Y-121201428D02*
X169106009Y-120868095D01*
X169629819Y-120725238D02*
X169629819Y-121201428D01*
X169629819Y-121201428D02*
X168629819Y-121201428D01*
X168629819Y-121201428D02*
X168629819Y-120725238D01*
X169629819Y-120296666D02*
X168629819Y-120296666D01*
X168629819Y-120296666D02*
X168629819Y-120058571D01*
X168629819Y-120058571D02*
X168677438Y-119915714D01*
X168677438Y-119915714D02*
X168772676Y-119820476D01*
X168772676Y-119820476D02*
X168867914Y-119772857D01*
X168867914Y-119772857D02*
X169058390Y-119725238D01*
X169058390Y-119725238D02*
X169201247Y-119725238D01*
X169201247Y-119725238D02*
X169391723Y-119772857D01*
X169391723Y-119772857D02*
X169486961Y-119820476D01*
X169486961Y-119820476D02*
X169582200Y-119915714D01*
X169582200Y-119915714D02*
X169629819Y-120058571D01*
X169629819Y-120058571D02*
X169629819Y-120296666D01*
X169725057Y-119534762D02*
X169725057Y-118772857D01*
X168629819Y-118677618D02*
X168629819Y-118106190D01*
X169629819Y-118391904D02*
X168629819Y-118391904D01*
X169106009Y-117772856D02*
X169106009Y-117439523D01*
X169629819Y-117296666D02*
X169629819Y-117772856D01*
X169629819Y-117772856D02*
X168629819Y-117772856D01*
X168629819Y-117772856D02*
X168629819Y-117296666D01*
X169629819Y-116868094D02*
X168629819Y-116868094D01*
X168629819Y-116868094D02*
X169344104Y-116534761D01*
X169344104Y-116534761D02*
X168629819Y-116201428D01*
X168629819Y-116201428D02*
X169629819Y-116201428D01*
X169629819Y-115725237D02*
X168629819Y-115725237D01*
X168629819Y-115725237D02*
X168629819Y-115344285D01*
X168629819Y-115344285D02*
X168677438Y-115249047D01*
X168677438Y-115249047D02*
X168725057Y-115201428D01*
X168725057Y-115201428D02*
X168820295Y-115153809D01*
X168820295Y-115153809D02*
X168963152Y-115153809D01*
X168963152Y-115153809D02*
X169058390Y-115201428D01*
X169058390Y-115201428D02*
X169106009Y-115249047D01*
X169106009Y-115249047D02*
X169153628Y-115344285D01*
X169153628Y-115344285D02*
X169153628Y-115725237D01*
X169629819Y-114201428D02*
X169629819Y-114772856D01*
X169629819Y-114487142D02*
X168629819Y-114487142D01*
X168629819Y-114487142D02*
X168772676Y-114582380D01*
X168772676Y-114582380D02*
X168867914Y-114677618D01*
X168867914Y-114677618D02*
X168915533Y-114772856D01*
X148459524Y-146197200D02*
X148602381Y-146244819D01*
X148602381Y-146244819D02*
X148840476Y-146244819D01*
X148840476Y-146244819D02*
X148935714Y-146197200D01*
X148935714Y-146197200D02*
X148983333Y-146149580D01*
X148983333Y-146149580D02*
X149030952Y-146054342D01*
X149030952Y-146054342D02*
X149030952Y-145959104D01*
X149030952Y-145959104D02*
X148983333Y-145863866D01*
X148983333Y-145863866D02*
X148935714Y-145816247D01*
X148935714Y-145816247D02*
X148840476Y-145768628D01*
X148840476Y-145768628D02*
X148650000Y-145721009D01*
X148650000Y-145721009D02*
X148554762Y-145673390D01*
X148554762Y-145673390D02*
X148507143Y-145625771D01*
X148507143Y-145625771D02*
X148459524Y-145530533D01*
X148459524Y-145530533D02*
X148459524Y-145435295D01*
X148459524Y-145435295D02*
X148507143Y-145340057D01*
X148507143Y-145340057D02*
X148554762Y-145292438D01*
X148554762Y-145292438D02*
X148650000Y-145244819D01*
X148650000Y-145244819D02*
X148888095Y-145244819D01*
X148888095Y-145244819D02*
X149030952Y-145292438D01*
X149364286Y-145578152D02*
X149554762Y-146244819D01*
X149554762Y-146244819D02*
X149745238Y-145768628D01*
X149745238Y-145768628D02*
X149935714Y-146244819D01*
X149935714Y-146244819D02*
X150126190Y-145578152D01*
X150507143Y-146244819D02*
X150507143Y-145578152D01*
X150507143Y-145244819D02*
X150459524Y-145292438D01*
X150459524Y-145292438D02*
X150507143Y-145340057D01*
X150507143Y-145340057D02*
X150554762Y-145292438D01*
X150554762Y-145292438D02*
X150507143Y-145244819D01*
X150507143Y-145244819D02*
X150507143Y-145340057D01*
X150840476Y-145578152D02*
X151221428Y-145578152D01*
X150983333Y-145244819D02*
X150983333Y-146101961D01*
X150983333Y-146101961D02*
X151030952Y-146197200D01*
X151030952Y-146197200D02*
X151126190Y-146244819D01*
X151126190Y-146244819D02*
X151221428Y-146244819D01*
X151983333Y-146197200D02*
X151888095Y-146244819D01*
X151888095Y-146244819D02*
X151697619Y-146244819D01*
X151697619Y-146244819D02*
X151602381Y-146197200D01*
X151602381Y-146197200D02*
X151554762Y-146149580D01*
X151554762Y-146149580D02*
X151507143Y-146054342D01*
X151507143Y-146054342D02*
X151507143Y-145768628D01*
X151507143Y-145768628D02*
X151554762Y-145673390D01*
X151554762Y-145673390D02*
X151602381Y-145625771D01*
X151602381Y-145625771D02*
X151697619Y-145578152D01*
X151697619Y-145578152D02*
X151888095Y-145578152D01*
X151888095Y-145578152D02*
X151983333Y-145625771D01*
X152411905Y-146244819D02*
X152411905Y-145244819D01*
X152840476Y-146244819D02*
X152840476Y-145721009D01*
X152840476Y-145721009D02*
X152792857Y-145625771D01*
X152792857Y-145625771D02*
X152697619Y-145578152D01*
X152697619Y-145578152D02*
X152554762Y-145578152D01*
X152554762Y-145578152D02*
X152459524Y-145625771D01*
X152459524Y-145625771D02*
X152411905Y-145673390D01*
X153840476Y-146244819D02*
X153269048Y-146244819D01*
X153554762Y-146244819D02*
X153554762Y-145244819D01*
X153554762Y-145244819D02*
X153459524Y-145387676D01*
X153459524Y-145387676D02*
X153364286Y-145482914D01*
X153364286Y-145482914D02*
X153269048Y-145530533D01*
X163766666Y-138244819D02*
X163433333Y-137768628D01*
X163195238Y-138244819D02*
X163195238Y-137244819D01*
X163195238Y-137244819D02*
X163576190Y-137244819D01*
X163576190Y-137244819D02*
X163671428Y-137292438D01*
X163671428Y-137292438D02*
X163719047Y-137340057D01*
X163719047Y-137340057D02*
X163766666Y-137435295D01*
X163766666Y-137435295D02*
X163766666Y-137578152D01*
X163766666Y-137578152D02*
X163719047Y-137673390D01*
X163719047Y-137673390D02*
X163671428Y-137721009D01*
X163671428Y-137721009D02*
X163576190Y-137768628D01*
X163576190Y-137768628D02*
X163195238Y-137768628D01*
X164195238Y-137721009D02*
X164528571Y-137721009D01*
X164671428Y-138244819D02*
X164195238Y-138244819D01*
X164195238Y-138244819D02*
X164195238Y-137244819D01*
X164195238Y-137244819D02*
X164671428Y-137244819D01*
X165433333Y-137721009D02*
X165100000Y-137721009D01*
X165100000Y-138244819D02*
X165100000Y-137244819D01*
X165100000Y-137244819D02*
X165576190Y-137244819D01*
X166100000Y-137244819D02*
X166100000Y-137482914D01*
X165861905Y-137387676D02*
X166100000Y-137482914D01*
X166100000Y-137482914D02*
X166338095Y-137387676D01*
X165957143Y-137673390D02*
X166100000Y-137482914D01*
X166100000Y-137482914D02*
X166242857Y-137673390D01*
X166861905Y-137244819D02*
X166861905Y-137482914D01*
X166623810Y-137387676D02*
X166861905Y-137482914D01*
X166861905Y-137482914D02*
X167100000Y-137387676D01*
X166719048Y-137673390D02*
X166861905Y-137482914D01*
X166861905Y-137482914D02*
X167004762Y-137673390D01*
X106513333Y-146244819D02*
X106513333Y-145244819D01*
X106513333Y-145244819D02*
X106894285Y-145244819D01*
X106894285Y-145244819D02*
X106989523Y-145292438D01*
X106989523Y-145292438D02*
X107037142Y-145340057D01*
X107037142Y-145340057D02*
X107084761Y-145435295D01*
X107084761Y-145435295D02*
X107084761Y-145578152D01*
X107084761Y-145578152D02*
X107037142Y-145673390D01*
X107037142Y-145673390D02*
X106989523Y-145721009D01*
X106989523Y-145721009D02*
X106894285Y-145768628D01*
X106894285Y-145768628D02*
X106513333Y-145768628D01*
X107513333Y-146244819D02*
X107513333Y-145244819D01*
X107513333Y-145244819D02*
X107846666Y-145959104D01*
X107846666Y-145959104D02*
X108179999Y-145244819D01*
X108179999Y-145244819D02*
X108179999Y-146244819D01*
X108989523Y-145721009D02*
X109132380Y-145768628D01*
X109132380Y-145768628D02*
X109179999Y-145816247D01*
X109179999Y-145816247D02*
X109227618Y-145911485D01*
X109227618Y-145911485D02*
X109227618Y-146054342D01*
X109227618Y-146054342D02*
X109179999Y-146149580D01*
X109179999Y-146149580D02*
X109132380Y-146197200D01*
X109132380Y-146197200D02*
X109037142Y-146244819D01*
X109037142Y-146244819D02*
X108656190Y-146244819D01*
X108656190Y-146244819D02*
X108656190Y-145244819D01*
X108656190Y-145244819D02*
X108989523Y-145244819D01*
X108989523Y-145244819D02*
X109084761Y-145292438D01*
X109084761Y-145292438D02*
X109132380Y-145340057D01*
X109132380Y-145340057D02*
X109179999Y-145435295D01*
X109179999Y-145435295D02*
X109179999Y-145530533D01*
X109179999Y-145530533D02*
X109132380Y-145625771D01*
X109132380Y-145625771D02*
X109084761Y-145673390D01*
X109084761Y-145673390D02*
X108989523Y-145721009D01*
X108989523Y-145721009D02*
X108656190Y-145721009D01*
X110084761Y-145578152D02*
X110084761Y-146244819D01*
X109656190Y-145578152D02*
X109656190Y-146101961D01*
X109656190Y-146101961D02*
X109703809Y-146197200D01*
X109703809Y-146197200D02*
X109799047Y-146244819D01*
X109799047Y-146244819D02*
X109941904Y-146244819D01*
X109941904Y-146244819D02*
X110037142Y-146197200D01*
X110037142Y-146197200D02*
X110084761Y-146149580D01*
X110513333Y-146197200D02*
X110608571Y-146244819D01*
X110608571Y-146244819D02*
X110799047Y-146244819D01*
X110799047Y-146244819D02*
X110894285Y-146197200D01*
X110894285Y-146197200D02*
X110941904Y-146101961D01*
X110941904Y-146101961D02*
X110941904Y-146054342D01*
X110941904Y-146054342D02*
X110894285Y-145959104D01*
X110894285Y-145959104D02*
X110799047Y-145911485D01*
X110799047Y-145911485D02*
X110656190Y-145911485D01*
X110656190Y-145911485D02*
X110560952Y-145863866D01*
X110560952Y-145863866D02*
X110513333Y-145768628D01*
X110513333Y-145768628D02*
X110513333Y-145721009D01*
X110513333Y-145721009D02*
X110560952Y-145625771D01*
X110560952Y-145625771D02*
X110656190Y-145578152D01*
X110656190Y-145578152D02*
X110799047Y-145578152D01*
X110799047Y-145578152D02*
X110894285Y-145625771D01*
X111894285Y-146244819D02*
X111322857Y-146244819D01*
X111608571Y-146244819D02*
X111608571Y-145244819D01*
X111608571Y-145244819D02*
X111513333Y-145387676D01*
X111513333Y-145387676D02*
X111418095Y-145482914D01*
X111418095Y-145482914D02*
X111322857Y-145530533D01*
D11*
X127256265Y-91561704D02*
X127732455Y-91561704D01*
X127161027Y-91847419D02*
X127494360Y-90847419D01*
X127494360Y-90847419D02*
X127827693Y-91847419D01*
X128161027Y-91847419D02*
X128161027Y-90847419D01*
X122176265Y-92831704D02*
X122652455Y-92831704D01*
X122081027Y-93117419D02*
X122414360Y-92117419D01*
X122414360Y-92117419D02*
X122747693Y-93117419D01*
X123081027Y-93117419D02*
X123081027Y-92117419D01*
X123081027Y-92117419D02*
X123319122Y-92117419D01*
X123319122Y-92117419D02*
X123461979Y-92165038D01*
X123461979Y-92165038D02*
X123557217Y-92260276D01*
X123557217Y-92260276D02*
X123604836Y-92355514D01*
X123604836Y-92355514D02*
X123652455Y-92545990D01*
X123652455Y-92545990D02*
X123652455Y-92688847D01*
X123652455Y-92688847D02*
X123604836Y-92879323D01*
X123604836Y-92879323D02*
X123557217Y-92974561D01*
X123557217Y-92974561D02*
X123461979Y-93069800D01*
X123461979Y-93069800D02*
X123319122Y-93117419D01*
X123319122Y-93117419D02*
X123081027Y-93117419D01*
X124081027Y-92117419D02*
X124081027Y-92926942D01*
X124081027Y-92926942D02*
X124128646Y-93022180D01*
X124128646Y-93022180D02*
X124176265Y-93069800D01*
X124176265Y-93069800D02*
X124271503Y-93117419D01*
X124271503Y-93117419D02*
X124461979Y-93117419D01*
X124461979Y-93117419D02*
X124557217Y-93069800D01*
X124557217Y-93069800D02*
X124604836Y-93022180D01*
X124604836Y-93022180D02*
X124652455Y-92926942D01*
X124652455Y-92926942D02*
X124652455Y-92117419D01*
X125128646Y-93117419D02*
X125128646Y-92117419D01*
X125128646Y-92117419D02*
X125461979Y-92831704D01*
X125461979Y-92831704D02*
X125795312Y-92117419D01*
X125795312Y-92117419D02*
X125795312Y-93117419D01*
X126795312Y-93117419D02*
X126223884Y-93117419D01*
X126509598Y-93117419D02*
X126509598Y-92117419D01*
X126509598Y-92117419D02*
X126414360Y-92260276D01*
X126414360Y-92260276D02*
X126319122Y-92355514D01*
X126319122Y-92355514D02*
X126223884Y-92403133D01*
X127176265Y-92212657D02*
X127223884Y-92165038D01*
X127223884Y-92165038D02*
X127319122Y-92117419D01*
X127319122Y-92117419D02*
X127557217Y-92117419D01*
X127557217Y-92117419D02*
X127652455Y-92165038D01*
X127652455Y-92165038D02*
X127700074Y-92212657D01*
X127700074Y-92212657D02*
X127747693Y-92307895D01*
X127747693Y-92307895D02*
X127747693Y-92403133D01*
X127747693Y-92403133D02*
X127700074Y-92545990D01*
X127700074Y-92545990D02*
X127128646Y-93117419D01*
X127128646Y-93117419D02*
X127747693Y-93117419D01*
X128366741Y-92117419D02*
X128461979Y-92117419D01*
X128461979Y-92117419D02*
X128557217Y-92165038D01*
X128557217Y-92165038D02*
X128604836Y-92212657D01*
X128604836Y-92212657D02*
X128652455Y-92307895D01*
X128652455Y-92307895D02*
X128700074Y-92498371D01*
X128700074Y-92498371D02*
X128700074Y-92736466D01*
X128700074Y-92736466D02*
X128652455Y-92926942D01*
X128652455Y-92926942D02*
X128604836Y-93022180D01*
X128604836Y-93022180D02*
X128557217Y-93069800D01*
X128557217Y-93069800D02*
X128461979Y-93117419D01*
X128461979Y-93117419D02*
X128366741Y-93117419D01*
X128366741Y-93117419D02*
X128271503Y-93069800D01*
X128271503Y-93069800D02*
X128223884Y-93022180D01*
X128223884Y-93022180D02*
X128176265Y-92926942D01*
X128176265Y-92926942D02*
X128128646Y-92736466D01*
X128128646Y-92736466D02*
X128128646Y-92498371D01*
X128128646Y-92498371D02*
X128176265Y-92307895D01*
X128176265Y-92307895D02*
X128223884Y-92212657D01*
X128223884Y-92212657D02*
X128271503Y-92165038D01*
X128271503Y-92165038D02*
X128366741Y-92117419D01*
X129652455Y-93117419D02*
X129081027Y-93117419D01*
X129366741Y-93117419D02*
X129366741Y-92117419D01*
X129366741Y-92117419D02*
X129271503Y-92260276D01*
X129271503Y-92260276D02*
X129176265Y-92355514D01*
X129176265Y-92355514D02*
X129081027Y-92403133D01*
X121477693Y-95975038D02*
X121382455Y-95927419D01*
X121382455Y-95927419D02*
X121239598Y-95927419D01*
X121239598Y-95927419D02*
X121096741Y-95975038D01*
X121096741Y-95975038D02*
X121001503Y-96070276D01*
X121001503Y-96070276D02*
X120953884Y-96165514D01*
X120953884Y-96165514D02*
X120906265Y-96355990D01*
X120906265Y-96355990D02*
X120906265Y-96498847D01*
X120906265Y-96498847D02*
X120953884Y-96689323D01*
X120953884Y-96689323D02*
X121001503Y-96784561D01*
X121001503Y-96784561D02*
X121096741Y-96879800D01*
X121096741Y-96879800D02*
X121239598Y-96927419D01*
X121239598Y-96927419D02*
X121334836Y-96927419D01*
X121334836Y-96927419D02*
X121477693Y-96879800D01*
X121477693Y-96879800D02*
X121525312Y-96832180D01*
X121525312Y-96832180D02*
X121525312Y-96498847D01*
X121525312Y-96498847D02*
X121334836Y-96498847D01*
X121953884Y-96927419D02*
X121953884Y-95927419D01*
X121953884Y-95927419D02*
X122525312Y-96927419D01*
X122525312Y-96927419D02*
X122525312Y-95927419D01*
X123001503Y-96927419D02*
X123001503Y-95927419D01*
X123001503Y-95927419D02*
X123239598Y-95927419D01*
X123239598Y-95927419D02*
X123382455Y-95975038D01*
X123382455Y-95975038D02*
X123477693Y-96070276D01*
X123477693Y-96070276D02*
X123525312Y-96165514D01*
X123525312Y-96165514D02*
X123572931Y-96355990D01*
X123572931Y-96355990D02*
X123572931Y-96498847D01*
X123572931Y-96498847D02*
X123525312Y-96689323D01*
X123525312Y-96689323D02*
X123477693Y-96784561D01*
X123477693Y-96784561D02*
X123382455Y-96879800D01*
X123382455Y-96879800D02*
X123239598Y-96927419D01*
X123239598Y-96927419D02*
X123001503Y-96927419D01*
X124525312Y-96927419D02*
X123953884Y-96927419D01*
X124239598Y-96927419D02*
X124239598Y-95927419D01*
X124239598Y-95927419D02*
X124144360Y-96070276D01*
X124144360Y-96070276D02*
X124049122Y-96165514D01*
X124049122Y-96165514D02*
X123953884Y-96213133D01*
X127161027Y-88307419D02*
X127494360Y-89307419D01*
X127494360Y-89307419D02*
X127827693Y-88307419D01*
X128732455Y-89212180D02*
X128684836Y-89259800D01*
X128684836Y-89259800D02*
X128541979Y-89307419D01*
X128541979Y-89307419D02*
X128446741Y-89307419D01*
X128446741Y-89307419D02*
X128303884Y-89259800D01*
X128303884Y-89259800D02*
X128208646Y-89164561D01*
X128208646Y-89164561D02*
X128161027Y-89069323D01*
X128161027Y-89069323D02*
X128113408Y-88878847D01*
X128113408Y-88878847D02*
X128113408Y-88735990D01*
X128113408Y-88735990D02*
X128161027Y-88545514D01*
X128161027Y-88545514D02*
X128208646Y-88450276D01*
X128208646Y-88450276D02*
X128303884Y-88355038D01*
X128303884Y-88355038D02*
X128446741Y-88307419D01*
X128446741Y-88307419D02*
X128541979Y-88307419D01*
X128541979Y-88307419D02*
X128684836Y-88355038D01*
X128684836Y-88355038D02*
X128732455Y-88402657D01*
X129732455Y-89212180D02*
X129684836Y-89259800D01*
X129684836Y-89259800D02*
X129541979Y-89307419D01*
X129541979Y-89307419D02*
X129446741Y-89307419D01*
X129446741Y-89307419D02*
X129303884Y-89259800D01*
X129303884Y-89259800D02*
X129208646Y-89164561D01*
X129208646Y-89164561D02*
X129161027Y-89069323D01*
X129161027Y-89069323D02*
X129113408Y-88878847D01*
X129113408Y-88878847D02*
X129113408Y-88735990D01*
X129113408Y-88735990D02*
X129161027Y-88545514D01*
X129161027Y-88545514D02*
X129208646Y-88450276D01*
X129208646Y-88450276D02*
X129303884Y-88355038D01*
X129303884Y-88355038D02*
X129446741Y-88307419D01*
X129446741Y-88307419D02*
X129541979Y-88307419D01*
X129541979Y-88307419D02*
X129684836Y-88355038D01*
X129684836Y-88355038D02*
X129732455Y-88402657D01*
X130113408Y-88402657D02*
X130161027Y-88355038D01*
X130161027Y-88355038D02*
X130256265Y-88307419D01*
X130256265Y-88307419D02*
X130494360Y-88307419D01*
X130494360Y-88307419D02*
X130589598Y-88355038D01*
X130589598Y-88355038D02*
X130637217Y-88402657D01*
X130637217Y-88402657D02*
X130684836Y-88497895D01*
X130684836Y-88497895D02*
X130684836Y-88593133D01*
X130684836Y-88593133D02*
X130637217Y-88735990D01*
X130637217Y-88735990D02*
X130065789Y-89307419D01*
X130065789Y-89307419D02*
X130684836Y-89307419D01*
X127637217Y-93863609D02*
X127780074Y-93911228D01*
X127780074Y-93911228D02*
X127827693Y-93958847D01*
X127827693Y-93958847D02*
X127875312Y-94054085D01*
X127875312Y-94054085D02*
X127875312Y-94196942D01*
X127875312Y-94196942D02*
X127827693Y-94292180D01*
X127827693Y-94292180D02*
X127780074Y-94339800D01*
X127780074Y-94339800D02*
X127684836Y-94387419D01*
X127684836Y-94387419D02*
X127303884Y-94387419D01*
X127303884Y-94387419D02*
X127303884Y-93387419D01*
X127303884Y-93387419D02*
X127637217Y-93387419D01*
X127637217Y-93387419D02*
X127732455Y-93435038D01*
X127732455Y-93435038D02*
X127780074Y-93482657D01*
X127780074Y-93482657D02*
X127827693Y-93577895D01*
X127827693Y-93577895D02*
X127827693Y-93673133D01*
X127827693Y-93673133D02*
X127780074Y-93768371D01*
X127780074Y-93768371D02*
X127732455Y-93815990D01*
X127732455Y-93815990D02*
X127637217Y-93863609D01*
X127637217Y-93863609D02*
X127303884Y-93863609D01*
X128494360Y-93387419D02*
X128684836Y-93387419D01*
X128684836Y-93387419D02*
X128780074Y-93435038D01*
X128780074Y-93435038D02*
X128875312Y-93530276D01*
X128875312Y-93530276D02*
X128922931Y-93720752D01*
X128922931Y-93720752D02*
X128922931Y-94054085D01*
X128922931Y-94054085D02*
X128875312Y-94244561D01*
X128875312Y-94244561D02*
X128780074Y-94339800D01*
X128780074Y-94339800D02*
X128684836Y-94387419D01*
X128684836Y-94387419D02*
X128494360Y-94387419D01*
X128494360Y-94387419D02*
X128399122Y-94339800D01*
X128399122Y-94339800D02*
X128303884Y-94244561D01*
X128303884Y-94244561D02*
X128256265Y-94054085D01*
X128256265Y-94054085D02*
X128256265Y-93720752D01*
X128256265Y-93720752D02*
X128303884Y-93530276D01*
X128303884Y-93530276D02*
X128399122Y-93435038D01*
X128399122Y-93435038D02*
X128494360Y-93387419D01*
X121287217Y-93863609D02*
X121430074Y-93911228D01*
X121430074Y-93911228D02*
X121477693Y-93958847D01*
X121477693Y-93958847D02*
X121525312Y-94054085D01*
X121525312Y-94054085D02*
X121525312Y-94196942D01*
X121525312Y-94196942D02*
X121477693Y-94292180D01*
X121477693Y-94292180D02*
X121430074Y-94339800D01*
X121430074Y-94339800D02*
X121334836Y-94387419D01*
X121334836Y-94387419D02*
X120953884Y-94387419D01*
X120953884Y-94387419D02*
X120953884Y-93387419D01*
X120953884Y-93387419D02*
X121287217Y-93387419D01*
X121287217Y-93387419D02*
X121382455Y-93435038D01*
X121382455Y-93435038D02*
X121430074Y-93482657D01*
X121430074Y-93482657D02*
X121477693Y-93577895D01*
X121477693Y-93577895D02*
X121477693Y-93673133D01*
X121477693Y-93673133D02*
X121430074Y-93768371D01*
X121430074Y-93768371D02*
X121382455Y-93815990D01*
X121382455Y-93815990D02*
X121287217Y-93863609D01*
X121287217Y-93863609D02*
X120953884Y-93863609D01*
X121953884Y-94387419D02*
X121953884Y-93387419D01*
X120811027Y-88307419D02*
X121144360Y-89307419D01*
X121144360Y-89307419D02*
X121477693Y-88307419D01*
X122382455Y-89212180D02*
X122334836Y-89259800D01*
X122334836Y-89259800D02*
X122191979Y-89307419D01*
X122191979Y-89307419D02*
X122096741Y-89307419D01*
X122096741Y-89307419D02*
X121953884Y-89259800D01*
X121953884Y-89259800D02*
X121858646Y-89164561D01*
X121858646Y-89164561D02*
X121811027Y-89069323D01*
X121811027Y-89069323D02*
X121763408Y-88878847D01*
X121763408Y-88878847D02*
X121763408Y-88735990D01*
X121763408Y-88735990D02*
X121811027Y-88545514D01*
X121811027Y-88545514D02*
X121858646Y-88450276D01*
X121858646Y-88450276D02*
X121953884Y-88355038D01*
X121953884Y-88355038D02*
X122096741Y-88307419D01*
X122096741Y-88307419D02*
X122191979Y-88307419D01*
X122191979Y-88307419D02*
X122334836Y-88355038D01*
X122334836Y-88355038D02*
X122382455Y-88402657D01*
X123382455Y-89212180D02*
X123334836Y-89259800D01*
X123334836Y-89259800D02*
X123191979Y-89307419D01*
X123191979Y-89307419D02*
X123096741Y-89307419D01*
X123096741Y-89307419D02*
X122953884Y-89259800D01*
X122953884Y-89259800D02*
X122858646Y-89164561D01*
X122858646Y-89164561D02*
X122811027Y-89069323D01*
X122811027Y-89069323D02*
X122763408Y-88878847D01*
X122763408Y-88878847D02*
X122763408Y-88735990D01*
X122763408Y-88735990D02*
X122811027Y-88545514D01*
X122811027Y-88545514D02*
X122858646Y-88450276D01*
X122858646Y-88450276D02*
X122953884Y-88355038D01*
X122953884Y-88355038D02*
X123096741Y-88307419D01*
X123096741Y-88307419D02*
X123191979Y-88307419D01*
X123191979Y-88307419D02*
X123334836Y-88355038D01*
X123334836Y-88355038D02*
X123382455Y-88402657D01*
X124334836Y-89307419D02*
X123763408Y-89307419D01*
X124049122Y-89307419D02*
X124049122Y-88307419D01*
X124049122Y-88307419D02*
X123953884Y-88450276D01*
X123953884Y-88450276D02*
X123858646Y-88545514D01*
X123858646Y-88545514D02*
X123763408Y-88593133D01*
X127827693Y-95975038D02*
X127732455Y-95927419D01*
X127732455Y-95927419D02*
X127589598Y-95927419D01*
X127589598Y-95927419D02*
X127446741Y-95975038D01*
X127446741Y-95975038D02*
X127351503Y-96070276D01*
X127351503Y-96070276D02*
X127303884Y-96165514D01*
X127303884Y-96165514D02*
X127256265Y-96355990D01*
X127256265Y-96355990D02*
X127256265Y-96498847D01*
X127256265Y-96498847D02*
X127303884Y-96689323D01*
X127303884Y-96689323D02*
X127351503Y-96784561D01*
X127351503Y-96784561D02*
X127446741Y-96879800D01*
X127446741Y-96879800D02*
X127589598Y-96927419D01*
X127589598Y-96927419D02*
X127684836Y-96927419D01*
X127684836Y-96927419D02*
X127827693Y-96879800D01*
X127827693Y-96879800D02*
X127875312Y-96832180D01*
X127875312Y-96832180D02*
X127875312Y-96498847D01*
X127875312Y-96498847D02*
X127684836Y-96498847D01*
X128303884Y-96927419D02*
X128303884Y-95927419D01*
X128303884Y-95927419D02*
X128875312Y-96927419D01*
X128875312Y-96927419D02*
X128875312Y-95927419D01*
X129351503Y-96927419D02*
X129351503Y-95927419D01*
X129351503Y-95927419D02*
X129589598Y-95927419D01*
X129589598Y-95927419D02*
X129732455Y-95975038D01*
X129732455Y-95975038D02*
X129827693Y-96070276D01*
X129827693Y-96070276D02*
X129875312Y-96165514D01*
X129875312Y-96165514D02*
X129922931Y-96355990D01*
X129922931Y-96355990D02*
X129922931Y-96498847D01*
X129922931Y-96498847D02*
X129875312Y-96689323D01*
X129875312Y-96689323D02*
X129827693Y-96784561D01*
X129827693Y-96784561D02*
X129732455Y-96879800D01*
X129732455Y-96879800D02*
X129589598Y-96927419D01*
X129589598Y-96927419D02*
X129351503Y-96927419D01*
X130303884Y-96022657D02*
X130351503Y-95975038D01*
X130351503Y-95975038D02*
X130446741Y-95927419D01*
X130446741Y-95927419D02*
X130684836Y-95927419D01*
X130684836Y-95927419D02*
X130780074Y-95975038D01*
X130780074Y-95975038D02*
X130827693Y-96022657D01*
X130827693Y-96022657D02*
X130875312Y-96117895D01*
X130875312Y-96117895D02*
X130875312Y-96213133D01*
X130875312Y-96213133D02*
X130827693Y-96355990D01*
X130827693Y-96355990D02*
X130256265Y-96927419D01*
X130256265Y-96927419D02*
X130875312Y-96927419D01*
X120906265Y-91561704D02*
X121382455Y-91561704D01*
X120811027Y-91847419D02*
X121144360Y-90847419D01*
X121144360Y-90847419D02*
X121477693Y-91847419D01*
X122001503Y-90847419D02*
X122191979Y-90847419D01*
X122191979Y-90847419D02*
X122287217Y-90895038D01*
X122287217Y-90895038D02*
X122382455Y-90990276D01*
X122382455Y-90990276D02*
X122430074Y-91180752D01*
X122430074Y-91180752D02*
X122430074Y-91514085D01*
X122430074Y-91514085D02*
X122382455Y-91704561D01*
X122382455Y-91704561D02*
X122287217Y-91799800D01*
X122287217Y-91799800D02*
X122191979Y-91847419D01*
X122191979Y-91847419D02*
X122001503Y-91847419D01*
X122001503Y-91847419D02*
X121906265Y-91799800D01*
X121906265Y-91799800D02*
X121811027Y-91704561D01*
X121811027Y-91704561D02*
X121763408Y-91514085D01*
X121763408Y-91514085D02*
X121763408Y-91180752D01*
X121763408Y-91180752D02*
X121811027Y-90990276D01*
X121811027Y-90990276D02*
X121906265Y-90895038D01*
X121906265Y-90895038D02*
X122001503Y-90847419D01*
D10*
X164609994Y-122350815D02*
X164276661Y-121874624D01*
X164038566Y-122350815D02*
X164038566Y-121350815D01*
X164038566Y-121350815D02*
X164419518Y-121350815D01*
X164419518Y-121350815D02*
X164514756Y-121398434D01*
X164514756Y-121398434D02*
X164562375Y-121446053D01*
X164562375Y-121446053D02*
X164609994Y-121541291D01*
X164609994Y-121541291D02*
X164609994Y-121684148D01*
X164609994Y-121684148D02*
X164562375Y-121779386D01*
X164562375Y-121779386D02*
X164514756Y-121827005D01*
X164514756Y-121827005D02*
X164419518Y-121874624D01*
X164419518Y-121874624D02*
X164038566Y-121874624D01*
X164990947Y-121446053D02*
X165038566Y-121398434D01*
X165038566Y-121398434D02*
X165133804Y-121350815D01*
X165133804Y-121350815D02*
X165371899Y-121350815D01*
X165371899Y-121350815D02*
X165467137Y-121398434D01*
X165467137Y-121398434D02*
X165514756Y-121446053D01*
X165514756Y-121446053D02*
X165562375Y-121541291D01*
X165562375Y-121541291D02*
X165562375Y-121636529D01*
X165562375Y-121636529D02*
X165514756Y-121779386D01*
X165514756Y-121779386D02*
X164943328Y-122350815D01*
X164943328Y-122350815D02*
X165562375Y-122350815D01*
D12*
%TO.C,R8*%
X116940000Y-74200000D02*
X116940000Y-80740000D01*
X116610000Y-74200000D02*
X116940000Y-74200000D01*
X114530000Y-74200000D02*
X114200000Y-74200000D01*
X114200000Y-74200000D02*
X114200000Y-80740000D01*
X116940000Y-80740000D02*
X116610000Y-80740000D01*
X114200000Y-80740000D02*
X114530000Y-80740000D01*
%TO.C,R7*%
X114200000Y-95980000D02*
X114200000Y-89440000D01*
X114530000Y-95980000D02*
X114200000Y-95980000D01*
X116610000Y-95980000D02*
X116940000Y-95980000D01*
X116940000Y-95980000D02*
X116940000Y-89440000D01*
X114200000Y-89440000D02*
X114530000Y-89440000D01*
X116940000Y-89440000D02*
X116610000Y-89440000D01*
%TO.C,R6*%
X117043893Y-104746313D02*
X117043893Y-111286313D01*
X116713893Y-104746313D02*
X117043893Y-104746313D01*
X114633893Y-104746313D02*
X114303893Y-104746313D01*
X114303893Y-104746313D02*
X114303893Y-111286313D01*
X117043893Y-111286313D02*
X116713893Y-111286313D01*
X114303893Y-111286313D02*
X114633893Y-111286313D01*
%TO.C,Fan2*%
X113100000Y-84680000D02*
X102800000Y-84680000D01*
X113100000Y-78730000D02*
X113100000Y-84680000D01*
X109900000Y-78730000D02*
X113100000Y-78730000D01*
X109230000Y-83570000D02*
X109230000Y-84580000D01*
X104150000Y-84580000D02*
X104150000Y-83570000D01*
X104150000Y-83570000D02*
X109230000Y-83570000D01*
X102800000Y-84680000D02*
X102800000Y-78680000D01*
X102800000Y-78680000D02*
X108550000Y-78680000D01*
%TO.C,J1*%
X101860000Y-91880000D02*
X101250000Y-91440000D01*
X101860000Y-91000000D01*
X101860000Y-91880000D01*
G36*
X101860000Y-91880000D02*
G01*
X101250000Y-91440000D01*
X101860000Y-91000000D01*
X101860000Y-91880000D01*
G37*
X101250000Y-94100000D02*
X91210000Y-94100000D01*
X101250000Y-91740000D02*
X101250000Y-94100000D01*
X101250000Y-83700000D02*
X101250000Y-91140000D01*
X100630000Y-94100000D02*
X100630000Y-83700000D01*
X99130000Y-94100000D02*
X99130000Y-83700000D01*
X94230000Y-94100000D02*
X94230000Y-83700000D01*
X91210000Y-94100000D02*
X91210000Y-83700000D01*
X91210000Y-83700000D02*
X101250000Y-83700000D01*
%TO.C,Fan4*%
X113100000Y-99920000D02*
X102800000Y-99920000D01*
X113100000Y-93970000D02*
X113100000Y-99920000D01*
X109900000Y-93970000D02*
X113100000Y-93970000D01*
X109230000Y-98810000D02*
X109230000Y-99820000D01*
X104150000Y-99820000D02*
X104150000Y-98810000D01*
X104150000Y-98810000D02*
X109230000Y-98810000D01*
X102800000Y-99920000D02*
X102800000Y-93920000D01*
X102800000Y-93920000D02*
X108550000Y-93920000D01*
%TO.C,D1*%
X111257979Y-121500000D02*
X113497979Y-121500000D01*
X113497979Y-117260000D01*
X111257979Y-117260000D01*
X111257979Y-121500000D01*
X112377979Y-122150000D02*
X112377979Y-121500000D01*
X112377979Y-116610000D02*
X112377979Y-117260000D01*
X111257979Y-120900000D02*
X113497979Y-120900000D01*
X111257979Y-120780000D02*
X113497979Y-120780000D01*
X111257979Y-120660000D02*
X113497979Y-120660000D01*
%TO.C,Q1*%
X105679945Y-112863617D02*
X105349945Y-113103617D01*
X105349945Y-112623617D01*
X105679945Y-112863617D01*
G36*
X105679945Y-112863617D02*
G01*
X105349945Y-113103617D01*
X105349945Y-112623617D01*
X105679945Y-112863617D01*
G37*
X106859945Y-114923617D02*
X105859945Y-114923617D01*
X106859945Y-113403617D02*
X106859945Y-114923617D01*
X106809945Y-113403617D02*
X106859945Y-113403617D01*
X104909945Y-113403617D02*
X105689945Y-113403617D01*
X104739945Y-114923617D02*
X103739945Y-114923617D01*
X103739945Y-114923617D02*
X103739945Y-113403617D01*
X103739945Y-113403617D02*
X103789945Y-113403617D01*
%TO.C,J2*%
X108890057Y-124630838D02*
X108890057Y-117010838D01*
X108890057Y-117010838D02*
X102920057Y-117010838D01*
X108130057Y-123870838D02*
X108130057Y-120820838D01*
X108130057Y-117770838D02*
X108130057Y-120820838D01*
X105180057Y-124620838D02*
X105180057Y-123870838D01*
X105180057Y-123870838D02*
X108130057Y-123870838D01*
X105180057Y-117770838D02*
X108130057Y-117770838D01*
X105180057Y-117020838D02*
X105180057Y-117770838D01*
X103680057Y-124620838D02*
X103680057Y-122820838D01*
X103680057Y-122820838D02*
X102930057Y-122820838D01*
X103680057Y-121320838D02*
X103680057Y-120320838D01*
X103680057Y-120320838D02*
X102930057Y-120320838D01*
X103680057Y-118820838D02*
X103680057Y-117020838D01*
X103680057Y-117020838D02*
X102930057Y-117020838D01*
X102930057Y-124620838D02*
X103680057Y-124620838D01*
X102930057Y-122820838D02*
X102930057Y-124620838D01*
X102930057Y-121320838D02*
X103680057Y-121320838D01*
X102930057Y-120320838D02*
X102930057Y-121320838D01*
X102930057Y-118820838D02*
X103680057Y-118820838D01*
X102930057Y-117020838D02*
X102930057Y-118820838D01*
X102920057Y-124630838D02*
X108890057Y-124630838D01*
X102920057Y-117010838D02*
X102920057Y-124630838D01*
X102630057Y-124920838D02*
X103880057Y-124920838D01*
X102630057Y-123670838D02*
X102630057Y-124920838D01*
%TO.C,Fan3*%
X113100000Y-92300000D02*
X102800000Y-92300000D01*
X113100000Y-86350000D02*
X113100000Y-92300000D01*
X109900000Y-86350000D02*
X113100000Y-86350000D01*
X109230000Y-91190000D02*
X109230000Y-92200000D01*
X104150000Y-92200000D02*
X104150000Y-91190000D01*
X104150000Y-91190000D02*
X109230000Y-91190000D01*
X102800000Y-92300000D02*
X102800000Y-86300000D01*
X102800000Y-86300000D02*
X108550000Y-86300000D01*
%TO.C,R5*%
X112210336Y-111263854D02*
X105670336Y-111263854D01*
X112210336Y-110933854D02*
X112210336Y-111263854D01*
X112210336Y-108853854D02*
X112210336Y-108523854D01*
X112210336Y-108523854D02*
X105670336Y-108523854D01*
X105670336Y-111263854D02*
X105670336Y-110933854D01*
X105670336Y-108523854D02*
X105670336Y-108853854D01*
%TO.C,Pump1*%
X113100000Y-107440000D02*
X102800000Y-107440000D01*
X113100000Y-101490000D02*
X113100000Y-107440000D01*
X109900000Y-101490000D02*
X113100000Y-101490000D01*
X109230000Y-106330000D02*
X109230000Y-107340000D01*
X104150000Y-107340000D02*
X104150000Y-106330000D01*
X104150000Y-106330000D02*
X109230000Y-106330000D01*
X102800000Y-107440000D02*
X102800000Y-101440000D01*
X102800000Y-101440000D02*
X108550000Y-101440000D01*
%TO.C,U2*%
X113705736Y-68656967D02*
X113705736Y-64036967D01*
X116965736Y-68656967D02*
X116965736Y-67276967D01*
X120665736Y-68656967D02*
X120665736Y-67276967D01*
X123925736Y-68656967D02*
X113705736Y-68656967D01*
X123925736Y-67276967D02*
X113705736Y-67276967D01*
X113705736Y-64036967D02*
X123925736Y-64036967D01*
X123925736Y-64036967D02*
X123925736Y-68656967D01*
%TO.C,Encoder1*%
X162115000Y-83960000D02*
X162115000Y-99080000D01*
X162115000Y-99080000D02*
X168085000Y-99080000D01*
X162875000Y-91520000D02*
X162875000Y-85780000D01*
X162875000Y-98320000D02*
X162875000Y-91520000D01*
X165825000Y-83970000D02*
X165825000Y-84720000D01*
X165825000Y-84720000D02*
X164485000Y-84720000D01*
X165825000Y-98320000D02*
X162875000Y-98320000D01*
X165825000Y-99070000D02*
X165825000Y-98320000D01*
X167325000Y-83970000D02*
X167325000Y-85770000D01*
X167325000Y-85770000D02*
X168075000Y-85770000D01*
X167325000Y-87270000D02*
X167325000Y-95770000D01*
X167325000Y-95770000D02*
X168075000Y-95770000D01*
X167325000Y-97270000D02*
X167325000Y-99070000D01*
X167325000Y-99070000D02*
X168075000Y-99070000D01*
X168075000Y-83970000D02*
X167325000Y-83970000D01*
X168075000Y-85770000D02*
X168075000Y-83970000D01*
X168075000Y-87270000D02*
X167325000Y-87270000D01*
X168075000Y-95770000D02*
X168075000Y-87270000D01*
X168075000Y-97270000D02*
X167325000Y-97270000D01*
X168075000Y-99070000D02*
X168075000Y-97270000D01*
X168085000Y-83960000D02*
X162115000Y-83960000D01*
X168085000Y-99080000D02*
X168085000Y-83960000D01*
X168375000Y-83670000D02*
X167125000Y-83670000D01*
X168375000Y-84920000D02*
X168375000Y-83670000D01*
%TO.C,A1*%
X135672500Y-121920000D02*
X135672500Y-76200000D01*
X138322500Y-73550000D02*
X156102500Y-73550000D01*
X138322500Y-124570000D02*
X156102500Y-124570000D01*
X158752500Y-121920000D02*
X158752500Y-76200000D01*
X159072500Y-117110000D02*
X159072500Y-119110000D01*
X135672500Y-76200000D02*
G75*
G02*
X138322500Y-73550000I2650000J0D01*
G01*
X138322500Y-124570000D02*
G75*
G02*
X135672500Y-121920000I0J2650000D01*
G01*
X156102500Y-73550000D02*
G75*
G02*
X158752500Y-76200000I0J-2650000D01*
G01*
X158752500Y-121920000D02*
G75*
G02*
X156102500Y-124570000I-2650000J0D01*
G01*
%TO.C,R3*%
X153570000Y-128810000D02*
X153900000Y-128810000D01*
X153570000Y-135350000D02*
X153570000Y-128810000D01*
X153900000Y-135350000D02*
X153570000Y-135350000D01*
X155980000Y-135350000D02*
X156310000Y-135350000D01*
X156310000Y-128810000D02*
X155980000Y-128810000D01*
X156310000Y-135350000D02*
X156310000Y-128810000D01*
%TO.C,Display1*%
X136950000Y-138760000D02*
X136950000Y-140010000D01*
X136950000Y-140010000D02*
X138200000Y-140010000D01*
X137240000Y-127100000D02*
X137240000Y-139720000D01*
X137240000Y-139720000D02*
X143210000Y-139720000D01*
X137250000Y-127110000D02*
X137250000Y-128910000D01*
X137250000Y-128910000D02*
X138000000Y-128910000D01*
X137250000Y-130410000D02*
X137250000Y-136410000D01*
X137250000Y-136410000D02*
X138000000Y-136410000D01*
X137250000Y-137910000D02*
X137250000Y-139710000D01*
X137250000Y-139710000D02*
X138000000Y-139710000D01*
X138000000Y-127110000D02*
X137250000Y-127110000D01*
X138000000Y-128910000D02*
X138000000Y-127110000D01*
X138000000Y-130410000D02*
X137250000Y-130410000D01*
X138000000Y-136410000D02*
X138000000Y-130410000D01*
X138000000Y-137910000D02*
X137250000Y-137910000D01*
X138000000Y-139710000D02*
X138000000Y-137910000D01*
X139500000Y-127110000D02*
X139500000Y-127860000D01*
X139500000Y-127860000D02*
X142450000Y-127860000D01*
X139500000Y-138960000D02*
X140840000Y-138960000D01*
X139500000Y-139710000D02*
X139500000Y-138960000D01*
X142450000Y-127860000D02*
X142450000Y-133410000D01*
X142450000Y-133410000D02*
X142450000Y-137900000D01*
X143210000Y-127100000D02*
X137240000Y-127100000D01*
X143210000Y-139720000D02*
X143210000Y-127100000D01*
%TO.C,U3*%
X127460802Y-68708914D02*
X127460802Y-64088914D01*
X130720802Y-68708914D02*
X130720802Y-67328914D01*
X134420802Y-68708914D02*
X134420802Y-67328914D01*
X137680802Y-68708914D02*
X127460802Y-68708914D01*
X137680802Y-67328914D02*
X127460802Y-67328914D01*
X127460802Y-64088914D02*
X137680802Y-64088914D01*
X137680802Y-64088914D02*
X137680802Y-68708914D01*
D11*
%TO.C,U1*%
X105383707Y-33111649D02*
X147293707Y-33111649D01*
X105383707Y-53431649D02*
X105383707Y-33111649D01*
X147293707Y-33111649D02*
X147293707Y-53431649D01*
X147293707Y-53431649D02*
X105383707Y-53431649D01*
%TO.C,ADUM1*%
X118110000Y-76100000D02*
X133350000Y-76100000D01*
X133350000Y-86260000D01*
X118110000Y-86260000D01*
X118110000Y-76100000D01*
%TO.C,ADUM4*%
X118110000Y-110390000D02*
X133350000Y-110390000D01*
X133350000Y-120550000D01*
X118110000Y-120550000D01*
X118110000Y-110390000D01*
%TO.C,ADUM3*%
X118110000Y-98960000D02*
X133350000Y-98960000D01*
X133350000Y-109120000D01*
X118110000Y-109120000D01*
X118110000Y-98960000D01*
%TO.C,ISO1540*%
X116840000Y-121920000D02*
X134620000Y-121920000D01*
X116840000Y-147320000D02*
X116840000Y-121920000D01*
X134620000Y-121920000D02*
X134620000Y-147320000D01*
X134620000Y-147320000D02*
X116840000Y-147320000D01*
X116840000Y-121920000D02*
X134620000Y-121920000D01*
X134620000Y-147320000D01*
X116840000Y-147320000D01*
X116840000Y-121920000D01*
%TO.C,U4*%
X113665000Y-53757500D02*
X137795000Y-53757500D01*
X137795000Y-63282500D01*
X113665000Y-63282500D01*
X113665000Y-53757500D01*
D12*
%TO.C,Fan1*%
X102800000Y-71060000D02*
X108550000Y-71060000D01*
X102800000Y-77060000D02*
X102800000Y-71060000D01*
X104150000Y-75950000D02*
X109230000Y-75950000D01*
X104150000Y-76960000D02*
X104150000Y-75950000D01*
X109230000Y-75950000D02*
X109230000Y-76960000D01*
X109900000Y-71110000D02*
X113100000Y-71110000D01*
X113100000Y-71110000D02*
X113100000Y-77060000D01*
X113100000Y-77060000D02*
X102800000Y-77060000D01*
%TO.C,R4*%
X128937295Y-70831960D02*
X128937295Y-71161960D01*
X122397295Y-70831960D02*
X128937295Y-70831960D01*
X122397295Y-71161960D02*
X122397295Y-70831960D01*
X122397295Y-73241960D02*
X122397295Y-73571960D01*
X128937295Y-73571960D02*
X128937295Y-73241960D01*
X122397295Y-73571960D02*
X128937295Y-73571960D01*
%TO.C,R1*%
X161571328Y-110285784D02*
X168111328Y-110285784D01*
X161571328Y-110615784D02*
X161571328Y-110285784D01*
X161571328Y-112695784D02*
X161571328Y-113025784D01*
X161571328Y-113025784D02*
X168111328Y-113025784D01*
X168111328Y-110285784D02*
X168111328Y-110615784D01*
X168111328Y-113025784D02*
X168111328Y-112695784D01*
%TO.C,WATER_TEMP1*%
X162115000Y-101580000D02*
X162115000Y-109200000D01*
X162115000Y-109200000D02*
X168085000Y-109200000D01*
X162875000Y-105390000D02*
X162875000Y-103400000D01*
X162875000Y-108440000D02*
X162875000Y-105390000D01*
X165825000Y-101590000D02*
X165825000Y-102340000D01*
X165825000Y-102340000D02*
X164485000Y-102340000D01*
X165825000Y-108440000D02*
X162875000Y-108440000D01*
X165825000Y-109190000D02*
X165825000Y-108440000D01*
X167325000Y-101590000D02*
X167325000Y-103390000D01*
X167325000Y-103390000D02*
X168075000Y-103390000D01*
X167325000Y-104890000D02*
X167325000Y-105890000D01*
X167325000Y-105890000D02*
X168075000Y-105890000D01*
X167325000Y-107390000D02*
X167325000Y-109190000D01*
X167325000Y-109190000D02*
X168075000Y-109190000D01*
X168075000Y-101590000D02*
X167325000Y-101590000D01*
X168075000Y-103390000D02*
X168075000Y-101590000D01*
X168075000Y-104890000D02*
X167325000Y-104890000D01*
X168075000Y-105890000D02*
X168075000Y-104890000D01*
X168075000Y-107390000D02*
X167325000Y-107390000D01*
X168075000Y-109190000D02*
X168075000Y-107390000D01*
X168085000Y-101580000D02*
X162115000Y-101580000D01*
X168085000Y-109200000D02*
X168085000Y-101580000D01*
X168375000Y-101290000D02*
X167125000Y-101290000D01*
X168375000Y-102540000D02*
X168375000Y-101290000D01*
%TO.C,LED_TEMP1*%
X162115000Y-114320000D02*
X162115000Y-121940000D01*
X162115000Y-121940000D02*
X168085000Y-121940000D01*
X162875000Y-118130000D02*
X162875000Y-116140000D01*
X162875000Y-121180000D02*
X162875000Y-118130000D01*
X165825000Y-114330000D02*
X165825000Y-115080000D01*
X165825000Y-115080000D02*
X164485000Y-115080000D01*
X165825000Y-121180000D02*
X162875000Y-121180000D01*
X165825000Y-121930000D02*
X165825000Y-121180000D01*
X167325000Y-114330000D02*
X167325000Y-116130000D01*
X167325000Y-116130000D02*
X168075000Y-116130000D01*
X167325000Y-117630000D02*
X167325000Y-118630000D01*
X167325000Y-118630000D02*
X168075000Y-118630000D01*
X167325000Y-120130000D02*
X167325000Y-121930000D01*
X167325000Y-121930000D02*
X168075000Y-121930000D01*
X168075000Y-114330000D02*
X167325000Y-114330000D01*
X168075000Y-116130000D02*
X168075000Y-114330000D01*
X168075000Y-117630000D02*
X167325000Y-117630000D01*
X168075000Y-118630000D02*
X168075000Y-117630000D01*
X168075000Y-120130000D02*
X167325000Y-120130000D01*
X168075000Y-121930000D02*
X168075000Y-120130000D01*
X168085000Y-114320000D02*
X162115000Y-114320000D01*
X168085000Y-121940000D02*
X168085000Y-114320000D01*
X168375000Y-114030000D02*
X167125000Y-114030000D01*
X168375000Y-115280000D02*
X168375000Y-114030000D01*
%TO.C,Switch1*%
X144840000Y-138730000D02*
X144840000Y-144700000D01*
X144840000Y-144700000D02*
X157460000Y-144700000D01*
X144850000Y-142440000D02*
X145600000Y-142440000D01*
X144850000Y-143940000D02*
X144850000Y-144690000D01*
X144850000Y-144690000D02*
X146650000Y-144690000D01*
X145600000Y-139490000D02*
X151150000Y-139490000D01*
X145600000Y-142440000D02*
X145600000Y-139490000D01*
X146650000Y-143940000D02*
X144850000Y-143940000D01*
X146650000Y-144690000D02*
X146650000Y-143940000D01*
X148150000Y-143940000D02*
X148150000Y-144690000D01*
X148150000Y-144690000D02*
X154150000Y-144690000D01*
X151150000Y-139490000D02*
X155640000Y-139490000D01*
X154150000Y-143940000D02*
X148150000Y-143940000D01*
X154150000Y-144690000D02*
X154150000Y-143940000D01*
X155650000Y-143940000D02*
X155650000Y-144690000D01*
X155650000Y-144690000D02*
X157450000Y-144690000D01*
X156500000Y-144990000D02*
X157750000Y-144990000D01*
X156700000Y-142440000D02*
X156700000Y-141100000D01*
X157450000Y-142440000D02*
X156700000Y-142440000D01*
X157450000Y-143940000D02*
X155650000Y-143940000D01*
X157450000Y-144690000D02*
X157450000Y-143940000D01*
X157460000Y-138730000D02*
X144840000Y-138730000D01*
X157460000Y-144700000D02*
X157460000Y-138730000D01*
X157750000Y-144990000D02*
X157750000Y-143740000D01*
%TO.C,PMBus1*%
X104120000Y-138730000D02*
X104120000Y-144700000D01*
X104120000Y-144700000D02*
X114240000Y-144700000D01*
X104130000Y-142440000D02*
X104880000Y-142440000D01*
X104130000Y-143940000D02*
X104130000Y-144690000D01*
X104130000Y-144690000D02*
X105930000Y-144690000D01*
X104880000Y-139490000D02*
X109180000Y-139490000D01*
X104880000Y-142440000D02*
X104880000Y-139490000D01*
X105930000Y-143940000D02*
X104130000Y-143940000D01*
X105930000Y-144690000D02*
X105930000Y-143940000D01*
X107430000Y-143940000D02*
X107430000Y-144690000D01*
X107430000Y-144690000D02*
X110930000Y-144690000D01*
X109180000Y-139490000D02*
X112420000Y-139490000D01*
X110930000Y-143940000D02*
X107430000Y-143940000D01*
X110930000Y-144690000D02*
X110930000Y-143940000D01*
X112430000Y-143940000D02*
X112430000Y-144690000D01*
X112430000Y-144690000D02*
X114230000Y-144690000D01*
X113280000Y-144990000D02*
X114530000Y-144990000D01*
X113480000Y-142440000D02*
X113480000Y-141100000D01*
X114230000Y-142440000D02*
X113480000Y-142440000D01*
X114230000Y-143940000D02*
X112430000Y-143940000D01*
X114230000Y-144690000D02*
X114230000Y-143940000D01*
X114240000Y-138730000D02*
X104120000Y-138730000D01*
X114240000Y-144700000D02*
X114240000Y-138730000D01*
X114530000Y-144990000D02*
X114530000Y-143740000D01*
%TO.C,ADUM2*%
D11*
X118110000Y-87530000D02*
X133350000Y-87530000D01*
X133350000Y-97690000D01*
X118110000Y-97690000D01*
X118110000Y-87530000D01*
D12*
%TO.C,R2*%
X161506661Y-122895996D02*
X168046661Y-122895996D01*
X161506661Y-123225996D02*
X161506661Y-122895996D01*
X161506661Y-125305996D02*
X161506661Y-125635996D01*
X161506661Y-125635996D02*
X168046661Y-125635996D01*
X168046661Y-122895996D02*
X168046661Y-123225996D01*
X168046661Y-125635996D02*
X168046661Y-125305996D01*
%TD*%
M02*
