%TF.GenerationSoftware,KiCad,Pcbnew,9.0.6*%
%TF.CreationDate,2025-12-08T01:14:47-06:00*%
%TF.ProjectId,1000W Controller,31303030-5720-4436-9f6e-74726f6c6c65,rev?*%
%TF.SameCoordinates,Original*%
%TF.FileFunction,Soldermask,Top*%
%TF.FilePolarity,Negative*%
%FSLAX46Y46*%
G04 Gerber Fmt 4.6, Leading zero omitted, Abs format (unit mm)*
G04 Created by KiCad (PCBNEW 9.0.6) date 2025-12-08 01:14:47*
%MOMM*%
%LPD*%
G01*
G04 APERTURE LIST*
G04 Aperture macros list*
%AMRoundRect*
0 Rectangle with rounded corners*
0 $1 Rounding radius*
0 $2 $3 $4 $5 $6 $7 $8 $9 X,Y pos of 4 corners*
0 Add a 4 corners polygon primitive as box body*
4,1,4,$2,$3,$4,$5,$6,$7,$8,$9,$2,$3,0*
0 Add four circle primitives for the rounded corners*
1,1,$1+$1,$2,$3*
1,1,$1+$1,$4,$5*
1,1,$1+$1,$6,$7*
1,1,$1+$1,$8,$9*
0 Add four rect primitives between the rounded corners*
20,1,$1+$1,$2,$3,$4,$5,0*
20,1,$1+$1,$4,$5,$6,$7,0*
20,1,$1+$1,$6,$7,$8,$9,0*
20,1,$1+$1,$8,$9,$2,$3,0*%
G04 Aperture macros list end*
%ADD10C,1.600000*%
%ADD11O,1.730000X2.030000*%
%ADD12R,1.730000X2.030000*%
%ADD13C,2.600000*%
%ADD14RoundRect,0.250000X1.050000X-1.050000X1.050000X1.050000X-1.050000X1.050000X-1.050000X-1.050000X0*%
%ADD15RoundRect,0.250000X0.550000X-0.550000X0.550000X0.550000X-0.550000X0.550000X-0.550000X-0.550000X0*%
%ADD16RoundRect,0.150000X-0.150000X0.587500X-0.150000X-0.587500X0.150000X-0.587500X0.150000X0.587500X0*%
%ADD17O,2.000000X1.700000*%
%ADD18RoundRect,0.250000X0.750000X-0.600000X0.750000X0.600000X-0.750000X0.600000X-0.750000X-0.600000X0*%
%ADD19R,1.905000X2.000000*%
%ADD20O,1.905000X2.000000*%
%ADD21RoundRect,0.250000X-0.725000X0.600000X-0.725000X-0.600000X0.725000X-0.600000X0.725000X0.600000X0*%
%ADD22O,1.950000X1.700000*%
%ADD23RoundRect,0.250000X1.050000X0.550000X-1.050000X0.550000X-1.050000X-0.550000X1.050000X-0.550000X0*%
%ADD24O,2.600000X1.600000*%
%ADD25RoundRect,0.250000X0.725000X-0.600000X0.725000X0.600000X-0.725000X0.600000X-0.725000X-0.600000X0*%
%ADD26C,1.778000*%
%ADD27C,3.500000*%
%ADD28RoundRect,0.250000X-0.750000X0.600000X-0.750000X-0.600000X0.750000X-0.600000X0.750000X0.600000X0*%
%ADD29RoundRect,0.250000X0.600000X0.725000X-0.600000X0.725000X-0.600000X-0.725000X0.600000X-0.725000X0*%
%ADD30O,1.700000X1.950000*%
G04 APERTURE END LIST*
D10*
%TO.C,R8*%
X115570000Y-73660000D03*
X115570000Y-81280000D03*
%TD*%
%TO.C,R7*%
X115570000Y-96520000D03*
X115570000Y-88900000D03*
%TD*%
%TO.C,R6*%
X115673893Y-104206313D03*
X115673893Y-111826313D03*
%TD*%
D11*
%TO.C,Fan2*%
X111770000Y-81280000D03*
X109230000Y-81280000D03*
X106690000Y-81280000D03*
D12*
X104150000Y-81280000D03*
%TD*%
D13*
%TO.C,J1*%
X96530000Y-86360000D03*
D14*
X96530000Y-91440000D03*
%TD*%
D11*
%TO.C,Fan4*%
X111770000Y-96520000D03*
X109230000Y-96520000D03*
X106690000Y-96520000D03*
D12*
X104150000Y-96520000D03*
%TD*%
D10*
%TO.C,D1*%
X112377979Y-115570000D03*
D15*
X112377979Y-123190000D03*
%TD*%
D16*
%TO.C,Q1*%
X105299945Y-115101117D03*
X104349945Y-113226117D03*
X106249945Y-113226117D03*
%TD*%
D17*
%TO.C,J2*%
X105380057Y-119570838D03*
D18*
X105380057Y-122070838D03*
%TD*%
D11*
%TO.C,Fan3*%
X111770000Y-88900000D03*
X109230000Y-88900000D03*
X106690000Y-88900000D03*
D12*
X104150000Y-88900000D03*
%TD*%
D10*
%TO.C,R5*%
X105130336Y-109893854D03*
X112750336Y-109893854D03*
%TD*%
D11*
%TO.C,Pump1*%
X111770000Y-104040000D03*
X109230000Y-104040000D03*
X106690000Y-104040000D03*
D12*
X104150000Y-104040000D03*
%TD*%
D19*
%TO.C,U2*%
X121355736Y-65396967D03*
D20*
X118815736Y-65396967D03*
X116275736Y-65396967D03*
%TD*%
D21*
%TO.C,Encoder1*%
X165625000Y-86520000D03*
D22*
X165625000Y-89020000D03*
X165625000Y-91520000D03*
X165625000Y-94020000D03*
X165625000Y-96520000D03*
%TD*%
D23*
%TO.C,A1*%
X157072500Y-118110000D03*
D24*
X157072500Y-115570000D03*
X157072500Y-113030000D03*
X157072500Y-110490000D03*
X157072500Y-107950000D03*
X157072500Y-105410000D03*
X157072500Y-102870000D03*
X157072500Y-100330000D03*
X157072500Y-97790000D03*
X157072500Y-95250000D03*
X157072500Y-92710000D03*
X157072500Y-90170000D03*
X157072500Y-87630000D03*
X157072500Y-85090000D03*
X157072500Y-82550000D03*
X157072500Y-80010000D03*
X137352500Y-80010000D03*
X137352500Y-82550000D03*
X137352500Y-85090000D03*
X137352500Y-87630000D03*
X137352500Y-90170000D03*
X137352500Y-92710000D03*
X137352500Y-95250000D03*
X137352500Y-97790000D03*
X137352500Y-100330000D03*
X137352500Y-102870000D03*
X137352500Y-105410000D03*
X137352500Y-107950000D03*
%TD*%
D10*
%TO.C,R3*%
X154940000Y-135890000D03*
X154940000Y-128270000D03*
%TD*%
D25*
%TO.C,Display1*%
X139700000Y-137160000D03*
D22*
X139700000Y-134660000D03*
X139700000Y-132160000D03*
X139700000Y-129660000D03*
%TD*%
D19*
%TO.C,U3*%
X135110802Y-65448914D03*
D20*
X132570802Y-65448914D03*
X130030802Y-65448914D03*
%TD*%
D26*
%TO.C,U1*%
X106653707Y-52161649D03*
X106653707Y-34381649D03*
X146023707Y-52161649D03*
X146023707Y-34381649D03*
%TD*%
%TO.C,ADUM1*%
X119380000Y-77370000D03*
X119380000Y-79910000D03*
X119380000Y-82450000D03*
X119380000Y-84990000D03*
X132080000Y-77370000D03*
X132080000Y-79910000D03*
X132080000Y-82450000D03*
X132080000Y-84990000D03*
%TD*%
%TO.C,ADUM4*%
X119380000Y-111660000D03*
X119380000Y-114200000D03*
X119380000Y-116740000D03*
X119380000Y-119280000D03*
X132080000Y-111660000D03*
X132080000Y-114200000D03*
X132080000Y-116740000D03*
X132080000Y-119280000D03*
%TD*%
D27*
%TO.C,REF\u002A\u002A*%
X96520000Y-38100000D03*
%TD*%
D26*
%TO.C,ADUM3*%
X119380000Y-100230000D03*
X119380000Y-102770000D03*
X119380000Y-105310000D03*
X119380000Y-107850000D03*
X132080000Y-100230000D03*
X132080000Y-102770000D03*
X132080000Y-105310000D03*
X132080000Y-107850000D03*
%TD*%
%TO.C,ISO1540*%
X119380000Y-130810000D03*
X119380000Y-133350000D03*
X119380000Y-135890000D03*
X119380000Y-138430000D03*
X132080000Y-130810000D03*
X132080000Y-133350000D03*
X132080000Y-135890000D03*
X132080000Y-138430000D03*
%TD*%
%TO.C,U4*%
X116840000Y-56297500D03*
X119380000Y-56297500D03*
X121920000Y-56297500D03*
X129540000Y-56297500D03*
X132080000Y-56297500D03*
X134620000Y-56297500D03*
%TD*%
D12*
%TO.C,Fan1*%
X104150000Y-73660000D03*
D11*
X106690000Y-73660000D03*
X109230000Y-73660000D03*
X111770000Y-73660000D03*
%TD*%
D27*
%TO.C,REF\u002A\u002A*%
X165100000Y-38100000D03*
%TD*%
%TO.C,REF\u002A\u002A*%
X96520000Y-142240000D03*
%TD*%
D10*
%TO.C,R4*%
X121857295Y-72201960D03*
X129477295Y-72201960D03*
%TD*%
%TO.C,R1*%
X161031328Y-111655784D03*
X168651328Y-111655784D03*
%TD*%
D28*
%TO.C,WATER_TEMP1*%
X165625000Y-104140000D03*
D17*
X165625000Y-106640000D03*
%TD*%
D28*
%TO.C,LED_TEMP1*%
X165625000Y-116880000D03*
D17*
X165625000Y-119380000D03*
%TD*%
D29*
%TO.C,Switch1*%
X154900000Y-142240000D03*
D30*
X152400000Y-142240000D03*
X149900000Y-142240000D03*
X147400000Y-142240000D03*
%TD*%
D27*
%TO.C,REF\u002A\u002A*%
X165100000Y-142240000D03*
%TD*%
D29*
%TO.C,PMBus1*%
X111680000Y-142240000D03*
D30*
X109180000Y-142240000D03*
X106680000Y-142240000D03*
%TD*%
D26*
%TO.C,ADUM2*%
X119380000Y-88800000D03*
X119380000Y-91340000D03*
X119380000Y-93880000D03*
X119380000Y-96420000D03*
X132080000Y-88800000D03*
X132080000Y-91340000D03*
X132080000Y-93880000D03*
X132080000Y-96420000D03*
%TD*%
D10*
%TO.C,R2*%
X160966661Y-124265996D03*
X168586661Y-124265996D03*
%TD*%
M02*
